<svg width="112" height="296" viewBox="0 0 112 296" fill="none" xmlns="http://www.w3.org/2000/svg">
<g filter="url(#filter0_g_1648_463)">
<path d="M30.1505 119.01C29.1067 119.01 28.1031 118.85 27.1397 118.529C26.2163 118.167 25.3934 117.666 24.6708 117.023C23.9883 116.381 23.4263 115.618 22.9847 114.735C22.5431 113.852 22.3022 112.888 22.2621 111.845C22.2219 110.761 22.3625 109.757 22.6836 108.834C23.0449 107.91 23.5266 107.087 24.1288 106.365C24.7711 105.642 25.5339 105.06 26.4171 104.619C27.3002 104.137 28.2637 103.836 29.3075 103.715C35.7306 103.193 40.9092 101.628 44.8434 99.0184C48.7776 96.3688 51.4673 92.3343 52.9125 86.9148C53.4343 85.1083 54.3978 83.6631 55.8029 82.5792C57.2481 81.4551 58.9141 80.8931 60.8009 80.8931C61.9651 80.8931 63.049 81.1139 64.0526 81.5555C65.0562 81.9971 65.9394 82.5993 66.7021 83.362C67.4649 84.1248 68.047 85.028 68.4484 86.0718C68.89 87.0754 69.1108 88.1593 69.1108 89.3235V196.811C69.1108 198.256 68.8498 199.56 68.328 200.725C67.8462 201.849 67.1838 202.832 66.3408 203.675C65.4978 204.478 64.5142 205.1 63.3902 205.542C62.2661 205.984 61.0618 206.204 59.7772 206.204C58.4925 206.204 57.2882 205.984 56.1642 205.542C55.0401 205.1 54.0566 204.478 53.2135 203.675C52.4107 202.832 51.7683 201.829 51.2866 200.664C50.8049 199.5 50.564 198.216 50.564 196.811V115.337C48.2758 116.381 45.3653 117.264 41.8326 117.987C38.2998 118.669 34.4058 119.01 30.1505 119.01Z" fill="url(#paint0_linear_1648_463)"/>
</g>
<path d="M105.397 249.729C105.525 249.683 105.732 249.82 105.89 249.809C106.548 249.764 106.804 249.845 107.404 249.833C108.293 249.817 110.869 249.277 111.01 250.395C111.01 250.395 111.01 250.395 111.01 250.395C111.011 250.406 111.013 250.417 111.014 250.428C111.031 250.642 110.839 250.902 110.837 251.147C110.834 251.392 111.055 252.944 110.752 253.071C110.31 253.244 109.166 252.983 108.925 253.032C108.761 253.065 108.574 253.232 108.364 253.284C107.689 253.451 107.317 253.393 106.748 253.855C106.476 253.684 106.203 253.512 105.931 253.341C105.62 253.476 105.098 253.27 104.904 253.31C104.745 253.342 104.671 253.514 104.505 253.543C104.318 253.576 104.008 253.439 103.67 253.508C103.115 253.621 103.068 254.051 102.739 254.146C102.397 254.245 101.827 254.086 101.401 254.289C101.351 254.342 101.301 254.395 101.251 254.448C101.304 254.547 101.357 254.646 101.41 254.745C101.193 254.821 101.069 254.621 100.863 254.643C100.621 254.669 100.522 254.886 100.36 254.905C100.226 254.921 100.025 254.782 99.8529 254.814C99.6024 254.86 99.687 255.087 99.5568 255.148C99.5048 255.171 98.5198 255.427 98.4635 255.436C98.0351 255.499 97.9573 255.184 97.6112 255.199C96.6514 255.243 95.7087 255.624 94.8421 255.833C94.4552 255.926 94.0433 255.959 93.6456 255.957C94.1587 255.061 92.7144 254.596 93.386 255.812C92.9277 255.685 92.6626 256.07 92.2424 256.063C91.9707 256.059 91.7635 255.905 91.3829 255.957C90.7078 256.052 90.0315 256.65 89.722 255.762C88.9483 256.023 88.2189 255.779 88.0343 256.621C87.8357 256.696 87.2505 256.282 87.0127 256.246C86.7878 256.212 85.0941 256.205 84.82 256.228C84.5459 256.25 84.067 256.297 83.8463 256.397C83.5689 256.521 83.4727 257.381 82.836 256.469C82.2489 256.624 82.0326 256.623 81.463 256.579C81.3598 256.571 81.3302 256.428 81.2714 256.435C81.1504 256.45 80.9581 256.583 80.7438 256.624C80.3913 256.69 80.1501 256.41 80.2485 256.871C80.0242 256.979 79.7999 257.087 79.5755 257.194C79.482 257.115 79.3886 257.035 79.2951 256.956C79.1822 257.069 79.0694 257.183 78.9566 257.297C79.0186 256.604 78.1876 257.113 78.5225 257.464C78.051 257.382 77.5795 257.3 77.108 257.217C77.0747 256.443 76.1002 257.255 76.242 257.66C76.19 257.666 76.1379 257.672 76.0859 257.678C75.6055 257.532 75.209 257.751 74.6375 257.684C74.066 257.617 74.1086 257.536 73.8956 257.205C73.7677 257.241 73.6399 257.278 73.512 257.315C72.9496 258.367 72.8595 256.679 71.7812 257.568C71.3301 257.008 70.4475 257.443 69.8588 257.705C69.7902 257.735 69.8039 257.853 69.7136 257.901C69.4928 258.018 68.8821 257.941 68.9503 258.319C68.7316 258.235 68.5129 258.151 68.2942 258.066C68.1356 258.157 67.9769 258.247 67.8182 258.337C67.834 258.456 67.8499 258.574 67.8657 258.693C67.4776 258.331 66.9675 258.553 66.694 258.489C66.6396 258.476 66.6077 258.314 66.4404 258.29C66.2448 258.261 65.899 258.353 65.6674 258.331C65.6028 258.523 65.5382 258.715 65.4735 258.908C65.0834 259.057 64.8815 258.596 64.6405 258.589C64.5971 258.588 63.825 258.72 63.7844 258.735C63.4522 258.86 63.6006 259.255 62.5991 259.293C62.4207 259.299 62.2602 259.176 62.1001 259.191C61.8172 259.216 61.0089 259.643 60.9794 259.947C60.5911 259.62 59.6962 259.887 59.4136 259.814C59.3282 259.791 59.2801 259.558 59.024 259.539C58.8164 259.523 58.3188 259.778 58.058 259.779C57.7811 259.779 57.6588 259.593 57.5349 259.594C57.4179 259.596 57.3317 259.769 57.1743 259.788C56.6828 259.844 56.2059 259.643 55.8173 259.687C55.2554 259.751 54.8195 260.287 54.3766 260.556C54.2562 260.54 54.1289 260.453 54.0066 260.467C52.4936 260.643 50.778 260.771 49.2495 260.861C48.54 260.903 46.7093 260.481 47.3115 261.494C47.0907 261.713 45.2582 261.505 44.9192 261.541C44.5803 261.577 44.3365 261.803 44.0712 261.839C43.2703 261.949 42.6881 261.882 41.733 262.172C41.4864 262.248 41.245 262.51 41.0954 262.526C40.9151 262.545 40.6937 262.349 40.459 262.364C39.8997 262.403 38.8739 262.606 38.3362 262.635C38.238 262.64 38.1795 262.45 38.0327 262.408C37.4611 262.24 36.8564 262.337 37.0417 262.941C36.3031 262.678 35.701 263.079 35.0599 263.179C33.7042 263.391 31.2074 263.559 30.0547 263.968C29.3279 264.226 29.3819 264.501 28.2513 264.401C28.0003 264.379 27.7481 264.338 27.4438 264.312C26.7306 264.251 26.0289 263.819 25.5773 264.503C24.7858 264.44 24.1858 264.631 23.547 264.176C23.4955 264.311 23.444 264.446 23.3925 264.581C23.2983 264.596 23.2041 264.611 23.1099 264.626C23.0652 264.509 23.0205 264.392 22.9758 264.275C22.2943 264.328 21.4973 264.932 20.9234 265.001C19.9612 265.117 17.4606 265.236 16.5284 265.189C16.0335 265.163 16.04 265.425 15.6959 264.929C15.5923 264.98 15.4887 265.03 15.3851 265.081C15.332 265.206 15.279 265.33 15.2259 265.455C14.6055 265.538 13.8462 265.45 13.2549 265.527C12.1774 265.667 10.599 266.191 9.49004 266.117C9.21193 266.098 8.84241 265.901 8.57696 265.938C8.19058 265.99 8.14674 266.4 7.65677 266.469C6.81221 266.588 5.17823 266.324 4.38298 266.461C4.14675 266.501 4.0546 266.663 3.89259 266.699C3.21342 266.854 2.64728 266.913 2.01669 267.225C1.26052 266.933 1.25962 266.433 0.977542 265.964C0.763966 265.61 0.144471 264.806 0.0306792 264.487C-0.0492575 264.263 0.103176 263.942 -9.71492e-05 263.697C0.822668 263.388 1.20722 263.566 1.94111 263.836C3.21145 263.661 4.48179 263.487 5.75212 263.312C5.88534 263.436 6.01855 263.56 6.15177 263.684C6.15181 263.684 6.15185 263.685 6.15188 263.685C6.6606 263.783 6.82264 263.4 7.0759 263.286C9.50049 262.192 14.5417 262.173 17.3297 261.91C17.9304 261.853 19.8534 261.421 20.2924 261.594C20.4061 261.64 20.4626 261.85 20.5769 261.845C21.5713 261.59 22.5657 261.336 23.5602 261.081C25.6799 261.151 27.7935 260.606 29.8807 260.291C35.5279 259.438 41.1147 258.562 46.693 257.91C47.7711 257.785 49.1175 257.452 50.1847 257.422C50.6301 257.41 50.8567 257.73 51.4024 257.401C51.4201 257.493 51.4378 257.584 51.4556 257.676C51.9459 257.501 52.2417 257.25 52.8045 257.157C53.2785 257.079 54.5367 256.907 54.962 256.889C55.1825 256.879 55.1229 257.062 55.3263 257.036C55.6744 256.989 56.3886 256.656 56.8693 256.596C57.3048 256.541 58.064 256.647 58.3952 256.576C59.5881 256.322 60.8643 255.861 62.1592 255.778C62.517 255.756 63.0018 255.922 63.1122 255.902C63.3276 255.861 63.3649 255.636 63.5072 255.589C64.2302 255.354 65.4177 255.467 66.1452 255.386C68.5157 255.121 71.0106 254.71 73.3717 254.453C74.8634 254.29 77.3323 253.94 78.7272 253.93C79.028 253.928 78.9791 254.176 79.2279 254.145C79.5038 254.11 79.633 253.93 79.7603 253.901C80.6413 253.697 82.591 253.286 83.4544 253.344C83.6189 253.356 83.7589 253.528 83.8549 253.515C83.9036 253.509 83.9974 253.368 84.1485 253.335C85.4822 253.05 86.4746 253 87.8013 252.877C90.342 252.641 93.2439 252.034 95.9182 251.827C96.5009 251.782 96.9446 252.101 97.0256 252.087C97.2033 252.057 97.2864 251.794 97.6406 251.687C98.8186 251.334 100.473 251.395 101.602 251.126C102.159 250.993 102.897 250.58 103.444 250.44C103.882 250.328 104.947 250.319 105.127 250.156C105.236 250.057 105.258 249.781 105.397 249.729ZM90.9507 255.801C90.9757 255.362 90.1886 255.824 90.5298 256.015C90.6067 256.058 90.9443 255.915 90.9507 255.801ZM51.8894 259.97C51.9125 260.092 51.9356 260.213 51.9587 260.335C52.0615 260.27 52.1643 260.206 52.2671 260.141C52.1964 260.075 52.1257 260.009 52.055 259.943C51.9998 259.952 51.9446 259.961 51.8894 259.97Z" fill="#151F6D"/>
<defs>
<filter id="filter0_g_1648_463" x="16.7208" y="75.4122" width="57.8709" height="136.273" filterUnits="userSpaceOnUse" color-interpolation-filters="sRGB">
<feFlood flood-opacity="0" result="BackgroundImageFix"/>
<feBlend mode="normal" in="SourceGraphic" in2="BackgroundImageFix" result="shape"/>
<feTurbulence type="fractalNoise" baseFrequency="0.018245372921228409 0.018245372921228409" numOctaves="3" seed="6722" />
<feDisplacementMap in="shape" scale="10.961684226989746" xChannelSelector="R" yChannelSelector="G" result="displacedImage" width="100%" height="100%" />
<feMerge result="effect1_texture_1648_463">
<feMergeNode in="displacedImage"/>
</feMerge>
</filter>
<linearGradient id="paint0_linear_1648_463" x1="34.8935" y1="195.769" x2="67.3257" y2="291.973" gradientUnits="userSpaceOnUse">
<stop stop-color="#151F6D"/>
<stop offset="1" stop-color="#151F6D" stop-opacity="0"/>
</linearGradient>
</defs>
</svg>
