<svg width="206" height="206" viewBox="0 0 206 206" fill="none" xmlns="http://www.w3.org/2000/svg">
<g clip-path="url(#clip0_1832_226)">
<g filter="url(#filter0_g_1832_226)">
<path d="M77.7691 74.0104C76.7254 74.0104 75.7218 73.8498 74.7583 73.5286C73.835 73.1673 73.012 72.6655 72.2894 72.0232C71.607 71.3809 71.0449 70.6182 70.6033 69.735C70.1618 68.8518 69.9209 67.8883 69.8807 66.8446C69.8406 65.7607 69.9811 64.7571 70.3023 63.8337C70.6636 62.9104 71.1453 62.0874 71.7475 61.3648C72.3898 60.6422 73.1525 60.0601 74.0357 59.6186C74.9189 59.1368 75.8824 58.8357 76.9261 58.7153C83.3492 58.1934 88.5279 56.6278 92.4621 54.0184C96.3962 51.3688 99.0859 47.3343 100.531 41.9148C101.053 40.1083 102.016 38.6631 103.422 37.5792C104.867 36.4551 106.533 35.8931 108.42 35.8931C109.584 35.8931 110.668 36.1139 111.671 36.5555C112.675 36.9971 113.558 37.5993 114.321 38.362C115.084 39.1248 115.666 40.028 116.067 41.0718C116.509 42.0754 116.729 43.1593 116.729 44.3235V151.811C116.729 153.256 116.468 154.56 115.947 155.725C115.465 156.849 114.802 157.832 113.959 158.675C113.116 159.478 112.133 160.1 111.009 160.542C109.885 160.984 108.68 161.204 107.396 161.204C106.111 161.204 104.907 160.984 103.783 160.542C102.659 160.1 101.675 159.478 100.832 158.675C100.029 157.832 99.387 156.829 98.9053 155.664C98.4235 154.5 98.1827 153.216 98.1827 151.811V70.3371C95.8944 71.3809 92.9839 72.2641 89.4512 72.9867C85.9185 73.6691 82.0245 74.0104 77.7691 74.0104Z" fill="url(#paint0_linear_1832_226)"/>
</g>
</g>
<defs>
<filter id="filter0_g_1832_226" x="64.3395" y="30.4122" width="57.8709" height="136.273" filterUnits="userSpaceOnUse" color-interpolation-filters="sRGB">
<feFlood flood-opacity="0" result="BackgroundImageFix"/>
<feBlend mode="normal" in="SourceGraphic" in2="BackgroundImageFix" result="shape"/>
<feTurbulence type="fractalNoise" baseFrequency="0.018245372921228409 0.018245372921228409" numOctaves="3" seed="6722" />
<feDisplacementMap in="shape" scale="10.961684226989746" xChannelSelector="R" yChannelSelector="G" result="displacedImage" width="100%" height="100%" />
<feMerge result="effect1_texture_1832_226">
<feMergeNode in="displacedImage"/>
</feMerge>
</filter>
<linearGradient id="paint0_linear_1832_226" x1="82.5122" y1="150.769" x2="114.944" y2="246.973" gradientUnits="userSpaceOnUse">
<stop stop-color="#151F6D"/>
<stop offset="1" stop-color="#151F6D" stop-opacity="0"/>
</linearGradient>
<clipPath id="clip0_1832_226">
<rect width="206" height="206" fill="white"/>
</clipPath>
</defs>
</svg>
