<svg width="112" height="296" viewBox="0 0 112 296" fill="none" xmlns="http://www.w3.org/2000/svg">
<g filter="url(#filter0_g_1648_462)">
<path d="M18.5519 196.811C18.5519 193.8 18.8731 190.789 19.5154 187.778C20.1577 184.727 21.1212 181.776 22.4058 178.926C23.6904 176.076 25.2962 173.346 27.2232 170.737C29.1501 168.087 31.3781 165.658 33.9072 163.45L59.0779 141.531C61.1654 139.605 62.9919 137.718 64.5576 135.871C66.1232 134.024 67.4279 132.077 68.4717 130.03C69.5556 127.983 70.3585 125.755 70.8804 123.346C71.4022 120.937 71.6632 118.187 71.6632 115.096C71.6632 112.527 71.342 110.118 70.6997 107.87C70.0574 105.582 69.0337 103.595 67.6286 101.909C66.2637 100.223 64.4773 98.898 62.2693 97.9345C60.1015 96.971 57.4721 96.4893 54.3809 96.4893C51.3701 96.4893 48.8008 97.1115 46.6732 98.356C44.5857 99.5603 42.8795 101.166 41.5548 103.173C40.23 105.181 39.2464 107.449 38.6041 109.978C37.9618 112.507 37.5804 115.076 37.46 117.686C37.3797 118.97 37.0586 120.175 36.4965 121.299C35.9747 122.383 35.2721 123.326 34.389 124.129C33.5459 124.892 32.5423 125.494 31.3781 125.935C30.2139 126.337 29.0096 126.497 27.7651 126.417C26.5206 126.337 25.3564 126.016 24.2725 125.454C23.2288 124.892 22.3255 124.169 21.5628 123.286C20.8 122.362 20.1979 121.319 19.7563 120.154C19.3548 118.99 19.1742 117.766 19.2143 116.481C19.4552 110.54 20.4387 105.301 22.1649 100.765C23.9313 96.2283 26.34 92.4347 29.391 89.3837C32.4821 86.2926 36.1553 83.9642 40.4106 82.3985C44.7061 80.8329 49.5234 80.0501 54.8627 80.0501C60.7238 80.0501 65.8623 80.9132 70.2782 82.6394C74.7342 84.3656 78.4476 86.7944 81.4183 89.9256C84.389 93.0168 86.617 96.7502 88.1024 101.126C89.6279 105.462 90.3906 110.279 90.3906 115.578C90.3906 120.074 89.8888 124.189 88.8852 127.922C87.9217 131.616 86.5167 135.088 84.67 138.34C82.8635 141.552 80.6355 144.582 77.9859 147.433C75.3765 150.283 72.446 153.093 69.1943 155.863L46.0108 175.554C43.7627 177.441 41.9963 179.428 40.7117 181.515C39.4672 183.603 38.6041 185.971 38.1224 188.621H84.7904C85.8743 188.621 86.898 188.842 87.8615 189.283C88.8651 189.725 89.7282 190.327 90.4508 191.09C91.1734 191.813 91.7354 192.676 92.1369 193.679C92.5785 194.643 92.7993 195.686 92.7993 196.811C92.7993 197.935 92.5785 198.998 92.1369 200.002C91.7354 201.006 91.1734 201.889 90.4508 202.652C89.7282 203.374 88.8651 203.956 87.8615 204.398C86.898 204.799 85.8743 205 84.7904 205H26.5608C25.4769 205 24.4331 204.799 23.4295 204.398C22.466 203.956 21.623 203.374 20.9004 202.652C20.1778 201.889 19.5957 201.006 19.1541 200.002C18.7527 198.998 18.5519 197.935 18.5519 196.811Z" fill="url(#paint0_linear_1648_462)"/>
</g>
<path d="M105.397 249.54C105.525 249.494 105.732 249.631 105.89 249.62C106.548 249.575 106.804 249.656 107.404 249.644C108.293 249.628 110.869 249.088 111.01 250.206C111.01 250.206 111.01 250.206 111.01 250.206C111.011 250.217 111.013 250.228 111.014 250.239C111.031 250.453 110.839 250.713 110.837 250.958C110.834 251.203 111.055 252.755 110.752 252.882C110.31 253.055 109.166 252.794 108.925 252.843C108.761 252.876 108.574 253.043 108.364 253.095C107.689 253.262 107.317 253.204 106.748 253.666C106.476 253.495 106.203 253.323 105.931 253.152C105.62 253.287 105.098 253.081 104.904 253.121C104.745 253.153 104.671 253.325 104.505 253.354C104.318 253.387 104.008 253.25 103.67 253.319C103.115 253.432 103.068 253.862 102.739 253.957C102.397 254.056 101.827 253.897 101.401 254.1C101.351 254.153 101.301 254.206 101.251 254.259C101.304 254.358 101.357 254.457 101.41 254.556C101.193 254.632 101.069 254.432 100.863 254.454C100.621 254.48 100.522 254.697 100.36 254.717C100.226 254.732 100.025 254.593 99.8529 254.625C99.6024 254.671 99.687 254.898 99.5568 254.959C99.5048 254.982 98.5198 255.238 98.4635 255.247C98.0351 255.31 97.9573 254.995 97.6112 255.01C96.6514 255.054 95.7087 255.435 94.8421 255.644C94.4552 255.737 94.0433 255.77 93.6456 255.768C94.1587 254.872 92.7144 254.407 93.386 255.623C92.9277 255.496 92.6626 255.881 92.2424 255.874C91.9707 255.87 91.7635 255.716 91.3829 255.768C90.7078 255.863 90.0315 256.461 89.722 255.573C88.9483 255.834 88.2189 255.59 88.0343 256.432C87.8357 256.507 87.2505 256.093 87.0127 256.057C86.7878 256.023 85.0941 256.017 84.82 256.039C84.5459 256.061 84.067 256.108 83.8463 256.208C83.5689 256.332 83.4727 257.192 82.836 256.28C82.2489 256.435 82.0326 256.434 81.463 256.39C81.3598 256.382 81.3302 256.239 81.2714 256.246C81.1504 256.261 80.9581 256.395 80.7438 256.435C80.3913 256.501 80.1501 256.222 80.2485 256.682C80.0242 256.79 79.7999 256.898 79.5755 257.005C79.482 256.926 79.3886 256.846 79.2951 256.767C79.1822 256.881 79.0694 256.994 78.9566 257.108C79.0186 256.415 78.1876 256.924 78.5225 257.275C78.051 257.193 77.5795 257.111 77.108 257.028C77.0747 256.254 76.1002 257.066 76.242 257.471C76.19 257.477 76.1379 257.483 76.0859 257.489C75.6055 257.343 75.209 257.562 74.6375 257.495C74.066 257.428 74.1086 257.347 73.8956 257.016C73.7677 257.053 73.6399 257.089 73.512 257.126C72.9496 258.178 72.8595 256.49 71.7812 257.379C71.3301 256.819 70.4475 257.254 69.8588 257.516C69.7902 257.546 69.8039 257.664 69.7136 257.713C69.4928 257.829 68.8821 257.752 68.9503 258.13C68.7316 258.046 68.5129 257.962 68.2942 257.877C68.1356 257.968 67.9769 258.058 67.8182 258.148C67.834 258.267 67.8499 258.385 67.8657 258.504C67.4776 258.142 66.9675 258.364 66.694 258.3C66.6396 258.287 66.6077 258.125 66.4404 258.101C66.2448 258.072 65.899 258.164 65.6674 258.142C65.6028 258.334 65.5382 258.526 65.4735 258.719C65.0834 258.868 64.8815 258.407 64.6405 258.4C64.5971 258.399 63.825 258.531 63.7844 258.546C63.4522 258.671 63.6006 259.066 62.5991 259.104C62.4207 259.11 62.2602 258.987 62.1001 259.002C61.8172 259.027 61.0089 259.454 60.9794 259.758C60.5911 259.431 59.6962 259.698 59.4136 259.625C59.3282 259.602 59.2801 259.369 59.024 259.35C58.8164 259.335 58.3188 259.589 58.058 259.59C57.7811 259.59 57.6588 259.404 57.5349 259.405C57.4179 259.407 57.3317 259.58 57.1743 259.599C56.6828 259.656 56.2059 259.454 55.8173 259.498C55.2554 259.562 54.8195 260.098 54.3766 260.367C54.2562 260.351 54.1289 260.264 54.0066 260.278C52.4936 260.454 50.778 260.582 49.2495 260.672C48.54 260.714 46.7093 260.292 47.3115 261.305C47.0907 261.524 45.2582 261.316 44.9192 261.352C44.5803 261.388 44.3365 261.614 44.0712 261.65C43.2703 261.76 42.6881 261.693 41.733 261.983C41.4864 262.059 41.245 262.321 41.0954 262.337C40.9151 262.356 40.6937 262.16 40.459 262.175C39.8997 262.214 38.8739 262.417 38.3362 262.446C38.238 262.451 38.1795 262.262 38.0327 262.219C37.4611 262.051 36.8564 262.148 37.0417 262.752C36.3031 262.489 35.701 262.89 35.0599 262.99C33.7042 263.202 31.2074 263.37 30.0547 263.779C29.3279 264.037 29.3819 264.312 28.2513 264.212C28.0003 264.19 27.7481 264.149 27.4438 264.123C26.7306 264.062 26.0289 263.63 25.5773 264.314C24.7858 264.251 24.1858 264.442 23.547 263.987C23.4955 264.122 23.444 264.257 23.3925 264.392C23.2983 264.407 23.2041 264.422 23.1099 264.437C23.0652 264.32 23.0205 264.203 22.9758 264.086C22.2943 264.139 21.4973 264.743 20.9234 264.812C19.9612 264.928 17.4606 265.048 16.5284 265C16.0335 264.974 16.04 265.236 15.6959 264.74C15.5923 264.791 15.4887 264.841 15.3851 264.892C15.332 265.017 15.279 265.141 15.2259 265.266C14.6055 265.349 13.8462 265.261 13.2549 265.338C12.1774 265.478 10.599 266.002 9.49004 265.928C9.21193 265.909 8.84241 265.712 8.57696 265.749C8.19058 265.801 8.14674 266.211 7.65677 266.28C6.81221 266.399 5.17823 266.135 4.38298 266.272C4.14675 266.312 4.0546 266.474 3.89259 266.51C3.21342 266.665 2.64728 266.724 2.01669 267.036C1.26052 266.744 1.25962 266.244 0.977542 265.775C0.763966 265.422 0.144471 264.617 0.0306792 264.298C-0.0492575 264.074 0.103176 263.753 -9.71492e-05 263.508C0.822668 263.199 1.20722 263.377 1.94111 263.647C3.21145 263.472 4.48179 263.298 5.75212 263.123C5.88534 263.247 6.01855 263.371 6.15177 263.495C6.15181 263.495 6.15185 263.496 6.15188 263.496C6.6606 263.594 6.82264 263.211 7.0759 263.097C9.50049 262.003 14.5417 261.984 17.3297 261.721C17.9304 261.664 19.8534 261.232 20.2924 261.405C20.4061 261.451 20.4626 261.661 20.5769 261.656C21.5713 261.401 22.5657 261.147 23.5602 260.892C25.6799 260.962 27.7935 260.417 29.8807 260.102C35.5279 259.249 41.1147 258.373 46.693 257.721C47.7711 257.596 49.1175 257.263 50.1847 257.233C50.6301 257.221 50.8567 257.541 51.4024 257.212C51.4201 257.304 51.4378 257.396 51.4556 257.487C51.9459 257.312 52.2417 257.061 52.8045 256.968C53.2785 256.891 54.5367 256.718 54.962 256.7C55.1825 256.69 55.1229 256.873 55.3263 256.847C55.6744 256.8 56.3886 256.467 56.8693 256.407C57.3048 256.352 58.064 256.458 58.3952 256.387C59.5881 256.133 60.8643 255.672 62.1592 255.589C62.517 255.567 63.0018 255.733 63.1122 255.713C63.3276 255.672 63.3649 255.447 63.5072 255.4C64.2302 255.165 65.4177 255.278 66.1452 255.197C68.5157 254.932 71.0106 254.521 73.3717 254.264C74.8634 254.101 77.3323 253.751 78.7272 253.741C79.028 253.739 78.9791 253.987 79.2279 253.956C79.5038 253.921 79.633 253.741 79.7603 253.712C80.6413 253.508 82.591 253.097 83.4544 253.155C83.6189 253.167 83.7589 253.339 83.8549 253.326C83.9036 253.32 83.9974 253.179 84.1485 253.146C85.4822 252.861 86.4746 252.811 87.8013 252.688C90.342 252.452 93.2439 251.845 95.9182 251.638C96.5009 251.593 96.9446 251.912 97.0256 251.898C97.2033 251.868 97.2864 251.605 97.6406 251.498C98.8186 251.145 100.473 251.206 101.602 250.937C102.159 250.804 102.897 250.391 103.444 250.251C103.882 250.139 104.947 250.13 105.127 249.967C105.236 249.868 105.258 249.592 105.397 249.54ZM90.9507 255.612C90.9757 255.173 90.1886 255.635 90.5298 255.826C90.6067 255.869 90.9443 255.726 90.9507 255.612ZM51.8894 259.781C51.9125 259.903 51.9356 260.025 51.9587 260.146C52.0615 260.081 52.1643 260.017 52.2671 259.952C52.1964 259.886 52.1257 259.82 52.055 259.754C51.9998 259.763 51.9446 259.772 51.8894 259.781Z" fill="#151F6D"/>
<defs>
<filter id="filter0_g_1648_462" x="13.0709" y="74.5695" width="85.2092" height="135.911" filterUnits="userSpaceOnUse" color-interpolation-filters="sRGB">
<feFlood flood-opacity="0" result="BackgroundImageFix"/>
<feBlend mode="normal" in="SourceGraphic" in2="BackgroundImageFix" result="shape"/>
<feTurbulence type="fractalNoise" baseFrequency="0.018245372921228409 0.018245372921228409" numOctaves="3" seed="6722" />
<feDisplacementMap in="shape" scale="10.961684226989746" xChannelSelector="R" yChannelSelector="G" result="displacedImage" width="100%" height="100%" />
<feMerge result="effect1_texture_1648_462">
<feMergeNode in="displacedImage"/>
</feMerge>
</filter>
<linearGradient id="paint0_linear_1648_462" x1="34.977" y1="195.769" x2="67.4092" y2="291.973" gradientUnits="userSpaceOnUse">
<stop stop-color="#151F6D"/>
<stop offset="1" stop-color="#151F6D" stop-opacity="0"/>
</linearGradient>
</defs>
</svg>
