<svg width="206" height="206" viewBox="0 0 206 206" fill="none" xmlns="http://www.w3.org/2000/svg">
<g clip-path="url(#clip0_1832_223)">
<g filter="url(#filter0_g_1832_223)">
<path d="M66.0871 151.811C66.0871 148.8 66.4082 145.789 67.0506 142.778C67.6929 139.727 68.6563 136.776 69.941 133.926C71.2256 131.076 72.8314 128.346 74.7583 125.737C76.6852 123.087 78.9133 120.658 81.4424 118.45L106.613 96.5315C108.701 94.6045 110.527 92.7177 112.093 90.8711C113.658 89.0244 114.963 87.0774 116.007 85.0301C117.091 82.9827 117.894 80.7547 118.416 78.346C118.937 75.9373 119.198 73.1874 119.198 70.0963C119.198 67.527 118.877 65.1184 118.235 62.8703C117.593 60.582 116.569 58.5949 115.164 56.9088C113.799 55.2227 112.012 53.898 109.805 52.9345C107.637 51.971 105.007 51.4893 101.916 51.4893C98.9053 51.4893 96.336 52.1115 94.2083 53.356C92.1208 54.5603 90.4147 56.1661 89.0899 58.1733C87.7651 60.1806 86.7816 62.4487 86.1393 64.9778C85.497 67.507 85.1156 70.0762 84.9952 72.6856C84.9149 73.9702 84.5937 75.1746 84.0317 76.2986C83.5098 77.3825 82.8073 78.3259 81.9241 79.1288C81.0811 79.8915 80.0775 80.4937 78.9133 80.9353C77.7491 81.3368 76.5447 81.4973 75.3003 81.417C74.0558 81.3368 72.8916 81.0156 71.8077 80.4536C70.7639 79.8915 69.8607 79.1689 69.0979 78.2858C68.3352 77.3624 67.733 76.3187 67.2914 75.1545C66.89 73.9903 66.7093 72.7659 66.7495 71.4813C66.9903 65.5399 67.9739 60.301 69.7001 55.7647C71.4665 51.2283 73.8751 47.4347 76.9261 44.3837C80.0172 41.2926 83.6905 38.9642 87.9458 37.3985C92.2413 35.8329 97.0586 35.0501 102.398 35.0501C108.259 35.0501 113.397 35.9132 117.813 37.6394C122.269 39.3656 125.983 41.7944 128.953 44.9256C131.924 48.0168 134.152 51.7502 135.638 56.126C137.163 60.4616 137.926 65.2789 137.926 70.578C137.926 75.0742 137.424 79.189 136.42 82.9225C135.457 86.6158 134.052 90.0883 132.205 93.34C130.399 96.5515 128.171 99.5825 125.521 102.433C122.912 105.283 119.981 108.093 116.729 110.863L93.546 130.554C91.2979 132.441 89.5315 134.428 88.2469 136.515C87.0024 138.603 86.1393 140.971 85.6576 143.621H132.326C133.409 143.621 134.433 143.842 135.397 144.283C136.4 144.725 137.263 145.327 137.986 146.09C138.709 146.813 139.271 147.676 139.672 148.679C140.114 149.643 140.334 150.686 140.334 151.811C140.334 152.935 140.114 153.998 139.672 155.002C139.271 156.006 138.709 156.889 137.986 157.652C137.263 158.374 136.4 158.956 135.397 159.398C134.433 159.799 133.409 160 132.326 160H74.0959C73.012 160 71.9683 159.799 70.9646 159.398C70.0012 158.956 69.1581 158.374 68.4355 157.652C67.7129 156.889 67.1308 156.006 66.6893 155.002C66.2878 153.998 66.0871 152.935 66.0871 151.811Z" fill="url(#paint0_linear_1832_223)"/>
</g>
</g>
<defs>
<filter id="filter0_g_1832_223" x="60.6061" y="29.5695" width="85.2092" height="135.911" filterUnits="userSpaceOnUse" color-interpolation-filters="sRGB">
<feFlood flood-opacity="0" result="BackgroundImageFix"/>
<feBlend mode="normal" in="SourceGraphic" in2="BackgroundImageFix" result="shape"/>
<feTurbulence type="fractalNoise" baseFrequency="0.018245372921228409 0.018245372921228409" numOctaves="3" seed="6722" />
<feDisplacementMap in="shape" scale="10.961684226989746" xChannelSelector="R" yChannelSelector="G" result="displacedImage" width="100%" height="100%" />
<feMerge result="effect1_texture_1832_223">
<feMergeNode in="displacedImage"/>
</feMerge>
</filter>
<linearGradient id="paint0_linear_1832_223" x1="82.5122" y1="150.769" x2="114.944" y2="246.973" gradientUnits="userSpaceOnUse">
<stop stop-color="#151F6D"/>
<stop offset="1" stop-color="#151F6D" stop-opacity="0"/>
</linearGradient>
<clipPath id="clip0_1832_223">
<rect width="206" height="206" fill="white"/>
</clipPath>
</defs>
</svg>
