<svg width="112" height="296" viewBox="0 0 112 296" fill="none" xmlns="http://www.w3.org/2000/svg">
<g filter="url(#filter0_g_1648_461)">
<path d="M50.6783 147.975C49.5944 147.975 48.5707 147.774 47.6072 147.372C46.6839 146.931 45.861 146.349 45.1384 145.626C44.4559 144.904 43.9139 144.061 43.5125 143.097C43.1111 142.134 42.9103 141.11 42.9103 140.026C42.9103 138.942 43.1111 137.918 43.5125 136.955C43.9139 135.992 44.4559 135.148 45.1384 134.426C45.861 133.703 46.6839 133.141 47.6072 132.74C48.5707 132.298 49.5944 132.077 50.6783 132.077C53.4884 132.077 56.0577 131.816 58.3861 131.295C60.7546 130.733 62.802 129.769 64.5282 128.404C66.2544 127.039 67.5992 125.193 68.5627 122.864C69.5262 120.496 70.0079 117.485 70.0079 113.832C70.0079 111.383 69.7269 109.135 69.1649 107.087C68.643 105.04 67.7598 103.274 66.5153 101.788C65.311 100.263 63.6851 99.0786 61.6378 98.2356C59.6305 97.3925 57.1616 96.971 54.2311 96.971C51.5013 96.971 49.193 97.3524 47.3062 98.1151C45.4595 98.8377 43.9139 99.8614 42.6695 101.186C41.4651 102.511 40.5418 104.077 39.8995 105.883C39.2572 107.69 38.7955 109.657 38.5145 111.784C38.3539 113.069 37.9525 114.233 37.3102 115.277C36.708 116.321 35.9252 117.204 34.9617 117.926C34.0384 118.649 32.9946 119.171 31.8304 119.492C30.6662 119.813 29.4619 119.894 28.2174 119.733C26.9729 119.572 25.8288 119.171 24.7851 118.529C23.7815 117.886 22.9384 117.104 22.256 116.18C21.5735 115.217 21.0516 114.153 20.6903 112.989C20.3692 111.784 20.2889 110.54 20.4495 109.255C20.9312 105 21.995 101.086 23.6409 97.513C25.2869 93.9 27.5149 90.8088 30.325 88.2396C33.1351 85.6703 36.5474 83.6631 40.5619 82.2179C44.5763 80.7727 49.213 80.0501 54.472 80.0501C59.6908 80.0501 64.4077 80.8128 68.6229 82.3383C72.8782 83.8237 76.4912 85.9513 79.4619 88.7213C82.4326 91.4913 84.7209 94.8634 86.3267 98.8377C87.9324 102.772 88.7353 107.188 88.7353 112.085C88.7353 115.056 88.5547 117.826 88.1934 120.395C87.8722 122.965 87.25 125.353 86.3267 127.561C85.4033 129.729 84.1187 131.736 82.4728 133.583C80.8269 135.429 78.7193 137.075 76.15 138.521C79.0404 139.725 81.5093 141.291 83.5567 143.218C85.6041 145.104 87.25 147.272 88.4945 149.721C89.7791 152.13 90.7024 154.759 91.2644 157.609C91.8666 160.46 92.1677 163.41 92.1677 166.461C92.1677 172.362 91.4451 177.782 89.9999 182.72C88.5547 187.617 86.2865 191.833 83.1954 195.365C80.1444 198.898 76.1902 201.648 71.3327 203.615C66.5153 205.582 60.7144 206.566 53.93 206.566C47.9083 206.566 42.7297 205.763 38.3941 204.157C34.0585 202.511 30.4454 200.243 27.555 197.352C24.6646 194.462 22.4567 191.03 20.9312 187.055C19.4458 183.041 18.5426 178.665 18.2214 173.928C18.1411 172.684 18.2816 171.479 18.6429 170.315C19.0444 169.111 19.6064 168.067 20.329 167.184C21.0918 166.261 21.995 165.498 23.0388 164.896C24.1227 164.293 25.2869 163.932 26.5314 163.812C27.7758 163.691 28.9802 163.812 30.1444 164.173C31.3086 164.494 32.3523 165.016 33.2756 165.739C34.2391 166.461 35.0219 167.364 35.6241 168.448C36.2263 169.532 36.5876 170.757 36.708 172.122C36.9489 174.611 37.4306 176.919 38.1532 179.047C38.9159 181.134 40.0199 182.961 41.4651 184.526C42.9103 186.052 44.7369 187.256 46.9449 188.139C49.1528 188.982 51.8224 189.404 54.9537 189.404C58.1653 189.404 60.9352 188.942 63.2636 188.019C65.592 187.096 67.4989 185.811 68.9842 184.165C70.5097 182.519 71.6338 180.572 72.3564 178.324C73.079 176.076 73.4403 173.627 73.4403 170.977C73.4403 166.843 73.0187 163.33 72.1757 160.44C71.3327 157.509 70.0079 155.12 68.2014 153.274C66.3949 151.427 64.0464 150.082 61.156 149.239C58.2656 148.396 54.773 147.975 50.6783 147.975Z" fill="url(#paint0_linear_1648_461)"/>
</g>
<path d="M105.397 249.351C105.525 249.305 105.732 249.442 105.89 249.431C106.548 249.385 106.804 249.466 107.404 249.455C108.293 249.438 110.869 248.899 111.01 250.016C111.01 250.016 111.01 250.016 111.01 250.016C111.011 250.027 111.013 250.038 111.014 250.05C111.031 250.264 110.839 250.524 110.837 250.769C110.834 251.014 111.055 252.566 110.752 252.693C110.31 252.866 109.166 252.605 108.925 252.653C108.761 252.686 108.574 252.853 108.364 252.905C107.689 253.073 107.317 253.015 106.748 253.476C106.476 253.305 106.203 253.134 105.931 252.963C105.62 253.097 105.098 252.892 104.904 252.931C104.745 252.964 104.671 253.136 104.505 253.164C104.318 253.197 104.008 253.061 103.67 253.13C103.115 253.242 103.068 253.672 102.739 253.768C102.397 253.867 101.827 253.708 101.401 253.911C101.351 253.964 101.301 254.017 101.251 254.07C101.304 254.169 101.357 254.267 101.41 254.366C101.193 254.443 101.069 254.242 100.863 254.264C100.621 254.29 100.522 254.507 100.36 254.527C100.226 254.543 100.025 254.404 99.8529 254.436C99.6024 254.482 99.687 254.708 99.5568 254.769C99.5048 254.793 98.5198 255.048 98.4635 255.057C98.0351 255.121 97.9573 254.806 97.6112 254.821C96.6514 254.864 95.7087 255.246 94.8421 255.454C94.4552 255.547 94.0433 255.581 93.6456 255.579C94.1587 254.683 92.7144 254.218 93.386 255.434C92.9277 255.307 92.6626 255.691 92.2424 255.685C91.9707 255.68 91.7635 255.526 91.3829 255.579C90.7078 255.674 90.0315 256.272 89.722 255.384C88.9483 255.645 88.2189 255.401 88.0343 256.242C87.8357 256.317 87.2505 255.904 87.0127 255.867C86.7878 255.834 85.0941 255.827 84.82 255.849C84.5459 255.872 84.067 255.919 83.8463 256.018C83.5689 256.142 83.4727 257.003 82.836 256.091C82.2489 256.245 82.0326 256.244 81.463 256.201C81.3598 256.193 81.3302 256.049 81.2714 256.057C81.1504 256.072 80.9581 256.205 80.7438 256.245C80.3913 256.312 80.1501 256.032 80.2485 256.493C80.0242 256.601 79.7999 256.708 79.5755 256.816C79.482 256.736 79.3886 256.657 79.2951 256.577C79.1822 256.691 79.0694 256.805 78.9566 256.919C79.0186 256.226 78.1876 256.735 78.5225 257.086C78.051 257.003 77.5795 256.921 77.108 256.839C77.0747 256.065 76.1002 256.876 76.242 257.282C76.19 257.288 76.1379 257.294 76.0859 257.299C75.6055 257.153 75.209 257.372 74.6375 257.306C74.066 257.239 74.1086 257.158 73.8956 256.826C73.7677 256.863 73.6399 256.9 73.512 256.936C72.9496 257.989 72.8595 256.301 71.7812 257.19C71.3301 256.63 70.4475 257.065 69.8588 257.326C69.7902 257.357 69.8039 257.475 69.7136 257.523C69.4928 257.64 68.8821 257.563 68.9503 257.94C68.7316 257.856 68.5129 257.772 68.2942 257.688C68.1356 257.778 67.9769 257.868 67.8182 257.959C67.834 258.077 67.8499 258.196 67.8657 258.314C67.4776 257.952 66.9675 258.175 66.694 258.111C66.6396 258.098 66.6077 257.936 66.4404 257.911C66.2448 257.882 65.899 257.975 65.6674 257.952C65.6028 258.145 65.5382 258.337 65.4735 258.529C65.0834 258.679 64.8815 258.218 64.6405 258.21C64.5971 258.209 63.825 258.342 63.7844 258.357C63.4522 258.481 63.6006 258.877 62.5991 258.914C62.4207 258.921 62.2602 258.798 62.1001 258.812C61.8172 258.837 61.0089 259.265 60.9794 259.569C60.5911 259.242 59.6962 259.508 59.4136 259.435C59.3282 259.413 59.2801 259.179 59.024 259.16C58.8164 259.145 58.3188 259.4 58.058 259.4C57.7811 259.4 57.6588 259.215 57.5349 259.216C57.4179 259.218 57.3317 259.391 57.1743 259.41C56.6828 259.466 56.2059 259.265 55.8173 259.309C55.2554 259.372 54.8195 259.908 54.3766 260.178C54.2562 260.162 54.1289 260.074 54.0066 260.089C52.4936 260.265 50.778 260.392 49.2495 260.482C48.54 260.524 46.7093 260.102 47.3115 261.116C47.0907 261.334 45.2582 261.126 44.9192 261.162C44.5803 261.199 44.3365 261.425 44.0712 261.461C43.2703 261.571 42.6881 261.503 41.733 261.794C41.4864 261.869 41.245 262.131 41.0954 262.147C40.9151 262.166 40.6937 261.97 40.459 261.986C39.8997 262.024 38.8739 262.227 38.3362 262.256C38.238 262.261 38.1795 262.072 38.0327 262.029C37.4611 261.861 36.8564 261.958 37.0417 262.562C36.3031 262.299 35.701 262.7 35.0599 262.801C33.7042 263.013 31.2074 263.181 30.0547 263.59C29.3279 263.848 29.3819 264.122 28.2513 264.022C28.0003 264 27.7481 263.959 27.4438 263.933C26.7306 263.872 26.0289 263.441 25.5773 264.124C24.7858 264.062 24.1858 264.253 23.547 263.797C23.4955 263.932 23.444 264.067 23.3925 264.202C23.2983 264.217 23.2041 264.232 23.1099 264.247C23.0652 264.131 23.0205 264.014 22.9758 263.897C22.2943 263.95 21.4973 264.554 20.9234 264.623C19.9612 264.738 17.4606 264.858 16.5284 264.81C16.0335 264.785 16.04 265.047 15.6959 264.55C15.5923 264.601 15.4887 264.652 15.3851 264.702C15.332 264.827 15.279 264.952 15.2259 265.077C14.6055 265.16 13.8462 265.072 13.2549 265.148C12.1774 265.288 10.599 265.812 9.49004 265.739C9.21193 265.72 8.84241 265.523 8.57696 265.559C8.19058 265.612 8.14674 266.021 7.65677 266.091C6.81221 266.21 5.17823 265.946 4.38298 266.082C4.14675 266.122 4.0546 266.284 3.89259 266.321C3.21342 266.476 2.64728 266.535 2.01669 266.847C1.26052 266.555 1.25962 266.055 0.977542 265.586C0.763966 265.232 0.144471 264.428 0.0306792 264.109C-0.0492575 263.884 0.103176 263.564 -9.71492e-05 263.319C0.822668 263.009 1.20722 263.187 1.94111 263.458C3.21145 263.283 4.48179 263.108 5.75212 262.934C5.88534 263.058 6.01855 263.182 6.15177 263.306C6.15181 263.306 6.15185 263.306 6.15188 263.306C6.6606 263.405 6.82264 263.022 7.0759 262.907C9.50049 261.814 14.5417 261.795 17.3297 261.532C17.9304 261.475 19.8534 261.043 20.2924 261.216C20.4061 261.261 20.4626 261.471 20.5769 261.466C21.5713 261.212 22.5657 260.957 23.5602 260.703C25.6799 260.773 27.7935 260.227 29.8807 259.912C35.5279 259.059 41.1147 258.183 46.693 257.532C47.7711 257.406 49.1175 257.074 50.1847 257.044C50.6301 257.031 50.8567 257.351 51.4024 257.023C51.4201 257.114 51.4378 257.206 51.4556 257.298C51.9459 257.123 52.2417 256.872 52.8045 256.779C53.2785 256.701 54.5367 256.528 54.962 256.511C55.1825 256.501 55.1229 256.684 55.3263 256.657C55.6744 256.611 56.3886 256.278 56.8693 256.217C57.3048 256.162 58.064 256.269 58.3952 256.198C59.5881 255.943 60.8643 255.483 62.1592 255.4C62.517 255.377 63.0018 255.544 63.1122 255.523C63.3276 255.483 63.3649 255.257 63.5072 255.211C64.2302 254.976 65.4177 255.089 66.1452 255.008C68.5157 254.743 71.0106 254.331 73.3717 254.074C74.8634 253.912 77.3323 253.561 78.7272 253.552C79.028 253.55 78.9791 253.798 79.2279 253.767C79.5038 253.732 79.633 253.552 79.7603 253.523C80.6413 253.319 82.591 252.908 83.4544 252.966C83.6189 252.977 83.7589 253.149 83.8549 253.137C83.9036 253.13 83.9974 252.989 84.1485 252.957C85.4822 252.671 86.4746 252.622 87.8013 252.499C90.342 252.263 93.2439 251.656 95.9182 251.449C96.5009 251.404 96.9446 251.723 97.0256 251.709C97.2033 251.679 97.2864 251.416 97.6406 251.309C98.8186 250.955 100.473 251.016 101.602 250.747C102.159 250.615 102.897 250.201 103.444 250.061C103.882 249.949 104.947 249.941 105.127 249.777C105.236 249.678 105.258 249.403 105.397 249.351ZM90.9507 255.423C90.9757 254.983 90.1886 255.445 90.5298 255.636C90.6067 255.679 90.9443 255.537 90.9507 255.423ZM51.8894 259.592C51.9125 259.713 51.9356 259.835 51.9587 259.957C52.0615 259.892 52.1643 259.827 52.2671 259.762C52.1964 259.696 52.1257 259.63 52.055 259.564C51.9998 259.573 51.9446 259.582 51.8894 259.592Z" fill="#151F6D"/>
<defs>
<filter id="filter0_g_1648_461" x="12.6202" y="74.5695" width="85.0281" height="137.477" filterUnits="userSpaceOnUse" color-interpolation-filters="sRGB">
<feFlood flood-opacity="0" result="BackgroundImageFix"/>
<feBlend mode="normal" in="SourceGraphic" in2="BackgroundImageFix" result="shape"/>
<feTurbulence type="fractalNoise" baseFrequency="0.018245372921228409 0.018245372921228409" numOctaves="3" seed="6722" />
<feDisplacementMap in="shape" scale="10.961684226989746" xChannelSelector="R" yChannelSelector="G" result="displacedImage" width="100%" height="100%" />
<feMerge result="effect1_texture_1648_461">
<feMergeNode in="displacedImage"/>
</feMerge>
</filter>
<linearGradient id="paint0_linear_1648_461" x1="35.5498" y1="195.769" x2="67.9819" y2="291.973" gradientUnits="userSpaceOnUse">
<stop stop-color="#151F6D"/>
<stop offset="1" stop-color="#151F6D" stop-opacity="0"/>
</linearGradient>
</defs>
</svg>
