<svg width="206" height="206" viewBox="0 0 206 206" fill="none" xmlns="http://www.w3.org/2000/svg">
<g clip-path="url(#clip0_1832_222)">
<g filter="url(#filter0_g_1832_222)">
<path d="M97.6407 102.975C96.5568 102.975 95.5331 102.774 94.5696 102.372C93.6463 101.931 92.8234 101.349 92.1008 100.626C91.4183 99.9036 90.8763 99.0606 90.4749 98.0971C90.0735 97.1336 89.8727 96.1099 89.8727 95.026C89.8727 93.9421 90.0735 92.9185 90.4749 91.955C90.8763 90.9915 91.4183 90.1485 92.1008 89.4259C92.8234 88.7033 93.6463 88.1413 94.5696 87.7398C95.5331 87.2982 96.5568 87.0774 97.6407 87.0774C100.451 87.0774 103.02 86.8165 105.348 86.2946C107.717 85.7326 109.764 84.7691 111.491 83.4042C113.217 82.0393 114.562 80.1926 115.525 77.8643C116.489 75.4957 116.97 72.4849 116.97 68.8317C116.97 66.3829 116.689 64.1348 116.127 62.0874C115.605 60.0401 114.722 58.2737 113.478 56.7884C112.273 55.2629 110.648 54.0786 108.6 53.2356C106.593 52.3925 104.124 51.971 101.193 51.971C98.4637 51.971 96.1554 52.3524 94.2686 53.1151C92.4219 53.8377 90.8763 54.8614 89.6319 56.1862C88.4275 57.511 87.5042 59.0766 86.8619 60.8831C86.2196 62.6896 85.7579 64.6567 85.4769 66.7844C85.3163 68.069 84.9149 69.2332 84.2726 70.2769C83.6704 71.3207 82.8876 72.2039 81.9241 72.9265C81.0008 73.6491 79.957 74.171 78.7928 74.4921C77.6286 74.8133 76.4243 74.8936 75.1798 74.733C73.9353 74.5724 72.7912 74.171 71.7475 73.5286C70.7439 72.8863 69.9008 72.1035 69.2184 71.1802C68.5359 70.2167 68.014 69.1529 67.6527 67.9887C67.3316 66.7844 67.2513 65.5399 67.4119 64.2552C67.8936 59.9999 68.9574 56.0858 70.6033 52.513C72.2493 48.9 74.4773 45.8088 77.2874 43.2396C80.0975 40.6703 83.5098 38.6631 87.5243 37.2179C91.5387 35.7727 96.1754 35.0501 101.434 35.0501C106.653 35.0501 111.37 35.8128 115.585 37.3383C119.841 38.8237 123.454 40.9513 126.424 43.7213C129.395 46.4913 131.683 49.8634 133.289 53.8377C134.895 57.7719 135.698 62.1878 135.698 67.0854C135.698 70.0561 135.517 72.8261 135.156 75.3954C134.835 77.9646 134.212 80.3532 133.289 82.5612C132.366 84.729 131.081 86.7362 129.435 88.5828C127.789 90.4295 125.682 92.0754 123.112 93.5206C126.003 94.725 128.472 96.2906 130.519 98.2175C132.566 100.104 134.212 102.272 135.457 104.721C136.741 107.13 137.665 109.759 138.227 112.609C138.829 115.46 139.13 118.41 139.13 121.461C139.13 127.362 138.407 132.782 136.962 137.72C135.517 142.617 133.249 146.833 130.158 150.365C127.107 153.898 123.153 156.648 118.295 158.615C113.478 160.582 107.677 161.566 100.892 161.566C94.8707 161.566 89.6921 160.763 85.3565 159.157C81.0209 157.511 77.4078 155.243 74.5174 152.352C71.627 149.462 69.4191 146.03 67.8936 142.055C66.4082 138.041 65.505 133.665 65.1838 128.928C65.1035 127.684 65.244 126.479 65.6054 125.315C66.0068 124.111 66.5688 123.067 67.2914 122.184C68.0542 121.261 68.9574 120.498 70.0012 119.896C71.0851 119.293 72.2493 118.932 73.4938 118.812C74.7382 118.691 75.9426 118.812 77.1068 119.173C78.271 119.494 79.3147 120.016 80.238 120.739C81.2015 121.461 81.9843 122.364 82.5865 123.448C83.1887 124.532 83.55 125.757 83.6704 127.122C83.9113 129.611 84.393 131.919 85.1156 134.047C85.8783 136.134 86.9823 137.961 88.4275 139.526C89.8727 141.052 91.6993 142.256 93.9073 143.139C96.1152 143.982 98.7848 144.404 101.916 144.404C105.128 144.404 107.898 143.942 110.226 143.019C112.554 142.096 114.461 140.811 115.947 139.165C117.472 137.519 118.596 135.572 119.319 133.324C120.041 131.076 120.403 128.627 120.403 125.977C120.403 121.843 119.981 118.33 119.138 115.44C118.295 112.509 116.97 110.12 115.164 108.274C113.357 106.427 111.009 105.082 108.118 104.239C105.228 103.396 101.735 102.975 97.6407 102.975Z" fill="url(#paint0_linear_1832_222)"/>
</g>
</g>
<defs>
<filter id="filter0_g_1832_222" x="59.5826" y="29.5695" width="85.0281" height="137.477" filterUnits="userSpaceOnUse" color-interpolation-filters="sRGB">
<feFlood flood-opacity="0" result="BackgroundImageFix"/>
<feBlend mode="normal" in="SourceGraphic" in2="BackgroundImageFix" result="shape"/>
<feTurbulence type="fractalNoise" baseFrequency="0.018245372921228409 0.018245372921228409" numOctaves="3" seed="6722" />
<feDisplacementMap in="shape" scale="10.961684226989746" xChannelSelector="R" yChannelSelector="G" result="displacedImage" width="100%" height="100%" />
<feMerge result="effect1_texture_1832_222">
<feMergeNode in="displacedImage"/>
</feMerge>
</filter>
<linearGradient id="paint0_linear_1832_222" x1="82.5122" y1="150.769" x2="114.944" y2="246.973" gradientUnits="userSpaceOnUse">
<stop stop-color="#151F6D"/>
<stop offset="1" stop-color="#151F6D" stop-opacity="0"/>
</linearGradient>
<clipPath id="clip0_1832_222">
<rect width="206" height="206" fill="white"/>
</clipPath>
</defs>
</svg>
