<svg width="241" height="109" viewBox="0 0 241 109" fill="none" xmlns="http://www.w3.org/2000/svg">
<path d="M46.9922 22.7344C46.9401 23.0339 46.8424 23.2975 46.6992 23.5254C46.5625 23.7533 46.3932 23.9453 46.1914 24.1016C45.9896 24.2578 45.7617 24.375 45.5078 24.4531C45.2539 24.5312 44.987 24.5703 44.707 24.5703C44.4271 24.5703 44.1602 24.528 43.9062 24.4434C43.6589 24.3652 43.4342 24.248 43.2324 24.0918C43.0371 23.9355 42.8678 23.7435 42.7246 23.5156C42.5879 23.2878 42.4935 23.0273 42.4414 22.7344L40.0586 9.57031H39.2578C39.0755 9.57031 38.9095 9.53776 38.7598 9.47266C38.61 9.40755 38.4798 9.31966 38.3691 9.20898C38.265 9.09831 38.1803 8.9681 38.1152 8.81836C38.0566 8.66862 38.0273 8.50911 38.0273 8.33984C38.0273 8.17057 38.0566 8.01107 38.1152 7.86133C38.1803 7.71159 38.265 7.58138 38.3691 7.4707C38.4798 7.35352 38.61 7.26237 38.7598 7.19727C38.9095 7.13216 39.0755 7.09961 39.2578 7.09961H41.6211C41.8034 7.09961 41.9629 7.13216 42.0996 7.19727C42.2428 7.26237 42.3665 7.35026 42.4707 7.46094C42.5749 7.57161 42.6595 7.70182 42.7246 7.85156C42.7897 8.0013 42.8385 8.16406 42.8711 8.33984L44.3164 17.2461L44.6973 20.5469L45.0781 17.2559L46.6016 8.13477C46.6406 7.93294 46.7122 7.75065 46.8164 7.58789C46.9271 7.41862 47.0605 7.27865 47.2168 7.16797C47.373 7.05729 47.5456 6.98242 47.7344 6.94336C47.9297 6.89779 48.1283 6.89453 48.3301 6.93359C48.5319 6.97266 48.7142 7.04753 48.877 7.1582C49.0462 7.26237 49.1862 7.39258 49.2969 7.54883C49.4076 7.70508 49.4824 7.88086 49.5215 8.07617C49.5671 8.26497 49.5703 8.4668 49.5312 8.68164L46.9922 22.7344ZM48.1641 0.820312C48.2031 0.644531 48.2812 0.498047 48.3984 0.380859C48.5091 0.257161 48.6426 0.166016 48.7988 0.107422C48.9486 0.0423177 49.1113 0.00976562 49.2871 0.00976562C49.4629 0.00325521 49.6322 0.0227865 49.7949 0.0683594C50.1204 0.179036 50.3548 0.377604 50.498 0.664062C50.6348 0.94401 50.6576 1.24674 50.5664 1.57227C50.4232 2.01497 50.1986 2.43164 49.8926 2.82227C49.5866 3.20638 49.2057 3.54492 48.75 3.83789C48.2878 4.13086 47.7507 4.36523 47.1387 4.54102C46.5267 4.71029 45.8398 4.80143 45.0781 4.81445H44.1113C43.9746 4.81445 43.8444 4.78841 43.7207 4.73633C43.5905 4.68424 43.4798 4.61589 43.3887 4.53125C43.291 4.4401 43.2129 4.33594 43.1543 4.21875C43.0957 4.09505 43.0664 3.96159 43.0664 3.81836V2.23633H42.3828C42.2331 2.23633 42.0964 2.21029 41.9727 2.1582C41.8424 2.10612 41.7318 2.03451 41.6406 1.94336C41.5495 1.85221 41.4779 1.74805 41.4258 1.63086C41.3672 1.50716 41.3379 1.3737 41.3379 1.23047C41.3379 1.09375 41.3672 0.963542 41.4258 0.839844C41.4779 0.716146 41.5495 0.608724 41.6406 0.517578C41.7318 0.419922 41.8424 0.345052 41.9727 0.292969C42.0964 0.240885 42.2331 0.214844 42.3828 0.214844H44.4922C44.6289 0.214844 44.7591 0.240885 44.8828 0.292969C45.0065 0.345052 45.1172 0.419922 45.2148 0.517578C45.3125 0.608724 45.3906 0.716146 45.4492 0.839844C45.5013 0.963542 45.5273 1.09375 45.5273 1.23047V2.68555C46.2565 2.68555 46.8457 2.51953 47.2949 2.1875C47.7441 1.84896 48.0339 1.39323 48.1641 0.820312ZM61.3965 23.0957C61.3965 23.3301 61.3574 23.5384 61.2793 23.7207C61.2012 23.903 61.0938 24.0592 60.957 24.1895C60.8268 24.3132 60.6706 24.4076 60.4883 24.4727C60.306 24.5378 60.1139 24.5703 59.9121 24.5703C59.7038 24.5703 59.5085 24.5345 59.3262 24.4629C59.1504 24.3978 58.9974 24.3034 58.8672 24.1797C58.737 24.0495 58.6328 23.8932 58.5547 23.7109C58.4766 23.5286 58.4375 23.3236 58.4375 23.0957V12.0117C58.4375 11.5951 58.3822 11.224 58.2715 10.8984C58.1673 10.5664 58.0176 10.2897 57.8223 10.0684C57.627 9.84049 57.3893 9.66797 57.1094 9.55078C56.8359 9.43359 56.5299 9.375 56.1914 9.375C55.9375 9.375 55.6934 9.41406 55.459 9.49219C55.2246 9.57031 55.0098 9.6875 54.8145 9.84375C54.6191 9.99349 54.4499 10.179 54.3066 10.4004C54.1634 10.6217 54.0527 10.8757 53.9746 11.1621C53.9225 11.3574 53.8314 11.5267 53.7012 11.6699C53.571 11.8066 53.4212 11.9173 53.252 12.002C53.0827 12.0801 52.8971 12.1257 52.6953 12.1387C52.5 12.1517 52.3079 12.1224 52.1191 12.0508C51.9303 11.9857 51.7643 11.888 51.6211 11.7578C51.4844 11.6276 51.377 11.4811 51.2988 11.3184C51.2207 11.1491 51.1719 10.9701 51.1523 10.7812C51.1393 10.5859 51.1621 10.3939 51.2207 10.2051C51.377 9.66471 51.6243 9.18945 51.9629 8.7793C52.3014 8.36263 52.6953 8.01758 53.1445 7.74414C53.5938 7.46419 54.0788 7.2526 54.5996 7.10938C55.127 6.96615 55.6576 6.89453 56.1914 6.89453C56.8229 6.89453 57.4479 6.99219 58.0664 7.1875C58.6849 7.38281 59.2415 7.67578 59.7363 8.06641C60.2311 8.45052 60.6315 8.93229 60.9375 9.51172C61.2435 10.0911 61.3965 10.765 61.3965 11.5332V23.0957ZM64.541 8.36914C64.541 8.14128 64.5801 7.9362 64.6582 7.75391C64.7363 7.57161 64.8405 7.41862 64.9707 7.29492C65.1009 7.16471 65.2539 7.06706 65.4297 7.00195C65.612 6.93034 65.8073 6.89453 66.0156 6.89453C66.2174 6.89453 66.4095 6.92708 66.5918 6.99219C66.7741 7.05729 66.9303 7.15495 67.0605 7.28516C67.1973 7.40885 67.3047 7.56185 67.3828 7.74414C67.4609 7.92643 67.5 8.13477 67.5 8.36914V18.125C67.5 18.6328 67.5684 19.1243 67.7051 19.5996C67.8418 20.0749 68.0501 20.4948 68.3301 20.8594C68.6165 21.2174 68.9779 21.5072 69.4141 21.7285C69.8568 21.9434 70.3776 22.0508 70.9766 22.0508C71.4062 22.0508 71.7806 21.9954 72.0996 21.8848C72.4186 21.7676 72.6855 21.6048 72.9004 21.3965C73.1152 21.1816 73.2747 20.9277 73.3789 20.6348C73.4831 20.3418 73.5352 20.0163 73.5352 19.6582V8.36914C73.5352 8.14128 73.5742 7.9362 73.6523 7.75391C73.7305 7.57161 73.8346 7.41862 73.9648 7.29492C74.0951 7.16471 74.248 7.06706 74.4238 7.00195C74.6061 6.93034 74.8014 6.89453 75.0098 6.89453C75.2116 6.89453 75.4036 6.92708 75.5859 6.99219C75.7682 7.05729 75.9245 7.15495 76.0547 7.28516C76.1914 7.40885 76.2988 7.56185 76.377 7.74414C76.4551 7.92643 76.4941 8.13477 76.4941 8.36914V19.9707C76.4941 20.7324 76.3639 21.3997 76.1035 21.9727C75.8431 22.5456 75.4915 23.0273 75.0488 23.418C74.6061 23.8021 74.0885 24.0918 73.4961 24.2871C72.9036 24.4759 72.2721 24.5703 71.6016 24.5703C71.1589 24.5703 70.7487 24.5247 70.3711 24.4336C69.9935 24.349 69.6354 24.2285 69.2969 24.0723C68.9648 23.9095 68.6426 23.7174 68.3301 23.4961C68.0241 23.2682 67.7214 23.0143 67.4219 22.7344V23.1152C67.4219 23.3366 67.3828 23.5352 67.3047 23.7109C67.2331 23.8867 67.1322 24.0397 67.002 24.1699C66.8717 24.2936 66.7188 24.388 66.543 24.4531C66.3672 24.5247 66.1784 24.5605 65.9766 24.5605C65.7747 24.5605 65.5859 24.5247 65.4102 24.4531C65.2409 24.388 65.0911 24.2936 64.9609 24.1699C64.8307 24.0397 64.7266 23.8867 64.6484 23.7109C64.5768 23.5286 64.541 23.3301 64.541 23.1152V8.36914ZM82.5781 23.0957C82.5781 23.3301 82.5391 23.5384 82.4609 23.7207C82.3828 23.903 82.2754 24.0592 82.1387 24.1895C82.0085 24.3132 81.8522 24.4076 81.6699 24.4727C81.4876 24.5378 81.2956 24.5703 81.0938 24.5703C80.8854 24.5703 80.6901 24.5345 80.5078 24.4629C80.332 24.3978 80.179 24.3034 80.0488 24.1797C79.9186 24.0495 79.8145 23.8932 79.7363 23.7109C79.6582 23.5286 79.6191 23.3236 79.6191 23.0957V8.37891C79.6191 8.15104 79.6582 7.94596 79.7363 7.76367C79.8145 7.58138 79.9186 7.42839 80.0488 7.30469C80.179 7.17448 80.332 7.07682 80.5078 7.01172C80.6901 6.9401 80.8854 6.9043 81.0938 6.9043C81.2956 6.9043 81.4876 6.93685 81.6699 7.00195C81.8522 7.06706 82.0085 7.16471 82.1387 7.29492C82.2754 7.41862 82.3828 7.57161 82.4609 7.75391C82.5391 7.9362 82.5781 8.14453 82.5781 8.37891V23.0957ZM94.3555 11.7383C94.3555 11.3281 94.2839 10.9766 94.1406 10.6836C94.0039 10.3906 93.8086 10.1497 93.5547 9.96094C93.3008 9.77214 92.9915 9.63542 92.627 9.55078C92.2689 9.45964 91.8685 9.41406 91.4258 9.41406C90.638 9.41406 90 9.59961 89.5117 9.9707C89.0299 10.3418 88.7109 10.8626 88.5547 11.5332C88.5091 11.735 88.4212 11.9108 88.291 12.0605C88.1673 12.2038 88.0208 12.3177 87.8516 12.4023C87.6823 12.487 87.4967 12.5391 87.2949 12.5586C87.0931 12.5716 86.8945 12.5488 86.6992 12.4902C86.5039 12.4316 86.3346 12.3405 86.1914 12.2168C86.0482 12.0866 85.9342 11.9401 85.8496 11.7773C85.765 11.6146 85.7096 11.4355 85.6836 11.2402C85.6641 11.0449 85.6836 10.8496 85.7422 10.6543C85.9245 10.0163 86.2077 9.46289 86.5918 8.99414C86.9824 8.51888 87.4447 8.12826 87.9785 7.82227C88.5189 7.50977 89.1146 7.27865 89.7656 7.12891C90.4232 6.97266 91.11 6.89453 91.8262 6.89453C92.3991 6.89453 92.9134 6.9401 93.3691 7.03125C93.8249 7.1224 94.235 7.24284 94.5996 7.39258C94.7754 7.37305 94.9284 7.32747 95.0586 7.25586C95.1953 7.18424 95.3125 7.10286 95.4102 7.01172C95.5078 6.92057 95.5859 6.82617 95.6445 6.72852C95.7096 6.63086 95.7585 6.54297 95.791 6.46484C95.8887 6.25 96.0254 6.07422 96.2012 5.9375C96.377 5.80078 96.569 5.71289 96.7773 5.67383C96.9922 5.62826 97.2103 5.63151 97.4316 5.68359C97.6595 5.72917 97.8711 5.83008 98.0664 5.98633C98.2292 6.11654 98.3529 6.26628 98.4375 6.43555C98.5286 6.60482 98.5775 6.78385 98.584 6.97266C98.597 7.15495 98.571 7.34375 98.5059 7.53906C98.4473 7.72786 98.3496 7.90365 98.2129 8.06641C98.1413 8.15755 98.0599 8.2487 97.9688 8.33984C97.8841 8.42448 97.7767 8.50911 97.6465 8.59375C97.5228 8.67188 97.3763 8.75 97.207 8.82812C97.0378 8.90625 96.8327 8.98438 96.5918 9.0625C96.735 9.29688 96.8522 9.53451 96.9434 9.77539C97.041 10.0163 97.1159 10.2539 97.168 10.4883C97.2266 10.7161 97.2656 10.9342 97.2852 11.1426C97.3047 11.3509 97.3145 11.5365 97.3145 11.6992V23.0957C97.3145 23.3301 97.2754 23.5384 97.1973 23.7207C97.1191 23.903 97.0117 24.0592 96.875 24.1895C96.7448 24.3132 96.5885 24.4076 96.4062 24.4727C96.224 24.5378 96.0319 24.5703 95.8301 24.5703C95.6217 24.5703 95.4264 24.5345 95.2441 24.4629C95.0684 24.3978 94.9154 24.3034 94.7852 24.1797C94.6549 24.0495 94.5508 23.8932 94.4727 23.7109C94.3945 23.5286 94.3555 23.3236 94.3555 23.0957V16.2891C93.8867 16.263 93.4049 16.2663 92.9102 16.2988C92.4154 16.3314 91.9336 16.3965 91.4648 16.4941C90.9961 16.5918 90.5501 16.7253 90.127 16.8945C89.7103 17.0638 89.3424 17.2754 89.0234 17.5293C88.7109 17.7767 88.4635 18.0729 88.2812 18.418C88.099 18.7565 88.0078 19.1471 88.0078 19.5898C88.0078 20.0521 88.0697 20.4329 88.1934 20.7324C88.3236 21.0319 88.4993 21.2695 88.7207 21.4453C88.9486 21.6146 89.2122 21.735 89.5117 21.8066C89.8177 21.8717 90.1432 21.9043 90.4883 21.9043C90.5599 21.9043 90.6413 21.9043 90.7324 21.9043C90.8236 21.8978 90.9082 21.888 90.9863 21.875C91.1426 21.8685 91.2988 21.8848 91.4551 21.9238C91.6178 21.9629 91.7611 22.028 91.8848 22.1191C92.0085 22.2103 92.1094 22.3307 92.1875 22.4805C92.2656 22.6237 92.3047 22.7995 92.3047 23.0078C92.3047 23.4115 92.207 23.7337 92.0117 23.9746C91.8164 24.2155 91.5755 24.3685 91.2891 24.4336C91.0612 24.4857 90.8333 24.5247 90.6055 24.5508C90.3776 24.5768 90.14 24.5898 89.8926 24.5898C89.2741 24.5898 88.6719 24.4987 88.0859 24.3164C87.5065 24.1276 86.9889 23.8379 86.5332 23.4473C86.084 23.0566 85.7227 22.5586 85.4492 21.9531C85.1758 21.3477 85.0391 20.6283 85.0391 19.7949C85.0391 18.9551 85.1693 18.2227 85.4297 17.5977C85.6901 16.9727 86.0449 16.4388 86.4941 15.9961C86.9499 15.5534 87.4805 15.1921 88.0859 14.9121C88.6914 14.6257 89.3392 14.401 90.0293 14.2383C90.7194 14.0755 91.4323 13.9648 92.168 13.9062C92.9102 13.8411 93.6393 13.8086 94.3555 13.8086V11.7383ZM96.4062 0.820312C96.4453 0.644531 96.5234 0.498047 96.6406 0.380859C96.7513 0.257161 96.8848 0.166016 97.041 0.107422C97.1908 0.0423177 97.3535 0.00976562 97.5293 0.00976562C97.7051 0.00325521 97.8743 0.0227865 98.0371 0.0683594C98.3626 0.179036 98.597 0.377604 98.7402 0.664062C98.877 0.94401 98.8997 1.24674 98.8086 1.57227C98.6654 2.01497 98.4408 2.43164 98.1348 2.82227C97.8288 3.20638 97.4479 3.54492 96.9922 3.83789C96.5299 4.13086 95.9928 4.36523 95.3809 4.54102C94.7689 4.71029 94.082 4.80143 93.3203 4.81445H92.3535C92.2168 4.81445 92.0866 4.78841 91.9629 4.73633C91.8327 4.68424 91.722 4.61589 91.6309 4.53125C91.5332 4.4401 91.4551 4.33594 91.3965 4.21875C91.3379 4.09505 91.3086 3.96159 91.3086 3.81836V2.23633H90.625C90.4753 2.23633 90.3385 2.21029 90.2148 2.1582C90.0846 2.10612 89.974 2.03451 89.8828 1.94336C89.7917 1.85221 89.7201 1.74805 89.668 1.63086C89.6094 1.50716 89.5801 1.3737 89.5801 1.23047C89.5801 1.09375 89.6094 0.963542 89.668 0.839844C89.7201 0.716146 89.7917 0.608724 89.8828 0.517578C89.974 0.419922 90.0846 0.345052 90.2148 0.292969C90.3385 0.240885 90.4753 0.214844 90.625 0.214844H92.7344C92.8711 0.214844 93.0013 0.240885 93.125 0.292969C93.2487 0.345052 93.3594 0.419922 93.457 0.517578C93.5547 0.608724 93.6328 0.716146 93.6914 0.839844C93.7435 0.963542 93.7695 1.09375 93.7695 1.23047V2.68555C94.4987 2.68555 95.0879 2.51953 95.5371 2.1875C95.9863 1.84896 96.276 1.39323 96.4062 0.820312ZM112.627 23.1152C112.627 23.3301 112.588 23.5286 112.51 23.7109C112.438 23.8867 112.337 24.0397 112.207 24.1699C112.077 24.2936 111.924 24.388 111.748 24.4531C111.579 24.5247 111.393 24.5605 111.191 24.5605C110.99 24.5605 110.801 24.5247 110.625 24.4531C110.449 24.388 110.296 24.2936 110.166 24.1699C110.036 24.0397 109.932 23.8867 109.854 23.7109C109.782 23.5352 109.746 23.3366 109.746 23.1152V22.7344C109.447 23.0143 109.141 23.2682 108.828 23.4961C108.522 23.7174 108.2 23.9095 107.861 24.0723C107.529 24.2285 107.171 24.349 106.787 24.4336C106.41 24.5247 106.003 24.5703 105.566 24.5703C104.896 24.5703 104.264 24.4759 103.672 24.2871C103.079 24.0918 102.559 23.8021 102.109 23.418C101.667 23.0273 101.315 22.5456 101.055 21.9727C100.801 21.3997 100.674 20.7324 100.674 19.9707V8.36914C100.674 8.13477 100.713 7.92643 100.791 7.74414C100.869 7.56185 100.973 7.40885 101.104 7.28516C101.24 7.15495 101.396 7.05729 101.572 6.99219C101.755 6.92708 101.95 6.89453 102.158 6.89453C102.36 6.89453 102.552 6.93034 102.734 7.00195C102.917 7.06706 103.073 7.16471 103.203 7.29492C103.333 7.41862 103.438 7.57161 103.516 7.75391C103.594 7.9362 103.633 8.14128 103.633 8.36914V19.6582C103.633 20.0163 103.685 20.3418 103.789 20.6348C103.893 20.9277 104.053 21.1816 104.268 21.3965C104.482 21.6048 104.749 21.7676 105.068 21.8848C105.387 21.9954 105.762 22.0508 106.191 22.0508C106.79 22.0508 107.308 21.9434 107.744 21.7285C108.187 21.5072 108.548 21.2174 108.828 20.8594C109.115 20.4948 109.326 20.0749 109.463 19.5996C109.6 19.1243 109.668 18.6328 109.668 18.125V8.36914C109.668 8.13477 109.707 7.92643 109.785 7.74414C109.863 7.56185 109.967 7.40885 110.098 7.28516C110.234 7.15495 110.391 7.05729 110.566 6.99219C110.749 6.92708 110.944 6.89453 111.152 6.89453C111.354 6.89453 111.546 6.93034 111.729 7.00195C111.911 7.06706 112.067 7.16471 112.197 7.29492C112.327 7.41862 112.432 7.57161 112.51 7.75391C112.588 7.9362 112.627 8.14128 112.627 8.36914V23.1152ZM123.76 8.03711C123.779 7.82227 123.835 7.62695 123.926 7.45117C124.023 7.26888 124.147 7.11589 124.297 6.99219C124.447 6.86198 124.616 6.76432 124.805 6.69922C124.993 6.63411 125.195 6.61133 125.41 6.63086C125.625 6.65039 125.82 6.70898 125.996 6.80664C126.172 6.89779 126.322 7.01823 126.445 7.16797C126.576 7.31771 126.67 7.49023 126.729 7.68555C126.794 7.87435 126.823 8.07617 126.816 8.29102C126.797 8.69466 126.738 9.10482 126.641 9.52148C126.543 9.93164 126.403 10.3255 126.221 10.7031C126.038 11.0807 125.811 11.4225 125.537 11.7285C125.27 12.0345 124.954 12.2754 124.59 12.4512C125.02 12.64 125.361 12.8809 125.615 13.1738C125.876 13.4668 126.074 13.7793 126.211 14.1113C126.354 14.4368 126.445 14.7656 126.484 15.0977C126.53 15.4232 126.553 15.7161 126.553 15.9766V19.7363C126.553 20.5176 126.41 21.2077 126.123 21.8066C125.843 22.4056 125.459 22.9102 124.971 23.3203C124.489 23.7305 123.926 24.043 123.281 24.2578C122.637 24.4661 121.953 24.5703 121.23 24.5703C120.482 24.5703 119.785 24.4661 119.141 24.2578C118.496 24.043 117.936 23.7305 117.461 23.3203C116.992 22.9102 116.621 22.4056 116.348 21.8066C116.081 21.2077 115.947 20.5176 115.947 19.7363V15.9766C115.947 15.4036 115.964 14.9284 115.996 14.5508C116.029 14.1667 116.094 13.8281 116.191 13.5352C116.296 13.2422 116.439 12.9688 116.621 12.7148C116.81 12.4609 117.054 12.1745 117.354 11.8555C117.503 11.6927 117.646 11.5365 117.783 11.3867C117.92 11.2305 118.04 11.0807 118.145 10.9375C118.255 10.7943 118.343 10.6608 118.408 10.5371C118.473 10.4069 118.506 10.2865 118.506 10.1758C118.506 9.86979 118.415 9.66146 118.232 9.55078C118.057 9.43359 117.829 9.375 117.549 9.375C117.314 9.375 117.074 9.39128 116.826 9.42383C116.579 9.44987 116.341 9.48568 116.113 9.53125C115.951 9.5638 115.791 9.56055 115.635 9.52148C115.485 9.48242 115.345 9.42057 115.215 9.33594C115.091 9.24479 114.984 9.13411 114.893 9.00391C114.808 8.86719 114.753 8.71745 114.727 8.55469C114.701 8.39193 114.707 8.23242 114.746 8.07617C114.785 7.91992 114.847 7.77995 114.932 7.65625C115.023 7.52604 115.133 7.41862 115.264 7.33398C115.4 7.24284 115.55 7.18099 115.713 7.14844C115.954 7.10286 116.185 7.07031 116.406 7.05078C116.628 7.02474 116.833 7.00846 117.021 7.00195C117.21 6.98893 117.376 6.98242 117.52 6.98242C117.663 6.97591 117.78 6.97266 117.871 6.97266C118.398 6.97266 118.867 7.04427 119.277 7.1875C119.688 7.32422 120.029 7.52604 120.303 7.79297C120.583 8.0599 120.794 8.38542 120.938 8.76953C121.081 9.14714 121.152 9.57682 121.152 10.0586C121.152 10.3971 121.123 10.6836 121.064 10.918C121.012 11.1523 120.924 11.3802 120.801 11.6016C120.677 11.8164 120.511 12.0508 120.303 12.3047C120.101 12.5586 119.85 12.8743 119.551 13.252C119.421 13.4212 119.313 13.6003 119.229 13.7891C119.15 13.9779 119.085 14.1797 119.033 14.3945C118.988 14.6094 118.955 14.8405 118.936 15.0879C118.916 15.3353 118.906 15.6055 118.906 15.8984V19.4531C118.906 19.8633 118.965 20.2311 119.082 20.5566C119.199 20.8757 119.362 21.1458 119.57 21.3672C119.779 21.5885 120.023 21.7578 120.303 21.875C120.589 21.9922 120.898 22.0508 121.23 22.0508C121.569 22.0508 121.882 21.9954 122.168 21.8848C122.461 21.7676 122.712 21.6016 122.92 21.3867C123.128 21.1654 123.291 20.8952 123.408 20.5762C123.532 20.2507 123.594 19.8763 123.594 19.4531V16.0156C123.594 15.5924 123.548 15.2376 123.457 14.9512C123.366 14.6582 123.239 14.4206 123.076 14.2383C122.92 14.0495 122.728 13.9062 122.5 13.8086C122.279 13.7109 122.031 13.6393 121.758 13.5938C121.51 13.5547 121.305 13.4408 121.143 13.252C120.986 13.0632 120.908 12.8385 120.908 12.5781C120.908 12.3242 120.983 12.1061 121.133 11.9238C121.289 11.735 121.481 11.6113 121.709 11.5527C122.048 11.4681 122.337 11.3184 122.578 11.1035C122.819 10.8887 123.021 10.6283 123.184 10.3223C123.353 10.0163 123.483 9.66797 123.574 9.27734C123.665 8.88672 123.727 8.47331 123.76 8.03711ZM120.234 4.77539C120.059 4.77539 119.896 4.74284 119.746 4.67773C119.59 4.61263 119.456 4.52474 119.346 4.41406C119.229 4.29688 119.137 4.16341 119.072 4.01367C119.007 3.85742 118.975 3.69141 118.975 3.51562V1.98242C118.975 1.80013 119.007 1.63086 119.072 1.47461C119.137 1.31836 119.229 1.1849 119.346 1.07422C119.456 0.963542 119.59 0.878906 119.746 0.820312C119.896 0.755208 120.059 0.722656 120.234 0.722656C120.41 0.722656 120.576 0.755208 120.732 0.820312C120.882 0.878906 121.016 0.963542 121.133 1.07422C121.243 1.1849 121.331 1.31836 121.396 1.47461C121.462 1.63086 121.494 1.80013 121.494 1.98242V2.33398H128.008C128.177 2.33398 128.333 2.36654 128.477 2.43164C128.626 2.49674 128.757 2.58464 128.867 2.69531C128.978 2.80599 129.066 2.9362 129.131 3.08594C129.196 3.22917 129.229 3.38542 129.229 3.55469C129.229 3.72396 129.196 3.88346 129.131 4.0332C129.066 4.17643 128.978 4.30339 128.867 4.41406C128.757 4.52474 128.626 4.61263 128.477 4.67773C128.333 4.74284 128.177 4.77539 128.008 4.77539H120.234ZM141.221 19.6582C141.221 20.4395 141.09 21.1361 140.83 21.748C140.576 22.36 140.199 22.8809 139.697 23.3105C139.202 23.7337 138.587 24.0592 137.852 24.2871C137.122 24.5085 136.283 24.6191 135.332 24.6191C134.44 24.6191 133.62 24.5085 132.871 24.2871C132.129 24.0658 131.484 23.737 130.938 23.3008C130.397 22.8581 129.974 22.3079 129.668 21.6504C129.368 20.9863 129.219 20.2148 129.219 19.3359C129.219 18.9583 129.235 18.5612 129.268 18.1445C129.307 17.7214 129.398 17.3112 129.541 16.9141C129.691 16.5104 129.909 16.1328 130.195 15.7812C130.482 15.4297 130.876 15.1335 131.377 14.8926C130.908 14.7038 130.534 14.4694 130.254 14.1895C129.974 13.903 129.759 13.597 129.609 13.2715C129.466 12.9395 129.372 12.5977 129.326 12.2461C129.281 11.888 129.258 11.543 129.258 11.2109C129.258 10.6706 129.326 10.1953 129.463 9.78516C129.6 9.375 129.785 9.01693 130.02 8.71094C130.26 8.40495 130.534 8.15104 130.84 7.94922C131.152 7.74089 131.478 7.57487 131.816 7.45117C132.161 7.32096 132.513 7.22982 132.871 7.17773C133.229 7.12565 133.571 7.09961 133.896 7.09961H135.107C135.296 7.09961 135.465 7.13216 135.615 7.19727C135.771 7.26237 135.905 7.35352 136.016 7.4707C136.126 7.58138 136.211 7.71484 136.27 7.87109C136.335 8.02083 136.367 8.18359 136.367 8.35938C136.367 8.53516 136.338 8.70117 136.279 8.85742C136.221 9.00716 136.136 9.14062 136.025 9.25781C135.915 9.36849 135.781 9.45638 135.625 9.52148C135.469 9.58659 135.296 9.61914 135.107 9.61914H134.58C134.411 9.61914 134.189 9.63216 133.916 9.6582C133.643 9.67773 133.376 9.74284 133.115 9.85352C132.861 9.96419 132.64 10.14 132.451 10.3809C132.269 10.6152 132.178 10.9473 132.178 11.377C132.178 11.8392 132.246 12.2201 132.383 12.5195C132.526 12.8125 132.715 13.0436 132.949 13.2129C133.19 13.3822 133.467 13.5026 133.779 13.5742C134.092 13.6393 134.424 13.6719 134.775 13.6719H135.107C135.296 13.6719 135.465 13.7044 135.615 13.7695C135.771 13.8346 135.905 13.9258 136.016 14.043C136.126 14.1536 136.211 14.2871 136.27 14.4434C136.335 14.5931 136.367 14.7559 136.367 14.9316C136.367 15.1074 136.338 15.2734 136.279 15.4297C136.221 15.5794 136.136 15.7129 136.025 15.8301C135.915 15.9408 135.781 16.0286 135.625 16.0938C135.469 16.1589 135.296 16.1914 135.107 16.1914H134.775C134.391 16.1914 134.036 16.224 133.711 16.2891C133.392 16.3542 133.115 16.4909 132.881 16.6992C132.646 16.9076 132.464 17.2135 132.334 17.6172C132.204 18.0143 132.139 18.5482 132.139 19.2188C132.139 19.6615 132.201 20.0618 132.324 20.4199C132.448 20.7715 132.637 21.071 132.891 21.3184C133.151 21.5658 133.483 21.7578 133.887 21.8945C134.29 22.0312 134.772 22.0996 135.332 22.0996C135.911 22.0996 136.39 22.028 136.768 21.8848C137.145 21.735 137.445 21.5267 137.666 21.2598C137.887 20.9928 138.04 20.6771 138.125 20.3125C138.216 19.9414 138.262 19.5345 138.262 19.0918V8.36914C138.262 8.14128 138.301 7.9362 138.379 7.75391C138.457 7.57161 138.561 7.41862 138.691 7.29492C138.822 7.16471 138.975 7.06706 139.15 7.00195C139.333 6.93034 139.528 6.89453 139.736 6.89453C139.938 6.89453 140.13 6.92708 140.312 6.99219C140.495 7.05729 140.651 7.15495 140.781 7.28516C140.918 7.40885 141.025 7.56185 141.104 7.74414C141.182 7.92643 141.221 8.13477 141.221 8.36914V19.6582ZM147.305 23.0957C147.305 23.3301 147.266 23.5384 147.188 23.7207C147.109 23.903 147.002 24.0592 146.865 24.1895C146.735 24.3132 146.579 24.4076 146.396 24.4727C146.214 24.5378 146.022 24.5703 145.82 24.5703C145.612 24.5703 145.417 24.5345 145.234 24.4629C145.059 24.3978 144.906 24.3034 144.775 24.1797C144.645 24.0495 144.541 23.8932 144.463 23.7109C144.385 23.5286 144.346 23.3236 144.346 23.0957V8.37891C144.346 8.15104 144.385 7.94596 144.463 7.76367C144.541 7.58138 144.645 7.42839 144.775 7.30469C144.906 7.17448 145.059 7.07682 145.234 7.01172C145.417 6.9401 145.612 6.9043 145.82 6.9043C146.022 6.9043 146.214 6.93685 146.396 7.00195C146.579 7.06706 146.735 7.16471 146.865 7.29492C147.002 7.41862 147.109 7.57161 147.188 7.75391C147.266 7.9362 147.305 8.14453 147.305 8.37891V23.0957ZM152.178 23.0957C152.178 23.3301 152.139 23.5384 152.061 23.7207C151.982 23.903 151.875 24.0592 151.738 24.1895C151.608 24.3132 151.452 24.4076 151.27 24.4727C151.087 24.5378 150.895 24.5703 150.693 24.5703C150.485 24.5703 150.29 24.5345 150.107 24.4629C149.932 24.3978 149.779 24.3034 149.648 24.1797C149.518 24.0495 149.414 23.8932 149.336 23.7109C149.258 23.5286 149.219 23.3236 149.219 23.0957V8.37891C149.219 8.15104 149.258 7.94596 149.336 7.76367C149.414 7.58138 149.518 7.42839 149.648 7.30469C149.779 7.17448 149.932 7.07682 150.107 7.01172C150.29 6.9401 150.485 6.9043 150.693 6.9043C150.895 6.9043 151.087 6.93685 151.27 7.00195C151.452 7.06706 151.608 7.16471 151.738 7.29492C151.875 7.41862 151.982 7.57161 152.061 7.75391C152.139 7.9362 152.178 8.14453 152.178 8.37891V23.0957ZM166.924 23.0957C166.924 23.3301 166.885 23.5384 166.807 23.7207C166.729 23.903 166.621 24.0592 166.484 24.1895C166.354 24.3132 166.198 24.4076 166.016 24.4727C165.833 24.5378 165.641 24.5703 165.439 24.5703C165.231 24.5703 165.036 24.5345 164.854 24.4629C164.678 24.3978 164.525 24.3034 164.395 24.1797C164.264 24.0495 164.16 23.8932 164.082 23.7109C164.004 23.5286 163.965 23.3236 163.965 23.0957V16.2891C163.496 16.263 163.014 16.2663 162.52 16.2988C162.025 16.3314 161.543 16.3965 161.074 16.4941C160.605 16.5918 160.16 16.7253 159.736 16.8945C159.32 17.0638 158.952 17.2754 158.633 17.5293C158.32 17.7767 158.073 18.0729 157.891 18.418C157.708 18.7565 157.617 19.1471 157.617 19.5898C157.617 20.0521 157.679 20.4329 157.803 20.7324C157.933 21.0319 158.109 21.2695 158.33 21.4453C158.558 21.6146 158.822 21.735 159.121 21.8066C159.427 21.8717 159.753 21.9043 160.098 21.9043C160.169 21.9043 160.251 21.9043 160.342 21.9043C160.433 21.8978 160.518 21.888 160.596 21.875C160.752 21.8685 160.908 21.8848 161.064 21.9238C161.227 21.9629 161.37 22.028 161.494 22.1191C161.618 22.2103 161.719 22.3307 161.797 22.4805C161.875 22.6237 161.914 22.7995 161.914 23.0078C161.914 23.4115 161.816 23.7337 161.621 23.9746C161.426 24.2155 161.185 24.3685 160.898 24.4336C160.671 24.4857 160.443 24.5247 160.215 24.5508C159.987 24.5768 159.749 24.5898 159.502 24.5898C158.883 24.5898 158.281 24.4987 157.695 24.3164C157.116 24.1276 156.598 23.8379 156.143 23.4473C155.693 23.0566 155.332 22.5586 155.059 21.9531C154.785 21.3477 154.648 20.6283 154.648 19.7949C154.648 18.9551 154.779 18.2227 155.039 17.5977C155.299 16.9727 155.654 16.4388 156.104 15.9961C156.559 15.5534 157.09 15.1921 157.695 14.9121C158.301 14.6257 158.949 14.401 159.639 14.2383C160.329 14.0755 161.042 13.9648 161.777 13.9062C162.52 13.8411 163.249 13.8086 163.965 13.8086V11.7383C163.965 11.3281 163.893 10.9766 163.75 10.6836C163.613 10.3906 163.418 10.1497 163.164 9.96094C162.91 9.77214 162.601 9.63542 162.236 9.55078C161.878 9.45964 161.478 9.41406 161.035 9.41406C160.247 9.41406 159.609 9.59961 159.121 9.9707C158.639 10.3418 158.32 10.8626 158.164 11.5332C158.118 11.735 158.031 11.9108 157.9 12.0605C157.777 12.2038 157.63 12.3177 157.461 12.4023C157.292 12.487 157.106 12.5391 156.904 12.5586C156.702 12.5716 156.504 12.5488 156.309 12.4902C156.113 12.4316 155.944 12.3405 155.801 12.2168C155.658 12.0866 155.544 11.9401 155.459 11.7773C155.374 11.6146 155.319 11.4355 155.293 11.2402C155.273 11.0449 155.293 10.8496 155.352 10.6543C155.534 10.0163 155.817 9.46289 156.201 8.99414C156.592 8.51888 157.054 8.12826 157.588 7.82227C158.128 7.50977 158.724 7.27865 159.375 7.12891C160.033 6.97266 160.719 6.89453 161.436 6.89453C162.236 6.89453 162.926 6.97917 163.506 7.14844C164.092 7.31771 164.587 7.53906 164.99 7.8125C165.4 8.08594 165.729 8.39518 165.977 8.74023C166.23 9.08529 166.426 9.43685 166.562 9.79492C166.706 10.153 166.8 10.498 166.846 10.8301C166.898 11.1621 166.924 11.4518 166.924 11.6992V23.0957ZM165.781 0.820312C165.82 0.644531 165.898 0.498047 166.016 0.380859C166.126 0.257161 166.26 0.166016 166.416 0.107422C166.566 0.0423177 166.729 0.00976562 166.904 0.00976562C167.08 0.00325521 167.249 0.0227865 167.412 0.0683594C167.738 0.179036 167.972 0.377604 168.115 0.664062C168.252 0.94401 168.275 1.24674 168.184 1.57227C168.04 2.01497 167.816 2.43164 167.51 2.82227C167.204 3.20638 166.823 3.54492 166.367 3.83789C165.905 4.13086 165.368 4.36523 164.756 4.54102C164.144 4.71029 163.457 4.80143 162.695 4.81445H161.729C161.592 4.81445 161.462 4.78841 161.338 4.73633C161.208 4.68424 161.097 4.61589 161.006 4.53125C160.908 4.4401 160.83 4.33594 160.771 4.21875C160.713 4.09505 160.684 3.96159 160.684 3.81836V2.23633H160C159.85 2.23633 159.714 2.21029 159.59 2.1582C159.46 2.10612 159.349 2.03451 159.258 1.94336C159.167 1.85221 159.095 1.74805 159.043 1.63086C158.984 1.50716 158.955 1.3737 158.955 1.23047C158.955 1.09375 158.984 0.963542 159.043 0.839844C159.095 0.716146 159.167 0.608724 159.258 0.517578C159.349 0.419922 159.46 0.345052 159.59 0.292969C159.714 0.240885 159.85 0.214844 160 0.214844H162.109C162.246 0.214844 162.376 0.240885 162.5 0.292969C162.624 0.345052 162.734 0.419922 162.832 0.517578C162.93 0.608724 163.008 0.716146 163.066 0.839844C163.118 0.963542 163.145 1.09375 163.145 1.23047V2.68555C163.874 2.68555 164.463 2.51953 164.912 2.1875C165.361 1.84896 165.651 1.39323 165.781 0.820312ZM169.912 21.2891C169.847 21.0872 169.827 20.8887 169.854 20.6934C169.886 20.498 169.951 20.3223 170.049 20.166C170.146 20.0033 170.273 19.8633 170.43 19.7461C170.592 19.6289 170.771 19.5443 170.967 19.4922C171.175 19.4401 171.377 19.4271 171.572 19.4531C171.774 19.4792 171.956 19.5378 172.119 19.6289C172.288 19.7201 172.435 19.8438 172.559 20C172.682 20.1562 172.77 20.3385 172.822 20.5469C172.946 21.0156 173.158 21.3932 173.457 21.6797C173.757 21.9596 174.167 22.0996 174.688 22.0996C175.195 22.0996 175.612 21.9303 175.938 21.5918C176.27 21.2533 176.527 20.7975 176.709 20.2246C176.898 19.6452 177.028 18.9746 177.1 18.2129C177.171 17.4512 177.207 16.6504 177.207 15.8105C177.207 15.5176 177.204 15.1562 177.197 14.7266C177.191 14.2969 177.165 13.8444 177.119 13.3691C177.074 12.8939 176.999 12.4219 176.895 11.9531C176.79 11.4844 176.641 11.0612 176.445 10.6836C176.25 10.306 175.999 10 175.693 9.76562C175.387 9.53125 175.013 9.41406 174.57 9.41406C174.186 9.41406 173.857 9.49219 173.584 9.64844C173.311 9.80469 173.083 10.0098 172.9 10.2637C172.725 10.5176 172.591 10.8105 172.5 11.1426C172.409 11.4681 172.35 11.8034 172.324 12.1484C172.311 12.3438 172.256 12.526 172.158 12.6953C172.061 12.8581 171.934 12.9948 171.777 13.1055C171.628 13.2161 171.455 13.2975 171.26 13.3496C171.071 13.4017 170.876 13.4147 170.674 13.3887C170.479 13.3626 170.299 13.304 170.137 13.2129C169.974 13.1152 169.834 12.9948 169.717 12.8516C169.606 12.7018 169.525 12.5358 169.473 12.3535C169.421 12.1647 169.408 11.9694 169.434 11.7676C169.512 11.097 169.681 10.4655 169.941 9.87305C170.208 9.2806 170.56 8.76628 170.996 8.33008C171.432 7.88737 171.953 7.53906 172.559 7.28516C173.164 7.02474 173.848 6.89453 174.609 6.89453C175.169 6.89453 175.7 6.95638 176.201 7.08008C176.702 7.20378 177.165 7.4056 177.588 7.68555C178.011 7.96549 178.389 8.33333 178.721 8.78906C179.059 9.24479 179.346 9.80469 179.58 10.4688C179.821 11.1263 180.003 11.8978 180.127 12.7832C180.257 13.6621 180.322 14.6712 180.322 15.8105C180.322 16.403 180.29 17.0345 180.225 17.7051C180.16 18.3691 180.046 19.0267 179.883 19.6777C179.727 20.3288 179.512 20.9538 179.238 21.5527C178.971 22.1452 178.63 22.6693 178.213 23.125C177.796 23.5807 177.298 23.9453 176.719 24.2188C176.139 24.4857 175.462 24.6191 174.688 24.6191C174.043 24.6191 173.46 24.5378 172.939 24.375C172.419 24.2122 171.96 23.9844 171.562 23.6914C171.165 23.3984 170.83 23.0469 170.557 22.6367C170.283 22.2266 170.068 21.7773 169.912 21.2891ZM184.58 22.7148C184.58 22.4674 184.626 22.2331 184.717 22.0117C184.814 21.7904 184.945 21.5983 185.107 21.4355C185.27 21.2728 185.462 21.1458 185.684 21.0547C185.905 20.957 186.139 20.9082 186.387 20.9082C186.634 20.9082 186.868 20.957 187.09 21.0547C187.311 21.1458 187.503 21.2728 187.666 21.4355C187.829 21.5983 187.956 21.7904 188.047 22.0117C188.145 22.2331 188.193 22.4674 188.193 22.7148C188.193 22.9622 188.145 23.1966 188.047 23.418C187.956 23.6393 187.829 23.8314 187.666 23.9941C187.503 24.1569 187.311 24.2839 187.09 24.375C186.868 24.4727 186.634 24.5215 186.387 24.5215C186.139 24.5215 185.905 24.4727 185.684 24.375C185.462 24.2839 185.27 24.1569 185.107 23.9941C184.945 23.8314 184.814 23.6393 184.717 23.418C184.626 23.1966 184.58 22.9622 184.58 22.7148ZM194.121 22.7148C194.121 22.4674 194.167 22.2331 194.258 22.0117C194.355 21.7904 194.486 21.5983 194.648 21.4355C194.811 21.2728 195.003 21.1458 195.225 21.0547C195.446 20.957 195.68 20.9082 195.928 20.9082C196.175 20.9082 196.41 20.957 196.631 21.0547C196.852 21.1458 197.044 21.2728 197.207 21.4355C197.37 21.5983 197.497 21.7904 197.588 22.0117C197.686 22.2331 197.734 22.4674 197.734 22.7148C197.734 22.9622 197.686 23.1966 197.588 23.418C197.497 23.6393 197.37 23.8314 197.207 23.9941C197.044 24.1569 196.852 24.2839 196.631 24.375C196.41 24.4727 196.175 24.5215 195.928 24.5215C195.68 24.5215 195.446 24.4727 195.225 24.375C195.003 24.2839 194.811 24.1569 194.648 23.9941C194.486 23.8314 194.355 23.6393 194.258 23.418C194.167 23.1966 194.121 22.9622 194.121 22.7148ZM203.672 22.7148C203.672 22.4674 203.717 22.2331 203.809 22.0117C203.906 21.7904 204.036 21.5983 204.199 21.4355C204.362 21.2728 204.554 21.1458 204.775 21.0547C204.997 20.957 205.231 20.9082 205.479 20.9082C205.726 20.9082 205.96 20.957 206.182 21.0547C206.403 21.1458 206.595 21.2728 206.758 21.4355C206.921 21.5983 207.048 21.7904 207.139 22.0117C207.236 22.2331 207.285 22.4674 207.285 22.7148C207.285 22.9622 207.236 23.1966 207.139 23.418C207.048 23.6393 206.921 23.8314 206.758 23.9941C206.595 24.1569 206.403 24.2839 206.182 24.375C205.96 24.4727 205.726 24.5215 205.479 24.5215C205.231 24.5215 204.997 24.4727 204.775 24.375C204.554 24.2839 204.362 24.1569 204.199 23.9941C204.036 23.8314 203.906 23.6393 203.809 23.418C203.717 23.1966 203.672 22.9622 203.672 22.7148ZM0.205078 92.3496C0.205078 92.1348 0.240885 91.9395 0.3125 91.7637C0.390625 91.5814 0.494792 91.4284 0.625 91.3047C0.755208 91.1745 0.904948 91.0768 1.07422 91.0117C1.25 90.9401 1.4388 90.9043 1.64062 90.9043C1.84245 90.9043 2.03125 90.9401 2.20703 91.0117C2.38281 91.0768 2.53581 91.1745 2.66602 91.3047C2.79622 91.4284 2.89714 91.5781 2.96875 91.7539C3.04688 91.9297 3.08594 92.1283 3.08594 92.3496V92.7305C3.69141 92.1706 4.34245 91.7246 5.03906 91.3926C5.73568 91.0605 6.47786 90.8945 7.26562 90.8945C7.9362 90.8945 8.56771 90.9922 9.16016 91.1875C9.7526 91.3763 10.2702 91.666 10.7129 92.0566C11.1556 92.4408 11.5072 92.9193 11.7676 93.4922C12.028 94.0651 12.1582 94.7324 12.1582 95.4941V107.096C12.1582 107.33 12.1191 107.538 12.041 107.721C11.9629 107.903 11.8555 108.059 11.7188 108.189C11.5885 108.313 11.4323 108.408 11.25 108.473C11.0677 108.538 10.8757 108.57 10.6738 108.57C10.4655 108.57 10.2702 108.535 10.0879 108.463C9.91211 108.398 9.75911 108.303 9.62891 108.18C9.4987 108.049 9.39453 107.893 9.31641 107.711C9.23828 107.529 9.19922 107.324 9.19922 107.096V95.8066C9.19922 95.4486 9.14714 95.123 9.04297 94.8301C8.9388 94.5371 8.7793 94.2865 8.56445 94.0781C8.34961 93.8698 8.08268 93.707 7.76367 93.5898C7.44466 93.4727 7.07031 93.4141 6.64062 93.4141C6.04167 93.4141 5.52083 93.5247 5.07812 93.7461C4.64193 93.9609 4.2806 94.2507 3.99414 94.6152C3.71419 94.9733 3.50586 95.39 3.36914 95.8652C3.23242 96.3405 3.16406 96.832 3.16406 97.3398V107.096C3.16406 107.33 3.125 107.538 3.04688 107.721C2.96875 107.903 2.86133 108.059 2.72461 108.189C2.5944 108.313 2.43815 108.408 2.25586 108.473C2.07357 108.538 1.88151 108.57 1.67969 108.57C1.47135 108.57 1.27604 108.535 1.09375 108.463C0.917969 108.398 0.764974 108.303 0.634766 108.18C0.504557 108.049 0.400391 107.893 0.322266 107.711C0.244141 107.529 0.205078 107.324 0.205078 107.096V92.3496ZM9.56055 84.8398C9.56055 84.6641 9.59635 84.498 9.66797 84.3418C9.73307 84.179 9.82422 84.0391 9.94141 83.9219C10.0586 83.8047 10.1986 83.7135 10.3613 83.6484C10.5176 83.5768 10.6836 83.541 10.8594 83.541C11.0352 83.541 11.2044 83.5768 11.3672 83.6484C11.5234 83.7135 11.6602 83.8047 11.7773 83.9219C11.8945 84.0391 11.9889 84.179 12.0605 84.3418C12.1257 84.498 12.1582 84.6641 12.1582 84.8398V87.5742C12.1582 87.7435 12.1289 87.9062 12.0703 88.0625C12.0117 88.2122 11.9271 88.3424 11.8164 88.4531C11.7057 88.5638 11.5755 88.6517 11.4258 88.7168C11.2695 88.7819 11.1003 88.8145 10.918 88.8145H1.24023C1.05143 88.8145 0.882161 88.7819 0.732422 88.7168C0.582682 88.6517 0.452474 88.5638 0.341797 88.4531C0.23112 88.3424 0.146484 88.2122 0.0878906 88.0625C0.0292969 87.9062 0 87.7435 0 87.5742C0 87.4049 0.0292969 87.2454 0.0878906 87.0957C0.146484 86.946 0.23112 86.8158 0.341797 86.7051C0.452474 86.5879 0.582682 86.4967 0.732422 86.4316C0.882161 86.3665 1.05143 86.334 1.24023 86.334H9.56055V84.8398ZM12.1582 81.0703C12.1582 81.2591 12.1257 81.4316 12.0605 81.5879C11.9954 81.7441 11.9076 81.8776 11.7969 81.9883C11.6797 82.099 11.5462 82.1836 11.3965 82.2422C11.2402 82.3008 11.0742 82.3301 10.8984 82.3301C10.7227 82.3301 10.5599 82.3008 10.4102 82.2422C10.2539 82.1771 10.1204 82.0892 10.0098 81.9785C9.89258 81.8678 9.80143 81.7376 9.73633 81.5879C9.67122 81.4316 9.63867 81.2591 9.63867 81.0703V78.7852C9.63867 78.5964 9.67122 78.4271 9.73633 78.2773C9.80143 78.1211 9.89258 77.9876 10.0098 77.877C10.1204 77.7663 10.2539 77.6816 10.4102 77.623C10.5599 77.5579 10.7227 77.5254 10.8984 77.5254C11.0742 77.5254 11.2402 77.5547 11.3965 77.6133C11.5462 77.6719 11.6797 77.7565 11.7969 77.8672C11.9076 77.9779 11.9954 78.1113 12.0605 78.2676C12.1257 78.4238 12.1582 78.5964 12.1582 78.7852V81.0703ZM15.8496 94.6543C16.0514 94.0684 16.3249 93.5443 16.6699 93.082C17.015 92.6198 17.4186 92.2292 17.8809 91.9102C18.3496 91.5911 18.8704 91.3503 19.4434 91.1875C20.0228 91.0182 20.6478 90.9336 21.3184 90.9336C22.3991 90.9336 23.3301 91.1224 24.1113 91.5C24.8991 91.8711 25.5469 92.4115 26.0547 93.1211C26.569 93.8242 26.9466 94.6836 27.1875 95.6992C27.4349 96.7148 27.5586 97.8607 27.5586 99.1367C27.5586 100.966 27.4121 102.493 27.1191 103.717C26.8327 104.934 26.4193 105.911 25.8789 106.646C25.3385 107.376 24.681 107.893 23.9062 108.199C23.138 108.505 22.2754 108.658 21.3184 108.658C20.6999 108.658 20.1172 108.593 19.5703 108.463C19.0234 108.333 18.5189 108.121 18.0566 107.828C17.5944 107.529 17.181 107.141 16.8164 106.666C16.4583 106.184 16.1523 105.595 15.8984 104.898C15.6445 104.195 15.4492 103.375 15.3125 102.438C15.1823 101.5 15.1172 100.426 15.1172 99.2148C15.1172 99.0456 15.1497 98.8861 15.2148 98.7363C15.2799 98.5866 15.3678 98.4564 15.4785 98.3457C15.5892 98.2285 15.7194 98.1374 15.8691 98.0723C16.0254 98.0072 16.1882 97.9746 16.3574 97.9746H20.1562C20.3255 97.9746 20.485 98.0072 20.6348 98.0723C20.7845 98.1374 20.9147 98.2285 21.0254 98.3457C21.1426 98.4564 21.2337 98.5866 21.2988 98.7363C21.3639 98.8861 21.3965 99.0456 21.3965 99.2148C21.3965 99.3841 21.3639 99.5469 21.2988 99.7031C21.2337 99.8529 21.1426 99.9831 21.0254 100.094C20.9147 100.204 20.7845 100.292 20.6348 100.357C20.485 100.423 20.3255 100.455 20.1562 100.455H18.2031C18.2227 101.295 18.2878 102.063 18.3984 102.76C18.5091 103.456 18.6816 104.055 18.916 104.557C19.1569 105.058 19.4727 105.449 19.8633 105.729C20.2539 106.002 20.7389 106.139 21.3184 106.139C21.9499 106.139 22.4674 105.986 22.8711 105.68C23.2812 105.367 23.6035 104.934 23.8379 104.381C24.0788 103.827 24.2448 103.17 24.3359 102.408C24.4336 101.646 24.4824 100.81 24.4824 99.8984C24.4824 98.7396 24.4206 97.7533 24.2969 96.9395C24.1732 96.1191 23.9811 95.4518 23.7207 94.9375C23.4668 94.4232 23.1413 94.0488 22.7441 93.8145C22.347 93.5736 21.8717 93.4531 21.3184 93.4531C20.6934 93.4531 20.153 93.6354 19.6973 94C19.2415 94.3581 18.8932 94.9147 18.6523 95.6699C18.5872 95.8652 18.4863 96.0345 18.3496 96.1777C18.2194 96.321 18.0664 96.4349 17.8906 96.5195C17.7148 96.5977 17.526 96.6432 17.3242 96.6562C17.1289 96.6628 16.9336 96.6302 16.7383 96.5586C16.543 96.487 16.3737 96.3861 16.2305 96.2559C16.0938 96.1191 15.9831 95.9661 15.8984 95.7969C15.8203 95.6211 15.7747 95.4355 15.7617 95.2402C15.7487 95.0449 15.778 94.8496 15.8496 94.6543ZM42.1582 103.658C42.1582 104.439 42.028 105.136 41.7676 105.748C41.5137 106.36 41.1361 106.881 40.6348 107.311C40.14 107.734 39.5247 108.059 38.7891 108.287C38.0599 108.508 37.2201 108.619 36.2695 108.619C35.3776 108.619 34.5573 108.508 33.8086 108.287C33.0664 108.066 32.4219 107.737 31.875 107.301C31.3346 106.858 30.9115 106.308 30.6055 105.65C30.306 104.986 30.1562 104.215 30.1562 103.336C30.1562 102.958 30.1725 102.561 30.2051 102.145C30.2441 101.721 30.3353 101.311 30.4785 100.914C30.6283 100.51 30.8464 100.133 31.1328 99.7812C31.4193 99.4297 31.8132 99.1335 32.3145 98.8926C31.8457 98.7038 31.4714 98.4694 31.1914 98.1895C30.9115 97.903 30.6966 97.597 30.5469 97.2715C30.4036 96.9395 30.3092 96.5977 30.2637 96.2461C30.2181 95.888 30.1953 95.543 30.1953 95.2109C30.1953 94.6706 30.2637 94.1953 30.4004 93.7852C30.5371 93.375 30.7227 93.0169 30.957 92.7109C31.1979 92.4049 31.4714 92.151 31.7773 91.9492C32.0898 91.7409 32.4154 91.5749 32.7539 91.4512C33.099 91.321 33.4505 91.2298 33.8086 91.1777C34.1667 91.1257 34.5085 91.0996 34.834 91.0996H36.0449C36.2337 91.0996 36.403 91.1322 36.5527 91.1973C36.709 91.2624 36.8424 91.3535 36.9531 91.4707C37.0638 91.5814 37.1484 91.7148 37.207 91.8711C37.2721 92.0208 37.3047 92.1836 37.3047 92.3594C37.3047 92.5352 37.2754 92.7012 37.2168 92.8574C37.1582 93.0072 37.0736 93.1406 36.9629 93.2578C36.8522 93.3685 36.7188 93.4564 36.5625 93.5215C36.4062 93.5866 36.2337 93.6191 36.0449 93.6191H35.5176C35.3483 93.6191 35.127 93.6322 34.8535 93.6582C34.5801 93.6777 34.3132 93.7428 34.0527 93.8535C33.7988 93.9642 33.5775 94.14 33.3887 94.3809C33.2064 94.6152 33.1152 94.9473 33.1152 95.377C33.1152 95.8392 33.1836 96.2201 33.3203 96.5195C33.4635 96.8125 33.6523 97.0436 33.8867 97.2129C34.1276 97.3822 34.4043 97.5026 34.7168 97.5742C35.0293 97.6393 35.3613 97.6719 35.7129 97.6719H36.0449C36.2337 97.6719 36.403 97.7044 36.5527 97.7695C36.709 97.8346 36.8424 97.9258 36.9531 98.043C37.0638 98.1536 37.1484 98.2871 37.207 98.4434C37.2721 98.5931 37.3047 98.7559 37.3047 98.9316C37.3047 99.1074 37.2754 99.2734 37.2168 99.4297C37.1582 99.5794 37.0736 99.7129 36.9629 99.8301C36.8522 99.9408 36.7188 100.029 36.5625 100.094C36.4062 100.159 36.2337 100.191 36.0449 100.191H35.7129C35.3288 100.191 34.974 100.224 34.6484 100.289C34.3294 100.354 34.0527 100.491 33.8184 100.699C33.584 100.908 33.4017 101.214 33.2715 101.617C33.1413 102.014 33.0762 102.548 33.0762 103.219C33.0762 103.661 33.138 104.062 33.2617 104.42C33.3854 104.771 33.5742 105.071 33.8281 105.318C34.0885 105.566 34.4206 105.758 34.8242 105.895C35.2279 106.031 35.7096 106.1 36.2695 106.1C36.849 106.1 37.3275 106.028 37.7051 105.885C38.0827 105.735 38.3822 105.527 38.6035 105.26C38.8249 104.993 38.9779 104.677 39.0625 104.312C39.1536 103.941 39.1992 103.535 39.1992 103.092V92.3691C39.1992 92.1413 39.2383 91.9362 39.3164 91.7539C39.3945 91.5716 39.4987 91.4186 39.6289 91.2949C39.7591 91.1647 39.9121 91.0671 40.0879 91.002C40.2702 90.9303 40.4655 90.8945 40.6738 90.8945C40.8757 90.8945 41.0677 90.9271 41.25 90.9922C41.4323 91.0573 41.5885 91.1549 41.7188 91.2852C41.8555 91.4089 41.9629 91.5618 42.041 91.7441C42.1191 91.9264 42.1582 92.1348 42.1582 92.3691V103.658ZM54.248 107.096C54.248 107.33 54.209 107.538 54.1309 107.721C54.0527 107.903 53.9453 108.059 53.8086 108.189C53.6784 108.313 53.5221 108.408 53.3398 108.473C53.1576 108.538 52.9655 108.57 52.7637 108.57C52.5553 108.57 52.36 108.535 52.1777 108.463C52.002 108.398 51.849 108.303 51.7188 108.18C51.5885 108.049 51.4844 107.893 51.4062 107.711C51.3281 107.529 51.2891 107.324 51.2891 107.096V96.0117C51.2891 95.5951 51.2337 95.224 51.123 94.8984C51.0189 94.5664 50.8691 94.2897 50.6738 94.0684C50.4785 93.8405 50.2409 93.668 49.9609 93.5508C49.6875 93.4336 49.3815 93.375 49.043 93.375C48.7891 93.375 48.5449 93.4141 48.3105 93.4922C48.0762 93.5703 47.8613 93.6875 47.666 93.8438C47.4707 93.9935 47.3014 94.179 47.1582 94.4004C47.015 94.6217 46.9043 94.8757 46.8262 95.1621C46.7741 95.3574 46.6829 95.5267 46.5527 95.6699C46.4225 95.8066 46.2728 95.9173 46.1035 96.002C45.9342 96.0801 45.7487 96.1257 45.5469 96.1387C45.3516 96.1517 45.1595 96.1224 44.9707 96.0508C44.7819 95.9857 44.6159 95.888 44.4727 95.7578C44.3359 95.6276 44.2285 95.4811 44.1504 95.3184C44.0723 95.1491 44.0234 94.9701 44.0039 94.7812C43.9909 94.5859 44.0137 94.3939 44.0723 94.2051C44.2285 93.6647 44.4759 93.1895 44.8145 92.7793C45.153 92.3626 45.5469 92.0176 45.9961 91.7441C46.4453 91.4642 46.9303 91.2526 47.4512 91.1094C47.9785 90.9661 48.5091 90.8945 49.043 90.8945C49.6745 90.8945 50.2995 90.9922 50.918 91.1875C51.5365 91.3828 52.0931 91.6758 52.5879 92.0664C53.0827 92.4505 53.4831 92.9323 53.7891 93.5117C54.0951 94.0911 54.248 94.765 54.248 95.5332V107.096ZM69.5898 107.096C69.5898 107.33 69.5508 107.538 69.4727 107.721C69.3945 107.903 69.2871 108.059 69.1504 108.189C69.0202 108.313 68.8639 108.408 68.6816 108.473C68.4993 108.538 68.3073 108.57 68.1055 108.57C67.8971 108.57 67.7018 108.535 67.5195 108.463C67.3438 108.398 67.1908 108.303 67.0605 108.18C66.9303 108.049 66.8262 107.893 66.748 107.711C66.6699 107.529 66.6309 107.324 66.6309 107.096V96.0996C66.6309 95.6764 66.556 95.2988 66.4062 94.9668C66.263 94.6348 66.0547 94.3548 65.7812 94.127C65.5078 93.8926 65.1758 93.7168 64.7852 93.5996C64.3945 93.4759 63.9551 93.4141 63.4668 93.4141C63.0632 93.4141 62.6823 93.4466 62.3242 93.5117C61.9661 93.5768 61.6341 93.6712 61.3281 93.7949C61.0286 93.9121 60.7617 94.0553 60.5273 94.2246C60.293 94.3874 60.1009 94.5697 59.9512 94.7715C60.0293 94.8952 60.1042 95.0384 60.1758 95.2012C60.2539 95.3574 60.319 95.5267 60.3711 95.709C60.4232 95.8913 60.4655 96.0768 60.498 96.2656C60.5306 96.4544 60.5469 96.6367 60.5469 96.8125V107.096C60.5469 107.33 60.5078 107.538 60.4297 107.721C60.3516 107.903 60.2441 108.059 60.1074 108.189C59.9772 108.313 59.821 108.408 59.6387 108.473C59.4564 108.538 59.2643 108.57 59.0625 108.57C58.8542 108.57 58.6589 108.535 58.4766 108.463C58.3008 108.398 58.1478 108.303 58.0176 108.18C57.8874 108.049 57.7832 107.893 57.7051 107.711C57.627 107.529 57.5879 107.324 57.5879 107.096V96.6953C57.5879 96.3828 57.5391 96.0996 57.4414 95.8457C57.3438 95.5853 57.1745 95.3802 56.9336 95.2305C56.7513 95.1198 56.6797 94.9863 56.7188 94.8301C56.7643 94.6738 56.8652 94.472 57.0215 94.2246C57.3861 93.6582 57.7995 93.1667 58.2617 92.75C58.7305 92.3333 59.2383 91.9883 59.7852 91.7148C60.332 91.4349 60.9147 91.2298 61.5332 91.0996C62.1517 90.9629 62.7962 90.8945 63.4668 90.8945C63.9811 90.8945 64.4889 90.9401 64.9902 91.0312C65.4915 91.1159 65.9701 91.2461 66.4258 91.4219C66.8815 91.5911 67.3014 91.806 67.6855 92.0664C68.0697 92.3203 68.4017 92.6198 68.6816 92.9648C68.9681 93.3099 69.1895 93.6973 69.3457 94.127C69.5085 94.5501 69.5898 95.0189 69.5898 95.5332V107.096ZM85.498 107.096C85.498 107.33 85.459 107.538 85.3809 107.721C85.3027 107.903 85.1953 108.059 85.0586 108.189C84.9284 108.313 84.7721 108.408 84.5898 108.473C84.4076 108.538 84.2155 108.57 84.0137 108.57C83.8053 108.57 83.61 108.535 83.4277 108.463C83.252 108.398 83.099 108.303 82.9688 108.18C82.8385 108.049 82.7344 107.893 82.6562 107.711C82.5781 107.529 82.5391 107.324 82.5391 107.096V96.2949C82.5391 96.0345 82.5228 95.7904 82.4902 95.5625C82.4577 95.3346 82.4023 95.1263 82.3242 94.9375C82.2461 94.7422 82.1387 94.5697 82.002 94.4199C81.8717 94.2637 81.7057 94.1302 81.5039 94.0195L79.5801 95.8945C79.541 95.9336 79.4824 95.9857 79.4043 96.0508C79.3262 96.1094 79.2253 96.1387 79.1016 96.1387C78.9388 96.1387 78.8151 96.1094 78.7305 96.0508C78.6458 95.9857 78.584 95.9336 78.5449 95.8945L76.6992 94.0195C76.3607 94.2604 76.1035 94.5859 75.9277 94.9961C75.752 95.3997 75.6641 95.8327 75.6641 96.2949V103.697L78.0273 100.377H77.4316C77.2559 100.377 77.0964 100.348 76.9531 100.289C76.8099 100.224 76.6862 100.139 76.582 100.035C76.4844 99.931 76.4062 99.8105 76.3477 99.6738C76.2956 99.5306 76.2695 99.3776 76.2695 99.2148C76.2695 99.0521 76.2956 98.9023 76.3477 98.7656C76.4062 98.6224 76.4844 98.4987 76.582 98.3945C76.6862 98.2904 76.8099 98.209 76.9531 98.1504C77.0964 98.0853 77.2559 98.0527 77.4316 98.0527H80.4102C80.5859 98.0527 80.7487 98.0853 80.8984 98.1504C81.0482 98.2155 81.1784 98.3066 81.2891 98.4238C81.4062 98.5345 81.4974 98.6647 81.5625 98.8145C81.6276 98.9642 81.6602 99.127 81.6602 99.3027C81.6602 99.5632 81.5885 99.7943 81.4453 99.9961L75.8496 107.838C75.6934 108.059 75.4915 108.238 75.2441 108.375C74.9967 108.505 74.7266 108.57 74.4336 108.57C74.1797 108.57 73.9453 108.528 73.7305 108.443C73.5221 108.359 73.3398 108.242 73.1836 108.092C73.0339 107.936 72.9167 107.753 72.832 107.545C72.7474 107.33 72.7051 107.096 72.7051 106.842V95.6016C72.7051 95.0417 72.8027 94.5208 72.998 94.0391C73.1934 93.5508 73.4668 93.1146 73.8184 92.7305C74.1764 92.3398 74.5996 92.0046 75.0879 91.7246C75.5827 91.4447 76.123 91.2266 76.709 91.0703C76.7676 91.0573 76.8392 91.041 76.9238 91.0215C77.0085 91.002 77.0996 90.9922 77.1973 90.9922C77.2949 90.9922 77.3926 91.0117 77.4902 91.0508C77.5879 91.0898 77.6823 91.1582 77.7734 91.2559L79.1016 92.7207L80.332 91.2559C80.4167 91.1582 80.5078 91.0898 80.6055 91.0508C80.7031 91.0117 80.8008 90.9922 80.8984 90.9922C80.9961 90.9922 81.0872 91.002 81.1719 91.0215C81.263 91.041 81.3411 91.0573 81.4062 91.0703C81.9987 91.2201 82.5456 91.4349 83.0469 91.7148C83.5482 91.9883 83.9779 92.3203 84.3359 92.7109C84.7005 93.0951 84.9837 93.5312 85.1855 94.0195C85.3874 94.5078 85.4883 95.0352 85.4883 95.6016L85.498 107.096ZM89.8145 97.2129C89.6322 97.2129 89.4629 97.1803 89.3066 97.1152C89.1504 97.0436 89.0137 96.9492 88.8965 96.832C88.7793 96.7148 88.6849 96.5781 88.6133 96.4219C88.5482 96.2591 88.5156 96.0866 88.5156 95.9043V94.459C88.5156 94.2637 88.5482 94.0846 88.6133 93.9219C88.6849 93.7591 88.7793 93.6224 88.8965 93.5117C89.0137 93.3945 89.1504 93.3066 89.3066 93.248C89.4629 93.1829 89.6322 93.1504 89.8145 93.1504C89.9967 93.1504 90.166 93.1829 90.3223 93.248C90.485 93.3132 90.625 93.4043 90.7422 93.5215C90.8594 93.6322 90.9505 93.7689 91.0156 93.9316C91.0872 94.0879 91.123 94.2637 91.123 94.459V94.7324H94.3945C94.5508 94.7324 94.7005 94.7682 94.8438 94.8398C94.987 94.9049 95.1107 94.9961 95.2148 95.1133C95.3255 95.2305 95.4134 95.3639 95.4785 95.5137C95.5436 95.6634 95.5762 95.8164 95.5762 95.9727C95.5762 96.1289 95.5436 96.2819 95.4785 96.4316C95.4134 96.5814 95.3255 96.7148 95.2148 96.832C95.1107 96.9492 94.987 97.0436 94.8438 97.1152C94.7005 97.1803 94.5508 97.2129 94.3945 97.2129H89.8145ZM89.8145 106.129C89.6322 106.129 89.4629 106.096 89.3066 106.031C89.1504 105.96 89.0137 105.865 88.8965 105.748C88.7793 105.631 88.6849 105.494 88.6133 105.338C88.5482 105.175 88.5156 105.003 88.5156 104.82V103.375C88.5156 103.18 88.5482 103.001 88.6133 102.838C88.6849 102.675 88.7793 102.538 88.8965 102.428C89.0137 102.311 89.1504 102.223 89.3066 102.164C89.4629 102.099 89.6322 102.066 89.8145 102.066C89.9967 102.066 90.166 102.099 90.3223 102.164C90.485 102.229 90.625 102.32 90.7422 102.438C90.8594 102.548 90.9505 102.685 91.0156 102.848C91.0872 103.004 91.123 103.18 91.123 103.375V103.648H94.3945C94.5508 103.648 94.7005 103.684 94.8438 103.756C94.987 103.821 95.1107 103.912 95.2148 104.029C95.3255 104.146 95.4134 104.28 95.4785 104.43C95.5436 104.579 95.5762 104.732 95.5762 104.889C95.5762 105.045 95.5436 105.198 95.4785 105.348C95.4134 105.497 95.3255 105.631 95.2148 105.748C95.1107 105.865 94.987 105.96 94.8438 106.031C94.7005 106.096 94.5508 106.129 94.3945 106.129H89.8145ZM98.5742 88.8145C98.5742 88.1569 98.431 87.5938 98.1445 87.125C97.8646 86.6497 97.4935 86.3145 97.0312 86.1191C96.7969 86.015 96.6016 85.8555 96.4453 85.6406C96.2956 85.4193 96.2207 85.1719 96.2207 84.8984C96.2207 84.7161 96.2533 84.5436 96.3184 84.3809C96.3835 84.2181 96.4746 84.0781 96.5918 83.9609C96.709 83.8372 96.849 83.7428 97.0117 83.6777C97.1745 83.6061 97.3535 83.5703 97.5488 83.5703H104.404C104.587 83.5703 104.749 83.6029 104.893 83.668C105.042 83.7266 105.169 83.8112 105.273 83.9219C105.378 84.0326 105.459 84.1628 105.518 84.3125C105.576 84.4557 105.605 84.6087 105.605 84.7715C105.605 84.9408 105.576 85.097 105.518 85.2402C105.465 85.3835 105.387 85.5104 105.283 85.6211C105.179 85.7318 105.052 85.8197 104.902 85.8848C104.753 85.9434 104.587 85.9727 104.404 85.9727H100.498C100.817 86.2786 101.068 86.653 101.25 87.0957C101.439 87.5319 101.533 88.0104 101.533 88.5312V105.816H102.227C102.415 105.816 102.588 105.852 102.744 105.924C102.9 105.989 103.034 106.08 103.145 106.197C103.255 106.314 103.34 106.451 103.398 106.607C103.457 106.757 103.486 106.92 103.486 107.096C103.486 107.271 103.457 107.438 103.398 107.594C103.34 107.743 103.255 107.877 103.145 107.994C103.04 108.111 102.91 108.206 102.754 108.277C102.598 108.342 102.422 108.375 102.227 108.375H99.834C99.6387 108.375 99.4629 108.342 99.3066 108.277C99.1504 108.212 99.0169 108.124 98.9062 108.014C98.8021 107.896 98.7207 107.763 98.6621 107.613C98.6035 107.457 98.5742 107.291 98.5742 107.115V88.8145ZM117.402 107.096C117.402 107.33 117.363 107.538 117.285 107.721C117.207 107.903 117.1 108.059 116.963 108.189C116.833 108.313 116.676 108.408 116.494 108.473C116.312 108.538 116.12 108.57 115.918 108.57C115.71 108.57 115.514 108.535 115.332 108.463C115.156 108.398 115.003 108.303 114.873 108.18C114.743 108.049 114.639 107.893 114.561 107.711C114.482 107.529 114.443 107.324 114.443 107.096V96.0996C114.443 95.6764 114.368 95.2988 114.219 94.9668C114.076 94.6348 113.867 94.3548 113.594 94.127C113.32 93.8926 112.988 93.7168 112.598 93.5996C112.207 93.4759 111.768 93.4141 111.279 93.4141C110.876 93.4141 110.495 93.4466 110.137 93.5117C109.779 93.5768 109.447 93.6712 109.141 93.7949C108.841 93.9121 108.574 94.0553 108.34 94.2246C108.105 94.3874 107.913 94.5697 107.764 94.7715C107.842 94.8952 107.917 95.0384 107.988 95.2012C108.066 95.3574 108.132 95.5267 108.184 95.709C108.236 95.8913 108.278 96.0768 108.311 96.2656C108.343 96.4544 108.359 96.6367 108.359 96.8125V107.096C108.359 107.33 108.32 107.538 108.242 107.721C108.164 107.903 108.057 108.059 107.92 108.189C107.79 108.313 107.633 108.408 107.451 108.473C107.269 108.538 107.077 108.57 106.875 108.57C106.667 108.57 106.471 108.535 106.289 108.463C106.113 108.398 105.96 108.303 105.83 108.18C105.7 108.049 105.596 107.893 105.518 107.711C105.439 107.529 105.4 107.324 105.4 107.096V96.6953C105.4 96.3828 105.352 96.0996 105.254 95.8457C105.156 95.5853 104.987 95.3802 104.746 95.2305C104.564 95.1198 104.492 94.9863 104.531 94.8301C104.577 94.6738 104.678 94.472 104.834 94.2246C105.199 93.6582 105.612 93.1667 106.074 92.75C106.543 92.3333 107.051 91.9883 107.598 91.7148C108.145 91.4349 108.727 91.2298 109.346 91.0996C109.964 90.9629 110.609 90.8945 111.279 90.8945C111.794 90.8945 112.301 90.9401 112.803 91.0312C113.304 91.1159 113.783 91.2461 114.238 91.4219C114.694 91.5911 115.114 91.806 115.498 92.0664C115.882 92.3203 116.214 92.6198 116.494 92.9648C116.781 93.3099 117.002 93.6973 117.158 94.127C117.321 94.5501 117.402 95.0189 117.402 95.5332V107.096ZM132.471 107.115C132.471 107.33 132.432 107.529 132.354 107.711C132.282 107.887 132.181 108.04 132.051 108.17C131.921 108.294 131.768 108.388 131.592 108.453C131.423 108.525 131.237 108.561 131.035 108.561C130.833 108.561 130.645 108.525 130.469 108.453C130.293 108.388 130.14 108.294 130.01 108.17C129.88 108.04 129.775 107.887 129.697 107.711C129.626 107.535 129.59 107.337 129.59 107.115V106.734C129.29 107.014 128.984 107.268 128.672 107.496C128.366 107.717 128.044 107.91 127.705 108.072C127.373 108.229 127.015 108.349 126.631 108.434C126.253 108.525 125.846 108.57 125.41 108.57C124.74 108.57 124.108 108.476 123.516 108.287C122.923 108.092 122.402 107.802 121.953 107.418C121.51 107.027 121.159 106.546 120.898 105.973C120.645 105.4 120.518 104.732 120.518 103.971V92.3691C120.518 92.1348 120.557 91.9264 120.635 91.7441C120.713 91.5618 120.817 91.4089 120.947 91.2852C121.084 91.1549 121.24 91.0573 121.416 90.9922C121.598 90.9271 121.794 90.8945 122.002 90.8945C122.204 90.8945 122.396 90.9303 122.578 91.002C122.76 91.0671 122.917 91.1647 123.047 91.2949C123.177 91.4186 123.281 91.5716 123.359 91.7539C123.438 91.9362 123.477 92.1413 123.477 92.3691V103.658C123.477 104.016 123.529 104.342 123.633 104.635C123.737 104.928 123.896 105.182 124.111 105.396C124.326 105.605 124.593 105.768 124.912 105.885C125.231 105.995 125.605 106.051 126.035 106.051C126.634 106.051 127.152 105.943 127.588 105.729C128.031 105.507 128.392 105.217 128.672 104.859C128.958 104.495 129.17 104.075 129.307 103.6C129.443 103.124 129.512 102.633 129.512 102.125V92.3691C129.512 92.1348 129.551 91.9264 129.629 91.7441C129.707 91.5618 129.811 91.4089 129.941 91.2852C130.078 91.1549 130.234 91.0573 130.41 90.9922C130.592 90.9271 130.788 90.8945 130.996 90.8945C131.198 90.8945 131.39 90.9303 131.572 91.002C131.755 91.0671 131.911 91.1647 132.041 91.2949C132.171 91.4186 132.275 91.5716 132.354 91.7539C132.432 91.9362 132.471 92.1413 132.471 92.3691V107.115ZM144.59 92.3691C144.59 92.1348 144.629 91.9264 144.707 91.7441C144.785 91.5618 144.889 91.4089 145.02 91.2852C145.156 91.1549 145.312 91.0573 145.488 90.9922C145.671 90.9271 145.866 90.8945 146.074 90.8945C146.276 90.8945 146.468 90.9303 146.65 91.002C146.833 91.0671 146.989 91.1647 147.119 91.2949C147.249 91.4186 147.354 91.5716 147.432 91.7539C147.51 91.9362 147.549 92.1413 147.549 92.3691V103.854C147.549 104.615 147.389 105.286 147.07 105.865C146.758 106.445 146.328 106.933 145.781 107.33C145.241 107.727 144.609 108.027 143.887 108.229C143.164 108.43 142.399 108.531 141.592 108.531C140.791 108.531 140.026 108.43 139.297 108.229C138.574 108.027 137.939 107.727 137.393 107.33C136.846 106.933 136.41 106.445 136.084 105.865C135.758 105.286 135.596 104.615 135.596 103.854V92.3691C135.596 92.1348 135.635 91.9264 135.713 91.7441C135.791 91.5618 135.895 91.4089 136.025 91.2852C136.162 91.1549 136.318 91.0573 136.494 90.9922C136.676 90.9271 136.872 90.8945 137.08 90.8945C137.282 90.8945 137.474 90.9303 137.656 91.002C137.839 91.0671 137.995 91.1647 138.125 91.2949C138.255 91.4186 138.359 91.5716 138.438 91.7539C138.516 91.9362 138.555 92.1413 138.555 92.3691V103.414C138.555 103.837 138.626 104.212 138.77 104.537C138.919 104.863 139.128 105.139 139.395 105.367C139.668 105.589 139.99 105.758 140.361 105.875C140.732 105.992 141.143 106.051 141.592 106.051C142.041 106.051 142.448 105.992 142.812 105.875C143.184 105.758 143.499 105.589 143.76 105.367C144.027 105.139 144.232 104.863 144.375 104.537C144.518 104.212 144.59 103.837 144.59 103.414V92.3691ZM151.24 94.6543C151.442 94.0684 151.715 93.5443 152.061 93.082C152.406 92.6198 152.809 92.2292 153.271 91.9102C153.74 91.5911 154.261 91.3503 154.834 91.1875C155.413 91.0182 156.038 90.9336 156.709 90.9336C157.79 90.9336 158.721 91.1224 159.502 91.5C160.29 91.8711 160.938 92.4115 161.445 93.1211C161.96 93.8242 162.337 94.6836 162.578 95.6992C162.826 96.7148 162.949 97.8607 162.949 99.1367C162.949 100.966 162.803 102.493 162.51 103.717C162.223 104.934 161.81 105.911 161.27 106.646C160.729 107.376 160.072 107.893 159.297 108.199C158.529 108.505 157.666 108.658 156.709 108.658C156.09 108.658 155.508 108.593 154.961 108.463C154.414 108.333 153.91 108.121 153.447 107.828C152.985 107.529 152.572 107.141 152.207 106.666C151.849 106.184 151.543 105.595 151.289 104.898C151.035 104.195 150.84 103.375 150.703 102.438C150.573 101.5 150.508 100.426 150.508 99.2148C150.508 99.0456 150.54 98.8861 150.605 98.7363C150.671 98.5866 150.758 98.4564 150.869 98.3457C150.98 98.2285 151.11 98.1374 151.26 98.0723C151.416 98.0072 151.579 97.9746 151.748 97.9746H155.547C155.716 97.9746 155.876 98.0072 156.025 98.0723C156.175 98.1374 156.305 98.2285 156.416 98.3457C156.533 98.4564 156.624 98.5866 156.689 98.7363C156.755 98.8861 156.787 99.0456 156.787 99.2148C156.787 99.3841 156.755 99.5469 156.689 99.7031C156.624 99.8529 156.533 99.9831 156.416 100.094C156.305 100.204 156.175 100.292 156.025 100.357C155.876 100.423 155.716 100.455 155.547 100.455H153.594C153.613 101.295 153.678 102.063 153.789 102.76C153.9 103.456 154.072 104.055 154.307 104.557C154.548 105.058 154.863 105.449 155.254 105.729C155.645 106.002 156.13 106.139 156.709 106.139C157.34 106.139 157.858 105.986 158.262 105.68C158.672 105.367 158.994 104.934 159.229 104.381C159.469 103.827 159.635 103.17 159.727 102.408C159.824 101.646 159.873 100.81 159.873 99.8984C159.873 98.7396 159.811 97.7533 159.688 96.9395C159.564 96.1191 159.372 95.4518 159.111 94.9375C158.857 94.4232 158.532 94.0488 158.135 93.8145C157.738 93.5736 157.262 93.4531 156.709 93.4531C156.084 93.4531 155.544 93.6354 155.088 94C154.632 94.3581 154.284 94.9147 154.043 95.6699C153.978 95.8652 153.877 96.0345 153.74 96.1777C153.61 96.321 153.457 96.4349 153.281 96.5195C153.105 96.5977 152.917 96.6432 152.715 96.6562C152.52 96.6628 152.324 96.6302 152.129 96.5586C151.934 96.487 151.764 96.3861 151.621 96.2559C151.484 96.1191 151.374 95.9661 151.289 95.7969C151.211 95.6211 151.165 95.4355 151.152 95.2402C151.139 95.0449 151.169 94.8496 151.24 94.6543ZM178.145 107.096C178.145 107.33 178.105 107.538 178.027 107.721C177.949 107.903 177.842 108.059 177.705 108.189C177.575 108.313 177.419 108.408 177.236 108.473C177.054 108.538 176.862 108.57 176.66 108.57C176.452 108.57 176.257 108.535 176.074 108.463C175.898 108.398 175.745 108.303 175.615 108.18C175.485 108.049 175.381 107.893 175.303 107.711C175.225 107.529 175.186 107.324 175.186 107.096V96.0996C175.186 95.6764 175.111 95.2988 174.961 94.9668C174.818 94.6348 174.609 94.3548 174.336 94.127C174.062 93.8926 173.73 93.7168 173.34 93.5996C172.949 93.4759 172.51 93.4141 172.021 93.4141C171.618 93.4141 171.237 93.4466 170.879 93.5117C170.521 93.5768 170.189 93.6712 169.883 93.7949C169.583 93.9121 169.316 94.0553 169.082 94.2246C168.848 94.3874 168.656 94.5697 168.506 94.7715C168.584 94.8952 168.659 95.0384 168.73 95.2012C168.809 95.3574 168.874 95.5267 168.926 95.709C168.978 95.8913 169.02 96.0768 169.053 96.2656C169.085 96.4544 169.102 96.6367 169.102 96.8125V107.096C169.102 107.33 169.062 107.538 168.984 107.721C168.906 107.903 168.799 108.059 168.662 108.189C168.532 108.313 168.376 108.408 168.193 108.473C168.011 108.538 167.819 108.57 167.617 108.57C167.409 108.57 167.214 108.535 167.031 108.463C166.855 108.398 166.702 108.303 166.572 108.18C166.442 108.049 166.338 107.893 166.26 107.711C166.182 107.529 166.143 107.324 166.143 107.096V96.6953C166.143 96.3828 166.094 96.0996 165.996 95.8457C165.898 95.5853 165.729 95.3802 165.488 95.2305C165.306 95.1198 165.234 94.9863 165.273 94.8301C165.319 94.6738 165.42 94.472 165.576 94.2246C165.941 93.6582 166.354 93.1667 166.816 92.75C167.285 92.3333 167.793 91.9883 168.34 91.7148C168.887 91.4349 169.469 91.2298 170.088 91.0996C170.706 90.9629 171.351 90.8945 172.021 90.8945C172.536 90.8945 173.044 90.9401 173.545 91.0312C174.046 91.1159 174.525 91.2461 174.98 91.4219C175.436 91.5911 175.856 91.806 176.24 92.0664C176.624 92.3203 176.956 92.6198 177.236 92.9648C177.523 93.3099 177.744 93.6973 177.9 94.127C178.063 94.5501 178.145 95.0189 178.145 95.5332V107.096ZM194.053 107.096C194.053 107.33 194.014 107.538 193.936 107.721C193.857 107.903 193.75 108.059 193.613 108.189C193.483 108.313 193.327 108.408 193.145 108.473C192.962 108.538 192.77 108.57 192.568 108.57C192.36 108.57 192.165 108.535 191.982 108.463C191.807 108.398 191.654 108.303 191.523 108.18C191.393 108.049 191.289 107.893 191.211 107.711C191.133 107.529 191.094 107.324 191.094 107.096V96.2949C191.094 96.0345 191.077 95.7904 191.045 95.5625C191.012 95.3346 190.957 95.1263 190.879 94.9375C190.801 94.7422 190.693 94.5697 190.557 94.4199C190.426 94.2637 190.26 94.1302 190.059 94.0195L188.135 95.8945C188.096 95.9336 188.037 95.9857 187.959 96.0508C187.881 96.1094 187.78 96.1387 187.656 96.1387C187.493 96.1387 187.37 96.1094 187.285 96.0508C187.201 95.9857 187.139 95.9336 187.1 95.8945L185.254 94.0195C184.915 94.2604 184.658 94.5859 184.482 94.9961C184.307 95.3997 184.219 95.8327 184.219 96.2949V103.697L186.582 100.377H185.986C185.811 100.377 185.651 100.348 185.508 100.289C185.365 100.224 185.241 100.139 185.137 100.035C185.039 99.931 184.961 99.8105 184.902 99.6738C184.85 99.5306 184.824 99.3776 184.824 99.2148C184.824 99.0521 184.85 98.9023 184.902 98.7656C184.961 98.6224 185.039 98.4987 185.137 98.3945C185.241 98.2904 185.365 98.209 185.508 98.1504C185.651 98.0853 185.811 98.0527 185.986 98.0527H188.965C189.141 98.0527 189.303 98.0853 189.453 98.1504C189.603 98.2155 189.733 98.3066 189.844 98.4238C189.961 98.5345 190.052 98.6647 190.117 98.8145C190.182 98.9642 190.215 99.127 190.215 99.3027C190.215 99.5632 190.143 99.7943 190 99.9961L184.404 107.838C184.248 108.059 184.046 108.238 183.799 108.375C183.551 108.505 183.281 108.57 182.988 108.57C182.734 108.57 182.5 108.528 182.285 108.443C182.077 108.359 181.895 108.242 181.738 108.092C181.589 107.936 181.471 107.753 181.387 107.545C181.302 107.33 181.26 107.096 181.26 106.842V95.6016C181.26 95.0417 181.357 94.5208 181.553 94.0391C181.748 93.5508 182.021 93.1146 182.373 92.7305C182.731 92.3398 183.154 92.0046 183.643 91.7246C184.137 91.4447 184.678 91.2266 185.264 91.0703C185.322 91.0573 185.394 91.041 185.479 91.0215C185.563 91.002 185.654 90.9922 185.752 90.9922C185.85 90.9922 185.947 91.0117 186.045 91.0508C186.143 91.0898 186.237 91.1582 186.328 91.2559L187.656 92.7207L188.887 91.2559C188.971 91.1582 189.062 91.0898 189.16 91.0508C189.258 91.0117 189.355 90.9922 189.453 90.9922C189.551 90.9922 189.642 91.002 189.727 91.0215C189.818 91.041 189.896 91.0573 189.961 91.0703C190.553 91.2201 191.1 91.4349 191.602 91.7148C192.103 91.9883 192.533 92.3203 192.891 92.7109C193.255 93.0951 193.538 93.5312 193.74 94.0195C193.942 94.5078 194.043 95.0352 194.043 95.6016L194.053 107.096ZM187.812 88.7754C187.637 88.7754 187.474 88.7428 187.324 88.6777C187.168 88.6126 187.035 88.5247 186.924 88.4141C186.807 88.2969 186.715 88.1634 186.65 88.0137C186.585 87.8574 186.553 87.6914 186.553 87.5156V85.9824C186.553 85.8001 186.585 85.6309 186.65 85.4746C186.715 85.3184 186.807 85.1849 186.924 85.0742C187.035 84.9635 187.168 84.8789 187.324 84.8203C187.474 84.7552 187.637 84.7227 187.812 84.7227C187.988 84.7227 188.154 84.7552 188.311 84.8203C188.46 84.8789 188.594 84.9635 188.711 85.0742C188.822 85.1849 188.91 85.3184 188.975 85.4746C189.04 85.6309 189.072 85.8001 189.072 85.9824V86.334H195.586C195.755 86.334 195.911 86.3665 196.055 86.4316C196.204 86.4967 196.335 86.5846 196.445 86.6953C196.556 86.806 196.644 86.9362 196.709 87.0859C196.774 87.2292 196.807 87.3854 196.807 87.5547C196.807 87.724 196.774 87.8835 196.709 88.0332C196.644 88.1764 196.556 88.3034 196.445 88.4141C196.335 88.5247 196.204 88.6126 196.055 88.6777C195.911 88.7428 195.755 88.7754 195.586 88.7754H187.812ZM197.061 105.289C196.995 105.087 196.976 104.889 197.002 104.693C197.035 104.498 197.1 104.322 197.197 104.166C197.295 104.003 197.422 103.863 197.578 103.746C197.741 103.629 197.92 103.544 198.115 103.492C198.324 103.44 198.525 103.427 198.721 103.453C198.923 103.479 199.105 103.538 199.268 103.629C199.437 103.72 199.583 103.844 199.707 104C199.831 104.156 199.919 104.339 199.971 104.547C200.094 105.016 200.306 105.393 200.605 105.68C200.905 105.96 201.315 106.1 201.836 106.1C202.344 106.1 202.76 105.93 203.086 105.592C203.418 105.253 203.675 104.798 203.857 104.225C204.046 103.645 204.176 102.975 204.248 102.213C204.32 101.451 204.355 100.65 204.355 99.8105C204.355 99.5176 204.352 99.1562 204.346 98.7266C204.339 98.2969 204.313 97.8444 204.268 97.3691C204.222 96.8939 204.147 96.4219 204.043 95.9531C203.939 95.4844 203.789 95.0612 203.594 94.6836C203.398 94.306 203.148 94 202.842 93.7656C202.536 93.5312 202.161 93.4141 201.719 93.4141C201.335 93.4141 201.006 93.4922 200.732 93.6484C200.459 93.8047 200.231 94.0098 200.049 94.2637C199.873 94.5176 199.74 94.8105 199.648 95.1426C199.557 95.4681 199.499 95.8034 199.473 96.1484C199.46 96.3438 199.404 96.526 199.307 96.6953C199.209 96.8581 199.082 96.9948 198.926 97.1055C198.776 97.2161 198.604 97.2975 198.408 97.3496C198.219 97.4017 198.024 97.4147 197.822 97.3887C197.627 97.3626 197.448 97.304 197.285 97.2129C197.122 97.1152 196.982 96.9948 196.865 96.8516C196.755 96.7018 196.673 96.5358 196.621 96.3535C196.569 96.1647 196.556 95.9694 196.582 95.7676C196.66 95.097 196.829 94.4655 197.09 93.873C197.357 93.2806 197.708 92.7663 198.145 92.3301C198.581 91.8874 199.102 91.5391 199.707 91.2852C200.312 91.0247 200.996 90.8945 201.758 90.8945C202.318 90.8945 202.848 90.9564 203.35 91.0801C203.851 91.2038 204.313 91.4056 204.736 91.6855C205.16 91.9655 205.537 92.3333 205.869 92.7891C206.208 93.2448 206.494 93.8047 206.729 94.4688C206.969 95.1263 207.152 95.8978 207.275 96.7832C207.406 97.6621 207.471 98.6712 207.471 99.8105C207.471 100.403 207.438 101.035 207.373 101.705C207.308 102.369 207.194 103.027 207.031 103.678C206.875 104.329 206.66 104.954 206.387 105.553C206.12 106.145 205.778 106.669 205.361 107.125C204.945 107.581 204.447 107.945 203.867 108.219C203.288 108.486 202.611 108.619 201.836 108.619C201.191 108.619 200.609 108.538 200.088 108.375C199.567 108.212 199.108 107.984 198.711 107.691C198.314 107.398 197.979 107.047 197.705 106.637C197.432 106.227 197.217 105.777 197.061 105.289ZM213.281 107.096C213.281 107.33 213.242 107.538 213.164 107.721C213.086 107.903 212.979 108.059 212.842 108.189C212.712 108.313 212.555 108.408 212.373 108.473C212.191 108.538 211.999 108.57 211.797 108.57C211.589 108.57 211.393 108.535 211.211 108.463C211.035 108.398 210.882 108.303 210.752 108.18C210.622 108.049 210.518 107.893 210.439 107.711C210.361 107.529 210.322 107.324 210.322 107.096V92.3789C210.322 92.151 210.361 91.946 210.439 91.7637C210.518 91.5814 210.622 91.4284 210.752 91.3047C210.882 91.1745 211.035 91.0768 211.211 91.0117C211.393 90.9401 211.589 90.9043 211.797 90.9043C211.999 90.9043 212.191 90.9368 212.373 91.002C212.555 91.0671 212.712 91.1647 212.842 91.2949C212.979 91.4186 213.086 91.5716 213.164 91.7539C213.242 91.9362 213.281 92.1445 213.281 92.3789V107.096ZM216.982 94.6543C217.184 94.0684 217.458 93.5443 217.803 93.082C218.148 92.6198 218.551 92.2292 219.014 91.9102C219.482 91.5911 220.003 91.3503 220.576 91.1875C221.156 91.0182 221.781 90.9336 222.451 90.9336C223.532 90.9336 224.463 91.1224 225.244 91.5C226.032 91.8711 226.68 92.4115 227.188 93.1211C227.702 93.8242 228.079 94.6836 228.32 95.6992C228.568 96.7148 228.691 97.8607 228.691 99.1367C228.691 100.966 228.545 102.493 228.252 103.717C227.965 104.934 227.552 105.911 227.012 106.646C226.471 107.376 225.814 107.893 225.039 108.199C224.271 108.505 223.408 108.658 222.451 108.658C221.833 108.658 221.25 108.593 220.703 108.463C220.156 108.333 219.652 108.121 219.189 107.828C218.727 107.529 218.314 107.141 217.949 106.666C217.591 106.184 217.285 105.595 217.031 104.898C216.777 104.195 216.582 103.375 216.445 102.438C216.315 101.5 216.25 100.426 216.25 99.2148C216.25 99.0456 216.283 98.8861 216.348 98.7363C216.413 98.5866 216.501 98.4564 216.611 98.3457C216.722 98.2285 216.852 98.1374 217.002 98.0723C217.158 98.0072 217.321 97.9746 217.49 97.9746H221.289C221.458 97.9746 221.618 98.0072 221.768 98.0723C221.917 98.1374 222.048 98.2285 222.158 98.3457C222.275 98.4564 222.367 98.5866 222.432 98.7363C222.497 98.8861 222.529 99.0456 222.529 99.2148C222.529 99.3841 222.497 99.5469 222.432 99.7031C222.367 99.8529 222.275 99.9831 222.158 100.094C222.048 100.204 221.917 100.292 221.768 100.357C221.618 100.423 221.458 100.455 221.289 100.455H219.336C219.355 101.295 219.421 102.063 219.531 102.76C219.642 103.456 219.814 104.055 220.049 104.557C220.29 105.058 220.605 105.449 220.996 105.729C221.387 106.002 221.872 106.139 222.451 106.139C223.083 106.139 223.6 105.986 224.004 105.68C224.414 105.367 224.736 104.934 224.971 104.381C225.212 103.827 225.378 103.17 225.469 102.408C225.566 101.646 225.615 100.81 225.615 99.8984C225.615 98.7396 225.553 97.7533 225.43 96.9395C225.306 96.1191 225.114 95.4518 224.854 94.9375C224.6 94.4232 224.274 94.0488 223.877 93.8145C223.48 93.5736 223.005 93.4531 222.451 93.4531C221.826 93.4531 221.286 93.6354 220.83 94C220.374 94.3581 220.026 94.9147 219.785 95.6699C219.72 95.8652 219.619 96.0345 219.482 96.1777C219.352 96.321 219.199 96.4349 219.023 96.5195C218.848 96.5977 218.659 96.6432 218.457 96.6562C218.262 96.6628 218.066 96.6302 217.871 96.5586C217.676 96.487 217.507 96.3861 217.363 96.2559C217.227 96.1191 217.116 95.9661 217.031 95.7969C216.953 95.6211 216.908 95.4355 216.895 95.2402C216.882 95.0449 216.911 94.8496 216.982 94.6543ZM231.25 99.7324C231.178 99.5436 231.149 99.3516 231.162 99.1562C231.175 98.9609 231.221 98.7786 231.299 98.6094C231.377 98.4401 231.488 98.2904 231.631 98.1602C231.774 98.0299 231.94 97.929 232.129 97.8574C232.318 97.7923 232.51 97.7663 232.705 97.7793C232.9 97.7858 233.083 97.8314 233.252 97.916C233.421 97.9941 233.571 98.1048 233.701 98.248C233.838 98.3913 233.942 98.5573 234.014 98.7461L236.426 105.572C236.484 105.735 236.576 105.865 236.699 105.963C236.829 106.054 236.986 106.1 237.168 106.1C237.37 106.1 237.526 106.031 237.637 105.895C237.754 105.751 237.812 105.579 237.812 105.377V93.6191H236.924C236.742 93.6191 236.576 93.5866 236.426 93.5215C236.276 93.4564 236.146 93.3685 236.035 93.2578C235.931 93.1406 235.846 93.0072 235.781 92.8574C235.723 92.7012 235.693 92.5384 235.693 92.3691C235.693 92.1999 235.723 92.0404 235.781 91.8906C235.846 91.7344 235.931 91.5977 236.035 91.4805C236.146 91.3633 236.276 91.2721 236.426 91.207C236.576 91.1354 236.742 91.0996 236.924 91.0996H239.541C239.723 91.0996 239.889 91.1354 240.039 91.207C240.189 91.2721 240.316 91.3633 240.42 91.4805C240.531 91.5977 240.615 91.7344 240.674 91.8906C240.739 92.0404 240.771 92.1999 240.771 92.3691V105.172C240.771 105.745 240.68 106.249 240.498 106.686C240.316 107.115 240.062 107.477 239.736 107.77C239.411 108.062 239.023 108.284 238.574 108.434C238.125 108.583 237.63 108.658 237.09 108.658C236.667 108.658 236.266 108.6 235.889 108.482C235.518 108.365 235.179 108.202 234.873 107.994C234.567 107.786 234.297 107.535 234.062 107.242C233.835 106.943 233.656 106.614 233.525 106.256L231.25 99.7324Z" fill="#151F6D"/>
<path d="M87.8906 64.7344C87.8385 65.0339 87.7409 65.2975 87.5977 65.5254C87.4609 65.7533 87.2917 65.9453 87.0898 66.1016C86.888 66.2578 86.6602 66.375 86.4062 66.4531C86.1523 66.5312 85.8854 66.5703 85.6055 66.5703C85.3255 66.5703 85.0586 66.528 84.8047 66.4434C84.5573 66.3652 84.3327 66.248 84.1309 66.0918C83.9355 65.9355 83.7663 65.7435 83.623 65.5156C83.4863 65.2878 83.3919 65.0273 83.3398 64.7344L80.957 51.5703H80.1562C79.974 51.5703 79.8079 51.5378 79.6582 51.4727C79.5085 51.4076 79.3783 51.3197 79.2676 51.209C79.1634 51.0983 79.0788 50.9681 79.0137 50.8184C78.9551 50.6686 78.9258 50.5091 78.9258 50.3398C78.9258 50.1706 78.9551 50.0111 79.0137 49.8613C79.0788 49.7116 79.1634 49.5814 79.2676 49.4707C79.3783 49.3535 79.5085 49.2624 79.6582 49.1973C79.8079 49.1322 79.974 49.0996 80.1562 49.0996H82.5195C82.7018 49.0996 82.8613 49.1322 82.998 49.1973C83.1413 49.2624 83.265 49.3503 83.3691 49.4609C83.4733 49.5716 83.5579 49.7018 83.623 49.8516C83.6882 50.0013 83.737 50.1641 83.7695 50.3398L85.2148 59.2461L85.5957 62.5469L85.9766 59.2559L87.5 50.1348C87.5391 49.9329 87.6107 49.7507 87.7148 49.5879C87.8255 49.4186 87.959 49.2786 88.1152 49.168C88.2715 49.0573 88.444 48.9824 88.6328 48.9434C88.8281 48.8978 89.0267 48.8945 89.2285 48.9336C89.4303 48.9727 89.6126 49.0475 89.7754 49.1582C89.9447 49.2624 90.0846 49.3926 90.1953 49.5488C90.306 49.7051 90.3809 49.8809 90.4199 50.0762C90.4655 50.265 90.4688 50.4668 90.4297 50.6816L87.8906 64.7344ZM93.8965 52.6543C94.0983 52.0684 94.3717 51.5443 94.7168 51.082C95.0618 50.6198 95.4655 50.2292 95.9277 49.9102C96.3965 49.5911 96.9173 49.3503 97.4902 49.1875C98.0697 49.0182 98.6947 48.9336 99.3652 48.9336C100.446 48.9336 101.377 49.1224 102.158 49.5C102.946 49.8711 103.594 50.4115 104.102 51.1211C104.616 51.8242 104.993 52.6836 105.234 53.6992C105.482 54.7148 105.605 55.8607 105.605 57.1367C105.605 58.9661 105.459 60.4928 105.166 61.7168C104.88 62.9342 104.466 63.9108 103.926 64.6465C103.385 65.3757 102.728 65.8932 101.953 66.1992C101.185 66.5052 100.322 66.6582 99.3652 66.6582C98.7467 66.6582 98.1641 66.5931 97.6172 66.4629C97.0703 66.3327 96.5658 66.1211 96.1035 65.8281C95.6413 65.5286 95.2279 65.1413 94.8633 64.666C94.5052 64.1842 94.1992 63.5951 93.9453 62.8984C93.6914 62.1953 93.4961 61.375 93.3594 60.4375C93.2292 59.5 93.1641 58.4258 93.1641 57.2148C93.1641 57.0456 93.1966 56.8861 93.2617 56.7363C93.3268 56.5866 93.4147 56.4564 93.5254 56.3457C93.6361 56.2285 93.7663 56.1374 93.916 56.0723C94.0723 56.0072 94.235 55.9746 94.4043 55.9746H98.2031C98.3724 55.9746 98.5319 56.0072 98.6816 56.0723C98.8314 56.1374 98.9616 56.2285 99.0723 56.3457C99.1895 56.4564 99.2806 56.5866 99.3457 56.7363C99.4108 56.8861 99.4434 57.0456 99.4434 57.2148C99.4434 57.3841 99.4108 57.5469 99.3457 57.7031C99.2806 57.8529 99.1895 57.9831 99.0723 58.0938C98.9616 58.2044 98.8314 58.2923 98.6816 58.3574C98.5319 58.4225 98.3724 58.4551 98.2031 58.4551H96.25C96.2695 59.2949 96.3346 60.0632 96.4453 60.7598C96.556 61.4564 96.7285 62.0553 96.9629 62.5566C97.2038 63.0579 97.5195 63.4486 97.9102 63.7285C98.3008 64.002 98.7858 64.1387 99.3652 64.1387C99.9967 64.1387 100.514 63.9857 100.918 63.6797C101.328 63.3672 101.65 62.9342 101.885 62.3809C102.126 61.8275 102.292 61.1699 102.383 60.4082C102.48 59.6465 102.529 58.8099 102.529 57.8984C102.529 56.7396 102.467 55.7533 102.344 54.9395C102.22 54.1191 102.028 53.4518 101.768 52.9375C101.514 52.4232 101.188 52.0488 100.791 51.8145C100.394 51.5736 99.9186 51.4531 99.3652 51.4531C98.7402 51.4531 98.1999 51.6354 97.7441 52C97.2884 52.3581 96.9401 52.9147 96.6992 53.6699C96.6341 53.8652 96.5332 54.0345 96.3965 54.1777C96.2663 54.321 96.1133 54.4349 95.9375 54.5195C95.7617 54.5977 95.5729 54.6432 95.3711 54.6562C95.1758 54.6628 94.9805 54.6302 94.7852 54.5586C94.5898 54.487 94.4206 54.3861 94.2773 54.2559C94.1406 54.1191 94.0299 53.9661 93.9453 53.7969C93.8672 53.6211 93.8216 53.4355 93.8086 53.2402C93.7956 53.0449 93.8249 52.8496 93.8965 52.6543ZM120.098 57.127C119.922 57.127 119.756 57.0944 119.6 57.0293C119.45 56.9577 119.316 56.8633 119.199 56.7461C119.089 56.6289 119.001 56.4922 118.936 56.3359C118.87 56.1797 118.838 56.0137 118.838 55.8379C118.838 55.6621 118.87 55.4961 118.936 55.3398C119.001 55.1836 119.089 55.0469 119.199 54.9297C119.316 54.8125 119.45 54.7214 119.6 54.6562C119.756 54.5846 119.922 54.5488 120.098 54.5488C120.553 54.5488 120.97 54.5065 121.348 54.4219C121.732 54.3307 122.064 54.1745 122.344 53.9531C122.624 53.7318 122.842 53.4323 122.998 53.0547C123.154 52.6706 123.232 52.1823 123.232 51.5898C123.232 51.1927 123.187 50.8281 123.096 50.4961C123.011 50.1641 122.868 49.8776 122.666 49.6367C122.471 49.3893 122.207 49.1973 121.875 49.0605C121.549 48.9238 121.149 48.8555 120.674 48.8555C120.231 48.8555 119.857 48.9173 119.551 49.041C119.251 49.1582 119.001 49.3242 118.799 49.5391C118.604 49.7539 118.454 50.0078 118.35 50.3008C118.245 50.5938 118.171 50.9128 118.125 51.2578C118.099 51.4661 118.034 51.6549 117.93 51.8242C117.832 51.9935 117.705 52.1367 117.549 52.2539C117.399 52.3711 117.23 52.4557 117.041 52.5078C116.852 52.5599 116.657 52.5729 116.455 52.5469C116.253 52.5208 116.068 52.4557 115.898 52.3516C115.736 52.2474 115.599 52.1204 115.488 51.9707C115.378 51.8145 115.293 51.6419 115.234 51.4531C115.182 51.2578 115.169 51.056 115.195 50.8477C115.273 50.1576 115.446 49.5228 115.713 48.9434C115.98 48.3574 116.341 47.8561 116.797 47.4395C117.253 47.0228 117.806 46.6973 118.457 46.4629C119.108 46.2285 119.86 46.1113 120.713 46.1113C121.559 46.1113 122.324 46.235 123.008 46.4824C123.698 46.7233 124.284 47.0684 124.766 47.5176C125.247 47.9668 125.618 48.5137 125.879 49.1582C126.139 49.7962 126.27 50.5124 126.27 51.3066C126.27 51.7884 126.24 52.2376 126.182 52.6543C126.13 53.071 126.029 53.4583 125.879 53.8164C125.729 54.168 125.521 54.4935 125.254 54.793C124.987 55.0924 124.645 55.3594 124.229 55.5938C124.697 55.7891 125.098 56.043 125.43 56.3555C125.762 56.6615 126.029 57.013 126.23 57.4102C126.439 57.8008 126.589 58.2272 126.68 58.6895C126.777 59.1517 126.826 59.6302 126.826 60.125C126.826 61.082 126.709 61.9609 126.475 62.7617C126.24 63.556 125.872 64.2396 125.371 64.8125C124.876 65.3854 124.235 65.8314 123.447 66.1504C122.666 66.4694 121.725 66.6289 120.625 66.6289C119.648 66.6289 118.809 66.4987 118.105 66.2383C117.402 65.9714 116.816 65.6035 116.348 65.1348C115.879 64.666 115.521 64.1094 115.273 63.4648C115.033 62.8138 114.886 62.1042 114.834 61.3359C114.821 61.1341 114.844 60.9388 114.902 60.75C114.967 60.5547 115.059 60.3854 115.176 60.2422C115.299 60.0924 115.446 59.9688 115.615 59.8711C115.791 59.7734 115.98 59.7148 116.182 59.6953C116.383 59.6758 116.579 59.6953 116.768 59.7539C116.956 59.806 117.126 59.8906 117.275 60.0078C117.432 60.125 117.559 60.2715 117.656 60.4473C117.754 60.623 117.812 60.8216 117.832 61.043C117.871 61.4466 117.949 61.821 118.066 62.166C118.19 62.5046 118.369 62.8008 118.604 63.0547C118.838 63.3021 119.134 63.4974 119.492 63.6406C119.85 63.7773 120.283 63.8457 120.791 63.8457C121.312 63.8457 121.761 63.7708 122.139 63.6211C122.516 63.4714 122.826 63.263 123.066 62.9961C123.314 62.7292 123.496 62.4134 123.613 62.0488C123.73 61.6842 123.789 61.2871 123.789 60.8574C123.789 60.1868 123.721 59.6172 123.584 59.1484C123.447 58.6732 123.232 58.2858 122.939 57.9863C122.646 57.6868 122.266 57.4688 121.797 57.332C121.328 57.1953 120.762 57.127 120.098 57.127ZM142.529 58.6699C142.021 58.6829 141.572 58.7741 141.182 58.9434C140.791 59.1126 140.465 59.347 140.205 59.6465C139.945 59.946 139.746 60.304 139.609 60.7207C139.479 61.1309 139.414 61.5898 139.414 62.0977V65.0957C139.414 65.3301 139.375 65.5384 139.297 65.7207C139.219 65.903 139.111 66.0592 138.975 66.1895C138.844 66.3132 138.688 66.4076 138.506 66.4727C138.324 66.5378 138.132 66.5703 137.93 66.5703C137.721 66.5703 137.526 66.5345 137.344 66.4629C137.168 66.3978 137.015 66.3034 136.885 66.1797C136.755 66.0495 136.65 65.8932 136.572 65.7109C136.494 65.5286 136.455 65.3236 136.455 65.0957V53.6992C136.455 52.931 136.605 52.2474 136.904 51.6484C137.21 51.0495 137.63 50.5482 138.164 50.1445C138.704 49.7344 139.342 49.4251 140.078 49.2168C140.814 49.002 141.618 48.8945 142.49 48.8945C143.35 48.8945 144.147 49.002 144.883 49.2168C145.618 49.4251 146.257 49.7344 146.797 50.1445C147.344 50.5482 147.77 51.0495 148.076 51.6484C148.382 52.2474 148.535 52.931 148.535 53.6992V65.0957C148.535 65.3301 148.496 65.5384 148.418 65.7207C148.34 65.903 148.232 66.0592 148.096 66.1895C147.965 66.3132 147.809 66.4076 147.627 66.4727C147.445 66.5378 147.253 66.5703 147.051 66.5703C146.842 66.5703 146.647 66.5345 146.465 66.4629C146.289 66.3978 146.136 66.3034 146.006 66.1797C145.876 66.0495 145.771 65.8932 145.693 65.7109C145.615 65.5286 145.576 65.3236 145.576 65.0957V54.2949C145.576 53.8652 145.521 53.4746 145.41 53.123C145.306 52.765 145.13 52.4622 144.883 52.2148C144.642 51.9609 144.326 51.7656 143.936 51.6289C143.545 51.4857 143.063 51.4141 142.49 51.4141C141.911 51.4141 141.423 51.4824 141.025 51.6191C140.635 51.7559 140.319 51.9479 140.078 52.1953C139.844 52.4427 139.674 52.7454 139.57 53.1035C139.466 53.4616 139.414 53.8587 139.414 54.2949V57.7324C139.805 57.2311 140.241 56.8307 140.723 56.5312C141.204 56.2318 141.742 56.056 142.334 56.0039C142.516 55.9909 142.692 56.0137 142.861 56.0723C143.031 56.1309 143.18 56.2155 143.311 56.3262C143.441 56.4368 143.545 56.5736 143.623 56.7363C143.708 56.8926 143.757 57.0618 143.77 57.2441C143.783 57.4329 143.76 57.612 143.701 57.7812C143.643 57.9505 143.558 58.1003 143.447 58.2305C143.337 58.3607 143.2 58.4648 143.037 58.543C142.881 58.6211 142.712 58.6634 142.529 58.6699ZM145.889 44.0508C145.889 44.194 145.918 44.3307 145.977 44.4609C146.029 44.5846 146.104 44.6953 146.201 44.793C146.292 44.8841 146.403 44.959 146.533 45.0176C146.657 45.0697 146.787 45.0957 146.924 45.0957C147.074 45.0957 147.217 45.0697 147.354 45.0176C147.484 44.959 147.598 44.8841 147.695 44.793C147.793 44.6953 147.871 44.5846 147.93 44.4609C147.982 44.3307 148.008 44.194 148.008 44.0508C148.008 43.901 147.982 43.7611 147.93 43.6309C147.871 43.5007 147.793 43.3867 147.695 43.2891C147.598 43.1914 147.484 43.1165 147.354 43.0645C147.217 43.0059 147.074 42.9766 146.924 42.9766C146.787 42.9766 146.657 43.0059 146.533 43.0645C146.403 43.1165 146.292 43.1914 146.201 43.2891C146.104 43.3867 146.029 43.5007 145.977 43.6309C145.918 43.7611 145.889 43.901 145.889 44.0508ZM144.053 44.0508C144.053 43.6406 144.128 43.2598 144.277 42.9082C144.427 42.5501 144.632 42.2409 144.893 41.9805C145.153 41.7135 145.459 41.5052 145.811 41.3555C146.156 41.2057 146.527 41.1309 146.924 41.1309C147.334 41.1309 147.718 41.2057 148.076 41.3555C148.428 41.5052 148.737 41.7135 149.004 41.9805C149.264 42.2409 149.469 42.5501 149.619 42.9082C149.769 43.2598 149.844 43.6406 149.844 44.0508C149.844 44.4544 149.769 44.832 149.619 45.1836C149.469 45.5286 149.264 45.8314 149.004 46.0918C148.737 46.3522 148.428 46.5573 148.076 46.707C147.718 46.8568 147.334 46.9316 146.924 46.9316C146.527 46.9316 146.156 46.8568 145.811 46.707C145.459 46.5573 145.153 46.3522 144.893 46.0918C144.632 45.8314 144.427 45.5286 144.277 45.1836C144.128 44.832 144.053 44.4544 144.053 44.0508ZM160.615 65.0957C160.615 65.3301 160.576 65.5384 160.498 65.7207C160.42 65.903 160.312 66.0592 160.176 66.1895C160.046 66.3132 159.889 66.4076 159.707 66.4727C159.525 66.5378 159.333 66.5703 159.131 66.5703C158.923 66.5703 158.727 66.5345 158.545 66.4629C158.369 66.3978 158.216 66.3034 158.086 66.1797C157.956 66.0495 157.852 65.8932 157.773 65.7109C157.695 65.5286 157.656 65.3236 157.656 65.0957V54.0117C157.656 53.5951 157.601 53.224 157.49 52.8984C157.386 52.5664 157.236 52.2897 157.041 52.0684C156.846 51.8405 156.608 51.668 156.328 51.5508C156.055 51.4336 155.749 51.375 155.41 51.375C155.156 51.375 154.912 51.4141 154.678 51.4922C154.443 51.5703 154.229 51.6875 154.033 51.8438C153.838 51.9935 153.669 52.179 153.525 52.4004C153.382 52.6217 153.271 52.8757 153.193 53.1621C153.141 53.3574 153.05 53.5267 152.92 53.6699C152.79 53.8066 152.64 53.9173 152.471 54.002C152.301 54.0801 152.116 54.1257 151.914 54.1387C151.719 54.1517 151.527 54.1224 151.338 54.0508C151.149 53.9857 150.983 53.888 150.84 53.7578C150.703 53.6276 150.596 53.4811 150.518 53.3184C150.439 53.1491 150.391 52.9701 150.371 52.7812C150.358 52.5859 150.381 52.3939 150.439 52.2051C150.596 51.6647 150.843 51.1895 151.182 50.7793C151.52 50.3626 151.914 50.0176 152.363 49.7441C152.812 49.4642 153.298 49.2526 153.818 49.1094C154.346 48.9661 154.876 48.8945 155.41 48.8945C156.042 48.8945 156.667 48.9922 157.285 49.1875C157.904 49.3828 158.46 49.6758 158.955 50.0664C159.45 50.4505 159.85 50.9323 160.156 51.5117C160.462 52.0911 160.615 52.765 160.615 53.5332V65.0957Z" fill="#E4002B"/>
</svg>
