<svg width="112" height="18" viewBox="0 0 112 18" fill="none" xmlns="http://www.w3.org/2000/svg">
<path d="M105.397 0.0409563C105.525 -0.00547926 105.732 0.131826 105.89 0.120616C106.548 0.0753579 106.804 0.156311 107.404 0.144945C108.293 0.128262 110.869 -0.41146 111.01 0.706054C111.01 0.706082 111.01 0.70611 111.01 0.706138C111.011 0.717095 111.013 0.728212 111.014 0.73949C111.031 0.95354 110.839 1.21388 110.837 1.4588C110.834 1.70381 111.055 3.2557 110.752 3.38278C110.31 3.55548 109.166 3.29472 108.925 3.34306C108.761 3.3762 108.574 3.54338 108.364 3.59529C107.689 3.76263 107.317 3.70449 106.748 4.16637C106.476 3.99517 106.203 3.82397 105.931 3.65276C105.62 3.78723 105.098 3.58196 104.904 3.62135C104.745 3.6537 104.671 3.82559 104.505 3.85415C104.318 3.88708 104.008 3.75072 103.67 3.81981C103.115 3.93228 103.068 4.36229 102.739 4.45767C102.397 4.55647 101.827 4.39792 101.401 4.60087C101.351 4.65383 101.301 4.70678 101.251 4.75973C101.304 4.85855 101.357 4.95737 101.41 5.05618C101.193 5.13276 101.069 4.93207 100.863 4.95416C100.621 4.98005 100.522 5.1974 100.36 5.21701C100.226 5.2329 100.025 5.09392 99.8529 5.12588C99.6024 5.17165 99.687 5.3983 99.5568 5.45913C99.5048 5.48294 98.5198 5.73815 98.4635 5.74713C98.0351 5.81053 97.9573 5.49549 97.6112 5.51074C96.6514 5.55432 95.7087 5.93571 94.8421 6.14421C94.4552 6.2374 94.0433 6.27046 93.6456 6.26867C94.1587 5.37258 92.7144 4.90772 93.386 6.12393C92.9277 5.99667 92.6626 6.38129 92.2424 6.3749C91.9707 6.37044 91.7635 6.21618 91.3829 6.26891C90.7078 6.3636 90.0315 6.96163 89.722 6.07391C88.9483 6.33487 88.2189 6.0907 88.0343 6.93211C87.8357 7.00713 87.2505 6.59363 87.0127 6.55743C86.7878 6.52344 85.0941 6.51702 84.82 6.53931C84.5459 6.5616 84.067 6.60864 83.8463 6.70826C83.5689 6.83206 83.4727 7.69265 82.836 6.78093C82.2489 6.93526 82.0326 6.93415 81.463 6.89074C81.3598 6.88291 81.3302 6.73937 81.2714 6.74664C81.1504 6.76191 80.9581 6.89501 80.7438 6.93531C80.3913 7.0015 80.1501 6.72202 80.2485 7.18295C80.0242 7.2906 79.7999 7.39825 79.5755 7.5059C79.482 7.42634 79.3886 7.34678 79.2951 7.26721C79.1822 7.381 79.0694 7.49479 78.9566 7.60858C79.0186 6.91581 78.1876 7.42482 78.5225 7.7756C78.051 7.69337 77.5795 7.61114 77.108 7.52891C77.0747 6.75465 76.1002 7.56619 76.242 7.97157C76.19 7.97752 76.1379 7.98346 76.0859 7.98941C75.6055 7.84309 75.209 8.06234 74.6375 7.99554C74.066 7.92874 74.1086 7.84756 73.8956 7.51636C73.7677 7.553 73.6399 7.58963 73.512 7.62626C72.9496 8.67883 72.8595 6.99064 71.7812 7.87964C71.3301 7.31958 70.4475 7.75497 69.8588 8.01629C69.7902 8.04666 69.8039 8.16469 69.7136 8.213C69.4928 8.32965 68.8821 8.25274 68.9503 8.63041C68.7316 8.54623 68.5129 8.46205 68.2942 8.37787C68.1356 8.46812 67.9769 8.55837 67.8182 8.64861C67.834 8.7672 67.8499 8.88578 67.8657 9.00436C67.4776 8.64236 66.9675 8.86462 66.694 8.80086C66.6396 8.78781 66.6077 8.6255 66.4404 8.60123C66.2448 8.57204 65.899 8.66489 65.6674 8.64213C65.6028 8.83453 65.5382 9.02693 65.4735 9.21933C65.0834 9.36847 64.8815 8.90761 64.6405 8.90023C64.5971 8.89913 63.825 9.03145 63.7844 9.04695C63.4522 9.17116 63.6006 9.56675 62.5991 9.60433C62.4207 9.61077 62.2602 9.48765 62.1001 9.50208C61.8172 9.52737 61.0089 9.95446 60.9794 10.2586C60.5911 9.93156 59.6962 10.1981 59.4136 10.1251C59.3282 10.1025 59.2801 9.86906 59.024 9.85038C58.8164 9.83499 58.3188 10.0895 58.058 10.0903C57.7811 10.0903 57.6588 9.90453 57.5349 9.90593C57.4179 9.90746 57.3317 10.0808 57.1743 10.0997C56.6828 10.156 56.2059 9.95471 55.8173 9.9989C55.2554 10.0622 54.8195 10.5981 54.3766 10.8675C54.2562 10.8515 54.1289 10.7643 54.0066 10.7788C52.4936 10.9545 50.778 11.0823 49.2495 11.1721C48.54 11.2143 46.7093 10.7924 47.3115 11.8056C47.0907 12.0242 45.2582 11.8162 44.9192 11.8524C44.5803 11.8886 44.3365 12.1146 44.0712 12.151C43.2703 12.2605 42.6881 12.1932 41.733 12.4837C41.4864 12.5593 41.245 12.8211 41.0954 12.8373C40.9151 12.8562 40.6937 12.6604 40.459 12.6758C39.8997 12.7142 38.8739 12.9172 38.3362 12.9463C38.238 12.9511 38.1795 12.762 38.0327 12.7191C37.4611 12.5512 36.8564 12.6483 37.0417 13.2523C36.3031 12.9893 35.701 13.3901 35.0599 13.4908C33.7042 13.7024 31.2074 13.8709 30.0547 14.2799C29.3279 14.5379 29.3819 14.8124 28.2513 14.7122C28.0003 14.69 27.7481 14.6492 27.4438 14.6234C26.7306 14.5622 26.0289 14.1309 25.5773 14.8142C24.7858 14.7516 24.1858 14.9424 23.547 14.4874C23.4955 14.6223 23.444 14.7573 23.3925 14.8923C23.2983 14.9073 23.2041 14.9224 23.1099 14.9374C23.0652 14.8206 23.0205 14.7037 22.9758 14.5868C22.2943 14.6398 21.4973 15.2439 20.9234 15.3126C19.9612 15.4283 17.4606 15.548 16.5284 15.5002C16.0335 15.4749 16.04 15.7365 15.6959 15.2404C15.5923 15.291 15.4887 15.3416 15.3851 15.3922C15.332 15.517 15.279 15.6418 15.2259 15.7666C14.6055 15.8496 13.8462 15.7619 13.2549 15.8384C12.1774 15.9781 10.599 16.5022 9.49004 16.4286C9.21193 16.4098 8.84241 16.2128 8.57696 16.2491C8.19058 16.3016 8.14674 16.7113 7.65677 16.7807C6.81221 16.8995 5.17823 16.636 4.38298 16.7722C4.14675 16.8124 4.0546 16.9744 3.89259 17.0109C3.21342 17.1655 2.64728 17.2247 2.01669 17.5366C1.26052 17.2447 1.25962 16.7448 0.977542 16.2758C0.763966 15.922 0.144471 15.1177 0.0306792 14.7985C-0.0492575 14.5743 0.103176 14.2537 -9.71492e-05 14.0088C0.822668 13.6991 1.20722 13.8773 1.94111 14.1476C3.21145 13.9729 4.48179 13.7982 5.75212 13.6235C5.88534 13.7475 6.01855 13.8715 6.15177 13.9954C6.15181 13.9957 6.15185 13.9961 6.15188 13.9964C6.6606 14.0947 6.82264 13.7117 7.0759 13.5974C9.50049 12.5037 14.5417 12.4846 17.3297 12.2217C17.9304 12.1649 19.8534 11.7326 20.2924 11.9059C20.4061 11.9511 20.4626 12.161 20.5769 12.1561C21.5713 11.9016 22.5657 11.647 23.5602 11.3925C25.6799 11.4625 27.7935 10.9173 29.8807 10.6021C35.5279 9.74909 41.1147 8.87334 46.693 8.22173C47.7711 8.09614 49.1175 7.7637 50.1847 7.73397C50.6301 7.72128 50.8567 8.04129 51.4024 7.71265C51.4201 7.80433 51.4378 7.89602 51.4556 7.9877C51.9459 7.81248 52.2417 7.56146 52.8045 7.46875C53.2785 7.39102 54.5367 7.21838 54.962 7.20064C55.1825 7.19078 55.1229 7.37378 55.3263 7.34724C55.6744 7.30051 56.3886 6.9678 56.8693 6.90717C57.3048 6.85224 58.064 6.95864 58.3952 6.88757C59.5881 6.6332 60.8643 6.17257 62.1592 6.08956C62.517 6.06715 63.0018 6.23356 63.1122 6.21329C63.3276 6.17289 63.3649 5.94715 63.5072 5.90078C64.2302 5.66599 65.4177 5.77889 66.1452 5.69756C68.5157 5.43258 71.0106 5.02144 73.3717 4.76426C74.8634 4.60162 77.3323 4.25134 78.7272 4.24167C79.028 4.23963 78.9791 4.48796 79.2279 4.45658C79.5038 4.42173 79.633 4.24185 79.7603 4.21257C80.6413 4.00886 82.591 3.59758 83.4544 3.6559C83.6189 3.66726 83.7589 3.83935 83.8549 3.82655C83.9036 3.82041 83.9974 3.67909 84.1485 3.6468C85.4822 3.36143 86.4746 3.31177 87.8013 3.18885C90.342 2.95248 93.2439 2.34558 95.9182 2.13865C96.5009 2.0935 96.9446 2.41284 97.0256 2.39885C97.2033 2.36886 97.2864 2.10595 97.6406 1.99892C98.8186 1.64539 100.473 1.70612 101.602 1.43719C102.159 1.30449 102.897 0.891049 103.444 0.751063C103.882 0.639211 104.947 0.630546 105.127 0.467213C105.236 0.368427 105.258 0.0927021 105.397 0.0409563ZM90.9507 6.11273C90.9757 5.67308 90.1886 6.13511 90.5298 6.32637C90.6067 6.36943 90.9443 6.22684 90.9507 6.11273ZM51.8894 10.2815C51.9125 10.4032 51.9356 10.525 51.9587 10.6468C52.0615 10.5819 52.1643 10.5171 52.2671 10.4522C52.1964 10.3862 52.1257 10.3201 52.055 10.2541C51.9998 10.2632 51.9446 10.2723 51.8894 10.2815Z" fill="#151F6D"/>
</svg>
