<svg width="358" height="206" viewBox="0 0 358 206" fill="none" xmlns="http://www.w3.org/2000/svg">
<path d="M174.004 52.4858C173.974 52.3525 174.136 52.1643 174.144 52.007C174.182 51.348 174.294 51.1039 174.358 50.5077C174.453 49.6237 174.24 47.0001 175.366 47C175.366 47 175.366 47 175.366 47C175.377 47 175.388 47.0002 175.4 47.0008C175.614 47.01 175.848 47.2331 176.091 47.2662C176.334 47.2993 177.901 47.2745 177.989 47.5914C178.105 48.051 177.704 49.1534 177.721 49.3984C177.734 49.566 177.876 49.7723 177.901 49.9866C177.983 50.6774 177.879 51.0389 178.266 51.6613C178.062 51.9102 177.858 52.1592 177.654 52.4081C177.748 52.733 177.479 53.2253 177.494 53.4226C177.506 53.5845 177.668 53.6794 177.675 53.8481C177.685 54.0374 177.51 54.328 177.537 54.6722C177.579 55.2366 178 55.337 178.053 55.6756C178.108 56.0268 177.88 56.5728 178.028 57.0209C178.074 57.077 178.12 57.1332 178.167 57.1894C178.271 57.1492 178.376 57.1089 178.481 57.0687C178.529 57.2943 178.315 57.3914 178.311 57.5987C178.306 57.8427 178.51 57.9672 178.509 58.1314C178.508 58.2658 178.345 58.4482 178.355 58.6226C178.369 58.8768 178.604 58.8212 178.648 58.958C178.666 59.0126 178.796 60.0219 178.797 60.0788C178.807 60.5118 178.484 60.5495 178.456 60.8948C178.379 61.8525 178.64 62.8356 178.738 63.7214C178.782 64.117 178.764 64.5297 178.712 64.9241C177.887 64.3029 177.245 65.6777 178.536 65.1635C178.352 65.6023 178.701 65.9135 178.642 66.3295C178.603 66.5986 178.424 66.7848 178.429 67.169C178.439 67.8507 178.947 68.5964 178.028 68.7925C178.19 69.5928 177.856 70.2859 178.668 70.5743C178.718 70.7807 178.234 71.3096 178.168 71.541C178.107 71.7599 177.888 73.4394 177.876 73.7142C177.864 73.989 177.851 74.4699 177.922 74.7014C178.01 74.9921 178.852 75.1952 177.868 75.7128C177.947 76.3147 177.919 76.5291 177.805 77.0888C177.784 77.1902 177.638 77.2016 177.638 77.2608C177.638 77.3828 177.746 77.5902 177.759 77.8079C177.78 78.1659 177.473 78.3702 177.943 78.3303C178.021 78.5663 178.1 78.8023 178.179 79.0384C178.088 79.1212 177.998 79.2039 177.907 79.2868C178.006 79.4129 178.104 79.5391 178.203 79.6653C177.524 79.5171 177.925 80.4052 178.315 80.1169C178.174 80.5744 178.033 81.0319 177.893 81.4894C177.121 81.4255 177.804 82.494 178.224 82.404C178.223 82.4564 178.222 82.5087 178.222 82.5611C178.017 83.0194 178.184 83.4403 178.047 83.9989C177.909 84.5575 177.834 84.5051 177.478 84.6749C177.499 84.8064 177.519 84.9378 177.539 85.0693C178.513 85.759 176.827 85.6371 177.574 86.8183C176.962 87.1956 177.284 88.1259 177.469 88.7426C177.491 88.8144 177.61 88.8156 177.646 88.9112C177.734 89.1449 177.582 89.7412 177.965 89.7208C177.854 89.9273 177.743 90.1337 177.632 90.3401C177.702 90.5088 177.772 90.6776 177.841 90.8463C177.961 90.8454 178.081 90.8446 178.2 90.8437C177.792 91.1835 177.949 91.7173 177.852 91.9807C177.832 92.0331 177.667 92.0444 177.622 92.2073C177.568 92.3977 177.617 92.7525 177.566 92.9794C177.749 93.0676 177.931 93.1557 178.114 93.244C178.213 93.6497 177.731 93.7923 177.693 94.0305C177.687 94.0734 177.721 94.856 177.732 94.8982C177.813 95.2434 178.224 95.1456 178.136 96.144C178.12 96.3218 177.978 96.4656 177.973 96.6263C177.962 96.9101 178.285 97.7655 178.583 97.8328C178.21 98.1771 178.362 99.0983 178.254 99.3696C178.221 99.4515 177.984 99.47 177.933 99.7217C177.892 99.9258 178.082 100.451 178.05 100.71C178.016 100.985 177.816 101.083 177.802 101.206C177.789 101.322 177.95 101.43 177.949 101.588C177.943 102.083 177.684 102.531 177.679 102.922C177.672 103.487 178.149 103.987 178.361 104.46C178.33 104.577 178.227 104.693 178.226 104.816C178.211 106.339 178.124 108.057 178.021 109.585C177.974 110.294 177.327 112.058 178.407 111.587C178.597 111.833 178.161 113.625 178.154 113.966C178.148 114.307 178.342 114.577 178.345 114.845C178.353 115.653 178.213 116.222 178.382 117.206C178.426 117.46 178.656 117.733 178.653 117.883C178.649 118.064 178.427 118.26 178.413 118.494C178.381 119.054 178.454 120.097 178.416 120.634C178.408 120.732 178.213 120.767 178.153 120.907C177.914 121.453 177.935 122.065 178.558 121.957C178.204 122.657 178.527 123.304 178.546 123.953C178.587 125.325 178.441 127.823 178.703 129.018C178.868 129.771 179.147 129.752 178.906 130.861C178.853 131.107 178.781 131.352 178.717 131.651C178.567 132.351 178.051 132.993 178.673 133.527C178.511 134.304 178.626 134.923 178.094 135.5C178.222 135.568 178.349 135.636 178.477 135.704C178.48 135.799 178.483 135.895 178.486 135.99C178.365 136.02 178.243 136.05 178.121 136.079C178.089 136.762 178.588 137.628 178.585 138.206C178.579 139.175 178.385 141.671 178.221 142.59C178.134 143.078 178.394 143.104 177.859 143.384C177.896 143.493 177.933 143.602 177.971 143.711C178.088 143.779 178.205 143.848 178.322 143.916C178.327 144.542 178.145 145.284 178.147 145.88C178.151 146.967 178.473 148.598 178.261 149.69C178.208 149.963 177.966 150.305 177.969 150.573C177.973 150.963 178.374 151.058 178.381 151.552C178.393 152.405 177.927 153.993 177.963 154.799C177.973 155.039 178.123 155.151 178.139 155.316C178.207 156.009 178.195 156.578 178.425 157.243C178.041 157.956 177.545 157.895 177.044 158.116C176.667 158.284 175.791 158.798 175.46 158.871C175.228 158.922 174.929 158.73 174.673 158.802C174.469 157.947 174.694 157.588 175.054 156.894C175.039 155.611 175.025 154.329 175.01 153.047C175.15 152.93 175.29 152.814 175.429 152.697C175.43 152.697 175.43 152.697 175.43 152.697C175.592 152.205 175.232 151.996 175.15 151.73C174.368 149.188 174.98 144.184 175.068 141.385C175.087 140.782 174.899 138.82 175.126 138.406C175.185 138.299 175.4 138.269 175.41 138.155C175.282 137.137 175.153 136.118 175.025 135.1C175.36 133.005 175.084 130.84 175.032 128.73C174.892 123.021 174.723 117.368 174.774 111.752C174.785 110.667 174.623 109.289 174.727 108.227C174.77 107.783 175.116 107.599 174.858 107.016C174.952 107.01 175.045 107.004 175.138 106.998C175.026 106.489 174.814 106.164 174.792 105.594C174.774 105.114 174.76 103.844 174.796 103.42C174.814 103.2 174.988 103.282 174.987 103.077C174.984 102.726 174.743 101.976 174.743 101.491C174.743 101.052 174.944 100.312 174.915 99.9748C174.812 98.7595 174.515 97.4357 174.594 96.1406C174.617 95.7828 174.843 95.3226 174.836 95.2106C174.823 94.9918 174.604 94.9265 174.576 94.7795C174.433 94.0328 174.694 92.8688 174.704 92.1369C174.738 89.7518 174.642 87.2251 174.682 84.8503C174.708 83.35 174.669 80.8567 174.834 79.4716C174.87 79.1729 175.11 79.2524 175.11 79.0017C175.11 78.7236 174.948 78.5729 174.934 78.443C174.843 77.5434 174.679 75.5575 174.844 74.7082C174.876 74.5464 175.065 74.4291 175.064 74.3322C175.064 74.2832 174.935 74.1724 174.922 74.0185C174.806 72.6595 174.881 71.6687 174.925 70.337C175.008 67.7867 174.769 64.8317 174.899 62.1525C174.927 61.5688 175.299 61.1685 175.296 61.0864C175.288 60.9063 175.038 60.791 174.976 60.4262C174.772 59.2132 175.04 57.5796 174.914 56.4259C174.852 55.8559 174.534 55.0727 174.464 54.5118C174.408 54.0638 174.532 53.0057 174.393 52.8072C174.308 52.6864 174.038 52.6305 174.004 52.4858ZM178.22 67.5783C177.787 67.4985 178.147 68.3372 178.379 68.0226C178.432 67.9517 178.332 67.5989 178.22 67.5783ZM177.468 106.854C177.592 106.847 177.715 106.839 177.839 106.831C177.788 106.721 177.736 106.611 177.685 106.501C177.61 106.563 177.536 106.625 177.462 106.686C177.464 106.742 177.466 106.798 177.468 106.854Z" fill="#E4002B"/>
<path d="M280.572 90.8595C280.593 90.7622 280.801 90.7272 280.864 90.6344C281.131 90.2466 281.316 90.1521 281.583 89.8162C281.98 89.3181 282.73 87.5929 283.706 88.156C283.706 88.156 283.706 88.156 283.706 88.156C283.715 88.1615 283.725 88.1673 283.734 88.1733C283.917 88.2862 284.04 88.541 284.239 88.6828C284.437 88.8246 285.803 89.593 285.767 89.8326C285.704 90.1742 284.963 90.6534 284.891 90.8135C284.842 90.923 284.892 91.1215 284.837 91.2664C284.662 91.7333 284.443 91.9043 284.557 92.4818C284.291 92.5334 284.026 92.5851 283.761 92.6367C283.727 92.8844 283.318 93.0536 283.261 93.1828C283.214 93.2887 283.32 93.4279 283.266 93.5358C283.207 93.6572 282.952 93.7495 282.853 93.975C282.688 94.3443 283.017 94.6166 282.942 94.8522C282.865 95.0965 282.473 95.3191 282.441 95.6695C282.461 95.7273 282.481 95.7851 282.501 95.843C282.606 95.8705 282.711 95.898 282.816 95.9255C282.778 96.089 282.558 96.0417 282.481 96.1677C282.39 96.3158 282.521 96.4943 282.462 96.5952C282.413 96.6777 282.207 96.7086 282.154 96.8213C282.076 96.9852 282.299 97.0686 282.289 97.1751C282.284 97.2173 282.037 97.905 282.018 97.941C281.872 98.2128 281.58 98.075 281.432 98.2739C281.025 98.8263 280.9 99.5631 280.67 100.159C280.567 100.425 280.404 100.67 280.219 100.888C279.725 100.092 278.68 100.619 279.981 100.947C279.665 101.126 279.856 101.493 279.657 101.72C279.528 101.867 279.307 101.892 279.174 102.131C278.939 102.557 279.114 103.271 278.248 102.932C278.103 103.507 277.568 103.768 278.168 104.352C278.137 104.504 277.53 104.589 277.391 104.698C277.259 104.803 276.472 105.73 276.363 105.893C276.255 106.057 276.072 106.347 276.051 106.525C276.024 106.748 276.681 107.295 275.644 107.122C275.499 107.533 275.398 107.651 275.1 107.939C275.046 107.992 274.915 107.926 274.894 107.962C274.85 108.037 274.87 108.219 274.804 108.36C274.695 108.592 274.356 108.564 274.777 108.774C274.761 108.959 274.745 109.144 274.729 109.329C274.621 109.335 274.513 109.341 274.405 109.347C274.446 109.474 274.486 109.601 274.527 109.728C273.991 109.297 274.022 110.046 274.463 110.063C274.178 110.275 273.893 110.487 273.608 110.699C272.962 110.273 273.173 111.274 273.569 111.428C273.55 111.46 273.531 111.492 273.512 111.524C273.171 111.704 273.166 112.048 272.848 112.324C272.529 112.6 272.483 112.53 272.115 112.457C272.086 112.548 272.056 112.639 272.027 112.731C272.625 113.643 271.208 112.725 271.434 113.827C270.77 113.754 270.717 114.489 270.658 114.962C270.651 115.017 270.753 115.077 270.751 115.154C270.744 115.343 270.399 115.634 270.739 115.813C270.569 115.885 270.4 115.957 270.23 116.029C270.23 116.168 270.23 116.307 270.231 116.446C270.335 116.505 270.439 116.564 270.542 116.624C270.068 116.629 270.014 117.037 269.836 117.151C269.8 117.173 269.653 117.098 269.556 117.176C269.442 117.267 269.358 117.51 269.232 117.624C269.359 117.77 269.486 117.916 269.613 118.062C269.554 118.361 269.086 118.208 268.968 118.336C268.947 118.36 268.699 118.86 268.692 118.891C268.64 119.145 269.031 119.29 268.599 119.862C268.522 119.964 268.348 119.981 268.285 120.078C268.175 120.248 268.15 120.937 268.384 121.127C267.939 121.153 267.742 121.798 267.552 121.911C267.495 121.945 267.282 121.838 267.149 121.968C267.04 122.073 267.018 122.492 266.898 122.636C266.77 122.788 266.562 122.749 266.506 122.818C266.454 122.883 266.555 123.03 266.498 123.127C266.317 123.43 265.932 123.576 265.789 123.815C265.581 124.16 265.816 124.707 265.831 125.105C265.763 125.162 265.633 125.182 265.588 125.257C265.033 126.189 264.344 127.206 263.712 128.097C263.419 128.511 262.229 129.275 263.333 129.525C263.409 129.772 262.393 130.66 262.266 130.867C262.139 131.074 262.211 131.337 262.118 131.504C261.837 132.007 261.514 132.288 261.309 132.98C261.257 133.159 261.359 133.441 261.303 133.533C261.235 133.643 260.973 133.652 260.877 133.79C260.65 134.119 260.342 134.8 260.118 135.112C260.076 135.168 259.895 135.092 259.792 135.148C259.392 135.366 259.191 135.754 259.769 135.998C259.214 136.254 259.262 136.814 259.048 137.224C258.595 138.091 257.579 139.559 257.38 140.427C257.254 140.975 257.503 141.102 256.899 141.666C256.765 141.792 256.615 141.907 256.454 142.059C256.075 142.416 255.399 142.554 255.747 143.194C255.331 143.593 255.209 144.033 254.544 144.123C254.63 144.228 254.716 144.334 254.802 144.44C254.771 144.5 254.74 144.561 254.708 144.621C254.593 144.578 254.477 144.536 254.361 144.494C254.089 144.898 254.213 145.683 254.004 146.038C253.654 146.633 252.597 148.076 252.128 148.56C251.878 148.818 252.095 148.964 251.532 148.869C251.525 148.955 251.518 149.041 251.512 149.127C251.589 149.228 251.666 149.328 251.743 149.429C251.524 149.818 251.102 150.185 250.891 150.553C250.508 151.226 250.206 152.393 249.634 152.961C249.49 153.103 249.159 153.193 249.066 153.36C248.93 153.602 249.244 153.861 249.074 154.17C248.781 154.702 247.812 155.449 247.555 155.964C247.479 156.117 247.568 156.261 247.523 156.371C247.336 156.833 247.122 157.178 247.085 157.703C246.498 157.951 246.091 157.665 245.578 157.551C245.192 157.466 244.25 157.345 243.938 157.225C243.718 157.14 243.527 156.873 243.28 156.789C243.408 156.159 243.731 156.05 244.29 155.802C244.734 155.003 245.178 154.205 245.623 153.407C245.785 153.405 245.948 153.403 246.11 153.4C246.11 153.401 246.111 153.401 246.111 153.401C246.426 153.178 246.189 152.869 246.213 152.664C246.441 150.705 248.754 147.923 249.827 146.241C250.058 145.878 250.594 144.573 250.938 144.431C251.027 144.395 251.224 144.484 251.273 144.418C251.525 143.726 251.777 143.034 252.028 142.341C253.064 141.216 253.596 139.742 254.303 138.415C256.216 134.822 258.083 131.25 260.128 127.811C260.523 127.146 260.874 126.216 261.343 125.612C261.538 125.36 261.903 125.419 261.888 124.931C261.971 124.974 262.053 125.016 262.136 125.059C262.22 124.689 262.152 124.383 262.337 124.02C262.492 123.715 262.932 122.925 263.114 122.681C263.208 122.554 263.33 122.692 263.402 122.565C263.525 122.347 263.583 121.763 263.756 121.465C263.912 121.194 264.35 120.837 264.445 120.615C264.788 119.813 265.002 118.848 265.533 118.089C265.68 117.879 266.039 117.708 266.074 117.636C266.14 117.494 265.974 117.344 266.001 117.24C266.144 116.708 266.784 116.12 267.054 115.673C267.933 114.219 268.75 112.612 269.631 111.167C270.187 110.254 271.042 108.696 271.678 107.924C271.815 107.758 271.995 107.927 272.085 107.772C272.184 107.601 272.097 107.427 272.132 107.34C272.372 106.739 272.938 105.432 273.384 104.991C273.469 104.907 273.674 104.928 273.708 104.868C273.725 104.838 273.654 104.705 273.697 104.604C274.08 103.707 274.498 103.133 275.011 102.334C275.991 100.802 276.837 98.8595 277.903 97.2712C278.136 96.9251 278.601 96.8643 278.627 96.8118C278.684 96.6969 278.509 96.5005 278.585 96.2445C278.841 95.3944 279.654 94.5202 279.957 93.7456C280.106 93.363 280.11 92.7208 280.249 92.3396C280.359 92.035 280.844 91.4446 280.794 91.2523C280.764 91.1356 280.55 90.9657 280.572 90.8595ZM278.847 102.279C278.5 102.014 278.513 102.711 278.827 102.633C278.897 102.616 278.937 102.348 278.847 102.279ZM264.205 126.136C264.315 126.193 264.425 126.25 264.535 126.307C264.53 126.213 264.524 126.12 264.519 126.026C264.432 126.027 264.346 126.028 264.259 126.029C264.241 126.065 264.223 126.1 264.205 126.136Z" fill="#E4002B"/>
<path d="M77.2808 90.8595C77.2593 90.7622 77.0518 90.7272 76.9884 90.6344C76.7212 90.2466 76.5369 90.1521 76.2694 89.8162C75.8725 89.3181 75.1225 87.5929 74.147 88.156C74.1469 88.156 74.1469 88.156 74.1469 88.156C74.1373 88.1615 74.1277 88.1673 74.1181 88.1733C73.9356 88.2862 73.8122 88.541 73.6138 88.6828C73.4153 88.8246 72.0492 89.593 72.0858 89.8326C72.1489 90.1742 72.8896 90.6534 72.9615 90.8135C73.0106 90.923 72.9606 91.1215 73.0151 91.2664C73.1905 91.7333 73.4095 91.9043 73.296 92.4818C73.5614 92.5334 73.8267 92.5851 74.092 92.6367C74.1258 92.8844 74.5341 93.0536 74.5916 93.1828C74.6387 93.2887 74.5328 93.4279 74.5864 93.5358C74.6458 93.6572 74.9001 93.7495 75 93.975C75.1645 94.3443 74.8359 94.6166 74.9102 94.8522C74.9874 95.0965 75.38 95.3191 75.4113 95.6695C75.3913 95.7273 75.3712 95.7851 75.3511 95.843C75.2461 95.8705 75.1411 95.898 75.0362 95.9255C75.0743 96.089 75.2947 96.0417 75.3719 96.1677C75.4629 96.3158 75.3311 96.4943 75.3904 96.5952C75.4391 96.6777 75.6453 96.7086 75.6986 96.8213C75.777 96.9852 75.5532 97.0686 75.5638 97.1751C75.5684 97.2173 75.8154 97.905 75.8341 97.941C75.9803 98.2128 76.2728 98.075 76.4202 98.2739C76.8279 98.8263 76.9526 99.5631 77.1829 100.159C77.2857 100.425 77.4489 100.67 77.634 100.888C78.1271 100.092 79.1727 100.619 77.8718 100.947C78.1871 101.126 77.9962 101.493 78.1954 101.72C78.3246 101.867 78.5459 101.892 78.6787 102.131C78.9133 102.557 78.7384 103.271 79.6045 102.932C79.7492 103.507 80.285 103.768 79.6848 104.352C79.7153 104.504 80.3224 104.589 80.4617 104.698C80.5933 104.803 81.3806 105.73 81.489 105.893C81.5975 106.057 81.7803 106.347 81.801 106.525C81.8283 106.748 81.1716 107.295 82.2084 107.122C82.3538 107.533 82.4546 107.651 82.753 107.939C82.807 107.992 82.9376 107.926 82.9588 107.962C83.0022 108.037 82.9826 108.219 83.0488 108.36C83.1576 108.592 83.4967 108.564 83.0758 108.774C83.0916 108.959 83.1075 109.144 83.1234 109.329C83.2314 109.335 83.3394 109.341 83.4474 109.347C83.4068 109.474 83.3662 109.601 83.3256 109.728C83.8613 109.297 83.8304 110.046 83.39 110.063C83.6747 110.275 83.9594 110.487 84.2441 110.699C84.8903 110.273 84.6792 111.274 84.2834 111.428C84.3026 111.46 84.3218 111.492 84.341 111.524C84.682 111.704 84.6865 112.048 85.0048 112.324C85.3232 112.6 85.3696 112.53 85.7378 112.457C85.767 112.548 85.7962 112.639 85.8254 112.731C85.2276 113.643 86.6445 112.725 86.4183 113.827C87.0828 113.754 87.1357 114.489 87.1947 114.962C87.2016 115.017 87.0991 115.077 87.1014 115.154C87.1084 115.343 87.453 115.634 87.1139 115.813C87.2834 115.885 87.453 115.957 87.6226 116.029C87.6223 116.168 87.6221 116.307 87.6218 116.446C87.5179 116.505 87.414 116.564 87.3101 116.624C87.7842 116.629 87.8387 117.037 88.0169 117.151C88.0527 117.173 88.1996 117.098 88.2967 117.176C88.4107 117.267 88.4948 117.51 88.6203 117.624C88.4934 117.77 88.3665 117.916 88.2396 118.062C88.2983 118.361 88.7669 118.208 88.8843 118.336C88.9052 118.36 89.1539 118.86 89.16 118.891C89.2123 119.145 88.8215 119.29 89.2534 119.862C89.3305 119.964 89.5049 119.981 89.5671 120.078C89.6771 120.248 89.7024 120.937 89.4683 121.127C89.914 121.153 90.1101 121.798 90.3001 121.911C90.358 121.945 90.5703 121.838 90.7038 121.968C90.8122 122.073 90.8347 122.492 90.9544 122.636C91.0823 122.788 91.2901 122.749 91.3462 122.818C91.399 122.883 91.2976 123.03 91.3549 123.127C91.536 123.43 91.9202 123.576 92.0636 123.815C92.2715 124.16 92.0363 124.707 92.0213 125.105C92.09 125.162 92.2197 125.182 92.2644 125.257C92.82 126.189 93.5081 127.206 94.1408 128.097C94.434 128.511 95.6231 129.275 94.5196 129.525C94.4435 129.772 95.4591 130.66 95.5862 130.867C95.7133 131.074 95.6417 131.337 95.7346 131.504C96.0152 132.007 96.3389 132.288 96.5433 132.98C96.5956 133.159 96.4938 133.441 96.5497 133.533C96.6175 133.643 96.8793 133.652 96.9751 133.79C97.2021 134.119 97.5104 134.8 97.735 135.112C97.7764 135.168 97.9575 135.092 98.0602 135.148C98.4609 135.366 98.6611 135.754 98.0835 135.998C98.6388 136.254 98.5903 136.814 98.8043 137.224C99.2579 138.091 100.274 139.559 100.473 140.427C100.598 140.975 100.35 141.102 100.953 141.666C101.087 141.792 101.237 141.907 101.399 142.059C101.778 142.416 102.453 142.554 102.105 143.194C102.522 143.593 102.643 144.033 103.309 144.123C103.223 144.228 103.137 144.334 103.05 144.44C103.082 144.5 103.113 144.561 103.144 144.621C103.26 144.578 103.376 144.536 103.492 144.494C103.763 144.898 103.639 145.683 103.848 146.038C104.198 146.633 105.255 148.076 105.725 148.56C105.974 148.818 105.758 148.964 106.321 148.869C106.328 148.955 106.334 149.041 106.341 149.127C106.264 149.228 106.186 149.328 106.109 149.429C106.328 149.818 106.75 150.185 106.961 150.553C107.345 151.226 107.647 152.393 108.219 152.961C108.363 153.103 108.694 153.193 108.787 153.36C108.922 153.602 108.609 153.861 108.779 154.17C109.072 154.702 110.041 155.449 110.297 155.964C110.374 156.117 110.284 156.261 110.329 156.371C110.517 156.833 110.73 157.178 110.767 157.703C111.354 157.951 111.762 157.665 112.274 157.551C112.661 157.466 113.602 157.345 113.915 157.225C114.134 157.14 114.325 156.873 114.572 156.789C114.445 156.159 114.122 156.05 113.563 155.802C113.119 155.003 112.674 154.205 112.23 153.407C112.068 153.405 111.905 153.403 111.742 153.4C111.742 153.401 111.742 153.401 111.742 153.401C111.427 153.178 111.664 152.869 111.64 152.664C111.411 150.705 109.099 147.923 108.026 146.241C107.795 145.878 107.259 144.573 106.915 144.431C106.826 144.395 106.628 144.484 106.58 144.418C106.328 143.726 106.076 143.034 105.824 142.341C104.788 141.216 104.256 139.742 103.549 138.415C101.636 134.822 99.7699 131.25 97.7248 127.811C97.3293 127.146 96.9784 126.216 96.5098 125.612C96.3144 125.36 95.9491 125.419 95.9648 124.931C95.8819 124.974 95.7991 125.016 95.7162 125.059C95.6325 124.689 95.7004 124.383 95.516 124.02C95.3605 123.715 94.9201 122.925 94.7382 122.681C94.6444 122.554 94.5228 122.692 94.4505 122.565C94.3279 122.347 94.2691 121.763 94.0965 121.465C93.9401 121.194 93.5028 120.837 93.4078 120.615C93.0642 119.813 92.8501 118.848 92.3198 118.089C92.1728 117.879 91.8134 117.708 91.7789 117.636C91.7123 117.494 91.879 117.344 91.8511 117.24C91.7085 116.708 91.0681 116.12 90.7985 115.673C89.9196 114.219 89.1025 112.612 88.2217 111.167C87.6653 110.254 86.8106 108.696 86.1743 107.924C86.0371 107.758 85.8574 107.927 85.768 107.772C85.669 107.601 85.7559 107.427 85.721 107.34C85.4801 106.739 84.9148 105.432 84.4686 104.991C84.3834 104.907 84.1785 104.928 84.1446 104.868C84.1272 104.838 84.199 104.705 84.1555 104.604C83.7721 103.707 83.3542 103.133 82.8418 102.334C81.8611 100.802 81.0154 98.8595 79.9491 97.2712C79.7168 96.9251 79.2517 96.8643 79.2257 96.8118C79.1681 96.6969 79.3439 96.5005 79.2675 96.2445C79.0115 95.3944 78.1982 94.5202 77.896 93.7456C77.7465 93.363 77.7428 92.7208 77.604 92.3396C77.4931 92.035 77.0082 91.4446 77.0583 91.2523C77.0883 91.1356 77.303 90.9657 77.2808 90.8595ZM79.0055 102.279C79.3521 102.014 79.3392 102.711 79.0258 102.633C78.9552 102.616 78.9155 102.348 79.0055 102.279ZM93.6473 126.136C93.5374 126.193 93.4275 126.25 93.3177 126.307C93.323 126.213 93.3284 126.12 93.3337 126.026C93.4202 126.027 93.5066 126.028 93.5931 126.029C93.6111 126.065 93.6292 126.1 93.6473 126.136Z" fill="#E4002B"/>
</svg>
