<svg width="297" height="323" viewBox="0 0 297 323" fill="none" xmlns="http://www.w3.org/2000/svg">
<g filter="url(#filter0_g_1648_464)">
<path d="M22.2902 212.618C22.4305 215.565 22.9042 218.197 23.7112 220.513C24.5533 222.829 25.7814 224.776 27.3954 226.355C29.0445 227.934 31.1323 229.144 33.6586 229.986C36.1849 230.829 39.2199 231.25 42.7638 231.25C45.6059 231.25 48.29 230.934 50.8163 230.302C53.3777 229.671 55.6058 228.706 57.5005 227.407C59.3952 226.109 60.8865 224.46 61.9742 222.46C63.097 220.425 63.6584 218.004 63.6584 215.197C63.6584 212.881 63.3075 210.934 62.6058 209.355C61.9391 207.776 61.0268 206.425 59.8689 205.302C58.711 204.18 57.3426 203.197 55.7637 202.355C54.1847 201.513 52.5005 200.671 50.7111 199.829L25.0797 188.039C19.1499 185.267 14.7815 181.829 11.9745 177.724C9.20256 173.583 7.8166 168.513 7.8166 162.513C7.8166 157.987 8.62361 153.934 10.2376 150.355C11.8868 146.776 14.185 143.759 17.1323 141.303C20.0797 138.812 23.606 136.917 27.7112 135.619C31.8515 134.285 36.4305 133.619 41.448 133.619C46.2901 133.619 50.7462 134.127 54.8163 135.145C58.8865 136.162 62.4479 137.706 65.5005 139.776C68.5531 141.812 71.0268 144.355 72.9215 147.408C74.8513 150.461 76.0794 154.04 76.6057 158.145C76.746 159.268 76.6583 160.338 76.3425 161.355C76.0618 162.373 75.6057 163.303 74.9741 164.145C74.3425 164.952 73.5531 165.636 72.6057 166.197C71.6934 166.724 70.6759 167.057 69.5531 167.197C68.3952 167.373 67.2899 167.32 66.2373 167.039C65.2198 166.759 64.29 166.32 63.4479 165.724C62.6408 165.127 61.9566 164.39 61.3952 163.513C60.8338 162.601 60.4479 161.583 60.2373 160.461C59.8514 158.496 59.1847 156.706 58.2374 155.092C57.3251 153.478 56.1321 152.092 54.6584 150.934C53.2198 149.776 51.5356 148.882 49.6058 148.25C47.676 147.618 45.5357 147.303 43.1848 147.303C39.1848 147.303 35.9743 147.759 33.5533 148.671C31.1323 149.548 29.2551 150.706 27.9217 152.145C26.6235 153.583 25.7463 155.215 25.2902 157.039C24.8691 158.864 24.6586 160.689 24.6586 162.513C24.6586 164.162 24.8691 165.636 25.2902 166.934C25.7463 168.197 26.3954 169.355 27.2375 170.408C28.1147 171.425 29.1849 172.355 30.448 173.197C31.7112 174.039 33.1498 174.829 34.7638 175.566L56.7637 185.513C60.4479 187.162 63.7461 188.934 66.6584 190.829C69.6057 192.723 72.0969 194.811 74.132 197.092C76.2022 199.373 77.7811 201.899 78.8688 204.671C79.9565 207.408 80.5004 210.443 80.5004 213.776C80.5004 219.004 79.6232 223.583 77.8688 227.513C76.1144 231.407 73.6057 234.671 70.3425 237.302C67.0794 239.899 63.1145 241.864 58.4479 243.197C53.8163 244.495 48.5883 245.144 42.7638 245.144C36.6585 245.144 31.3603 244.46 26.8691 243.092C22.3779 241.723 18.6411 239.706 15.6587 237.039C12.6762 234.337 10.4131 231.022 8.86923 227.092C7.36046 223.127 6.53591 218.565 6.39556 213.408C6.36047 212.285 6.51836 211.232 6.86924 210.25C7.22011 209.267 7.72888 208.408 8.39554 207.671C9.06221 206.899 9.85168 206.285 10.764 205.829C11.7113 205.373 12.7639 205.109 13.9218 205.039C15.1499 205.004 16.2727 205.18 17.2902 205.566C18.3078 205.916 19.1674 206.443 19.8692 207.144C20.606 207.811 21.1674 208.618 21.5534 209.565C21.9744 210.513 22.22 211.53 22.2902 212.618ZM113.763 161.776H121.342C122.325 161.776 123.202 161.952 123.974 162.303C124.781 162.618 125.465 163.075 126.026 163.671C126.588 164.232 127.009 164.917 127.29 165.724C127.605 166.496 127.763 167.32 127.763 168.197C127.763 169.11 127.605 169.952 127.29 170.724C127.009 171.496 126.588 172.18 126.026 172.776C125.465 173.373 124.781 173.846 123.974 174.197C123.202 174.513 122.325 174.671 121.342 174.671H113.763V224.408C113.763 225.951 113.886 227.127 114.132 227.934C114.377 228.741 114.781 229.32 115.342 229.671C115.904 230.022 116.641 230.215 117.553 230.25C118.5 230.25 119.658 230.232 121.026 230.197C121.904 230.162 122.728 230.32 123.5 230.671C124.307 230.986 125.009 231.443 125.605 232.039C126.202 232.636 126.658 233.337 126.974 234.144C127.325 234.951 127.5 235.793 127.5 236.671C127.5 238.6 126.869 240.127 125.605 241.25C124.342 242.337 122.816 242.969 121.026 243.144C116.325 243.635 112.483 243.653 109.5 243.197C106.553 242.741 104.22 241.758 102.5 240.25C100.781 238.706 99.6055 236.583 98.974 233.881C98.3424 231.179 98.0266 227.793 98.0266 223.723V174.671H93.1319C92.1494 174.671 91.2547 174.513 90.4477 174.197C89.6758 173.846 89.0091 173.373 88.4477 172.776C87.8863 172.18 87.4477 171.496 87.1319 170.724C86.8512 169.952 86.7109 169.11 86.7109 168.197C86.7109 167.32 86.8512 166.496 87.1319 165.724C87.4477 164.917 87.8863 164.232 88.4477 163.671C89.0091 163.075 89.6758 162.618 90.4477 162.303C91.2547 161.952 92.1494 161.776 93.1319 161.776H98.0266V146.408C98.0266 145.215 98.2196 144.127 98.6055 143.145C99.0266 142.162 99.588 141.338 100.29 140.671C101.027 139.969 101.869 139.443 102.816 139.092C103.763 138.706 104.781 138.513 105.869 138.513C106.956 138.513 107.974 138.706 108.921 139.092C109.904 139.443 110.746 139.969 111.448 140.671C112.149 141.338 112.711 142.162 113.132 143.145C113.553 144.127 113.763 145.215 113.763 146.408V161.776ZM157.5 231.355C160.307 231.355 162.693 230.811 164.658 229.723C166.623 228.6 168.219 227.215 169.447 225.565C170.675 223.916 171.552 222.144 172.079 220.25C172.64 218.355 172.921 216.601 172.921 214.987V204.355C172.465 204.32 172.009 204.302 171.552 204.302C171.096 204.267 170.605 204.25 170.079 204.25C168.745 204.25 167.289 204.337 165.71 204.513C164.131 204.653 162.535 204.951 160.921 205.408C159.307 205.829 157.746 206.425 156.237 207.197C154.728 207.969 153.377 208.969 152.184 210.197C151.026 211.39 150.096 212.846 149.395 214.565C148.693 216.285 148.342 218.302 148.342 220.618C148.342 222.372 148.57 223.934 149.026 225.302C149.518 226.636 150.184 227.758 151.026 228.671C151.868 229.548 152.833 230.215 153.921 230.671C155.044 231.127 156.237 231.355 157.5 231.355ZM162.447 160.618C164.588 160.618 166.728 160.759 168.868 161.039C171.009 161.285 173.061 161.759 175.026 162.461C176.991 163.127 178.816 164.057 180.5 165.25C182.219 166.443 183.693 167.987 184.921 169.882C186.184 171.741 187.166 174.004 187.868 176.671C188.57 179.303 188.921 182.39 188.921 185.934V226.46C188.921 228.25 189.079 229.864 189.394 231.302C189.745 232.741 190.026 234.021 190.237 235.144C190.342 235.776 190.394 236.39 190.394 236.986C190.394 237.969 190.219 238.916 189.868 239.828C189.517 240.741 188.991 241.548 188.289 242.25C187.623 242.951 186.763 243.513 185.71 243.934C184.658 244.355 183.43 244.565 182.026 244.565C181.184 244.565 180.324 244.46 179.447 244.25C178.605 244.074 177.816 243.758 177.079 243.302C176.342 242.881 175.71 242.285 175.184 241.513C174.658 240.741 174.289 239.776 174.079 238.618C174.079 238.513 174.061 238.267 174.026 237.881C173.991 237.46 173.956 237.021 173.921 236.565C173.921 236.074 173.903 235.618 173.868 235.197C173.868 234.776 173.868 234.513 173.868 234.407C171.412 237.916 168.675 240.565 165.658 242.355C162.675 244.144 159.167 245.039 155.132 245.039C152.079 245.039 149.202 244.565 146.5 243.618C143.833 242.671 141.482 241.214 139.447 239.25C137.447 237.285 135.851 234.793 134.658 231.776C133.5 228.758 132.921 225.179 132.921 221.039C132.921 217.25 133.465 213.916 134.553 211.039C135.676 208.127 137.132 205.618 138.921 203.513C140.746 201.408 142.833 199.653 145.184 198.25C147.535 196.846 149.956 195.723 152.447 194.881C154.974 194.039 157.465 193.443 159.921 193.092C162.412 192.741 164.693 192.566 166.763 192.566C168.237 192.566 169.447 192.583 170.395 192.618C171.377 192.653 172.219 192.706 172.921 192.776V186.355C172.921 183.618 172.57 181.408 171.868 179.724C171.202 178.004 170.342 176.671 169.289 175.724C168.237 174.741 167.061 174.074 165.763 173.724C164.465 173.373 163.202 173.197 161.974 173.197C158.57 173.197 155.886 173.846 153.921 175.145C151.956 176.443 150.658 178.548 150.026 181.46C149.746 182.583 149.377 183.531 148.921 184.302C148.465 185.039 147.921 185.653 147.289 186.145C146.693 186.601 146.044 186.934 145.342 187.145C144.64 187.355 143.904 187.46 143.132 187.46C142.044 187.46 141.044 187.267 140.132 186.881C139.254 186.46 138.5 185.917 137.868 185.25C137.237 184.583 136.746 183.811 136.395 182.934C136.044 182.022 135.868 181.074 135.868 180.092C135.868 177.566 136.483 175.127 137.711 172.776C138.974 170.425 140.746 168.355 143.026 166.566C145.342 164.776 148.132 163.338 151.395 162.25C154.693 161.162 158.377 160.618 162.447 160.618ZM243.184 161.303C244.236 161.268 245.201 161.425 246.078 161.776C246.956 162.092 247.71 162.566 248.341 163.197C249.008 163.829 249.517 164.601 249.868 165.513C250.254 166.425 250.447 167.443 250.447 168.566C250.447 169.583 250.254 170.531 249.868 171.408C249.517 172.25 249.026 173.004 248.394 173.671C247.763 174.303 246.991 174.811 246.078 175.197C245.201 175.583 244.236 175.776 243.184 175.776C240.201 175.811 237.517 176.338 235.131 177.355C232.745 178.338 230.71 179.706 229.026 181.46C227.342 183.18 226.043 185.232 225.131 187.618C224.254 190.004 223.815 192.583 223.815 195.355V236.407C223.815 237.6 223.605 238.688 223.184 239.671C222.763 240.653 222.201 241.495 221.5 242.197C220.798 242.864 219.956 243.372 218.973 243.723C218.026 244.109 217.008 244.302 215.921 244.302C214.833 244.302 213.815 244.109 212.868 243.723C211.921 243.372 211.079 242.864 210.342 242.197C209.64 241.495 209.079 240.653 208.658 239.671C208.272 238.688 208.079 237.6 208.079 236.407V168.408C208.079 167.25 208.289 166.215 208.71 165.303C209.131 164.355 209.693 163.548 210.394 162.882C211.096 162.18 211.921 161.653 212.868 161.303C213.85 160.917 214.868 160.724 215.921 160.724C216.973 160.724 217.973 160.917 218.921 161.303C219.903 161.653 220.745 162.162 221.447 162.829C222.184 163.496 222.763 164.303 223.184 165.25C223.605 166.197 223.815 167.25 223.815 168.408V171.671C226.131 168.408 228.885 165.917 232.078 164.197C235.271 162.443 238.973 161.478 243.184 161.303ZM277.973 161.776H285.552C286.534 161.776 287.411 161.952 288.183 162.303C288.99 162.618 289.675 163.075 290.236 163.671C290.797 164.232 291.218 164.917 291.499 165.724C291.815 166.496 291.973 167.32 291.973 168.197C291.973 169.11 291.815 169.952 291.499 170.724C291.218 171.496 290.797 172.18 290.236 172.776C289.675 173.373 288.99 173.846 288.183 174.197C287.411 174.513 286.534 174.671 285.552 174.671H277.973V224.408C277.973 225.951 278.096 227.127 278.341 227.934C278.587 228.741 278.99 229.32 279.552 229.671C280.113 230.022 280.85 230.215 281.762 230.25C282.71 230.25 283.868 230.232 285.236 230.197C286.113 230.162 286.938 230.32 287.71 230.671C288.517 230.986 289.218 231.443 289.815 232.039C290.411 232.636 290.868 233.337 291.183 234.144C291.534 234.951 291.71 235.793 291.71 236.671C291.71 238.6 291.078 240.127 289.815 241.25C288.552 242.337 287.025 242.969 285.236 243.144C280.534 243.635 276.692 243.653 273.71 243.197C270.762 242.741 268.429 241.758 266.71 240.25C264.991 238.706 263.815 236.583 263.184 233.881C262.552 231.179 262.236 227.793 262.236 223.723V174.671H257.341C256.359 174.671 255.464 174.513 254.657 174.197C253.885 173.846 253.219 173.373 252.657 172.776C252.096 172.18 251.657 171.496 251.341 170.724C251.061 169.952 250.92 169.11 250.92 168.197C250.92 167.32 251.061 166.496 251.341 165.724C251.657 164.917 252.096 164.232 252.657 163.671C253.219 163.075 253.885 162.618 254.657 162.303C255.464 161.952 256.359 161.776 257.341 161.776H262.236V146.408C262.236 145.215 262.429 144.127 262.815 143.145C263.236 142.162 263.798 141.338 264.499 140.671C265.236 139.969 266.078 139.443 267.026 139.092C267.973 138.706 268.991 138.513 270.078 138.513C271.166 138.513 272.183 138.706 273.131 139.092C274.113 139.443 274.955 139.969 275.657 140.671C276.359 141.338 276.92 142.162 277.341 143.145C277.762 144.127 277.973 145.215 277.973 146.408V161.776Z" fill="url(#paint0_linear_1648_464)"/>
</g>
<path d="M140.904 5.48582C140.874 5.35247 141.036 5.16426 141.044 5.00697C141.082 4.34803 141.194 4.10387 141.258 3.50766C141.353 2.62367 141.139 6.12432e-05 142.266 -7.47055e-06C142.266 -7.47055e-06 142.266 -7.47055e-06 142.266 -7.47055e-06C142.277 -7.47103e-06 142.288 0.000244298 142.299 0.000755467C142.514 0.00996414 142.748 0.233086 142.991 0.26622C143.234 0.299263 144.801 0.27449 144.889 0.591431C145.005 1.05097 144.603 2.15336 144.621 2.39845C144.634 2.56602 144.776 2.77229 144.801 2.98656C144.883 3.67739 144.779 4.03887 145.166 4.66127C144.962 4.91021 144.758 5.15919 144.554 5.40814C144.648 5.73296 144.379 6.22529 144.394 6.42262C144.406 6.5845 144.568 6.67941 144.575 6.84812C144.584 7.03738 144.41 7.328 144.437 7.67225C144.479 8.2366 144.9 8.33702 144.953 8.67562C145.008 9.02676 144.78 9.57283 144.928 10.0209C144.974 10.077 145.02 10.1332 145.067 10.1894C145.171 10.1492 145.276 10.1089 145.381 10.0687C145.429 10.2943 145.215 10.3914 145.211 10.5987C145.206 10.8427 145.41 10.9672 145.409 11.1314C145.408 11.2658 145.245 11.4482 145.255 11.6226C145.269 11.8768 145.504 11.8212 145.548 11.958C145.565 12.0126 145.695 13.0219 145.697 13.0788C145.707 13.5118 145.384 13.5495 145.356 13.8948C145.279 14.8525 145.54 15.8356 145.638 16.7214C145.682 17.117 145.663 17.5297 145.612 17.9241C144.787 17.3029 144.145 18.6777 145.436 18.1635C145.252 18.6023 145.601 18.9135 145.542 19.3295C145.503 19.5986 145.324 19.7848 145.329 20.169C145.338 20.8507 145.847 21.5964 144.928 21.7925C145.09 22.5928 144.756 23.2859 145.568 23.5743C145.617 23.7807 145.134 24.3096 145.068 24.541C145.006 24.7599 144.788 26.4394 144.776 26.7142C144.764 26.989 144.751 27.4699 144.822 27.7014C144.91 27.9921 145.752 28.1952 144.767 28.7128C144.847 29.3147 144.819 29.5291 144.705 30.0888C144.684 30.1902 144.538 30.2016 144.538 30.2608C144.538 30.3828 144.646 30.5902 144.659 30.8079C144.68 31.1659 144.373 31.3702 144.843 31.3303C144.921 31.5663 145 31.8023 145.079 32.0384C144.988 32.1212 144.897 32.2039 144.807 32.2868C144.906 32.4129 145.004 32.5391 145.103 32.6653C144.424 32.5171 144.825 33.4052 145.215 33.1169C145.074 33.5744 144.933 34.0319 144.793 34.4894C144.02 34.4255 144.704 35.494 145.124 35.404C145.123 35.4564 145.122 35.5087 145.122 35.5611C144.916 36.0194 145.084 36.4403 144.947 36.9989C144.809 37.5575 144.734 37.5051 144.378 37.6749C144.399 37.8064 144.419 37.9378 144.439 38.0693C145.413 38.759 143.727 38.6371 144.474 39.8183C143.862 40.1956 144.184 41.1259 144.369 41.7426C144.391 41.8144 144.51 41.8156 144.546 41.9112C144.634 42.1449 144.482 42.7412 144.865 42.7208C144.754 42.9273 144.643 43.1337 144.532 43.3401C144.602 43.5088 144.672 43.6776 144.741 43.8463C144.861 43.8454 144.98 43.8446 145.1 43.8437C144.692 44.1835 144.849 44.7173 144.752 44.9807C144.732 45.0331 144.567 45.0444 144.522 45.2073C144.468 45.3977 144.517 45.7525 144.466 45.9794C144.648 46.0676 144.831 46.1557 145.014 46.244C145.113 46.6497 144.631 46.7923 144.593 47.0305C144.587 47.0734 144.621 47.856 144.632 47.8982C144.713 48.2434 145.124 48.1456 145.036 49.144C145.02 49.3218 144.878 49.4656 144.872 49.6263C144.862 49.9101 145.185 50.7655 145.483 50.8328C145.11 51.1771 145.262 52.0983 145.154 52.3696C145.121 52.4515 144.884 52.47 144.833 52.7217C144.792 52.9258 144.982 53.4514 144.95 53.7102C144.916 53.9849 144.716 54.083 144.702 54.2061C144.689 54.3224 144.85 54.4296 144.849 54.5881C144.843 55.0828 144.584 55.5308 144.579 55.9218C144.572 56.4873 145.049 56.9868 145.261 57.4599C145.23 57.5773 145.127 57.6927 145.126 57.8159C145.111 59.339 145.023 61.0571 144.921 62.5848C144.874 63.294 144.227 65.0575 145.307 64.5868C145.497 64.8333 145.061 66.6253 145.054 66.9662C145.048 67.3069 145.242 67.5771 145.244 67.8449C145.253 68.6533 145.113 69.2224 145.282 70.2063C145.326 70.4605 145.556 70.7327 145.553 70.8832C145.549 71.0645 145.327 71.2596 145.313 71.4944C145.281 72.0541 145.354 73.0973 145.316 73.6343C145.308 73.7323 145.113 73.7668 145.052 73.907C144.814 74.4531 144.835 75.0652 145.457 74.9569C145.104 75.6568 145.426 76.3043 145.446 76.953C145.486 78.3245 145.341 80.8229 145.603 82.0177C145.768 82.771 146.047 82.7518 145.806 83.861C145.753 84.1072 145.68 84.3523 145.617 84.6509C145.467 85.3509 144.951 85.9931 145.572 86.5267C145.411 87.3041 145.526 87.9233 144.994 88.5001C145.122 88.5681 145.249 88.6361 145.377 88.7041C145.38 88.7994 145.383 88.8948 145.386 88.9901C145.264 89.0198 145.143 89.0495 145.021 89.0793C144.989 89.7621 145.488 90.6284 145.485 91.2064C145.479 92.1755 145.285 94.6714 145.121 95.5903C145.034 96.0782 145.294 96.1044 144.759 96.3837C144.796 96.4929 144.833 96.602 144.871 96.7111C144.988 96.7794 145.105 96.8477 145.222 96.9159C145.227 97.5418 145.045 98.2842 145.047 98.8804C145.05 99.9669 145.373 101.598 145.161 102.69C145.108 102.963 144.866 103.305 144.869 103.573C144.873 103.963 145.274 104.058 145.281 104.552C145.293 105.405 144.827 106.993 144.863 107.799C144.873 108.039 145.022 108.151 145.038 108.316C145.107 109.009 145.095 109.578 145.325 110.243C144.941 110.956 144.445 110.895 143.944 111.116C143.567 111.284 142.691 111.798 142.36 111.871C142.128 111.922 141.829 111.73 141.573 111.802C141.369 110.947 141.593 110.588 141.953 109.894C141.939 108.611 141.925 107.329 141.91 106.047C142.05 105.93 142.19 105.814 142.329 105.697C142.33 105.697 142.33 105.697 142.33 105.697C142.491 105.205 142.132 104.996 142.05 104.73C141.268 102.188 141.88 97.184 141.968 94.3851C141.987 93.782 141.799 91.82 142.026 91.4061C142.085 91.299 142.3 91.2692 142.31 91.1552C142.181 90.1367 142.053 89.1183 141.925 88.0998C142.26 86.0055 141.984 83.8403 141.932 81.73C141.792 76.0205 141.623 70.368 141.674 64.752C141.684 63.6666 141.523 62.2893 141.627 61.2267C141.67 60.7833 142.016 60.5985 141.758 60.0159C141.852 60.0098 141.945 60.0037 142.038 59.9976C141.925 59.4892 141.713 59.1643 141.692 58.5943C141.674 58.1143 141.66 56.8444 141.696 56.4203C141.714 56.2003 141.888 56.2822 141.887 56.0771C141.884 55.726 141.643 54.9757 141.643 54.4912C141.643 54.0522 141.844 53.3123 141.815 52.9748C141.712 51.7595 141.414 50.4357 141.494 49.1406C141.517 48.7828 141.742 48.3226 141.736 48.2106C141.723 47.9918 141.504 47.9265 141.475 47.7795C141.333 47.0328 141.594 45.8688 141.604 45.1369C141.638 42.7518 141.542 40.2251 141.582 37.8503C141.608 36.35 141.569 33.8567 141.734 32.4716C141.77 32.1729 142.01 32.2524 142.01 32.0017C142.01 31.7236 141.848 31.5729 141.834 31.443C141.743 30.5434 141.578 28.5575 141.744 27.7082C141.776 27.5464 141.964 27.4291 141.964 27.3322C141.964 27.2832 141.835 27.1724 141.822 27.0185C141.706 25.6595 141.781 24.6687 141.825 23.337C141.908 20.7867 141.669 17.8317 141.799 15.1525C141.827 14.5688 142.199 14.1685 142.195 14.0864C142.188 13.9063 141.937 13.791 141.876 13.4262C141.672 12.2132 141.939 10.5796 141.814 9.42592C141.752 8.85593 141.434 8.07269 141.364 7.51178C141.308 7.06378 141.432 6.00575 141.293 5.80719C141.208 5.68638 140.938 5.63049 140.904 5.48582ZM145.12 20.5783C144.687 20.4985 145.047 21.3372 145.279 21.0226C145.332 20.9517 145.232 20.5989 145.12 20.5783ZM144.368 59.8542C144.492 59.8465 144.615 59.8388 144.739 59.8311C144.688 59.721 144.636 59.6109 144.585 59.5008C144.51 59.5627 144.436 59.6246 144.362 59.6865C144.364 59.7424 144.366 59.7983 144.368 59.8542Z" fill="#E4002B"/>
<path d="M247.472 43.8595C247.493 43.7622 247.701 43.7272 247.764 43.6344C248.031 43.2466 248.216 43.1521 248.483 42.8162C248.88 42.3181 249.63 40.5929 250.605 41.156C250.606 41.156 250.606 41.156 250.606 41.156C250.615 41.1615 250.625 41.1673 250.634 41.1733C250.817 41.2862 250.94 41.541 251.139 41.6828C251.337 41.8246 252.703 42.593 252.667 42.8326C252.604 43.1742 251.863 43.6534 251.791 43.8135C251.742 43.923 251.792 44.1215 251.737 44.2664C251.562 44.7333 251.343 44.9043 251.456 45.4818C251.191 45.5334 250.926 45.5851 250.66 45.6367C250.627 45.8844 250.218 46.0536 250.161 46.1828C250.114 46.2887 250.22 46.4279 250.166 46.5358C250.107 46.6572 249.852 46.7495 249.752 46.975C249.588 47.3443 249.917 47.6166 249.842 47.8522C249.765 48.0965 249.372 48.3191 249.341 48.6695C249.361 48.7273 249.381 48.7851 249.401 48.843C249.506 48.8705 249.611 48.898 249.716 48.9255C249.678 49.089 249.458 49.0417 249.381 49.1677C249.29 49.3158 249.421 49.4943 249.362 49.5952C249.313 49.6777 249.107 49.7086 249.054 49.8213C248.975 49.9852 249.199 50.0686 249.189 50.1751C249.184 50.2173 248.937 50.905 248.918 50.941C248.772 51.2128 248.48 51.075 248.332 51.2739C247.925 51.8263 247.8 52.5631 247.57 53.1588C247.467 53.4249 247.304 53.6702 247.118 53.8877C246.625 53.092 245.58 53.6193 246.881 53.9474C246.565 54.1263 246.756 54.4926 246.557 54.7198C246.428 54.8665 246.207 54.8919 246.074 55.1313C245.839 55.5567 246.014 56.2711 245.148 55.9323C245.003 56.5072 244.467 56.768 245.068 57.3518C245.037 57.504 244.43 57.5885 244.291 57.6985C244.159 57.8026 243.372 58.7297 243.263 58.8931C243.155 59.0565 242.972 59.3466 242.951 59.525C242.924 59.7485 243.581 60.2947 242.544 60.1219C242.399 60.5331 242.298 60.6513 241.999 60.9394C241.945 60.9916 241.815 60.9256 241.794 60.9621C241.75 61.0373 241.77 61.2193 241.704 61.3602C241.595 61.5919 241.256 61.5642 241.677 61.7744C241.661 61.9594 241.645 62.1444 241.629 62.3293C241.521 62.3351 241.413 62.3409 241.305 62.3466C241.346 62.4739 241.386 62.6011 241.427 62.7284C240.891 62.2971 240.922 63.0456 241.362 63.0627C241.078 63.2746 240.793 63.4866 240.508 63.6986C239.862 63.273 240.073 64.2738 240.469 64.4283C240.45 64.4603 240.431 64.4923 240.411 64.5243C240.07 64.7044 240.066 65.048 239.748 65.3238C239.429 65.5996 239.383 65.5296 239.015 65.4568C238.985 65.5481 238.956 65.6393 238.927 65.7306C239.525 66.6431 238.108 65.7248 238.334 66.8271C237.67 66.7539 237.617 67.4886 237.558 67.9619C237.551 68.017 237.653 68.0771 237.651 68.1544C237.644 68.3426 237.299 68.6342 237.639 68.8132C237.469 68.8851 237.299 68.957 237.13 69.029C237.13 69.1679 237.13 69.3069 237.131 69.4458C237.235 69.5051 237.338 69.5644 237.442 69.6237C236.968 69.6294 236.914 70.0371 236.736 70.1509C236.7 70.1733 236.553 70.0978 236.456 70.1758C236.342 70.2665 236.258 70.5099 236.132 70.6241C236.259 70.7699 236.386 70.9157 236.513 71.0615C236.454 71.3614 235.985 71.2082 235.868 71.3364C235.847 71.3596 235.598 71.8598 235.592 71.891C235.54 72.1448 235.931 72.29 235.499 72.8619C235.422 72.9636 235.248 72.9812 235.185 73.0775C235.075 73.2475 235.05 73.9365 235.284 74.1271C234.838 74.153 234.642 74.7976 234.452 74.9111C234.394 74.9451 234.182 74.8377 234.049 74.9677C233.94 75.073 233.918 75.4924 233.798 75.6361C233.67 75.7883 233.462 75.749 233.406 75.8179C233.353 75.8831 233.455 76.0298 233.398 76.1271C233.216 76.4295 232.832 76.5762 232.689 76.8151C232.481 77.1602 232.716 77.707 232.731 78.1048C232.662 78.1618 232.533 78.1818 232.488 78.2573C231.932 79.1895 231.244 80.2056 230.612 81.097C230.318 81.5111 229.129 82.2754 230.233 82.5253C230.309 82.772 229.293 83.6598 229.166 83.8668C229.039 84.0738 229.111 84.3373 229.018 84.504C228.737 85.0069 228.414 85.2883 228.209 85.9797C228.157 86.1586 228.259 86.4413 228.203 86.5328C228.135 86.6428 227.873 86.6522 227.777 86.79C227.55 87.1194 227.242 87.7995 227.017 88.1116C226.976 88.1684 226.795 88.0922 226.692 88.1482C226.292 88.3661 226.091 88.7541 226.669 88.9984C226.114 89.2536 226.162 89.8143 225.948 90.2243C225.494 91.0907 224.479 92.5595 224.28 93.4274C224.154 93.9747 224.403 94.1024 223.799 94.6663C223.665 94.7915 223.515 94.9067 223.354 95.0591C222.975 95.416 222.299 95.5544 222.647 96.1943C222.231 96.5933 222.109 97.0325 221.443 97.1227C221.53 97.2284 221.616 97.334 221.702 97.4397C221.671 97.5001 221.64 97.5605 221.608 97.6209C221.492 97.5785 221.377 97.536 221.261 97.4936C220.989 97.8985 221.113 98.6828 220.904 99.0376C220.554 99.6327 219.497 101.076 219.028 101.56C218.778 101.818 218.994 101.964 218.431 101.869C218.425 101.955 218.418 102.041 218.412 102.127C218.489 102.228 218.566 102.328 218.643 102.429C218.424 102.818 218.002 103.185 217.791 103.553C217.408 104.226 217.106 105.393 216.534 105.961C216.39 106.103 216.059 106.193 215.966 106.36C215.83 106.602 216.144 106.861 215.974 107.17C215.681 107.702 214.711 108.449 214.455 108.964C214.379 109.117 214.468 109.261 214.423 109.371C214.236 109.833 214.022 110.178 213.985 110.703C213.398 110.951 212.991 110.665 212.478 110.551C212.091 110.466 211.15 110.345 210.838 110.225C210.618 110.14 210.427 109.873 210.18 109.789C210.308 109.159 210.63 109.05 211.189 108.802C211.634 108.003 212.078 107.205 212.522 106.407C212.685 106.405 212.847 106.403 213.01 106.4C213.01 106.401 213.01 106.401 213.011 106.401C213.326 106.178 213.089 105.869 213.112 105.664C213.341 103.705 215.653 100.923 216.727 99.2407C216.958 98.8779 217.494 97.5733 217.838 97.4314C217.927 97.3948 218.124 97.4841 218.173 97.4185C218.425 96.7261 218.677 96.0337 218.928 95.3413C219.964 94.2164 220.496 92.7424 221.203 91.4146C223.116 87.8221 224.983 84.2498 227.028 80.8106C227.423 80.1461 227.774 79.2157 228.243 78.6121C228.438 78.3601 228.803 78.419 228.788 77.9307C228.87 77.9735 228.953 78.0163 229.036 78.0592C229.12 77.6892 229.052 77.3828 229.236 77.0203C229.392 76.7153 229.832 75.9249 230.014 75.681C230.108 75.5541 230.23 75.6918 230.302 75.5648C230.425 75.3467 230.483 74.7635 230.656 74.4645C230.812 74.1937 231.25 73.8375 231.345 73.6147C231.688 72.8133 231.902 71.8479 232.433 71.0887C232.58 70.8792 232.939 70.7082 232.974 70.6359C233.04 70.4944 232.873 70.3445 232.901 70.2397C233.044 69.7077 233.684 69.1199 233.954 68.6735C234.833 67.2188 235.65 65.612 236.531 64.167C237.087 63.254 237.942 61.6964 238.578 60.9242C238.715 60.7578 238.895 60.927 238.984 60.7723C239.083 60.6007 238.997 60.4266 239.031 60.3399C239.272 59.7389 239.838 58.4316 240.284 57.9905C240.369 57.9067 240.574 57.9284 240.608 57.8683C240.625 57.838 240.553 57.7055 240.597 57.6039C240.98 56.7074 241.398 56.1335 241.911 55.3339C242.891 53.8022 243.737 51.8595 244.803 50.2712C245.036 49.9251 245.501 49.8643 245.527 49.8118C245.584 49.6969 245.409 49.5005 245.485 49.2445C245.741 48.3944 246.554 47.5202 246.856 46.7456C247.006 46.363 247.01 45.7208 247.148 45.3396C247.259 45.035 247.744 44.4446 247.694 44.2523C247.664 44.1356 247.449 43.9657 247.472 43.8595ZM245.747 55.2793C245.4 55.0136 245.413 55.711 245.727 55.6331C245.797 55.6156 245.837 55.3483 245.747 55.2793ZM231.105 79.1357C231.215 79.1928 231.325 79.2499 231.435 79.307C231.429 79.2133 231.424 79.1197 231.419 79.026C231.332 79.027 231.246 79.028 231.159 79.029C231.141 79.0646 231.123 79.1001 231.105 79.1357Z" fill="#E4002B"/>
<path d="M44.1807 43.8595C44.1592 43.7622 43.9517 43.7272 43.8883 43.6344C43.6211 43.2466 43.4368 43.1521 43.1693 42.8162C42.7724 42.3181 42.0224 40.5929 41.0469 41.156C41.0468 41.156 41.0468 41.156 41.0468 41.156C41.0372 41.1615 41.0276 41.1673 41.018 41.1733C40.8355 41.2862 40.7121 41.541 40.5137 41.6828C40.3152 41.8246 38.9491 42.593 38.9857 42.8326C39.0488 43.1742 39.7895 43.6534 39.8614 43.8135C39.9105 43.923 39.8605 44.1215 39.915 44.2664C40.0904 44.7333 40.3094 44.9043 40.1959 45.4818C40.4613 45.5334 40.7266 45.5851 40.9919 45.6367C41.0257 45.8844 41.434 46.0536 41.4915 46.1828C41.5386 46.2887 41.4327 46.4279 41.4863 46.5358C41.5457 46.6572 41.8 46.7495 41.8999 46.975C42.0644 47.3443 41.7358 47.6166 41.8101 47.8522C41.8873 48.0965 42.2799 48.3191 42.3112 48.6695C42.2912 48.7273 42.2711 48.7851 42.251 48.843C42.146 48.8705 42.041 48.898 41.9361 48.9255C41.9742 49.089 42.1946 49.0417 42.2718 49.1677C42.3628 49.3158 42.231 49.4943 42.2903 49.5952C42.339 49.6777 42.5452 49.7086 42.5985 49.8213C42.6769 49.9852 42.4531 50.0686 42.4637 50.1751C42.4683 50.2173 42.7153 50.905 42.734 50.941C42.8802 51.2128 43.1727 51.075 43.3201 51.2739C43.7278 51.8263 43.8525 52.5631 44.0828 53.1588C44.1856 53.4249 44.3488 53.6702 44.5339 53.8877C45.027 53.092 46.0726 53.6193 44.7717 53.9474C45.087 54.1263 44.8961 54.4926 45.0953 54.7198C45.2245 54.8665 45.4458 54.8919 45.5786 55.1313C45.8132 55.5567 45.6383 56.2711 46.5044 55.9323C46.6491 56.5072 47.1849 56.768 46.5847 57.3518C46.6152 57.504 47.2223 57.5885 47.3616 57.6985C47.4932 57.8026 48.2805 58.7297 48.3889 58.8931C48.4974 59.0565 48.6802 59.3466 48.7009 59.525C48.7282 59.7485 48.0715 60.2947 49.1083 60.1219C49.2537 60.5331 49.3545 60.6513 49.6529 60.9394C49.7069 60.9916 49.8375 60.9256 49.8587 60.9621C49.9021 61.0373 49.8825 61.2193 49.9487 61.3602C50.0575 61.5919 50.3966 61.5642 49.9757 61.7744C49.9915 61.9594 50.0074 62.1444 50.0233 62.3293C50.1313 62.3351 50.2393 62.3409 50.3473 62.3466C50.3067 62.4739 50.2661 62.6011 50.2255 62.7284C50.7612 62.2971 50.7303 63.0456 50.2899 63.0627C50.5746 63.2746 50.8593 63.4866 51.144 63.6986C51.7902 63.273 51.5791 64.2738 51.1833 64.4283C51.2025 64.4603 51.2217 64.4923 51.2409 64.5243C51.5819 64.7044 51.5864 65.048 51.9047 65.3238C52.2231 65.5996 52.2695 65.5296 52.6377 65.4568C52.6669 65.5481 52.6961 65.6393 52.7253 65.7306C52.1275 66.6431 53.5444 65.7248 53.3182 66.8271C53.9827 66.7539 54.0356 67.4886 54.0946 67.9619C54.1015 68.017 53.999 68.0771 54.0013 68.1544C54.0083 68.3426 54.3529 68.6342 54.0138 68.8132C54.1834 68.8851 54.3529 68.957 54.5225 69.029C54.5222 69.1679 54.522 69.3069 54.5217 69.4458C54.4178 69.5051 54.3139 69.5644 54.21 69.6237C54.6841 69.6294 54.7386 70.0371 54.9168 70.1509C54.9526 70.1733 55.0995 70.0978 55.1966 70.1758C55.3106 70.2665 55.3947 70.5099 55.5202 70.6241C55.3933 70.7699 55.2664 70.9157 55.1395 71.0615C55.1982 71.3614 55.6668 71.2082 55.7842 71.3364C55.8051 71.3596 56.0538 71.8598 56.0599 71.891C56.1122 72.1448 55.7214 72.29 56.1533 72.8619C56.2304 72.9636 56.4048 72.9812 56.467 73.0775C56.577 73.2475 56.6024 73.9365 56.3682 74.1271C56.8139 74.153 57.01 74.7976 57.2 74.9111C57.2579 74.9451 57.4702 74.8377 57.6037 74.9677C57.7121 75.073 57.7346 75.4924 57.8543 75.6361C57.9822 75.7883 58.19 75.749 58.2461 75.8179C58.2989 75.8831 58.1975 76.0298 58.2548 76.1271C58.4359 76.4295 58.8201 76.5762 58.9635 76.8151C59.1714 77.1602 58.9362 77.707 58.9212 78.1048C58.9899 78.1618 59.1196 78.1818 59.1643 78.2573C59.7199 79.1895 60.408 80.2056 61.0407 81.097C61.3339 81.5111 62.523 82.2754 61.4195 82.5253C61.3434 82.772 62.359 83.6598 62.4861 83.8668C62.6132 84.0738 62.5416 84.3373 62.6345 84.504C62.9151 85.0069 63.2388 85.2883 63.4432 85.9797C63.4955 86.1586 63.3937 86.4413 63.4496 86.5328C63.5174 86.6428 63.7792 86.6522 63.875 86.79C64.102 87.1194 64.4103 87.7995 64.6349 88.1116C64.6763 88.1684 64.8574 88.0922 64.9601 88.1482C65.3608 88.3661 65.561 88.7541 64.9834 88.9984C65.5387 89.2536 65.4903 89.8143 65.7042 90.2243C66.1579 91.0907 67.1736 92.5595 67.3727 93.4274C67.4982 93.9747 67.2496 94.1024 67.8533 94.6663C67.9873 94.7915 68.137 94.9067 68.2986 95.0591C68.6778 95.416 69.3532 95.5544 69.0051 96.1943C69.4216 96.5933 69.5431 97.0325 70.2089 97.1227C70.1227 97.2284 70.0365 97.334 69.9504 97.4397C69.9816 97.5001 70.0128 97.5605 70.044 97.6209C70.1599 97.5785 70.2758 97.536 70.3916 97.4936C70.6632 97.8985 70.5391 98.6828 70.7481 99.0376C71.0982 99.6327 72.1554 101.076 72.6248 101.56C72.874 101.818 72.6579 101.964 73.2209 101.869C73.2275 101.955 73.2341 102.041 73.2407 102.127C73.1636 102.228 73.0864 102.328 73.0092 102.429C73.2281 102.818 73.6502 103.185 73.861 103.553C74.2448 104.226 74.5466 105.393 75.1187 105.961C75.2624 106.103 75.5935 106.193 75.6866 106.36C75.8222 106.602 75.5087 106.861 75.6784 107.17C75.9717 107.702 76.9409 108.449 77.1971 108.964C77.2735 109.117 77.184 109.261 77.2291 109.371C77.4168 109.833 77.63 110.178 77.6671 110.703C78.2541 110.951 78.6618 110.665 79.174 110.551C79.5609 110.466 80.5022 110.345 80.8148 110.225C81.0343 110.14 81.2251 109.873 81.4723 109.789C81.3447 109.159 81.0219 109.05 80.4629 108.802C80.0186 108.003 79.5742 107.205 79.1299 106.407C78.9674 106.405 78.8049 106.403 78.6424 106.4C78.6421 106.401 78.6419 106.401 78.6416 106.401C78.3266 106.178 78.5638 105.869 78.5399 105.664C78.3113 103.705 75.9989 100.923 74.9256 99.2407C74.6945 98.8779 74.1586 97.5733 73.8148 97.4314C73.7254 97.3948 73.5283 97.4841 73.4796 97.4185C73.2277 96.7261 72.9758 96.0337 72.724 95.3413C71.6881 94.2164 71.1562 92.7424 70.4491 91.4146C68.5363 87.8221 66.6698 84.2498 64.6247 80.8106C64.2292 80.1461 63.8783 79.2157 63.4097 78.6121C63.2143 78.3601 62.849 78.419 62.8647 77.9307C62.7819 77.9735 62.699 78.0163 62.6161 78.0592C62.5324 77.6892 62.6003 77.3828 62.4159 77.0203C62.2604 76.7153 61.82 75.9249 61.6381 75.681C61.5443 75.5541 61.4227 75.6918 61.3504 75.5648C61.2278 75.3467 61.169 74.7635 60.9964 74.4645C60.84 74.1937 60.4027 73.8375 60.3077 73.6147C59.9641 72.8133 59.75 71.8479 59.2197 71.0887C59.0727 70.8792 58.7133 70.7082 58.6788 70.6359C58.6122 70.4944 58.7789 70.3445 58.751 70.2397C58.6084 69.7077 57.968 69.1199 57.6984 68.6735C56.8196 67.2188 56.0024 65.612 55.1216 64.167C54.5652 63.254 53.7105 61.6964 53.0742 60.9242C52.937 60.7578 52.7573 60.927 52.6679 60.7723C52.5689 60.6007 52.6558 60.4266 52.6209 60.3399C52.38 59.7389 51.8147 58.4316 51.3685 57.9905C51.2833 57.9067 51.0784 57.9284 51.0445 57.8683C51.0271 57.838 51.0989 57.7055 51.0554 57.6039C50.672 56.7074 50.2541 56.1335 49.7417 55.3339C48.761 53.8022 47.9153 51.8595 46.849 50.2712C46.6167 49.9251 46.1516 49.8643 46.1256 49.8118C46.068 49.6969 46.2438 49.5005 46.1674 49.2445C45.9114 48.3944 45.0981 47.5202 44.7959 46.7456C44.6464 46.363 44.6427 45.7208 44.5039 45.3396C44.393 45.035 43.9081 44.4446 43.9582 44.2523C43.9882 44.1356 44.2029 43.9657 44.1807 43.8595ZM45.9054 55.2793C46.252 55.0136 46.2391 55.711 45.9257 55.6331C45.8551 55.6156 45.8154 55.3483 45.9054 55.2793ZM60.5472 79.1357C60.4373 79.1928 60.3274 79.2499 60.2176 79.307C60.2229 79.2133 60.2283 79.1197 60.2336 79.026C60.3201 79.027 60.4065 79.028 60.493 79.029C60.511 79.0646 60.5291 79.1001 60.5472 79.1357Z" fill="#E4002B"/>
<defs>
<filter id="filter0_g_1648_464" x="1.55236" y="128.828" width="295.211" height="121.106" filterUnits="userSpaceOnUse" color-interpolation-filters="sRGB">
<feFlood flood-opacity="0" result="BackgroundImageFix"/>
<feBlend mode="normal" in="SourceGraphic" in2="BackgroundImageFix" result="shape"/>
<feTurbulence type="fractalNoise" baseFrequency="0.020875012502074242 0.020875012502074242" numOctaves="3" seed="6722" />
<feDisplacementMap in="shape" scale="9.5808334350585938" xChannelSelector="R" yChannelSelector="G" result="displacedImage" width="100%" height="100%" />
<feMerge result="effect1_texture_1648_464">
<feMergeNode in="displacedImage"/>
</feMerge>
</filter>
<linearGradient id="paint0_linear_1648_464" x1="146.5" y1="149.5" x2="146.5" y2="322.25" gradientUnits="userSpaceOnUse">
<stop stop-color="#E4002B"/>
<stop offset="1" stop-color="#E4002B" stop-opacity="0"/>
</linearGradient>
</defs>
</svg>
