<svg width="358" height="206" viewBox="0 0 358 206" fill="none" xmlns="http://www.w3.org/2000/svg">
<g clip-path="url(#clip0_1832_229)">
<g filter="url(#filter0_g_1832_229)">
<path d="M54.2902 122.369C54.4305 125.316 54.9042 127.948 55.7112 130.263C56.5533 132.579 57.7814 134.526 59.3954 136.105C61.0445 137.684 63.1323 138.895 65.6586 139.737C68.1849 140.579 71.2199 141 74.7638 141C77.6059 141 80.29 140.684 82.8163 140.053C85.3777 139.421 87.6058 138.456 89.5005 137.158C91.3952 135.86 92.8865 134.211 93.9742 132.211C95.097 130.176 95.6584 127.755 95.6584 124.948C95.6584 122.632 95.3075 120.684 94.6058 119.105C93.9391 117.527 93.0268 116.176 91.8689 115.053C90.711 113.93 89.3426 112.948 87.7637 112.106C86.1847 111.263 84.5005 110.421 82.7111 109.579L57.0797 97.7898C51.1499 95.0179 46.7815 91.5793 43.9745 87.4741C41.2026 83.3337 39.8166 78.2636 39.8166 72.2636C39.8166 67.7373 40.6236 63.6847 42.2376 60.1058C43.8868 56.5269 46.185 53.5094 49.1323 51.0532C52.0797 48.562 55.606 46.6673 59.7112 45.3691C63.8515 44.0357 68.4305 43.3691 73.448 43.3691C78.2901 43.3691 82.7462 43.8778 86.8163 44.8954C90.8865 45.9129 94.4479 47.4568 97.5005 49.5269C100.553 51.562 103.027 54.1058 104.921 57.1585C106.851 60.2111 108.079 63.79 108.606 67.8952C108.746 69.018 108.658 70.0882 108.343 71.1057C108.062 72.1233 107.606 73.0531 106.974 73.8952C106.343 74.7022 105.553 75.3864 104.606 75.9478C103.693 76.4741 102.676 76.8075 101.553 76.9478C100.395 77.1233 99.2899 77.0706 98.2373 76.7899C97.2198 76.5092 96.29 76.0706 95.4479 75.4741C94.6408 74.8777 93.9566 74.1408 93.3952 73.2636C92.8338 72.3514 92.4479 71.3338 92.2373 70.211C91.8514 68.2461 91.1847 66.4566 90.2374 64.8426C89.3251 63.2286 88.1321 61.8426 86.6584 60.6848C85.2198 59.5269 83.5356 58.6321 81.6058 58.0006C79.676 57.369 77.5357 57.0532 75.1848 57.0532C71.1848 57.0532 67.9743 57.5093 65.5533 58.4216C63.1323 59.2988 61.2551 60.4567 59.9217 61.8953C58.6235 63.3339 57.7463 64.9654 57.2902 66.79C56.8691 68.6145 56.6586 70.4391 56.6586 72.2636C56.6586 73.9127 56.8691 75.3864 57.2902 76.6847C57.7463 77.9478 58.3954 79.1057 59.2375 80.1583C60.1147 81.1759 61.1849 82.1057 62.448 82.9478C63.7112 83.7899 65.1498 84.5793 66.7638 85.3162L88.7637 95.2635C92.4479 96.9126 95.7461 98.6845 98.6584 100.579C101.606 102.474 104.097 104.562 106.132 106.842C108.202 109.123 109.781 111.649 110.869 114.421C111.957 117.158 112.5 120.193 112.5 123.526C112.5 128.755 111.623 133.333 109.869 137.263C108.114 141.158 105.606 144.421 102.343 147.053C99.0794 149.649 95.1145 151.614 90.4479 152.947C85.8163 154.246 80.5883 154.895 74.7638 154.895C68.6585 154.895 63.3603 154.211 58.8691 152.842C54.3779 151.474 50.6411 149.456 47.6587 146.79C44.6762 144.088 42.4131 140.772 40.8692 136.842C39.3605 132.877 38.5359 128.316 38.3956 123.158C38.3605 122.035 38.5184 120.983 38.8692 120C39.2201 119.018 39.7289 118.158 40.3955 117.421C41.0622 116.649 41.8517 116.035 42.764 115.579C43.7113 115.123 44.7639 114.86 45.9218 114.79C47.1499 114.755 48.2727 114.93 49.2902 115.316C50.3078 115.667 51.1674 116.193 51.8692 116.895C52.606 117.562 53.1674 118.369 53.5534 119.316C53.9744 120.263 54.22 121.281 54.2902 122.369ZM145.763 71.5268H153.342C154.325 71.5268 155.202 71.7022 155.974 72.0531C156.781 72.3689 157.465 72.825 158.026 73.4215C158.588 73.9829 159.009 74.6671 159.29 75.4741C159.605 76.2461 159.763 77.0706 159.763 77.9478C159.763 78.8601 159.605 79.7022 159.29 80.4741C159.009 81.246 158.588 81.9302 158.026 82.5267C157.465 83.1232 156.781 83.5969 155.974 83.9478C155.202 84.2636 154.325 84.4215 153.342 84.4215H145.763V134.158C145.763 135.702 145.886 136.877 146.132 137.684C146.377 138.491 146.781 139.07 147.342 139.421C147.904 139.772 148.641 139.965 149.553 140C150.5 140 151.658 139.983 153.026 139.947C153.904 139.912 154.728 140.07 155.5 140.421C156.307 140.737 157.009 141.193 157.605 141.79C158.202 142.386 158.658 143.088 158.974 143.895C159.325 144.702 159.5 145.544 159.5 146.421C159.5 148.351 158.869 149.877 157.605 151C156.342 152.088 154.816 152.719 153.026 152.895C148.325 153.386 144.483 153.404 141.5 152.947C138.553 152.491 136.22 151.509 134.5 150C132.781 148.456 131.606 146.333 130.974 143.632C130.342 140.93 130.027 137.544 130.027 133.474V84.4215H125.132C124.149 84.4215 123.255 84.2636 122.448 83.9478C121.676 83.5969 121.009 83.1232 120.448 82.5267C119.886 81.9302 119.448 81.246 119.132 80.4741C118.851 79.7022 118.711 78.8601 118.711 77.9478C118.711 77.0706 118.851 76.2461 119.132 75.4741C119.448 74.6671 119.886 73.9829 120.448 73.4215C121.009 72.825 121.676 72.3689 122.448 72.0531C123.255 71.7022 124.149 71.5268 125.132 71.5268H130.027V56.1585C130.027 54.9655 130.22 53.8778 130.606 52.8953C131.027 51.9129 131.588 51.0883 132.29 50.4217C133.027 49.7199 133.869 49.1936 134.816 48.8427C135.763 48.4568 136.781 48.2638 137.869 48.2638C138.956 48.2638 139.974 48.4568 140.921 48.8427C141.904 49.1936 142.746 49.7199 143.448 50.4217C144.149 51.0883 144.711 51.9129 145.132 52.8953C145.553 53.8778 145.763 54.9655 145.763 56.1585V71.5268ZM189.5 141.105C192.307 141.105 194.693 140.561 196.658 139.474C198.623 138.351 200.219 136.965 201.447 135.316C202.675 133.667 203.552 131.895 204.079 130C204.64 128.105 204.921 126.351 204.921 124.737V114.105C204.465 114.07 204.009 114.053 203.552 114.053C203.096 114.018 202.605 114 202.079 114C200.745 114 199.289 114.088 197.71 114.263C196.131 114.404 194.535 114.702 192.921 115.158C191.307 115.579 189.746 116.176 188.237 116.948C186.728 117.72 185.377 118.719 184.184 119.948C183.026 121.141 182.096 122.597 181.395 124.316C180.693 126.035 180.342 128.053 180.342 130.369C180.342 132.123 180.57 133.684 181.026 135.053C181.518 136.386 182.184 137.509 183.026 138.421C183.868 139.298 184.833 139.965 185.921 140.421C187.044 140.877 188.237 141.105 189.5 141.105ZM194.447 70.3689C196.588 70.3689 198.728 70.5093 200.868 70.79C203.009 71.0356 205.061 71.5093 207.026 72.211C208.991 72.8777 210.816 73.8075 212.5 75.0005C214.219 76.1934 215.693 77.7373 216.921 79.632C218.184 81.4916 219.166 83.7548 219.868 86.4214C220.57 89.053 220.921 92.1407 220.921 95.6845V136.211C220.921 138 221.079 139.614 221.394 141.053C221.745 142.491 222.026 143.772 222.237 144.895C222.342 145.526 222.394 146.14 222.394 146.737C222.394 147.719 222.219 148.667 221.868 149.579C221.517 150.491 220.991 151.298 220.289 152C219.623 152.702 218.763 153.263 217.71 153.684C216.658 154.105 215.43 154.316 214.026 154.316C213.184 154.316 212.324 154.211 211.447 154C210.605 153.825 209.816 153.509 209.079 153.053C208.342 152.632 207.71 152.035 207.184 151.263C206.658 150.491 206.289 149.526 206.079 148.368C206.079 148.263 206.061 148.018 206.026 147.632C205.991 147.211 205.956 146.772 205.921 146.316C205.921 145.825 205.903 145.368 205.868 144.947C205.868 144.526 205.868 144.263 205.868 144.158C203.412 147.667 200.675 150.316 197.658 152.105C194.675 153.895 191.167 154.789 187.132 154.789C184.079 154.789 181.202 154.316 178.5 153.368C175.833 152.421 173.482 150.965 171.447 149C169.447 147.035 167.851 144.544 166.658 141.526C165.5 138.509 164.921 134.93 164.921 130.79C164.921 127 165.465 123.667 166.553 120.79C167.676 117.877 169.132 115.369 170.921 113.263C172.746 111.158 174.833 109.404 177.184 108C179.535 106.597 181.956 105.474 184.447 104.632C186.974 103.79 189.465 103.193 191.921 102.842C194.412 102.492 196.693 102.316 198.763 102.316C200.237 102.316 201.447 102.334 202.395 102.369C203.377 102.404 204.219 102.456 204.921 102.527V96.1056C204.921 93.3688 204.57 91.1583 203.868 89.4741C203.202 87.7548 202.342 86.4214 201.289 85.4741C200.237 84.4916 199.061 83.825 197.763 83.4741C196.465 83.1232 195.202 82.9478 193.974 82.9478C190.57 82.9478 187.886 83.5969 185.921 84.8951C183.956 86.1934 182.658 88.2986 182.026 91.2109C181.746 92.3337 181.377 93.2811 180.921 94.053C180.465 94.7898 179.921 95.4038 179.289 95.8951C178.693 96.3512 178.044 96.6845 177.342 96.8951C176.64 97.1056 175.904 97.2109 175.132 97.2109C174.044 97.2109 173.044 97.0179 172.132 96.6319C171.254 96.2109 170.5 95.667 169.868 95.0003C169.237 94.3337 168.746 93.5618 168.395 92.6846C168.044 91.7723 167.868 90.8249 167.868 89.8425C167.868 87.3162 168.483 84.8776 169.711 82.5267C170.974 80.1759 172.746 78.1057 175.026 76.3162C177.342 74.5268 180.132 73.0882 183.395 72.0005C186.693 70.9128 190.377 70.3689 194.447 70.3689ZM275.184 71.0531C276.236 71.018 277.201 71.1759 278.078 71.5268C278.956 71.8426 279.71 72.3163 280.341 72.9478C281.008 73.5794 281.517 74.3513 281.868 75.2636C282.254 76.1759 282.447 77.1934 282.447 78.3162C282.447 79.3338 282.254 80.2811 281.868 81.1583C281.517 82.0004 281.026 82.7548 280.394 83.4215C279.763 84.053 278.991 84.5618 278.078 84.9478C277.201 85.3337 276.236 85.5267 275.184 85.5267C272.201 85.5618 269.517 86.0881 267.131 87.1056C264.745 88.0881 262.71 89.4565 261.026 91.2109C259.342 92.9302 258.043 94.9828 257.131 97.3687C256.254 99.7547 255.815 102.334 255.815 105.106V146.158C255.815 147.351 255.605 148.439 255.184 149.421C254.763 150.404 254.201 151.246 253.5 151.947C252.798 152.614 251.956 153.123 250.973 153.474C250.026 153.86 249.008 154.053 247.921 154.053C246.833 154.053 245.815 153.86 244.868 153.474C243.921 153.123 243.079 152.614 242.342 151.947C241.64 151.246 241.079 150.404 240.658 149.421C240.272 148.439 240.079 147.351 240.079 146.158V78.1583C240.079 77.0004 240.289 75.9654 240.71 75.0531C241.131 74.1057 241.693 73.2987 242.394 72.6321C243.096 71.9303 243.921 71.404 244.868 71.0531C245.85 70.6671 246.868 70.4742 247.921 70.4742C248.973 70.4742 249.973 70.6671 250.921 71.0531C251.903 71.404 252.745 71.9128 253.447 72.5794C254.184 73.2461 254.763 74.0531 255.184 75.0005C255.605 75.9478 255.815 77.0004 255.815 78.1583V81.4215C258.131 78.1583 260.885 75.6671 264.078 73.9478C267.271 72.1935 270.973 71.2285 275.184 71.0531ZM309.973 71.5268H317.552C318.534 71.5268 319.411 71.7022 320.183 72.0531C320.99 72.3689 321.675 72.825 322.236 73.4215C322.797 73.9829 323.218 74.6671 323.499 75.4741C323.815 76.2461 323.973 77.0706 323.973 77.9478C323.973 78.8601 323.815 79.7022 323.499 80.4741C323.218 81.246 322.797 81.9302 322.236 82.5267C321.675 83.1232 320.99 83.5969 320.183 83.9478C319.411 84.2636 318.534 84.4215 317.552 84.4215H309.973V134.158C309.973 135.702 310.096 136.877 310.341 137.684C310.587 138.491 310.99 139.07 311.552 139.421C312.113 139.772 312.85 139.965 313.762 140C314.71 140 315.868 139.983 317.236 139.947C318.113 139.912 318.938 140.07 319.71 140.421C320.517 140.737 321.218 141.193 321.815 141.79C322.411 142.386 322.868 143.088 323.183 143.895C323.534 144.702 323.71 145.544 323.71 146.421C323.71 148.351 323.078 149.877 321.815 151C320.552 152.088 319.025 152.719 317.236 152.895C312.534 153.386 308.692 153.404 305.71 152.947C302.762 152.491 300.429 151.509 298.71 150C296.991 148.456 295.815 146.333 295.184 143.632C294.552 140.93 294.236 137.544 294.236 133.474V84.4215H289.341C288.359 84.4215 287.464 84.2636 286.657 83.9478C285.885 83.5969 285.219 83.1232 284.657 82.5267C284.096 81.9302 283.657 81.246 283.341 80.4741C283.061 79.7022 282.92 78.8601 282.92 77.9478C282.92 77.0706 283.061 76.2461 283.341 75.4741C283.657 74.6671 284.096 73.9829 284.657 73.4215C285.219 72.825 285.885 72.3689 286.657 72.0531C287.464 71.7022 288.359 71.5268 289.341 71.5268H294.236V56.1585C294.236 54.9655 294.429 53.8778 294.815 52.8953C295.236 51.9129 295.798 51.0883 296.499 50.4217C297.236 49.7199 298.078 49.1936 299.026 48.8427C299.973 48.4568 300.991 48.2638 302.078 48.2638C303.166 48.2638 304.183 48.4568 305.131 48.8427C306.113 49.1936 306.955 49.7199 307.657 50.4217C308.359 51.0883 308.92 51.9129 309.341 52.8953C309.762 53.8778 309.973 54.9655 309.973 56.1585V71.5268Z" fill="url(#paint0_linear_1832_229)"/>
</g>
</g>
<defs>
<filter id="filter0_g_1832_229" x="33.5524" y="38.5787" width="295.211" height="121.106" filterUnits="userSpaceOnUse" color-interpolation-filters="sRGB">
<feFlood flood-opacity="0" result="BackgroundImageFix"/>
<feBlend mode="normal" in="SourceGraphic" in2="BackgroundImageFix" result="shape"/>
<feTurbulence type="fractalNoise" baseFrequency="0.020875012502074242 0.020875012502074242" numOctaves="3" seed="6722" />
<feDisplacementMap in="shape" scale="9.5808334350585938" xChannelSelector="R" yChannelSelector="G" result="displacedImage" width="100%" height="100%" />
<feMerge result="effect1_texture_1832_229">
<feMergeNode in="displacedImage"/>
</feMerge>
</filter>
<linearGradient id="paint0_linear_1832_229" x1="178.5" y1="59.2505" x2="178.5" y2="232" gradientUnits="userSpaceOnUse">
<stop stop-color="#E4002B"/>
<stop offset="1" stop-color="#E4002B" stop-opacity="0"/>
</linearGradient>
<clipPath id="clip0_1832_229">
<rect width="358" height="206" fill="white"/>
</clipPath>
</defs>
</svg>
