<svg width="288" height="152" viewBox="0 0 288 152" fill="none" xmlns="http://www.w3.org/2000/svg">
<path d="M26.5215 20.6602C25.9121 20.6758 25.373 20.7852 24.9043 20.9883C24.4355 21.1914 24.0449 21.4727 23.7324 21.832C23.4199 22.1914 23.1816 22.6211 23.0176 23.1211C22.8613 23.6133 22.7832 24.1641 22.7832 24.7734V28.3711C22.7832 28.6523 22.7363 28.9023 22.6426 29.1211C22.5488 29.3398 22.4199 29.5273 22.2559 29.6836C22.0996 29.832 21.9121 29.9453 21.6934 30.0234C21.4746 30.1016 21.2441 30.1406 21.002 30.1406C20.752 30.1406 20.5176 30.0977 20.2988 30.0117C20.0879 29.9336 19.9043 29.8203 19.748 29.6719C19.5918 29.5156 19.4668 29.3281 19.373 29.1094C19.2793 28.8906 19.2324 28.6445 19.2324 28.3711V14.6953C19.2324 13.7734 19.4121 12.9531 19.7715 12.2344C20.1387 11.5156 20.6426 10.9141 21.2832 10.4297C21.9316 9.9375 22.6973 9.56641 23.5801 9.31641C24.4629 9.05859 25.4277 8.92969 26.4746 8.92969C27.5059 8.92969 28.4629 9.05859 29.3457 9.31641C30.2285 9.56641 30.9941 9.9375 31.6426 10.4297C32.2988 10.9141 32.8105 11.5156 33.1777 12.2344C33.5449 12.9531 33.7285 13.7734 33.7285 14.6953V28.3711C33.7285 28.6523 33.6816 28.9023 33.5879 29.1211C33.4941 29.3398 33.3652 29.5273 33.2012 29.6836C33.0449 29.832 32.8574 29.9453 32.6387 30.0234C32.4199 30.1016 32.1895 30.1406 31.9473 30.1406C31.6973 30.1406 31.4629 30.0977 31.2441 30.0117C31.0332 29.9336 30.8496 29.8203 30.6934 29.6719C30.5371 29.5156 30.4121 29.3281 30.3184 29.1094C30.2246 28.8906 30.1777 28.6445 30.1777 28.3711V15.4102C30.1777 14.8945 30.1113 14.4258 29.9785 14.0039C29.8535 13.5742 29.6426 13.2109 29.3457 12.9141C29.0566 12.6094 28.6777 12.375 28.209 12.2109C27.7402 12.0391 27.1621 11.9531 26.4746 11.9531C25.7793 11.9531 25.1934 12.0352 24.7168 12.1992C24.248 12.3633 23.8691 12.5938 23.5801 12.8906C23.2988 13.1875 23.0957 13.5508 22.9707 13.9805C22.8457 14.4102 22.7832 14.8867 22.7832 15.4102V19.5352C23.252 18.9336 23.7754 18.4531 24.3535 18.0938C24.9316 17.7344 25.5762 17.5234 26.2871 17.4609C26.5059 17.4453 26.7168 17.4727 26.9199 17.543C27.123 17.6133 27.3027 17.7148 27.459 17.8477C27.6152 17.9805 27.7402 18.1445 27.834 18.3398C27.9355 18.5273 27.9941 18.7305 28.0098 18.9492C28.0254 19.1758 27.998 19.3906 27.9277 19.5938C27.8574 19.7969 27.7559 19.9766 27.623 20.1328C27.4902 20.2891 27.3262 20.4141 27.1309 20.5078C26.9434 20.6016 26.7402 20.6523 26.5215 20.6602ZM30.459 35.2031H30.0137C29.7949 35.2031 29.5957 35.1641 29.416 35.0859C29.2363 35.0156 29.084 34.9141 28.959 34.7812C28.834 34.6484 28.7402 34.4961 28.6777 34.3242C28.6074 34.1523 28.5723 33.9648 28.5723 33.7617C28.5723 33.5664 28.6074 33.3789 28.6777 33.1992C28.748 33.0273 28.8457 32.875 28.9707 32.7422C29.0957 32.6094 29.248 32.5039 29.4277 32.4258C29.5996 32.3555 29.7949 32.3203 30.0137 32.3203H32.2754C32.4707 32.3203 32.6582 32.3555 32.8379 32.4258C33.0098 32.5039 33.1621 32.6094 33.2949 32.7422C33.4277 32.875 33.5332 33.0273 33.6113 33.1992C33.6816 33.3789 33.7168 33.5664 33.7168 33.7617V38.8008C33.7168 39.0273 33.6738 39.2383 33.5879 39.4336C33.502 39.6367 33.3887 39.8086 33.248 39.9492C33.0996 40.0977 32.9277 40.2148 32.7324 40.3008C32.5293 40.3867 32.3145 40.4297 32.0879 40.4297C31.8613 40.4297 31.6504 40.3867 31.4551 40.3008C31.252 40.2148 31.0801 40.0977 30.9395 39.9492C30.791 39.8086 30.6738 39.6367 30.5879 39.4336C30.502 39.2383 30.459 39.0273 30.459 38.8008V35.2031ZM52.0566 23.8125C52.0566 24.2812 52.0996 24.7109 52.1855 25.1016C52.2715 25.4844 52.4082 25.8164 52.5957 26.0977C52.791 26.3789 53.0488 26.5977 53.3691 26.7539C53.6895 26.9023 54.084 26.9766 54.5527 26.9766C55.2012 26.9766 55.748 26.8281 56.1934 26.5312C56.6465 26.2266 57.0137 25.8398 57.2949 25.3711C57.584 24.9023 57.7949 24.3867 57.9277 23.8242C58.0605 23.2617 58.1348 22.7148 58.1504 22.1836V10.7109C58.1504 10.4375 58.1973 10.1914 58.291 9.97266C58.3848 9.75391 58.5098 9.57031 58.666 9.42188C58.8223 9.26562 59.0059 9.14844 59.2168 9.07031C59.4355 8.98438 59.6699 8.94141 59.9199 8.94141C60.1621 8.94141 60.3926 8.98047 60.6113 9.05859C60.8301 9.13672 61.0176 9.25391 61.1738 9.41016C61.3379 9.55859 61.4668 9.74219 61.5605 9.96094C61.6543 10.1797 61.7012 10.4297 61.7012 10.7109V28.4531C61.7012 28.7031 61.6543 28.9336 61.5605 29.1445C61.4668 29.3477 61.3379 29.5234 61.1738 29.6719C61.0176 29.8203 60.834 29.9336 60.623 30.0117C60.4199 30.0977 60.2012 30.1406 59.9668 30.1406C59.7324 30.1406 59.5098 30.0977 59.2988 30.0117C59.0957 29.9336 58.916 29.8203 58.7598 29.6719C58.6035 29.5234 58.4785 29.3477 58.3848 29.1445C58.291 28.9336 58.2441 28.7031 58.2441 28.4531V27.9375C57.9473 28.2344 57.6191 28.5117 57.2598 28.7695C56.9004 29.0195 56.5215 29.2383 56.123 29.4258C55.7246 29.6055 55.3145 29.7461 54.8926 29.8477C54.4785 29.9492 54.0605 30 53.6387 30C52.9277 30 52.2598 29.8945 51.6348 29.6836C51.0176 29.4727 50.4746 29.1484 50.0059 28.7109C49.5449 28.2734 49.1777 27.7227 48.9043 27.0586C48.6387 26.3867 48.5059 25.5938 48.5059 24.6797V15.2227C48.5059 14.7227 48.4121 14.2734 48.2246 13.875C48.0371 13.4688 47.7754 13.1289 47.4395 12.8555C47.1035 12.582 46.7012 12.3711 46.2324 12.2227C45.7715 12.0742 45.2637 12 44.709 12C44.2793 12 43.8535 12.043 43.4316 12.1289C43.0098 12.207 42.6113 12.3203 42.2363 12.4688C41.8691 12.6094 41.5371 12.7812 41.2402 12.9844C40.9512 13.1797 40.7168 13.3945 40.5371 13.6289C40.6309 13.7773 40.7246 13.9492 40.8184 14.1445C40.9121 14.332 40.9941 14.5352 41.0645 14.7539C41.1348 14.9727 41.1895 15.1953 41.2285 15.4219C41.2754 15.6484 41.2988 15.8672 41.2988 16.0781V26.8828H42.3066C42.541 26.8828 42.748 26.9219 42.9277 27C43.1152 27.0781 43.2754 27.1875 43.4082 27.3281C43.541 27.4609 43.6426 27.6211 43.7129 27.8086C43.7832 27.9883 43.8184 28.1836 43.8184 28.3945C43.8184 28.6055 43.7832 28.8047 43.7129 28.9922C43.6426 29.1719 43.541 29.332 43.4082 29.4727C43.2754 29.6055 43.1152 29.7109 42.9277 29.7891C42.748 29.8672 42.541 29.9062 42.3066 29.9062H39.2598C39.0254 29.9062 38.8145 29.8672 38.627 29.7891C38.4473 29.7109 38.291 29.6055 38.1582 29.4727C38.0254 29.332 37.9238 29.1719 37.8535 28.9922C37.7832 28.8047 37.748 28.6055 37.748 28.3945V15.8906C37.748 15.5156 37.6816 15.1758 37.5488 14.8711C37.416 14.5586 37.2051 14.3125 36.916 14.1328C36.6973 14 36.6113 13.8398 36.6582 13.6523C36.7129 13.4648 36.834 13.2227 37.0215 12.9258C37.459 12.2461 37.959 11.6562 38.5215 11.1562C39.0918 10.6562 39.7051 10.2422 40.3613 9.91406C41.0176 9.57812 41.7129 9.33203 42.4473 9.17578C43.1816 9.01172 43.9355 8.92969 44.709 8.92969C45.6699 8.92969 46.5918 9.05469 47.4746 9.30469C48.3652 9.54688 49.1465 9.90625 49.8184 10.3828C50.498 10.8594 51.041 11.4414 51.4473 12.1289C51.8535 12.8164 52.0566 13.6055 52.0566 14.4961V23.8125ZM71.5918 18.9141C71.5918 18.6328 71.6387 18.3828 71.7324 18.1641C71.8262 17.9453 71.9512 17.7617 72.1074 17.6133C72.2715 17.457 72.459 17.3398 72.6699 17.2617C72.8887 17.1836 73.123 17.1445 73.373 17.1445C73.6152 17.1445 73.8457 17.1875 74.0645 17.2734C74.2832 17.3516 74.4707 17.4688 74.627 17.625C74.7832 17.7734 74.9082 17.957 75.002 18.1758C75.0957 18.3945 75.1426 18.6406 75.1426 18.9141V23.5195C75.1426 24.0117 75.1543 24.4727 75.1777 24.9023C75.2012 25.332 75.2598 25.7109 75.3535 26.0391C75.4551 26.3594 75.5996 26.6133 75.7871 26.8008C75.9824 26.9805 76.248 27.0703 76.584 27.0703C76.9902 27.0703 77.2832 26.8438 77.4629 26.3906C77.6426 25.9375 77.7324 25.207 77.7324 24.1992V10.6992C77.7324 10.418 77.7793 10.168 77.873 9.94922C77.9668 9.73047 78.0918 9.54688 78.248 9.39844C78.4121 9.24219 78.5996 9.125 78.8105 9.04688C79.0293 8.96875 79.2637 8.92969 79.5137 8.92969C79.7559 8.92969 79.9863 8.97266 80.2051 9.05859C80.4238 9.13672 80.6113 9.25391 80.7676 9.41016C80.9238 9.55859 81.0488 9.74219 81.1426 9.96094C81.2363 10.1797 81.2832 10.4258 81.2832 10.6992V24.8203C81.2832 25.7109 81.1777 26.4844 80.9668 27.1406C80.7637 27.7891 80.4746 28.332 80.0996 28.7695C79.7246 29.1992 79.2754 29.5195 78.752 29.7305C78.2285 29.9414 77.6504 30.0469 77.0176 30.0469C76.2441 30.0469 75.5371 29.8906 74.8965 29.5781C74.2637 29.2578 73.7559 28.8086 73.373 28.2305C73.0059 28.832 72.5332 29.2852 71.9551 29.5898C71.3848 29.8945 70.6895 30.0469 69.8691 30.0469C69.2051 30.0469 68.5996 29.9414 68.0527 29.7305C67.5137 29.5195 67.0488 29.1992 66.6582 28.7695C66.2754 28.332 65.9785 27.7891 65.7676 27.1406C65.5566 26.4844 65.4512 25.7109 65.4512 24.8203V10.6875C65.4512 10.4766 65.4863 10.2812 65.5566 10.1016C65.627 9.91406 65.7285 9.75391 65.8613 9.62109C65.9941 9.48047 66.1504 9.37109 66.3301 9.29297C66.5176 9.21484 66.7285 9.17578 66.9629 9.17578H70.0098C70.2441 9.17578 70.4512 9.21484 70.6309 9.29297C70.8184 9.37109 70.9785 9.48047 71.1113 9.62109C71.2441 9.75391 71.3457 9.91406 71.416 10.1016C71.4863 10.2812 71.5215 10.4766 71.5215 10.6875C71.5215 10.8984 71.4863 11.0977 71.416 11.2852C71.3457 11.4648 71.2441 11.625 71.1113 11.7656C70.9785 11.8984 70.8184 12.0039 70.6309 12.082C70.4512 12.1602 70.2441 12.1992 70.0098 12.1992H69.002V24.1992C69.002 25.207 69.1074 25.9375 69.3184 26.3906C69.5371 26.8438 69.8613 27.0703 70.291 27.0703C70.6191 27.0703 70.8691 26.9805 71.041 26.8008C71.2207 26.6133 71.3496 26.3594 71.4277 26.0391C71.5137 25.7109 71.5605 25.332 71.5684 24.9023C71.584 24.4727 71.5918 24.0117 71.5918 23.5195V18.9141ZM81.248 4.98047C81.248 5.23828 81.2051 5.47266 81.1191 5.68359C81.0332 5.89453 80.916 6.07422 80.7676 6.22266C80.6113 6.36328 80.4316 6.47266 80.2285 6.55078C80.0254 6.62891 79.8066 6.66797 79.5723 6.66797C79.3379 6.66797 79.1191 6.62891 78.916 6.55078C78.7129 6.47266 78.5371 6.36328 78.3887 6.22266C78.2324 6.07422 78.1113 5.89453 78.0254 5.68359C77.9316 5.47266 77.8848 5.23828 77.8848 4.98047V1.6875C77.8848 1.42969 77.9316 1.19531 78.0254 0.984375C78.1113 0.773438 78.2324 0.597656 78.3887 0.457031C78.5371 0.308594 78.7129 0.195312 78.916 0.117188C79.1191 0.0390625 79.3379 0 79.5723 0C79.8066 0 80.0254 0.0390625 80.2285 0.117188C80.4316 0.195312 80.6113 0.308594 80.7676 0.457031C80.916 0.597656 81.0332 0.773438 81.1191 0.984375C81.2051 1.19531 81.248 1.42969 81.248 1.6875V4.98047ZM95.8027 28.3711C95.8027 28.6523 95.7559 28.9023 95.6621 29.1211C95.5684 29.3398 95.4395 29.5273 95.2754 29.6836C95.1191 29.832 94.9316 29.9453 94.7129 30.0234C94.4941 30.1016 94.2637 30.1406 94.0215 30.1406C93.7715 30.1406 93.5371 30.0977 93.3184 30.0117C93.1074 29.9336 92.9238 29.8203 92.7676 29.6719C92.6113 29.5156 92.4863 29.3281 92.3926 29.1094C92.2988 28.8906 92.252 28.6445 92.252 28.3711V15.0703C92.252 14.5703 92.1855 14.125 92.0527 13.7344C91.9277 13.3359 91.748 13.0039 91.5137 12.7383C91.2793 12.4648 90.9941 12.2578 90.6582 12.1172C90.3301 11.9766 89.9629 11.9062 89.5566 11.9062C89.252 11.9062 88.959 11.9531 88.6777 12.0469C88.3965 12.1406 88.1387 12.2812 87.9043 12.4688C87.6699 12.6484 87.4668 12.8711 87.2949 13.1367C87.123 13.4023 86.9902 13.707 86.8965 14.0508C86.834 14.2852 86.7246 14.4883 86.5684 14.6602C86.4121 14.8242 86.2324 14.957 86.0293 15.0586C85.8262 15.1523 85.6035 15.207 85.3613 15.2227C85.127 15.2383 84.8965 15.2031 84.6699 15.1172C84.4434 15.0391 84.2441 14.9219 84.0723 14.7656C83.9082 14.6094 83.7793 14.4336 83.6855 14.2383C83.5918 14.0352 83.5332 13.8203 83.5098 13.5938C83.4941 13.3594 83.5215 13.1289 83.5918 12.9023C83.7793 12.2539 84.0762 11.6836 84.4824 11.1914C84.8887 10.6914 85.3613 10.2773 85.9004 9.94922C86.4395 9.61328 87.0215 9.35938 87.6465 9.1875C88.2793 9.01562 88.916 8.92969 89.5566 8.92969C90.3145 8.92969 91.0645 9.04688 91.8066 9.28125C92.5488 9.51562 93.2168 9.86719 93.8105 10.3359C94.4043 10.7969 94.8848 11.375 95.252 12.0703C95.6191 12.7656 95.8027 13.5742 95.8027 14.4961V28.3711ZM113.92 28.3945C113.92 28.6523 113.873 28.8906 113.779 29.1094C113.693 29.3203 113.572 29.5039 113.416 29.6602C113.26 29.8086 113.076 29.9219 112.865 30C112.662 30.0859 112.439 30.1289 112.197 30.1289C111.955 30.1289 111.729 30.0859 111.518 30C111.307 29.9219 111.123 29.8086 110.967 29.6602C110.811 29.5039 110.686 29.3203 110.592 29.1094C110.506 28.8984 110.463 28.6602 110.463 28.3945V27.9375C110.104 28.2734 109.736 28.5781 109.361 28.8516C108.994 29.1172 108.607 29.3477 108.201 29.543C107.803 29.7305 107.373 29.875 106.912 29.9766C106.459 30.0859 105.971 30.1406 105.447 30.1406C104.643 30.1406 103.885 30.0273 103.174 29.8008C102.463 29.5664 101.838 29.2188 101.299 28.7578C100.768 28.2891 100.346 27.7109 100.033 27.0234C99.7285 26.3359 99.5762 25.5352 99.5762 24.6211V10.6992C99.5762 10.418 99.623 10.168 99.7168 9.94922C99.8105 9.73047 99.9355 9.54688 100.092 9.39844C100.256 9.24219 100.443 9.125 100.654 9.04688C100.873 8.96875 101.107 8.92969 101.357 8.92969C101.6 8.92969 101.83 8.97266 102.049 9.05859C102.268 9.13672 102.455 9.25391 102.611 9.41016C102.768 9.55859 102.893 9.74219 102.986 9.96094C103.08 10.1797 103.127 10.4258 103.127 10.6992V24.2461C103.127 24.6758 103.189 25.0664 103.314 25.418C103.439 25.7695 103.631 26.0742 103.889 26.332C104.146 26.582 104.467 26.7773 104.85 26.918C105.232 27.0508 105.682 27.1172 106.197 27.1172C106.916 27.1172 107.537 26.9883 108.061 26.7305C108.592 26.4648 109.025 26.1172 109.361 25.6875C109.705 25.25 109.959 24.7461 110.123 24.1758C110.287 23.6055 110.369 23.0156 110.369 22.4062V10.6992C110.369 10.418 110.416 10.168 110.51 9.94922C110.604 9.73047 110.729 9.54688 110.885 9.39844C111.049 9.24219 111.236 9.125 111.447 9.04688C111.666 8.96875 111.9 8.92969 112.15 8.92969C112.393 8.92969 112.623 8.97266 112.842 9.05859C113.061 9.13672 113.248 9.25391 113.404 9.41016C113.561 9.55859 113.686 9.74219 113.779 9.96094C113.873 10.1797 113.92 10.4258 113.92 10.6992V28.3945ZM117.67 10.6992C117.67 10.4258 117.717 10.1797 117.811 9.96094C117.904 9.74219 118.029 9.55859 118.186 9.41016C118.342 9.25391 118.525 9.13672 118.736 9.05859C118.955 8.97266 119.189 8.92969 119.439 8.92969C119.682 8.92969 119.912 8.96875 120.131 9.04688C120.35 9.125 120.537 9.24219 120.693 9.39844C120.857 9.54688 120.986 9.73047 121.08 9.94922C121.174 10.168 121.221 10.418 121.221 10.6992V22.4062C121.221 23.0156 121.303 23.6055 121.467 24.1758C121.631 24.7461 121.881 25.25 122.217 25.6875C122.561 26.1172 122.994 26.4648 123.518 26.7305C124.049 26.9883 124.674 27.1172 125.393 27.1172C125.908 27.1172 126.357 27.0508 126.74 26.918C127.123 26.7773 127.443 26.582 127.701 26.332C127.959 26.0742 128.15 25.7695 128.275 25.418C128.4 25.0664 128.463 24.6758 128.463 24.2461V10.6992C128.463 10.4258 128.51 10.1797 128.604 9.96094C128.697 9.74219 128.822 9.55859 128.979 9.41016C129.135 9.25391 129.318 9.13672 129.529 9.05859C129.748 8.97266 129.982 8.92969 130.232 8.92969C130.475 8.92969 130.705 8.96875 130.924 9.04688C131.143 9.125 131.33 9.24219 131.486 9.39844C131.65 9.54688 131.779 9.73047 131.873 9.94922C131.967 10.168 132.014 10.418 132.014 10.6992V24.6211C132.014 25.5352 131.857 26.3359 131.545 27.0234C131.232 27.7109 130.811 28.2891 130.279 28.7578C129.748 29.2188 129.127 29.5664 128.416 29.8008C127.705 30.0273 126.947 30.1406 126.143 30.1406C125.611 30.1406 125.119 30.0859 124.666 29.9766C124.213 29.875 123.783 29.7305 123.377 29.543C122.979 29.3477 122.592 29.1172 122.217 28.8516C121.85 28.5781 121.486 28.2734 121.127 27.9375V28.3945C121.127 28.6602 121.08 28.8984 120.986 29.1094C120.9 29.3203 120.779 29.5039 120.623 29.6602C120.467 29.8086 120.283 29.9219 120.072 30C119.861 30.0859 119.635 30.1289 119.393 30.1289C119.15 30.1289 118.924 30.0859 118.713 30C118.51 29.9219 118.33 29.8086 118.174 29.6602C118.018 29.5039 117.893 29.3203 117.799 29.1094C117.713 28.8906 117.67 28.6523 117.67 28.3945V10.6992ZM124.502 6.38672C124.291 6.38672 124.096 6.34766 123.916 6.26953C123.729 6.19141 123.568 6.08594 123.436 5.95312C123.295 5.8125 123.186 5.65234 123.107 5.47266C123.029 5.28516 122.99 5.08594 122.99 4.875V3.03516C122.99 2.81641 123.029 2.61328 123.107 2.42578C123.186 2.23828 123.295 2.07813 123.436 1.94531C123.568 1.8125 123.729 1.71094 123.916 1.64062C124.096 1.5625 124.291 1.52344 124.502 1.52344C124.713 1.52344 124.912 1.5625 125.1 1.64062C125.279 1.71094 125.439 1.8125 125.58 1.94531C125.713 2.07813 125.818 2.23828 125.896 2.42578C125.975 2.61328 126.014 2.81641 126.014 3.03516V3.45703H133.83C134.033 3.45703 134.221 3.49609 134.393 3.57422C134.572 3.65234 134.729 3.75781 134.861 3.89062C134.994 4.02344 135.1 4.17969 135.178 4.35938C135.256 4.53125 135.295 4.71875 135.295 4.92188C135.295 5.125 135.256 5.31641 135.178 5.49609C135.1 5.66797 134.994 5.82031 134.861 5.95312C134.729 6.08594 134.572 6.19141 134.393 6.26953C134.221 6.34766 134.033 6.38672 133.83 6.38672H124.502ZM150.107 28.3945C150.107 28.6523 150.061 28.8906 149.967 29.1094C149.881 29.3203 149.76 29.5039 149.604 29.6602C149.447 29.8086 149.264 29.9219 149.053 30C148.85 30.0859 148.627 30.1289 148.385 30.1289C148.143 30.1289 147.916 30.0859 147.705 30C147.494 29.9219 147.311 29.8086 147.154 29.6602C146.998 29.5039 146.873 29.3203 146.779 29.1094C146.693 28.8984 146.65 28.6602 146.65 28.3945V27.9375C146.291 28.2734 145.924 28.5781 145.549 28.8516C145.182 29.1172 144.795 29.3477 144.389 29.543C143.99 29.7305 143.561 29.875 143.1 29.9766C142.646 30.0859 142.158 30.1406 141.635 30.1406C140.83 30.1406 140.072 30.0273 139.361 29.8008C138.65 29.5664 138.025 29.2188 137.486 28.7578C136.955 28.2891 136.533 27.7109 136.221 27.0234C135.916 26.3359 135.764 25.5352 135.764 24.6211V10.6992C135.764 10.418 135.811 10.168 135.904 9.94922C135.998 9.73047 136.123 9.54688 136.279 9.39844C136.443 9.24219 136.631 9.125 136.842 9.04688C137.061 8.96875 137.295 8.92969 137.545 8.92969C137.787 8.92969 138.018 8.97266 138.236 9.05859C138.455 9.13672 138.643 9.25391 138.799 9.41016C138.955 9.55859 139.08 9.74219 139.174 9.96094C139.268 10.1797 139.314 10.4258 139.314 10.6992V24.2461C139.314 24.6758 139.377 25.0664 139.502 25.418C139.627 25.7695 139.818 26.0742 140.076 26.332C140.334 26.582 140.654 26.7773 141.037 26.918C141.42 27.0508 141.869 27.1172 142.385 27.1172C143.104 27.1172 143.725 26.9883 144.248 26.7305C144.779 26.4648 145.213 26.1172 145.549 25.6875C145.893 25.25 146.146 24.7461 146.311 24.1758C146.475 23.6055 146.557 23.0156 146.557 22.4062V10.6992C146.557 10.418 146.604 10.168 146.697 9.94922C146.791 9.73047 146.916 9.54688 147.072 9.39844C147.236 9.24219 147.424 9.125 147.635 9.04688C147.854 8.96875 148.088 8.92969 148.338 8.92969C148.58 8.92969 148.811 8.97266 149.029 9.05859C149.248 9.13672 149.436 9.25391 149.592 9.41016C149.748 9.55859 149.873 9.74219 149.967 9.96094C150.061 10.1797 150.107 10.4258 150.107 10.6992V28.3945ZM153.857 10.6992C153.857 10.4258 153.904 10.1797 153.998 9.96094C154.092 9.74219 154.217 9.55859 154.373 9.41016C154.529 9.25391 154.713 9.13672 154.924 9.05859C155.143 8.97266 155.377 8.92969 155.627 8.92969C155.869 8.92969 156.1 8.96875 156.318 9.04688C156.537 9.125 156.725 9.24219 156.881 9.39844C157.045 9.54688 157.174 9.73047 157.268 9.94922C157.361 10.168 157.408 10.418 157.408 10.6992V22.4062C157.408 23.0156 157.49 23.6055 157.654 24.1758C157.818 24.7461 158.068 25.25 158.404 25.6875C158.748 26.1172 159.182 26.4648 159.705 26.7305C160.236 26.9883 160.861 27.1172 161.58 27.1172C162.096 27.1172 162.545 27.0508 162.928 26.918C163.311 26.7773 163.631 26.582 163.889 26.332C164.146 26.0742 164.338 25.7695 164.463 25.418C164.588 25.0664 164.65 24.6758 164.65 24.2461V10.6992C164.65 10.4258 164.697 10.1797 164.791 9.96094C164.885 9.74219 165.01 9.55859 165.166 9.41016C165.322 9.25391 165.506 9.13672 165.717 9.05859C165.936 8.97266 166.17 8.92969 166.42 8.92969C166.662 8.92969 166.893 8.96875 167.111 9.04688C167.33 9.125 167.518 9.24219 167.674 9.39844C167.838 9.54688 167.967 9.73047 168.061 9.94922C168.154 10.168 168.201 10.418 168.201 10.6992V24.6211C168.201 25.5352 168.045 26.3359 167.732 27.0234C167.42 27.7109 166.998 28.2891 166.467 28.7578C165.936 29.2188 165.314 29.5664 164.604 29.8008C163.893 30.0273 163.135 30.1406 162.33 30.1406C161.799 30.1406 161.307 30.0859 160.854 29.9766C160.4 29.875 159.971 29.7305 159.564 29.543C159.166 29.3477 158.779 29.1172 158.404 28.8516C158.037 28.5781 157.674 28.2734 157.314 27.9375V28.3945C157.314 28.6602 157.268 28.8984 157.174 29.1094C157.088 29.3203 156.967 29.5039 156.811 29.6602C156.654 29.8086 156.471 29.9219 156.26 30C156.049 30.0859 155.822 30.1289 155.58 30.1289C155.338 30.1289 155.111 30.0859 154.9 30C154.697 29.9219 154.518 29.8086 154.361 29.6602C154.205 29.5039 154.08 29.3203 153.986 29.1094C153.9 28.8906 153.857 28.6523 153.857 28.3945V10.6992ZM182.709 28.3711C182.709 28.6523 182.662 28.9023 182.568 29.1211C182.475 29.3398 182.346 29.5273 182.182 29.6836C182.025 29.832 181.838 29.9453 181.619 30.0234C181.4 30.1016 181.17 30.1406 180.928 30.1406C180.678 30.1406 180.443 30.0977 180.225 30.0117C180.014 29.9336 179.83 29.8203 179.674 29.6719C179.518 29.5156 179.393 29.3281 179.299 29.1094C179.205 28.8906 179.158 28.6445 179.158 28.3711V15.0703C179.158 14.5703 179.092 14.125 178.959 13.7344C178.834 13.3359 178.654 13.0039 178.42 12.7383C178.186 12.4648 177.9 12.2578 177.564 12.1172C177.236 11.9766 176.869 11.9062 176.463 11.9062C176.158 11.9062 175.865 11.9531 175.584 12.0469C175.303 12.1406 175.045 12.2812 174.811 12.4688C174.576 12.6484 174.373 12.8711 174.201 13.1367C174.029 13.4023 173.896 13.707 173.803 14.0508C173.74 14.2852 173.631 14.4883 173.475 14.6602C173.318 14.8242 173.139 14.957 172.936 15.0586C172.732 15.1523 172.51 15.207 172.268 15.2227C172.033 15.2383 171.803 15.2031 171.576 15.1172C171.35 15.0391 171.15 14.9219 170.979 14.7656C170.814 14.6094 170.686 14.4336 170.592 14.2383C170.498 14.0352 170.439 13.8203 170.416 13.5938C170.4 13.3594 170.428 13.1289 170.498 12.9023C170.686 12.2539 170.982 11.6836 171.389 11.1914C171.795 10.6914 172.268 10.2773 172.807 9.94922C173.346 9.61328 173.928 9.35938 174.553 9.1875C175.186 9.01562 175.822 8.92969 176.463 8.92969C177.221 8.92969 177.971 9.04688 178.713 9.28125C179.455 9.51562 180.123 9.86719 180.717 10.3359C181.311 10.7969 181.791 11.375 182.158 12.0703C182.525 12.7656 182.709 13.5742 182.709 14.4961V28.3711ZM190.795 26.8359H191.627C191.854 26.8359 192.061 26.8789 192.248 26.9648C192.436 27.043 192.596 27.1523 192.729 27.293C192.861 27.4336 192.963 27.5977 193.033 27.7852C193.104 27.9648 193.139 28.1602 193.139 28.3711C193.139 28.582 193.104 28.7812 193.033 28.9688C192.963 29.1484 192.861 29.3086 192.729 29.4492C192.604 29.5898 192.447 29.7031 192.26 29.7891C192.072 29.8672 191.861 29.9062 191.627 29.9062H188.756C188.521 29.9062 188.311 29.8672 188.123 29.7891C187.936 29.7109 187.775 29.6055 187.643 29.4727C187.518 29.332 187.42 29.1719 187.35 28.9922C187.279 28.8047 187.244 28.6055 187.244 28.3945V6.09375C187.244 5.46875 187.354 4.89453 187.572 4.37109C187.799 3.83984 188.104 3.39063 188.486 3.02344H183.799C183.572 3.02344 183.373 2.98828 183.201 2.91797C183.021 2.83984 182.869 2.73438 182.744 2.60156C182.619 2.46875 182.525 2.31641 182.463 2.14453C182.393 1.97266 182.357 1.78516 182.357 1.58203C182.357 1.38672 182.393 1.20312 182.463 1.03125C182.533 0.851562 182.631 0.695313 182.756 0.5625C182.881 0.429687 183.033 0.328125 183.213 0.257812C183.385 0.179688 183.58 0.140625 183.799 0.140625H192.025C192.26 0.140625 192.475 0.183594 192.67 0.269531C192.865 0.347656 193.033 0.460938 193.174 0.609375C193.314 0.75 193.424 0.917969 193.502 1.11328C193.58 1.30859 193.619 1.51563 193.619 1.73438C193.619 2.0625 193.525 2.35938 193.338 2.625C193.158 2.88281 192.928 3.07422 192.646 3.19922C192.092 3.43359 191.643 3.83594 191.299 4.40625C190.963 4.96875 190.795 5.64453 190.795 6.43359V26.8359ZM206.721 15.4102C206.721 14.8945 206.643 14.4258 206.486 14.0039C206.33 13.5742 206.088 13.2109 205.76 12.9141C205.432 12.6094 205.014 12.375 204.506 12.2109C203.998 12.0391 203.393 11.9531 202.689 11.9531C201.994 11.9531 201.396 12.0352 200.896 12.1992C200.396 12.3633 199.986 12.5938 199.666 12.8906C199.354 13.1875 199.123 13.5508 198.975 13.9805C198.826 14.4102 198.752 14.8867 198.752 15.4102V24.293L201.588 20.3086H200.873C200.662 20.3086 200.471 20.2734 200.299 20.2031C200.127 20.125 199.979 20.0234 199.854 19.8984C199.736 19.7734 199.643 19.6289 199.572 19.4648C199.51 19.293 199.479 19.1094 199.479 18.9141C199.479 18.7188 199.51 18.5391 199.572 18.375C199.643 18.2031 199.736 18.0547 199.854 17.9297C199.979 17.8047 200.127 17.707 200.299 17.6367C200.471 17.5586 200.662 17.5195 200.873 17.5195H204.447C204.658 17.5195 204.854 17.5586 205.033 17.6367C205.213 17.7148 205.369 17.8242 205.502 17.9648C205.643 18.0977 205.752 18.2539 205.83 18.4336C205.908 18.6133 205.947 18.8086 205.947 19.0195C205.947 19.332 205.861 19.6094 205.689 19.8516L198.975 29.2617C198.787 29.5273 198.545 29.7422 198.248 29.9062C197.951 30.0625 197.627 30.1406 197.275 30.1406C196.971 30.1406 196.689 30.0898 196.432 29.9883C196.182 29.8867 195.963 29.7461 195.775 29.5664C195.596 29.3789 195.455 29.1602 195.354 28.9102C195.252 28.6523 195.201 28.3711 195.201 28.0664V14.6953C195.201 13.7734 195.396 12.9531 195.787 12.2344C196.178 11.5156 196.713 10.9141 197.393 10.4297C198.072 9.9375 198.865 9.56641 199.771 9.31641C200.686 9.05859 201.658 8.92969 202.689 8.92969C203.729 8.92969 204.709 9.05859 205.631 9.31641C206.553 9.56641 207.357 9.9375 208.045 10.4297C208.732 10.9141 209.275 11.5156 209.674 12.2344C210.072 12.9531 210.271 13.7734 210.271 14.6953V28.3711C210.271 28.6523 210.225 28.9023 210.131 29.1211C210.037 29.3398 209.908 29.5273 209.744 29.6836C209.588 29.832 209.4 29.9453 209.182 30.0234C208.963 30.1016 208.732 30.1406 208.49 30.1406C208.24 30.1406 208.006 30.0977 207.787 30.0117C207.576 29.9336 207.393 29.8203 207.236 29.6719C207.08 29.5156 206.955 29.3281 206.861 29.1094C206.768 28.8906 206.721 28.6445 206.721 28.3711V15.4102ZM208.924 1.64062C208.971 1.42969 209.064 1.25391 209.205 1.11328C209.338 0.964844 209.498 0.855469 209.686 0.785156C209.865 0.707031 210.061 0.667969 210.271 0.667969C210.482 0.660156 210.686 0.683594 210.881 0.738281C211.271 0.871094 211.553 1.10937 211.725 1.45312C211.889 1.78906 211.916 2.15234 211.807 2.54297C211.635 3.07422 211.365 3.57422 210.998 4.04297C210.631 4.50391 210.174 4.91016 209.627 5.26172C209.072 5.61328 208.428 5.89453 207.693 6.10547C206.959 6.30859 206.135 6.41797 205.221 6.43359H204.061C203.896 6.43359 203.74 6.40234 203.592 6.33984C203.436 6.27734 203.303 6.19531 203.193 6.09375C203.076 5.98438 202.982 5.85938 202.912 5.71875C202.842 5.57031 202.807 5.41016 202.807 5.23828V3.33984H201.986C201.807 3.33984 201.643 3.30859 201.494 3.24609C201.338 3.18359 201.205 3.09766 201.096 2.98828C200.986 2.87891 200.9 2.75391 200.838 2.61328C200.768 2.46484 200.732 2.30469 200.732 2.13281C200.732 1.96875 200.768 1.8125 200.838 1.66406C200.9 1.51563 200.986 1.38672 201.096 1.27734C201.205 1.16016 201.338 1.07031 201.494 1.00781C201.643 0.945312 201.807 0.914062 201.986 0.914062H204.518C204.682 0.914062 204.838 0.945312 204.986 1.00781C205.135 1.07031 205.268 1.16016 205.385 1.27734C205.502 1.38672 205.596 1.51563 205.666 1.66406C205.729 1.8125 205.76 1.96875 205.76 2.13281V3.87891C206.635 3.87891 207.342 3.67969 207.881 3.28125C208.42 2.875 208.768 2.32812 208.924 1.64062ZM217.596 28.3711C217.596 28.6523 217.549 28.9023 217.455 29.1211C217.361 29.3398 217.232 29.5273 217.068 29.6836C216.912 29.832 216.725 29.9453 216.506 30.0234C216.287 30.1016 216.057 30.1406 215.814 30.1406C215.564 30.1406 215.33 30.0977 215.111 30.0117C214.9 29.9336 214.717 29.8203 214.561 29.6719C214.404 29.5156 214.279 29.3281 214.186 29.1094C214.092 28.8906 214.045 28.6445 214.045 28.3711V10.7109C214.045 10.4375 214.092 10.1914 214.186 9.97266C214.279 9.75391 214.404 9.57031 214.561 9.42188C214.717 9.26562 214.9 9.14844 215.111 9.07031C215.33 8.98438 215.564 8.94141 215.814 8.94141C216.057 8.94141 216.287 8.98047 216.506 9.05859C216.725 9.13672 216.912 9.25391 217.068 9.41016C217.232 9.55859 217.361 9.74219 217.455 9.96094C217.549 10.1797 217.596 10.4297 217.596 10.7109V28.3711ZM223.443 28.3711C223.443 28.6523 223.396 28.9023 223.303 29.1211C223.209 29.3398 223.08 29.5273 222.916 29.6836C222.76 29.832 222.572 29.9453 222.354 30.0234C222.135 30.1016 221.904 30.1406 221.662 30.1406C221.412 30.1406 221.178 30.0977 220.959 30.0117C220.748 29.9336 220.564 29.8203 220.408 29.6719C220.252 29.5156 220.127 29.3281 220.033 29.1094C219.939 28.8906 219.893 28.6445 219.893 28.3711V10.7109C219.893 10.4375 219.939 10.1914 220.033 9.97266C220.127 9.75391 220.252 9.57031 220.408 9.42188C220.564 9.26562 220.748 9.14844 220.959 9.07031C221.178 8.98438 221.412 8.94141 221.662 8.94141C221.904 8.94141 222.135 8.98047 222.354 9.05859C222.572 9.13672 222.76 9.25391 222.916 9.41016C223.08 9.55859 223.209 9.74219 223.303 9.96094C223.396 10.1797 223.443 10.4297 223.443 10.7109V28.3711ZM241.139 28.3711C241.139 28.6523 241.092 28.9023 240.998 29.1211C240.904 29.3398 240.775 29.5273 240.611 29.6836C240.455 29.832 240.268 29.9453 240.049 30.0234C239.83 30.1016 239.6 30.1406 239.357 30.1406C239.107 30.1406 238.873 30.0977 238.654 30.0117C238.443 29.9336 238.26 29.8203 238.104 29.6719C237.947 29.5156 237.822 29.3281 237.729 29.1094C237.635 28.8906 237.588 28.6445 237.588 28.3711V20.2031C237.025 20.1719 236.447 20.1758 235.854 20.2148C235.26 20.2539 234.682 20.332 234.119 20.4492C233.557 20.5664 233.021 20.7266 232.514 20.9297C232.014 21.1328 231.572 21.3867 231.189 21.6914C230.814 21.9883 230.518 22.3438 230.299 22.7578C230.08 23.1641 229.971 23.6328 229.971 24.1641C229.971 24.7188 230.045 25.1758 230.193 25.5352C230.35 25.8945 230.561 26.1797 230.826 26.3906C231.1 26.5938 231.416 26.7383 231.775 26.8242C232.143 26.9023 232.533 26.9414 232.947 26.9414C233.033 26.9414 233.131 26.9414 233.24 26.9414C233.35 26.9336 233.451 26.9219 233.545 26.9062C233.732 26.8984 233.92 26.918 234.107 26.9648C234.303 27.0117 234.475 27.0898 234.623 27.1992C234.771 27.3086 234.893 27.4531 234.986 27.6328C235.08 27.8047 235.127 28.0156 235.127 28.2656C235.127 28.75 235.01 29.1367 234.775 29.4258C234.541 29.7148 234.252 29.8984 233.908 29.9766C233.635 30.0391 233.361 30.0859 233.088 30.1172C232.814 30.1484 232.529 30.1641 232.232 30.1641C231.49 30.1641 230.768 30.0547 230.064 29.8359C229.369 29.6094 228.748 29.2617 228.201 28.793C227.662 28.3242 227.229 27.7266 226.9 27C226.572 26.2734 226.408 25.4102 226.408 24.4102C226.408 23.4023 226.564 22.5234 226.877 21.7734C227.189 21.0234 227.615 20.3828 228.154 19.8516C228.701 19.3203 229.338 18.8867 230.064 18.5508C230.791 18.207 231.568 17.9375 232.396 17.7422C233.225 17.5469 234.08 17.4141 234.963 17.3438C235.854 17.2656 236.729 17.2266 237.588 17.2266V14.7422C237.588 14.25 237.502 13.8281 237.33 13.4766C237.166 13.125 236.932 12.8359 236.627 12.6094C236.322 12.3828 235.951 12.2188 235.514 12.1172C235.084 12.0078 234.604 11.9531 234.072 11.9531C233.127 11.9531 232.361 12.1758 231.775 12.6211C231.197 13.0664 230.814 13.6914 230.627 14.4961C230.572 14.7383 230.467 14.9492 230.311 15.1289C230.162 15.3008 229.986 15.4375 229.783 15.5391C229.58 15.6406 229.357 15.7031 229.115 15.7266C228.873 15.7422 228.635 15.7148 228.4 15.6445C228.166 15.5742 227.963 15.4648 227.791 15.3164C227.619 15.1602 227.482 14.9844 227.381 14.7891C227.279 14.5938 227.213 14.3789 227.182 14.1445C227.158 13.9102 227.182 13.6758 227.252 13.4414C227.471 12.6758 227.811 12.0117 228.271 11.4492C228.74 10.8789 229.295 10.4102 229.936 10.043C230.584 9.66797 231.299 9.39062 232.08 9.21094C232.869 9.02344 233.693 8.92969 234.553 8.92969C235.514 8.92969 236.342 9.03125 237.037 9.23438C237.74 9.4375 238.334 9.70312 238.818 10.0312C239.311 10.3594 239.705 10.7305 240.002 11.1445C240.307 11.5586 240.541 11.9805 240.705 12.4102C240.877 12.8398 240.99 13.2539 241.045 13.6523C241.107 14.0508 241.139 14.3984 241.139 14.6953V28.3711ZM239.768 1.64062C239.814 1.42969 239.908 1.25391 240.049 1.11328C240.182 0.964844 240.342 0.855469 240.529 0.785156C240.709 0.707031 240.904 0.667969 241.115 0.667969C241.326 0.660156 241.529 0.683594 241.725 0.738281C242.115 0.871094 242.396 1.10937 242.568 1.45312C242.732 1.78906 242.76 2.15234 242.65 2.54297C242.479 3.07422 242.209 3.57422 241.842 4.04297C241.475 4.50391 241.018 4.91016 240.471 5.26172C239.916 5.61328 239.271 5.89453 238.537 6.10547C237.803 6.30859 236.979 6.41797 236.064 6.43359H234.904C234.74 6.43359 234.584 6.40234 234.436 6.33984C234.279 6.27734 234.146 6.19531 234.037 6.09375C233.92 5.98438 233.826 5.85938 233.756 5.71875C233.686 5.57031 233.65 5.41016 233.65 5.23828V3.33984H232.83C232.65 3.33984 232.486 3.30859 232.338 3.24609C232.182 3.18359 232.049 3.09766 231.939 2.98828C231.83 2.87891 231.744 2.75391 231.682 2.61328C231.611 2.46484 231.576 2.30469 231.576 2.13281C231.576 1.96875 231.611 1.8125 231.682 1.66406C231.744 1.51563 231.83 1.38672 231.939 1.27734C232.049 1.16016 232.182 1.07031 232.338 1.00781C232.486 0.945312 232.65 0.914062 232.83 0.914062H235.361C235.525 0.914062 235.682 0.945312 235.83 1.00781C235.979 1.07031 236.111 1.16016 236.229 1.27734C236.346 1.38672 236.439 1.51563 236.51 1.66406C236.572 1.8125 236.604 1.96875 236.604 2.13281V3.87891C237.479 3.87891 238.186 3.67969 238.725 3.28125C239.264 2.875 239.611 2.32812 239.768 1.64062ZM244.725 26.2031C244.646 25.9609 244.623 25.7227 244.654 25.4883C244.693 25.2539 244.771 25.043 244.889 24.8555C245.006 24.6602 245.158 24.4922 245.346 24.3516C245.541 24.2109 245.756 24.1094 245.99 24.0469C246.24 23.9844 246.482 23.9688 246.717 24C246.959 24.0312 247.178 24.1016 247.373 24.2109C247.576 24.3203 247.752 24.4688 247.9 24.6562C248.049 24.8438 248.154 25.0625 248.217 25.3125C248.365 25.875 248.619 26.3281 248.979 26.6719C249.338 27.0078 249.83 27.1758 250.455 27.1758C251.064 27.1758 251.564 26.9727 251.955 26.5664C252.354 26.1602 252.662 25.6133 252.881 24.9258C253.107 24.2305 253.264 23.4258 253.35 22.5117C253.436 21.5977 253.479 20.6367 253.479 19.6289C253.479 19.2773 253.475 18.8438 253.467 18.3281C253.459 17.8125 253.428 17.2695 253.373 16.6992C253.318 16.1289 253.229 15.5625 253.104 15C252.979 14.4375 252.799 13.9297 252.564 13.4766C252.33 13.0234 252.029 12.6562 251.662 12.375C251.295 12.0938 250.846 11.9531 250.314 11.9531C249.854 11.9531 249.459 12.0469 249.131 12.2344C248.803 12.4219 248.529 12.668 248.311 12.9727C248.1 13.2773 247.939 13.6289 247.83 14.0273C247.721 14.418 247.65 14.8203 247.619 15.2344C247.604 15.4688 247.537 15.6875 247.42 15.8906C247.303 16.0859 247.15 16.25 246.963 16.3828C246.783 16.5156 246.576 16.6133 246.342 16.6758C246.115 16.7383 245.881 16.7539 245.639 16.7227C245.404 16.6914 245.189 16.6211 244.994 16.5117C244.799 16.3945 244.631 16.25 244.49 16.0781C244.357 15.8984 244.26 15.6992 244.197 15.4805C244.135 15.2539 244.119 15.0195 244.15 14.7773C244.244 13.9727 244.447 13.2148 244.76 12.5039C245.08 11.793 245.502 11.1758 246.025 10.6523C246.549 10.1211 247.174 9.70312 247.9 9.39844C248.627 9.08594 249.447 8.92969 250.361 8.92969C251.033 8.92969 251.67 9.00391 252.271 9.15234C252.873 9.30078 253.428 9.54297 253.936 9.87891C254.443 10.2148 254.896 10.6562 255.295 11.2031C255.701 11.75 256.045 12.4219 256.326 13.2188C256.615 14.0078 256.834 14.9336 256.982 15.9961C257.139 17.0508 257.217 18.2617 257.217 19.6289C257.217 20.3398 257.178 21.0977 257.1 21.9023C257.021 22.6992 256.885 23.4883 256.689 24.2695C256.502 25.0508 256.244 25.8008 255.916 26.5195C255.596 27.2305 255.186 27.8594 254.686 28.4062C254.186 28.9531 253.588 29.3906 252.893 29.7188C252.197 30.0391 251.385 30.1992 250.455 30.1992C249.682 30.1992 248.982 30.1016 248.357 29.9062C247.732 29.7109 247.182 29.4375 246.705 29.0859C246.229 28.7344 245.826 28.3125 245.498 27.8203C245.17 27.3281 244.912 26.7891 244.725 26.2031ZM262.561 13.3828V7.64062C262.561 7.375 262.611 7.12891 262.713 6.90234C262.814 6.66797 262.951 6.46484 263.123 6.29297C263.295 6.12109 263.498 5.98438 263.732 5.88281C263.967 5.78125 264.221 5.73047 264.494 5.73047C264.76 5.73047 265.01 5.78125 265.244 5.88281C265.486 5.98438 265.693 6.12109 265.865 6.29297C266.045 6.46484 266.186 6.66797 266.287 6.90234C266.389 7.12891 266.439 7.375 266.439 7.64062V13.3828L265.701 23.1328C265.686 23.2891 265.646 23.4375 265.584 23.5781C265.521 23.7188 265.436 23.8438 265.326 23.9531C265.217 24.0625 265.088 24.1523 264.939 24.2227C264.799 24.2852 264.643 24.3164 264.471 24.3164C264.135 24.3164 263.854 24.2031 263.627 23.9766C263.408 23.7422 263.287 23.4609 263.264 23.1328L262.561 13.3828ZM262.385 27.9609C262.385 27.6719 262.439 27.4023 262.549 27.1523C262.658 26.9023 262.807 26.6836 262.994 26.4961C263.189 26.3086 263.412 26.1641 263.662 26.0625C263.92 25.9531 264.197 25.8984 264.494 25.8984C264.783 25.8984 265.057 25.9531 265.314 26.0625C265.572 26.1641 265.795 26.3086 265.982 26.4961C266.178 26.6836 266.33 26.9023 266.439 27.1523C266.549 27.4023 266.604 27.6719 266.604 27.9609C266.604 28.25 266.549 28.5195 266.439 28.7695C266.33 29.0195 266.178 29.2383 265.982 29.4258C265.795 29.6133 265.572 29.7617 265.314 29.8711C265.057 29.9727 264.783 30.0234 264.494 30.0234C264.197 30.0234 263.92 29.9727 263.662 29.8711C263.412 29.7617 263.189 29.6133 262.994 29.4258C262.807 29.2383 262.658 29.0195 262.549 28.7695C262.439 28.5195 262.385 28.25 262.385 27.9609Z" fill="#151F6D"/>
<path d="M7.34436 64.2902C7.66436 63.6182 8.12836 63.2822 8.73636 63.2822C9.37636 63.2822 9.93636 63.5542 10.4164 64.0982C10.8964 64.6102 11.0404 65.2022 10.8484 65.8742C9.56836 69.5542 8.36836 73.1702 7.24836 76.7222C6.16036 80.2742 5.13636 83.8902 4.17636 87.5702C4.04836 88.0183 3.80836 88.3223 3.45636 88.4823C3.10436 88.6743 2.73636 88.7703 2.35236 88.7703C1.45636 88.7703 0.832359 88.4503 0.480359 87.8102C0.160359 87.1702 0.000359401 86.4502 0.000359401 85.6502C0.960359 81.9702 2.06436 78.3862 3.31236 74.8982C4.56036 71.3782 5.90436 67.8422 7.34436 64.2902ZM15.1204 64.2902C15.4404 63.6182 15.9044 63.2822 16.5124 63.2822C17.1524 63.2822 17.7124 63.5542 18.1924 64.0982C18.6724 64.6102 18.8164 65.2022 18.6244 65.8742C17.3444 69.5542 16.1444 73.1702 15.0244 76.7222C13.9364 80.2742 12.9124 83.8902 11.9524 87.5702C11.8244 88.0183 11.5844 88.3223 11.2324 88.4823C10.8804 88.6743 10.5124 88.7703 10.1284 88.7703C9.23236 88.7703 8.60836 88.4503 8.25636 87.8102C7.93636 87.1702 7.77636 86.4502 7.77636 85.6502C8.73636 81.9702 9.84036 78.3862 11.0884 74.8982C12.3364 71.3782 13.6804 67.8422 15.1204 64.2902ZM26.7941 72.2582C28.5221 72.7702 29.8341 73.7302 30.7301 75.1382C31.6261 76.5462 32.0741 78.1142 32.0741 79.8422C32.0741 80.7062 31.9941 81.6662 31.8341 82.7222C31.6741 83.7462 31.4021 84.7222 31.0181 85.6502C30.6341 86.5462 30.1061 87.2982 29.4341 87.9062C28.7621 88.5463 27.9141 88.8663 26.8901 88.8663C25.2581 88.8663 23.9941 88.4343 23.0981 87.5702C22.2021 86.6742 21.5621 85.5862 21.1781 84.3062C20.7941 83.0262 20.6181 81.6662 20.6501 80.2262C20.6821 78.7542 20.7941 77.4582 20.9861 76.3382C21.1461 75.2182 21.3701 74.0342 21.6581 72.7862C21.9781 71.5062 22.4101 70.2742 22.9541 69.0902C23.4981 67.9062 24.1701 66.8182 24.9701 65.8262C25.7701 64.8342 26.7461 64.0502 27.8981 63.4742C28.7621 62.9942 29.6741 62.7542 30.6341 62.7542C31.8181 62.7542 32.7781 63.1062 33.5141 63.8102C34.2501 64.5142 34.7941 65.3782 35.1461 66.4022C35.4661 66.0182 35.8021 65.6342 36.1541 65.2502C36.5381 64.8662 36.9381 64.5142 37.3541 64.1942C37.7701 63.8422 38.2181 63.5702 38.6981 63.3782C39.1781 63.1542 39.6741 63.0422 40.1861 63.0422C41.2421 63.0422 41.9941 63.3462 42.4421 63.9542C42.8901 64.5622 43.2581 65.3302 43.5461 66.2582C43.8021 67.0582 43.9301 67.9062 43.9301 68.8022C43.9621 69.6662 43.9141 70.5622 43.7861 71.4902C43.6901 72.3862 43.5461 73.2822 43.3541 74.1782C43.1621 75.0742 42.9861 75.9062 42.8261 76.6742C42.4741 78.4342 41.9941 80.1622 41.3861 81.8582C40.8101 83.5542 40.2501 85.1862 39.7061 86.7542C39.3861 87.6503 38.8421 88.0983 38.0741 88.0983C37.7541 88.0983 37.4181 88.0183 37.0661 87.8582C36.7461 87.6982 36.4581 87.4742 36.2021 87.1862C35.9781 86.8982 35.7861 86.5782 35.6261 86.2262C35.4981 85.8422 35.4661 85.4422 35.5301 85.0262C35.9781 83.8102 36.4261 82.5142 36.8741 81.1382C37.3541 79.7302 37.8341 78.2102 38.3141 76.5782C39.2421 73.3462 39.6261 71.2342 39.4661 70.2422C39.4341 69.8262 39.3061 69.6182 39.0821 69.6182C38.8901 69.6182 38.6181 69.8422 38.2661 70.2902C37.9461 70.7382 37.6261 71.2502 37.3061 71.8262C36.9861 72.4022 36.6821 72.9622 36.3941 73.5062C36.1381 74.0502 35.9781 74.4182 35.9141 74.6102C35.7541 75.0262 35.5461 75.3142 35.2901 75.4742C35.0341 75.6342 34.7301 75.7142 34.3781 75.7142C34.0581 75.7142 33.7221 75.6342 33.3701 75.4742C33.0181 75.3142 32.6981 75.1062 32.4101 74.8502C32.1221 74.5622 31.8821 74.2582 31.6901 73.9382C31.4981 73.5862 31.4021 73.2342 31.4021 72.8822C31.4021 72.0182 31.3861 71.2182 31.3541 70.4822C31.3221 69.7142 31.2101 68.8982 31.0181 68.0342L30.8741 67.5542C29.7221 68.0342 28.8741 68.6582 28.3301 69.4262C27.8181 70.1622 27.3061 71.1062 26.7941 72.2582ZM27.8981 76.7702C27.6741 76.6102 27.4341 76.4662 27.1781 76.3382C26.9541 76.2102 26.7141 76.1142 26.4581 76.0502C26.2021 75.9542 25.9301 75.9062 25.6421 75.9062C25.3221 77.1542 25.1141 78.2422 25.0181 79.1702C24.9221 80.0662 24.9061 80.8182 24.9701 81.4262C25.0341 82.0342 25.0981 82.5142 25.1621 82.8662C25.2261 83.1862 25.2901 83.4102 25.3541 83.5382C25.4181 83.7942 25.5141 84.0182 25.6421 84.2102C25.7701 84.3702 25.9301 84.4502 26.1221 84.4502C26.2501 84.4502 26.3781 84.4182 26.5061 84.3542C28.0101 83.3302 28.6181 81.8102 28.3301 79.7942L27.8981 76.7702ZM43.4621 60.4502C43.0141 60.9302 42.5181 61.1702 41.9741 61.1702C41.5901 61.1702 41.2541 61.0582 40.9661 60.8342C40.6461 60.6102 40.4541 60.2742 40.3901 59.8262C40.3261 59.4422 40.3101 58.7862 40.3421 57.8582C40.3741 56.8982 40.4701 55.9382 40.6301 54.9782C40.7581 54.0182 40.9821 53.1702 41.3021 52.4342C41.5901 51.6982 41.9901 51.3462 42.5021 51.3782C43.1741 51.4422 43.7341 51.6982 44.1821 52.1462C44.5981 52.5622 44.7741 52.9942 44.7101 53.4422C44.6781 53.9222 44.6141 54.4022 44.5181 54.8822C44.3901 55.3622 44.2941 55.8262 44.2301 56.2742C44.1341 56.9462 44.0541 57.6342 43.9901 58.3382C43.9261 59.0422 43.7501 59.7462 43.4621 60.4502ZM62.5661 63.6663C62.6941 63.2182 62.8861 62.9142 63.1421 62.7542C63.3981 62.5622 63.7021 62.4662 64.0541 62.4662C64.4061 62.4662 64.7581 62.5622 65.1101 62.7542C65.4941 62.9142 65.8301 63.1542 66.1181 63.4742C66.4061 63.7622 66.6301 64.0982 66.7901 64.4822C66.9821 64.8662 67.0461 65.2502 66.9821 65.6342C66.9821 65.7942 66.9341 66.0662 66.8381 66.4502C66.7741 66.8342 66.6781 67.2982 66.5501 67.8422C66.4541 68.3542 66.3101 68.9142 66.1181 69.5222C65.9581 70.1302 65.7821 70.7382 65.5901 71.3462C65.3661 72.0822 65.1421 72.8502 64.9181 73.6502C64.6941 74.4182 64.4541 75.2182 64.1981 76.0502C64.7421 76.4342 65.1901 77.0422 65.5421 77.8742C65.8941 78.7062 66.0701 79.5062 66.0701 80.2742C66.2621 82.0342 66.0221 83.6502 65.3501 85.1222C64.7101 86.5942 63.7181 87.8103 62.3741 88.7703C62.0861 88.9623 61.7661 89.0583 61.4141 89.0583C60.9661 89.0583 60.5341 88.9143 60.1181 88.6263C59.7021 88.3703 59.3501 88.0343 59.0621 87.6182C58.5181 86.8182 58.2141 85.9542 58.1501 85.0262C58.0861 84.0662 58.1341 82.9942 58.2941 81.8102C58.2941 81.3942 58.3581 80.8502 58.4861 80.1782C58.6461 79.4742 58.7261 78.9142 58.7261 78.4982C57.7661 79.1702 56.9021 79.7942 56.1341 80.3702C55.3981 80.9462 54.6941 81.5862 54.0221 82.2902C53.3501 82.9622 52.6941 83.7462 52.0541 84.6422C51.4141 85.5382 50.7261 86.6582 49.9901 88.0023C49.6701 88.6103 49.2541 88.9143 48.7421 88.9143C48.3901 88.9143 48.0381 88.7703 47.6861 88.4823C47.3661 88.2263 47.0781 87.8902 46.8221 87.4742C46.5981 87.0582 46.4221 86.6262 46.2941 86.1782C46.1981 85.7302 46.2141 85.3142 46.3421 84.9302C46.9501 83.2022 47.4781 81.3942 47.9261 79.5062C48.3741 77.6182 48.8221 75.8102 49.2701 74.0822C49.3661 73.6982 49.4941 73.1702 49.6541 72.4982C49.8461 71.7942 50.0061 71.1062 50.1341 70.4342C50.2621 69.7622 50.3261 69.1862 50.3261 68.7062C50.3261 68.1942 50.1981 67.9382 49.9421 67.9382C49.7821 67.9382 49.5581 68.0662 49.2701 68.3222C48.9821 68.5462 48.6141 68.9302 48.1661 69.4742C47.6861 70.0502 47.2061 70.3382 46.7261 70.3382C46.1821 70.3382 45.7341 70.0502 45.3821 69.4742C45.0301 68.8982 44.9821 68.2422 45.2381 67.5062C45.6221 66.5142 46.2621 65.6022 47.1581 64.7702C48.0541 63.9382 49.1421 63.5222 50.4221 63.5222C51.1581 63.5222 51.7661 63.6822 52.2461 64.0022C52.7581 64.2902 53.1581 64.6742 53.4461 65.1542C53.7341 65.6342 53.9421 66.1782 54.0701 66.7862C54.1981 67.3942 54.2781 68.0022 54.3101 68.6102C54.4061 70.4662 54.2941 72.0822 53.9741 73.4582C53.6541 74.8342 53.3181 76.2102 52.9661 77.5862C53.6061 77.1062 54.1661 76.6902 54.6461 76.3382C55.1581 75.9862 55.6541 75.6822 56.1341 75.4262C56.6461 75.1382 57.1741 74.8982 57.7181 74.7062C58.2941 74.4822 58.9821 74.2742 59.7821 74.0822C60.1341 72.9942 60.4061 72.0502 60.5981 71.2502C60.8221 70.4182 61.0141 69.6342 61.1741 68.8982C61.3341 68.1302 61.5101 67.3462 61.7021 66.5462C61.9261 65.7142 62.2141 64.7542 62.5661 63.6663ZM58.9841 50.6582C59.3361 50.1142 59.8001 49.8422 60.3761 49.8422C60.6961 49.8422 61.0161 49.9382 61.3361 50.1302C61.6561 50.3222 61.9121 50.5622 62.1041 50.8502C62.2641 51.1382 62.3441 51.4582 62.3441 51.8102C62.3441 52.1622 62.2001 52.5142 61.9121 52.8662C61.9121 53.0582 61.8481 53.2822 61.7201 53.5382C61.5601 53.7942 61.4001 54.0502 61.2401 54.3062C61.0481 54.5622 60.9041 54.8182 60.8081 55.0742C60.7121 55.3302 60.7121 55.5542 60.8081 55.7462C60.9041 55.9062 61.0641 55.9862 61.2881 55.9862C61.7361 55.9862 62.4241 55.7622 63.3521 55.3142C64.2481 54.8342 65.1921 54.3062 66.1841 53.7302C67.1761 53.1222 68.0881 52.5302 68.9201 51.9542C69.7521 51.3462 70.3281 50.9142 70.6481 50.6582C71.0001 50.3702 71.3841 50.2262 71.8001 50.2262C72.2481 50.2262 72.6801 50.3862 73.0961 50.7062C73.5441 50.9942 73.8801 51.3622 74.1041 51.8102C74.3601 52.2262 74.4881 52.6742 74.4881 53.1542C74.4881 53.6022 74.2961 53.9862 73.9121 54.3062C73.1441 54.9142 72.2481 55.5862 71.2241 56.3222C70.2321 57.0582 69.1761 57.7462 68.0561 58.3862C66.9681 58.9942 65.8641 59.5062 64.7441 59.9222C63.6241 60.3382 62.5521 60.5462 61.5281 60.5462C60.4081 60.3542 59.4481 59.8902 58.6481 59.1542C57.8481 58.4182 57.3361 57.4102 57.1121 56.1302C56.9521 55.0102 57.0961 54.0022 57.5441 53.1062C57.9601 52.2102 58.4401 51.3942 58.9841 50.6582ZM68.5841 87.7142C68.2641 88.5143 67.7201 88.9143 66.9521 88.9143C66.5361 88.9143 66.1681 88.7543 65.8481 88.4343C65.4961 88.1143 65.3201 87.6342 65.3201 86.9942C65.3201 86.0982 65.5121 84.8822 65.8961 83.3462C66.2481 81.8102 66.7441 80.1622 67.3841 78.4022C68.0241 76.6102 68.7761 74.8182 69.6401 73.0262C70.5041 71.2022 71.4321 69.5542 72.4241 68.0822C73.4161 66.6102 74.4401 65.4102 75.4961 64.4822C76.5841 63.5542 77.6561 63.0902 78.7121 63.0902C79.9601 63.0902 80.9521 63.5862 81.6881 64.5782C82.4241 65.5702 82.9681 66.8342 83.3201 68.3702C83.7041 69.9062 83.9121 71.6022 83.9441 73.4582C84.0081 75.3142 83.9601 77.1382 83.8001 78.9302C83.6721 80.6902 83.4641 82.3062 83.1761 83.7782C82.9201 85.2182 82.6481 86.2902 82.3601 86.9942C82.2001 87.3462 81.9761 87.5862 81.6881 87.7142C81.4001 87.8422 81.0961 87.9062 80.7761 87.9062C79.9761 87.9062 79.3681 87.6502 78.9521 87.1382C78.5681 86.6262 78.3761 85.9862 78.3761 85.2182C78.6321 82.5302 78.8081 79.9862 78.9041 77.5862C79.0321 75.1862 79.0961 72.6582 79.0961 70.0022C79.0321 69.1702 78.9361 68.6422 78.8081 68.4182C78.7121 68.1942 78.5841 68.0822 78.4241 68.0822C78.3601 68.0822 78.2801 68.0982 78.1841 68.1302C78.1201 68.1622 78.0561 68.1782 77.9921 68.1782C77.5441 68.6262 77.0161 69.3462 76.4081 70.3382C75.8001 71.3302 75.1761 72.4662 74.5361 73.7462C73.8961 74.9942 73.2561 76.3222 72.6161 77.7302C71.9761 79.1382 71.3841 80.4982 70.8401 81.8102C70.2961 83.0902 69.8161 84.2582 69.4001 85.3142C69.0161 86.3702 68.7441 87.1702 68.5841 87.7142ZM89.8436 88.3383C89.7476 88.3703 89.6516 88.3863 89.5556 88.3863C89.4916 88.4183 89.4116 88.4343 89.3156 88.4343C88.8356 88.4343 88.4356 88.2423 88.1156 87.8582C87.8276 87.4742 87.6356 87.0422 87.5396 86.5622C87.4436 86.0822 87.4756 85.6182 87.6356 85.1702C87.8276 84.6902 88.1796 84.3702 88.6916 84.2102C89.8756 83.8582 90.9956 83.2822 92.0516 82.4822C93.1396 81.6502 94.1156 80.7222 94.9796 79.6982C95.8436 78.6422 96.5796 77.5382 97.1876 76.3862C97.7956 75.2022 98.2116 74.0822 98.4356 73.0262C98.6596 71.9382 98.6596 70.9622 98.4356 70.0982C98.2116 69.2022 97.7156 68.5302 96.9476 68.0822C96.5636 67.6982 96.0836 67.5062 95.5076 67.5062C95.0596 67.5062 94.5796 67.6182 94.0676 67.8422C93.5876 68.0662 93.1076 68.3542 92.6276 68.7062C92.1476 69.0262 91.6996 69.3622 91.2836 69.7142C90.8676 70.0662 90.4996 70.3862 90.1796 70.6742C89.8596 70.9302 89.5076 71.0582 89.1236 71.0582C88.7076 71.0582 88.2916 70.9142 87.8756 70.6262C87.4916 70.3382 87.1876 69.9862 86.9636 69.5702C86.7396 69.1542 86.6276 68.7062 86.6276 68.2262C86.6276 67.7462 86.8196 67.3142 87.2036 66.9302C88.2596 65.8742 89.4436 64.9302 90.7556 64.0982C92.0676 63.2662 93.4916 62.8502 95.0276 62.8502C96.2756 62.8502 97.5396 63.2182 98.8196 63.9542C99.9716 64.6262 100.852 65.4582 101.46 66.4502C102.1 67.4422 102.516 68.5302 102.708 69.7142C102.932 70.8662 102.948 72.0822 102.756 73.3622C102.564 74.6422 102.212 75.9062 101.7 77.1542C101.188 78.4022 100.516 79.6342 99.6836 80.8503C98.8836 82.0342 97.9716 83.1382 96.9476 84.1622C95.9236 85.1542 94.8036 86.0182 93.5876 86.7542C92.4036 87.4582 91.1556 87.9863 89.8436 88.3383ZM87.4995 58.8182C87.2435 58.9782 87.0355 59.0582 86.8755 59.0582C86.5555 59.0582 86.2675 58.9142 86.0115 58.6262C85.7555 58.3382 85.5795 58.0022 85.4835 57.6182C85.3555 57.2022 85.3235 56.7862 85.3875 56.3702C85.4515 55.9542 85.6435 55.6182 85.9635 55.3622C87.9795 53.8582 90.2515 53.1062 92.7795 53.1062C94.5395 53.1062 96.2675 53.4742 97.9635 54.2102C99.6275 54.9142 101.099 55.9382 102.379 57.2822C102.795 57.6982 103.099 58.2422 103.291 58.9142C103.483 59.5542 103.291 60.1622 102.715 60.7382C102.395 61.0582 101.995 61.2182 101.515 61.2182C100.875 61.2182 100.267 60.9142 99.6915 60.3062C98.7635 59.2822 97.7395 58.5622 96.6195 58.1462C95.4995 57.7302 94.3475 57.5222 93.1635 57.5222C92.2035 57.5222 91.2595 57.6342 90.3315 57.8582C89.3715 58.0822 88.4275 58.4022 87.4995 58.8182ZM105.259 49.0262C104.843 49.5062 104.347 49.7462 103.771 49.7462C103.387 49.7462 103.051 49.6342 102.763 49.4102C102.443 49.1862 102.251 48.8502 102.187 48.4022C101.995 47.3142 101.947 46.3702 102.043 45.5702C102.107 45.1862 102.203 44.8022 102.331 44.4182C102.427 44.0022 102.555 43.6342 102.715 43.3142C102.875 42.9942 103.051 42.7382 103.243 42.5462C103.435 42.3542 103.659 42.2582 103.915 42.2582C104.619 42.3222 105.163 42.5782 105.547 43.0262C105.963 43.4422 106.155 43.8742 106.123 44.3222C105.675 47.1702 105.387 48.7382 105.259 49.0262ZM118.123 71.9702L118.219 71.5862C118.251 71.4262 118.267 71.2502 118.267 71.0582C118.299 70.8342 118.347 70.5942 118.411 70.3382C118.603 69.2822 118.667 68.3542 118.603 67.5542C118.539 66.7542 118.251 66.3542 117.739 66.3542C117.387 66.3542 116.955 66.5622 116.443 66.9782C116.123 67.1702 115.787 67.2662 115.435 67.2662C114.987 67.2662 114.571 67.1222 114.187 66.8342C113.835 66.5462 113.563 66.1942 113.371 65.7782C113.211 65.3302 113.163 64.8662 113.227 64.3862C113.323 63.9062 113.595 63.4902 114.043 63.1382C115.131 62.2422 116.267 61.7942 117.451 61.7942C119.019 61.7942 120.363 62.6422 121.483 64.3382C122.283 65.5542 122.779 66.8502 122.971 68.2262C123.163 69.6022 123.147 71.0102 122.923 72.4502C122.699 73.8902 122.299 75.3302 121.723 76.7702C121.179 78.2102 120.523 79.6022 119.755 80.9462C119.019 82.2902 118.219 83.5542 117.355 84.7383C116.523 85.9222 115.723 86.9622 114.955 87.8582C114.571 88.2743 114.155 88.4823 113.707 88.4823C113.163 88.4823 112.651 88.2903 112.171 87.9062C111.723 87.4902 111.371 87.0582 111.115 86.6102C109.451 83.7942 107.995 80.8822 106.747 77.8742C105.499 74.8662 104.699 71.7302 104.347 68.4662C104.283 67.7302 104.459 67.2022 104.875 66.8822C105.323 66.5302 105.819 66.3542 106.363 66.3542C106.907 66.3542 107.403 66.4982 107.851 66.7862C108.331 67.0742 108.635 67.5222 108.763 68.1302C109.307 70.5302 109.915 72.8182 110.587 74.9942C111.291 77.1382 112.171 79.2662 113.227 81.3782C114.475 80.1302 115.611 78.2422 116.635 75.7142C116.891 75.0742 117.099 74.5302 117.259 74.0822C117.451 73.6022 117.611 73.2022 117.739 72.8822C117.899 72.5302 118.027 72.2262 118.123 71.9702ZM125.613 89.3943C125.197 89.3943 124.813 89.2183 124.461 88.8663C124.109 88.5143 123.853 88.1143 123.693 87.6662C123.565 87.1862 123.565 86.7382 123.693 86.3223C123.821 85.9062 124.157 85.6342 124.701 85.5062C125.501 85.3142 126.333 85.0262 127.197 84.6422C128.093 84.2262 128.861 83.7462 129.501 83.2022C129.725 83.0102 129.981 82.7542 130.269 82.4342C130.589 82.1142 130.877 81.7782 131.133 81.4262C131.389 81.0742 131.565 80.7062 131.661 80.3222C131.789 79.9382 131.757 79.5862 131.565 79.2662C131.469 79.0742 131.309 78.8982 131.085 78.7382C130.861 78.5782 130.605 78.4342 130.317 78.3062C130.061 78.1782 129.805 78.0662 129.549 77.9702C129.293 77.8422 129.069 77.7302 128.877 77.6342C128.205 77.3142 127.597 76.8822 127.053 76.3382C126.509 75.7942 126.093 75.2022 125.805 74.5622C125.357 73.5702 125.261 72.5942 125.517 71.6342C125.773 70.6422 126.253 69.6982 126.957 68.8022C127.661 67.9062 128.525 67.0742 129.549 66.3062C130.573 65.5382 131.629 64.8822 132.717 64.3382C133.837 63.7622 134.909 63.3142 135.933 62.9942C136.989 62.6742 137.885 62.5142 138.621 62.5142C138.909 62.5142 139.085 62.5302 139.149 62.5623H139.245C139.629 62.5623 139.917 62.7222 140.109 63.0422C140.301 63.3622 140.397 63.7302 140.397 64.1462C140.397 64.5622 140.301 64.9622 140.109 65.3462C139.949 65.6982 139.677 65.9222 139.293 66.0182C138.877 66.1142 138.317 66.3382 137.613 66.6902C136.909 67.0102 136.173 67.4102 135.405 67.8902C134.669 68.3702 133.933 68.8982 133.197 69.4742C132.493 70.0182 131.917 70.5942 131.469 71.2022C131.053 71.7782 130.829 72.3382 130.797 72.8822C130.765 73.4262 131.053 73.9062 131.661 74.3222C132.429 74.8342 133.165 75.3942 133.869 76.0022C134.605 76.5782 135.197 77.2182 135.645 77.9222C136.125 78.6262 136.413 79.3942 136.509 80.2262C136.637 81.0582 136.477 81.9542 136.029 82.9142C135.613 83.8102 135.021 84.6582 134.253 85.4582C133.485 86.2262 132.621 86.9142 131.661 87.5222C130.701 88.0983 129.693 88.5463 128.637 88.8663C127.581 89.2183 126.573 89.3943 125.613 89.3943ZM141.022 80.9942C141.086 80.2582 141.278 79.4902 141.598 78.6902C141.022 78.5302 140.542 78.1782 140.158 77.6342C139.774 77.0582 139.71 76.4502 139.966 75.8102C140.542 74.4022 141.278 73.0742 142.174 71.8262C143.07 70.5462 144.078 69.3782 145.198 68.3222C146.35 67.2662 147.598 66.3382 148.942 65.5382C150.286 64.7382 151.694 64.0982 153.166 63.6182C154.286 63.2342 155.406 63.0422 156.526 63.0422C157.23 63.0422 157.902 63.1382 158.542 63.3302C159.214 63.5222 159.854 63.8422 160.462 64.2902C161.07 64.7702 161.55 65.3142 161.902 65.9222C162.286 66.4982 162.574 67.1222 162.766 67.7942C162.958 68.4662 163.054 69.1542 163.054 69.8582C163.086 70.5622 163.038 71.2502 162.91 71.9222C162.622 73.4262 162.206 74.9142 161.662 76.3862C161.15 77.8262 160.494 79.2022 159.694 80.5142C158.894 81.7942 157.95 82.9782 156.862 84.0662C155.806 85.1542 154.574 86.0982 153.166 86.8982C152.366 87.3462 151.47 87.7462 150.478 88.0983C149.486 88.4503 148.478 88.6263 147.454 88.6263C146.398 88.6263 145.454 88.4183 144.622 88.0023C143.822 87.5862 143.15 87.0262 142.606 86.3223C142.094 85.6182 141.694 84.8022 141.406 83.8742C141.15 82.9462 141.022 81.9862 141.022 80.9942ZM148.51 71.2982C148.67 71.2662 148.814 71.2502 148.942 71.2502C149.07 71.2182 149.214 71.2022 149.374 71.2022C150.334 71.2022 151.262 71.5702 152.158 72.3062C152.35 72.5302 152.462 72.8182 152.494 73.1702C152.558 73.5222 152.542 73.8742 152.446 74.2262C152.35 74.5462 152.19 74.8342 151.966 75.0902C151.774 75.3142 151.534 75.4262 151.246 75.4262C151.022 75.4262 150.734 75.2982 150.382 75.0422C150.254 74.9142 150.062 74.8502 149.806 74.8502C149.358 74.8502 148.862 75.1062 148.318 75.6182C147.774 76.1302 147.246 76.7222 146.734 77.3942C146.254 78.0662 145.838 78.7222 145.486 79.3622C145.134 79.9702 144.926 80.3862 144.862 80.6102C144.51 81.5382 144.51 82.3862 144.862 83.1542C145.214 83.8902 145.838 84.2582 146.734 84.2582C146.99 84.2582 147.278 84.2102 147.598 84.1142C148.814 83.9222 149.918 83.5062 150.91 82.8662C151.934 82.2262 152.83 81.4582 153.598 80.5622C154.398 79.6342 155.102 78.6422 155.71 77.5862C156.35 76.4982 156.894 75.4262 157.342 74.3702C157.502 74.0182 157.71 73.5222 157.966 72.8822C158.222 72.2422 158.446 71.5702 158.638 70.8662C158.83 70.1622 158.958 69.5062 159.022 68.8982C159.086 68.2582 158.99 67.7782 158.734 67.4582C158.446 67.0742 157.966 66.8822 157.294 66.8822C156.622 66.8822 155.87 67.0262 155.038 67.3142C154.206 67.6022 153.39 67.9702 152.59 68.4182C151.79 68.8662 151.022 69.3462 150.286 69.8582C149.582 70.3702 148.99 70.8502 148.51 71.2982ZM169.63 67.9862C169.022 68.3062 168.414 68.7702 167.806 69.3782C167.454 69.9222 167.038 70.1942 166.558 70.1942C166.27 70.1942 165.998 70.0822 165.742 69.8582C165.486 69.6342 165.278 69.3622 165.118 69.0422C164.99 68.6902 164.91 68.3062 164.878 67.8902C164.878 67.4742 164.974 67.0902 165.166 66.7382C165.774 65.6182 166.59 64.7702 167.614 64.1942C168.638 63.6182 169.822 63.3302 171.166 63.3302C171.742 63.3302 172.254 63.5702 172.702 64.0502C173.182 64.5302 173.422 65.0582 173.422 65.6342C173.55 67.2342 173.518 68.8022 173.326 70.3382C173.134 71.8422 172.862 73.3462 172.51 74.8502C172.158 76.3222 171.774 77.7942 171.358 79.2662C170.942 80.7382 170.574 82.2422 170.254 83.7782C170.99 83.9062 171.742 83.9862 172.51 84.0182C173.278 84.0502 174.03 84.0662 174.766 84.0662H176.062C177.246 83.9702 178.302 83.5062 179.23 82.6742C180.158 81.8422 180.99 80.8022 181.726 79.5542C182.462 78.3062 183.102 76.9142 183.646 75.3782C184.222 73.8102 184.702 72.2742 185.086 70.7702C185.502 69.2342 185.822 67.7782 186.046 66.4022C186.302 65.0262 186.494 63.8902 186.622 62.9942C186.718 62.3862 186.91 61.9542 187.198 61.6982C187.518 61.4422 187.87 61.3142 188.254 61.3142C188.83 61.3142 189.39 61.5862 189.934 62.1302C190.51 62.6422 190.798 63.2982 190.798 64.0982C190.798 64.9622 190.718 66.0182 190.558 67.2662C190.398 68.5142 190.158 69.8422 189.838 71.2502C189.518 72.6262 189.134 74.0502 188.686 75.5222C188.27 76.9622 187.79 78.3542 187.246 79.6982C186.734 81.0102 186.158 82.2262 185.518 83.3462C184.91 84.4342 184.27 85.3142 183.598 85.9862C182.67 86.9142 181.646 87.5862 180.526 88.0023C179.406 88.4183 178.174 88.6263 176.83 88.6263C175.486 88.6263 174.094 88.5783 172.654 88.4823C171.246 88.4183 169.87 88.2103 168.526 87.8582C167.79 87.6662 167.166 87.3622 166.654 86.9462C166.174 86.5302 165.806 86.0502 165.55 85.5062C165.294 84.9622 165.166 84.3702 165.166 83.7302C165.166 83.0902 165.278 82.4502 165.502 81.8102C165.886 80.6902 166.302 79.5702 166.75 78.4502C167.198 77.2982 167.614 76.1462 167.998 74.9942C168.382 73.8422 168.718 72.6902 169.006 71.5382C169.326 70.3542 169.534 69.1702 169.63 67.9862ZM199.013 72.2582C200.741 72.7702 202.053 73.7302 202.949 75.1382C203.845 76.5462 204.293 78.1142 204.293 79.8422C204.293 80.7062 204.213 81.6662 204.053 82.7222C203.893 83.7462 203.621 84.7222 203.237 85.6502C202.853 86.5462 202.325 87.2982 201.653 87.9062C200.981 88.5463 200.133 88.8663 199.109 88.8663C197.477 88.8663 196.213 88.4343 195.317 87.5702C194.421 86.6742 193.781 85.5862 193.397 84.3062C193.013 83.0262 192.837 81.6662 192.869 80.2262C192.901 78.7542 193.013 77.4582 193.205 76.3382C193.365 75.2182 193.589 74.0342 193.877 72.7862C194.197 71.5062 194.629 70.2742 195.173 69.0902C195.717 67.9062 196.389 66.8182 197.189 65.8262C197.989 64.8342 198.965 64.0502 200.117 63.4742C200.981 62.9942 201.893 62.7542 202.853 62.7542C204.037 62.7542 204.997 63.1062 205.733 63.8102C206.469 64.5142 207.013 65.3782 207.365 66.4022C207.685 66.0182 208.021 65.6342 208.373 65.2502C208.757 64.8662 209.157 64.5142 209.573 64.1942C209.989 63.8422 210.437 63.5702 210.917 63.3782C211.397 63.1542 211.893 63.0422 212.405 63.0422C213.461 63.0422 214.213 63.3462 214.661 63.9542C215.109 64.5622 215.477 65.3302 215.765 66.2582C216.021 67.0582 216.149 67.9062 216.149 68.8022C216.181 69.6662 216.133 70.5622 216.005 71.4902C215.909 72.3862 215.765 73.2822 215.573 74.1782C215.381 75.0742 215.205 75.9062 215.045 76.6742C214.693 78.4342 214.213 80.1622 213.605 81.8582C213.029 83.5542 212.469 85.1862 211.925 86.7542C211.605 87.6503 211.061 88.0983 210.293 88.0983C209.973 88.0983 209.637 88.0183 209.285 87.8582C208.965 87.6982 208.677 87.4742 208.421 87.1862C208.197 86.8982 208.005 86.5782 207.845 86.2262C207.717 85.8422 207.685 85.4422 207.749 85.0262C208.197 83.8102 208.645 82.5142 209.093 81.1382C209.573 79.7302 210.053 78.2102 210.533 76.5782C211.461 73.3462 211.845 71.2342 211.685 70.2422C211.653 69.8262 211.525 69.6182 211.301 69.6182C211.109 69.6182 210.837 69.8422 210.485 70.2902C210.165 70.7382 209.845 71.2502 209.525 71.8262C209.205 72.4022 208.901 72.9622 208.613 73.5062C208.357 74.0502 208.197 74.4182 208.133 74.6102C207.973 75.0262 207.765 75.3142 207.509 75.4742C207.253 75.6342 206.949 75.7142 206.597 75.7142C206.277 75.7142 205.941 75.6342 205.589 75.4742C205.237 75.3142 204.917 75.1062 204.629 74.8502C204.341 74.5622 204.101 74.2582 203.909 73.9382C203.717 73.5862 203.621 73.2342 203.621 72.8822C203.621 72.0182 203.605 71.2182 203.573 70.4822C203.541 69.7142 203.429 68.8982 203.237 68.0342L203.093 67.5542C201.941 68.0342 201.093 68.6582 200.549 69.4262C200.037 70.1622 199.525 71.1062 199.013 72.2582ZM200.117 76.7702C199.893 76.6102 199.653 76.4662 199.397 76.3382C199.173 76.2102 198.933 76.1142 198.677 76.0502C198.421 75.9542 198.149 75.9062 197.861 75.9062C197.541 77.1542 197.333 78.2422 197.237 79.1702C197.141 80.0662 197.125 80.8182 197.189 81.4262C197.253 82.0342 197.317 82.5142 197.381 82.8662C197.445 83.1862 197.509 83.4102 197.573 83.5382C197.637 83.7942 197.733 84.0182 197.861 84.2102C197.989 84.3702 198.149 84.4502 198.341 84.4502C198.469 84.4502 198.597 84.4182 198.725 84.3542C200.229 83.3302 200.837 81.8102 200.549 79.7942L200.117 76.7702ZM207.953 50.6582C208.305 50.1142 208.769 49.8422 209.345 49.8422C209.665 49.8422 209.985 49.9382 210.305 50.1302C210.625 50.3222 210.881 50.5622 211.073 50.8502C211.233 51.1382 211.313 51.4582 211.313 51.8102C211.313 52.1622 211.169 52.5142 210.881 52.8662C210.881 53.0582 210.817 53.2822 210.689 53.5382C210.529 53.7942 210.369 54.0502 210.209 54.3062C210.017 54.5622 209.873 54.8182 209.777 55.0742C209.681 55.3302 209.681 55.5542 209.777 55.7462C209.873 55.9062 210.033 55.9862 210.257 55.9862C210.705 55.9862 211.393 55.7622 212.321 55.3142C213.217 54.8342 214.161 54.3062 215.153 53.7302C216.145 53.1222 217.057 52.5302 217.889 51.9542C218.721 51.3462 219.297 50.9142 219.617 50.6582C219.969 50.3702 220.353 50.2262 220.769 50.2262C221.217 50.2262 221.649 50.3862 222.065 50.7062C222.513 50.9942 222.849 51.3622 223.073 51.8102C223.329 52.2262 223.457 52.6742 223.457 53.1542C223.457 53.6022 223.265 53.9862 222.881 54.3062C222.113 54.9142 221.217 55.5862 220.193 56.3222C219.201 57.0582 218.145 57.7462 217.025 58.3862C215.937 58.9942 214.833 59.5062 213.713 59.9222C212.593 60.3382 211.521 60.5462 210.497 60.5462C209.377 60.3542 208.417 59.8902 207.617 59.1542C206.817 58.4182 206.305 57.4102 206.081 56.1302C205.921 55.0102 206.065 54.0022 206.513 53.1062C206.929 52.2102 207.409 51.3942 207.953 50.6582ZM220.625 88.3383C220.529 88.3703 220.433 88.3863 220.337 88.3863C220.273 88.4183 220.193 88.4343 220.097 88.4343C219.617 88.4343 219.217 88.2423 218.897 87.8582C218.609 87.4742 218.417 87.0422 218.321 86.5622C218.225 86.0822 218.257 85.6182 218.417 85.1702C218.609 84.6902 218.961 84.3702 219.473 84.2102C220.657 83.8582 221.777 83.2822 222.833 82.4822C223.921 81.6502 224.897 80.7222 225.761 79.6982C226.625 78.6422 227.361 77.5382 227.969 76.3862C228.577 75.2022 228.993 74.0822 229.217 73.0262C229.441 71.9382 229.441 70.9622 229.217 70.0982C228.993 69.2022 228.497 68.5302 227.729 68.0822C227.345 67.6982 226.865 67.5062 226.289 67.5062C225.841 67.5062 225.361 67.6182 224.849 67.8422C224.369 68.0662 223.889 68.3542 223.409 68.7062C222.929 69.0262 222.481 69.3622 222.065 69.7142C221.649 70.0662 221.281 70.3862 220.961 70.6742C220.641 70.9302 220.289 71.0582 219.905 71.0582C219.489 71.0582 219.073 70.9142 218.657 70.6262C218.273 70.3382 217.969 69.9862 217.745 69.5702C217.521 69.1542 217.409 68.7062 217.409 68.2262C217.409 67.7462 217.601 67.3142 217.985 66.9302C219.041 65.8742 220.225 64.9302 221.537 64.0982C222.849 63.2662 224.273 62.8502 225.809 62.8502C227.057 62.8502 228.321 63.2182 229.601 63.9542C230.753 64.6262 231.633 65.4582 232.241 66.4502C232.881 67.4422 233.297 68.5302 233.489 69.7142C233.713 70.8662 233.729 72.0822 233.537 73.3622C233.345 74.6422 232.993 75.9062 232.481 77.1542C231.969 78.4022 231.297 79.6342 230.465 80.8503C229.665 82.0342 228.753 83.1382 227.729 84.1622C226.705 85.1542 225.585 86.0182 224.369 86.7542C223.185 87.4582 221.937 87.9863 220.625 88.3383ZM241.849 64.2902C242.169 63.6182 242.633 63.2822 243.241 63.2822C243.881 63.2822 244.441 63.5542 244.921 64.0982C245.401 64.6102 245.545 65.2022 245.353 65.8742C244.073 69.5542 242.873 73.1702 241.753 76.7222C240.665 80.2742 239.641 83.8902 238.681 87.5702C238.553 88.0183 238.313 88.3223 237.961 88.4823C237.609 88.6743 237.241 88.7703 236.857 88.7703C235.961 88.7703 235.337 88.4503 234.985 87.8102C234.665 87.1702 234.505 86.4502 234.505 85.6502C235.465 81.9702 236.569 78.3862 237.817 74.8982C239.065 71.3782 240.409 67.8422 241.849 64.2902ZM247.863 89.3943C247.447 89.3943 247.063 89.2183 246.711 88.8663C246.359 88.5143 246.103 88.1143 245.943 87.6662C245.815 87.1862 245.815 86.7382 245.943 86.3223C246.071 85.9062 246.407 85.6342 246.951 85.5062C247.751 85.3142 248.583 85.0262 249.447 84.6422C250.343 84.2262 251.111 83.7462 251.751 83.2022C251.975 83.0102 252.231 82.7542 252.519 82.4342C252.839 82.1142 253.127 81.7782 253.383 81.4262C253.639 81.0742 253.815 80.7062 253.911 80.3222C254.039 79.9382 254.007 79.5862 253.815 79.2662C253.719 79.0742 253.559 78.8982 253.335 78.7382C253.111 78.5782 252.855 78.4342 252.567 78.3062C252.311 78.1782 252.055 78.0662 251.799 77.9702C251.543 77.8422 251.319 77.7302 251.127 77.6342C250.455 77.3142 249.847 76.8822 249.303 76.3382C248.759 75.7942 248.343 75.2022 248.055 74.5622C247.607 73.5702 247.511 72.5942 247.767 71.6342C248.023 70.6422 248.503 69.6982 249.207 68.8022C249.911 67.9062 250.775 67.0742 251.799 66.3062C252.823 65.5382 253.879 64.8822 254.967 64.3382C256.087 63.7622 257.159 63.3142 258.183 62.9942C259.239 62.6742 260.135 62.5142 260.871 62.5142C261.159 62.5142 261.335 62.5302 261.399 62.5623H261.495C261.879 62.5623 262.167 62.7222 262.359 63.0422C262.551 63.3622 262.647 63.7302 262.647 64.1462C262.647 64.5622 262.551 64.9622 262.359 65.3462C262.199 65.6982 261.927 65.9222 261.543 66.0182C261.127 66.1142 260.567 66.3382 259.863 66.6902C259.159 67.0102 258.423 67.4102 257.655 67.8902C256.919 68.3702 256.183 68.8982 255.447 69.4742C254.743 70.0182 254.167 70.5942 253.719 71.2022C253.303 71.7782 253.079 72.3382 253.047 72.8822C253.015 73.4262 253.303 73.9062 253.911 74.3222C254.679 74.8342 255.415 75.3942 256.119 76.0022C256.855 76.5782 257.447 77.2182 257.895 77.9222C258.375 78.6262 258.663 79.3942 258.759 80.2262C258.887 81.0582 258.727 81.9542 258.279 82.9142C257.863 83.8102 257.271 84.6582 256.503 85.4582C255.735 86.2262 254.871 86.9142 253.911 87.5222C252.951 88.0983 251.943 88.5463 250.887 88.8663C249.831 89.2183 248.823 89.3943 247.863 89.3943ZM245.656 58.8182C245.4 58.9782 245.192 59.0582 245.032 59.0582C244.712 59.0582 244.424 58.9142 244.168 58.6262C243.912 58.3382 243.736 58.0022 243.64 57.6182C243.512 57.2022 243.48 56.7862 243.544 56.3702C243.608 55.9542 243.8 55.6182 244.12 55.3622C246.136 53.8582 248.408 53.1062 250.936 53.1062C252.696 53.1062 254.424 53.4742 256.12 54.2102C257.784 54.9142 259.256 55.9382 260.536 57.2822C260.952 57.6982 261.256 58.2422 261.448 58.9142C261.64 59.5542 261.448 60.1622 260.872 60.7382C260.552 61.0582 260.152 61.2182 259.672 61.2182C259.032 61.2182 258.424 60.9142 257.848 60.3062C256.92 59.2822 255.896 58.5622 254.776 58.1462C253.656 57.7302 252.504 57.5222 251.32 57.5222C250.36 57.5222 249.416 57.6342 248.488 57.8582C247.528 58.0822 246.584 58.4022 245.656 58.8182ZM263.416 49.0262C263 49.5062 262.504 49.7462 261.928 49.7462C261.544 49.7462 261.208 49.6342 260.92 49.4102C260.6 49.1862 260.408 48.8502 260.344 48.4022C260.152 47.3142 260.104 46.3702 260.2 45.5702C260.264 45.1862 260.36 44.8022 260.488 44.4182C260.584 44.0022 260.712 43.6342 260.872 43.3142C261.032 42.9942 261.208 42.7382 261.4 42.5462C261.592 42.3542 261.816 42.2582 262.072 42.2582C262.776 42.3222 263.32 42.5782 263.704 43.0262C264.12 43.4422 264.312 43.8742 264.28 44.3222C263.832 47.1702 263.544 48.7382 263.416 49.0262ZM268.648 67.1222C267.944 67.4422 267.24 67.7942 266.536 68.1782C266.312 68.4022 266.04 68.5142 265.72 68.5142C265.432 68.5142 265.176 68.3862 264.952 68.1302C264.728 67.8742 264.568 67.5862 264.472 67.2662C264.376 66.9142 264.344 66.5622 264.376 66.2102C264.44 65.8262 264.584 65.5382 264.808 65.3462C265.448 64.7702 266.152 64.3062 266.92 63.9542C267.688 63.5702 268.44 63.3782 269.176 63.3782C269.784 63.3782 270.376 63.5382 270.952 63.8582C271.528 64.1462 272.04 64.6422 272.488 65.3462C272.84 65.8582 273.08 66.4342 273.208 67.0742C273.368 67.7142 273.448 68.3862 273.448 69.0902C273.48 69.7622 273.464 70.4502 273.4 71.1542C273.336 71.8262 273.272 72.4502 273.208 73.0262C273.048 73.9862 272.856 74.9782 272.632 76.0022C273.08 76.1622 273.56 76.4022 274.072 76.7222C274.584 77.0102 275.096 77.3462 275.608 77.7302C276.12 78.0822 276.584 78.4662 277 78.8822C277.448 79.2982 277.816 79.6822 278.104 80.0342C278.168 80.0982 278.232 80.1942 278.296 80.3222C278.36 80.4182 278.44 80.5302 278.536 80.6582C278.632 80.1142 278.792 79.3782 279.016 78.4502C279.24 77.5222 279.496 76.5302 279.784 75.4742C280.104 74.3862 280.424 73.2822 280.744 72.1622C281.096 71.0102 281.416 69.9382 281.704 68.9462C282.024 67.9542 282.296 67.0902 282.52 66.3542C282.744 65.5862 282.904 65.0582 283 64.7702C283.32 64.0022 283.848 63.6182 284.584 63.6182C284.968 63.6182 285.336 63.6982 285.688 63.8582C286.072 64.0182 286.408 64.2422 286.696 64.5302C286.984 64.7862 287.208 65.0902 287.368 65.4422C287.528 65.7942 287.576 66.1462 287.512 66.4982C286.808 69.7622 286.088 72.8662 285.352 75.8102C284.616 78.7222 283.704 81.7622 282.616 84.9302C282.36 85.6342 281.992 86.1942 281.512 86.6102C281.032 87.0262 280.472 87.2342 279.832 87.2342C279.416 87.2342 279.064 87.1702 278.776 87.0422C278.264 86.8502 277.816 86.5942 277.432 86.2742C277.048 85.9542 276.696 85.6022 276.376 85.2182C276.088 84.8342 275.8 84.4342 275.512 84.0182C275.224 83.6022 274.92 83.2022 274.6 82.8182C274.12 82.2742 273.608 81.7462 273.064 81.2342C272.52 80.7222 271.928 80.3702 271.288 80.1782C271.128 80.5302 270.984 80.8662 270.856 81.1862C270.728 81.4742 270.584 81.7942 270.424 82.1462C270.136 82.7542 269.8 83.4102 269.416 84.1142C269.064 84.7862 268.648 85.4262 268.168 86.0342C267.688 86.6422 267.128 87.1542 266.488 87.5702C265.88 87.9543 265.192 88.1463 264.424 88.1463C263.72 88.1463 263.128 87.9383 262.648 87.5222C262.168 87.1062 261.848 86.5942 261.688 85.9862C261.432 84.9302 261.368 83.8422 261.496 82.7222C261.592 81.5702 261.88 80.4982 262.36 79.5062C262.872 78.5142 263.56 77.6502 264.424 76.9142C265.288 76.1782 266.344 75.6982 267.592 75.4742C267.688 75.4422 267.784 75.4262 267.88 75.4262C267.976 75.4262 268.056 75.4102 268.12 75.3782C268.28 75.0582 268.44 74.6102 268.6 74.0342C268.792 73.4262 268.968 72.8022 269.128 72.1622C269.288 71.4902 269.416 70.8502 269.512 70.2422C269.64 69.6342 269.704 69.1702 269.704 68.8502C269.704 68.3062 269.656 67.8902 269.56 67.6022C269.496 67.2822 269.192 67.1222 268.648 67.1222ZM59.8342 138.994C59.8982 138.258 60.0902 137.49 60.4102 136.69C59.8342 136.53 59.3542 136.178 58.9702 135.634C58.5862 135.058 58.5222 134.45 58.7782 133.81C59.3542 132.402 60.0902 131.074 60.9862 129.826C61.8822 128.546 62.8902 127.378 64.0102 126.322C65.1622 125.266 66.4102 124.338 67.7542 123.538C69.0982 122.738 70.5062 122.098 71.9782 121.618C73.0982 121.234 74.2182 121.042 75.3382 121.042C76.0422 121.042 76.7142 121.138 77.3542 121.33C78.0262 121.522 78.6662 121.842 79.2742 122.29C79.8822 122.77 80.3622 123.314 80.7142 123.922C81.0982 124.498 81.3862 125.122 81.5782 125.794C81.7702 126.466 81.8662 127.154 81.8662 127.858C81.8982 128.562 81.8502 129.25 81.7222 129.922C81.4342 131.426 81.0182 132.914 80.4742 134.386C79.9622 135.826 79.3062 137.202 78.5062 138.514C77.7062 139.794 76.7622 140.978 75.6742 142.066C74.6182 143.154 73.3862 144.098 71.9782 144.898C71.1782 145.346 70.2822 145.746 69.2902 146.098C68.2982 146.45 67.2902 146.626 66.2662 146.626C65.2102 146.626 64.2662 146.418 63.4342 146.002C62.6342 145.586 61.9622 145.026 61.4182 144.322C60.9062 143.618 60.5062 142.802 60.2182 141.874C59.9622 140.946 59.8342 139.986 59.8342 138.994ZM67.3222 129.298C67.4822 129.266 67.6262 129.25 67.7542 129.25C67.8822 129.218 68.0262 129.202 68.1862 129.202C69.1462 129.202 70.0742 129.57 70.9702 130.306C71.1622 130.53 71.2742 130.818 71.3062 131.17C71.3702 131.522 71.3542 131.874 71.2582 132.226C71.1622 132.546 71.0022 132.834 70.7782 133.09C70.5862 133.314 70.3462 133.426 70.0582 133.426C69.8342 133.426 69.5462 133.298 69.1942 133.042C69.0662 132.914 68.8742 132.85 68.6182 132.85C68.1702 132.85 67.6742 133.106 67.1302 133.618C66.5862 134.13 66.0582 134.722 65.5462 135.394C65.0662 136.066 64.6502 136.722 64.2982 137.362C63.9462 137.97 63.7382 138.386 63.6742 138.61C63.3222 139.538 63.3222 140.386 63.6742 141.154C64.0262 141.89 64.6502 142.258 65.5462 142.258C65.8022 142.258 66.0902 142.21 66.4102 142.114C67.6262 141.922 68.7302 141.506 69.7222 140.866C70.7462 140.226 71.6422 139.458 72.4102 138.562C73.2102 137.634 73.9142 136.642 74.5222 135.586C75.1622 134.498 75.7062 133.426 76.1542 132.37C76.3142 132.018 76.5222 131.522 76.7782 130.882C77.0342 130.242 77.2582 129.57 77.4502 128.866C77.6422 128.162 77.7702 127.506 77.8342 126.898C77.8982 126.258 77.8022 125.778 77.5462 125.458C77.2582 125.074 76.7782 124.882 76.1062 124.882C75.4342 124.882 74.6822 125.026 73.8502 125.314C73.0182 125.602 72.2022 125.97 71.4022 126.418C70.6022 126.866 69.8342 127.346 69.0982 127.858C68.3942 128.37 67.8022 128.85 67.3222 129.298ZM81.2902 118.45C80.8422 118.93 80.3462 119.17 79.8022 119.17C79.4182 119.17 79.0822 119.058 78.7942 118.834C78.4742 118.61 78.2822 118.274 78.2182 117.826C78.1542 117.442 78.1382 116.786 78.1702 115.858C78.2022 114.898 78.2982 113.938 78.4582 112.978C78.5862 112.018 78.8102 111.17 79.1302 110.434C79.4182 109.698 79.8182 109.346 80.3302 109.378C81.0022 109.442 81.5622 109.698 82.0102 110.146C82.4262 110.562 82.6022 110.994 82.5382 111.442C82.5062 111.922 82.4422 112.402 82.3462 112.882C82.2182 113.362 82.1222 113.826 82.0582 114.274C81.9622 114.946 81.8822 115.634 81.8182 116.338C81.7542 117.042 81.5782 117.746 81.2902 118.45ZM83.8342 138.994C83.8982 138.258 84.0902 137.49 84.4102 136.69C83.8342 136.53 83.3542 136.178 82.9702 135.634C82.5862 135.058 82.5222 134.45 82.7782 133.81C83.3542 132.402 84.0902 131.074 84.9862 129.826C85.8822 128.546 86.8902 127.378 88.0102 126.322C89.1622 125.266 90.4102 124.338 91.7542 123.538C93.0982 122.738 94.5062 122.098 95.9782 121.618C97.0982 121.234 98.2182 121.042 99.3382 121.042C100.042 121.042 100.714 121.138 101.354 121.33C102.026 121.522 102.666 121.842 103.274 122.29C103.882 122.77 104.362 123.314 104.714 123.922C105.098 124.498 105.386 125.122 105.578 125.794C105.77 126.466 105.866 127.154 105.866 127.858C105.898 128.562 105.85 129.25 105.722 129.922C105.434 131.426 105.018 132.914 104.474 134.386C103.962 135.826 103.306 137.202 102.506 138.514C101.706 139.794 100.762 140.978 99.6742 142.066C98.6182 143.154 97.3862 144.098 95.9782 144.898C95.1782 145.346 94.2822 145.746 93.2902 146.098C92.2982 146.45 91.2902 146.626 90.2662 146.626C89.2102 146.626 88.2662 146.418 87.4342 146.002C86.6342 145.586 85.9622 145.026 85.4182 144.322C84.9062 143.618 84.5062 142.802 84.2182 141.874C83.9622 140.946 83.8342 139.986 83.8342 138.994ZM91.3222 129.298C91.4822 129.266 91.6262 129.25 91.7542 129.25C91.8822 129.218 92.0262 129.202 92.1862 129.202C93.1462 129.202 94.0742 129.57 94.9702 130.306C95.1622 130.53 95.2742 130.818 95.3062 131.17C95.3702 131.522 95.3542 131.874 95.2582 132.226C95.1622 132.546 95.0022 132.834 94.7782 133.09C94.5862 133.314 94.3462 133.426 94.0582 133.426C93.8342 133.426 93.5462 133.298 93.1942 133.042C93.0662 132.914 92.8742 132.85 92.6182 132.85C92.1702 132.85 91.6742 133.106 91.1302 133.618C90.5862 134.13 90.0582 134.722 89.5462 135.394C89.0662 136.066 88.6502 136.722 88.2982 137.362C87.9462 137.97 87.7382 138.386 87.6742 138.61C87.3222 139.538 87.3222 140.386 87.6742 141.154C88.0262 141.89 88.6502 142.258 89.5462 142.258C89.8022 142.258 90.0902 142.21 90.4102 142.114C91.6262 141.922 92.7302 141.506 93.7222 140.866C94.7462 140.226 95.6422 139.458 96.4102 138.562C97.2102 137.634 97.9142 136.642 98.5222 135.586C99.1622 134.498 99.7062 133.426 100.154 132.37C100.314 132.018 100.522 131.522 100.778 130.882C101.034 130.242 101.258 129.57 101.45 128.866C101.642 128.162 101.77 127.506 101.834 126.898C101.898 126.258 101.802 125.778 101.546 125.458C101.258 125.074 100.778 124.882 100.106 124.882C99.4342 124.882 98.6822 125.026 97.8502 125.314C97.0182 125.602 96.2022 125.97 95.4022 126.418C94.6022 126.866 93.8342 127.346 93.0982 127.858C92.3942 128.37 91.8022 128.85 91.3222 129.298ZM124.394 121.666C124.522 121.218 124.714 120.914 124.97 120.754C125.226 120.562 125.53 120.466 125.882 120.466C126.234 120.466 126.586 120.562 126.938 120.754C127.322 120.914 127.658 121.154 127.946 121.474C128.234 121.762 128.458 122.098 128.618 122.482C128.81 122.866 128.874 123.25 128.81 123.634C128.81 123.794 128.762 124.066 128.666 124.45C128.602 124.834 128.506 125.298 128.378 125.842C128.282 126.354 128.138 126.914 127.946 127.522C127.786 128.13 127.61 128.738 127.418 129.346C127.194 130.082 126.97 130.85 126.746 131.65C126.522 132.418 126.282 133.218 126.026 134.05C126.57 134.434 127.018 135.042 127.37 135.874C127.722 136.706 127.898 137.506 127.898 138.274C128.09 140.034 127.85 141.65 127.178 143.122C126.538 144.594 125.546 145.81 124.202 146.77C123.914 146.962 123.594 147.058 123.242 147.058C122.794 147.058 122.362 146.914 121.946 146.626C121.53 146.37 121.178 146.034 120.89 145.618C120.346 144.818 120.042 143.954 119.978 143.026C119.914 142.066 119.962 140.994 120.122 139.81C120.122 139.394 120.186 138.85 120.314 138.178C120.474 137.474 120.554 136.914 120.554 136.498C119.594 137.17 118.73 137.794 117.962 138.37C117.226 138.946 116.522 139.586 115.85 140.29C115.178 140.962 114.522 141.746 113.882 142.642C113.242 143.538 112.554 144.658 111.818 146.002C111.498 146.61 111.082 146.914 110.57 146.914C110.218 146.914 109.866 146.77 109.514 146.482C109.194 146.226 108.906 145.89 108.65 145.474C108.426 145.058 108.25 144.626 108.122 144.178C108.026 143.73 108.042 143.314 108.17 142.93C108.778 141.202 109.306 139.394 109.754 137.506C110.202 135.618 110.65 133.81 111.098 132.082C111.194 131.698 111.322 131.17 111.482 130.498C111.674 129.794 111.834 129.106 111.962 128.434C112.09 127.762 112.154 127.186 112.154 126.706C112.154 126.194 112.026 125.938 111.77 125.938C111.61 125.938 111.386 126.066 111.098 126.322C110.81 126.546 110.442 126.93 109.994 127.474C109.514 128.05 109.034 128.338 108.554 128.338C108.01 128.338 107.562 128.05 107.21 127.474C106.858 126.898 106.81 126.242 107.066 125.506C107.45 124.514 108.09 123.602 108.986 122.77C109.882 121.938 110.97 121.522 112.25 121.522C112.986 121.522 113.594 121.682 114.074 122.002C114.586 122.29 114.986 122.674 115.274 123.154C115.562 123.634 115.77 124.178 115.898 124.786C116.026 125.394 116.106 126.002 116.138 126.61C116.234 128.466 116.122 130.082 115.802 131.458C115.482 132.834 115.146 134.21 114.794 135.586C115.434 135.106 115.994 134.69 116.474 134.338C116.986 133.986 117.482 133.682 117.962 133.426C118.474 133.138 119.002 132.898 119.546 132.706C120.122 132.482 120.81 132.274 121.61 132.082C121.962 130.994 122.234 130.05 122.426 129.25C122.65 128.418 122.842 127.634 123.002 126.898C123.162 126.13 123.338 125.346 123.53 124.546C123.754 123.714 124.042 122.754 124.394 121.666ZM137.516 122.29C137.836 121.618 138.3 121.282 138.908 121.282C139.548 121.282 140.108 121.554 140.588 122.098C141.068 122.61 141.212 123.202 141.02 123.874C139.74 127.554 138.54 131.17 137.42 134.722C136.332 138.274 135.308 141.89 134.348 145.57C134.22 146.018 133.98 146.322 133.628 146.482C133.276 146.674 132.908 146.77 132.524 146.77C131.628 146.77 131.004 146.45 130.652 145.81C130.332 145.17 130.172 144.45 130.172 143.65C131.132 139.97 132.236 136.386 133.484 132.898C134.732 129.378 136.076 125.842 137.516 122.29ZM145.292 122.29C145.612 121.618 146.076 121.282 146.684 121.282C147.324 121.282 147.884 121.554 148.364 122.098C148.844 122.61 148.988 123.202 148.796 123.874C147.516 127.554 146.316 131.17 145.196 134.722C144.108 138.274 143.084 141.89 142.124 145.57C141.996 146.018 141.756 146.322 141.404 146.482C141.052 146.674 140.684 146.77 140.3 146.77C139.404 146.77 138.78 146.45 138.428 145.81C138.108 145.17 137.948 144.45 137.948 143.65C138.908 139.97 140.012 136.386 141.26 132.898C142.508 129.378 143.852 125.842 145.292 122.29ZM151.254 147.394C150.838 147.394 150.454 147.218 150.102 146.866C149.75 146.514 149.494 146.114 149.334 145.666C149.206 145.186 149.206 144.738 149.334 144.322C149.462 143.906 149.798 143.634 150.342 143.506C151.142 143.314 151.974 143.026 152.838 142.642C153.734 142.226 154.502 141.746 155.142 141.202C155.366 141.01 155.622 140.754 155.91 140.434C156.23 140.114 156.518 139.778 156.774 139.426C157.03 139.074 157.206 138.706 157.302 138.322C157.43 137.938 157.398 137.586 157.206 137.266C157.11 137.074 156.95 136.898 156.726 136.738C156.502 136.578 156.246 136.434 155.958 136.306C155.702 136.178 155.446 136.066 155.19 135.97C154.934 135.842 154.71 135.73 154.518 135.634C153.846 135.314 153.238 134.882 152.694 134.338C152.15 133.794 151.734 133.202 151.446 132.562C150.998 131.57 150.902 130.594 151.158 129.634C151.414 128.642 151.894 127.698 152.598 126.802C153.302 125.906 154.166 125.074 155.19 124.306C156.214 123.538 157.27 122.882 158.358 122.338C159.478 121.762 160.55 121.314 161.574 120.994C162.63 120.674 163.526 120.514 164.262 120.514C164.55 120.514 164.726 120.53 164.79 120.562H164.886C165.27 120.562 165.558 120.722 165.75 121.042C165.942 121.362 166.038 121.73 166.038 122.146C166.038 122.562 165.942 122.962 165.75 123.346C165.59 123.698 165.318 123.922 164.934 124.018C164.518 124.114 163.958 124.338 163.254 124.69C162.55 125.01 161.814 125.41 161.046 125.89C160.31 126.37 159.574 126.898 158.838 127.474C158.134 128.018 157.558 128.594 157.11 129.202C156.694 129.778 156.47 130.338 156.438 130.882C156.406 131.426 156.694 131.906 157.302 132.322C158.07 132.834 158.806 133.394 159.51 134.002C160.246 134.578 160.838 135.218 161.286 135.922C161.766 136.626 162.054 137.394 162.15 138.226C162.278 139.058 162.118 139.954 161.67 140.914C161.254 141.81 160.662 142.658 159.894 143.458C159.126 144.226 158.262 144.914 157.302 145.522C156.342 146.098 155.334 146.546 154.278 146.866C153.222 147.218 152.214 147.394 151.254 147.394ZM179.67 129.97L179.766 129.586C179.798 129.426 179.814 129.25 179.814 129.058C179.846 128.834 179.894 128.594 179.958 128.338C180.15 127.282 180.214 126.354 180.15 125.554C180.086 124.754 179.798 124.354 179.286 124.354C178.934 124.354 178.502 124.562 177.99 124.978C177.67 125.17 177.334 125.266 176.982 125.266C176.534 125.266 176.118 125.122 175.734 124.834C175.382 124.546 175.11 124.194 174.918 123.778C174.758 123.33 174.71 122.866 174.774 122.386C174.87 121.906 175.142 121.49 175.59 121.138C176.678 120.242 177.814 119.794 178.998 119.794C180.566 119.794 181.91 120.642 183.03 122.338C183.83 123.554 184.326 124.85 184.518 126.226C184.71 127.602 184.694 129.01 184.47 130.45C184.246 131.89 183.846 133.33 183.27 134.77C182.726 136.21 182.07 137.602 181.302 138.946C180.566 140.29 179.766 141.554 178.902 142.738C178.07 143.922 177.27 144.962 176.502 145.858C176.118 146.274 175.702 146.482 175.254 146.482C174.71 146.482 174.198 146.29 173.718 145.906C173.27 145.49 172.918 145.058 172.662 144.61C170.998 141.794 169.542 138.882 168.294 135.874C167.046 132.866 166.246 129.73 165.894 126.466C165.83 125.73 166.006 125.202 166.422 124.882C166.87 124.53 167.366 124.354 167.91 124.354C168.454 124.354 168.95 124.498 169.398 124.786C169.878 125.074 170.182 125.522 170.31 126.13C170.854 128.53 171.462 130.818 172.134 132.994C172.838 135.138 173.718 137.266 174.774 139.378C176.022 138.13 177.158 136.242 178.182 133.714C178.438 133.074 178.646 132.53 178.806 132.082C178.998 131.602 179.158 131.202 179.286 130.882C179.446 130.53 179.574 130.226 179.67 129.97ZM197.528 136.642C197.016 136.642 196.488 136.786 195.944 137.074C195.4 137.33 194.856 137.698 194.312 138.178C193.8 138.658 193.288 139.218 192.776 139.858C192.264 140.466 191.768 141.106 191.288 141.778C190.648 142.738 190.072 143.698 189.56 144.658C189.08 145.586 188.616 146.77 188.168 148.21C187.816 149.266 187.512 150.002 187.256 150.418C187.032 150.834 186.744 151.042 186.392 151.042C186.136 151.042 185.864 150.978 185.576 150.85C185.032 150.498 184.664 150.066 184.472 149.554C184.248 149.074 184.136 148.562 184.136 148.018C184.296 146.578 184.728 144.946 185.432 143.122C186.168 141.266 187.096 139.522 188.216 137.89C189.336 136.258 190.632 134.882 192.104 133.762C193.608 132.642 195.192 132.082 196.856 132.082C197.816 132.082 198.728 132.274 199.592 132.658C200.488 133.01 201.256 133.554 201.896 134.29C202.312 133.266 202.728 132.194 203.144 131.074C203.592 129.922 203.816 128.77 203.816 127.618C203.72 127.01 203.432 126.594 202.952 126.37C202.504 126.146 201.96 126.034 201.32 126.034C200.84 126.034 200.344 126.082 199.832 126.178C199.32 126.274 198.856 126.386 198.44 126.514C197.192 126.93 196.024 127.522 194.936 128.29C193.848 129.026 192.76 129.746 191.672 130.45C191.256 130.706 190.824 130.834 190.376 130.834C189.928 130.834 189.512 130.722 189.128 130.498C188.744 130.242 188.44 129.938 188.216 129.586C187.992 129.234 187.88 128.85 187.88 128.434C187.912 128.018 188.104 127.618 188.456 127.234C189.16 126.498 189.976 125.778 190.904 125.074C191.832 124.37 192.824 123.746 193.88 123.202C194.936 122.658 196.024 122.226 197.144 121.906C198.296 121.554 199.432 121.378 200.552 121.378C201.768 121.378 202.936 121.618 204.056 122.098C205.176 122.546 206.168 123.314 207.032 124.402C207.576 125.106 207.96 125.842 208.184 126.61C208.408 127.346 208.504 128.114 208.472 128.914C208.472 129.682 208.36 130.466 208.136 131.266C207.944 132.066 207.704 132.882 207.416 133.714C206.776 135.538 206.136 137.346 205.496 139.138C204.888 140.898 204.216 142.786 203.48 144.802C203.16 145.634 202.616 146.05 201.848 146.05C201.464 146.05 201.08 145.954 200.696 145.762C200.312 145.57 199.96 145.314 199.64 144.994C199.352 144.674 199.128 144.306 198.968 143.89C198.808 143.474 198.76 143.058 198.824 142.642C198.984 141.906 199.096 141.074 199.16 140.146C199.224 139.218 199.112 138.386 198.824 137.65C198.6 136.978 198.168 136.642 197.528 136.642ZM223.545 129.97L223.641 129.586C223.673 129.426 223.689 129.25 223.689 129.058C223.721 128.834 223.769 128.594 223.833 128.338C224.025 127.282 224.089 126.354 224.025 125.554C223.961 124.754 223.673 124.354 223.161 124.354C222.809 124.354 222.377 124.562 221.865 124.978C221.545 125.17 221.209 125.266 220.857 125.266C220.409 125.266 219.993 125.122 219.609 124.834C219.257 124.546 218.985 124.194 218.793 123.778C218.633 123.33 218.585 122.866 218.649 122.386C218.745 121.906 219.017 121.49 219.465 121.138C220.553 120.242 221.689 119.794 222.873 119.794C224.441 119.794 225.785 120.642 226.905 122.338C227.705 123.554 228.201 124.85 228.393 126.226C228.585 127.602 228.569 129.01 228.345 130.45C228.121 131.89 227.721 133.33 227.145 134.77C226.601 136.21 225.945 137.602 225.177 138.946C224.441 140.29 223.641 141.554 222.777 142.738C221.945 143.922 221.145 144.962 220.377 145.858C219.993 146.274 219.577 146.482 219.129 146.482C218.585 146.482 218.073 146.29 217.593 145.906C217.145 145.49 216.793 145.058 216.537 144.61C214.873 141.794 213.417 138.882 212.169 135.874C210.921 132.866 210.121 129.73 209.769 126.466C209.705 125.73 209.881 125.202 210.297 124.882C210.745 124.53 211.241 124.354 211.785 124.354C212.329 124.354 212.825 124.498 213.273 124.786C213.753 125.074 214.057 125.522 214.185 126.13C214.729 128.53 215.337 130.818 216.009 132.994C216.713 135.138 217.593 137.266 218.649 139.378C219.897 138.13 221.033 136.242 222.057 133.714C222.313 133.074 222.521 132.53 222.681 132.082C222.873 131.602 223.033 131.202 223.161 130.882C223.321 130.53 223.449 130.226 223.545 129.97Z" fill="#E4002B"/>
</svg>
