<svg width="288" height="152" viewBox="0 0 288 152" fill="none" xmlns="http://www.w3.org/2000/svg">
<path d="M102.518 28.3711C102.518 28.6523 102.471 28.9023 102.377 29.1211C102.283 29.3398 102.154 29.5273 101.99 29.6836C101.834 29.832 101.646 29.9453 101.428 30.0234C101.209 30.1016 100.979 30.1406 100.736 30.1406C100.486 30.1406 100.252 30.0977 100.033 30.0117C99.8223 29.9336 99.6387 29.8203 99.4824 29.6719C99.3262 29.5156 99.2012 29.3281 99.1074 29.1094C99.0137 28.8906 98.9668 28.6445 98.9668 28.3711V10.7109C98.9668 10.4375 99.0137 10.1914 99.1074 9.97266C99.2012 9.75391 99.3262 9.57031 99.4824 9.42188C99.6387 9.26562 99.8223 9.14844 100.033 9.07031C100.252 8.98438 100.486 8.94141 100.736 8.94141C100.979 8.94141 101.209 8.98047 101.428 9.05859C101.646 9.13672 101.834 9.25391 101.99 9.41016C102.154 9.55859 102.283 9.74219 102.377 9.96094C102.471 10.1797 102.518 10.4297 102.518 10.7109V28.3711ZM117.799 15.4102C117.799 14.8945 117.721 14.4258 117.564 14.0039C117.408 13.5742 117.166 13.2109 116.838 12.9141C116.51 12.6094 116.092 12.375 115.584 12.2109C115.076 12.0391 114.471 11.9531 113.768 11.9531C113.072 11.9531 112.475 12.0352 111.975 12.1992C111.475 12.3633 111.064 12.5938 110.744 12.8906C110.432 13.1875 110.201 13.5508 110.053 13.9805C109.904 14.4102 109.83 14.8867 109.83 15.4102V24.293L112.666 20.3086H111.951C111.74 20.3086 111.549 20.2734 111.377 20.2031C111.205 20.125 111.057 20.0234 110.932 19.8984C110.814 19.7734 110.721 19.6289 110.65 19.4648C110.588 19.293 110.557 19.1094 110.557 18.9141C110.557 18.7188 110.588 18.5391 110.65 18.375C110.721 18.2031 110.814 18.0547 110.932 17.9297C111.057 17.8047 111.205 17.707 111.377 17.6367C111.549 17.5586 111.74 17.5195 111.951 17.5195H115.525C115.736 17.5195 115.932 17.5586 116.111 17.6367C116.291 17.7148 116.447 17.8242 116.58 17.9648C116.721 18.0977 116.83 18.2539 116.908 18.4336C116.986 18.6133 117.025 18.8086 117.025 19.0195C117.025 19.332 116.939 19.6094 116.768 19.8516L110.053 29.2617C109.865 29.5273 109.623 29.7422 109.326 29.9062C109.029 30.0625 108.705 30.1406 108.354 30.1406C108.049 30.1406 107.768 30.0898 107.51 29.9883C107.26 29.8867 107.041 29.7461 106.854 29.5664C106.674 29.3789 106.533 29.1602 106.432 28.9102C106.33 28.6523 106.279 28.3711 106.279 28.0664V14.6953C106.279 13.7734 106.475 12.9531 106.865 12.2344C107.256 11.5156 107.791 10.9141 108.471 10.4297C109.15 9.9375 109.943 9.56641 110.85 9.31641C111.764 9.05859 112.736 8.92969 113.768 8.92969C114.807 8.92969 115.787 9.05859 116.709 9.31641C117.631 9.56641 118.436 9.9375 119.123 10.4297C119.811 10.9141 120.354 11.5156 120.752 12.2344C121.15 12.9531 121.35 13.7734 121.35 14.6953V28.3711C121.35 28.6523 121.303 28.9023 121.209 29.1211C121.115 29.3398 120.986 29.5273 120.822 29.6836C120.666 29.832 120.479 29.9453 120.26 30.0234C120.041 30.1016 119.811 30.1406 119.568 30.1406C119.318 30.1406 119.084 30.0977 118.865 30.0117C118.654 29.9336 118.471 29.8203 118.314 29.6719C118.158 29.5156 118.033 29.3281 117.939 29.1094C117.846 28.8906 117.799 28.6445 117.799 28.3711V15.4102ZM108.271 6.43359C108.045 6.43359 107.842 6.39453 107.662 6.31641C107.482 6.23828 107.326 6.13281 107.193 6C107.061 5.86719 106.959 5.71094 106.889 5.53125C106.818 5.34375 106.783 5.14844 106.783 4.94531C106.783 4.74219 106.818 4.55078 106.889 4.37109C106.959 4.19141 107.061 4.03516 107.193 3.90234C107.326 3.76172 107.482 3.65234 107.662 3.57422C107.842 3.49609 108.045 3.45703 108.271 3.45703H120.119C120.338 3.45703 120.541 3.49609 120.729 3.57422C120.908 3.65234 121.064 3.76172 121.197 3.90234C121.33 4.03516 121.432 4.19141 121.502 4.37109C121.572 4.55078 121.607 4.74219 121.607 4.94531C121.607 5.14844 121.572 5.34375 121.502 5.53125C121.432 5.71094 121.33 5.86719 121.197 6C121.064 6.13281 120.908 6.23828 120.729 6.31641C120.541 6.39453 120.338 6.43359 120.119 6.43359H108.271ZM139.467 28.3945C139.467 28.6523 139.42 28.8906 139.326 29.1094C139.24 29.3203 139.119 29.5039 138.963 29.6602C138.807 29.8086 138.623 29.9219 138.412 30C138.209 30.0859 137.986 30.1289 137.744 30.1289C137.502 30.1289 137.275 30.0859 137.064 30C136.854 29.9219 136.67 29.8086 136.514 29.6602C136.357 29.5039 136.232 29.3203 136.139 29.1094C136.053 28.8984 136.01 28.6602 136.01 28.3945V27.9375C135.65 28.2734 135.283 28.5781 134.908 28.8516C134.541 29.1172 134.154 29.3477 133.748 29.543C133.35 29.7305 132.92 29.875 132.459 29.9766C132.006 30.0859 131.518 30.1406 130.994 30.1406C130.189 30.1406 129.432 30.0273 128.721 29.8008C128.01 29.5664 127.385 29.2188 126.846 28.7578C126.314 28.2891 125.893 27.7109 125.58 27.0234C125.275 26.3359 125.123 25.5352 125.123 24.6211V10.6992C125.123 10.418 125.17 10.168 125.264 9.94922C125.357 9.73047 125.482 9.54688 125.639 9.39844C125.803 9.24219 125.99 9.125 126.201 9.04688C126.42 8.96875 126.654 8.92969 126.904 8.92969C127.146 8.92969 127.377 8.97266 127.596 9.05859C127.814 9.13672 128.002 9.25391 128.158 9.41016C128.314 9.55859 128.439 9.74219 128.533 9.96094C128.627 10.1797 128.674 10.4258 128.674 10.6992V24.2461C128.674 24.6758 128.736 25.0664 128.861 25.418C128.986 25.7695 129.178 26.0742 129.436 26.332C129.693 26.582 130.014 26.7773 130.396 26.918C130.779 27.0508 131.229 27.1172 131.744 27.1172C132.463 27.1172 133.084 26.9883 133.607 26.7305C134.139 26.4648 134.572 26.1172 134.908 25.6875C135.252 25.25 135.506 24.7461 135.67 24.1758C135.834 23.6055 135.916 23.0156 135.916 22.4062V10.6992C135.916 10.418 135.963 10.168 136.057 9.94922C136.15 9.73047 136.275 9.54688 136.432 9.39844C136.596 9.24219 136.783 9.125 136.994 9.04688C137.213 8.96875 137.447 8.92969 137.697 8.92969C137.939 8.92969 138.17 8.97266 138.389 9.05859C138.607 9.13672 138.795 9.25391 138.951 9.41016C139.107 9.55859 139.232 9.74219 139.326 9.96094C139.42 10.1797 139.467 10.4258 139.467 10.6992V28.3945ZM147.342 16.8516C147.553 16.8438 147.752 16.8828 147.939 16.9688C148.135 17.0469 148.303 17.1602 148.443 17.3086C148.584 17.4492 148.693 17.6172 148.771 17.8125C148.857 18 148.9 18.1992 148.9 18.4102C148.9 18.6211 148.857 18.8203 148.771 19.0078C148.693 19.1953 148.584 19.3594 148.443 19.5C148.303 19.6406 148.135 19.7539 147.939 19.8398C147.752 19.918 147.553 19.9609 147.342 19.9688C146.646 19.9844 146.006 19.9062 145.42 19.7344C144.842 19.5625 144.33 19.293 143.885 18.9258C143.447 18.5586 143.092 18.0859 142.818 17.5078C142.545 16.9297 142.373 16.2461 142.303 15.457C142.248 14.707 142.271 13.9961 142.373 13.3242C142.475 12.6523 142.678 12.0391 142.982 11.4844C143.295 10.9219 143.721 10.4375 144.26 10.0312C144.807 9.61719 145.494 9.29688 146.322 9.07031C146.416 9.04688 146.525 9.01953 146.65 8.98828C146.783 8.95703 146.92 8.94141 147.061 8.94141C147.201 8.94141 147.346 8.96484 147.494 9.01172C147.643 9.05078 147.779 9.13281 147.904 9.25781L149.17 10.5117L150.283 9.30469C150.4 9.17969 150.518 9.08984 150.635 9.03516C150.76 8.97266 150.877 8.93359 150.986 8.91797C151.104 8.89453 151.209 8.89062 151.303 8.90625C151.396 8.92188 151.475 8.93359 151.537 8.94141C152.201 9.05859 152.771 9.23438 153.248 9.46875C153.732 9.69531 154.139 9.97266 154.467 10.3008C154.795 10.6289 155.057 10.9961 155.252 11.4023C155.455 11.8008 155.607 12.2305 155.709 12.6914C155.818 13.1445 155.889 13.6172 155.92 14.1094C155.959 14.6016 155.979 15.0977 155.979 15.5977V35.0859C155.979 35.3672 155.932 35.6172 155.838 35.8359C155.744 36.0547 155.615 36.2383 155.451 36.3867C155.295 36.543 155.107 36.6602 154.889 36.7383C154.67 36.8164 154.439 36.8555 154.197 36.8555C153.947 36.8555 153.713 36.8125 153.494 36.7266C153.283 36.6484 153.1 36.5312 152.943 36.375C152.787 36.2266 152.662 36.043 152.568 35.8242C152.475 35.6055 152.428 35.3594 152.428 35.0859V15.2695C152.428 15.0039 152.416 14.7227 152.393 14.4258C152.377 14.1211 152.338 13.8281 152.275 13.5469C152.221 13.2656 152.135 13.0078 152.018 12.7734C151.908 12.5391 151.756 12.3633 151.561 12.2461L149.885 13.9219C149.666 14.1172 149.439 14.2148 149.205 14.2148C148.979 14.2148 148.756 14.1172 148.537 13.9219L146.814 12.1992C146.572 12.3164 146.385 12.4727 146.252 12.668C146.119 12.8633 146.018 13.0859 145.947 13.3359C145.885 13.5781 145.846 13.8477 145.83 14.1445C145.814 14.4414 145.807 14.75 145.807 15.0703C145.807 15.2656 145.826 15.4688 145.865 15.6797C145.912 15.8906 145.99 16.0859 146.1 16.2656C146.217 16.4375 146.373 16.582 146.568 16.6992C146.771 16.8086 147.029 16.8594 147.342 16.8516ZM160.35 13.4414C160.592 12.7383 160.92 12.1094 161.334 11.5547C161.748 11 162.232 10.5312 162.787 10.1484C163.35 9.76562 163.975 9.47656 164.662 9.28125C165.357 9.07812 166.107 8.97656 166.912 8.97656C168.209 8.97656 169.326 9.20312 170.264 9.65625C171.209 10.1016 171.986 10.75 172.596 11.6016C173.213 12.4453 173.666 13.4766 173.955 14.6953C174.252 15.9141 174.4 17.2891 174.4 18.8203C174.4 21.0156 174.225 22.8477 173.873 24.3164C173.529 25.7773 173.033 26.9492 172.385 27.832C171.736 28.707 170.947 29.3281 170.018 29.6953C169.096 30.0625 168.061 30.2461 166.912 30.2461C166.17 30.2461 165.471 30.168 164.814 30.0117C164.158 29.8555 163.553 29.6016 162.998 29.25C162.443 28.8906 161.947 28.4258 161.51 27.8555C161.08 27.2773 160.713 26.5703 160.408 25.7344C160.104 24.8906 159.869 23.9062 159.705 22.7812C159.549 21.6562 159.471 20.3672 159.471 18.9141C159.471 18.7109 159.51 18.5195 159.588 18.3398C159.666 18.1602 159.771 18.0039 159.904 17.8711C160.037 17.7305 160.193 17.6211 160.373 17.543C160.561 17.4648 160.756 17.4258 160.959 17.4258H165.518C165.721 17.4258 165.912 17.4648 166.092 17.543C166.271 17.6211 166.428 17.7305 166.561 17.8711C166.701 18.0039 166.811 18.1602 166.889 18.3398C166.967 18.5195 167.006 18.7109 167.006 18.9141C167.006 19.1172 166.967 19.3125 166.889 19.5C166.811 19.6797 166.701 19.8359 166.561 19.9688C166.428 20.1016 166.271 20.207 166.092 20.2852C165.912 20.3633 165.721 20.4023 165.518 20.4023H163.174C163.197 21.4102 163.275 22.332 163.408 23.168C163.541 24.0039 163.748 24.7227 164.029 25.3242C164.318 25.9258 164.697 26.3945 165.166 26.7305C165.635 27.0586 166.217 27.2227 166.912 27.2227C167.67 27.2227 168.291 27.0391 168.775 26.6719C169.268 26.2969 169.654 25.7773 169.936 25.1133C170.225 24.4492 170.424 23.6602 170.533 22.7461C170.65 21.832 170.709 20.8281 170.709 19.7344C170.709 18.3438 170.635 17.1602 170.486 16.1836C170.338 15.1992 170.107 14.3984 169.795 13.7812C169.49 13.1641 169.1 12.7148 168.623 12.4336C168.146 12.1445 167.576 12 166.912 12C166.162 12 165.514 12.2188 164.967 12.6562C164.42 13.0859 164.002 13.7539 163.713 14.6602C163.635 14.8945 163.514 15.0977 163.35 15.2695C163.193 15.4414 163.01 15.5781 162.799 15.6797C162.588 15.7734 162.361 15.8281 162.119 15.8438C161.885 15.8516 161.65 15.8125 161.416 15.7266C161.182 15.6406 160.979 15.5195 160.807 15.3633C160.643 15.1992 160.51 15.0156 160.408 14.8125C160.314 14.6016 160.26 14.3789 160.244 14.1445C160.229 13.9102 160.264 13.6758 160.35 13.4414ZM191.92 24.2461C191.92 25.1836 191.764 26.0195 191.451 26.7539C191.146 27.4883 190.693 28.1133 190.092 28.6289C189.498 29.1367 188.76 29.5273 187.877 29.8008C187.002 30.0664 185.994 30.1992 184.854 30.1992C183.783 30.1992 182.799 30.0664 181.9 29.8008C181.01 29.5352 180.236 29.1406 179.58 28.6172C178.932 28.0859 178.424 27.4258 178.057 26.6367C177.697 25.8398 177.518 24.9141 177.518 23.8594C177.518 23.4062 177.537 22.9297 177.576 22.4297C177.623 21.9219 177.732 21.4297 177.904 20.9531C178.084 20.4688 178.346 20.0156 178.689 19.5938C179.033 19.1719 179.506 18.8164 180.107 18.5273C179.545 18.3008 179.096 18.0195 178.76 17.6836C178.424 17.3398 178.166 16.9727 177.986 16.582C177.814 16.1836 177.701 15.7734 177.646 15.3516C177.592 14.9219 177.564 14.5078 177.564 14.1094C177.564 13.4609 177.646 12.8906 177.811 12.3984C177.975 11.9062 178.197 11.4766 178.479 11.1094C178.768 10.7422 179.096 10.4375 179.463 10.1953C179.838 9.94531 180.229 9.74609 180.635 9.59766C181.049 9.44141 181.471 9.33203 181.9 9.26953C182.33 9.20703 182.74 9.17578 183.131 9.17578H184.584C184.811 9.17578 185.014 9.21484 185.193 9.29297C185.381 9.37109 185.541 9.48047 185.674 9.62109C185.807 9.75391 185.908 9.91406 185.979 10.1016C186.057 10.2812 186.096 10.4766 186.096 10.6875C186.096 10.8984 186.061 11.0977 185.99 11.2852C185.92 11.4648 185.818 11.625 185.686 11.7656C185.553 11.8984 185.393 12.0039 185.205 12.082C185.018 12.1602 184.811 12.1992 184.584 12.1992H183.951C183.748 12.1992 183.482 12.2148 183.154 12.2461C182.826 12.2695 182.506 12.3477 182.193 12.4805C181.889 12.6133 181.623 12.8242 181.396 13.1133C181.178 13.3945 181.068 13.793 181.068 14.3086C181.068 14.8633 181.15 15.3203 181.314 15.6797C181.486 16.0312 181.713 16.3086 181.994 16.5117C182.283 16.7148 182.615 16.8594 182.99 16.9453C183.365 17.0234 183.764 17.0625 184.186 17.0625H184.584C184.811 17.0625 185.014 17.1016 185.193 17.1797C185.381 17.2578 185.541 17.3672 185.674 17.5078C185.807 17.6406 185.908 17.8008 185.979 17.9883C186.057 18.168 186.096 18.3633 186.096 18.5742C186.096 18.7852 186.061 18.9844 185.99 19.1719C185.92 19.3516 185.818 19.5117 185.686 19.6523C185.553 19.7852 185.393 19.8906 185.205 19.9688C185.018 20.0469 184.811 20.0859 184.584 20.0859H184.186C183.725 20.0859 183.299 20.125 182.908 20.2031C182.525 20.2812 182.193 20.4453 181.912 20.6953C181.631 20.9453 181.412 21.3125 181.256 21.7969C181.1 22.2734 181.021 22.9141 181.021 23.7188C181.021 24.25 181.096 24.7305 181.244 25.1602C181.393 25.582 181.619 25.9414 181.924 26.2383C182.236 26.5352 182.635 26.7656 183.119 26.9297C183.604 27.0938 184.182 27.1758 184.854 27.1758C185.549 27.1758 186.123 27.0898 186.576 26.918C187.029 26.7383 187.389 26.4883 187.654 26.168C187.92 25.8477 188.104 25.4688 188.205 25.0312C188.314 24.5859 188.369 24.0977 188.369 23.5664V10.6992C188.369 10.4258 188.416 10.1797 188.51 9.96094C188.604 9.74219 188.729 9.55859 188.885 9.41016C189.041 9.25391 189.225 9.13672 189.436 9.05859C189.654 8.97266 189.889 8.92969 190.139 8.92969C190.381 8.92969 190.611 8.96875 190.83 9.04688C191.049 9.125 191.236 9.24219 191.393 9.39844C191.557 9.54688 191.686 9.73047 191.779 9.94922C191.873 10.168 191.92 10.418 191.92 10.6992V24.2461ZM188.662 33.7148C188.662 33.4883 188.705 33.2734 188.791 33.0703C188.877 32.875 188.994 32.7031 189.143 32.5547C189.283 32.4141 189.455 32.3008 189.658 32.2148C189.854 32.1289 190.064 32.0859 190.291 32.0859C190.518 32.0859 190.732 32.1289 190.936 32.2148C191.131 32.3008 191.303 32.4141 191.451 32.5547C191.592 32.7031 191.705 32.875 191.791 33.0703C191.877 33.2734 191.92 33.4883 191.92 33.7148V35.7773C191.904 36.3789 191.814 36.9492 191.65 37.4883C191.486 38.0273 191.221 38.5 190.854 38.9062C190.486 39.3203 190.01 39.6445 189.424 39.8789C188.838 40.1211 188.119 40.2422 187.268 40.2422C186.416 40.2422 185.697 40.1211 185.111 39.8789C184.525 39.6445 184.049 39.3203 183.682 38.9062C183.314 38.5 183.049 38.0273 182.885 37.4883C182.713 36.9492 182.623 36.3789 182.615 35.7773V35.2031H182.17C181.951 35.2031 181.752 35.1641 181.572 35.0859C181.393 35.0156 181.24 34.9141 181.115 34.7812C180.99 34.6484 180.896 34.4961 180.834 34.3242C180.764 34.1523 180.729 33.9648 180.729 33.7617C180.729 33.5664 180.764 33.3789 180.834 33.1992C180.904 33.0273 181.002 32.875 181.127 32.7422C181.252 32.6094 181.404 32.5039 181.584 32.4258C181.756 32.3555 181.951 32.3203 182.17 32.3203H184.432C184.627 32.3203 184.814 32.3555 184.994 32.4258C185.166 32.5039 185.318 32.6094 185.451 32.7422C185.584 32.875 185.689 33.0273 185.768 33.1992C185.838 33.3789 185.873 33.5664 185.873 33.7617V35.7773C185.873 36.332 185.99 36.75 186.225 37.0312C186.459 37.3203 186.807 37.4648 187.268 37.4648C187.729 37.4648 188.076 37.3203 188.311 37.0312C188.545 36.75 188.662 36.332 188.662 35.7773V33.7148ZM191.873 4.98047C191.873 5.23828 191.83 5.47266 191.744 5.68359C191.658 5.89453 191.541 6.07422 191.393 6.22266C191.236 6.36328 191.057 6.47266 190.854 6.55078C190.65 6.62891 190.432 6.66797 190.197 6.66797C189.963 6.66797 189.744 6.62891 189.541 6.55078C189.338 6.47266 189.162 6.36328 189.014 6.22266C188.857 6.07422 188.736 5.89453 188.65 5.68359C188.557 5.47266 188.51 5.23828 188.51 4.98047V1.6875C188.51 1.42969 188.557 1.19531 188.65 0.984375C188.736 0.773438 188.857 0.597656 189.014 0.457031C189.162 0.308594 189.338 0.195312 189.541 0.117188C189.744 0.0390625 189.963 0 190.197 0C190.432 0 190.65 0.0390625 190.854 0.117188C191.057 0.195312 191.236 0.308594 191.393 0.457031C191.541 0.597656 191.658 0.773438 191.744 0.984375C191.83 1.19531 191.873 1.42969 191.873 1.6875V4.98047Z" fill="#151F6D"/>
<path d="M29.4992 67.6502C29.3392 67.4902 29.1472 67.4102 28.9232 67.4102C28.5392 67.4102 28.1392 67.5862 27.7232 67.9382C27.3072 68.2902 26.9552 68.6102 26.6672 68.8982C26.4432 69.0582 26.2192 69.1382 25.9952 69.1382C25.7072 69.1382 25.4352 69.0262 25.1792 68.8022C24.9232 68.5462 24.7312 68.2582 24.6032 67.9382C24.5072 67.5862 24.4592 67.2342 24.4592 66.8822C24.4912 66.4982 24.6192 66.1942 24.8432 65.9702C25.1632 65.6182 25.5312 65.2662 25.9472 64.9142C26.3952 64.5302 26.8592 64.1942 27.3392 63.9062C27.8192 63.6182 28.3152 63.3782 28.8272 63.1862C29.3712 62.9942 29.8832 62.8982 30.3632 62.8982C30.9392 62.8982 31.4672 63.0422 31.9472 63.3302C32.4592 63.6182 32.8912 64.1302 33.2432 64.8662C33.4992 65.3782 33.6272 66.3062 33.6272 67.6502C33.6272 68.9622 33.5792 70.4342 33.4832 72.0662C33.3552 73.7302 33.1792 75.4262 32.9552 77.1542C32.7312 78.8502 32.5072 80.3702 32.2832 81.7142C32.4432 81.4262 32.6032 81.1702 32.7632 80.9462C32.9552 80.6902 33.1152 80.4502 33.2432 80.2262C34.3632 78.2102 35.3392 76.1942 36.1712 74.1782C37.0352 72.1622 37.8832 70.1462 38.7152 68.1302C38.9712 67.4582 39.4512 67.1222 40.1552 67.1222C40.7952 67.1222 41.4192 67.3782 42.0272 67.8902C42.6672 68.4022 43.0352 68.9782 43.1312 69.6182C43.1632 69.7142 43.1792 70.1302 43.1792 70.8662C43.2112 71.5702 43.2432 72.4502 43.2752 73.5062C43.3072 74.5622 43.3552 75.6822 43.4192 76.8662C43.4832 78.0502 43.5632 79.1542 43.6592 80.1782C43.7872 81.2022 43.9472 82.0502 44.1392 82.7222C44.3312 83.3942 44.5712 83.7302 44.8592 83.7302C45.1152 83.7302 45.3872 83.4262 45.6752 82.8182C46.4112 81.3782 47.0032 79.8742 47.4512 78.3062C47.9312 76.7062 48.3312 75.0902 48.6512 73.4582C48.9712 71.8262 49.2592 70.2102 49.5152 68.6102C49.8032 66.9782 50.1232 65.4102 50.4752 63.9062C50.6032 63.2982 50.9392 62.9942 51.4832 62.9942C51.7712 62.9942 52.0592 63.0742 52.3472 63.2343C52.6672 63.3942 52.9552 63.6182 53.2112 63.9062C53.4672 64.1622 53.6752 64.4502 53.8352 64.7702C54.0272 65.0902 54.1232 65.4102 54.1232 65.7302C54.0592 66.4342 53.9312 67.4582 53.7392 68.8022C53.5792 70.1462 53.3552 71.6342 53.0672 73.2662C52.8112 74.8662 52.4752 76.5142 52.0592 78.2102C51.6432 79.9062 51.1632 81.4582 50.6192 82.8662C50.0752 84.2742 49.4512 85.4422 48.7472 86.3702C48.0752 87.2982 47.3072 87.8102 46.4432 87.9062C46.2832 87.9383 46.1392 87.9543 46.0112 87.9543C45.9152 87.9543 45.7872 87.9543 45.6272 87.9543C44.5712 87.9543 43.6592 87.6982 42.8912 87.1862C42.1232 86.6422 41.4672 85.9702 40.9232 85.1702C40.4112 84.3702 39.9952 83.4902 39.6752 82.5302C39.3552 81.5382 39.1152 80.6102 38.9552 79.7462C38.7312 80.1942 38.5072 80.6422 38.2832 81.0902C38.0912 81.5382 37.8672 81.9862 37.6112 82.4342C37.3232 83.0102 36.9712 83.6502 36.5552 84.3542C36.1712 85.0262 35.7232 85.6502 35.2112 86.2262C34.6992 86.8022 34.1232 87.2982 33.4832 87.7142C32.8432 88.0983 32.1392 88.2903 31.3712 88.2903C31.0192 88.2903 30.6512 88.2423 30.2672 88.1463C29.4352 87.9223 28.8432 87.3622 28.4912 86.4662C28.1712 85.5382 27.9952 84.4182 27.9632 83.1062C27.9312 81.7942 27.9952 80.3862 28.1552 78.8822C28.3472 77.3462 28.5552 75.8582 28.7792 74.4182C29.0032 72.9462 29.1952 71.6182 29.3552 70.4342C29.5152 69.2182 29.5632 68.2902 29.4992 67.6502ZM57.8402 72.4022C57.5522 72.7222 57.2162 72.8822 56.8322 72.8822C56.5122 72.8822 56.2082 72.7862 55.9202 72.5942C55.6642 72.3702 55.4562 72.1142 55.2962 71.8262C55.1362 71.5062 55.0402 71.1862 55.0082 70.8662C54.9762 70.5142 55.0562 70.1942 55.2482 69.9062C55.7922 69.1702 56.3682 68.4342 56.9762 67.6982C57.6162 66.9302 58.3042 66.2422 59.0402 65.6342C59.7762 65.0262 60.5762 64.5302 61.4402 64.1462C62.3042 63.7622 63.2322 63.5702 64.2242 63.5702C65.3122 63.5702 66.3042 63.8422 67.2002 64.3862C68.1282 64.9302 68.8002 65.7942 69.2162 66.9782C69.4722 67.6502 69.5682 68.5942 69.5042 69.8102C69.4402 70.9942 69.2642 72.3222 68.9762 73.7943C68.6882 75.2342 68.3202 76.7382 67.8722 78.3062C67.4242 79.8422 66.9442 81.3142 66.4322 82.7222C65.9522 84.1302 65.4722 85.3942 64.9922 86.5142C64.5122 87.6022 64.0802 88.4023 63.6962 88.9143C63.4722 89.2983 63.1362 89.4902 62.6882 89.4902C62.4002 89.4902 62.1122 89.4103 61.8242 89.2503C61.5682 89.0903 61.3282 88.8823 61.1042 88.6263C60.8802 88.3703 60.7042 88.0983 60.5762 87.8102C60.4482 87.5222 60.3842 87.2662 60.3842 87.0422C60.6402 85.6022 60.9602 84.1622 61.3442 82.7222C61.7282 81.2822 62.1122 79.8422 62.4962 78.4022C62.9122 76.9622 63.3122 75.5222 63.6962 74.0822C64.1122 72.6422 64.4642 71.2022 64.7522 69.7622C64.8162 69.1542 64.8162 68.6902 64.7522 68.3702C64.7202 68.0502 64.5442 67.8902 64.2242 67.8902C63.9042 67.8902 63.3122 68.1302 62.4482 68.6102C61.5202 69.0582 60.7042 69.6502 60.0002 70.3862C59.2962 71.0902 58.5762 71.7622 57.8402 72.4022ZM71.822 69.9542C72.558 68.7382 73.438 67.6502 74.462 66.6902C75.486 65.6982 76.542 64.7062 77.63 63.7142C77.918 63.5222 78.206 63.4262 78.494 63.4262C78.878 63.4262 79.198 63.5542 79.454 63.8102C79.71 64.0662 79.886 64.3862 79.982 64.7702C80.11 65.1222 80.142 65.4902 80.078 65.8742C80.014 66.2582 79.838 66.5942 79.55 66.8822C78.814 67.5542 78.11 68.2902 77.438 69.0902C76.798 69.8902 76.27 70.7062 75.854 71.5382C74.99 73.7142 74.766 74.8022 75.182 74.8022C75.342 74.8022 75.614 74.7062 75.998 74.5142C76.382 74.2902 76.638 74.1142 76.766 73.9862C77.502 73.6662 78.174 73.3142 78.782 72.9302C79.39 72.5142 80.142 72.1302 81.038 71.7782C81.294 71.7142 81.454 71.6822 81.518 71.6822C81.87 71.6822 82.238 71.7942 82.622 72.0182C83.006 72.2102 83.326 72.4662 83.582 72.7862C83.838 73.1062 83.982 73.4742 84.014 73.8902C84.078 74.2742 83.95 74.6582 83.63 75.0422C83.15 75.6822 82.67 76.2902 82.19 76.8662C81.71 77.4422 81.246 78.0502 80.798 78.6902C80.382 79.2662 79.806 80.3062 79.07 81.8102C78.398 83.1222 78.622 83.7782 79.742 83.7782H80.078C81.486 83.6822 82.574 83.2662 83.342 82.5302C84.142 81.7622 84.798 80.8822 85.31 79.8902C85.854 78.9302 86.286 77.9062 86.606 76.8182C86.926 75.6982 87.23 74.5942 87.518 73.5062C87.966 71.7782 88.398 70.0822 88.814 68.4182C89.262 66.7222 89.806 65.0102 90.446 63.2822C90.702 62.7062 91.118 62.4182 91.694 62.4182C91.982 62.4182 92.286 62.4982 92.606 62.6582C92.926 62.7862 93.198 62.9782 93.422 63.2343C93.678 63.4582 93.87 63.7142 93.998 64.0022C94.158 64.2902 94.206 64.5782 94.142 64.8662C93.502 67.3942 92.926 69.9542 92.414 72.5462C91.902 75.1062 91.198 77.5382 90.302 79.8422C89.918 80.8342 89.406 81.8422 88.766 82.8662C88.158 83.8902 87.438 84.8182 86.606 85.6502C85.774 86.4822 84.846 87.1542 83.822 87.6662C82.798 88.1783 81.694 88.4343 80.51 88.4343C79.742 88.4343 78.99 88.3063 78.254 88.0503C77.55 87.8262 76.91 87.4902 76.334 87.0422C75.79 86.5942 75.358 86.0502 75.038 85.4102C74.718 84.7382 74.574 84.0022 74.606 83.2022C74.702 81.6662 75.038 80.2422 75.614 78.9302C74.718 78.9302 73.854 78.7862 73.022 78.4982C72.222 78.2102 71.582 77.7622 71.102 77.1542C70.686 76.6102 70.43 76.0182 70.334 75.3782C70.238 74.7382 70.254 74.1142 70.382 73.5062C70.51 72.8662 70.702 72.2422 70.958 71.6342C71.246 71.0262 71.534 70.4662 71.822 69.9542ZM88.2234 93.2343C88.0314 94.1623 87.8234 95.1543 87.5994 96.2103C87.3754 97.2983 87.1034 98.3543 86.7834 99.3783C86.4634 100.434 86.0794 101.442 85.6314 102.402C85.1834 103.362 84.6554 104.21 84.0474 104.946C83.5034 105.426 82.7834 105.666 81.8874 105.666C81.5354 105.666 81.1834 105.602 80.8314 105.474C80.4794 105.378 80.1914 105.218 79.9674 104.994C79.7114 104.802 79.5514 104.546 79.4874 104.226C79.4234 103.906 79.4874 103.522 79.6794 103.074C80.1274 102.018 80.5274 101.09 80.8794 100.29C81.2314 99.4903 81.5674 98.7063 81.8874 97.9383C82.1754 97.2023 82.4794 96.4183 82.7994 95.5863C83.0874 94.7543 83.4074 93.7623 83.7594 92.6103C83.8874 92.1623 84.1914 91.8263 84.6714 91.6023C85.1194 91.3783 85.5994 91.2663 86.1114 91.2663C86.7514 91.2663 87.3274 91.4263 87.8394 91.7463C88.3194 92.0983 88.4474 92.5943 88.2234 93.2343ZM99.9834 69.0902C99.6954 69.4102 99.3914 69.7462 99.0714 70.0982C98.7834 70.4182 98.4954 70.8022 98.2074 71.2502C97.8554 71.6982 97.4394 71.9222 96.9594 71.9222C96.6714 71.9222 96.3994 71.8422 96.1434 71.6822C95.8874 71.4902 95.6794 71.2662 95.5194 71.0102C95.3594 70.7222 95.2474 70.4182 95.1834 70.0982C95.1514 69.7462 95.1994 69.4102 95.3274 69.0902C95.5194 68.6102 95.8074 68.0502 96.1914 67.4102C96.5754 66.7702 97.0074 66.1622 97.4874 65.5862C97.9994 65.0102 98.5434 64.5302 99.1194 64.1462C99.7274 63.7302 100.319 63.5222 100.895 63.5222C101.311 63.5222 101.711 63.6502 102.095 63.9062C102.511 64.1302 102.911 64.5302 103.295 65.1062C103.647 65.6822 103.855 66.3702 103.919 67.1702C103.983 67.9702 103.983 68.8022 103.919 69.6662C104.367 68.9622 104.863 68.2422 105.407 67.5062C105.951 66.7702 106.543 66.0982 107.183 65.4902C107.823 64.8822 108.511 64.3862 109.247 64.0022C109.983 63.5862 110.767 63.3462 111.599 63.2822H112.031C113.279 63.2822 114.271 63.6662 115.007 64.4342C115.743 65.2022 116.271 66.1302 116.591 67.2182C116.943 68.3062 117.135 69.4582 117.167 70.6742C117.199 71.8582 117.151 72.8982 117.023 73.7943C116.703 76.3222 116.271 78.8662 115.727 81.4262C115.215 83.9542 114.575 86.4822 113.807 89.0103C113.615 89.6823 113.119 90.0183 112.319 90.0183C111.935 90.0183 111.551 89.9383 111.167 89.7783C110.783 89.6183 110.431 89.4103 110.111 89.1543C109.823 88.8983 109.599 88.5943 109.439 88.2423C109.311 87.9223 109.311 87.5702 109.439 87.1862C109.791 84.9782 110.207 82.8022 110.687 80.6582C111.167 78.5142 111.599 76.3382 111.983 74.1302C112.047 73.7782 112.127 73.3142 112.223 72.7382C112.319 72.1622 112.367 71.6022 112.367 71.0582C112.367 70.5142 112.271 70.0502 112.079 69.6662C111.919 69.2502 111.615 69.0422 111.167 69.0422C111.103 69.0422 111.055 69.0582 111.023 69.0902C110.991 69.0902 110.943 69.0902 110.879 69.0902C110.239 69.6342 109.663 70.2422 109.151 70.9142C108.671 71.5862 108.207 72.2902 107.759 73.0262C107.343 73.7302 106.943 74.4662 106.559 75.2343C106.207 75.9702 105.839 76.6902 105.455 77.3942C104.559 79.0582 103.791 80.7062 103.151 82.3382C102.511 83.9382 101.823 85.5543 101.087 87.1862C100.767 87.9543 100.207 88.3383 99.4074 88.3383C99.0554 88.3383 98.7034 88.2423 98.3514 88.0503C97.9994 87.8902 97.6794 87.6822 97.3914 87.4262C97.1354 87.1382 96.9434 86.8182 96.8154 86.4662C96.6874 86.1142 96.6714 85.7462 96.7674 85.3622C96.7994 85.2662 96.8154 85.1702 96.8154 85.0742C96.8474 84.9462 96.8794 84.8342 96.9114 84.7383L96.7674 84.6422C96.8314 84.4502 96.9114 84.2582 97.0074 84.0662C97.1034 83.8742 97.1834 83.6982 97.2474 83.5382C97.5354 82.4502 97.8234 81.2982 98.1114 80.0822C98.4314 78.8662 98.7194 77.6342 98.9754 76.3862C99.2314 75.1382 99.4394 73.8902 99.5994 72.6422C99.7914 71.3942 99.9194 70.2102 99.9834 69.0902ZM129.898 67.1702C129.962 67.1702 130.01 67.1702 130.042 67.1702C130.074 67.1382 130.106 67.1222 130.138 67.1222C130.522 67.1222 130.858 67.2822 131.146 67.6022C131.434 67.8902 131.626 68.2262 131.722 68.6102C131.85 68.9942 131.882 69.3782 131.818 69.7622C131.754 70.1462 131.562 70.4182 131.242 70.5782C130.57 70.8982 129.882 71.2822 129.178 71.7302C128.506 72.1462 127.802 72.5462 127.066 72.9302C126.362 73.3142 125.626 73.6342 124.858 73.8902C124.09 74.1462 123.29 74.2742 122.458 74.2742C121.786 74.2742 121.146 74.0342 120.538 73.5542C119.93 73.0742 119.546 72.4182 119.386 71.5862C119.386 71.2342 119.45 70.8662 119.578 70.4822C119.706 70.0662 119.866 69.6662 120.058 69.2822C120.25 68.8662 120.458 68.4822 120.682 68.1302C120.938 67.7462 121.194 67.4262 121.45 67.1702C121.642 66.8822 121.898 66.7382 122.218 66.7382C122.442 66.7382 122.666 66.8182 122.89 66.9782C123.114 67.1062 123.306 67.2822 123.466 67.5062C123.626 67.7302 123.738 67.9702 123.802 68.2262C123.866 68.4822 123.866 68.7062 123.802 68.8982L123.658 69.3302C123.53 69.6182 123.466 69.9222 123.466 70.2422C123.658 70.0502 124.042 69.7942 124.618 69.4742C125.226 69.1222 125.866 68.7862 126.538 68.4662C127.242 68.1462 127.898 67.8582 128.506 67.6022C129.146 67.3462 129.61 67.2022 129.898 67.1702ZM128.506 78.6902C128.57 78.6902 128.618 78.6902 128.65 78.6902C128.714 78.6582 128.778 78.6422 128.842 78.6422C129.322 78.6422 129.706 78.8022 129.994 79.1222C130.314 79.4102 130.522 79.7462 130.618 80.1302C130.746 80.5142 130.746 80.8982 130.618 81.2822C130.522 81.6342 130.282 81.8902 129.898 82.0502C129.226 82.3702 128.538 82.7542 127.834 83.2022C127.162 83.6182 126.474 84.0182 125.77 84.4022C125.098 84.7862 124.394 85.1222 123.658 85.4102C122.954 85.6662 122.218 85.7942 121.45 85.7942C120.586 85.7942 119.85 85.5542 119.242 85.0742C118.666 84.5622 118.378 83.8902 118.378 83.0582C118.378 82.3862 118.586 81.6182 119.002 80.7542C119.418 79.8902 119.898 79.2022 120.442 78.6902C120.634 78.4022 120.89 78.2582 121.21 78.2582C121.402 78.2582 121.578 78.3382 121.738 78.4982C121.93 78.6262 122.09 78.8022 122.218 79.0262C122.346 79.2502 122.426 79.4902 122.458 79.7462C122.522 79.9702 122.522 80.1782 122.458 80.3702C122.458 80.5622 122.442 80.7062 122.41 80.8022C122.378 80.9302 122.346 81.0742 122.314 81.2342C122.282 81.3942 122.218 81.5542 122.122 81.7142C122.602 81.5222 123.098 81.2822 123.61 80.9942C124.154 80.6742 124.698 80.3702 125.242 80.0822C125.786 79.7942 126.33 79.5222 126.874 79.2662C127.45 79.0102 127.994 78.8182 128.506 78.6902ZM141.607 64.2902C141.927 63.6182 142.391 63.2822 142.999 63.2822C143.639 63.2822 144.199 63.5542 144.679 64.0982C145.159 64.6102 145.303 65.2022 145.111 65.8742C143.831 69.5542 142.631 73.1702 141.511 76.7222C140.423 80.2742 139.399 83.8902 138.439 87.5702C138.311 88.0183 138.071 88.3223 137.719 88.4823C137.367 88.6743 136.999 88.7703 136.615 88.7703C135.719 88.7703 135.095 88.4503 134.743 87.8102C134.423 87.1702 134.263 86.4502 134.263 85.6502C135.223 81.9702 136.327 78.3862 137.575 74.8982C138.823 71.3782 140.167 67.8422 141.607 64.2902ZM157.989 78.6422C157.477 78.6422 156.949 78.7862 156.405 79.0742C155.861 79.3302 155.317 79.6982 154.773 80.1782C154.261 80.6582 153.749 81.2182 153.237 81.8582C152.725 82.4662 152.229 83.1062 151.749 83.7782C151.109 84.7382 150.533 85.6982 150.021 86.6582C149.541 87.5862 149.077 88.7703 148.629 90.2103C148.277 91.2663 147.973 92.0023 147.717 92.4183C147.493 92.8343 147.205 93.0423 146.853 93.0423C146.597 93.0423 146.325 92.9783 146.037 92.8503C145.493 92.4983 145.125 92.0663 144.933 91.5543C144.709 91.0743 144.597 90.5623 144.597 90.0183C144.757 88.5783 145.189 86.9462 145.893 85.1222C146.629 83.2662 147.557 81.5222 148.677 79.8902C149.797 78.2582 151.093 76.8822 152.565 75.7622C154.069 74.6422 155.653 74.0822 157.317 74.0822C158.277 74.0822 159.189 74.2742 160.053 74.6582C160.949 75.0102 161.717 75.5542 162.357 76.2902C162.773 75.2662 163.189 74.1942 163.605 73.0742C164.053 71.9222 164.277 70.7702 164.277 69.6182C164.181 69.0102 163.893 68.5942 163.413 68.3702C162.965 68.1462 162.421 68.0342 161.781 68.0342C161.301 68.0342 160.805 68.0822 160.293 68.1782C159.781 68.2742 159.317 68.3862 158.901 68.5142C157.653 68.9302 156.485 69.5222 155.397 70.2902C154.309 71.0262 153.221 71.7462 152.133 72.4502C151.717 72.7062 151.285 72.8342 150.837 72.8342C150.389 72.8342 149.973 72.7222 149.589 72.4982C149.205 72.2422 148.901 71.9382 148.677 71.5862C148.453 71.2342 148.341 70.8502 148.341 70.4342C148.373 70.0182 148.565 69.6182 148.917 69.2342C149.621 68.4982 150.437 67.7782 151.365 67.0742C152.293 66.3702 153.285 65.7462 154.341 65.2022C155.397 64.6582 156.485 64.2262 157.605 63.9062C158.757 63.5542 159.893 63.3782 161.013 63.3782C162.229 63.3782 163.397 63.6182 164.517 64.0982C165.637 64.5462 166.629 65.3142 167.493 66.4022C168.037 67.1062 168.421 67.8422 168.645 68.6102C168.869 69.3462 168.965 70.1142 168.933 70.9142C168.933 71.6822 168.821 72.4662 168.597 73.2662C168.405 74.0662 168.165 74.8822 167.877 75.7142C167.237 77.5382 166.597 79.3462 165.957 81.1382C165.349 82.8982 164.677 84.7862 163.941 86.8022C163.621 87.6342 163.077 88.0503 162.309 88.0503C161.925 88.0503 161.541 87.9543 161.157 87.7622C160.773 87.5702 160.421 87.3142 160.101 86.9942C159.813 86.6742 159.589 86.3062 159.429 85.8902C159.269 85.4742 159.221 85.0582 159.285 84.6422C159.445 83.9062 159.557 83.0742 159.621 82.1462C159.685 81.2182 159.573 80.3862 159.285 79.6502C159.061 78.9782 158.629 78.6422 157.989 78.6422ZM175.03 69.0902C174.742 69.4102 174.438 69.7462 174.118 70.0982C173.83 70.4182 173.542 70.8022 173.254 71.2502C172.902 71.6982 172.486 71.9222 172.006 71.9222C171.718 71.9222 171.446 71.8422 171.19 71.6822C170.934 71.4902 170.726 71.2662 170.566 71.0102C170.406 70.7222 170.294 70.4182 170.23 70.0982C170.198 69.7462 170.246 69.4102 170.374 69.0902C170.566 68.6102 170.854 68.0502 171.238 67.4102C171.622 66.7702 172.054 66.1622 172.534 65.5862C173.046 65.0102 173.59 64.5302 174.166 64.1462C174.774 63.7302 175.366 63.5222 175.942 63.5222C176.358 63.5222 176.758 63.6502 177.142 63.9062C177.558 64.1302 177.958 64.5302 178.342 65.1062C178.694 65.6822 178.902 66.3702 178.966 67.1702C179.03 67.9702 179.03 68.8022 178.966 69.6662C179.414 68.9622 179.91 68.2422 180.454 67.5062C180.998 66.7702 181.59 66.0982 182.23 65.4902C182.87 64.8822 183.558 64.3862 184.294 64.0022C185.03 63.5862 185.814 63.3462 186.646 63.2822H187.078C188.326 63.2822 189.318 63.6662 190.054 64.4342C190.79 65.2022 191.318 66.1302 191.638 67.2182C191.99 68.3062 192.182 69.4582 192.214 70.6742C192.246 71.8582 192.198 72.8982 192.07 73.7943C191.75 76.3222 191.318 78.8662 190.774 81.4262C190.262 83.9542 189.622 86.4822 188.854 89.0103C188.662 89.6823 188.166 90.0183 187.366 90.0183C186.982 90.0183 186.598 89.9383 186.214 89.7783C185.83 89.6183 185.478 89.4103 185.158 89.1543C184.87 88.8983 184.646 88.5943 184.486 88.2423C184.358 87.9223 184.358 87.5702 184.486 87.1862C184.838 84.9782 185.254 82.8022 185.734 80.6582C186.214 78.5142 186.646 76.3382 187.03 74.1302C187.094 73.7782 187.174 73.3142 187.27 72.7382C187.366 72.1622 187.414 71.6022 187.414 71.0582C187.414 70.5142 187.318 70.0502 187.126 69.6662C186.966 69.2502 186.662 69.0422 186.214 69.0422C186.15 69.0422 186.102 69.0582 186.07 69.0902C186.038 69.0902 185.99 69.0902 185.926 69.0902C185.286 69.6342 184.71 70.2422 184.198 70.9142C183.718 71.5862 183.254 72.2902 182.806 73.0262C182.39 73.7302 181.99 74.4662 181.606 75.2343C181.254 75.9702 180.886 76.6902 180.502 77.3942C179.606 79.0582 178.838 80.7062 178.198 82.3382C177.558 83.9382 176.87 85.5543 176.134 87.1862C175.814 87.9543 175.254 88.3383 174.454 88.3383C174.102 88.3383 173.75 88.2423 173.398 88.0503C173.046 87.8902 172.726 87.6822 172.438 87.4262C172.182 87.1382 171.99 86.8182 171.862 86.4662C171.734 86.1142 171.718 85.7462 171.814 85.3622C171.846 85.2662 171.862 85.1702 171.862 85.0742C171.894 84.9462 171.926 84.8342 171.958 84.7383L171.814 84.6422C171.878 84.4502 171.958 84.2582 172.054 84.0662C172.15 83.8742 172.23 83.6982 172.294 83.5382C172.582 82.4502 172.87 81.2982 173.158 80.0822C173.478 78.8662 173.766 77.6342 174.022 76.3862C174.278 75.1382 174.486 73.8902 174.646 72.6422C174.838 71.3942 174.966 70.2102 175.03 69.0902ZM195.152 89.3943C194.736 89.3943 194.352 89.2183 194 88.8663C193.648 88.5143 193.392 88.1143 193.232 87.6662C193.104 87.1862 193.104 86.7382 193.232 86.3223C193.36 85.9062 193.696 85.6342 194.24 85.5062C195.04 85.3142 195.872 85.0262 196.736 84.6422C197.632 84.2262 198.4 83.7462 199.04 83.2022C199.264 83.0102 199.52 82.7542 199.808 82.4342C200.128 82.1142 200.416 81.7782 200.672 81.4262C200.928 81.0742 201.104 80.7062 201.2 80.3222C201.328 79.9382 201.296 79.5862 201.104 79.2662C201.008 79.0742 200.848 78.8982 200.624 78.7382C200.4 78.5782 200.144 78.4342 199.856 78.3062C199.6 78.1782 199.344 78.0662 199.088 77.9702C198.832 77.8422 198.608 77.7302 198.416 77.6342C197.744 77.3142 197.136 76.8822 196.592 76.3382C196.048 75.7942 195.632 75.2022 195.344 74.5622C194.896 73.5702 194.8 72.5942 195.056 71.6342C195.312 70.6422 195.792 69.6982 196.496 68.8022C197.2 67.9062 198.064 67.0742 199.088 66.3062C200.112 65.5382 201.168 64.8822 202.256 64.3382C203.376 63.7622 204.448 63.3142 205.472 62.9942C206.528 62.6742 207.424 62.5142 208.16 62.5142C208.448 62.5142 208.624 62.5302 208.688 62.5623H208.784C209.168 62.5623 209.456 62.7222 209.648 63.0422C209.84 63.3622 209.936 63.7302 209.936 64.1462C209.936 64.5622 209.84 64.9622 209.648 65.3462C209.488 65.6982 209.216 65.9222 208.832 66.0182C208.416 66.1142 207.856 66.3382 207.152 66.6902C206.448 67.0102 205.712 67.4102 204.944 67.8902C204.208 68.3702 203.472 68.8982 202.736 69.4742C202.032 70.0182 201.456 70.5942 201.008 71.2022C200.592 71.7782 200.368 72.3382 200.336 72.8822C200.304 73.4262 200.592 73.9062 201.2 74.3222C201.968 74.8342 202.704 75.3942 203.408 76.0022C204.144 76.5782 204.736 77.2182 205.184 77.9222C205.664 78.6262 205.952 79.3942 206.048 80.2262C206.176 81.0582 206.016 81.9542 205.568 82.9142C205.152 83.8102 204.56 84.6582 203.792 85.4582C203.024 86.2262 202.16 86.9142 201.2 87.5222C200.24 88.0983 199.232 88.5463 198.176 88.8663C197.12 89.2183 196.112 89.3943 195.152 89.3943ZM212.481 72.4022C212.193 72.7222 211.857 72.8822 211.473 72.8822C211.153 72.8822 210.849 72.7862 210.561 72.5942C210.305 72.3702 210.097 72.1142 209.937 71.8262C209.777 71.5062 209.681 71.1862 209.649 70.8662C209.617 70.5142 209.697 70.1942 209.889 69.9062C210.433 69.1702 211.009 68.4342 211.617 67.6982C212.257 66.9302 212.945 66.2422 213.681 65.6342C214.417 65.0262 215.217 64.5302 216.081 64.1462C216.945 63.7622 217.873 63.5702 218.865 63.5702C219.953 63.5702 220.945 63.8422 221.841 64.3862C222.769 64.9302 223.441 65.7942 223.857 66.9782C224.113 67.6502 224.209 68.5942 224.145 69.8102C224.081 70.9942 223.905 72.3222 223.617 73.7943C223.329 75.2342 222.961 76.7382 222.513 78.3062C222.065 79.8422 221.585 81.3142 221.073 82.7222C220.593 84.1302 220.113 85.3942 219.633 86.5142C219.153 87.6022 218.721 88.4023 218.337 88.9143C218.113 89.2983 217.777 89.4902 217.329 89.4902C217.041 89.4902 216.753 89.4103 216.465 89.2503C216.209 89.0903 215.969 88.8823 215.745 88.6263C215.521 88.3703 215.345 88.0983 215.217 87.8102C215.089 87.5222 215.025 87.2662 215.025 87.0422C215.281 85.6022 215.601 84.1622 215.985 82.7222C216.369 81.2822 216.753 79.8422 217.137 78.4022C217.553 76.9622 217.953 75.5222 218.337 74.0822C218.753 72.6422 219.105 71.2022 219.393 69.7622C219.457 69.1542 219.457 68.6902 219.393 68.3702C219.361 68.0502 219.185 67.8902 218.865 67.8902C218.545 67.8902 217.953 68.1302 217.089 68.6102C216.161 69.0582 215.345 69.6502 214.641 70.3862C213.937 71.0902 213.217 71.7622 212.481 72.4022ZM226.463 69.9542C227.199 68.7382 228.079 67.6502 229.103 66.6902C230.127 65.6982 231.183 64.7062 232.271 63.7142C232.559 63.5222 232.847 63.4262 233.135 63.4262C233.519 63.4262 233.839 63.5542 234.095 63.8102C234.351 64.0662 234.527 64.3862 234.623 64.7702C234.751 65.1222 234.783 65.4902 234.719 65.8742C234.655 66.2582 234.479 66.5942 234.191 66.8822C233.455 67.5542 232.751 68.2902 232.079 69.0902C231.439 69.8902 230.911 70.7062 230.495 71.5382C229.631 73.7142 229.407 74.8022 229.823 74.8022C229.983 74.8022 230.255 74.7062 230.639 74.5142C231.023 74.2902 231.279 74.1142 231.407 73.9862C232.143 73.6662 232.815 73.3142 233.423 72.9302C234.031 72.5142 234.783 72.1302 235.679 71.7782C235.935 71.7142 236.095 71.6822 236.159 71.6822C236.511 71.6822 236.879 71.7942 237.263 72.0182C237.647 72.2102 237.967 72.4662 238.223 72.7862C238.479 73.1062 238.623 73.4742 238.655 73.8902C238.719 74.2742 238.591 74.6582 238.271 75.0422C237.791 75.6822 237.311 76.2902 236.831 76.8662C236.351 77.4422 235.887 78.0502 235.439 78.6902C235.023 79.2662 234.447 80.3062 233.711 81.8102C233.039 83.1222 233.263 83.7782 234.383 83.7782H234.719C236.127 83.6822 237.215 83.2662 237.983 82.5302C238.783 81.7622 239.439 80.8822 239.951 79.8902C240.495 78.9302 240.927 77.9062 241.247 76.8182C241.567 75.6982 241.871 74.5942 242.159 73.5062C242.607 71.7782 243.039 70.0822 243.455 68.4182C243.903 66.7222 244.447 65.0102 245.087 63.2822C245.343 62.7062 245.759 62.4182 246.335 62.4182C246.623 62.4182 246.927 62.4982 247.247 62.6582C247.567 62.7862 247.839 62.9782 248.063 63.2343C248.319 63.4582 248.511 63.7142 248.639 64.0022C248.799 64.2902 248.847 64.5782 248.783 64.8662C248.143 67.3942 247.567 69.9542 247.055 72.5462C246.543 75.1062 245.839 77.5382 244.943 79.8422C244.559 80.8342 244.047 81.8422 243.407 82.8662C242.799 83.8902 242.079 84.8182 241.247 85.6502C240.415 86.4822 239.487 87.1542 238.463 87.6662C237.439 88.1783 236.335 88.4343 235.151 88.4343C234.383 88.4343 233.631 88.3063 232.895 88.0503C232.191 87.8262 231.551 87.4902 230.975 87.0422C230.431 86.5942 229.999 86.0502 229.679 85.4102C229.359 84.7382 229.215 84.0022 229.247 83.2022C229.343 81.6662 229.679 80.2422 230.255 78.9302C229.359 78.9302 228.495 78.7862 227.663 78.4982C226.863 78.2102 226.223 77.7622 225.743 77.1542C225.327 76.6102 225.071 76.0182 224.975 75.3782C224.879 74.7382 224.895 74.1142 225.023 73.5062C225.151 72.8662 225.343 72.2422 225.599 71.6342C225.887 71.0262 226.175 70.4662 226.463 69.9542ZM249.92 87.7142C249.6 88.5143 249.056 88.9143 248.288 88.9143C247.872 88.9143 247.504 88.7543 247.184 88.4343C246.832 88.1143 246.656 87.6342 246.656 86.9942C246.656 86.0982 246.848 84.8822 247.232 83.3462C247.584 81.8102 248.08 80.1622 248.72 78.4022C249.36 76.6102 250.112 74.8182 250.976 73.0262C251.84 71.2022 252.768 69.5542 253.76 68.0822C254.752 66.6102 255.776 65.4102 256.832 64.4822C257.92 63.5542 258.992 63.0902 260.048 63.0902C261.296 63.0902 262.288 63.5862 263.024 64.5782C263.76 65.5702 264.304 66.8342 264.656 68.3702C265.04 69.9062 265.248 71.6022 265.28 73.4582C265.344 75.3142 265.296 77.1382 265.136 78.9302C265.008 80.6902 264.8 82.3062 264.512 83.7782C264.256 85.2182 263.984 86.2902 263.696 86.9942C263.536 87.3462 263.312 87.5862 263.024 87.7142C262.736 87.8422 262.432 87.9062 262.112 87.9062C261.312 87.9062 260.704 87.6502 260.288 87.1382C259.904 86.6262 259.712 85.9862 259.712 85.2182C259.968 82.5302 260.144 79.9862 260.24 77.5862C260.368 75.1862 260.432 72.6582 260.432 70.0022C260.368 69.1702 260.272 68.6422 260.144 68.4182C260.048 68.1942 259.92 68.0822 259.76 68.0822C259.696 68.0822 259.616 68.0982 259.52 68.1302C259.456 68.1622 259.392 68.1782 259.328 68.1782C258.88 68.6262 258.352 69.3462 257.744 70.3382C257.136 71.3302 256.512 72.4662 255.872 73.7462C255.232 74.9942 254.592 76.3222 253.952 77.7302C253.312 79.1382 252.72 80.4982 252.176 81.8102C251.632 83.0902 251.152 84.2582 250.736 85.3142C250.352 86.3702 250.08 87.1702 249.92 87.7142ZM266.044 55.8422C266.236 55.4582 266.492 55.2662 266.812 55.2662C267.196 55.2662 267.564 55.4742 267.916 55.8902C268.268 56.2742 268.396 56.7222 268.3 57.2342C268.14 57.8102 267.948 58.3542 267.724 58.8662C267.532 59.3782 267.276 59.8262 266.956 60.2102C266.604 60.5942 266.204 60.9142 265.756 61.1702C265.276 61.3942 264.716 61.5062 264.076 61.5062C263.628 61.5062 263.276 61.4422 263.02 61.3142C262.764 61.1862 262.572 61.0262 262.444 60.8342C262.284 60.6422 262.172 60.4502 262.108 60.2582C262.012 60.0662 261.932 59.9062 261.868 59.7782C261.516 60.0982 261.244 60.3542 261.052 60.5462C260.86 60.7382 260.716 60.8822 260.62 60.9782C260.492 61.0742 260.38 61.1382 260.284 61.1702C260.156 61.1702 259.996 61.1702 259.804 61.1702C258.748 61.1702 257.852 60.7062 257.116 59.7782C256.796 59.3942 256.588 58.9462 256.492 58.4342C256.396 57.8902 256.38 57.3462 256.444 56.8022C256.476 56.2262 256.588 55.6662 256.78 55.1222C256.94 54.5462 257.148 54.0502 257.404 53.6342C257.884 52.8022 258.54 52.1782 259.372 51.7622C260.204 51.3142 261.036 51.0902 261.868 51.0902C263.404 51.0902 264.892 51.0742 266.332 51.0422C267.772 50.9782 269.26 50.8182 270.796 50.5622C271.148 50.5622 271.452 50.6902 271.708 50.9462C271.964 51.2022 272.14 51.5062 272.236 51.8582C272.364 52.2102 272.38 52.5622 272.284 52.9142C272.22 53.2342 272.012 53.4742 271.66 53.6342C270.22 53.8902 268.812 54.0982 267.436 54.2582C266.092 54.3862 264.7 54.4502 263.26 54.4502C263.1 54.4182 262.94 54.4022 262.78 54.4022C262.62 54.3702 262.46 54.3542 262.3 54.3542C261.532 54.3542 260.924 54.5142 260.476 54.8342C260.028 55.1542 259.708 55.5222 259.516 55.9382C259.292 56.3222 259.18 56.7062 259.18 57.0902C259.18 57.4422 259.244 57.6822 259.372 57.8102C259.372 57.9382 259.436 58.0022 259.564 58.0022C259.692 58.0022 259.836 57.9222 259.996 57.7622C260.316 57.4422 260.668 57.1862 261.052 56.9942C261.404 56.8022 261.804 56.7062 262.252 56.7062C262.412 56.7062 262.556 56.7862 262.684 56.9462C262.812 57.1062 262.94 57.2822 263.068 57.4742C263.164 57.6662 263.276 57.8582 263.404 58.0502C263.5 58.2102 263.644 58.3222 263.836 58.3862C263.868 58.4182 263.98 58.4342 264.172 58.4342C264.46 58.4342 264.716 58.3382 264.94 58.1462C265.132 57.9542 265.308 57.7142 265.468 57.4262C265.596 57.1382 265.708 56.8502 265.804 56.5622C265.9 56.2742 265.98 56.0342 266.044 55.8422ZM3.2638 145.714C2.9438 146.514 2.3998 146.914 1.6318 146.914C1.2158 146.914 0.847797 146.754 0.527797 146.434C0.175797 146.114 -0.000203192 145.634 -0.000203192 144.994C-0.000203192 144.098 0.191797 142.882 0.575797 141.346C0.927797 139.81 1.4238 138.162 2.0638 136.402C2.7038 134.61 3.4558 132.818 4.3198 131.026C5.1838 129.202 6.1118 127.554 7.1038 126.082C8.0958 124.61 9.1198 123.41 10.1758 122.482C11.2638 121.554 12.3358 121.09 13.3918 121.09C14.6398 121.09 15.6318 121.586 16.3678 122.578C17.1038 123.57 17.6478 124.834 17.9998 126.37C18.3838 127.906 18.5918 129.602 18.6238 131.458C18.6878 133.314 18.6398 135.138 18.4798 136.93C18.3518 138.69 18.1438 140.306 17.8558 141.778C17.5998 143.218 17.3278 144.29 17.0398 144.994C16.8798 145.346 16.6558 145.586 16.3678 145.714C16.0798 145.842 15.7758 145.906 15.4558 145.906C14.6558 145.906 14.0478 145.65 13.6318 145.138C13.2478 144.626 13.0558 143.986 13.0558 143.218C13.3118 140.53 13.4878 137.986 13.5838 135.586C13.7118 133.186 13.7758 130.658 13.7758 128.002C13.7118 127.17 13.6158 126.642 13.4878 126.418C13.3918 126.194 13.2638 126.082 13.1038 126.082C13.0398 126.082 12.9598 126.098 12.8638 126.13C12.7998 126.162 12.7358 126.178 12.6718 126.178C12.2238 126.626 11.6958 127.346 11.0878 128.338C10.4798 129.33 9.8558 130.466 9.2158 131.746C8.5758 132.994 7.9358 134.322 7.2958 135.73C6.6558 137.138 6.0638 138.498 5.5198 139.81C4.9758 141.09 4.4958 142.258 4.0798 143.314C3.6958 144.37 3.4238 145.17 3.2638 145.714ZM28.6513 126.61C27.7233 127.058 26.9073 127.65 26.2033 128.386C25.4993 129.09 24.7793 129.762 24.0433 130.402C23.7553 130.722 23.4193 130.882 23.0353 130.882C22.7153 130.882 22.4113 130.786 22.1233 130.594C21.8673 130.37 21.6593 130.114 21.4993 129.826C21.3393 129.506 21.2433 129.186 21.2113 128.866C21.1793 128.514 21.2593 128.194 21.4513 127.906C21.9953 127.17 22.5713 126.434 23.1793 125.698C23.8193 124.93 24.5073 124.242 25.2433 123.634C25.9793 123.026 26.7793 122.53 27.6433 122.146C28.5073 121.762 29.4353 121.57 30.4273 121.57C31.5153 121.57 32.5073 121.842 33.4033 122.386C34.3313 122.93 35.0033 123.794 35.4193 124.978C35.6753 125.65 35.7713 126.594 35.7073 127.81C35.6433 128.994 35.4673 130.322 35.1793 131.794C34.8913 133.234 34.5233 134.738 34.0753 136.306C33.6273 137.842 33.1473 139.314 32.6353 140.722C32.1553 142.13 31.6753 143.394 31.1953 144.514C30.7153 145.602 30.2833 146.402 29.8993 146.914C29.6753 147.298 29.3393 147.49 28.8913 147.49C28.6033 147.49 28.3153 147.41 28.0273 147.25C27.7713 147.09 27.5313 146.882 27.3073 146.626C27.0833 146.37 26.9073 146.098 26.7793 145.81C26.6513 145.522 26.5873 145.266 26.5873 145.042C26.8433 143.602 27.1633 142.162 27.5473 140.722C27.9313 139.282 28.3153 137.842 28.6993 136.402C29.1153 134.962 29.5153 133.522 29.8993 132.082C30.3153 130.642 30.6673 129.202 30.9553 127.762C31.0193 127.154 31.0193 126.69 30.9553 126.37C30.9233 126.05 30.7473 125.89 30.4273 125.89C30.1073 125.89 29.5153 126.13 28.6513 126.61ZM21.4993 114.514C21.4033 115.378 21.1473 116.114 20.7313 116.722C20.2833 117.33 19.7393 117.842 19.0993 118.258C18.4593 118.674 17.7553 118.978 16.9873 119.17C16.2193 119.362 15.4513 119.458 14.6833 119.458C13.7553 119.458 13.0193 119.218 12.4753 118.738C11.8993 118.258 11.5153 117.666 11.3233 116.962C11.1313 116.258 11.1153 115.522 11.2753 114.754C11.4353 113.986 11.7713 113.298 12.2833 112.69C12.8273 112.05 13.5633 111.522 14.4913 111.106C15.3873 110.69 16.2673 110.482 17.1313 110.482C17.4833 110.482 17.7073 110.498 17.8033 110.53C18.3473 110.53 18.8593 110.626 19.3393 110.818C19.8193 111.01 20.2353 111.282 20.5873 111.634C20.9073 111.954 21.1473 112.37 21.3073 112.882C21.4993 113.362 21.5633 113.906 21.4993 114.514ZM14.4433 116.29C14.4753 116.322 14.5233 116.338 14.5873 116.338C15.3233 116.178 16.0273 115.922 16.6993 115.57C17.3393 115.218 17.8033 114.658 18.0913 113.89C17.6753 113.954 17.2913 114.05 16.9393 114.178C16.5553 114.274 16.2353 114.386 15.9793 114.514C15.6593 114.674 15.4193 114.834 15.2593 114.994C15.0673 115.154 14.8913 115.314 14.7313 115.474L14.4433 116.05V116.29ZM18.4273 113.314C18.3313 113.314 18.2833 113.346 18.2833 113.41C18.2833 113.474 18.2833 113.538 18.2833 113.602V113.506C18.3153 113.474 18.3313 113.458 18.3313 113.458C18.3633 113.426 18.3793 113.41 18.3793 113.41C18.4113 113.378 18.4273 113.346 18.4273 113.314ZM48.536 136.642C48.024 136.642 47.496 136.786 46.952 137.074C46.408 137.33 45.864 137.698 45.32 138.178C44.808 138.658 44.296 139.218 43.784 139.858C43.272 140.466 42.776 141.106 42.296 141.778C41.656 142.738 41.08 143.698 40.568 144.658C40.088 145.586 39.624 146.77 39.176 148.21C38.824 149.266 38.52 150.002 38.264 150.418C38.04 150.834 37.752 151.042 37.4 151.042C37.144 151.042 36.872 150.978 36.584 150.85C36.04 150.498 35.672 150.066 35.48 149.554C35.256 149.074 35.144 148.562 35.144 148.018C35.304 146.578 35.736 144.946 36.44 143.122C37.176 141.266 38.104 139.522 39.224 137.89C40.344 136.258 41.64 134.882 43.112 133.762C44.616 132.642 46.2 132.082 47.864 132.082C48.824 132.082 49.736 132.274 50.6 132.658C51.496 133.01 52.264 133.554 52.904 134.29C53.32 133.266 53.736 132.194 54.152 131.074C54.6 129.922 54.824 128.77 54.824 127.618C54.728 127.01 54.44 126.594 53.96 126.37C53.512 126.146 52.968 126.034 52.328 126.034C51.848 126.034 51.352 126.082 50.84 126.178C50.328 126.274 49.864 126.386 49.448 126.514C48.2 126.93 47.032 127.522 45.944 128.29C44.856 129.026 43.768 129.746 42.68 130.45C42.264 130.706 41.832 130.834 41.384 130.834C40.936 130.834 40.52 130.722 40.136 130.498C39.752 130.242 39.448 129.938 39.224 129.586C39 129.234 38.888 128.85 38.888 128.434C38.92 128.018 39.112 127.618 39.464 127.234C40.168 126.498 40.984 125.778 41.912 125.074C42.84 124.37 43.832 123.746 44.888 123.202C45.944 122.658 47.032 122.226 48.152 121.906C49.304 121.554 50.44 121.378 51.56 121.378C52.776 121.378 53.944 121.618 55.064 122.098C56.184 122.546 57.176 123.314 58.04 124.402C58.584 125.106 58.968 125.842 59.192 126.61C59.416 127.346 59.512 128.114 59.48 128.914C59.48 129.682 59.368 130.466 59.144 131.266C58.952 132.066 58.712 132.882 58.424 133.714C57.784 135.538 57.144 137.346 56.504 139.138C55.896 140.898 55.224 142.786 54.488 144.802C54.168 145.634 53.624 146.05 52.856 146.05C52.472 146.05 52.088 145.954 51.704 145.762C51.32 145.57 50.968 145.314 50.648 144.994C50.36 144.674 50.136 144.306 49.976 143.89C49.816 143.474 49.768 143.058 49.832 142.642C49.992 141.906 50.104 141.074 50.168 140.146C50.232 139.218 50.12 138.386 49.832 137.65C49.608 136.978 49.176 136.642 48.536 136.642ZM51.2732 108.658C51.6252 108.114 52.0892 107.842 52.6652 107.842C52.9852 107.842 53.3052 107.938 53.6252 108.13C53.9452 108.322 54.2012 108.562 54.3932 108.85C54.5532 109.138 54.6332 109.458 54.6332 109.81C54.6332 110.162 54.4892 110.514 54.2012 110.866C54.2012 111.058 54.1372 111.282 54.0092 111.538C53.8492 111.794 53.6892 112.05 53.5292 112.306C53.3372 112.562 53.1932 112.818 53.0972 113.074C53.0012 113.33 53.0012 113.554 53.0972 113.746C53.1932 113.906 53.3532 113.986 53.5772 113.986C54.0252 113.986 54.7132 113.762 55.6412 113.314C56.5372 112.834 57.4812 112.306 58.4732 111.73C59.4652 111.122 60.3772 110.53 61.2092 109.954C62.0412 109.346 62.6172 108.914 62.9372 108.658C63.2892 108.37 63.6732 108.226 64.0892 108.226C64.5372 108.226 64.9692 108.386 65.3852 108.706C65.8332 108.994 66.1692 109.362 66.3932 109.81C66.6492 110.226 66.7772 110.674 66.7772 111.154C66.7772 111.602 66.5852 111.986 66.2012 112.306C65.4332 112.914 64.5372 113.586 63.5132 114.322C62.5212 115.058 61.4652 115.746 60.3452 116.386C59.2572 116.994 58.1532 117.506 57.0332 117.922C55.9132 118.338 54.8412 118.546 53.8172 118.546C52.6972 118.354 51.7372 117.89 50.9372 117.154C50.1372 116.418 49.6252 115.41 49.4012 114.13C49.2412 113.01 49.3852 112.002 49.8332 111.106C50.2492 110.21 50.7292 109.394 51.2732 108.658ZM74.5532 129.97L74.6492 129.586C74.6812 129.426 74.6972 129.25 74.6972 129.058C74.7292 128.834 74.7772 128.594 74.8412 128.338C75.0332 127.282 75.0972 126.354 75.0332 125.554C74.9692 124.754 74.6812 124.354 74.1692 124.354C73.8172 124.354 73.3852 124.562 72.8732 124.978C72.5532 125.17 72.2172 125.266 71.8652 125.266C71.4172 125.266 71.0012 125.122 70.6172 124.834C70.2652 124.546 69.9932 124.194 69.8012 123.778C69.6412 123.33 69.5932 122.866 69.6572 122.386C69.7532 121.906 70.0252 121.49 70.4732 121.138C71.5612 120.242 72.6972 119.794 73.8812 119.794C75.4492 119.794 76.7932 120.642 77.9132 122.338C78.7132 123.554 79.2092 124.85 79.4012 126.226C79.5932 127.602 79.5772 129.01 79.3532 130.45C79.1292 131.89 78.7292 133.33 78.1532 134.77C77.6092 136.21 76.9532 137.602 76.1852 138.946C75.4492 140.29 74.6492 141.554 73.7852 142.738C72.9532 143.922 72.1532 144.962 71.3852 145.858C71.0012 146.274 70.5852 146.482 70.1372 146.482C69.5932 146.482 69.0812 146.29 68.6012 145.906C68.1532 145.49 67.8012 145.058 67.5452 144.61C65.8812 141.794 64.4252 138.882 63.1772 135.874C61.9292 132.866 61.1292 129.73 60.7772 126.466C60.7132 125.73 60.8892 125.202 61.3052 124.882C61.7532 124.53 62.2492 124.354 62.7932 124.354C63.3372 124.354 63.8332 124.498 64.2812 124.786C64.7612 125.074 65.0652 125.522 65.1932 126.13C65.7372 128.53 66.3452 130.818 67.0172 132.994C67.7212 135.138 68.6012 137.266 69.6572 139.378C70.9052 138.13 72.0412 136.242 73.0652 133.714C73.3212 133.074 73.5292 132.53 73.6892 132.082C73.8812 131.602 74.0412 131.202 74.1692 130.882C74.3292 130.53 74.4572 130.226 74.5532 129.97ZM80.795 145.714C80.475 146.514 79.931 146.914 79.163 146.914C78.747 146.914 78.379 146.754 78.059 146.434C77.707 146.114 77.531 145.634 77.531 144.994C77.531 144.098 77.723 142.882 78.107 141.346C78.459 139.81 78.955 138.162 79.595 136.402C80.235 134.61 80.987 132.818 81.851 131.026C82.715 129.202 83.643 127.554 84.635 126.082C85.627 124.61 86.651 123.41 87.707 122.482C88.795 121.554 89.867 121.09 90.923 121.09C92.171 121.09 93.163 121.586 93.899 122.578C94.635 123.57 95.179 124.834 95.531 126.37C95.915 127.906 96.123 129.602 96.155 131.458C96.219 133.314 96.171 135.138 96.011 136.93C95.883 138.69 95.675 140.306 95.387 141.778C95.131 143.218 94.859 144.29 94.571 144.994C94.411 145.346 94.187 145.586 93.899 145.714C93.611 145.842 93.307 145.906 92.987 145.906C92.187 145.906 91.579 145.65 91.163 145.138C90.779 144.626 90.587 143.986 90.587 143.218C90.843 140.53 91.019 137.986 91.115 135.586C91.243 133.186 91.307 130.658 91.307 128.002C91.243 127.17 91.147 126.642 91.019 126.418C90.923 126.194 90.795 126.082 90.635 126.082C90.571 126.082 90.491 126.098 90.395 126.13C90.331 126.162 90.267 126.178 90.203 126.178C89.755 126.626 89.227 127.346 88.619 128.338C88.011 129.33 87.387 130.466 86.747 131.746C86.107 132.994 85.467 134.322 84.827 135.73C84.187 137.138 83.595 138.498 83.051 139.81C82.507 141.09 82.027 142.258 81.611 143.314C81.227 144.37 80.955 145.17 80.795 145.714ZM97.1105 118.45C96.6625 118.93 96.1665 119.17 95.6225 119.17C95.2385 119.17 94.9025 119.058 94.6145 118.834C94.2945 118.61 94.1025 118.274 94.0385 117.826C93.9745 117.442 93.9585 116.786 93.9905 115.858C94.0225 114.898 94.1185 113.938 94.2785 112.978C94.4065 112.018 94.6305 111.17 94.9505 110.434C95.2385 109.698 95.6385 109.346 96.1505 109.378C96.8225 109.442 97.3825 109.698 97.8305 110.146C98.2465 110.562 98.4225 110.994 98.3585 111.442C98.3265 111.922 98.2625 112.402 98.1665 112.882C98.0385 113.362 97.9425 113.826 97.8785 114.274C97.7825 114.946 97.7025 115.634 97.6385 116.338C97.5745 117.042 97.3985 117.746 97.1105 118.45ZM99.6545 138.994C99.7185 138.258 99.9105 137.49 100.231 136.69C99.6545 136.53 99.1745 136.178 98.7905 135.634C98.4065 135.058 98.3425 134.45 98.5985 133.81C99.1745 132.402 99.9105 131.074 100.807 129.826C101.703 128.546 102.711 127.378 103.831 126.322C104.983 125.266 106.231 124.338 107.575 123.538C108.919 122.738 110.327 122.098 111.799 121.618C112.919 121.234 114.039 121.042 115.159 121.042C115.863 121.042 116.535 121.138 117.175 121.33C117.847 121.522 118.487 121.842 119.095 122.29C119.703 122.77 120.183 123.314 120.535 123.922C120.919 124.498 121.207 125.122 121.399 125.794C121.591 126.466 121.687 127.154 121.687 127.858C121.719 128.562 121.671 129.25 121.543 129.922C121.255 131.426 120.839 132.914 120.295 134.386C119.783 135.826 119.127 137.202 118.327 138.514C117.527 139.794 116.583 140.978 115.495 142.066C114.439 143.154 113.207 144.098 111.799 144.898C110.999 145.346 110.103 145.746 109.111 146.098C108.119 146.45 107.111 146.626 106.087 146.626C105.031 146.626 104.087 146.418 103.255 146.002C102.455 145.586 101.783 145.026 101.239 144.322C100.727 143.618 100.327 142.802 100.039 141.874C99.7825 140.946 99.6545 139.986 99.6545 138.994ZM107.143 129.298C107.303 129.266 107.447 129.25 107.575 129.25C107.703 129.218 107.847 129.202 108.007 129.202C108.967 129.202 109.895 129.57 110.791 130.306C110.983 130.53 111.095 130.818 111.127 131.17C111.191 131.522 111.175 131.874 111.079 132.226C110.983 132.546 110.823 132.834 110.599 133.09C110.407 133.314 110.167 133.426 109.879 133.426C109.655 133.426 109.367 133.298 109.015 133.042C108.887 132.914 108.695 132.85 108.439 132.85C107.991 132.85 107.495 133.106 106.951 133.618C106.407 134.13 105.879 134.722 105.367 135.394C104.887 136.066 104.471 136.722 104.119 137.362C103.767 137.97 103.559 138.386 103.495 138.61C103.143 139.538 103.143 140.386 103.495 141.154C103.847 141.89 104.471 142.258 105.367 142.258C105.623 142.258 105.911 142.21 106.231 142.114C107.447 141.922 108.551 141.506 109.543 140.866C110.567 140.226 111.463 139.458 112.231 138.562C113.031 137.634 113.735 136.642 114.343 135.586C114.983 134.498 115.527 133.426 115.975 132.37C116.135 132.018 116.343 131.522 116.599 130.882C116.855 130.242 117.079 129.57 117.271 128.866C117.463 128.162 117.591 127.506 117.655 126.898C117.719 126.258 117.623 125.778 117.367 125.458C117.079 125.074 116.599 124.882 115.927 124.882C115.255 124.882 114.503 125.026 113.671 125.314C112.839 125.602 112.023 125.97 111.223 126.418C110.423 126.866 109.655 127.346 108.919 127.858C108.215 128.37 107.623 128.85 107.143 129.298ZM129.943 130.258C131.671 130.77 132.983 131.73 133.879 133.138C134.775 134.546 135.223 136.114 135.223 137.842C135.223 138.706 135.143 139.666 134.983 140.722C134.823 141.746 134.551 142.722 134.167 143.65C133.783 144.546 133.255 145.298 132.583 145.906C131.911 146.546 131.063 146.866 130.039 146.866C128.407 146.866 127.143 146.434 126.247 145.57C125.351 144.674 124.711 143.586 124.327 142.306C123.943 141.026 123.767 139.666 123.799 138.226C123.831 136.754 123.943 135.458 124.135 134.338C124.295 133.218 124.519 132.034 124.807 130.786C125.127 129.506 125.559 128.274 126.103 127.09C126.647 125.906 127.319 124.818 128.119 123.826C128.919 122.834 129.895 122.05 131.047 121.474C131.911 120.994 132.823 120.754 133.783 120.754C134.967 120.754 135.927 121.106 136.663 121.81C137.399 122.514 137.943 123.378 138.295 124.402C138.615 124.018 138.951 123.634 139.303 123.25C139.687 122.866 140.087 122.514 140.503 122.194C140.919 121.842 141.367 121.57 141.847 121.378C142.327 121.154 142.823 121.042 143.335 121.042C144.391 121.042 145.143 121.346 145.591 121.954C146.039 122.562 146.407 123.33 146.695 124.258C146.951 125.058 147.079 125.906 147.079 126.802C147.111 127.666 147.063 128.562 146.935 129.49C146.839 130.386 146.695 131.282 146.503 132.178C146.311 133.074 146.135 133.906 145.975 134.674C145.623 136.434 145.143 138.162 144.535 139.858C143.959 141.554 143.399 143.186 142.855 144.754C142.535 145.65 141.991 146.098 141.223 146.098C140.903 146.098 140.567 146.018 140.215 145.858C139.895 145.698 139.607 145.474 139.351 145.186C139.127 144.898 138.935 144.578 138.775 144.226C138.647 143.842 138.615 143.442 138.679 143.026C139.127 141.81 139.575 140.514 140.023 139.138C140.503 137.73 140.983 136.21 141.463 134.578C142.391 131.346 142.775 129.234 142.615 128.242C142.583 127.826 142.455 127.618 142.231 127.618C142.039 127.618 141.767 127.842 141.415 128.29C141.095 128.738 140.775 129.25 140.455 129.826C140.135 130.402 139.831 130.962 139.543 131.506C139.287 132.05 139.127 132.418 139.063 132.61C138.903 133.026 138.695 133.314 138.439 133.474C138.183 133.634 137.879 133.714 137.527 133.714C137.207 133.714 136.871 133.634 136.519 133.474C136.167 133.314 135.847 133.106 135.559 132.85C135.271 132.562 135.031 132.258 134.839 131.938C134.647 131.586 134.551 131.234 134.551 130.882C134.551 130.018 134.535 129.218 134.503 128.482C134.471 127.714 134.359 126.898 134.167 126.034L134.023 125.554C132.871 126.034 132.023 126.658 131.479 127.426C130.967 128.162 130.455 129.106 129.943 130.258ZM131.047 134.77C130.823 134.61 130.583 134.466 130.327 134.338C130.103 134.21 129.863 134.114 129.607 134.05C129.351 133.954 129.079 133.906 128.791 133.906C128.471 135.154 128.263 136.242 128.167 137.17C128.071 138.066 128.055 138.818 128.119 139.426C128.183 140.034 128.247 140.514 128.311 140.866C128.375 141.186 128.439 141.41 128.503 141.538C128.567 141.794 128.663 142.018 128.791 142.21C128.919 142.37 129.079 142.45 129.271 142.45C129.399 142.45 129.527 142.418 129.655 142.354C131.159 141.33 131.767 139.81 131.479 137.794L131.047 134.77ZM138.883 108.658C139.235 108.114 139.699 107.842 140.275 107.842C140.595 107.842 140.915 107.938 141.235 108.13C141.555 108.322 141.811 108.562 142.003 108.85C142.163 109.138 142.243 109.458 142.243 109.81C142.243 110.162 142.099 110.514 141.811 110.866C141.811 111.058 141.747 111.282 141.619 111.538C141.459 111.794 141.299 112.05 141.139 112.306C140.947 112.562 140.803 112.818 140.707 113.074C140.611 113.33 140.611 113.554 140.707 113.746C140.803 113.906 140.963 113.986 141.187 113.986C141.635 113.986 142.323 113.762 143.251 113.314C144.147 112.834 145.091 112.306 146.083 111.73C147.075 111.122 147.987 110.53 148.819 109.954C149.651 109.346 150.227 108.914 150.547 108.658C150.899 108.37 151.283 108.226 151.699 108.226C152.147 108.226 152.579 108.386 152.995 108.706C153.443 108.994 153.779 109.362 154.003 109.81C154.259 110.226 154.387 110.674 154.387 111.154C154.387 111.602 154.195 111.986 153.811 112.306C153.043 112.914 152.147 113.586 151.123 114.322C150.131 115.058 149.075 115.746 147.955 116.386C146.867 116.994 145.763 117.506 144.643 117.922C143.523 118.338 142.451 118.546 141.427 118.546C140.307 118.354 139.347 117.89 138.547 117.154C137.747 116.418 137.235 115.41 137.011 114.13C136.851 113.01 136.995 112.002 137.443 111.106C137.859 110.21 138.339 109.394 138.883 108.658ZM151.555 146.338C151.459 146.37 151.363 146.386 151.267 146.386C151.203 146.418 151.123 146.434 151.027 146.434C150.547 146.434 150.147 146.242 149.827 145.858C149.539 145.474 149.347 145.042 149.251 144.562C149.155 144.082 149.187 143.618 149.347 143.17C149.539 142.69 149.891 142.37 150.403 142.21C151.587 141.858 152.707 141.282 153.763 140.482C154.851 139.65 155.827 138.722 156.691 137.698C157.555 136.642 158.291 135.538 158.899 134.386C159.507 133.202 159.923 132.082 160.147 131.026C160.371 129.938 160.371 128.962 160.147 128.098C159.923 127.202 159.427 126.53 158.659 126.082C158.275 125.698 157.795 125.506 157.219 125.506C156.771 125.506 156.291 125.618 155.779 125.842C155.299 126.066 154.819 126.354 154.339 126.706C153.859 127.026 153.411 127.362 152.995 127.714C152.579 128.066 152.211 128.386 151.891 128.674C151.571 128.93 151.219 129.058 150.835 129.058C150.419 129.058 150.003 128.914 149.587 128.626C149.203 128.338 148.899 127.986 148.675 127.57C148.451 127.154 148.339 126.706 148.339 126.226C148.339 125.746 148.531 125.314 148.915 124.93C149.971 123.874 151.155 122.93 152.467 122.098C153.779 121.266 155.203 120.85 156.739 120.85C157.987 120.85 159.251 121.218 160.531 121.954C161.683 122.626 162.563 123.458 163.171 124.45C163.811 125.442 164.227 126.53 164.419 127.714C164.643 128.866 164.659 130.082 164.467 131.362C164.275 132.642 163.923 133.906 163.411 135.154C162.899 136.402 162.227 137.634 161.395 138.85C160.595 140.034 159.683 141.138 158.659 142.162C157.635 143.154 156.515 144.018 155.299 144.754C154.115 145.458 152.867 145.986 151.555 146.338ZM173.114 130.258C174.842 130.77 176.154 131.73 177.05 133.138C177.946 134.546 178.394 136.114 178.394 137.842C178.394 138.706 178.314 139.666 178.154 140.722C177.994 141.746 177.722 142.722 177.338 143.65C176.954 144.546 176.426 145.298 175.754 145.906C175.082 146.546 174.234 146.866 173.21 146.866C171.578 146.866 170.314 146.434 169.418 145.57C168.522 144.674 167.882 143.586 167.498 142.306C167.114 141.026 166.938 139.666 166.97 138.226C167.002 136.754 167.114 135.458 167.306 134.338C167.466 133.218 167.69 132.034 167.978 130.786C168.298 129.506 168.73 128.274 169.274 127.09C169.818 125.906 170.49 124.818 171.29 123.826C172.09 122.834 173.066 122.05 174.218 121.474C175.082 120.994 175.994 120.754 176.954 120.754C178.138 120.754 179.098 121.106 179.834 121.81C180.57 122.514 181.114 123.378 181.466 124.402C181.786 124.018 182.122 123.634 182.474 123.25C182.858 122.866 183.258 122.514 183.674 122.194C184.09 121.842 184.538 121.57 185.018 121.378C185.498 121.154 185.994 121.042 186.506 121.042C187.562 121.042 188.314 121.346 188.762 121.954C189.21 122.562 189.578 123.33 189.866 124.258C190.122 125.058 190.25 125.906 190.25 126.802C190.282 127.666 190.234 128.562 190.106 129.49C190.01 130.386 189.866 131.282 189.674 132.178C189.482 133.074 189.306 133.906 189.146 134.674C188.794 136.434 188.314 138.162 187.706 139.858C187.13 141.554 186.57 143.186 186.026 144.754C185.706 145.65 185.162 146.098 184.394 146.098C184.074 146.098 183.738 146.018 183.386 145.858C183.066 145.698 182.778 145.474 182.522 145.186C182.298 144.898 182.106 144.578 181.946 144.226C181.818 143.842 181.786 143.442 181.85 143.026C182.298 141.81 182.746 140.514 183.194 139.138C183.674 137.73 184.154 136.21 184.634 134.578C185.562 131.346 185.946 129.234 185.786 128.242C185.754 127.826 185.626 127.618 185.402 127.618C185.21 127.618 184.938 127.842 184.586 128.29C184.266 128.738 183.946 129.25 183.626 129.826C183.306 130.402 183.002 130.962 182.714 131.506C182.458 132.05 182.298 132.418 182.234 132.61C182.074 133.026 181.866 133.314 181.61 133.474C181.354 133.634 181.05 133.714 180.698 133.714C180.378 133.714 180.042 133.634 179.69 133.474C179.338 133.314 179.018 133.106 178.73 132.85C178.442 132.562 178.202 132.258 178.01 131.938C177.818 131.586 177.722 131.234 177.722 130.882C177.722 130.018 177.706 129.218 177.674 128.482C177.642 127.714 177.53 126.898 177.338 126.034L177.194 125.554C176.042 126.034 175.194 126.658 174.65 127.426C174.138 128.162 173.626 129.106 173.114 130.258ZM174.218 134.77C173.994 134.61 173.754 134.466 173.498 134.338C173.274 134.21 173.034 134.114 172.778 134.05C172.522 133.954 172.25 133.906 171.962 133.906C171.642 135.154 171.434 136.242 171.338 137.17C171.242 138.066 171.226 138.818 171.29 139.426C171.354 140.034 171.418 140.514 171.482 140.866C171.546 141.186 171.61 141.41 171.674 141.538C171.738 141.794 171.834 142.018 171.962 142.21C172.09 142.37 172.25 142.45 172.442 142.45C172.57 142.45 172.698 142.418 172.826 142.354C174.33 141.33 174.938 139.81 174.65 137.794L174.218 134.77ZM192.902 147.394C192.486 147.394 192.102 147.218 191.75 146.866C191.398 146.514 191.142 146.114 190.982 145.666C190.854 145.186 190.854 144.738 190.982 144.322C191.11 143.906 191.446 143.634 191.99 143.506C192.79 143.314 193.622 143.026 194.486 142.642C195.382 142.226 196.15 141.746 196.79 141.202C197.014 141.01 197.27 140.754 197.558 140.434C197.878 140.114 198.166 139.778 198.422 139.426C198.678 139.074 198.854 138.706 198.95 138.322C199.078 137.938 199.046 137.586 198.854 137.266C198.758 137.074 198.598 136.898 198.374 136.738C198.15 136.578 197.894 136.434 197.606 136.306C197.35 136.178 197.094 136.066 196.838 135.97C196.582 135.842 196.358 135.73 196.166 135.634C195.494 135.314 194.886 134.882 194.342 134.338C193.798 133.794 193.382 133.202 193.094 132.562C192.646 131.57 192.55 130.594 192.806 129.634C193.062 128.642 193.542 127.698 194.246 126.802C194.95 125.906 195.814 125.074 196.838 124.306C197.862 123.538 198.918 122.882 200.006 122.338C201.126 121.762 202.198 121.314 203.222 120.994C204.278 120.674 205.174 120.514 205.91 120.514C206.198 120.514 206.374 120.53 206.438 120.562H206.534C206.918 120.562 207.206 120.722 207.398 121.042C207.59 121.362 207.686 121.73 207.686 122.146C207.686 122.562 207.59 122.962 207.398 123.346C207.238 123.698 206.966 123.922 206.582 124.018C206.166 124.114 205.606 124.338 204.902 124.69C204.198 125.01 203.462 125.41 202.694 125.89C201.958 126.37 201.222 126.898 200.486 127.474C199.782 128.018 199.206 128.594 198.758 129.202C198.342 129.778 198.118 130.338 198.086 130.882C198.054 131.426 198.342 131.906 198.95 132.322C199.718 132.834 200.454 133.394 201.158 134.002C201.894 134.578 202.486 135.218 202.934 135.922C203.414 136.626 203.702 137.394 203.798 138.226C203.926 139.058 203.766 139.954 203.318 140.914C202.902 141.81 202.31 142.658 201.542 143.458C200.774 144.226 199.91 144.914 198.95 145.522C197.99 146.098 196.982 146.546 195.926 146.866C194.87 147.218 193.862 147.394 192.902 147.394ZM221.319 129.97L221.415 129.586C221.447 129.426 221.463 129.25 221.463 129.058C221.495 128.834 221.543 128.594 221.607 128.338C221.799 127.282 221.863 126.354 221.799 125.554C221.735 124.754 221.447 124.354 220.935 124.354C220.583 124.354 220.151 124.562 219.639 124.978C219.319 125.17 218.983 125.266 218.631 125.266C218.183 125.266 217.767 125.122 217.383 124.834C217.031 124.546 216.759 124.194 216.567 123.778C216.407 123.33 216.359 122.866 216.423 122.386C216.519 121.906 216.791 121.49 217.239 121.138C218.327 120.242 219.463 119.794 220.647 119.794C222.215 119.794 223.559 120.642 224.679 122.338C225.479 123.554 225.975 124.85 226.167 126.226C226.359 127.602 226.343 129.01 226.119 130.45C225.895 131.89 225.495 133.33 224.919 134.77C224.375 136.21 223.719 137.602 222.951 138.946C222.215 140.29 221.415 141.554 220.551 142.738C219.719 143.922 218.919 144.962 218.151 145.858C217.767 146.274 217.351 146.482 216.903 146.482C216.359 146.482 215.847 146.29 215.367 145.906C214.919 145.49 214.567 145.058 214.311 144.61C212.647 141.794 211.191 138.882 209.943 135.874C208.695 132.866 207.895 129.73 207.543 126.466C207.479 125.73 207.655 125.202 208.071 124.882C208.519 124.53 209.015 124.354 209.559 124.354C210.103 124.354 210.599 124.498 211.047 124.786C211.527 125.074 211.831 125.522 211.959 126.13C212.503 128.53 213.111 130.818 213.783 132.994C214.487 135.138 215.367 137.266 216.423 139.378C217.671 138.13 218.807 136.242 219.831 133.714C220.087 133.074 220.295 132.53 220.455 132.082C220.647 131.602 220.807 131.202 220.935 130.882C221.095 130.53 221.223 130.226 221.319 129.97ZM242.393 140.578C243.001 142.338 243.689 143.602 244.457 144.37C244.841 144.658 245.081 145.026 245.177 145.474C245.305 145.922 245.305 146.354 245.177 146.77C245.049 147.218 244.825 147.586 244.505 147.874C244.217 148.194 243.881 148.354 243.497 148.354C243.049 148.354 242.585 148.146 242.105 147.73C241.657 147.346 241.225 146.882 240.809 146.338C240.425 145.794 240.073 145.234 239.753 144.658C239.465 144.082 239.241 143.618 239.081 143.266C238.953 143.298 238.793 143.394 238.601 143.554C238.121 143.874 237.609 144.21 237.065 144.562C236.553 144.914 236.025 145.25 235.481 145.57C234.937 145.858 234.377 146.098 233.801 146.29C233.257 146.482 232.697 146.578 232.121 146.578C231.129 146.578 230.185 146.21 229.289 145.474C228.617 144.898 228.153 144.226 227.897 143.458C227.641 142.658 227.497 141.826 227.465 140.962C227.465 140.098 227.529 139.218 227.657 138.322C227.817 137.394 227.977 136.498 228.137 135.634C228.585 133.522 229.065 131.522 229.577 129.634C230.121 127.714 230.777 125.794 231.545 123.874C231.705 123.458 231.913 123.17 232.169 123.01C232.425 122.85 232.697 122.77 232.985 122.77C233.337 122.77 233.673 122.882 233.993 123.106C234.345 123.298 234.649 123.554 234.905 123.874C235.161 124.194 235.337 124.562 235.433 124.978C235.529 125.362 235.497 125.762 235.337 126.178C235.273 126.402 235.081 126.93 234.761 127.762C234.473 128.594 234.137 129.554 233.753 130.642C233.401 131.73 233.049 132.882 232.697 134.098C232.377 135.314 232.153 136.434 232.025 137.458C231.897 138.482 231.913 139.33 232.073 140.002C232.233 140.642 232.633 140.962 233.273 140.962C233.529 140.962 233.961 140.834 234.569 140.578C235.017 140.29 235.481 139.986 235.961 139.666C236.441 139.314 236.953 138.946 237.497 138.562C237.209 137.282 236.985 135.986 236.825 134.674C236.697 133.362 236.649 132.098 236.681 130.882C236.745 129.634 236.905 128.482 237.161 127.426C237.449 126.338 237.849 125.41 238.361 124.642C239.097 123.522 240.089 122.642 241.337 122.002C242.617 121.33 243.881 120.994 245.129 120.994C246.281 120.994 247.321 121.314 248.249 121.954C249.177 122.562 249.801 123.586 250.121 125.026C250.345 126.082 250.409 127.09 250.313 128.05C250.249 128.978 250.057 129.89 249.737 130.786C249.417 131.65 249.017 132.482 248.537 133.282C248.057 134.082 247.529 134.866 246.953 135.634C245.577 137.458 244.057 139.106 242.393 140.578ZM243.593 125.89C243.081 126.274 242.649 126.802 242.297 127.474C241.977 128.114 241.721 128.85 241.529 129.682C241.369 130.514 241.273 131.41 241.241 132.37C241.209 133.33 241.241 134.306 241.337 135.298C242.265 134.37 243.113 133.378 243.881 132.322C244.649 131.234 245.273 130.082 245.753 128.866C246.201 127.714 246.249 126.898 245.897 126.418C245.577 125.906 245.145 125.65 244.601 125.65C244.345 125.65 244.009 125.73 243.593 125.89ZM267.527 121.666C267.655 121.218 267.847 120.914 268.103 120.754C268.359 120.562 268.663 120.466 269.015 120.466C269.367 120.466 269.719 120.562 270.071 120.754C270.455 120.914 270.791 121.154 271.079 121.474C271.367 121.762 271.591 122.098 271.751 122.482C271.943 122.866 272.007 123.25 271.943 123.634C271.943 123.794 271.895 124.066 271.799 124.45C271.735 124.834 271.639 125.298 271.511 125.842C271.415 126.354 271.271 126.914 271.079 127.522C270.919 128.13 270.743 128.738 270.551 129.346C270.327 130.082 270.103 130.85 269.879 131.65C269.655 132.418 269.415 133.218 269.159 134.05C269.703 134.434 270.151 135.042 270.503 135.874C270.855 136.706 271.031 137.506 271.031 138.274C271.223 140.034 270.983 141.65 270.311 143.122C269.671 144.594 268.679 145.81 267.335 146.77C267.047 146.962 266.727 147.058 266.375 147.058C265.927 147.058 265.495 146.914 265.079 146.626C264.663 146.37 264.311 146.034 264.023 145.618C263.479 144.818 263.175 143.954 263.111 143.026C263.047 142.066 263.095 140.994 263.255 139.81C263.255 139.394 263.319 138.85 263.447 138.178C263.607 137.474 263.687 136.914 263.687 136.498C262.727 137.17 261.863 137.794 261.095 138.37C260.359 138.946 259.655 139.586 258.983 140.29C258.311 140.962 257.655 141.746 257.015 142.642C256.375 143.538 255.687 144.658 254.951 146.002C254.631 146.61 254.215 146.914 253.703 146.914C253.351 146.914 252.999 146.77 252.647 146.482C252.327 146.226 252.039 145.89 251.783 145.474C251.559 145.058 251.383 144.626 251.255 144.178C251.159 143.73 251.175 143.314 251.303 142.93C251.911 141.202 252.439 139.394 252.887 137.506C253.335 135.618 253.783 133.81 254.231 132.082C254.327 131.698 254.455 131.17 254.615 130.498C254.807 129.794 254.967 129.106 255.095 128.434C255.223 127.762 255.287 127.186 255.287 126.706C255.287 126.194 255.159 125.938 254.903 125.938C254.743 125.938 254.519 126.066 254.231 126.322C253.943 126.546 253.575 126.93 253.127 127.474C252.647 128.05 252.167 128.338 251.687 128.338C251.143 128.338 250.695 128.05 250.343 127.474C249.991 126.898 249.943 126.242 250.199 125.506C250.583 124.514 251.223 123.602 252.119 122.77C253.015 121.938 254.103 121.522 255.383 121.522C256.119 121.522 256.727 121.682 257.207 122.002C257.719 122.29 258.119 122.674 258.407 123.154C258.695 123.634 258.903 124.178 259.031 124.786C259.159 125.394 259.239 126.002 259.271 126.61C259.367 128.466 259.255 130.082 258.935 131.458C258.615 132.834 258.279 134.21 257.927 135.586C258.567 135.106 259.127 134.69 259.607 134.338C260.119 133.986 260.615 133.682 261.095 133.426C261.607 133.138 262.135 132.898 262.679 132.706C263.255 132.482 263.943 132.274 264.743 132.082C265.095 130.994 265.367 130.05 265.559 129.25C265.783 128.418 265.975 127.634 266.135 126.898C266.295 126.13 266.471 125.346 266.663 124.546C266.887 123.714 267.175 122.754 267.527 121.666ZM264.473 111.826C264.313 111.538 264.009 111.394 263.561 111.394C263.241 111.394 262.921 111.442 262.601 111.538C262.249 111.634 261.977 111.73 261.785 111.826C261.753 111.826 261.721 111.842 261.689 111.874C261.657 111.874 261.625 111.874 261.593 111.874C261.305 111.874 261.065 111.762 260.873 111.538C260.649 111.314 260.505 111.058 260.441 110.77C260.345 110.45 260.329 110.146 260.393 109.858C260.457 109.538 260.633 109.298 260.921 109.138C261.817 108.626 262.713 108.37 263.609 108.37C264.249 108.37 264.873 108.53 265.481 108.85C266.057 109.17 266.521 109.666 266.873 110.338C267.385 111.33 267.481 112.354 267.161 113.41C268.185 113.218 269.209 112.994 270.233 112.738C271.225 112.482 272.233 112.354 273.257 112.354H273.833C273.961 112.354 274.089 112.354 274.217 112.354C274.345 112.354 274.489 112.386 274.649 112.45C275.001 112.514 275.305 112.722 275.561 113.074C275.817 113.426 275.977 113.794 276.041 114.178C276.105 114.562 276.057 114.914 275.897 115.234C275.737 115.554 275.433 115.714 274.985 115.714C274.217 115.714 273.449 115.794 272.681 115.954C271.913 116.082 271.145 116.226 270.377 116.386C269.609 116.546 268.841 116.706 268.073 116.866C267.305 116.994 266.537 117.058 265.769 117.058C265.225 117.058 264.697 117.01 264.185 116.914C263.897 116.914 263.609 116.818 263.321 116.626C263.033 116.434 262.825 116.194 262.697 115.906C262.537 115.586 262.473 115.25 262.505 114.898C262.537 114.546 262.697 114.226 262.985 113.938C263.049 113.874 263.177 113.762 263.369 113.602C263.561 113.41 263.753 113.218 263.945 113.026C264.137 112.834 264.297 112.626 264.425 112.402C264.521 112.178 264.537 111.986 264.473 111.826ZM276.137 130.402C275.849 130.722 275.513 130.882 275.129 130.882C274.809 130.882 274.505 130.786 274.217 130.594C273.961 130.37 273.753 130.114 273.593 129.826C273.433 129.506 273.337 129.186 273.305 128.866C273.273 128.514 273.353 128.194 273.545 127.906C274.089 127.17 274.665 126.434 275.273 125.698C275.913 124.93 276.601 124.242 277.337 123.634C278.073 123.026 278.873 122.53 279.737 122.146C280.601 121.762 281.529 121.57 282.521 121.57C283.609 121.57 284.601 121.842 285.497 122.386C286.425 122.93 287.097 123.794 287.513 124.978C287.769 125.65 287.865 126.594 287.801 127.81C287.737 128.994 287.561 130.322 287.273 131.794C286.985 133.234 286.617 134.738 286.169 136.306C285.721 137.842 285.241 139.314 284.729 140.722C284.249 142.13 283.769 143.394 283.289 144.514C282.809 145.602 282.377 146.402 281.993 146.914C281.769 147.298 281.433 147.49 280.985 147.49C280.697 147.49 280.409 147.41 280.121 147.25C279.865 147.09 279.625 146.882 279.401 146.626C279.177 146.37 279.001 146.098 278.873 145.81C278.745 145.522 278.681 145.266 278.681 145.042C278.937 143.602 279.257 142.162 279.641 140.722C280.025 139.282 280.409 137.842 280.793 136.402C281.209 134.962 281.609 133.522 281.993 132.082C282.409 130.642 282.761 129.202 283.049 127.762C283.113 127.154 283.113 126.69 283.049 126.37C283.017 126.05 282.841 125.89 282.521 125.89C282.201 125.89 281.609 126.13 280.745 126.61C279.817 127.058 279.001 127.65 278.297 128.386C277.593 129.09 276.873 129.762 276.137 130.402Z" fill="#E4002B"/>
</svg>
