<svg width="383" height="196" viewBox="0 0 383 196" fill="none" xmlns="http://www.w3.org/2000/svg">
<path d="M242.683 188.654C242.819 188.612 243.011 188.839 243.171 188.851C243.843 188.903 244.092 189.061 244.699 189.15C245.6 189.282 248.273 188.984 248.274 190.561C248.274 190.561 248.274 190.561 248.274 190.561C248.274 190.577 248.273 190.592 248.273 190.608C248.263 190.909 248.036 191.237 248.002 191.576C247.969 191.916 247.994 194.111 247.671 194.234C247.203 194.396 246.079 193.834 245.83 193.859C245.659 193.876 245.449 194.075 245.23 194.111C244.526 194.225 244.158 194.079 243.524 194.621C243.27 194.335 243.016 194.05 242.763 193.764C242.432 193.897 241.93 193.52 241.729 193.541C241.564 193.558 241.467 193.784 241.295 193.794C241.102 193.807 240.806 193.564 240.456 193.6C239.88 193.659 239.778 194.248 239.433 194.323C239.075 194.401 238.519 194.08 238.062 194.288C238.005 194.353 237.948 194.417 237.891 194.482C237.932 194.629 237.973 194.775 238.014 194.922C237.784 194.99 237.685 194.69 237.473 194.684C237.225 194.678 237.098 194.962 236.931 194.961C236.794 194.96 236.608 194.731 236.43 194.746C236.171 194.765 236.228 195.095 236.088 195.157C236.033 195.181 235.004 195.363 234.946 195.365C234.505 195.378 234.467 194.927 234.115 194.888C233.139 194.78 232.137 195.145 231.234 195.282C230.831 195.344 230.411 195.318 230.009 195.246C230.642 194.091 229.241 193.192 229.765 194.999C229.318 194.742 229.001 195.23 228.577 195.147C228.303 195.094 228.113 194.843 227.721 194.85C227.027 194.863 226.267 195.575 226.067 194.288C225.252 194.515 224.545 194.048 224.251 195.184C224.041 195.254 223.502 194.577 223.266 194.485C223.043 194.398 221.332 194.092 221.052 194.075C220.772 194.058 220.282 194.04 220.046 194.139C219.75 194.263 219.543 195.441 219.015 194.063C218.402 194.175 218.183 194.135 217.613 193.975C217.51 193.946 217.498 193.742 217.438 193.742C217.314 193.742 217.102 193.893 216.88 193.911C216.516 193.941 216.307 193.511 216.348 194.169C216.108 194.279 215.867 194.389 215.627 194.499C215.542 194.372 215.458 194.245 215.373 194.119C215.245 194.257 215.116 194.395 214.988 194.533C215.139 193.582 214.234 194.143 214.528 194.689C214.061 194.493 213.595 194.296 213.129 194.099C213.194 193.018 212.105 193.974 212.197 194.562C212.144 194.561 212.09 194.56 212.037 194.559C211.57 194.272 211.141 194.507 210.572 194.314C210.003 194.121 210.056 194.016 209.883 193.519C209.749 193.547 209.615 193.576 209.481 193.604C208.778 194.968 208.902 192.607 207.699 193.653C207.314 192.796 206.366 193.246 205.738 193.506C205.665 193.536 205.664 193.702 205.566 193.754C205.328 193.877 204.72 193.663 204.741 194.2C204.531 194.044 204.32 193.889 204.11 193.734C203.938 193.832 203.766 193.929 203.594 194.027C203.595 194.194 203.596 194.362 203.597 194.529C203.251 193.958 202.707 194.178 202.438 194.041C202.385 194.014 202.373 193.782 202.207 193.719C202.013 193.645 201.652 193.713 201.421 193.641C201.331 193.897 201.241 194.153 201.151 194.409C200.738 194.547 200.592 193.872 200.35 193.819C200.306 193.81 199.508 193.859 199.465 193.873C199.114 193.988 199.213 194.563 198.196 194.44C198.015 194.418 197.868 194.218 197.705 194.21C197.415 194.196 196.544 194.648 196.475 195.065C196.124 194.543 195.186 194.756 194.909 194.605C194.826 194.559 194.807 194.226 194.55 194.155C194.342 194.098 193.807 194.364 193.543 194.319C193.263 194.271 193.163 193.991 193.038 193.972C192.919 193.953 192.81 194.179 192.648 194.177C192.144 194.17 191.688 193.806 191.289 193.8C190.713 193.789 190.204 194.457 189.722 194.754C189.602 194.711 189.485 194.567 189.359 194.566C187.807 194.545 186.057 194.422 184.5 194.279C183.777 194.213 181.98 193.306 182.46 194.819C182.209 195.084 180.383 194.474 180.035 194.465C179.688 194.456 179.413 194.727 179.14 194.731C178.316 194.743 177.736 194.548 176.734 194.784C176.475 194.846 176.197 195.167 176.044 195.163C175.859 195.158 175.66 194.847 175.421 194.827C174.851 194.783 173.788 194.885 173.24 194.831C173.141 194.821 173.105 194.548 172.963 194.462C172.406 194.129 171.782 194.158 171.893 195.029C171.179 194.535 170.52 194.986 169.859 195.014C168.461 195.07 165.915 194.867 164.698 195.233C163.93 195.464 163.95 195.855 162.819 195.517C162.569 195.443 162.319 195.342 162.015 195.252C161.301 195.043 160.647 194.321 160.103 195.191C159.311 194.965 158.68 195.125 158.092 194.381C158.023 194.559 157.954 194.738 157.884 194.916C157.787 194.921 157.69 194.925 157.593 194.929C157.563 194.759 157.532 194.589 157.502 194.419C156.806 194.373 155.923 195.073 155.335 195.067C154.347 195.06 151.804 194.788 150.867 194.558C150.37 194.436 150.343 194.801 150.059 194.051C149.948 194.104 149.836 194.156 149.725 194.208C149.656 194.372 149.586 194.536 149.517 194.7C148.879 194.707 148.122 194.452 147.515 194.454C146.408 194.46 144.745 194.911 143.633 194.615C143.354 194.54 143.006 194.201 142.733 194.205C142.336 194.211 142.239 194.772 141.735 194.782C140.866 194.8 139.248 194.147 138.426 194.197C138.182 194.212 138.068 194.421 137.9 194.443C137.194 194.539 136.614 194.522 135.936 194.844C135.209 194.306 135.272 193.612 135.047 192.911C134.876 192.382 134.352 191.156 134.278 190.693C134.226 190.368 134.421 189.949 134.347 189.591C135.219 189.305 135.585 189.62 136.292 190.124C137.599 190.104 138.905 190.083 140.212 190.063C140.331 190.259 140.45 190.454 140.569 190.65C140.569 190.65 140.569 190.651 140.569 190.651C141.07 190.877 141.283 190.373 141.554 190.259C144.144 189.165 149.243 190.021 152.095 190.145C152.71 190.171 154.709 189.907 155.131 190.225C155.24 190.308 155.271 190.609 155.387 190.622C156.425 190.443 157.462 190.264 158.5 190.084C160.634 190.553 162.841 190.166 164.991 190.094C170.809 189.898 176.569 189.66 182.291 189.733C183.397 189.747 184.801 189.521 185.884 189.667C186.336 189.727 186.524 190.211 187.117 189.851C187.124 189.981 187.13 190.111 187.136 190.242C187.654 190.084 187.985 189.788 188.566 189.757C189.055 189.732 190.349 189.713 190.781 189.763C191.006 189.788 190.922 190.032 191.131 190.03C191.489 190.027 192.253 189.69 192.747 189.689C193.194 189.689 193.948 189.97 194.292 189.93C195.531 189.785 196.88 189.369 198.199 189.481C198.564 189.512 199.033 189.828 199.147 189.819C199.37 189.801 199.437 189.494 199.586 189.455C200.347 189.255 201.533 189.62 202.279 189.634C204.71 189.682 207.284 189.548 209.704 189.604C211.233 189.639 213.774 189.585 215.185 189.816C215.49 189.866 215.408 190.203 215.664 190.203C215.947 190.203 216.101 189.975 216.233 189.957C217.15 189.828 219.174 189.599 220.039 189.831C220.204 189.876 220.323 190.139 220.422 190.138C220.472 190.138 220.585 189.958 220.742 189.94C222.127 189.777 223.136 189.882 224.493 189.944C227.092 190.061 230.103 189.726 232.833 189.907C233.428 189.946 233.836 190.468 233.919 190.462C234.103 190.452 234.221 190.101 234.592 190.015C235.828 189.73 237.493 190.104 238.669 189.928C239.249 189.842 240.047 189.397 240.619 189.298C241.076 189.219 242.154 189.394 242.356 189.199C242.479 189.081 242.536 188.701 242.683 188.654ZM227.304 194.557C227.386 193.951 226.531 194.454 226.852 194.78C226.924 194.853 227.283 194.714 227.304 194.557ZM187.282 193.504C187.29 193.677 187.298 193.85 187.306 194.024C187.418 193.952 187.53 193.88 187.642 193.807C187.579 193.703 187.516 193.599 187.453 193.495C187.396 193.498 187.339 193.501 187.282 193.504Z" fill="#FF8200"/>
<path d="M188.713 77.6553H312.713" stroke="#E4002B" stroke-width="3" stroke-dasharray="6 6"/>
<path d="M86.072 48.1929C85.053 48.219 84.1515 48.4019 83.3676 48.7416C82.5837 49.0813 81.9304 49.5516 81.4078 50.1526C80.8852 50.7536 80.4867 51.4722 80.2124 52.3083C79.9511 53.1314 79.8204 54.0525 79.8204 55.0716V61.088C79.8204 61.5583 79.742 61.9764 79.5853 62.3422C79.4285 62.7081 79.2129 63.0216 78.9385 63.2829C78.6772 63.5312 78.3637 63.7206 77.9979 63.8512C77.6321 63.9819 77.2466 64.0472 76.8416 64.0472C76.4235 64.0472 76.0316 63.9754 75.6658 63.8317C75.313 63.701 75.006 63.5116 74.7447 63.2633C74.4834 63.002 74.2744 62.6885 74.1176 62.3226C73.9608 61.9568 73.8824 61.5453 73.8824 61.088V38.2178C73.8824 36.6761 74.1829 35.3043 74.7839 34.1023C75.3979 32.9003 76.2406 31.8943 77.312 31.0843C78.3964 30.2612 79.6767 29.6406 81.1531 29.2225C82.6294 28.7914 84.2429 28.5758 85.9936 28.5758C87.7182 28.5758 89.3187 28.7914 90.795 29.2225C92.2714 29.6406 93.5517 30.2612 94.6361 31.0843C95.7336 31.8943 96.5893 32.9003 97.2034 34.1023C97.8174 35.3043 98.1245 36.6761 98.1245 38.2178V61.088C98.1245 61.5583 98.0461 61.9764 97.8893 62.3422C97.7325 62.7081 97.5169 63.0216 97.2426 63.2829C96.9813 63.5312 96.6677 63.7206 96.3019 63.8512C95.9361 63.9819 95.5507 64.0472 95.1456 64.0472C94.7276 64.0472 94.3356 63.9754 93.9698 63.8317C93.617 63.701 93.31 63.5116 93.0487 63.2633C92.7874 63.002 92.5784 62.6885 92.4216 62.3226C92.2648 61.9568 92.1864 61.5453 92.1864 61.088V39.4132C92.1864 38.5509 92.0754 37.767 91.8533 37.0615C91.6442 36.3429 91.2915 35.7354 90.795 35.239C90.3116 34.7294 89.678 34.3375 88.8941 34.0631C88.1102 33.7757 87.1434 33.632 85.9936 33.632C84.8309 33.632 83.851 33.7692 83.054 34.0435C82.2701 34.3179 81.6365 34.7033 81.1531 35.1998C80.6827 35.6962 80.343 36.3038 80.134 37.0223C79.925 37.7409 79.8204 38.5379 79.8204 39.4132V46.3115C80.6043 45.3055 81.4797 44.502 82.4465 43.901C83.4133 43.3 84.4912 42.9473 85.6801 42.8428C86.0459 42.8166 86.3986 42.8624 86.7383 42.98C87.078 43.0975 87.3785 43.2674 87.6398 43.4895C87.9011 43.7116 88.1102 43.986 88.2669 44.3126C88.4368 44.6261 88.5348 44.9658 88.5609 45.3317C88.587 45.7105 88.5413 46.0698 88.4237 46.4095C88.3061 46.7492 88.1363 47.0497 87.9142 47.311C87.6921 47.5723 87.4177 47.7813 87.0911 47.9381C86.7775 48.0949 86.4378 48.1798 86.072 48.1929ZM95.812 16.3862C95.8903 16.0335 96.0471 15.7395 96.2823 15.5043C96.5044 15.2561 96.7722 15.0732 97.0858 14.9556C97.3863 14.8249 97.7129 14.7596 98.0657 14.7596C98.4184 14.7466 98.7581 14.7857 99.0847 14.8772C99.738 15.0993 100.208 15.4978 100.496 16.0726C100.77 16.6344 100.816 17.242 100.633 17.8952C100.346 18.7836 99.8948 19.6198 99.2807 20.4037C98.6667 21.1745 97.9024 21.8539 96.9878 22.4418C96.0602 23.0297 94.9823 23.5001 93.7542 23.8528C92.5261 24.1925 91.1478 24.3754 89.6192 24.4016H87.679C87.4047 24.4016 87.1434 24.3493 86.8951 24.2448C86.6338 24.1403 86.4117 24.0031 86.2288 23.8332C86.0328 23.6503 85.876 23.4413 85.7585 23.2061C85.6409 22.9579 85.5821 22.6901 85.5821 22.4026V19.2278H84.2103C83.9098 19.2278 83.6354 19.1756 83.3872 19.0711C83.1259 18.9665 82.9038 18.8228 82.7209 18.6399C82.5379 18.457 82.3942 18.248 82.2897 18.0128C82.1721 17.7646 82.1133 17.4967 82.1133 17.2093C82.1133 16.9349 82.1721 16.6736 82.2897 16.4254C82.3942 16.1772 82.5379 15.9616 82.7209 15.7787C82.9038 15.5827 83.1259 15.4325 83.3872 15.3279C83.6354 15.2234 83.9098 15.1712 84.2103 15.1712H88.4433C88.7177 15.1712 88.979 15.2234 89.2272 15.3279C89.4754 15.4325 89.6976 15.5827 89.8935 15.7787C90.0895 15.9616 90.2463 16.1772 90.3639 16.4254C90.4684 16.6736 90.5206 16.9349 90.5206 17.2093V20.1293C91.9839 20.1293 93.1663 19.7962 94.0678 19.1298C94.9693 18.4505 95.5507 17.5359 95.812 16.3862ZM128.363 61.1272C128.363 61.5583 128.285 61.9568 128.128 62.3226C127.984 62.6754 127.782 62.9824 127.521 63.2437C127.259 63.492 126.952 63.6814 126.6 63.8121C126.26 63.9558 125.888 64.0276 125.483 64.0276C125.077 64.0276 124.699 63.9558 124.346 63.8121C123.993 63.6814 123.686 63.492 123.425 63.2437C123.163 62.9824 122.954 62.6754 122.798 62.3226C122.654 61.9699 122.582 61.5714 122.582 61.1272V60.3629C121.981 60.9247 121.367 61.4342 120.74 61.8915C120.126 62.3357 119.479 62.7211 118.8 63.0478C118.133 63.3613 117.415 63.603 116.644 63.7729C115.886 63.9558 115.07 64.0472 114.194 64.0472C112.849 64.0472 111.581 63.8578 110.392 63.4789C109.204 63.0869 108.158 62.5056 107.257 61.7347C106.368 60.9508 105.663 59.984 105.14 58.8343C104.631 57.6846 104.376 56.3454 104.376 54.8168V31.535C104.376 31.0647 104.454 30.6466 104.611 30.2808C104.768 29.915 104.977 29.608 105.238 29.3597C105.513 29.0984 105.826 28.9024 106.179 28.7718C106.545 28.6411 106.937 28.5758 107.355 28.5758C107.76 28.5758 108.145 28.6477 108.511 28.7914C108.877 28.922 109.19 29.118 109.452 29.3793C109.713 29.6276 109.922 29.9346 110.079 30.3004C110.236 30.6662 110.314 31.0778 110.314 31.535V54.1897C110.314 54.9083 110.419 55.5615 110.628 56.1494C110.837 56.7374 111.157 57.2469 111.588 57.678C112.019 58.0961 112.555 58.4228 113.195 58.6579C113.835 58.88 114.586 58.9911 115.449 58.9911C116.651 58.9911 117.689 58.7755 118.565 58.3444C119.453 57.9002 120.178 57.3188 120.74 56.6002C121.315 55.8686 121.739 55.0259 122.014 54.0721C122.288 53.1184 122.425 52.132 122.425 51.1129V31.535C122.425 31.0647 122.504 30.6466 122.66 30.2808C122.817 29.915 123.026 29.608 123.288 29.3597C123.562 29.0984 123.876 28.9024 124.228 28.7718C124.594 28.6411 124.986 28.5758 125.404 28.5758C125.809 28.5758 126.195 28.6477 126.56 28.7914C126.926 28.922 127.24 29.118 127.501 29.3793C127.762 29.6276 127.971 29.9346 128.128 30.3004C128.285 30.6662 128.363 31.0778 128.363 31.535V61.1272ZM154.408 36.2188C155.271 36.7284 155.983 37.3294 156.544 38.0218C157.106 38.7142 157.55 39.4916 157.877 40.3539C158.217 41.2031 158.452 42.1307 158.583 43.1367C158.726 44.1427 158.798 45.2206 158.798 46.3703V61.088C158.798 61.5583 158.72 61.9764 158.563 62.3422C158.406 62.7081 158.191 63.0216 157.916 63.2829C157.655 63.5312 157.341 63.7206 156.976 63.8512C156.61 63.9819 156.224 64.0472 155.819 64.0472C155.401 64.0472 155.009 63.9754 154.644 63.8317C154.291 63.701 153.984 63.5116 153.722 63.2633C153.461 63.002 153.252 62.6885 153.095 62.3226C152.939 61.9568 152.86 61.5453 152.86 61.088V45.7236C152.86 44.3779 152.625 43.1955 152.155 42.1765C151.684 41.1443 150.94 40.3539 149.921 39.8052L140.573 47.2718V61.088C140.573 61.5583 140.494 61.9764 140.337 62.3422C140.181 62.7081 139.965 63.0216 139.691 63.2829C139.429 63.5312 139.116 63.7206 138.75 63.8512C138.384 63.9819 137.999 64.0472 137.594 64.0472C137.176 64.0472 136.784 63.9754 136.418 63.8317C136.065 63.701 135.758 63.5116 135.497 63.2633C135.236 63.002 135.026 62.6885 134.87 62.3226C134.713 61.9568 134.635 61.5453 134.635 61.088V31.535C134.635 31.0647 134.713 30.6466 134.87 30.2808C135.026 29.915 135.236 29.608 135.497 29.3597C135.771 29.0984 136.085 28.9024 136.437 28.7718C136.803 28.6411 137.195 28.5758 137.613 28.5758C138.018 28.5758 138.404 28.6477 138.77 28.7914C139.135 28.922 139.449 29.118 139.71 29.3793C139.972 29.6276 140.181 29.9346 140.337 30.3004C140.494 30.6662 140.573 31.0778 140.573 31.535V40.7067L155.094 29.1442C155.369 28.922 155.669 28.7653 155.996 28.6738C156.322 28.5824 156.649 28.5562 156.976 28.5954C157.302 28.6216 157.609 28.713 157.897 28.8698C158.184 29.0266 158.439 29.2421 158.661 29.5165C158.883 29.8039 159.04 30.111 159.131 30.4376C159.223 30.7642 159.249 31.0908 159.21 31.4175C159.184 31.7441 159.086 32.0576 158.916 32.3581C158.759 32.6586 158.543 32.9199 158.269 33.142L154.408 36.2188ZM183.197 61.088C183.197 61.5583 183.119 61.9764 182.962 62.3422C182.805 62.7081 182.59 63.0216 182.315 63.2829C182.054 63.5312 181.74 63.7206 181.374 63.8512C181.009 63.9819 180.623 64.0472 180.218 64.0472C179.8 64.0472 179.408 63.9754 179.042 63.8317C178.69 63.701 178.383 63.5116 178.121 63.2633C177.86 63.002 177.651 62.6885 177.494 62.3226C177.337 61.9568 177.259 61.5453 177.259 61.088V38.8449C177.259 38.0087 177.148 37.264 176.926 36.6108C176.717 35.9445 176.416 35.3892 176.024 34.945C175.632 34.4877 175.156 34.1415 174.594 33.9063C174.045 33.6712 173.431 33.5536 172.752 33.5536C172.242 33.5536 171.752 33.632 171.282 33.7887C170.811 33.9455 170.38 34.1807 169.988 34.4943C169.596 34.7948 169.257 35.1671 168.969 35.6113C168.682 36.0555 168.46 36.5651 168.303 37.1399C168.198 37.5319 168.016 37.8716 167.754 38.159C167.493 38.4333 167.192 38.6554 166.853 38.8253C166.513 38.9821 166.141 39.0735 165.736 39.0997C165.344 39.1258 164.958 39.067 164.579 38.9233C164.201 38.7926 163.867 38.5967 163.58 38.3354C163.306 38.0741 163.09 37.7801 162.933 37.4535C162.776 37.1138 162.678 36.7545 162.639 36.3756C162.613 35.9837 162.659 35.5982 162.776 35.2194C163.09 34.135 163.587 33.1812 164.266 32.3581C164.945 31.522 165.736 30.8295 166.637 30.2808C167.539 29.719 168.512 29.2944 169.557 29.007C170.615 28.7195 171.68 28.5758 172.752 28.5758C174.019 28.5758 175.273 28.7718 176.514 29.1637C177.755 29.5557 178.873 30.1436 179.865 30.9275C180.858 31.6984 181.662 32.6652 182.276 33.8279C182.89 34.9907 183.197 36.3429 183.197 37.8846V61.088Z" fill="#151F6D"/>
<path d="M196.486 29.7808C196.218 29.5133 195.897 29.3795 195.523 29.3795C194.881 29.3795 194.212 29.6738 193.516 30.2625C192.82 30.8511 192.232 31.3863 191.75 31.8679C191.375 32.1355 191.001 32.2692 190.626 32.2692C190.145 32.2692 189.69 32.0819 189.262 31.7073C188.833 31.2792 188.512 30.7976 188.298 30.2625C188.138 29.6738 188.058 29.0851 188.058 28.4965C188.111 27.8543 188.325 27.3459 188.7 26.9713C189.235 26.3827 189.85 25.794 190.546 25.2054C191.295 24.5632 192.071 24.0013 192.874 23.5197C193.676 23.0381 194.506 22.6367 195.362 22.3156C196.272 21.9945 197.128 21.834 197.931 21.834C198.894 21.834 199.777 22.0748 200.58 22.5564C201.436 23.0381 202.158 23.8943 202.747 25.1251C203.175 25.9813 203.389 27.5332 203.389 29.7808C203.389 31.9749 203.309 34.4366 203.148 37.1658C202.934 39.9485 202.64 42.7848 202.266 45.6745C201.891 48.5108 201.516 51.0527 201.142 53.3003C201.409 52.8187 201.677 52.3905 201.944 52.016C202.266 51.5878 202.533 51.1865 202.747 50.8119C204.62 47.4405 206.252 44.0691 207.644 40.6977C209.089 37.3263 210.507 33.9549 211.898 30.5835C212.326 29.4597 213.129 28.8978 214.306 28.8978C215.376 28.8978 216.42 29.326 217.437 30.1822C218.507 31.0384 219.122 32.0017 219.283 33.072C219.337 33.2325 219.363 33.9282 219.363 35.159C219.417 36.3363 219.47 37.808 219.524 39.5739C219.577 41.3399 219.658 43.2129 219.765 45.1929C219.872 47.1729 220.005 49.0192 220.166 50.7316C220.38 52.4441 220.648 53.8622 220.969 54.986C221.29 56.1098 221.691 56.6717 222.173 56.6717C222.601 56.6717 223.056 56.1633 223.537 55.1465C224.768 52.7384 225.758 50.2232 226.507 47.601C227.31 44.9253 227.979 42.2229 228.514 39.4936C229.049 36.7644 229.531 34.062 229.959 31.3863C230.441 28.657 230.976 26.0348 231.564 23.5197C231.779 22.5029 232.34 21.9945 233.25 21.9945C233.732 21.9945 234.213 22.1283 234.695 22.3959C235.23 22.6635 235.712 23.0381 236.14 23.5197C236.568 23.9478 236.916 24.4294 237.183 24.9646C237.505 25.4997 237.665 26.0348 237.665 26.57C237.558 27.7473 237.344 29.4597 237.023 31.7073C236.755 33.9549 236.381 36.4433 235.899 39.1726C235.471 41.8483 234.909 44.6042 234.213 47.4405C233.518 50.2767 232.715 52.8722 231.805 55.2268C230.896 57.5814 229.852 59.5347 228.675 61.0866C227.551 62.6385 226.267 63.4947 224.822 63.6553C224.554 63.7088 224.313 63.7355 224.099 63.7355C223.939 63.7355 223.725 63.7355 223.457 63.7355C221.691 63.7355 220.166 63.3074 218.882 62.4512C217.597 61.5415 216.5 60.4177 215.591 59.0798C214.734 57.742 214.039 56.2703 213.503 54.6649C212.968 53.006 212.567 51.4541 212.299 50.0092C211.925 50.7584 211.55 51.5076 211.176 52.2568C210.855 53.006 210.48 53.7552 210.052 54.5044C209.57 55.4676 208.982 56.5379 208.286 57.7152C207.644 58.839 206.894 59.8825 206.038 60.8458C205.182 61.809 204.219 62.6385 203.148 63.3342C202.078 63.9764 200.901 64.2974 199.617 64.2974C199.028 64.2974 198.412 64.2172 197.77 64.0566C196.379 63.682 195.389 62.7455 194.8 61.2471C194.265 59.6952 193.971 57.8222 193.917 55.6282C193.864 53.4341 193.971 51.0795 194.238 48.5643C194.559 45.9956 194.907 43.5072 195.282 41.0991C195.657 38.6374 195.978 36.4166 196.245 34.4366C196.513 32.403 196.593 30.8511 196.486 29.7808ZM258.972 48.1629C258.116 48.1629 257.233 48.4037 256.323 48.8854C255.413 49.3135 254.504 49.9289 253.594 50.7316C252.738 51.5343 251.881 52.4708 251.025 53.5411C250.169 54.5579 249.34 55.6282 248.537 56.752C247.467 58.3574 246.503 59.9628 245.647 61.5682C244.844 63.1201 244.068 65.1002 243.319 67.5083C242.731 69.2743 242.222 70.5051 241.794 71.2008C241.419 71.8964 240.938 72.2443 240.349 72.2443C239.921 72.2443 239.466 72.1373 238.985 71.9232C238.075 71.3346 237.459 70.6121 237.138 69.7559C236.764 68.9532 236.576 68.0969 236.576 67.1872C236.844 64.7791 237.566 62.0498 238.744 58.9995C239.975 55.8957 241.526 52.9792 243.399 50.25C245.272 47.5208 247.44 45.2197 249.901 43.3467C252.417 41.4737 255.066 40.5372 257.848 40.5372C259.454 40.5372 260.979 40.8583 262.424 41.5004C263.922 42.0891 265.206 42.9988 266.277 44.2296C266.972 42.5172 267.668 40.7245 268.364 38.8515C269.113 36.925 269.488 34.9985 269.488 33.072C269.327 32.0552 268.845 31.3595 268.043 30.9849C267.294 30.6103 266.384 30.423 265.314 30.423C264.511 30.423 263.681 30.5033 262.825 30.6638C261.969 30.8244 261.193 31.0117 260.497 31.2257C258.41 31.9214 256.457 32.9114 254.637 34.1957C252.818 35.4266 250.998 36.6306 249.179 37.8079C248.483 38.2361 247.761 38.4501 247.012 38.4501C246.262 38.4501 245.567 38.2628 244.925 37.8882C244.282 37.4601 243.774 36.9517 243.399 36.3631C243.025 35.7744 242.838 35.1322 242.838 34.4366C242.891 33.7409 243.212 33.072 243.801 32.4298C244.978 31.199 246.343 29.9949 247.895 28.8176C249.447 27.6403 251.106 26.5967 252.871 25.687C254.637 24.7773 256.457 24.0548 258.33 23.5197C260.256 22.931 262.156 22.6367 264.029 22.6367C266.063 22.6367 268.016 23.0381 269.889 23.8408C271.762 24.59 273.421 25.8743 274.866 27.6938C275.776 28.8711 276.418 30.1019 276.792 31.3863C277.167 32.6171 277.327 33.9014 277.274 35.2393C277.274 36.5236 277.087 37.8347 276.712 39.1726C276.391 40.5104 275.99 41.875 275.508 43.2664C274.438 46.3167 273.367 49.3402 272.297 52.337C271.28 55.2803 270.157 58.4376 268.926 61.809C268.391 63.2004 267.481 63.8961 266.196 63.8961C265.554 63.8961 264.912 63.7355 264.27 63.4145C263.628 63.0934 263.039 62.6653 262.504 62.1301C262.022 61.595 261.648 60.9796 261.38 60.2839C261.113 59.5882 261.032 58.8925 261.139 58.1968C261.407 56.966 261.594 55.5746 261.701 54.0227C261.808 52.4708 261.621 51.0795 261.139 49.8486C260.765 48.7248 260.042 48.1629 258.972 48.1629ZM263.549 1.36483C264.138 0.455089 264.914 0.000218876 265.877 0.000218876C266.412 0.000218876 266.948 0.160761 267.483 0.481845C268.018 0.802932 268.446 1.20429 268.767 1.68592C269.035 2.16754 269.168 2.70268 269.168 3.29134C269.168 3.87999 268.928 4.46865 268.446 5.05731C268.446 5.37839 268.339 5.75299 268.125 6.1811C267.857 6.60922 267.59 7.03733 267.322 7.46544C267.001 7.89355 266.76 8.32167 266.6 8.74978C266.439 9.17789 266.439 9.55249 266.6 9.87358C266.76 10.1411 267.028 10.2749 267.402 10.2749C268.152 10.2749 269.302 9.90033 270.854 9.15114C272.352 8.34842 273.931 7.46544 275.59 6.50219C277.249 5.48542 278.774 4.49541 280.166 3.53215C281.557 2.51539 282.52 1.79294 283.055 1.36483C283.644 0.883203 284.286 0.64239 284.982 0.64239C285.731 0.64239 286.453 0.90996 287.149 1.4451C287.898 1.92673 288.46 2.54214 288.835 3.29134C289.263 3.98702 289.477 4.73622 289.477 5.53893C289.477 6.28813 289.156 6.9303 288.514 7.46544C287.229 8.48221 285.731 9.606 284.019 10.8368C282.36 12.0677 280.594 13.2182 278.721 14.2885C276.901 15.3053 275.055 16.1615 273.182 16.8572C271.309 17.5529 269.516 17.9007 267.804 17.9007C265.931 17.5796 264.325 16.8037 262.988 15.5728C261.65 14.342 260.793 12.6563 260.419 10.5157C260.151 8.64275 260.392 6.95706 261.141 5.45866C261.837 3.96027 262.64 2.59566 263.549 1.36483ZM302.481 37.0052L302.641 36.3631C302.695 36.0955 302.722 35.8012 302.722 35.4801C302.775 35.1055 302.856 34.7041 302.963 34.276C303.284 32.5101 303.391 30.9581 303.284 29.6203C303.177 28.2824 302.695 27.6135 301.839 27.6135C301.25 27.6135 300.528 27.9614 299.671 28.657C299.136 28.9781 298.574 29.1387 297.986 29.1387C297.237 29.1387 296.541 28.8978 295.899 28.4162C295.31 27.9346 294.855 27.3459 294.534 26.6503C294.267 25.9011 294.186 25.1251 294.293 24.3224C294.454 23.5197 294.909 22.824 295.658 22.2353C297.477 20.7369 299.377 19.9877 301.357 19.9877C303.979 19.9877 306.227 21.4059 308.1 24.2421C309.438 26.2757 310.267 28.443 310.588 30.7441C310.909 33.0452 310.883 35.3998 310.508 37.8079C310.133 40.2161 309.465 42.6242 308.501 45.0324C307.592 47.4405 306.495 49.7684 305.21 52.016C303.979 54.2635 302.641 56.3774 301.197 58.3574C299.805 60.3374 298.467 62.0766 297.183 63.575C296.541 64.2707 295.845 64.6185 295.096 64.6185C294.186 64.6185 293.33 64.2974 292.527 63.6553C291.778 62.9596 291.189 62.2371 290.761 61.488C287.979 56.7787 285.544 51.9089 283.457 46.8786C281.37 41.8483 280.032 36.6039 279.443 31.1454C279.336 29.9146 279.63 29.0316 280.326 28.4965C281.075 27.9078 281.905 27.6135 282.815 27.6135C283.724 27.6135 284.554 27.8543 285.303 28.3359C286.106 28.8176 286.614 29.5668 286.828 30.5835C287.738 34.5971 288.755 38.4234 289.878 42.0623C291.056 45.6478 292.527 49.2065 294.293 52.7384C296.38 50.6513 298.28 47.494 299.993 43.2664C300.421 42.1961 300.768 41.2864 301.036 40.5372C301.357 39.7345 301.625 39.0655 301.839 38.5304C302.106 37.9417 302.32 37.4334 302.481 37.0052Z" fill="#E4002B"/>
<path d="M13.3655 105.496C13.3655 105.065 13.4373 104.673 13.581 104.32C13.7378 103.954 13.9468 103.647 14.2081 103.399C14.4694 103.138 14.7699 102.942 15.1096 102.811C15.4624 102.667 15.8413 102.595 16.2463 102.595C16.6513 102.595 17.0302 102.667 17.3829 102.811C17.7357 102.942 18.0427 103.138 18.304 103.399C18.5653 103.647 18.7678 103.948 18.9115 104.3C19.0683 104.653 19.1467 105.052 19.1467 105.496V106.26C20.3617 105.137 21.6682 104.242 23.0662 103.575C24.4641 102.909 25.9536 102.576 27.5344 102.576C28.8801 102.576 30.1474 102.772 31.3363 103.164C32.5252 103.543 33.5639 104.124 34.4523 104.908C35.3407 105.679 36.0462 106.639 36.5688 107.789C37.0914 108.938 37.3527 110.278 37.3527 111.806V135.088C37.3527 135.558 37.2744 135.976 37.1176 136.342C36.9608 136.708 36.7452 137.022 36.4709 137.283C36.2096 137.531 35.896 137.721 35.5302 137.851C35.1644 137.982 34.7789 138.047 34.3739 138.047C33.9558 138.047 33.5639 137.975 33.1981 137.832C32.8453 137.701 32.5383 137.512 32.277 137.263C32.0157 137.002 31.8067 136.688 31.6499 136.323C31.4931 135.957 31.4147 135.545 31.4147 135.088V112.433C31.4147 111.715 31.3102 111.062 31.1012 110.474C30.8921 109.886 30.572 109.383 30.1409 108.965C29.7097 108.547 29.1741 108.22 28.5339 107.985C27.8937 107.75 27.1425 107.632 26.2802 107.632C25.0782 107.632 24.033 107.854 23.1446 108.298C22.2692 108.729 21.5441 109.311 20.9693 110.042C20.4075 110.761 19.9894 111.597 19.715 112.551C19.4407 113.505 19.3035 114.491 19.3035 115.51V135.088C19.3035 135.558 19.2251 135.976 19.0683 136.342C18.9115 136.708 18.696 137.022 18.4216 137.283C18.1603 137.531 17.8467 137.721 17.4809 137.851C17.1151 137.982 16.7297 138.047 16.3247 138.047C15.9066 138.047 15.5146 137.975 15.1488 137.832C14.7961 137.701 14.489 137.512 14.2277 137.263C13.9664 137.002 13.7574 136.688 13.6006 136.323C13.4438 135.957 13.3655 135.545 13.3655 135.088V105.496ZM32.1398 90.4254C32.1398 90.0726 32.2117 89.7395 32.3554 89.4259C32.486 89.0993 32.6689 88.8184 32.9041 88.5832C33.1393 88.3481 33.4202 88.1652 33.7468 88.0345C34.0604 87.8908 34.3935 87.8189 34.7463 87.8189C35.099 87.8189 35.4387 87.8908 35.7653 88.0345C36.0789 88.1652 36.3533 88.3481 36.5884 88.5832C36.8236 88.8184 37.0131 89.0993 37.1568 89.4259C37.2874 89.7395 37.3527 90.0726 37.3527 90.4254V95.9127C37.3527 96.2524 37.2939 96.579 37.1764 96.8926C37.0588 97.1931 36.8889 97.4544 36.6668 97.6765C36.4447 97.8986 36.1834 98.0749 35.8829 98.2056C35.5694 98.3362 35.2297 98.4016 34.8639 98.4016H15.4428C15.0639 98.4016 14.7242 98.3362 14.4237 98.2056C14.1232 98.0749 13.8619 97.8986 13.6398 97.6765C13.4177 97.4544 13.2479 97.1931 13.1303 96.8926C13.0127 96.579 12.9539 96.2524 12.9539 95.9127C12.9539 95.573 13.0127 95.2529 13.1303 94.9524C13.2479 94.6519 13.4177 94.3906 13.6398 94.1685C13.8619 93.9333 14.1232 93.7504 14.4237 93.6198C14.7242 93.4891 15.0639 93.4238 15.4428 93.4238H32.1398V90.4254ZM37.3527 82.8608C37.3527 83.2397 37.2874 83.5859 37.1568 83.8994C37.0261 84.213 36.8497 84.4808 36.6276 84.7029C36.3925 84.925 36.1246 85.0949 35.8241 85.2125C35.5106 85.3301 35.1774 85.3889 34.8247 85.3889C34.4719 85.3889 34.1453 85.3301 33.8448 85.2125C33.5312 85.0818 33.2634 84.9054 33.0413 84.6833C32.8061 84.4612 32.6232 84.1999 32.4926 83.8994C32.3619 83.5859 32.2966 83.2397 32.2966 82.8608V78.275C32.2966 77.8961 32.3619 77.5564 32.4926 77.2559C32.6232 76.9423 32.8061 76.6745 33.0413 76.4524C33.2634 76.2303 33.5312 76.0605 33.8448 75.9429C34.1453 75.8122 34.4719 75.7469 34.8247 75.7469C35.1774 75.7469 35.5106 75.8057 35.8241 75.9233C36.1246 76.0409 36.3925 76.2107 36.6276 76.4328C36.8497 76.6549 37.0261 76.9228 37.1568 77.2363C37.2874 77.5499 37.3527 77.8961 37.3527 78.275V82.8608ZM66.8077 128.346C66.8077 129.914 66.5203 131.299 65.9454 132.501C65.3836 133.703 64.6128 134.716 63.6329 135.539C62.6661 136.362 61.536 136.989 60.2426 137.42C58.9622 137.838 57.5969 138.047 56.1467 138.047C54.6442 138.047 53.2463 137.838 51.9528 137.42C50.6594 136.989 49.5358 136.362 48.5821 135.539C47.6414 134.716 46.8967 133.703 46.348 132.501C45.8123 131.299 45.5445 129.914 45.5445 128.346V121.683C45.5445 120.703 45.5706 119.88 45.6229 119.214C45.6882 118.535 45.8188 117.914 46.0148 117.352C46.2108 116.791 46.4917 116.235 46.8575 115.687C47.2233 115.125 47.7198 114.471 48.3469 113.727C48.9218 113.047 49.4248 112.388 49.8559 111.747C50.3001 111.107 50.6006 110.467 50.7574 109.827C49.9866 110.284 49.072 110.513 48.0138 110.513C47.661 110.513 47.2037 110.447 46.6419 110.317C46.0932 110.173 45.5249 109.944 44.937 109.631C44.3621 109.304 43.8134 108.873 43.2908 108.337C42.7682 107.802 42.3632 107.129 42.0757 106.319C41.9451 105.953 41.8798 105.587 41.8798 105.221C41.8928 104.856 41.9647 104.516 42.0953 104.202C42.239 103.876 42.435 103.588 42.6832 103.34C42.9315 103.092 43.232 102.902 43.5847 102.772C43.9375 102.641 44.2902 102.582 44.643 102.595C45.0088 102.608 45.355 102.687 45.6817 102.831C46.0083 102.961 46.2957 103.157 46.5439 103.419C46.8052 103.68 47.0078 103.987 47.1515 104.34C47.2952 104.732 47.5238 105.058 47.8374 105.319C48.164 105.581 48.569 105.711 49.0524 105.711C49.4705 105.711 49.8363 105.587 50.1499 105.339C50.4634 105.091 50.7117 104.758 50.8946 104.34C51.1298 103.804 51.489 103.379 51.9724 103.066C52.4689 102.752 53.0242 102.595 53.6382 102.595C54.0563 102.595 54.4417 102.674 54.7945 102.831C55.1603 102.987 55.4739 103.203 55.7352 103.477C56.0095 103.739 56.2251 104.052 56.3819 104.418C56.5387 104.771 56.617 105.156 56.617 105.574V108.279C56.617 109.167 56.3819 110.18 55.9115 111.316C55.4412 112.453 54.7422 113.688 53.8146 115.02C53.4749 115.504 53.1614 115.961 52.8739 116.392C52.5996 116.823 52.3579 117.254 52.1488 117.685C51.9528 118.104 51.7961 118.535 51.6785 118.979C51.5609 119.423 51.4956 119.893 51.4825 120.39V127.778C51.4825 128.601 51.6001 129.339 51.8353 129.993C52.0704 130.633 52.3971 131.175 52.8151 131.619C53.2332 132.063 53.7232 132.403 54.2849 132.638C54.8598 132.873 55.4804 132.991 56.1467 132.991C56.8261 132.991 57.4532 132.88 58.0281 132.658C58.6029 132.423 59.0994 132.09 59.5175 131.658C59.9486 131.214 60.2818 130.672 60.5169 130.032C60.7521 129.379 60.8697 128.627 60.8697 127.778V120.88C60.8697 120.031 60.7782 119.319 60.5953 118.744C60.4124 118.156 60.1576 117.679 59.831 117.313C59.5175 116.934 59.132 116.647 58.6748 116.451C58.2306 116.255 57.7341 116.111 57.1854 116.02C56.6889 115.941 56.2774 115.713 55.9507 115.334C55.6372 114.955 55.4804 114.504 55.4804 113.982C55.4804 113.472 55.6306 113.034 55.9311 112.669C56.2447 112.29 56.6301 112.041 57.0874 111.924C57.7668 111.754 58.3416 111.453 58.812 111.022C59.2954 110.591 59.7004 110.069 60.027 109.455C60.3536 108.827 60.6019 108.122 60.7717 107.338C60.9546 106.554 61.0787 105.724 61.1441 104.849C61.1833 104.418 61.2943 104.026 61.4772 103.673C61.6732 103.307 61.9214 103 62.2219 102.752C62.5224 102.491 62.8621 102.295 63.241 102.164C63.6199 102.034 64.0249 101.988 64.456 102.027C64.8872 102.066 65.2791 102.184 65.6319 102.38C65.9846 102.563 66.2851 102.804 66.5334 103.105C66.7947 103.405 66.9841 103.752 67.1017 104.144C67.2323 104.523 67.2911 104.928 67.2781 105.359C67.2389 106.169 67.1213 106.992 66.9253 107.828C66.7424 108.664 66.468 109.461 66.1022 110.219C65.7495 110.964 65.3052 111.649 64.7696 112.277C64.2339 112.891 63.6003 113.374 62.8686 113.727C63.7309 114.106 64.4168 114.589 64.9264 115.177C65.449 115.765 65.8474 116.392 66.1218 117.058C66.4092 117.712 66.5921 118.371 66.6705 119.038C66.762 119.691 66.8077 120.279 66.8077 120.801V128.346ZM66.7489 95.9715C66.7489 96.4026 66.6771 96.7946 66.5334 97.1473C66.3896 97.5001 66.1937 97.8006 65.9454 98.0488C65.6841 98.284 65.3836 98.4669 65.0439 98.5975C64.7043 98.7282 64.3384 98.7935 63.9465 98.7935C63.5545 98.7935 63.1887 98.7282 62.849 98.5975C62.5093 98.4669 62.2154 98.284 61.9671 98.0488C61.7058 97.8006 61.5033 97.5001 61.3596 97.1473C61.2028 96.7946 61.1245 96.4026 61.1245 95.9715V90.4646C61.1245 90.0335 61.2028 89.6415 61.3596 89.2887C61.5033 88.936 61.7058 88.642 61.9671 88.4069C62.2154 88.1586 62.5093 87.9692 62.849 87.8385C63.1887 87.7079 63.5545 87.6426 63.9465 87.6426C64.3384 87.6426 64.7043 87.7079 65.0439 87.8385C65.3836 87.9692 65.6841 88.1586 65.9454 88.4069C66.1937 88.642 66.3896 88.936 66.5334 89.2887C66.6771 89.6415 66.7489 90.0335 66.7489 90.4646V95.9715ZM74.2352 110.121C74.6402 108.945 75.1889 107.893 75.8813 106.966C76.5738 106.038 77.3838 105.254 78.3114 104.614C79.2521 103.974 80.2973 103.49 81.447 103.164C82.6098 102.824 83.864 102.654 85.2097 102.654C87.3785 102.654 89.2468 103.033 90.8146 103.791C92.3955 104.536 93.6954 105.62 94.7145 107.044C95.7466 108.455 96.5044 110.18 96.9878 112.218C97.4843 114.256 97.7325 116.555 97.7325 119.116C97.7325 122.787 97.4385 125.851 96.8506 128.307C96.2758 130.75 95.4461 132.71 94.3617 134.187C93.2773 135.65 91.9578 136.688 90.4031 137.303C88.8614 137.917 87.1303 138.224 85.2097 138.224C83.9686 138.224 82.7992 138.093 81.7018 137.832C80.6043 137.57 79.5918 137.146 78.6642 136.558C77.7366 135.957 76.9069 135.179 76.1753 134.226C75.4567 133.259 74.8427 132.077 74.3331 130.679C73.8236 129.268 73.4317 127.621 73.1573 125.74C72.896 123.859 72.7653 121.703 72.7653 119.273C72.7653 118.933 72.8307 118.613 72.9613 118.313C73.092 118.012 73.2683 117.751 73.4904 117.529C73.7126 117.294 73.9739 117.111 74.2743 116.98C74.5879 116.849 74.9145 116.784 75.2542 116.784H82.8776C83.2173 116.784 83.5374 116.849 83.8379 116.98C84.1384 117.111 84.3997 117.294 84.6218 117.529C84.857 117.751 85.0399 118.012 85.1705 118.313C85.3012 118.613 85.3665 118.933 85.3665 119.273C85.3665 119.613 85.3012 119.939 85.1705 120.253C85.0399 120.553 84.857 120.815 84.6218 121.037C84.3997 121.259 84.1384 121.435 83.8379 121.566C83.5374 121.696 83.2173 121.762 82.8776 121.762H78.9581C78.9973 123.447 79.128 124.989 79.3501 126.387C79.5722 127.785 79.9184 128.987 80.3888 129.993C80.8722 130.999 81.5058 131.783 82.2897 132.344C83.0736 132.893 84.0469 133.167 85.2097 133.167C86.477 133.167 87.5157 132.86 88.3257 132.246C89.1488 131.619 89.7955 130.75 90.2659 129.64C90.7493 128.529 91.0824 127.21 91.2653 125.681C91.4613 124.153 91.5593 122.474 91.5593 120.645C91.5593 118.319 91.4352 116.34 91.187 114.707C90.9387 113.06 90.5533 111.721 90.0307 110.689C89.5212 109.657 88.8679 108.906 88.071 108.435C87.274 107.952 86.3203 107.71 85.2097 107.71C83.9555 107.71 82.8711 108.076 81.9566 108.808C81.042 109.526 80.343 110.643 79.8596 112.159C79.729 112.551 79.5265 112.891 79.2521 113.178C78.9908 113.465 78.6838 113.694 78.331 113.864C77.9783 114.021 77.5994 114.112 77.1944 114.138C76.8024 114.151 76.4105 114.086 76.0185 113.942C75.6266 113.799 75.2869 113.596 74.9995 113.335C74.7251 113.06 74.503 112.753 74.3331 112.414C74.1764 112.061 74.0849 111.689 74.0588 111.297C74.0326 110.905 74.0914 110.513 74.2352 110.121ZM127.736 135.127C127.736 135.558 127.658 135.957 127.501 136.323C127.357 136.675 127.155 136.982 126.894 137.244C126.632 137.492 126.325 137.681 125.972 137.812C125.633 137.956 125.26 138.028 124.855 138.028C124.45 138.028 124.071 137.956 123.719 137.812C123.366 137.681 123.059 137.492 122.798 137.244C122.536 136.982 122.327 136.675 122.171 136.323C122.027 135.97 121.955 135.571 121.955 135.127V134.363C121.354 134.925 120.74 135.434 120.113 135.892C119.499 136.336 118.852 136.721 118.173 137.048C117.506 137.361 116.788 137.603 116.017 137.773C115.259 137.956 114.443 138.047 113.567 138.047C112.222 138.047 110.954 137.858 109.765 137.479C108.576 137.087 107.531 136.506 106.63 135.735C105.741 134.951 105.036 133.984 104.513 132.834C104.004 131.685 103.749 130.345 103.749 128.817V105.535C103.749 105.065 103.827 104.647 103.984 104.281C104.141 103.915 104.35 103.608 104.611 103.36C104.886 103.098 105.199 102.902 105.552 102.772C105.918 102.641 106.31 102.576 106.728 102.576C107.133 102.576 107.518 102.648 107.884 102.791C108.25 102.922 108.563 103.118 108.825 103.379C109.086 103.628 109.295 103.935 109.452 104.3C109.609 104.666 109.687 105.078 109.687 105.535V128.19C109.687 128.908 109.791 129.562 110.001 130.149C110.21 130.737 110.53 131.247 110.961 131.678C111.392 132.096 111.928 132.423 112.568 132.658C113.208 132.88 113.959 132.991 114.821 132.991C116.023 132.991 117.062 132.776 117.937 132.344C118.826 131.9 119.551 131.319 120.113 130.6C120.688 129.869 121.112 129.026 121.387 128.072C121.661 127.118 121.798 126.132 121.798 125.113V105.535C121.798 105.065 121.877 104.647 122.033 104.281C122.19 103.915 122.399 103.608 122.66 103.36C122.935 103.098 123.248 102.902 123.601 102.772C123.967 102.641 124.359 102.576 124.777 102.576C125.182 102.576 125.567 102.648 125.933 102.791C126.299 102.922 126.613 103.118 126.874 103.379C127.135 103.628 127.344 103.935 127.501 104.3C127.658 104.666 127.736 105.078 127.736 105.535V135.127ZM135.144 110.121C135.549 108.945 136.098 107.893 136.79 106.966C137.483 106.038 138.293 105.254 139.22 104.614C140.161 103.974 141.206 103.49 142.356 103.164C143.519 102.824 144.773 102.654 146.119 102.654C148.287 102.654 150.156 103.033 151.724 103.791C153.304 104.536 154.604 105.62 155.623 107.044C156.656 108.455 157.413 110.18 157.897 112.218C158.393 114.256 158.641 116.555 158.641 119.116C158.641 122.787 158.347 125.851 157.76 128.307C157.185 130.75 156.355 132.71 155.271 134.187C154.186 135.65 152.867 136.688 151.312 137.303C149.77 137.917 148.039 138.224 146.119 138.224C144.877 138.224 143.708 138.093 142.611 137.832C141.513 137.57 140.501 137.146 139.573 136.558C138.645 135.957 137.816 135.179 137.084 134.226C136.366 133.259 135.752 132.077 135.242 130.679C134.733 129.268 134.341 127.621 134.066 125.74C133.805 123.859 133.674 121.703 133.674 119.273C133.674 118.933 133.74 118.613 133.87 118.313C134.001 118.012 134.177 117.751 134.399 117.529C134.621 117.294 134.883 117.111 135.183 116.98C135.497 116.849 135.823 116.784 136.163 116.784H143.787C144.126 116.784 144.446 116.849 144.747 116.98C145.047 117.111 145.309 117.294 145.531 117.529C145.766 117.751 145.949 118.012 146.079 118.313C146.21 118.613 146.275 118.933 146.275 119.273C146.275 119.613 146.21 119.939 146.079 120.253C145.949 120.553 145.766 120.815 145.531 121.037C145.309 121.259 145.047 121.435 144.747 121.566C144.446 121.696 144.126 121.762 143.787 121.762H139.867C139.906 123.447 140.037 124.989 140.259 126.387C140.481 127.785 140.827 128.987 141.298 129.993C141.781 130.999 142.415 131.783 143.199 132.344C143.983 132.893 144.956 133.167 146.119 133.167C147.386 133.167 148.425 132.86 149.235 132.246C150.058 131.619 150.704 130.75 151.175 129.64C151.658 128.529 151.991 127.21 152.174 125.681C152.37 124.153 152.468 122.474 152.468 120.645C152.468 118.319 152.344 116.34 152.096 114.707C151.848 113.06 151.462 111.721 150.94 110.689C150.43 109.657 149.777 108.906 148.98 108.435C148.183 107.952 147.229 107.71 146.119 107.71C144.864 107.71 143.78 108.076 142.865 108.808C141.951 109.526 141.252 110.643 140.769 112.159C140.638 112.551 140.435 112.891 140.161 113.178C139.9 113.465 139.593 113.694 139.24 113.864C138.887 114.021 138.508 114.112 138.103 114.138C137.711 114.151 137.319 114.086 136.927 113.942C136.535 113.799 136.196 113.596 135.908 113.335C135.634 113.06 135.412 112.753 135.242 112.414C135.085 112.061 134.994 111.689 134.968 111.297C134.942 110.905 135 110.513 135.144 110.121ZM187.94 128.19C187.94 129.757 187.678 131.155 187.156 132.384C186.646 133.612 185.888 134.657 184.882 135.519C183.889 136.368 182.655 137.022 181.178 137.479C179.715 137.923 178.03 138.145 176.122 138.145C174.332 138.145 172.686 137.923 171.184 137.479C169.694 137.035 168.401 136.375 167.303 135.5C166.219 134.611 165.37 133.507 164.756 132.188C164.155 130.855 163.854 129.307 163.854 127.543C163.854 126.785 163.887 125.988 163.952 125.152C164.031 124.303 164.214 123.48 164.501 122.683C164.802 121.873 165.239 121.115 165.814 120.41C166.389 119.704 167.179 119.11 168.185 118.626C167.245 118.247 166.493 117.777 165.932 117.215C165.37 116.64 164.939 116.026 164.638 115.373C164.351 114.707 164.161 114.021 164.07 113.315C163.978 112.597 163.933 111.904 163.933 111.238C163.933 110.154 164.07 109.2 164.344 108.377C164.619 107.554 164.991 106.835 165.461 106.221C165.945 105.607 166.493 105.097 167.108 104.692C167.735 104.274 168.388 103.941 169.067 103.693C169.76 103.432 170.465 103.249 171.184 103.144C171.902 103.04 172.588 102.987 173.242 102.987H175.672C176.05 102.987 176.39 103.053 176.691 103.183C177.004 103.314 177.272 103.497 177.494 103.732C177.716 103.954 177.886 104.222 178.004 104.536C178.134 104.836 178.2 105.163 178.2 105.515C178.2 105.868 178.141 106.201 178.023 106.515C177.906 106.815 177.736 107.083 177.514 107.318C177.292 107.541 177.024 107.717 176.71 107.848C176.397 107.978 176.05 108.044 175.672 108.044H174.613C174.274 108.044 173.829 108.07 173.281 108.122C172.732 108.161 172.196 108.292 171.674 108.514C171.164 108.736 170.72 109.089 170.341 109.572C169.975 110.042 169.792 110.709 169.792 111.571C169.792 112.499 169.93 113.263 170.204 113.864C170.491 114.452 170.87 114.916 171.341 115.255C171.824 115.595 172.379 115.837 173.006 115.98C173.633 116.111 174.3 116.176 175.005 116.176H175.672C176.05 116.176 176.39 116.242 176.691 116.372C177.004 116.503 177.272 116.686 177.494 116.921C177.716 117.143 177.886 117.411 178.004 117.725C178.134 118.025 178.2 118.352 178.2 118.705C178.2 119.057 178.141 119.39 178.023 119.704C177.906 120.004 177.736 120.272 177.514 120.507C177.292 120.73 177.024 120.906 176.71 121.037C176.397 121.167 176.05 121.233 175.672 121.233H175.005C174.234 121.233 173.522 121.298 172.869 121.429C172.229 121.559 171.674 121.834 171.203 122.252C170.733 122.67 170.367 123.284 170.106 124.094C169.845 124.891 169.714 125.962 169.714 127.308C169.714 128.196 169.838 129 170.086 129.718C170.335 130.424 170.713 131.025 171.223 131.521C171.746 132.018 172.412 132.403 173.222 132.678C174.032 132.952 174.999 133.089 176.122 133.089C177.285 133.089 178.245 132.945 179.003 132.658C179.761 132.357 180.362 131.939 180.806 131.404C181.25 130.868 181.557 130.234 181.727 129.503C181.91 128.758 182.002 127.941 182.002 127.053V105.535C182.002 105.078 182.08 104.666 182.237 104.3C182.394 103.935 182.603 103.628 182.864 103.379C183.125 103.118 183.432 102.922 183.785 102.791C184.151 102.648 184.543 102.576 184.961 102.576C185.366 102.576 185.751 102.641 186.117 102.772C186.483 102.902 186.796 103.098 187.058 103.36C187.332 103.608 187.548 103.915 187.704 104.281C187.861 104.647 187.94 105.065 187.94 105.535V128.19ZM182.492 144.024C182.492 143.646 182.563 143.286 182.707 142.947C182.851 142.62 183.047 142.333 183.295 142.084C183.53 141.849 183.818 141.66 184.157 141.516C184.484 141.372 184.837 141.3 185.216 141.3C185.594 141.3 185.954 141.372 186.293 141.516C186.62 141.66 186.907 141.849 187.156 142.084C187.391 142.333 187.58 142.62 187.724 142.947C187.868 143.286 187.94 143.646 187.94 144.024V147.474C187.913 148.48 187.763 149.433 187.489 150.335C187.214 151.236 186.77 152.027 186.156 152.706C185.542 153.399 184.745 153.941 183.765 154.333C182.785 154.738 181.583 154.94 180.159 154.94C178.735 154.94 177.533 154.738 176.553 154.333C175.574 153.941 174.777 153.399 174.163 152.706C173.549 152.027 173.104 151.236 172.83 150.335C172.543 149.433 172.392 148.48 172.379 147.474V146.513H171.635C171.269 146.513 170.936 146.448 170.635 146.317C170.335 146.2 170.08 146.03 169.871 145.808C169.662 145.586 169.505 145.331 169.4 145.044C169.283 144.756 169.224 144.443 169.224 144.103C169.224 143.776 169.283 143.463 169.4 143.162C169.518 142.875 169.681 142.62 169.89 142.398C170.099 142.176 170.354 141.999 170.655 141.869C170.942 141.751 171.269 141.692 171.635 141.692H175.417C175.743 141.692 176.057 141.751 176.358 141.869C176.645 141.999 176.9 142.176 177.122 142.398C177.344 142.62 177.52 142.875 177.651 143.162C177.769 143.463 177.827 143.776 177.827 144.103V147.474C177.827 148.401 178.023 149.1 178.415 149.571C178.807 150.054 179.389 150.296 180.159 150.296C180.93 150.296 181.512 150.054 181.904 149.571C182.296 149.1 182.492 148.401 182.492 147.474V144.024ZM187.861 95.9715C187.861 96.4026 187.789 96.7946 187.646 97.1473C187.502 97.5001 187.306 97.8006 187.058 98.0488C186.796 98.284 186.496 98.4669 186.156 98.5975C185.817 98.7282 185.451 98.7935 185.059 98.7935C184.667 98.7935 184.301 98.7282 183.961 98.5975C183.622 98.4669 183.328 98.284 183.079 98.0488C182.818 97.8006 182.616 97.5001 182.472 97.1473C182.315 96.7946 182.237 96.4026 182.237 95.9715V90.4646C182.237 90.0335 182.315 89.6415 182.472 89.2887C182.616 88.936 182.818 88.642 183.079 88.4069C183.328 88.1586 183.622 87.9692 183.961 87.8385C184.301 87.7079 184.667 87.6426 185.059 87.6426C185.451 87.6426 185.817 87.7079 186.156 87.8385C186.496 87.9692 186.796 88.1586 187.058 88.4069C187.306 88.642 187.502 88.936 187.646 89.2887C187.789 89.6415 187.861 90.0335 187.861 90.4646V95.9715ZM196.269 103.869C196.269 102.968 196.334 102.151 196.465 101.42C196.608 100.675 196.817 99.9955 197.092 99.3814C197.366 98.7674 197.699 98.2056 198.091 97.6961C198.496 97.1865 198.96 96.6966 199.483 96.2262C199.744 96.0041 200.012 95.7624 200.286 95.5011C200.56 95.2398 200.809 94.9851 201.031 94.7368C201.266 94.4755 201.455 94.2273 201.599 93.9921C201.743 93.7439 201.815 93.5283 201.815 93.3454C201.815 93.0711 201.736 92.8228 201.579 92.6007C201.436 92.3786 201.227 92.1957 200.952 92.052C200.691 91.8952 200.377 91.7776 200.012 91.6992C199.646 91.6208 199.254 91.5817 198.836 91.5817C198.47 91.5817 198.104 91.6274 197.738 91.7188C197.386 91.8103 197.052 91.9671 196.739 92.1892C196.425 92.3982 196.151 92.6922 195.916 93.0711C195.681 93.4499 195.504 93.9203 195.387 94.4821C195.308 94.874 195.151 95.2202 194.916 95.5207C194.694 95.8082 194.426 96.0368 194.113 96.2067C193.799 96.3765 193.453 96.4875 193.074 96.5398C192.708 96.579 192.336 96.5463 191.957 96.4418C191.591 96.3504 191.271 96.1936 190.997 95.9715C190.709 95.7363 190.481 95.4685 190.311 95.168C190.141 94.8544 190.03 94.5213 189.978 94.1685C189.912 93.8027 189.919 93.4303 189.997 93.0515C190.219 92.0063 190.624 91.0852 191.212 90.2882C191.787 89.4913 192.473 88.8249 193.27 88.2893C194.067 87.7536 194.942 87.3551 195.896 87.0938C196.863 86.8195 197.843 86.6823 198.836 86.6823C199.92 86.6823 200.959 86.8129 201.952 87.0742C202.958 87.3355 203.84 87.734 204.597 88.2697C205.368 88.8053 205.976 89.4782 206.42 90.2882C206.877 91.0852 207.106 92.0259 207.106 93.1103C207.106 93.8158 207.041 94.4102 206.91 94.8936C206.779 95.377 206.577 95.8343 206.302 96.2654C206.028 96.6835 205.675 97.1081 205.244 97.5393C204.826 97.9574 204.323 98.4604 203.735 99.0483C203.369 99.4141 203.082 99.7734 202.873 100.126C202.677 100.466 202.527 100.838 202.422 101.243C202.331 101.635 202.272 102.079 202.246 102.576C202.22 103.059 202.207 103.621 202.207 104.261V132.521H203.598C203.977 132.521 204.323 132.593 204.637 132.736C204.95 132.867 205.218 133.05 205.44 133.285C205.662 133.52 205.832 133.795 205.95 134.108C206.067 134.409 206.126 134.735 206.126 135.088C206.126 135.441 206.067 135.774 205.95 136.087C205.832 136.388 205.662 136.656 205.44 136.891C205.231 137.126 204.97 137.316 204.656 137.459C204.343 137.59 203.99 137.655 203.598 137.655H198.797C198.405 137.655 198.052 137.59 197.738 137.459C197.425 137.329 197.157 137.152 196.935 136.93C196.726 136.695 196.562 136.427 196.445 136.127C196.327 135.813 196.269 135.48 196.269 135.127V103.869ZM233.562 135.127C233.562 135.558 233.484 135.957 233.327 136.323C233.184 136.675 232.981 136.982 232.72 137.244C232.458 137.492 232.151 137.681 231.799 137.812C231.459 137.956 231.087 138.028 230.682 138.028C230.277 138.028 229.898 137.956 229.545 137.812C229.192 137.681 228.885 137.492 228.624 137.244C228.363 136.982 228.154 136.675 227.997 136.323C227.853 135.97 227.781 135.571 227.781 135.127V134.363C227.18 134.925 226.566 135.434 225.939 135.892C225.325 136.336 224.678 136.721 223.999 137.048C223.333 137.361 222.614 137.603 221.843 137.773C221.085 137.956 220.269 138.047 219.394 138.047C218.048 138.047 216.781 137.858 215.592 137.479C214.403 137.087 213.358 136.506 212.456 135.735C211.568 134.951 210.862 133.984 210.339 132.834C209.83 131.685 209.575 130.345 209.575 128.817V105.535C209.575 105.065 209.654 104.647 209.81 104.281C209.967 103.915 210.176 103.608 210.437 103.36C210.712 103.098 211.025 102.902 211.378 102.772C211.744 102.641 212.136 102.576 212.554 102.576C212.959 102.576 213.344 102.648 213.71 102.791C214.076 102.922 214.39 103.118 214.651 103.379C214.912 103.628 215.121 103.935 215.278 104.3C215.435 104.666 215.513 105.078 215.513 105.535V128.19C215.513 128.908 215.618 129.562 215.827 130.149C216.036 130.737 216.356 131.247 216.787 131.678C217.218 132.096 217.754 132.423 218.394 132.658C219.034 132.88 219.785 132.991 220.648 132.991C221.85 132.991 222.888 132.776 223.764 132.344C224.652 131.9 225.377 131.319 225.939 130.6C226.514 129.869 226.939 129.026 227.213 128.072C227.487 127.118 227.624 126.132 227.624 125.113V105.535C227.624 105.065 227.703 104.647 227.86 104.281C228.016 103.915 228.225 103.608 228.487 103.36C228.761 103.098 229.075 102.902 229.427 102.772C229.793 102.641 230.185 102.576 230.603 102.576C231.008 102.576 231.394 102.648 231.76 102.791C232.125 102.922 232.439 103.118 232.7 103.379C232.961 103.628 233.171 103.935 233.327 104.3C233.484 104.666 233.562 105.078 233.562 105.535V135.127ZM265.506 135.088C265.506 135.558 265.428 135.976 265.271 136.342C265.114 136.708 264.899 137.022 264.624 137.283C264.363 137.531 264.05 137.721 263.684 137.851C263.318 137.982 262.933 138.047 262.528 138.047C262.109 138.047 261.717 137.975 261.352 137.832C260.999 137.701 260.692 137.512 260.431 137.263C260.169 137.002 259.96 136.688 259.803 136.323C259.647 135.957 259.568 135.545 259.568 135.088V113.413C259.568 112.891 259.536 112.401 259.47 111.943C259.405 111.486 259.294 111.068 259.137 110.689C258.98 110.297 258.765 109.951 258.49 109.651C258.229 109.337 257.896 109.069 257.491 108.847L253.63 112.61C253.552 112.688 253.434 112.793 253.278 112.923C253.121 113.041 252.918 113.1 252.67 113.1C252.343 113.1 252.095 113.041 251.925 112.923C251.755 112.793 251.631 112.688 251.553 112.61L247.849 108.847C247.17 109.33 246.654 109.984 246.301 110.807C245.948 111.617 245.772 112.486 245.772 113.413V128.268L250.514 121.605H249.319C248.966 121.605 248.646 121.546 248.359 121.429C248.071 121.298 247.823 121.128 247.614 120.919C247.418 120.71 247.261 120.468 247.144 120.194C247.039 119.907 246.987 119.599 246.987 119.273C246.987 118.946 247.039 118.646 247.144 118.371C247.261 118.084 247.418 117.836 247.614 117.627C247.823 117.418 248.071 117.254 248.359 117.137C248.646 117.006 248.966 116.941 249.319 116.941H255.296C255.649 116.941 255.975 117.006 256.276 117.137C256.576 117.267 256.838 117.45 257.06 117.685C257.295 117.908 257.478 118.169 257.609 118.469C257.739 118.77 257.805 119.096 257.805 119.449C257.805 119.972 257.661 120.436 257.373 120.841L246.144 136.577C245.83 137.022 245.425 137.381 244.929 137.655C244.433 137.917 243.89 138.047 243.302 138.047C242.793 138.047 242.323 137.962 241.891 137.792C241.473 137.623 241.108 137.387 240.794 137.087C240.493 136.773 240.258 136.408 240.088 135.989C239.919 135.558 239.834 135.088 239.834 134.578V112.022C239.834 110.898 240.03 109.853 240.422 108.886C240.814 107.906 241.362 107.031 242.068 106.26C242.786 105.476 243.636 104.803 244.615 104.242C245.608 103.68 246.693 103.242 247.869 102.929C247.986 102.902 248.13 102.87 248.3 102.831C248.47 102.791 248.653 102.772 248.848 102.772C249.044 102.772 249.24 102.811 249.436 102.889C249.632 102.968 249.822 103.105 250.005 103.301L252.67 106.241L255.139 103.301C255.309 103.105 255.492 102.968 255.688 102.889C255.884 102.811 256.08 102.772 256.276 102.772C256.472 102.772 256.655 102.791 256.825 102.831C257.008 102.87 257.164 102.902 257.295 102.929C258.484 103.229 259.581 103.66 260.587 104.222C261.593 104.771 262.456 105.437 263.174 106.221C263.906 106.992 264.474 107.867 264.879 108.847C265.284 109.827 265.487 110.885 265.487 112.022L265.506 135.088ZM252.984 98.3232C252.631 98.3232 252.304 98.2579 252.004 98.1272C251.69 97.9966 251.422 97.8202 251.2 97.5981C250.965 97.3629 250.782 97.0951 250.651 96.7946C250.521 96.481 250.455 96.1479 250.455 95.7951V92.7183C250.455 92.3525 250.521 92.0128 250.651 91.6992C250.782 91.3857 250.965 91.1178 251.2 90.8957C251.422 90.6736 251.69 90.5038 252.004 90.3862C252.304 90.2556 252.631 90.1902 252.984 90.1902C253.336 90.1902 253.669 90.2556 253.983 90.3862C254.284 90.5038 254.551 90.6736 254.787 90.8957C255.009 91.1178 255.185 91.3857 255.316 91.6992C255.446 92.0128 255.512 92.3525 255.512 92.7183V93.4238H268.583C268.923 93.4238 269.236 93.4891 269.524 93.6198C269.824 93.7504 270.086 93.9268 270.308 94.1489C270.53 94.371 270.706 94.6323 270.837 94.9328C270.967 95.2202 271.033 95.5338 271.033 95.8735C271.033 96.2132 270.967 96.5333 270.837 96.8338C270.706 97.1212 270.53 97.376 270.308 97.5981C270.086 97.8202 269.824 97.9966 269.524 98.1272C269.236 98.2579 268.923 98.3232 268.583 98.3232H252.984ZM271.542 131.462C271.412 131.057 271.373 130.659 271.425 130.267C271.49 129.875 271.621 129.522 271.817 129.209C272.013 128.882 272.267 128.601 272.581 128.366C272.908 128.131 273.267 127.961 273.659 127.857C274.077 127.752 274.482 127.726 274.874 127.778C275.279 127.83 275.645 127.948 275.971 128.131C276.311 128.314 276.605 128.562 276.853 128.876C277.101 129.189 277.278 129.555 277.382 129.973C277.631 130.914 278.055 131.672 278.656 132.246C279.257 132.808 280.08 133.089 281.126 133.089C282.145 133.089 282.981 132.749 283.634 132.07C284.3 131.391 284.816 130.476 285.182 129.326C285.561 128.164 285.822 126.818 285.966 125.289C286.11 123.761 286.182 122.154 286.182 120.468C286.182 119.88 286.175 119.155 286.162 118.293C286.149 117.431 286.097 116.523 286.005 115.569C285.914 114.615 285.764 113.668 285.555 112.727C285.345 111.787 285.045 110.937 284.653 110.18C284.261 109.422 283.758 108.808 283.144 108.337C282.53 107.867 281.779 107.632 280.89 107.632C280.12 107.632 279.46 107.789 278.911 108.102C278.362 108.416 277.905 108.827 277.539 109.337C277.186 109.846 276.919 110.434 276.736 111.101C276.553 111.754 276.435 112.427 276.383 113.119C276.357 113.511 276.246 113.877 276.05 114.217C275.854 114.543 275.599 114.818 275.285 115.04C274.985 115.262 274.639 115.425 274.247 115.53C273.868 115.634 273.476 115.66 273.071 115.608C272.679 115.556 272.32 115.438 271.993 115.255C271.666 115.059 271.386 114.818 271.15 114.53C270.928 114.23 270.765 113.897 270.66 113.531C270.556 113.152 270.53 112.76 270.582 112.355C270.739 111.009 271.079 109.742 271.601 108.553C272.137 107.364 272.842 106.332 273.718 105.457C274.593 104.568 275.638 103.869 276.853 103.36C278.068 102.837 279.44 102.576 280.969 102.576C282.092 102.576 283.157 102.7 284.163 102.948C285.169 103.196 286.097 103.601 286.946 104.163C287.795 104.725 288.553 105.463 289.219 106.378C289.899 107.292 290.473 108.416 290.944 109.748C291.427 111.068 291.793 112.616 292.041 114.393C292.303 116.157 292.433 118.182 292.433 120.468C292.433 121.657 292.368 122.925 292.237 124.27C292.107 125.603 291.878 126.922 291.551 128.229C291.238 129.535 290.807 130.79 290.258 131.992C289.722 133.181 289.036 134.232 288.2 135.147C287.364 136.061 286.365 136.793 285.202 137.342C284.039 137.877 282.68 138.145 281.126 138.145C279.832 138.145 278.663 137.982 277.618 137.655C276.572 137.329 275.651 136.871 274.854 136.283C274.057 135.696 273.385 134.99 272.836 134.167C272.287 133.344 271.856 132.442 271.542 131.462ZM310.345 122.193C309.326 122.219 308.425 122.402 307.641 122.742C306.857 123.081 306.204 123.552 305.681 124.153C305.159 124.754 304.76 125.472 304.486 126.308C304.224 127.131 304.094 128.053 304.094 129.072V135.088C304.094 135.558 304.015 135.976 303.859 136.342C303.702 136.708 303.486 137.022 303.212 137.283C302.951 137.531 302.637 137.721 302.271 137.851C301.905 137.982 301.52 138.047 301.115 138.047C300.697 138.047 300.305 137.975 299.939 137.832C299.586 137.701 299.279 137.512 299.018 137.263C298.757 137.002 298.548 136.688 298.391 136.323C298.234 135.957 298.156 135.545 298.156 135.088V112.218C298.156 110.676 298.456 109.304 299.057 108.102C299.671 106.9 300.514 105.894 301.585 105.084C302.67 104.261 303.95 103.641 305.426 103.223C306.903 102.791 308.516 102.576 310.267 102.576C311.992 102.576 313.592 102.791 315.068 103.223C316.545 103.641 317.825 104.261 318.909 105.084C320.007 105.894 320.863 106.9 321.477 108.102C322.091 109.304 322.398 110.676 322.398 112.218V135.088C322.398 135.558 322.319 135.976 322.163 136.342C322.006 136.708 321.79 137.022 321.516 137.283C321.255 137.531 320.941 137.721 320.575 137.851C320.209 137.982 319.824 138.047 319.419 138.047C319.001 138.047 318.609 137.975 318.243 137.832C317.89 137.701 317.583 137.512 317.322 137.263C317.061 137.002 316.852 136.688 316.695 136.323C316.538 135.957 316.46 135.545 316.46 135.088V113.413C316.46 112.551 316.349 111.767 316.127 111.062C315.918 110.343 315.565 109.735 315.068 109.239C314.585 108.729 313.951 108.337 313.167 108.063C312.383 107.776 311.417 107.632 310.267 107.632C309.104 107.632 308.124 107.769 307.327 108.044C306.543 108.318 305.91 108.703 305.426 109.2C304.956 109.696 304.616 110.304 304.407 111.022C304.198 111.741 304.094 112.538 304.094 113.413V120.312C304.878 119.306 305.753 118.502 306.72 117.901C307.687 117.3 308.764 116.947 309.953 116.843C310.319 116.817 310.672 116.862 311.012 116.98C311.351 117.098 311.652 117.267 311.913 117.489C312.174 117.712 312.383 117.986 312.54 118.313C312.71 118.626 312.808 118.966 312.834 119.332C312.86 119.711 312.815 120.07 312.697 120.41C312.579 120.749 312.41 121.05 312.187 121.311C311.965 121.572 311.691 121.781 311.364 121.938C311.051 122.095 310.711 122.18 310.345 122.193ZM316.93 146.513H316.185C315.82 146.513 315.486 146.448 315.186 146.317C314.885 146.2 314.631 146.03 314.422 145.808C314.213 145.586 314.056 145.331 313.951 145.044C313.834 144.756 313.775 144.443 313.775 144.103C313.775 143.776 313.834 143.463 313.951 143.162C314.069 142.875 314.232 142.62 314.441 142.398C314.65 142.176 314.905 141.999 315.206 141.869C315.493 141.751 315.82 141.692 316.185 141.692H319.968C320.294 141.692 320.608 141.751 320.908 141.869C321.196 141.999 321.451 142.176 321.673 142.398C321.895 142.62 322.071 142.875 322.202 143.162C322.319 143.463 322.378 143.776 322.378 144.103V152.53C322.378 152.909 322.306 153.261 322.163 153.588C322.019 153.928 321.829 154.215 321.594 154.45C321.346 154.699 321.059 154.895 320.732 155.038C320.392 155.182 320.033 155.254 319.654 155.254C319.275 155.254 318.922 155.182 318.596 155.038C318.256 154.895 317.969 154.699 317.734 154.45C317.485 154.215 317.289 153.928 317.146 153.588C317.002 153.261 316.93 152.909 316.93 152.53V146.513ZM353.048 127.465C353.048 128.248 353.12 128.967 353.264 129.62C353.407 130.26 353.636 130.816 353.95 131.286C354.276 131.756 354.707 132.122 355.243 132.384C355.779 132.632 356.439 132.756 357.222 132.756C358.307 132.756 359.221 132.508 359.966 132.011C360.724 131.502 361.338 130.855 361.808 130.071C362.292 129.287 362.644 128.425 362.867 127.484C363.089 126.544 363.213 125.629 363.239 124.741V105.555C363.239 105.097 363.317 104.686 363.474 104.32C363.631 103.954 363.84 103.647 364.101 103.399C364.362 103.138 364.669 102.942 365.022 102.811C365.388 102.667 365.78 102.595 366.198 102.595C366.603 102.595 366.989 102.661 367.354 102.791C367.72 102.922 368.034 103.118 368.295 103.379C368.569 103.628 368.785 103.935 368.942 104.3C369.099 104.666 369.177 105.084 369.177 105.555V135.225C369.177 135.643 369.099 136.029 368.942 136.381C368.785 136.721 368.569 137.015 368.295 137.263C368.034 137.512 367.727 137.701 367.374 137.832C367.034 137.975 366.668 138.047 366.276 138.047C365.885 138.047 365.512 137.975 365.159 137.832C364.82 137.701 364.519 137.512 364.258 137.263C363.997 137.015 363.788 136.721 363.631 136.381C363.474 136.029 363.396 135.643 363.396 135.225V134.363C362.899 134.859 362.35 135.323 361.749 135.754C361.148 136.172 360.515 136.538 359.849 136.852C359.182 137.152 358.496 137.387 357.791 137.557C357.098 137.727 356.399 137.812 355.694 137.812C354.505 137.812 353.388 137.636 352.343 137.283C351.311 136.93 350.403 136.388 349.619 135.656C348.848 134.925 348.234 134.004 347.776 132.893C347.332 131.77 347.11 130.443 347.11 128.915V113.1C347.11 112.264 346.953 111.512 346.64 110.846C346.326 110.167 345.889 109.598 345.327 109.141C344.765 108.684 344.092 108.331 343.308 108.083C342.537 107.834 341.688 107.71 340.761 107.71C340.042 107.71 339.33 107.782 338.624 107.926C337.919 108.057 337.253 108.246 336.626 108.494C336.011 108.729 335.456 109.017 334.96 109.357C334.476 109.683 334.084 110.042 333.784 110.434C333.941 110.683 334.097 110.97 334.254 111.297C334.411 111.61 334.548 111.95 334.666 112.316C334.783 112.682 334.875 113.054 334.94 113.433C335.019 113.812 335.058 114.178 335.058 114.53V132.599H336.743C337.135 132.599 337.481 132.664 337.782 132.795C338.095 132.926 338.363 133.109 338.585 133.344C338.807 133.566 338.977 133.834 339.095 134.147C339.212 134.448 339.271 134.774 339.271 135.127C339.271 135.48 339.212 135.813 339.095 136.127C338.977 136.427 338.807 136.695 338.585 136.93C338.363 137.152 338.095 137.329 337.782 137.459C337.481 137.59 337.135 137.655 336.743 137.655H331.648C331.256 137.655 330.903 137.59 330.59 137.459C330.289 137.329 330.028 137.152 329.806 136.93C329.584 136.695 329.414 136.427 329.296 136.127C329.178 135.813 329.12 135.48 329.12 135.127V114.217C329.12 113.59 329.009 113.021 328.787 112.512C328.564 111.989 328.212 111.578 327.728 111.277C327.362 111.055 327.219 110.787 327.297 110.474C327.389 110.16 327.591 109.755 327.905 109.259C328.636 108.122 329.472 107.135 330.413 106.299C331.367 105.463 332.392 104.771 333.49 104.222C334.587 103.66 335.75 103.249 336.978 102.987C338.206 102.713 339.467 102.576 340.761 102.576C342.368 102.576 343.909 102.785 345.386 103.203C346.875 103.608 348.181 104.209 349.305 105.006C350.442 105.803 351.35 106.776 352.029 107.926C352.709 109.076 353.048 110.395 353.048 111.885V127.465Z" fill="#FF8200"/>
</svg>
