<svg width="140" height="140" viewBox="0 0 140 140" fill="none" xmlns="http://www.w3.org/2000/svg">
<circle cx="69.9996" cy="69.9999" r="32.4637" fill="#FFB500"/>
<path d="M103.798 59.2448C103.914 59.4893 103.836 59.902 103.912 60.2042C104.224 61.4772 104.201 61.9769 104.363 63.1433C104.704 64.8479 105.25 70.0172 103.824 69.9999C103.824 69.9999 103.824 69.9999 103.824 69.9999C103.811 69.9999 103.797 69.9994 103.784 69.9984C103.527 69.9796 103.243 69.561 102.95 69.5053C102.657 69.4498 100.781 69.5163 100.659 68.9779C100.512 68.2004 100.813 66.2592 100.72 65.8328C100.667 65.5454 100.446 65.2176 100.354 64.8566C100.055 63.7024 100.036 63.0529 99.3177 62.1424C99.4444 61.6686 99.5602 61.1888 99.6642 60.7017C99.3897 60.1947 99.4089 59.2818 99.2661 58.9604C99.1514 58.699 98.9107 58.6148 98.7925 58.346C98.6591 58.0463 98.6548 57.4938 98.3731 56.9576C97.9079 56.0817 97.3703 56.156 97.0454 55.6722C96.7076 55.1726 96.4773 54.2162 95.9107 53.6569C95.8121 53.6049 95.7134 53.5535 95.6146 53.5028C95.5464 53.6288 95.4775 53.7543 95.4081 53.8791C95.1539 53.5898 95.2789 53.3119 95.0848 53.0163C94.8552 52.6689 94.5331 52.6378 94.3724 52.4128C94.2409 52.2287 94.2145 51.8638 94.0239 51.6353C93.7466 51.3032 93.5814 51.5529 93.3975 51.4054C93.3322 51.3374 92.1205 50.1499 92.0476 50.0903C91.553 49.5651 91.788 49.2546 91.4025 48.8126C90.3247 47.5899 88.8453 46.7408 87.5836 45.9655C87.019 45.6169 86.4638 45.2108 85.9391 44.8051C87.3739 44.5418 85.7677 42.6243 85.7096 44.4126C85.1905 43.8364 84.5229 43.9381 83.9437 43.5504C83.5666 43.3005 83.3819 42.9636 82.7912 42.6907C81.7319 42.2008 80.3577 42.3349 80.4172 41.1861C79.069 40.9026 78.0124 40.2099 77.3011 41.0363C76.9586 41.008 76.2112 40.2459 75.8339 40.0961C75.4946 39.9184 72.6563 39.2745 72.1746 39.263C71.6983 39.2124 70.8693 39.1639 70.4658 39.2459C70.3021 39.2777 70.1537 39.4057 69.9996 39.5245C69.6746 39.7733 69.3432 39.9779 68.7111 39.2037C67.6731 39.3484 67.3108 39.3456 66.3271 39.3176C66.1495 39.3139 66.1079 39.1426 66.0052 39.1555C65.7929 39.1825 65.4553 39.3593 65.0832 39.4349C64.4733 39.5591 64.0561 39.2681 64.2294 39.8079C63.8487 39.9763 63.4692 40.1528 63.0977 40.3359C62.9353 40.2619 62.7718 40.1891 62.6071 40.1177C62.4245 40.2848 62.244 40.4538 62.0663 40.6244C62.0995 39.7642 60.7479 40.6532 61.3623 40.9626C60.5693 41.0222 59.772 41.1144 58.9722 41.2406C58.7377 40.3247 57.3072 41.8056 57.6724 42.2077C57.5904 42.2433 57.5086 42.2793 57.427 42.3156C56.6112 42.4178 56.0506 42.9186 55.1347 43.2375C54.2161 43.5666 54.2523 43.4524 53.7765 43.239C53.5915 43.38 53.4084 43.5228 53.2273 43.6674C52.8765 45.3014 51.8803 43.4878 50.753 45.4742C49.7716 45.2997 48.7382 46.6855 48.1321 47.6049C48.06 47.7117 48.1583 47.8148 48.0708 47.9635C47.8536 48.3213 47.0075 48.9555 47.373 49.2419C47.0342 49.4142 46.6969 49.5941 46.3611 49.7816C46.2329 50.0599 46.1093 50.3393 45.9906 50.6192C46.1031 50.7083 46.2157 50.7974 46.3283 50.8865C45.5782 51.0308 45.1686 51.8903 44.8141 52.1937C44.7424 52.2542 44.5687 52.1554 44.3621 52.3591C44.1186 52.5969 43.8257 53.1461 43.5633 53.4504C43.667 53.6979 43.7734 53.9434 43.8824 54.1865C43.6274 54.8402 43.0074 54.7676 42.7656 55.1117C42.716 55.1705 42.1276 56.4003 42.1133 56.4752C41.9483 57.0627 42.4371 57.1029 41.686 58.637C41.5552 58.9117 41.3072 59.0813 41.2041 59.3396C41.0114 59.7937 40.9307 61.315 41.2519 61.5188C40.647 61.9476 40.4513 63.522 40.2439 63.9498C40.1779 64.0785 39.89 64.0526 39.7516 64.4691C39.6363 64.8086 39.7221 65.7386 39.6331 66.1732C39.5344 66.636 39.2804 66.7836 39.2426 66.993C39.2077 67.1921 39.3838 67.3934 39.362 67.6656C39.2913 68.5182 38.9576 69.278 38.9511 69.9684C38.9509 69.9789 38.9509 69.9894 38.9509 69.9999C38.9546 70.9842 39.5604 71.8142 39.8775 72.5824C39.8573 72.784 39.7531 72.9896 39.774 73.1998C40.0156 75.7915 40.606 78.682 41.4624 81.1735C41.8043 82.3308 42.5336 85.421 43.3068 84.0855C43.6634 84.3589 44.801 87.2205 45.1775 87.6902C45.5113 88.1703 45.9765 88.3971 46.2605 88.7511C47.1244 89.813 47.645 90.666 48.9821 91.6936C49.3293 91.9571 49.8542 92.0653 50.0394 92.2354C50.2621 92.4413 50.3344 92.859 50.6294 93.1286C51.3255 93.7783 52.8008 94.7599 53.5429 95.2843C53.6771 95.3823 53.5992 95.6108 53.7633 95.8011C54.4019 96.5468 55.352 97.0348 55.5456 96.289C56.3809 97.2327 57.5575 97.3633 58.5693 97.755C60.6893 98.6589 64.7877 99.8248 66.8329 99.6542C68.1096 99.5706 68.0799 99.2576 69.9183 99.5761C69.9454 99.5804 69.9725 99.5848 69.9996 99.5892C70.385 99.6515 70.775 99.7253 71.2436 99.7778C72.4127 99.9113 73.5925 100.408 74.3771 99.5381C75.704 99.5366 76.6815 99.1792 77.7928 99.5479C77.867 99.3703 77.9392 99.1924 78.0094 99.0144C78.1638 98.968 78.3176 98.9203 78.4708 98.8715C78.5599 98.9974 78.6497 99.123 78.7402 99.2482C79.8847 98.9538 81.0578 97.8743 81.9393 97.4891C83.4668 96.919 87.2128 94.9641 88.5408 94.0912C89.265 93.6593 89.0927 93.3885 89.8754 93.5724C89.9911 93.4163 90.105 93.2594 90.2171 93.1018C90.213 92.9184 90.2073 92.7356 90.1999 92.5533C90.9889 91.8429 92.0387 91.098 92.7184 90.3312C93.9847 88.9454 95.2898 86.4714 96.4025 84.9786C96.6889 84.6063 97.2218 84.2257 97.4272 83.8098C97.7238 83.2032 97.3612 82.8529 97.6924 82.0839C98.2801 80.7787 99.6626 78.3651 99.9114 76.9794C99.9922 76.5741 99.8564 76.3471 99.894 76.0666C100.045 74.8913 100.198 73.9213 100.027 72.7719C100.587 71.6062 101.16 71.7255 101.781 71.3652C102.25 71.0957 103.317 70.1638 103.711 70.0167C103.99 69.9177 104.348 70.2879 104.656 70.1506C104.882 71.8199 104.556 72.5286 103.99 73.8056C103.736 76.2556 103.216 78.6811 102.438 81.0229C102.207 81.1816 101.975 81.3361 101.742 81.4866C101.742 81.4865 101.742 81.4864 101.741 81.4862C101.24 82.2942 101.488 82.8141 101.38 83.3231C100.596 88.3973 93.6706 95.8507 88.9718 98.4371C88.0347 99.1084 84.8069 101.112 83.9454 101.141C83.7287 101.16 83.5729 100.946 83.3699 101.022C81.6571 101.928 79.8532 102.692 77.9834 103.297C75.3488 103.656 72.6919 104.023 69.9996 104.107C68.598 104.151 67.2026 104.119 65.8203 103.972C54.8699 102.889 44.6928 96.0788 39.6037 86.4061C38.6022 84.5604 37.3864 82.146 36.9139 80.1229C36.7162 79.2808 37.0173 78.8333 36.4573 77.8157C36.5636 77.7788 36.6698 77.7421 36.7762 77.7055C36.4289 76.7843 36.0578 76.2183 35.8644 75.1254C35.6828 74.2158 35.4591 71.7496 35.5033 70.9327C35.5148 70.506 35.7266 70.6611 35.7212 70.2655C35.7202 70.1868 35.7155 70.0976 35.7084 69.9999C35.6494 69.2572 35.4691 68.0239 35.5406 67.1903C35.6015 66.3415 36.0247 64.9487 36.1039 64.3037C36.3618 61.9779 36.705 59.3649 37.7441 57.0462C38.0273 56.4064 38.6435 55.6992 38.7286 55.5024C38.8931 55.1128 38.7121 54.8849 38.8088 54.6114C39.2913 53.2147 40.7265 51.4047 41.5573 50.259C44.2201 46.4703 47.7756 42.9396 51.7431 40.5503C54.1987 38.9677 58.7018 37.0309 61.3784 36.6246C61.9485 36.5245 61.8671 36.842 62.3351 36.7323C62.8542 36.6138 63.1012 36.3665 63.3429 36.3025C64.8608 35.8633 68.1638 35.3464 69.9996 35.5041C70.1859 35.5161 70.3562 35.5326 70.5074 35.5531C70.8208 35.5959 71.0398 35.8287 71.2248 35.8343C71.3186 35.8376 71.536 35.6911 71.8334 35.6909C74.4613 35.7069 76.3672 36.1009 78.8391 36.7945C83.5647 38.1065 88.8858 40.5672 92.6689 44.1449C93.4966 44.917 93.7264 45.7821 93.84 45.8862C94.0888 46.1215 94.46 46.0631 94.9972 46.5235C96.8023 48.0537 98.4383 50.7948 99.6665 52.6411C100.29 53.5458 101.329 54.7276 101.853 55.7018C102.294 56.473 102.886 58.4662 103.156 58.7852C103.327 58.9777 103.671 58.9816 103.798 59.2448ZM82.2621 42.1742C82.5984 41.7474 81.0984 41.5875 81.4917 42.0535C81.5786 42.1554 82.1751 42.2818 82.2621 42.1742ZM39.4447 76.8301C39.5867 76.7847 39.7287 76.7394 39.8708 76.6944C39.7693 76.5214 39.669 76.3455 39.5706 76.1702C39.5043 76.2928 39.4391 76.4181 39.3744 76.5431C39.3974 76.639 39.4209 76.7347 39.4447 76.8301Z" fill="#FFB500"/>
<line x1="121.739" y1="67.9999" x2="140" y2="67.9999" stroke="#FFB500" stroke-width="4.00017"/>
<line x1="107.999" y1="105.171" x2="120.911" y2="118.083" stroke="#FFB500" stroke-width="4.00017"/>
<line x1="68.9564" y1="121.739" x2="68.9564" y2="140" stroke="#FFB500" stroke-width="4.00017"/>
<line x1="34.8291" y1="107.999" x2="21.9167" y2="120.912" stroke="#FFB500" stroke-width="4.00017"/>
<line x1="18.261" y1="72.0001" x2="0.000131607" y2="72.0001" stroke="#FFB500" stroke-width="4.00017"/>
<line x1="32.0005" y1="34.8293" x2="19.0881" y2="21.9169" stroke="#FFB500" stroke-width="4.00017"/>
<line x1="70.8" y1="18.2607" x2="70.8" y2="-0.000112534" stroke="#FFB500" stroke-width="4.00017"/>
<line x1="105.17" y1="32.0008" x2="118.083" y2="19.0884" stroke="#FFB500" stroke-width="4.00017"/>
</svg>
