<svg width="54" height="74" viewBox="0 0 54 74" fill="none" xmlns="http://www.w3.org/2000/svg">
<g clip-path="url(#clip0_403_718)">
<path d="M19.4053 47.4555L11.8719 70.8222C11.614 72.4368 12.8546 73.9649 14.5504 73.9649C14.7826 73.9649 15.4725 73.9349 16.1445 73.445C16.6329 73.0887 16.8933 72.6493 17.0265 72.3503L22.7181 54.6703C22.7463 54.5829 22.7318 54.4878 22.6789 54.4133C21.2197 52.3259 20.219 49.9712 19.7297 47.4735C19.6964 47.3031 19.4582 47.2894 19.4053 47.4547V47.4555Z" fill="url(#paint0_linear_403_718)"/>
<path d="M37.8736 27.5438C33.5071 27.4993 29.5316 29.1781 26.5816 31.9431C26.4168 32.0973 26.5244 32.3739 26.7498 32.3739H29.3011C29.4377 32.3739 29.5487 32.4853 29.5487 32.6223V35.9929C29.5487 36.2147 29.8151 36.3243 29.9714 36.1676C31.9437 34.1804 34.6734 32.9495 37.69 32.9495C43.7053 32.9495 48.5824 37.8413 48.5824 43.8765C48.5824 43.8765 48.5824 43.8774 48.5824 43.8783C48.5713 43.8783 48.5662 43.8774 48.5688 43.8765C48.5688 49.9092 43.6951 54.8001 37.6823 54.8036C37.661 54.8036 37.6397 54.8036 37.6175 54.8036C37.5585 54.8036 37.5005 54.8027 37.4416 54.801C37.3869 54.8001 37.3331 54.7984 37.2785 54.7959C37.2563 54.7959 37.2349 54.7941 37.2127 54.7933C32.5679 54.5929 28.6778 51.4742 27.3168 47.2188L27.3099 47.2402C26.9684 46.1807 26.7831 45.0509 26.7831 43.8774C26.7831 43.0149 26.883 42.1763 27.0717 41.372C27.1981 40.9831 27.3236 40.5942 27.45 40.2054C27.4986 40.0555 27.5234 39.8979 27.5234 39.7403V34.6566C27.5234 34.5187 27.4124 34.4074 27.2749 34.4074H2.78521C1.2466 34.4074 0 35.6588 0 37.2014C0 37.3873 0.0187844 38.3775 0.816267 39.1775C1.61375 39.9775 2.60078 39.9964 2.78607 39.9964H21.8616C21.8437 40.0717 21.8275 40.1471 21.8095 40.2234C21.7916 40.3022 21.772 40.381 21.7557 40.4606C21.7387 40.5394 21.7241 40.6191 21.7088 40.6979C21.6934 40.7775 21.6763 40.8572 21.6618 40.9369C21.6473 41.0174 21.6345 41.0979 21.6217 41.1784C21.608 41.2581 21.5935 41.3377 21.5816 41.4182C21.5688 41.5005 21.5594 41.5827 21.5474 41.6658C21.5363 41.7454 21.5244 41.8243 21.515 41.9048C21.5047 41.993 21.4962 42.0812 21.4868 42.1694C21.4791 42.2448 21.4697 42.3193 21.4629 42.3947C21.4543 42.4906 21.4484 42.5866 21.4407 42.6834C21.4356 42.7519 21.4296 42.8204 21.4253 42.8898C21.4185 42.9994 21.4151 43.1091 21.4099 43.2187C21.4074 43.2752 21.404 43.3318 21.4023 43.3883C21.3971 43.5553 21.3946 43.7232 21.3946 43.8911C21.3946 44.0162 21.3963 44.1412 21.3997 44.2663C21.3997 44.2971 21.4014 44.3288 21.4023 44.3596C21.4057 44.483 21.4099 44.6072 21.4159 44.7297C21.4159 44.7348 21.4159 44.74 21.4168 44.7459C21.4227 44.8642 21.4304 44.9815 21.439 45.0997C21.4415 45.1323 21.4441 45.1648 21.4467 45.1965C21.456 45.3164 21.4663 45.4363 21.4782 45.5562C21.4791 45.5682 21.4808 45.5802 21.4825 45.5922C21.4936 45.701 21.5064 45.8098 21.5201 45.9186C21.5244 45.9537 21.5286 45.9888 21.5337 46.0239C21.5491 46.1396 21.5645 46.2543 21.5816 46.3691C21.585 46.3897 21.5884 46.4111 21.5918 46.4316C21.6072 46.5293 21.6234 46.6261 21.6396 46.7229C21.6465 46.7623 21.6533 46.8017 21.6601 46.8402C21.6798 46.9473 21.7002 47.0543 21.7216 47.1614C21.7284 47.194 21.7353 47.2257 21.7421 47.2582C21.76 47.343 21.7779 47.4278 21.7976 47.5117C21.8078 47.5563 21.8172 47.6 21.8275 47.6437C21.8497 47.7387 21.8727 47.833 21.8966 47.9272C21.9086 47.9751 21.9214 48.0223 21.9342 48.0702C21.953 48.1422 21.9726 48.2133 21.9923 48.2852C22.0059 48.3349 22.0196 48.3837 22.0341 48.4334C22.0571 48.5131 22.0811 48.5927 22.105 48.6715C22.1246 48.7366 22.1451 48.8009 22.1656 48.8651C22.1844 48.9242 22.2032 48.9842 22.2228 49.0433C22.2407 49.0981 22.2587 49.152 22.2774 49.206C22.2988 49.2694 22.321 49.3319 22.344 49.3944C22.3731 49.4767 22.4029 49.5589 22.4337 49.6403C22.4516 49.6882 22.4695 49.7362 22.4883 49.7842C22.5114 49.8433 22.5336 49.9024 22.5575 49.9606C22.5754 50.006 22.5942 50.0514 22.613 50.0968C22.6531 50.1962 22.695 50.2947 22.7377 50.3923C22.7547 50.4309 22.771 50.4703 22.788 50.5088C22.8154 50.5713 22.8435 50.6339 22.8717 50.6955C22.882 50.7187 22.8931 50.7418 22.9042 50.7658C22.9562 50.878 23.0092 50.9902 23.0638 51.1007C23.0835 51.1392 23.1022 51.1786 23.1219 51.2172C23.1543 51.2814 23.1868 51.3457 23.2201 51.4099C23.2252 51.4202 23.2312 51.4305 23.2363 51.4416C23.2901 51.5444 23.3439 51.6472 23.4002 51.7491C23.4301 51.8022 23.46 51.8562 23.4899 51.9101C23.5257 51.9744 23.5625 52.0386 23.6 52.1029C26.2 56.5843 30.8636 59.7125 36.2855 60.1784C36.2863 60.1784 36.2872 60.1784 36.288 60.1784C36.4375 60.1913 36.5886 60.2024 36.7389 60.211C36.7474 60.211 36.7559 60.2118 36.7645 60.2127C36.9139 60.2212 37.0633 60.2281 37.2136 60.2324C37.2204 60.2324 37.2272 60.2324 37.2341 60.2324C37.3869 60.2367 37.5398 60.2392 37.6934 60.2392C37.696 60.2392 37.6986 60.2392 37.7011 60.2392C37.7037 60.2392 37.7054 60.2392 37.708 60.2392C46.5178 60.2392 53.6952 53.2258 53.994 44.4607C54.3082 35.2485 47.0651 27.6389 37.8779 27.5447L37.8736 27.5438Z" fill="url(#paint1_linear_403_718)"/>
<path d="M47.0004 3.27802C47.0004 5.08877 45.5497 6.55604 43.7592 6.55604C41.9687 6.55604 40.5181 5.08877 40.5181 3.27802C40.5181 1.46727 41.973 0 43.7592 0C45.5455 0 47.0004 1.46727 47.0004 3.27802Z" fill="#FFB500"/>
<path d="M34.9619 6.96554C34.9619 4.08496 37.2698 1.75 40.1182 1.75C42.9666 1.75 45.2745 4.08496 45.2745 6.96554C45.2745 9.84612 42.9658 12.1811 40.1182 12.1811C37.2707 12.1811 34.9619 9.84612 34.9619 6.96554Z" fill="#E4002B"/>
<path d="M45.2172 6.2065C44.8885 3.93322 43.1125 2.13703 40.8652 1.80469C40.6441 2.24924 40.5186 2.74775 40.5186 3.27539C40.5186 5.08613 41.9692 6.55341 43.7597 6.55341C44.2814 6.55341 44.7783 6.42664 45.2138 6.2065" fill="#FF8200"/>
<path d="M13.6648 22.4191C13.6648 22.4191 13.6614 22.4122 13.6579 22.4079C12.933 21.5582 12.3823 20.586 12.0322 19.5419C11.9503 19.3072 11.8 19.3577 11.6215 19.4802C11.6181 19.4802 11.6147 19.4837 11.6104 19.4871C10.8138 20.0258 9.79177 20.2023 8.81242 19.8811C7.11158 19.3209 6.17919 17.4742 6.73248 15.7499L7.45824 13.4878H10.8454C11.9033 13.4878 12.7606 12.6201 12.7606 11.5503C12.7606 10.4804 11.9033 9.61276 10.8454 9.61276H8.70142L9.92326 5.81396C9.97364 5.65892 10.0232 5.51759 10.0624 5.34371C10.2802 4.63877 9.86947 3.47557 8.66898 3.31283C6.77517 3.05244 6.30727 4.46232 6.04941 5.34371L4.67729 9.61533H2.04748C0.989576 9.61533 0.132324 10.483 0.132324 11.5528C0.132324 12.6227 0.989576 13.4904 2.04748 13.4904H3.43411L3.09087 14.5568C1.88269 18.3119 3.91653 22.3454 7.629 23.5668C9.72261 24.2538 11.9025 23.9026 13.6246 22.7899C13.7536 22.7034 13.7928 22.5767 13.6673 22.4285L13.6639 22.4173L13.6648 22.4191Z" fill="#151F6D"/>
<path d="M19.2857 23.4892L20.2753 20.4133C20.3436 20.2034 20.2574 20.0415 19.9679 20.0373C19.9176 20.0373 19.868 20.0304 19.8177 20.0261C19.7246 20.015 19.6358 20.0047 19.5427 19.9867C17.7847 19.651 16.6269 17.9379 16.9556 16.1597C17.2878 14.3815 18.9818 13.2106 20.7398 13.5429C21.7798 13.7416 22.7805 13.0478 22.9769 11.996C23.1732 10.9441 22.4876 9.93253 21.4476 9.73381C21.0369 9.65416 20.6254 9.61818 20.2181 9.61133H20.0644C20.0183 9.61133 19.9679 9.61133 19.9218 9.61475C19.8399 9.61475 19.7613 9.61818 19.6785 9.62589H19.6461C15.9617 9.87172 13.0459 12.969 13.0459 16.7601C13.0459 20.2368 15.5007 23.132 18.7521 23.7753C18.9877 23.8189 19.1807 23.8044 19.2806 23.4866L19.284 23.49L19.2857 23.4892Z" fill="#151F6D"/>
<path d="M27.7405 19.3398C27.7294 19.369 27.7225 19.3981 27.7114 19.4306L27.7405 19.3398Z" fill="#27255F"/>
<path d="M32.6141 9.95974C28.9016 8.7383 24.9133 10.7949 23.706 14.55L19.2678 28.367C18.9425 29.3863 19.1568 30.5863 20.4469 30.9658C21.3119 31.2185 22.4833 30.9118 22.97 29.3829L27.351 15.7466C27.9052 14.0266 29.7307 13.0827 31.4349 13.6429C33.1358 14.2031 34.0682 16.0498 33.5149 17.7741C32.9607 19.494 31.1352 20.4379 29.431 19.8777C28.9597 19.7227 28.5515 19.4692 28.2126 19.148H28.2091C27.9837 18.9527 27.8446 19.0649 27.7447 19.3433L27.7165 19.434L26.7662 22.3943C26.691 22.6547 26.6944 22.8354 26.9267 22.9759C27.3374 23.2106 27.7771 23.4127 28.245 23.5652C31.9575 24.7866 35.9458 22.7301 37.1531 18.9749C38.3604 15.2198 36.3274 11.1863 32.6149 9.96488V9.96145L32.6141 9.95974Z" fill="#151F6D"/>
<path d="M22.2372 73.5821C22.2252 73.6386 22.2047 73.6909 22.1748 73.738C22.1449 73.7851 22.1091 73.8245 22.0673 73.857C22.0254 73.8896 21.9793 73.9144 21.9289 73.9324C21.8777 73.9496 21.8256 73.959 21.7727 73.959C21.7197 73.959 21.6711 73.9496 21.6292 73.9316C21.5865 73.9136 21.5515 73.8879 21.5242 73.8553C21.4969 73.8228 21.4781 73.7834 21.4679 73.7371C21.4576 73.6909 21.4585 73.6395 21.4704 73.583L21.8179 71.9504L20.9556 69.2668C20.9419 69.2197 20.9385 69.1726 20.9453 69.1237C20.9521 69.0749 20.9675 69.0287 20.9931 68.9841C21.0179 68.9396 21.0503 68.8993 21.0905 68.8625C21.1306 68.8257 21.1767 68.7957 21.2279 68.7726C21.28 68.7511 21.3304 68.7374 21.3808 68.734C21.4311 68.7306 21.4772 68.734 21.5199 68.7477C21.5626 68.7614 21.5993 68.7828 21.6309 68.8128C21.6625 68.8428 21.6847 68.8813 21.6984 68.9285L22.3635 71.1786L23.9884 68.9285C24.02 68.8813 24.0575 68.8428 24.1019 68.8128C24.1463 68.7828 24.1924 68.7614 24.2411 68.7477C24.2898 68.734 24.3376 68.7297 24.3863 68.734C24.4349 68.7383 24.4802 68.7511 24.5237 68.7726C24.5656 68.7957 24.5989 68.8265 24.6236 68.8625C24.6484 68.8993 24.6646 68.9396 24.6715 68.9841C24.6783 69.0287 24.6749 69.0749 24.6612 69.1246C24.6475 69.1743 24.6245 69.2214 24.5912 69.2659L22.5864 71.9495L22.2389 73.5821H22.2372Z" fill="#E4002B"/>
<path d="M25.545 71.579L25.1872 73.2672H27.11C27.1604 73.2672 27.2031 73.2758 27.2398 73.2921C27.2765 73.3092 27.3064 73.3315 27.3286 73.3615C27.3508 73.3906 27.3662 73.4248 27.3739 73.4634C27.3816 73.5019 27.3799 73.5439 27.3705 73.5885C27.3602 73.6321 27.344 73.6733 27.3201 73.7127C27.297 73.7521 27.268 73.7863 27.2339 73.8154C27.1997 73.8446 27.1604 73.8677 27.116 73.8848C27.0716 73.9011 27.0247 73.9097 26.9751 73.9097H24.68C24.6254 73.9097 24.5759 73.8994 24.5323 73.878C24.4888 73.8574 24.4529 73.8283 24.4247 73.7923C24.3966 73.7563 24.3769 73.7152 24.3658 73.6681C24.3547 73.621 24.3556 73.5713 24.3667 73.5174L25.2871 69.1729C25.2974 69.1215 25.3178 69.0719 25.3494 69.0247C25.381 68.9776 25.4186 68.9365 25.4621 68.9006C25.5057 68.8646 25.5535 68.8363 25.6056 68.8149C25.6577 68.7943 25.7106 68.7832 25.7644 68.7832H28.0493C28.0996 68.7832 28.1423 68.7918 28.1782 68.8098C28.2141 68.8269 28.2431 68.8509 28.2653 68.8808C28.2875 68.9108 28.3029 68.9459 28.3105 68.9853C28.3182 69.0247 28.3165 69.0659 28.3071 69.1095C28.2969 69.1532 28.2807 69.1943 28.2568 69.2337C28.2337 69.2731 28.2047 69.3074 28.1688 69.3382C28.1338 69.3682 28.0945 69.3922 28.0501 69.4093C28.0057 69.4273 27.9588 69.4359 27.9092 69.4359H25.9966L25.6816 70.9229H27.4618C27.5122 70.9229 27.5549 70.9314 27.5916 70.9494C27.6283 70.9665 27.6582 70.9905 27.6804 71.0197C27.7026 71.0488 27.718 71.083 27.7257 71.1224C27.7333 71.1618 27.7316 71.2038 27.7222 71.2492C27.712 71.2929 27.6958 71.3349 27.6719 71.3743C27.6488 71.4145 27.6198 71.4496 27.5848 71.4796C27.5498 71.5096 27.5105 71.5336 27.4661 71.5507C27.4217 71.5687 27.3747 71.5773 27.3252 71.5773H25.545V71.579Z" fill="#E4002B"/>
<path d="M31.4757 73.4628C31.4809 73.515 31.4749 73.5664 31.457 73.6187C31.4399 73.6709 31.4134 73.7189 31.3793 73.7643C31.3451 73.8097 31.3033 73.8491 31.2546 73.8833C31.2051 73.9176 31.1521 73.9424 31.0958 73.957C31.0394 73.9724 30.9848 73.9767 30.9336 73.9724C30.8823 73.9681 30.8362 73.9536 30.7961 73.9296C30.756 73.9065 30.7235 73.8739 30.697 73.8328C30.6714 73.7917 30.6561 73.7429 30.6509 73.6863L30.5536 72.5223H28.9159L28.3387 73.6915C28.3106 73.748 28.2756 73.7968 28.2337 73.8371C28.1919 73.8774 28.1466 73.9082 28.0963 73.9313C28.0459 73.9536 27.9946 73.9673 27.9409 73.9724C27.8879 73.9776 27.8358 73.9724 27.7855 73.957C27.7351 73.9416 27.6941 73.9176 27.6608 73.8842C27.6275 73.8508 27.6036 73.8123 27.5882 73.7677C27.5729 73.7232 27.5686 73.6761 27.5729 73.6247C27.578 73.5733 27.5933 73.5219 27.6207 73.4705L29.8483 69.1817C29.8902 69.0995 29.9329 69.0327 29.9773 68.9813C30.0217 68.9291 30.0669 68.8897 30.1147 68.8605C30.1625 68.8323 30.2121 68.8126 30.2633 68.8014C30.3145 68.7903 30.3692 68.7852 30.4255 68.7852H30.6458C30.6987 68.7852 30.75 68.7894 30.7995 68.798C30.849 68.8066 30.8934 68.8246 30.9336 68.852C30.9737 68.8794 31.007 68.9205 31.0334 68.9736C31.0599 69.0276 31.0778 69.0978 31.0855 69.1869L31.4757 73.4636V73.4628ZM30.3709 69.8113L30.3658 69.5903L30.2787 69.8113L29.2686 71.8302H30.5263L30.3709 69.8113Z" fill="#E4002B"/>
<path d="M34.7713 73.6986C34.7627 73.6635 34.7551 73.6215 34.7474 73.5735C34.7397 73.5247 34.7337 73.475 34.7286 73.4245C34.7235 73.3731 34.7192 73.3225 34.7158 73.2729C34.7124 73.2223 34.7107 73.1795 34.7107 73.1427C34.7072 73.0861 34.7055 73.015 34.7047 72.9311C34.7038 72.8463 34.703 72.7641 34.7013 72.6844C34.6996 72.5928 34.6978 72.496 34.6961 72.3958C34.6927 72.3187 34.685 72.2424 34.6722 72.1662C34.6594 72.09 34.6347 72.0223 34.5971 71.9615C34.5595 71.9015 34.5049 71.8527 34.4332 71.815C34.3614 71.7773 34.2658 71.7585 34.1454 71.7585H33.1225L32.7323 73.5966C32.7187 73.6617 32.6973 73.7183 32.6674 73.7662C32.6375 73.8142 32.6017 73.8536 32.5615 73.8844C32.5206 73.9153 32.4753 73.9375 32.4249 73.9521C32.3746 73.9667 32.3242 73.9735 32.2721 73.9735C32.22 73.9735 32.1705 73.9658 32.1269 73.9513C32.0834 73.9358 32.0475 73.9136 32.0194 73.8836C31.9912 73.8536 31.9715 73.8142 31.9622 73.7671C31.9519 73.7191 31.9536 73.6635 31.9673 73.5975L32.8971 69.2111C32.9091 69.1546 32.9295 69.0997 32.9594 69.0484C32.9893 68.9961 33.026 68.9516 33.0679 68.913C33.1106 68.8745 33.1567 68.8436 33.207 68.8214C33.2574 68.7991 33.3087 68.7871 33.3624 68.7871H35.1026C35.3246 68.7871 35.515 68.8188 35.6755 68.8822C35.8352 68.9456 35.9624 69.0398 36.0571 69.164C36.1511 69.2882 36.21 69.4424 36.233 69.6257C36.2561 69.809 36.2433 70.0205 36.1929 70.2612C36.1664 70.3846 36.122 70.5079 36.0606 70.6313C35.9991 70.7537 35.924 70.8702 35.8352 70.979C35.7472 71.0878 35.6465 71.1863 35.5338 71.2737C35.421 71.3619 35.3015 71.433 35.1751 71.4878C35.2315 71.5383 35.2802 71.5966 35.3203 71.6643C35.3604 71.7319 35.3929 71.8013 35.4176 71.8724C35.4424 71.9435 35.4612 72.0129 35.4723 72.0805C35.4842 72.1482 35.4902 72.2065 35.4919 72.2553C35.4936 72.3606 35.4945 72.4609 35.4945 72.5559V72.8043C35.4945 72.8883 35.4945 72.9534 35.497 72.9996C35.497 73.0536 35.5004 73.1058 35.5081 73.1572C35.5158 73.2095 35.5226 73.2592 35.5295 73.308C35.5363 73.3568 35.5406 73.4022 35.5431 73.445C35.5457 73.4879 35.5431 73.5256 35.5372 73.559C35.5269 73.6078 35.509 73.6549 35.4825 73.7003C35.4561 73.7465 35.4236 73.7868 35.3852 73.8228C35.3468 73.8587 35.3032 73.8879 35.2554 73.9093C35.2076 73.9307 35.1555 73.9418 35.1 73.9418C35.065 73.9418 35.03 73.9358 34.995 73.9247C34.96 73.9127 34.9275 73.8964 34.8976 73.8759C34.8678 73.8553 34.8413 73.8296 34.8191 73.7996C34.7969 73.7697 34.7807 73.7363 34.7704 73.6994L34.7713 73.6986ZM34.3256 71.1084C34.4425 71.1084 34.5587 71.0938 34.6739 71.0655C34.7901 71.0373 34.8968 70.9902 34.995 70.9251C35.0932 70.86 35.1794 70.7735 35.2528 70.6655C35.3263 70.5576 35.3792 70.424 35.4125 70.2655C35.4356 70.155 35.4475 70.0497 35.4484 69.9494C35.4484 69.8492 35.4313 69.761 35.3954 69.6848C35.3596 69.6085 35.3024 69.5486 35.223 69.504C35.1435 69.4595 35.0368 69.4372 34.9019 69.4372H33.6118L33.2591 71.1075H34.3239L34.3256 71.1084Z" fill="#E4002B"/>
<path d="M37.146 72.449C37.1229 72.5895 37.1187 72.7145 37.1349 72.825C37.1511 72.9355 37.1895 73.028 37.251 73.1034C37.3125 73.1788 37.3996 73.2362 37.5114 73.2764C37.6233 73.3167 37.7633 73.3364 37.9315 73.3364C38.0664 73.3364 38.1971 73.321 38.3243 73.291C38.4506 73.261 38.5668 73.2147 38.6709 73.1531C38.7751 73.0914 38.863 73.0126 38.9356 72.9158C39.0082 72.8199 39.0586 72.7051 39.0868 72.5706C39.1098 72.4601 39.1132 72.3676 39.097 72.2922C39.0799 72.2169 39.05 72.1526 39.0056 72.0995C38.9612 72.0456 38.9066 71.9993 38.8408 71.959C38.7751 71.9188 38.7034 71.8785 38.6274 71.8383L37.5276 71.2764C37.2741 71.1445 37.1024 70.98 37.0111 70.7839C36.9206 70.5877 36.9052 70.3462 36.9675 70.0601C37.0128 69.8442 37.0913 69.6515 37.2049 69.481C37.3185 69.3106 37.4576 69.1667 37.6224 69.0485C37.7872 68.9303 37.9742 68.8403 38.1834 68.7778C38.3926 68.7153 38.6163 68.6836 38.8545 68.6836C39.0927 68.6836 39.2908 68.7076 39.4744 68.7564C39.658 68.8052 39.8117 68.878 39.9355 68.9757C40.0593 69.0733 40.1515 69.195 40.2121 69.3406C40.2719 69.4862 40.2941 69.6566 40.277 69.8519C40.2719 69.9059 40.2574 69.9564 40.2335 70.0053C40.2095 70.0541 40.178 70.0978 40.1395 70.1372C40.1011 70.1766 40.0576 70.2091 40.008 70.2348C39.9585 70.2605 39.9064 70.2768 39.8518 70.2836C39.7954 70.2922 39.7434 70.2896 39.6964 70.2759C39.6494 70.2622 39.6102 70.2417 39.5777 70.2134C39.5453 70.1851 39.5196 70.1492 39.5017 70.1072C39.4829 70.0644 39.4752 70.0164 39.477 69.9633C39.4787 69.8699 39.4659 69.7843 39.4385 69.7072C39.4112 69.6301 39.3685 69.5641 39.3113 69.5093C39.2541 69.4545 39.1824 69.4117 39.0961 69.3817C39.0099 69.3517 38.9117 69.3363 38.7999 69.3363C38.6095 69.3363 38.4524 69.3577 38.3285 69.4005C38.2047 69.4434 38.1031 69.499 38.0263 69.5676C37.9486 69.6361 37.8905 69.714 37.8521 69.8005C37.8137 69.8879 37.7855 69.9744 37.7667 70.0618C37.7496 70.1406 37.7462 70.21 37.7539 70.2708C37.7625 70.3316 37.7812 70.3873 37.8111 70.4361C37.841 70.4849 37.8811 70.5303 37.9324 70.5706C37.9836 70.6108 38.0434 70.6485 38.1134 70.6836L39.0586 71.1573C39.2148 71.2361 39.354 71.3201 39.4735 71.4109C39.5939 71.5008 39.6904 71.601 39.7647 71.7089C39.839 71.8177 39.8885 71.9376 39.9133 72.0687C39.938 72.1997 39.9338 72.3453 39.9005 72.5038C39.8467 72.7531 39.7596 72.9706 39.6366 73.1574C39.5145 73.3441 39.3617 73.4991 39.1807 73.6242C38.9988 73.7484 38.7913 73.8426 38.5565 73.9051C38.3226 73.9677 38.0673 73.9993 37.7906 73.9993C37.514 73.9993 37.2561 73.9668 37.0572 73.9017C36.8582 73.8366 36.7011 73.7398 36.5859 73.6122C36.4706 73.4846 36.3972 73.3261 36.3647 73.1385C36.3323 72.9501 36.3383 72.7334 36.3835 72.4875C36.3938 72.4344 36.4117 72.3839 36.4382 72.3368C36.4646 72.2897 36.4979 72.2486 36.5372 72.2126C36.5765 72.1766 36.6209 72.1475 36.6695 72.1261C36.7191 72.1047 36.7711 72.0918 36.8258 72.0884C36.8856 72.0867 36.9376 72.0944 36.9812 72.1124C37.0247 72.1304 37.0597 72.1552 37.0871 72.1877C37.1144 72.2203 37.1332 72.2588 37.1434 72.3042C37.1537 72.3496 37.1545 72.3976 37.146 72.4499V72.449Z" fill="#E4002B"/>
</g>
<defs>
<linearGradient id="paint0_linear_403_718" x1="31.5408" y1="17.9987" x2="19.4004" y2="55.8916" gradientUnits="userSpaceOnUse">
<stop offset="0.1" stop-color="#FFC10E"/>
<stop offset="0.52" stop-color="#F58A1F"/>
<stop offset="1" stop-color="#EC1C24"/>
</linearGradient>
<linearGradient id="paint1_linear_403_718" x1="34.2405" y1="18.8635" x2="22.1001" y2="56.7564" gradientUnits="userSpaceOnUse">
<stop offset="0.1" stop-color="#FFB500"/>
<stop offset="0.52" stop-color="#FF8200"/>
<stop offset="1" stop-color="#E4002B"/>
</linearGradient>
<clipPath id="clip0_403_718">
<rect width="54" height="74" fill="white"/>
</clipPath>
</defs>
</svg>
