<svg width="172" height="69" viewBox="0 0 172 69" fill="none" xmlns="http://www.w3.org/2000/svg">
<mask id="path-1-outside-1_2004_212" maskUnits="userSpaceOnUse" x="-1.158" y="-5.42107" width="173.316" height="77.1039" fill="black">
<rect fill="white" x="-1.158" y="-5.42107" width="173.316" height="77.1039"/>
<path d="M7.21948 56.4689L4.21063 35.9037L9.77104 35.0594L10.5354 42.3471C10.5784 42.6475 10.6172 43.1147 10.6518 43.7488C10.7117 44.3791 10.7691 45.112 10.8239 45.9477C10.9047 46.7538 10.9591 47.6022 10.9872 48.4931L11.1395 48.4699C11.3374 47.6471 11.5346 46.8499 11.7311 46.0784C11.9276 45.3069 12.1232 44.574 12.3178 43.8795C12.513 43.1593 12.6943 42.4924 12.8615 41.8788L15.1029 34.2498L18.5687 33.7236L20.4024 40.7339C20.5652 41.2974 20.714 41.9141 20.8488 42.5842C21.0097 43.2247 21.1696 43.9037 21.3285 44.6212C21.4874 45.3387 21.6457 46.0819 21.8033 46.8508L21.9176 46.8334C22.0171 45.8977 22.115 45.0261 22.2113 44.2186C22.3075 43.4112 22.3889 42.6956 22.4552 42.0717C22.5469 41.444 22.6107 40.9228 22.6465 40.5082L24.7777 25.2236L30.262 24.3909L25.3479 53.7164L19.7494 54.5664L17.567 46.3432C17.3377 45.4062 17.1576 44.5256 17.0267 43.7016C16.9212 42.8736 16.8159 42.0329 16.711 41.1793L16.5587 41.2024C16.4676 41.8044 16.3645 42.3827 16.2493 42.9373C16.1341 43.4918 16.0056 44.074 15.8637 44.6837C15.7225 45.2678 15.5413 45.9347 15.32 46.6844L12.6656 55.642L7.21948 56.4689ZM19.2141 64.8135C17.1829 65.1219 15.7053 65.0394 14.7815 64.5659C13.8576 64.0924 13.4083 63.355 13.4336 62.3537L13.4501 61.6991C13.4612 61.2626 13.3537 61.0104 13.1278 60.9424C12.9012 60.9001 12.5962 60.9592 12.2128 61.1197L12.0114 58.5801C12.3707 58.3721 12.8303 58.2 13.3902 58.0638C13.9501 57.9277 14.4077 57.8326 14.7632 57.7786C15.8804 57.609 16.6877 57.691 17.1851 58.0247C17.6571 58.3622 17.8837 58.9032 17.8649 59.6477L17.8426 60.5335C17.8315 60.9699 17.9247 61.2882 18.1219 61.4884C18.2932 61.7182 18.6327 61.7945 19.1405 61.7174C19.6737 61.6364 20.0451 61.4522 20.2547 61.1646C20.4637 60.9027 20.5736 60.5535 20.5847 60.1171L20.6635 56.9979L25.3098 56.2924L25.2155 60.0278C25.1837 61.2857 24.6897 62.3198 23.7334 63.1299C22.7771 63.94 21.2706 64.5012 19.2141 64.8135ZM14.9689 31.3547L15.1897 22.6131L20.4073 21.8209L20.1865 30.5625L14.9689 31.3547ZM38.047 52.2869C36.7521 52.4835 35.5373 52.5145 34.4025 52.3799C33.2671 52.271 32.2111 52.0221 31.2345 51.6334L32.864 47.2046C33.4141 47.4535 34.0795 47.6466 34.8601 47.7838C35.6407 47.921 36.4119 47.9318 37.1736 47.8161C38.5954 47.6002 39.7389 46.8896 40.604 45.6841C41.4697 44.4529 41.9302 42.7463 41.9853 40.5641C42.0372 38.5103 41.6578 37.0078 40.8472 36.0568C40.0365 35.1057 38.7426 34.7652 36.9653 35.035C36.1274 35.1622 35.2609 35.4217 34.3658 35.8133C33.4713 36.1793 32.7275 36.5863 32.1344 37.0344L32.2541 32.2978C33.0503 31.8189 33.946 31.4015 34.9414 31.0458C35.9368 30.6901 36.9931 30.4274 38.1103 30.2578C40.4462 29.9031 42.3394 30.0504 43.79 30.6997C45.2405 31.349 46.2878 32.4431 46.9318 33.9821C47.5765 35.4954 47.87 37.3945 47.8123 39.6793C47.7202 43.3249 46.825 46.2228 45.1267 48.3732C43.4283 50.5236 41.0684 51.8281 38.047 52.2869ZM57.6102 49.3165C56.3153 49.5131 55.1005 49.5441 53.9657 49.4095C52.8303 49.3006 51.7743 49.0517 50.7977 48.663L52.4271 44.2342C52.9773 44.4831 53.6427 44.6762 54.4233 44.8134C55.2039 44.9506 55.975 44.9614 56.7367 44.8457C58.1586 44.6298 59.302 43.9192 60.1672 42.7137C61.0329 41.4825 61.4933 39.7759 61.5485 37.5937C61.6003 35.5399 61.221 34.0374 60.4103 33.0864C59.5997 32.1353 58.3057 31.7948 56.5284 32.0646C55.6906 32.1918 54.8241 32.4513 53.9289 32.8429C53.0344 33.2089 52.2907 33.616 51.6976 34.064L51.8173 29.3274C52.6134 28.8485 53.5092 28.4311 54.5046 28.0754C55.5 27.7197 56.5563 27.457 57.6735 27.2874C60.0093 26.9327 61.9026 27.08 63.3531 27.7293C64.8037 28.3786 65.851 29.4727 66.495 31.0117C67.1397 32.525 67.4332 34.4241 67.3755 36.7089C67.2834 40.3545 66.3882 43.2524 64.6898 45.4028C62.9915 47.5532 60.6316 48.8577 57.6102 49.3165ZM77.1734 46.3461C75.8785 46.5427 74.6637 46.5737 73.5289 46.4391C72.3935 46.3302 71.3375 46.0813 70.3609 45.6926L71.9903 41.2638C72.5405 41.5127 73.2059 41.7058 73.9865 41.843C74.7671 41.9802 75.5382 41.991 76.2999 41.8753C77.7218 41.6594 78.8652 40.9488 79.7303 39.7433C80.5961 38.5121 81.0565 36.8055 81.1116 34.6233C81.1635 32.5695 80.7841 31.067 79.9735 30.116C79.1629 29.165 77.8689 28.8244 76.0916 29.0942C75.2537 29.2214 74.3872 29.4809 73.4921 29.8725C72.5976 30.2385 71.8539 30.6456 71.2608 31.0936L71.3805 26.357C72.1766 25.8781 73.0724 25.4608 74.0678 25.105C75.0632 24.7493 76.1195 24.4866 77.2366 24.317C79.5725 23.9623 81.4657 24.1096 82.9163 24.7589C84.3669 25.4082 85.4142 26.5023 86.0582 28.0413C86.7029 29.5546 86.9964 31.4537 86.9386 33.7385C86.8466 37.3841 85.9514 40.282 84.253 42.4324C82.5547 44.5828 80.1948 45.8873 77.1734 46.3461ZM96.7366 43.3757C95.4417 43.5723 94.2269 43.6033 93.0921 43.4687C91.9567 43.3598 90.9007 43.1109 89.9241 42.7222L91.5535 38.2934C92.1037 38.5423 92.769 38.7354 93.5496 38.8726C94.3302 39.0098 95.1014 39.0206 95.8631 38.9049C97.2849 38.689 98.4284 37.9784 99.2935 36.7729C100.159 35.5417 100.62 33.8351 100.675 31.6529C100.727 29.5991 100.347 28.0966 99.5367 27.1456C98.7261 26.1946 97.4321 25.854 95.6548 26.1238C94.8169 26.251 93.9504 26.5105 93.0553 26.9021C92.1608 27.2681 91.417 27.6752 90.824 28.1232L90.9436 23.3866C91.7398 22.9077 92.6356 22.4904 93.631 22.1346C94.6264 21.7789 95.6827 21.5162 96.7998 21.3466C99.1357 20.9919 101.029 21.1392 102.479 21.7885C103.93 22.4378 104.977 23.5319 105.621 25.0709C106.266 26.5842 106.56 28.4833 106.502 30.7681C106.41 34.4137 105.515 37.3116 103.816 39.462C102.118 41.6124 99.758 42.9169 96.7366 43.3757ZM116.3 40.4053C115.005 40.6019 113.79 40.6329 112.655 40.4983C111.52 40.3894 110.464 40.1405 109.487 39.7518L111.117 35.323C111.667 35.5719 112.332 35.765 113.113 35.9022C113.893 36.0394 114.665 36.0502 115.426 35.9345C116.848 35.7186 117.992 35.008 118.857 33.8025C119.722 32.5713 120.183 30.8647 120.238 28.6825C120.29 26.6287 119.911 25.1262 119.1 24.1752C118.289 23.2242 116.995 22.8836 115.218 23.1534C114.38 23.2806 113.514 23.5401 112.618 23.9317C111.724 24.2977 110.98 24.7048 110.387 25.1528L110.507 20.4162C111.303 19.9373 112.199 19.52 113.194 19.1642C114.19 18.8085 115.246 18.5458 116.363 18.3762C118.699 18.0215 120.592 18.1688 122.043 18.8181C123.493 19.4674 124.541 20.5615 125.185 22.1005C125.829 23.6138 126.123 25.5129 126.065 27.7977C125.973 31.4433 125.078 34.3412 123.379 36.4916C121.681 38.642 119.321 39.9465 116.3 40.4053ZM133.442 37.6579C132.55 37.7935 131.791 37.5907 131.167 37.0498C130.552 36.4983 130.256 35.7713 130.279 34.8687C130.302 33.9753 130.637 33.1616 131.284 32.4276C131.94 31.6922 132.715 31.2567 133.607 31.1212C134.473 30.9898 135.222 31.1939 135.855 31.7335C136.488 32.2731 136.794 32.9896 136.771 33.8831C136.756 34.4848 136.589 35.0596 136.269 35.6076C135.959 36.145 135.557 36.6012 135.063 36.976C134.568 37.3416 134.028 37.5689 133.442 37.6579ZM142.977 36.2102C142.084 36.3457 141.326 36.143 140.702 35.602C140.087 35.0506 139.791 34.3236 139.814 33.421C139.837 32.5276 140.172 31.7138 140.819 30.9798C141.475 30.2445 142.25 29.809 143.142 29.6735C144.008 29.5421 144.757 29.7462 145.39 30.2858C146.023 30.8254 146.328 31.5419 146.306 32.4353C146.291 33.037 146.123 33.6119 145.804 34.1598C145.494 34.6973 145.092 35.1535 144.597 35.5282C144.103 35.8939 143.563 36.1212 142.977 36.2102ZM152.525 34.7604C151.633 34.896 150.874 34.6932 150.25 34.1523C149.636 33.6008 149.34 32.8738 149.362 31.9712C149.385 31.0778 149.72 30.2641 150.367 29.5301C151.023 28.7947 151.798 28.3592 152.69 28.2237C153.556 28.0923 154.305 28.2964 154.938 28.836C155.571 29.3756 155.877 30.0921 155.854 30.9856C155.839 31.5873 155.672 32.1621 155.352 32.7101C155.042 33.2475 154.64 33.7037 154.146 34.0785C153.652 34.4441 153.111 34.6714 152.525 34.7604ZM167.442 4.242L166.42 23.9322L161.47 24.6838L161.424 5.15581L167.442 4.242ZM163.724 33.0601C162.831 33.1957 162.073 32.9929 161.449 32.452C160.825 31.9019 160.529 31.1749 160.561 30.2709C160.574 29.3789 160.909 28.5651 161.565 27.8298C162.222 27.0944 162.996 26.6589 163.889 26.5234C164.745 26.3934 165.49 26.5981 166.123 27.1377C166.756 27.6773 167.066 28.3932 167.052 29.2852C167.028 29.8883 166.856 30.4638 166.537 31.0118C166.227 31.5493 165.825 32.0054 165.331 32.3802C164.836 32.7459 164.301 32.9725 163.724 33.0601Z"/>
</mask>
<path d="M7.21948 56.4689L4.21063 35.9037L9.77104 35.0594L10.5354 42.3471C10.5784 42.6475 10.6172 43.1147 10.6518 43.7488C10.7117 44.3791 10.7691 45.112 10.8239 45.9477C10.9047 46.7538 10.9591 47.6022 10.9872 48.4931L11.1395 48.4699C11.3374 47.6471 11.5346 46.8499 11.7311 46.0784C11.9276 45.3069 12.1232 44.574 12.3178 43.8795C12.513 43.1593 12.6943 42.4924 12.8615 41.8788L15.1029 34.2498L18.5687 33.7236L20.4024 40.7339C20.5652 41.2974 20.714 41.9141 20.8488 42.5842C21.0097 43.2247 21.1696 43.9037 21.3285 44.6212C21.4874 45.3387 21.6457 46.0819 21.8033 46.8508L21.9176 46.8334C22.0171 45.8977 22.115 45.0261 22.2113 44.2186C22.3075 43.4112 22.3889 42.6956 22.4552 42.0717C22.5469 41.444 22.6107 40.9228 22.6465 40.5082L24.7777 25.2236L30.262 24.3909L25.3479 53.7164L19.7494 54.5664L17.567 46.3432C17.3377 45.4062 17.1576 44.5256 17.0267 43.7016C16.9212 42.8736 16.8159 42.0329 16.711 41.1793L16.5587 41.2024C16.4676 41.8044 16.3645 42.3827 16.2493 42.9373C16.1341 43.4918 16.0056 44.074 15.8637 44.6837C15.7225 45.2678 15.5413 45.9347 15.32 46.6844L12.6656 55.642L7.21948 56.4689ZM19.2141 64.8135C17.1829 65.1219 15.7053 65.0394 14.7815 64.5659C13.8576 64.0924 13.4083 63.355 13.4336 62.3537L13.4501 61.6991C13.4612 61.2626 13.3537 61.0104 13.1278 60.9424C12.9012 60.9001 12.5962 60.9592 12.2128 61.1197L12.0114 58.5801C12.3707 58.3721 12.8303 58.2 13.3902 58.0638C13.9501 57.9277 14.4077 57.8326 14.7632 57.7786C15.8804 57.609 16.6877 57.691 17.1851 58.0247C17.6571 58.3622 17.8837 58.9032 17.8649 59.6477L17.8426 60.5335C17.8315 60.9699 17.9247 61.2882 18.1219 61.4884C18.2932 61.7182 18.6327 61.7945 19.1405 61.7174C19.6737 61.6364 20.0451 61.4522 20.2547 61.1646C20.4637 60.9027 20.5736 60.5535 20.5847 60.1171L20.6635 56.9979L25.3098 56.2924L25.2155 60.0278C25.1837 61.2857 24.6897 62.3198 23.7334 63.1299C22.7771 63.94 21.2706 64.5012 19.2141 64.8135ZM14.9689 31.3547L15.1897 22.6131L20.4073 21.8209L20.1865 30.5625L14.9689 31.3547ZM38.047 52.2869C36.7521 52.4835 35.5373 52.5145 34.4025 52.3799C33.2671 52.271 32.2111 52.0221 31.2345 51.6334L32.864 47.2046C33.4141 47.4535 34.0795 47.6466 34.8601 47.7838C35.6407 47.921 36.4119 47.9318 37.1736 47.8161C38.5954 47.6002 39.7389 46.8896 40.604 45.6841C41.4697 44.4529 41.9302 42.7463 41.9853 40.5641C42.0372 38.5103 41.6578 37.0078 40.8472 36.0568C40.0365 35.1057 38.7426 34.7652 36.9653 35.035C36.1274 35.1622 35.2609 35.4217 34.3658 35.8133C33.4713 36.1793 32.7275 36.5863 32.1344 37.0344L32.2541 32.2978C33.0503 31.8189 33.946 31.4015 34.9414 31.0458C35.9368 30.6901 36.9931 30.4274 38.1103 30.2578C40.4462 29.9031 42.3394 30.0504 43.79 30.6997C45.2405 31.349 46.2878 32.4431 46.9318 33.9821C47.5765 35.4954 47.87 37.3945 47.8123 39.6793C47.7202 43.3249 46.825 46.2228 45.1267 48.3732C43.4283 50.5236 41.0684 51.8281 38.047 52.2869ZM57.6102 49.3165C56.3153 49.5131 55.1005 49.5441 53.9657 49.4095C52.8303 49.3006 51.7743 49.0517 50.7977 48.663L52.4271 44.2342C52.9773 44.4831 53.6427 44.6762 54.4233 44.8134C55.2039 44.9506 55.975 44.9614 56.7367 44.8457C58.1586 44.6298 59.302 43.9192 60.1672 42.7137C61.0329 41.4825 61.4933 39.7759 61.5485 37.5937C61.6003 35.5399 61.221 34.0374 60.4103 33.0864C59.5997 32.1353 58.3057 31.7948 56.5284 32.0646C55.6906 32.1918 54.8241 32.4513 53.9289 32.8429C53.0344 33.2089 52.2907 33.616 51.6976 34.064L51.8173 29.3274C52.6134 28.8485 53.5092 28.4311 54.5046 28.0754C55.5 27.7197 56.5563 27.457 57.6735 27.2874C60.0093 26.9327 61.9026 27.08 63.3531 27.7293C64.8037 28.3786 65.851 29.4727 66.495 31.0117C67.1397 32.525 67.4332 34.4241 67.3755 36.7089C67.2834 40.3545 66.3882 43.2524 64.6898 45.4028C62.9915 47.5532 60.6316 48.8577 57.6102 49.3165ZM77.1734 46.3461C75.8785 46.5427 74.6637 46.5737 73.5289 46.4391C72.3935 46.3302 71.3375 46.0813 70.3609 45.6926L71.9903 41.2638C72.5405 41.5127 73.2059 41.7058 73.9865 41.843C74.7671 41.9802 75.5382 41.991 76.2999 41.8753C77.7218 41.6594 78.8652 40.9488 79.7303 39.7433C80.5961 38.5121 81.0565 36.8055 81.1116 34.6233C81.1635 32.5695 80.7841 31.067 79.9735 30.116C79.1629 29.165 77.8689 28.8244 76.0916 29.0942C75.2537 29.2214 74.3872 29.4809 73.4921 29.8725C72.5976 30.2385 71.8539 30.6456 71.2608 31.0936L71.3805 26.357C72.1766 25.8781 73.0724 25.4608 74.0678 25.105C75.0632 24.7493 76.1195 24.4866 77.2366 24.317C79.5725 23.9623 81.4657 24.1096 82.9163 24.7589C84.3669 25.4082 85.4142 26.5023 86.0582 28.0413C86.7029 29.5546 86.9964 31.4537 86.9386 33.7385C86.8466 37.3841 85.9514 40.282 84.253 42.4324C82.5547 44.5828 80.1948 45.8873 77.1734 46.3461ZM96.7366 43.3757C95.4417 43.5723 94.2269 43.6033 93.0921 43.4687C91.9567 43.3598 90.9007 43.1109 89.9241 42.7222L91.5535 38.2934C92.1037 38.5423 92.769 38.7354 93.5496 38.8726C94.3302 39.0098 95.1014 39.0206 95.8631 38.9049C97.2849 38.689 98.4284 37.9784 99.2935 36.7729C100.159 35.5417 100.62 33.8351 100.675 31.6529C100.727 29.5991 100.347 28.0966 99.5367 27.1456C98.7261 26.1946 97.4321 25.854 95.6548 26.1238C94.8169 26.251 93.9504 26.5105 93.0553 26.9021C92.1608 27.2681 91.417 27.6752 90.824 28.1232L90.9436 23.3866C91.7398 22.9077 92.6356 22.4904 93.631 22.1346C94.6264 21.7789 95.6827 21.5162 96.7998 21.3466C99.1357 20.9919 101.029 21.1392 102.479 21.7885C103.93 22.4378 104.977 23.5319 105.621 25.0709C106.266 26.5842 106.56 28.4833 106.502 30.7681C106.41 34.4137 105.515 37.3116 103.816 39.462C102.118 41.6124 99.758 42.9169 96.7366 43.3757ZM116.3 40.4053C115.005 40.6019 113.79 40.6329 112.655 40.4983C111.52 40.3894 110.464 40.1405 109.487 39.7518L111.117 35.323C111.667 35.5719 112.332 35.765 113.113 35.9022C113.893 36.0394 114.665 36.0502 115.426 35.9345C116.848 35.7186 117.992 35.008 118.857 33.8025C119.722 32.5713 120.183 30.8647 120.238 28.6825C120.29 26.6287 119.911 25.1262 119.1 24.1752C118.289 23.2242 116.995 22.8836 115.218 23.1534C114.38 23.2806 113.514 23.5401 112.618 23.9317C111.724 24.2977 110.98 24.7048 110.387 25.1528L110.507 20.4162C111.303 19.9373 112.199 19.52 113.194 19.1642C114.19 18.8085 115.246 18.5458 116.363 18.3762C118.699 18.0215 120.592 18.1688 122.043 18.8181C123.493 19.4674 124.541 20.5615 125.185 22.1005C125.829 23.6138 126.123 25.5129 126.065 27.7977C125.973 31.4433 125.078 34.3412 123.379 36.4916C121.681 38.642 119.321 39.9465 116.3 40.4053ZM133.442 37.6579C132.55 37.7935 131.791 37.5907 131.167 37.0498C130.552 36.4983 130.256 35.7713 130.279 34.8687C130.302 33.9753 130.637 33.1616 131.284 32.4276C131.94 31.6922 132.715 31.2567 133.607 31.1212C134.473 30.9898 135.222 31.1939 135.855 31.7335C136.488 32.2731 136.794 32.9896 136.771 33.8831C136.756 34.4848 136.589 35.0596 136.269 35.6076C135.959 36.145 135.557 36.6012 135.063 36.976C134.568 37.3416 134.028 37.5689 133.442 37.6579ZM142.977 36.2102C142.084 36.3457 141.326 36.143 140.702 35.602C140.087 35.0506 139.791 34.3236 139.814 33.421C139.837 32.5276 140.172 31.7138 140.819 30.9798C141.475 30.2445 142.25 29.809 143.142 29.6735C144.008 29.5421 144.757 29.7462 145.39 30.2858C146.023 30.8254 146.328 31.5419 146.306 32.4353C146.291 33.037 146.123 33.6119 145.804 34.1598C145.494 34.6973 145.092 35.1535 144.597 35.5282C144.103 35.8939 143.563 36.1212 142.977 36.2102ZM152.525 34.7604C151.633 34.896 150.874 34.6932 150.25 34.1523C149.636 33.6008 149.34 32.8738 149.362 31.9712C149.385 31.0778 149.72 30.2641 150.367 29.5301C151.023 28.7947 151.798 28.3592 152.69 28.2237C153.556 28.0923 154.305 28.2964 154.938 28.836C155.571 29.3756 155.877 30.0921 155.854 30.9856C155.839 31.5873 155.672 32.1621 155.352 32.7101C155.042 33.2475 154.64 33.7037 154.146 34.0785C153.652 34.4441 153.111 34.6714 152.525 34.7604ZM167.442 4.242L166.42 23.9322L161.47 24.6838L161.424 5.15581L167.442 4.242ZM163.724 33.0601C162.831 33.1957 162.073 32.9929 161.449 32.452C160.825 31.9019 160.529 31.1749 160.561 30.2709C160.574 29.3789 160.909 28.5651 161.565 27.8298C162.222 27.0944 162.996 26.6589 163.889 26.5234C164.745 26.3934 165.49 26.5981 166.123 27.1377C166.756 27.6773 167.066 28.3932 167.052 29.2852C167.028 29.8883 166.856 30.4638 166.537 31.0118C166.227 31.5493 165.825 32.0054 165.331 32.3802C164.836 32.7459 164.301 32.9725 163.724 33.0601Z" fill="#151F6D"/>
<path d="M7.21948 56.4689L3.6209 57.6278L4.05718 60.6097L7.12665 60.1437L7.21948 56.4689ZM4.21063 35.9037L4.30346 32.2289L0.00044429 32.8823L0.612051 37.0626L4.21063 35.9037ZM9.77104 35.0594L13.3871 34.0401L13.0577 30.8997L9.86386 31.3846L9.77104 35.0594ZM10.5354 42.3471L6.91933 43.3664L6.92614 43.4313L6.93533 43.4955L10.5354 42.3471ZM10.6518 43.7488L7.02167 44.5919L7.02557 44.6636L7.03232 44.7345L10.6518 43.7488ZM10.8239 45.9477L7.19611 46.8299L7.20009 46.8907L7.20614 46.951L10.8239 45.9477ZM10.9872 48.4931L7.35355 49.2536L7.46184 52.689L10.8944 52.1678L10.9872 48.4931ZM11.1395 48.4699L11.0467 52.1447L13.9519 51.7036L14.6641 48.7411L11.1395 48.4699ZM11.7311 46.0784L8.22006 45.7526V45.7526L11.7311 46.0784ZM12.3178 43.8795L15.803 44.302L15.8078 44.2848L15.8125 44.2675L12.3178 43.8795ZM12.8615 41.8788L9.39107 41.405L9.37931 41.4451L9.36837 41.4852L12.8615 41.8788ZM15.1029 34.2498L15.1958 30.5751L12.4504 30.9919L11.6325 33.776L15.1029 34.2498ZM18.5687 33.7236L22.0942 32.2047L21.4207 29.6299L18.6615 30.0488L18.5687 33.7236ZM20.4024 40.7339L16.8768 42.2528L16.8872 42.2925L16.8985 42.3317L20.4024 40.7339ZM20.8488 42.5842L17.2809 43.92L17.2964 43.9969L17.3154 44.0723L20.8488 42.5842ZM21.3285 44.6212L24.8831 43.2225V43.2225L21.3285 44.6212ZM21.8033 46.8508L18.2379 48.1985L18.8054 50.9667L21.7105 50.5256L21.8033 46.8508ZM21.9176 46.8334L21.8248 50.5082L25.1688 50.0005L25.5316 46.5887L21.9176 46.8334ZM22.2113 44.2186L25.8197 44.0234L25.8197 44.0233L22.2113 44.2186ZM22.4552 42.0717L18.8605 42.1635L18.8493 42.24L18.8412 42.3164L22.4552 42.0717ZM22.6465 40.5082L19.0481 40.6258L19.0338 40.7279L19.025 40.8297L22.6465 40.5082ZM24.7777 25.2236L24.8705 21.5489L21.6397 22.0394L21.1793 25.3412L24.7777 25.2236ZM30.262 24.3909L33.8437 24.3818L34.5651 20.0769L30.3548 20.7162L30.262 24.3909ZM25.3479 53.7164L25.2551 57.3911L28.3922 56.9148L28.9297 53.7072L25.3479 53.7164ZM19.7494 54.5664L16.2268 56.0965L16.9068 58.6587L19.6566 58.2412L19.7494 54.5664ZM17.567 46.3432L14.0288 47.812L14.0363 47.8428L14.0444 47.8733L17.567 46.3432ZM17.0267 43.7015L13.4195 44.7976L13.4262 44.85L13.4344 44.9018L17.0267 43.7015ZM16.711 41.1793L20.3201 40.0987L19.9428 37.0279L16.8039 37.5045L16.711 41.1793ZM16.5587 41.2024L16.6515 37.5276L13.4605 38.0121L12.9669 41.2743L16.5587 41.2024ZM16.2493 42.9373L19.802 43.0828L19.802 43.0828L16.2493 42.9373ZM15.8637 44.6837L19.3871 44.96L19.3913 44.9426L19.3953 44.9251L15.8637 44.6837ZM15.32 46.6844L18.7876 47.1677L18.7889 47.1633L15.32 46.6844ZM12.6656 55.642L12.5728 59.3168L15.3108 58.901L16.1333 56.1253L12.6656 55.642ZM7.21948 56.4689L10.8181 55.31L7.80921 34.7448L4.21063 35.9037L0.612051 37.0626L3.6209 57.6278L7.21948 56.4689ZM4.21063 35.9037L4.11781 39.5784L9.67822 38.7342L9.77104 35.0594L9.86386 31.3846L4.30346 32.2289L4.21063 35.9037ZM9.77104 35.0594L6.15494 36.0787L6.91933 43.3664L10.5354 42.3471L14.1515 41.3278L13.3871 34.0401L9.77104 35.0594ZM10.5354 42.3471L6.93533 43.4955C6.95568 43.6377 6.98814 43.9769 7.02167 44.5919L10.6518 43.7488L14.2819 42.9057C14.2463 42.2525 14.2012 41.6573 14.1355 41.1987L10.5354 42.3471ZM10.6518 43.7488L7.03232 44.7345C7.08818 45.3217 7.14294 46.0188 7.19611 46.8299L10.8239 45.9477L14.4516 45.0654C14.3953 44.2052 14.3353 43.4365 14.2712 42.7631L10.6518 43.7488ZM10.8239 45.9477L7.20614 46.951C7.27824 47.6703 7.32781 48.4374 7.35355 49.2536L10.9872 48.4931L14.6209 47.7325C14.5904 46.7671 14.5311 45.8372 14.4416 44.9443L10.8239 45.9477ZM10.9872 48.4931L10.8944 52.1678L11.0467 52.1447L11.1395 48.4699L11.2324 44.7952L11.08 44.8183L10.9872 48.4931ZM11.1395 48.4699L14.6641 48.7411C14.8579 47.9353 15.0505 47.1564 15.2421 46.4043L11.7311 46.0784L8.22006 45.7526C8.01859 46.5434 7.8169 47.3589 7.61496 48.1988L11.1395 48.4699ZM11.7311 46.0784L15.2421 46.4043C15.4313 45.6616 15.6183 44.9611 15.803 44.302L12.3178 43.8795L8.8326 43.457C8.62809 44.1868 8.42395 44.9522 8.22006 45.7526L11.7311 46.0784ZM12.3178 43.8795L15.8125 44.2675C16.0073 43.5489 16.188 42.8839 16.3547 42.2725L12.8615 41.8788L9.36837 41.4852C9.20053 42.1009 9.01877 42.7697 8.82311 43.4914L12.3178 43.8795ZM12.8615 41.8788L16.332 42.3527L18.5734 34.7236L15.1029 34.2498L11.6325 33.776L9.39107 41.405L12.8615 41.8788ZM15.1029 34.2498L15.0101 37.9246L18.4758 37.3984L18.5687 33.7236L18.6615 30.0488L15.1958 30.5751L15.1029 34.2498ZM18.5687 33.7236L15.0431 35.2425L16.8768 42.2528L20.4024 40.7339L23.9279 39.215L22.0942 32.2047L18.5687 33.7236ZM20.4024 40.7339L16.8985 42.3317C17.0332 42.7977 17.1614 43.3258 17.2809 43.92L20.8488 42.5842L24.4167 41.2483C24.2666 40.5024 24.0972 39.797 23.9062 39.136L20.4024 40.7339ZM20.8488 42.5842L17.3154 44.0723C17.468 44.6802 17.6209 45.3292 17.7739 46.0199L21.3285 44.6212L24.8831 43.2225C24.7182 42.4782 24.5513 41.7691 24.3823 41.096L20.8488 42.5842ZM21.3285 44.6212L17.7739 46.0199C17.9288 46.7194 18.0835 47.4455 18.2379 48.1985L21.8033 46.8508L25.3688 45.5031C25.2079 44.7183 25.046 43.9581 24.8831 43.2225L21.3285 44.6212ZM21.8033 46.8508L21.7105 50.5256L21.8248 50.5082L21.9176 46.8334L22.0104 43.1587L21.8962 43.176L21.8033 46.8508ZM21.9176 46.8334L25.5316 46.5887C25.6296 45.6669 25.7257 44.8119 25.8197 44.0234L22.2113 44.2186L18.6028 44.4139C18.5043 45.2402 18.4046 46.1284 18.3036 47.0782L21.9176 46.8334ZM22.2113 44.2186L25.8197 44.0233C25.9174 43.2039 26.0007 42.4713 26.0692 41.827L22.4552 42.0717L18.8412 42.3164C18.777 42.9199 18.6977 43.6185 18.6028 44.4139L22.2113 44.2186ZM22.4552 42.0717L26.0499 41.98C26.1478 41.3098 26.2231 40.7056 26.2679 40.1867L22.6465 40.5082L19.025 40.8297C18.9983 41.14 18.946 41.5782 18.8605 42.1635L22.4552 42.0717ZM22.6465 40.5082L26.2448 40.3907L28.3761 25.1061L24.7777 25.2236L21.1793 25.3412L19.0481 40.6258L22.6465 40.5082ZM24.7777 25.2236L24.6849 28.8984L30.1691 28.0657L30.262 24.3909L30.3548 20.7162L24.8705 21.5489L24.7777 25.2236ZM30.262 24.3909L26.6802 24.4001L21.7662 53.7255L25.3479 53.7164L28.9297 53.7072L33.8437 24.3818L30.262 24.3909ZM25.3479 53.7164L25.4408 50.0416L19.8423 50.8917L19.7494 54.5664L19.6566 58.2412L25.2551 57.3911L25.3479 53.7164ZM19.7494 54.5664L23.2721 53.0363L21.0896 44.8131L17.567 46.3432L14.0444 47.8733L16.2268 56.0965L19.7494 54.5664ZM17.567 46.3432L21.1052 44.8743C20.894 44.011 20.7333 43.2207 20.619 42.5013L17.0267 43.7015L13.4344 44.9018C13.582 45.8305 13.7815 46.8014 14.0288 47.812L17.567 46.3432ZM17.0267 43.7015L20.6339 42.6055C20.529 41.7828 20.4244 40.9472 20.3201 40.0987L16.711 41.1793L13.1019 42.2599C13.2074 43.1185 13.3133 43.9644 13.4195 44.7976L17.0267 43.7015ZM16.711 41.1793L16.8039 37.5045L16.6515 37.5276L16.5587 41.2024L16.4659 44.8772L16.6182 44.854L16.711 41.1793ZM16.5587 41.2024L12.9669 41.2743C12.8859 41.8099 12.7955 42.3154 12.6966 42.7918L16.2493 42.9373L19.802 43.0828C19.9334 42.45 20.0493 41.799 20.1504 41.1305L16.5587 41.2024ZM16.2493 42.9373L12.6966 42.7918C12.5887 43.3113 12.4673 43.8614 12.3321 44.4423L15.8637 44.6837L19.3953 44.9251C19.5439 44.2866 19.6796 43.6723 19.802 43.0828L16.2493 42.9373ZM15.8637 44.6837L12.3404 44.4074C12.2194 44.9077 12.0578 45.5049 11.851 46.2054L15.32 46.6844L18.7889 47.1633C19.0247 46.3645 19.2256 45.6279 19.3871 44.96L15.8637 44.6837ZM15.32 46.6844L11.8523 46.201L9.19797 55.1587L12.6656 55.642L16.1333 56.1253L18.7876 47.1677L15.32 46.6844ZM12.6656 55.642L12.7585 51.9672L7.3123 52.7942L7.21948 56.4689L7.12665 60.1437L12.5728 59.3168L12.6656 55.642ZM13.1278 60.9424L14.6886 57.3603L14.5301 57.3126L14.3651 57.2818L13.1278 60.9424ZM12.2128 61.1197L8.58853 62.0504L8.92241 66.2601L13.0595 64.5282L12.2128 61.1197ZM12.0114 58.5801L10.6651 55.4198L8.17688 56.8601L8.38711 59.5108L12.0114 58.5801ZM13.3902 58.0638L13.1536 54.4541L13.1536 54.4541L13.3902 58.0638ZM17.1851 58.0247L19.5971 54.8584L19.5628 54.8339L19.5279 54.8105L17.1851 58.0247ZM18.1219 61.4884L21.1525 58.929L21.036 58.7727L20.8999 58.6346L18.1219 61.4884ZM20.2547 61.1646L17.6001 59.1357L17.5356 59.2165L17.4748 59.2999L20.2547 61.1646ZM20.6635 56.9979L20.7563 53.3231L17.122 53.8749L17.0292 57.5497L20.6635 56.9979ZM25.3098 56.2924L28.9441 55.7406L29.0369 52.0658L25.4027 52.6176L25.3098 56.2924ZM23.7334 63.1299L21.7198 60.4405L21.7198 60.4405L23.7334 63.1299ZM19.2141 64.8135L19.3069 61.1387C18.4596 61.2674 17.8386 61.2965 17.4037 61.2722C16.9601 61.2474 16.8182 61.1729 16.8371 61.1826L14.7815 64.5659L12.7258 67.9491C14.5331 68.8754 16.8813 68.8284 19.1212 68.4883L19.2141 64.8135ZM14.7815 64.5659L16.8371 61.1826C16.7459 61.1358 16.8323 61.1566 16.9324 61.3209C16.981 61.4006 17.019 61.4925 17.0424 61.5887C17.0656 61.6836 17.069 61.7594 17.0679 61.8019L13.4336 62.3537L9.79932 62.9056C9.73802 65.332 10.9424 67.0351 12.7258 67.9491L14.7815 64.5659ZM13.4336 62.3537L17.0679 61.8019L17.0844 61.1473L13.4501 61.6991L9.81585 62.2509L9.79932 62.9056L13.4336 62.3537ZM13.4501 61.6991L17.0844 61.1473C17.1036 60.387 16.9849 58.0514 14.6886 57.3603L13.1278 60.9424L11.5669 64.5246C10.7205 64.2698 10.2285 63.6719 10.0008 63.1374C9.80572 62.6794 9.81437 62.3094 9.81585 62.2509L13.4501 61.6991ZM13.1278 60.9424L14.3651 57.2818C13.1683 57.0582 12.0428 57.4279 11.3661 57.7112L12.2128 61.1197L13.0595 64.5282C13.0575 64.5291 13.0341 64.5388 12.9916 64.5524C12.9494 64.5659 12.8801 64.5857 12.7877 64.6036C12.6111 64.6378 12.2865 64.6771 11.8905 64.6031L13.1278 60.9424ZM12.2128 61.1197L15.837 60.1891L15.6356 57.6494L12.0114 58.5801L8.38711 59.5108L8.58853 62.0504L12.2128 61.1197ZM12.0114 58.5801L13.3577 61.7404C13.2892 61.78 13.2707 61.7823 13.3234 61.7626C13.3746 61.7434 13.4725 61.7111 13.6268 61.6736L13.3902 58.0638L13.1536 54.4541C12.3686 54.645 11.4994 54.9369 10.6651 55.4198L12.0114 58.5801ZM13.3902 58.0638L13.6268 61.6736C14.1318 61.5507 14.4686 61.4841 14.6704 61.4534L14.7632 57.7786L14.856 54.1039C14.3469 54.1812 13.7684 54.3046 13.1536 54.4541L13.3902 58.0638ZM14.7632 57.7786L14.6704 61.4534C14.8412 61.4275 14.9729 61.4154 15.0702 61.411C15.1681 61.4065 15.2201 61.4103 15.2351 61.4118C15.2744 61.4158 15.0909 61.4057 14.8423 61.2389L17.1851 58.0247L19.5279 54.8105C18.0846 53.8423 16.2622 53.8904 14.856 54.1039L14.7632 57.7786ZM17.1851 58.0247L14.7731 61.191C14.5873 61.0582 14.4249 60.8602 14.3249 60.6213C14.2307 60.3966 14.2299 60.2279 14.2306 60.1996L17.8649 59.6477L21.4992 59.0959C21.5403 57.4691 21.0096 55.8684 19.5971 54.8584L17.1851 58.0247ZM17.8649 59.6477L14.2306 60.1996L14.2083 61.0853L17.8426 60.5335L21.4768 59.9816L21.4992 59.0959L17.8649 59.6477ZM17.8426 60.5335L14.2083 61.0853C14.1838 62.0532 14.3741 63.358 15.344 64.3423L18.1219 61.4884L20.8999 58.6346C21.4752 59.2184 21.4792 59.8866 21.4768 59.9816L17.8426 60.5335ZM18.1219 61.4884L15.0914 64.0478C16.2498 65.6019 18.1192 65.5331 19.0477 65.3922L19.1405 61.7174L19.2333 58.0426C19.2549 58.0394 19.5013 58.001 19.8543 58.0803C20.2448 58.1681 20.7607 58.4034 21.1525 58.929L18.1219 61.4884ZM19.1405 61.7174L19.0477 65.3922C19.9877 65.2494 21.7607 64.7771 23.0346 63.0293L20.2547 61.1646L17.4748 59.2999C17.8943 58.7244 18.3827 58.3927 18.722 58.2243C18.8847 58.1436 19.0144 58.0991 19.0951 58.0754C19.1762 58.0516 19.225 58.0439 19.2333 58.0426L19.1405 61.7174ZM20.2547 61.1646L22.9093 63.1936C23.9366 61.9061 24.1945 60.5332 24.219 59.5653L20.5847 60.1171L16.9504 60.6689C16.9528 60.5739 16.9908 59.8993 17.6001 59.1357L20.2547 61.1646ZM20.5847 60.1171L24.219 59.5653L24.2977 56.446L20.6635 56.9979L17.0292 57.5497L16.9504 60.6689L20.5847 60.1171ZM20.6635 56.9979L20.5706 60.6726L25.217 59.9671L25.3098 56.2924L25.4027 52.6176L20.7563 53.3231L20.6635 56.9979ZM25.3098 56.2924L21.6755 56.8442L21.5812 60.5796L25.2155 60.0278L28.8498 59.476L28.9441 55.7406L25.3098 56.2924ZM25.2155 60.0278L21.5812 60.5796C21.5801 60.6213 21.5774 60.6516 21.575 60.6714C21.5738 60.6813 21.5727 60.6886 21.5718 60.6933C21.5714 60.6957 21.5711 60.6974 21.5708 60.6986C21.5706 60.6997 21.5705 60.7003 21.5705 60.7003C21.5705 60.7003 21.5706 60.6998 21.5709 60.6987C21.5712 60.6976 21.5716 60.696 21.5722 60.6939C21.5734 60.6897 21.5752 60.6837 21.5779 60.6761C21.5833 60.6605 21.5914 60.6399 21.6029 60.6158C21.6274 60.5646 21.6581 60.5163 21.6886 60.4775C21.7181 60.4399 21.7339 60.4286 21.7198 60.4405L23.7334 63.1299L25.7469 65.8193C27.7818 64.0954 28.7907 61.8134 28.8498 59.476L25.2155 60.0278ZM23.7334 63.1299L21.7198 60.4405C21.7523 60.413 21.6258 60.528 21.195 60.6885C20.7703 60.8467 20.155 61.01 19.3069 61.1387L19.2141 64.8135L19.1212 68.4883C21.4078 68.1411 23.8433 67.432 25.7469 65.8193L23.7334 63.1299ZM14.9689 31.3547L11.3346 31.9065L11.2418 35.5813L14.8761 35.0295L14.9689 31.3547ZM15.1897 22.6131L15.2825 18.9384L11.6482 19.4902L11.5554 23.1649L15.1897 22.6131ZM20.4073 21.8209L24.0416 21.2691L24.1344 17.5943L20.5002 18.1461L20.4073 21.8209ZM20.1865 30.5625L20.0937 34.2372L23.728 33.6854L23.8208 30.0107L20.1865 30.5625ZM14.9689 31.3547L18.6032 30.8029L18.824 22.0613L15.1897 22.6131L11.5554 23.1649L11.3346 31.9065L14.9689 31.3547ZM15.1897 22.6131L15.0969 26.2879L20.3145 25.4957L20.4073 21.8209L20.5002 18.1461L15.2825 18.9384L15.1897 22.6131ZM20.4073 21.8209L16.7731 22.3727L16.5522 31.1143L20.1865 30.5625L23.8208 30.0107L24.0416 21.2691L20.4073 21.8209ZM20.1865 30.5625L20.2793 26.8877L15.0617 27.6799L14.9689 31.3547L14.8761 35.0295L20.0937 34.2372L20.1865 30.5625ZM34.4026 52.3799L35.4287 48.687L35.3923 48.6827L35.3557 48.6792L34.4026 52.3799ZM31.2345 51.6334L27.8547 50.8854L26.6936 54.0412L29.4298 55.1305L31.2345 51.6334ZM32.864 47.2046L34.7927 43.7601L31.0923 42.0857L29.4841 46.4566L32.864 47.2046ZM40.604 45.6841L43.4043 47.5205L43.4175 47.5021L43.4306 47.4836L40.604 45.6841ZM40.8472 36.0568L43.7622 33.3525L43.7622 33.3525L40.8472 36.0568ZM34.3658 35.8133L35.1809 39.2349L35.2281 39.2156L35.2749 39.1951L34.3658 35.8133ZM32.1344 37.0344L28.5002 37.5863L28.335 44.1251L33.9448 39.8865L32.1344 37.0344ZM32.2541 32.2978L30.8429 29.1759L28.6797 30.4771L28.6198 32.8496L32.2541 32.2978ZM43.79 30.6997L41.8719 34.149L41.8719 34.149L43.79 30.6997ZM46.9318 33.9821L43.5473 35.9189L43.551 35.9279L43.5549 35.9368L46.9318 33.9821ZM45.1267 48.3732L42.4574 46.3627V46.3627L45.1267 48.3732ZM38.047 52.2869L38.1399 48.6121C37.1314 48.7652 36.2328 48.7824 35.4287 48.687L34.4026 52.3799L33.3764 56.0728C34.8419 56.2466 36.3729 56.2018 37.9542 55.9616L38.047 52.2869ZM34.4026 52.3799L35.3557 48.6792C34.5043 48.5975 33.7361 48.4136 33.0393 48.1362L31.2345 51.6334L29.4298 55.1305C30.6862 55.6307 32.03 55.9444 33.4494 56.0806L34.4026 52.3799ZM31.2345 51.6334L34.6144 52.3813L36.2438 47.9525L32.864 47.2046L29.4841 46.4566L27.8547 50.8854L31.2345 51.6334ZM32.864 47.2046L30.9352 50.649C31.7655 51.0247 32.6873 51.2802 33.656 51.4505L34.8601 47.7838L36.0642 44.1171C35.4717 44.0129 35.0628 43.8823 34.7927 43.7601L32.864 47.2046ZM34.8601 47.7838L33.656 51.4505C34.7636 51.6452 35.9092 51.6688 37.0807 51.4909L37.1736 47.8161L37.2664 44.1414C36.9145 44.1948 36.5178 44.1968 36.0642 44.1171L34.8601 47.7838ZM37.1736 47.8161L37.0807 51.4909C39.5552 51.1152 41.7888 49.7717 43.4043 47.5205L40.604 45.6841L37.8036 43.8476C37.6998 43.9923 37.6423 44.0261 37.6305 44.0334C37.6132 44.0441 37.5152 44.1036 37.2664 44.1414L37.1736 47.8161ZM40.604 45.6841L43.4306 47.4836C45.0141 45.2317 45.5549 42.5731 45.6196 40.0123L41.9853 40.5641L38.351 41.1159C38.3054 42.9194 37.9253 43.6742 37.7774 43.8846L40.604 45.6841ZM41.9853 40.5641L45.6196 40.0123C45.6823 37.527 45.2493 35.0973 43.7622 33.3525L40.8472 36.0568L37.9321 38.761C38.0662 38.9184 38.392 39.4935 38.351 41.1159L41.9853 40.5641ZM40.8472 36.0568L43.7622 33.3525C42.0891 31.3897 39.5758 30.978 37.0581 31.3603L36.9653 35.035L36.8724 38.7098C37.4077 38.6285 37.6904 38.6675 37.8105 38.6992C37.9045 38.7239 37.9196 38.7464 37.9321 38.761L40.8472 36.0568ZM36.9653 35.035L37.0581 31.3603C35.8498 31.5437 34.6455 31.9114 33.4566 32.4316L34.3658 35.8133L35.2749 39.1951C35.8763 38.932 36.405 38.7808 36.8724 38.7098L36.9653 35.035ZM34.3658 35.8133L33.5506 32.3918C32.4182 32.8551 31.3133 33.4349 30.3241 34.1824L32.1344 37.0344L33.9448 39.8865C34.1416 39.7378 34.5243 39.5035 35.1809 39.2349L34.3658 35.8133ZM32.1344 37.0344L35.7687 36.4826L35.8884 31.746L32.2541 32.2978L28.6198 32.8496L28.5002 37.5863L32.1344 37.0344ZM32.2541 32.2978L33.6653 35.4198C34.1757 35.1128 34.8067 34.8114 35.5808 34.5347L34.9414 31.0458L34.3021 27.5569C33.0854 27.9917 31.9249 28.525 30.8429 29.1759L32.2541 32.2978ZM34.9414 31.0458L35.5808 34.5347C36.3109 34.2738 37.1203 34.0688 38.0175 33.9325L38.1103 30.2578L38.2031 26.583C36.866 26.786 35.5628 27.1064 34.3021 27.5569L34.9414 31.0458ZM38.1103 30.2578L38.0175 33.9325C39.9356 33.6413 41.1365 33.8198 41.8719 34.149L43.79 30.6997L45.708 27.2504C43.5423 26.2811 40.9568 26.1649 38.2031 26.583L38.1103 30.2578ZM43.79 30.6997L41.8719 34.149C42.6332 34.4897 43.1792 35.0394 43.5473 35.9189L46.9318 33.9821L50.3164 32.0453C49.3964 29.8468 47.8478 28.2082 45.708 27.2504L43.79 30.6997ZM46.9318 33.9821L43.5549 35.9368C43.9715 36.915 44.2267 38.302 44.178 40.2311L47.8123 39.6793L51.4466 39.1275C51.5133 36.4869 51.1815 34.0758 50.3088 32.0273L46.9318 33.9821ZM47.8123 39.6793L44.178 40.2311C44.0987 43.3724 43.3387 45.2468 42.4574 46.3627L45.1267 48.3732L47.7959 50.3837C50.3113 47.1989 51.3417 43.2773 51.4466 39.1275L47.8123 39.6793ZM45.1267 48.3732L42.4574 46.3627C41.6159 47.4281 40.3532 48.2761 38.1399 48.6121L38.047 52.2869L37.9542 55.9616C41.7837 55.3802 45.2407 53.619 47.7959 50.3837L45.1267 48.3732ZM53.9657 49.4095L54.9918 45.7166L54.9555 45.7123L54.9189 45.7088L53.9657 49.4095ZM50.7977 48.663L47.4179 47.915L46.2568 51.0708L48.993 52.1601L50.7977 48.663ZM52.4271 44.2342L54.3559 40.7897L50.6554 39.1153L49.0473 43.4862L52.4271 44.2342ZM60.1672 42.7137L62.9675 44.5501L62.9807 44.5317L62.9938 44.5132L60.1672 42.7137ZM60.4103 33.0864L63.3254 30.3821V30.3821L60.4103 33.0864ZM53.9289 32.8429L54.7441 36.2645L54.7913 36.2452L54.8381 36.2247L53.9289 32.8429ZM51.6976 34.064L48.0633 34.6159L47.8982 41.1547L53.508 36.9161L51.6976 34.064ZM51.8173 29.3274L50.4061 26.2055L48.2429 27.5067L48.183 29.8792L51.8173 29.3274ZM63.3531 27.7293L61.4351 31.1786L61.4351 31.1786L63.3531 27.7293ZM66.495 31.0117L63.1105 32.9485L63.1142 32.9575L63.118 32.9664L66.495 31.0117ZM64.6898 45.4028L62.0206 43.3923L62.0206 43.3923L64.6898 45.4028ZM57.6102 49.3165L57.703 45.6417C56.6946 45.7948 55.796 45.812 54.9918 45.7166L53.9657 49.4095L52.9396 53.1024C54.405 53.2762 55.9361 53.2314 57.5174 52.9913L57.6102 49.3165ZM53.9657 49.4095L54.9189 45.7088C54.0675 45.6271 53.2993 45.4432 52.6025 45.1658L50.7977 48.663L48.993 52.1601C50.2493 52.6603 51.5932 52.974 53.0126 53.1102L53.9657 49.4095ZM50.7977 48.663L54.1775 49.4109L55.807 44.9821L52.4271 44.2342L49.0473 43.4862L47.4179 47.915L50.7977 48.663ZM52.4271 44.2342L50.4984 47.6786C51.3286 48.0543 52.2505 48.3098 53.2192 48.4801L54.4233 44.8134L55.6274 41.1467C55.0349 41.0425 54.6259 40.9119 54.3559 40.7897L52.4271 44.2342ZM54.4233 44.8134L53.2192 48.4801C54.3268 48.6748 55.4724 48.6984 56.6439 48.5205L56.7367 44.8457L56.8296 41.171C56.4777 41.2244 56.081 41.2264 55.6274 41.1467L54.4233 44.8134ZM56.7367 44.8457L56.6439 48.5205C59.1183 48.1448 61.352 46.8013 62.9675 44.5501L60.1672 42.7137L57.3668 40.8772C57.263 41.0219 57.2055 41.0557 57.1936 41.063C57.1764 41.0737 57.0783 41.1332 56.8296 41.171L56.7367 44.8457ZM60.1672 42.7137L62.9938 44.5132C64.5773 42.2613 65.1181 39.6027 65.1828 37.0419L61.5485 37.5937L57.9142 38.1455C57.8686 39.949 57.4885 40.7038 57.3406 40.9142L60.1672 42.7137ZM61.5485 37.5937L65.1828 37.0419C65.2455 34.5566 64.8125 32.1269 63.3254 30.3821L60.4103 33.0864L57.4953 35.7906C57.6294 35.948 57.9552 36.5231 57.9142 38.1455L61.5485 37.5937ZM60.4103 33.0864L63.3254 30.3821C61.6523 28.4193 59.139 28.0076 56.6213 28.3899L56.5284 32.0646L56.4356 35.7394C56.9709 35.6581 57.2536 35.6972 57.3737 35.7288C57.4677 35.7535 57.4828 35.776 57.4953 35.7906L60.4103 33.0864ZM56.5284 32.0646L56.6213 28.3899C55.413 28.5733 54.2087 28.941 53.0198 29.4612L53.9289 32.8429L54.8381 36.2247C55.4395 35.9616 55.9682 35.8104 56.4356 35.7394L56.5284 32.0646ZM53.9289 32.8429L53.1137 29.4214C51.9814 29.8847 50.8765 30.4645 49.8873 31.212L51.6976 34.064L53.508 36.9161C53.7048 36.7674 54.0875 36.5331 54.7441 36.2645L53.9289 32.8429ZM51.6976 34.064L55.3319 33.5122L55.4516 28.7756L51.8173 29.3274L48.183 29.8792L48.0633 34.6159L51.6976 34.064ZM51.8173 29.3274L53.2285 32.4494C53.7389 32.1424 54.3699 31.841 55.144 31.5643L54.5046 28.0754L53.8653 24.5865C52.6486 25.0213 51.488 25.5546 50.4061 26.2055L51.8173 29.3274ZM54.5046 28.0754L55.144 31.5643C55.8741 31.3034 56.6835 31.0984 57.5806 30.9621L57.6735 27.2874L57.7663 23.6126C56.4291 23.8156 55.1259 24.136 53.8653 24.5865L54.5046 28.0754ZM57.6735 27.2874L57.5806 30.9621C59.4987 30.6709 60.6996 30.8494 61.4351 31.1786L63.3531 27.7293L65.2711 24.28C63.1055 23.3107 60.5199 23.1945 57.7663 23.6126L57.6735 27.2874ZM63.3531 27.7293L61.4351 31.1786C62.1964 31.5193 62.7424 32.069 63.1105 32.9485L66.495 31.0117L69.8796 29.0749C68.9596 26.8764 67.411 25.2378 65.2711 24.28L63.3531 27.7293ZM66.495 31.0117L63.118 32.9664C63.5347 33.9446 63.7899 35.3316 63.7412 37.2607L67.3755 36.7089L71.0097 36.1571C71.0765 33.5165 70.7447 31.1054 69.872 29.0569L66.495 31.0117ZM67.3755 36.7089L63.7412 37.2607C63.6618 40.402 62.9019 42.2764 62.0206 43.3923L64.6898 45.4028L67.3591 47.4133C69.8745 44.2285 70.9049 40.3069 71.0097 36.1571L67.3755 36.7089ZM64.6898 45.4028L62.0206 43.3923C61.1791 44.4577 59.9163 45.3057 57.703 45.6417L57.6102 49.3165L57.5174 52.9913C61.3469 52.4098 64.8039 50.6486 67.3591 47.4133L64.6898 45.4028ZM73.5289 46.4391L74.555 42.7462L74.5186 42.7419L74.482 42.7384L73.5289 46.4391ZM70.3609 45.6926L66.9811 44.9446L65.82 48.1004L68.5562 49.1897L70.3609 45.6926ZM71.9903 41.2638L73.9191 37.8193L70.2186 36.1449L68.6105 40.5158L71.9903 41.2638ZM79.7303 39.7433L82.5307 41.5797L82.5439 41.5613L82.5569 41.5428L79.7303 39.7433ZM79.9735 30.116L82.8886 27.4117V27.4117L79.9735 30.116ZM73.4921 29.8725L74.3073 33.2941L74.3544 33.2748L74.4013 33.2543L73.4921 29.8725ZM71.2608 31.0936L67.6265 31.6455L67.4614 38.1843L73.0712 33.9457L71.2608 31.0936ZM71.3805 26.357L69.9692 23.2351L67.8061 24.5363L67.7462 26.9088L71.3805 26.357ZM82.9163 24.7589L80.9983 28.2082V28.2082L82.9163 24.7589ZM86.0582 28.0413L82.6736 29.9781L82.6774 29.9871L82.6812 29.996L86.0582 28.0413ZM84.253 42.4324L81.5838 40.4219V40.4219L84.253 42.4324ZM77.1734 46.3461L77.2662 42.6713C76.2578 42.8244 75.3591 42.8416 74.555 42.7462L73.5289 46.4391L72.5028 50.132C73.9682 50.3058 75.4993 50.261 77.0806 50.0209L77.1734 46.3461ZM73.5289 46.4391L74.482 42.7384C73.6306 42.6567 72.8625 42.4728 72.1656 42.1954L70.3609 45.6926L68.5562 49.1897C69.8125 49.6899 71.1563 50.0036 72.5758 50.1398L73.5289 46.4391ZM70.3609 45.6926L73.7407 46.4405L75.3702 42.0117L71.9903 41.2638L68.6105 40.5158L66.9811 44.9446L70.3609 45.6926ZM71.9903 41.2638L70.0615 44.7082C70.8918 45.0839 71.8136 45.3394 72.7824 45.5097L73.9865 41.843L75.1905 38.1763C74.5981 38.0721 74.1891 37.9415 73.9191 37.8193L71.9903 41.2638ZM73.9865 41.843L72.7824 45.5097C73.8899 45.7044 75.0355 45.728 76.2071 45.5501L76.2999 41.8753L76.3927 38.2006C76.0409 38.254 75.6442 38.256 75.1905 38.1763L73.9865 41.843ZM76.2999 41.8753L76.2071 45.5501C78.6815 45.1744 80.9152 43.8309 82.5307 41.5797L79.7303 39.7433L76.93 37.9068C76.8261 38.0515 76.7687 38.0853 76.7568 38.0926C76.7396 38.1033 76.6415 38.1628 76.3927 38.2006L76.2999 41.8753ZM79.7303 39.7433L82.5569 41.5428C84.1405 39.2909 84.6812 36.6323 84.7459 34.0715L81.1116 34.6233L77.4774 35.1751C77.4318 36.9786 77.0517 37.7334 76.9037 37.9438L79.7303 39.7433ZM81.1116 34.6233L84.7459 34.0715C84.8087 31.5862 84.3757 29.1565 82.8886 27.4117L79.9735 30.116L77.0585 32.8202C77.1926 32.9776 77.5183 33.5527 77.4774 35.1751L81.1116 34.6233ZM79.9735 30.116L82.8886 27.4117C81.2155 25.4489 78.7022 25.0372 76.1844 25.4195L76.0916 29.0942L75.9988 32.769C76.5341 32.6877 76.8168 32.7268 76.9369 32.7584C77.0308 32.7831 77.046 32.8056 77.0585 32.8202L79.9735 30.116ZM76.0916 29.0942L76.1844 25.4195C74.9761 25.6029 73.7718 25.9706 72.583 26.4908L73.4921 29.8725L74.4013 33.2543C75.0027 32.9912 75.5314 32.84 75.9988 32.769L76.0916 29.0942ZM73.4921 29.8725L72.6769 26.451C71.5445 26.9143 70.4397 27.4941 69.4505 28.2416L71.2608 31.0936L73.0712 33.9457C73.268 33.797 73.6507 33.5627 74.3073 33.2941L73.4921 29.8725ZM71.2608 31.0936L74.8951 30.5418L75.0147 25.8052L71.3805 26.357L67.7462 26.9088L67.6265 31.6455L71.2608 31.0936ZM71.3805 26.357L72.7917 29.479C73.302 29.172 73.9331 28.8706 74.7072 28.5939L74.0678 25.105L73.4284 21.6161C72.2117 22.0509 71.0512 22.5842 69.9692 23.2351L71.3805 26.357ZM74.0678 25.105L74.7072 28.5939C75.4373 28.333 76.2466 28.128 77.1438 27.9917L77.2366 24.317L77.3295 20.6422C75.9923 20.8452 74.6891 21.1656 73.4284 21.6161L74.0678 25.105ZM77.2366 24.317L77.1438 27.9917C79.0619 27.7005 80.2628 27.879 80.9983 28.2082L82.9163 24.7589L84.8343 21.3096C82.6687 20.3403 80.0831 20.2241 77.3295 20.6422L77.2366 24.317ZM82.9163 24.7589L80.9983 28.2082C81.7596 28.5489 82.3056 29.0986 82.6736 29.9781L86.0582 28.0413L89.4428 26.1045C88.5228 23.906 86.9742 22.2674 84.8343 21.3096L82.9163 24.7589ZM86.0582 28.0413L82.6812 29.996C83.0979 30.9742 83.3531 32.3612 83.3044 34.2903L86.9386 33.7385L90.5729 33.1867C90.6396 30.5461 90.3079 28.135 89.4352 26.0865L86.0582 28.0413ZM86.9386 33.7385L83.3044 34.2903C83.225 37.4316 82.4651 39.306 81.5838 40.4219L84.253 42.4324L86.9223 44.4429C89.4376 41.2581 90.4681 37.3365 90.5729 33.1867L86.9386 33.7385ZM84.253 42.4324L81.5838 40.4219C80.7423 41.4873 79.4795 42.3353 77.2662 42.6713L77.1734 46.3461L77.0806 50.0209C80.9101 49.4394 84.3671 47.6782 86.9223 44.4429L84.253 42.4324ZM93.0921 43.4687L94.1182 39.7758L94.0818 39.7715L94.0452 39.768L93.0921 43.4687ZM89.9241 42.7222L86.5443 41.9742L85.3832 45.13L88.1193 46.2193L89.9241 42.7222ZM91.5535 38.2934L93.4823 34.8489L89.7818 33.1745L88.1737 37.5454L91.5535 38.2934ZM99.2935 36.7729L102.094 38.6093L102.107 38.5909L102.12 38.5724L99.2935 36.7729ZM99.5367 27.1456L102.452 24.4413L102.452 24.4413L99.5367 27.1456ZM93.0553 26.9021L93.8705 30.3237L93.9176 30.3044L93.9645 30.2839L93.0553 26.9021ZM90.824 28.1232L87.1897 28.6751L87.0245 35.2139L92.6343 30.9753L90.824 28.1232ZM90.9436 23.3866L89.5324 20.2647L87.3693 21.5659L87.3094 23.9384L90.9436 23.3866ZM102.479 21.7885L100.561 25.2378V25.2378L102.479 21.7885ZM105.621 25.0709L102.237 27.0077L102.241 27.0167L102.244 27.0256L105.621 25.0709ZM103.816 39.462L101.147 37.4515V37.4515L103.816 39.462ZM96.7366 43.3757L96.8294 39.7009C95.8209 39.854 94.9223 39.8712 94.1182 39.7758L93.0921 43.4687L92.066 47.1616C93.5314 47.3354 95.0624 47.2906 96.6438 47.0505L96.7366 43.3757ZM93.0921 43.4687L94.0452 39.768C93.1938 39.6863 92.4256 39.5024 91.7288 39.225L89.9241 42.7222L88.1193 46.2193C89.3757 46.7195 90.7195 47.0332 92.139 47.1694L93.0921 43.4687ZM89.9241 42.7222L93.3039 43.4701L94.9333 39.0413L91.5535 38.2934L88.1737 37.5454L86.5443 41.9742L89.9241 42.7222ZM91.5535 38.2934L89.6247 41.7378C90.455 42.1135 91.3768 42.369 92.3456 42.5393L93.5496 38.8726L94.7537 35.2059C94.1613 35.1017 93.7523 34.9711 93.4823 34.8489L91.5535 38.2934ZM93.5496 38.8726L92.3456 42.5393C93.4531 42.734 94.5987 42.7576 95.7703 42.5797L95.8631 38.9049L95.9559 35.2302C95.6041 35.2836 95.2074 35.2856 94.7537 35.2059L93.5496 38.8726ZM95.8631 38.9049L95.7703 42.5797C98.2447 42.204 100.478 40.8605 102.094 38.6093L99.2935 36.7729L96.4932 34.9364C96.3893 35.0811 96.3318 35.1149 96.32 35.1222C96.3028 35.1329 96.2047 35.1924 95.9559 35.2302L95.8631 38.9049ZM99.2935 36.7729L102.12 38.5724C103.704 36.3205 104.244 33.6619 104.309 31.1011L100.675 31.6529L97.0405 32.2047C96.995 34.0082 96.6149 34.763 96.4669 34.9734L99.2935 36.7729ZM100.675 31.6529L104.309 31.1011C104.372 28.6158 103.939 26.1861 102.452 24.4413L99.5367 27.1456L96.6216 29.8498C96.7558 30.0072 97.0815 30.5823 97.0405 32.2047L100.675 31.6529ZM99.5367 27.1456L102.452 24.4413C100.779 22.4785 98.2654 22.0668 95.7476 22.4491L95.6548 26.1238L95.562 29.7986C96.0973 29.7173 96.38 29.7564 96.5001 29.788C96.594 29.8127 96.6091 29.8352 96.6216 29.8498L99.5367 27.1456ZM95.6548 26.1238L95.7476 22.4491C94.5393 22.6325 93.335 23.0002 92.1461 23.5204L93.0553 26.9021L93.9645 30.2839C94.5658 30.0208 95.0945 29.8696 95.562 29.7986L95.6548 26.1238ZM93.0553 26.9021L92.2401 23.4806C91.1077 23.9439 90.0029 24.5237 89.0137 25.2712L90.824 28.1232L92.6343 30.9753C92.8312 30.8266 93.2139 30.5923 93.8705 30.3237L93.0553 26.9021ZM90.824 28.1232L94.4583 27.5714L94.5779 22.8348L90.9436 23.3866L87.3094 23.9384L87.1897 28.6751L90.824 28.1232ZM90.9436 23.3866L92.3549 26.5086C92.8652 26.2016 93.4963 25.9002 94.2703 25.6235L93.631 22.1346L92.9916 18.6457C91.7749 19.0805 90.6144 19.6138 89.5324 20.2647L90.9436 23.3866ZM93.631 22.1346L94.2703 25.6235C95.0005 25.3626 95.8098 25.1576 96.707 25.0213L96.7998 21.3466L96.8926 17.6718C95.5555 17.8748 94.2523 18.1952 92.9916 18.6457L93.631 22.1346ZM96.7998 21.3466L96.707 25.0213C98.6251 24.7301 99.826 24.9086 100.561 25.2378L102.479 21.7885L104.398 18.3392C102.232 17.3699 99.6463 17.2537 96.8926 17.6718L96.7998 21.3466ZM102.479 21.7885L100.561 25.2378C101.323 25.5785 101.869 26.1282 102.237 27.0077L105.621 25.0709L109.006 23.1341C108.086 20.9356 106.537 19.297 104.398 18.3392L102.479 21.7885ZM105.621 25.0709L102.244 27.0256C102.661 28.0038 102.916 29.3908 102.868 31.3199L106.502 30.7681L110.136 30.2163C110.203 27.5757 109.871 25.1646 108.998 23.1161L105.621 25.0709ZM106.502 30.7681L102.868 31.3199C102.788 34.4612 102.028 36.3356 101.147 37.4515L103.816 39.462L106.485 41.4725C109.001 38.2877 110.031 34.3661 110.136 30.2163L106.502 30.7681ZM103.816 39.462L101.147 37.4515C100.305 38.5169 99.0427 39.3649 96.8294 39.7009L96.7366 43.3757L96.6438 47.0505C100.473 46.469 103.93 44.7078 106.485 41.4725L103.816 39.462ZM112.655 40.4983L113.681 36.8054L113.645 36.8011L113.608 36.7976L112.655 40.4983ZM109.487 39.7518L106.107 39.0038L104.946 42.1596L107.683 43.2489L109.487 39.7518ZM111.117 35.323L113.045 31.8785L109.345 30.2041L107.737 34.575L111.117 35.323ZM118.857 33.8025L121.657 35.6389L121.67 35.6205L121.683 35.602L118.857 33.8025ZM119.1 24.1752L122.015 21.4709L122.015 21.4709L119.1 24.1752ZM112.618 23.9317L113.434 27.3533L113.481 27.334L113.528 27.3135L112.618 23.9317ZM110.387 25.1528L106.753 25.7047L106.588 32.2435L112.198 28.0049L110.387 25.1528ZM110.507 20.4162L109.096 17.2943L106.932 18.5955L106.873 20.968L110.507 20.4162ZM122.043 18.8181L120.125 22.2674V22.2674L122.043 18.8181ZM125.185 22.1005L121.8 24.0373L121.804 24.0463L121.808 24.0552L125.185 22.1005ZM123.379 36.4916L120.71 34.4811V34.4811L123.379 36.4916ZM116.3 40.4053L116.393 36.7305C115.384 36.8836 114.485 36.9008 113.681 36.8054L112.655 40.4983L111.629 44.1912C113.095 44.365 114.626 44.3202 116.207 44.0801L116.3 40.4053ZM112.655 40.4983L113.608 36.7976C112.757 36.716 111.989 36.532 111.292 36.2546L109.487 39.7518L107.683 43.2489C108.939 43.7491 110.283 44.0628 111.702 44.199L112.655 40.4983ZM109.487 39.7518L112.867 40.4997L114.497 36.0709L111.117 35.323L107.737 34.575L106.107 39.0038L109.487 39.7518ZM111.117 35.323L109.188 38.7674C110.018 39.1431 110.94 39.3986 111.909 39.5689L113.113 35.9022L114.317 32.2355C113.724 32.1313 113.315 32.0007 113.045 31.8785L111.117 35.323ZM113.113 35.9022L111.909 39.5689C113.016 39.7636 114.162 39.7872 115.333 39.6093L115.426 35.9345L115.519 32.2598C115.167 32.3132 114.771 32.3152 114.317 32.2355L113.113 35.9022ZM115.426 35.9345L115.333 39.6093C117.808 39.2336 120.042 37.8901 121.657 35.6389L118.857 33.8025L116.056 31.966C115.953 32.1107 115.895 32.1445 115.883 32.1518C115.866 32.1625 115.768 32.222 115.519 32.2598L115.426 35.9345ZM118.857 33.8025L121.683 35.602C123.267 33.3501 123.808 30.6915 123.872 28.1307L120.238 28.6825L116.604 29.2343C116.558 31.0378 116.178 31.7926 116.03 32.003L118.857 33.8025ZM120.238 28.6825L123.872 28.1307C123.935 25.6454 123.502 23.2157 122.015 21.4709L119.1 24.1752L116.185 26.8794C116.319 27.0368 116.645 27.6119 116.604 29.2343L120.238 28.6825ZM119.1 24.1752L122.015 21.4709C120.342 19.5081 117.829 19.0964 115.311 19.4787L115.218 23.1534L115.125 26.8282C115.66 26.7469 115.943 26.786 116.063 26.8176C116.157 26.8423 116.172 26.8648 116.185 26.8794L119.1 24.1752ZM115.218 23.1534L115.311 19.4787C114.102 19.6621 112.898 20.0298 111.709 20.55L112.618 23.9317L113.528 27.3135C114.129 27.0504 114.658 26.8992 115.125 26.8282L115.218 23.1534ZM112.618 23.9317L111.803 20.5102C110.671 20.9735 109.566 21.5533 108.577 22.3008L110.387 25.1528L112.198 28.0049C112.394 27.8562 112.777 27.6219 113.434 27.3533L112.618 23.9317ZM110.387 25.1528L114.021 24.601L114.141 19.8644L110.507 20.4162L106.873 20.968L106.753 25.7047L110.387 25.1528ZM110.507 20.4162L111.918 23.5382C112.428 23.2312 113.059 22.9298 113.834 22.6531L113.194 19.1642L112.555 15.6753C111.338 16.1101 110.178 16.6434 109.096 17.2943L110.507 20.4162ZM113.194 19.1642L113.834 22.6531C114.564 22.3922 115.373 22.1872 116.27 22.0509L116.363 18.3762L116.456 14.7014C115.119 14.9044 113.815 15.2248 112.555 15.6753L113.194 19.1642ZM116.363 18.3762L116.27 22.0509C118.188 21.7597 119.389 21.9382 120.125 22.2674L122.043 18.8181L123.961 15.3688C121.795 14.3995 119.209 14.2833 116.456 14.7014L116.363 18.3762ZM122.043 18.8181L120.125 22.2674C120.886 22.6081 121.432 23.1578 121.8 24.0373L125.185 22.1005L128.569 20.1637C127.649 17.9652 126.101 16.3266 123.961 15.3688L122.043 18.8181ZM125.185 22.1005L121.808 24.0552C122.224 25.0334 122.479 26.4204 122.431 28.3496L126.065 27.7977L129.699 27.2459C129.766 24.6053 129.434 22.1942 128.562 20.1457L125.185 22.1005ZM126.065 27.7977L122.431 28.3496C122.351 31.4908 121.591 33.3652 120.71 34.4811L123.379 36.4916L126.049 38.5021C128.564 35.3173 129.594 31.3957 129.699 27.2459L126.065 27.7977ZM123.379 36.4916L120.71 34.4811C119.869 35.5465 118.606 36.3945 116.393 36.7305L116.3 40.4053L116.207 44.0801C120.036 43.4986 123.493 41.7374 126.049 38.5021L123.379 36.4916ZM131.167 37.0498L128.514 40.0227L128.532 40.0385L128.55 40.054L131.167 37.0498ZM131.284 32.4276L128.799 30.1982L128.789 30.2087L128.78 30.2193L131.284 32.4276ZM135.855 31.7335L133.255 34.7529L133.255 34.7529L135.855 31.7335ZM136.269 35.6076L133.227 34.1447L133.222 34.1534L133.217 34.1622L136.269 35.6076ZM135.063 36.976L136.836 39.856L136.857 39.84L136.879 39.8238L135.063 36.976ZM140.702 35.602L138.049 38.575L138.067 38.5908L138.084 38.6063L140.702 35.602ZM140.819 30.9798L138.333 28.7504L138.324 28.761L138.315 28.7716L140.819 30.9798ZM145.39 30.2858L142.79 33.3052V33.3052L145.39 30.2858ZM145.804 34.1598L142.762 32.6969L142.757 32.7057L142.752 32.7145L145.804 34.1598ZM144.597 35.5282L146.37 38.4083L146.392 38.3923L146.413 38.3761L144.597 35.5282ZM150.25 34.1523L147.597 37.1252L147.615 37.141L147.633 37.1565L150.25 34.1523ZM150.367 29.5301L147.882 27.3007L147.872 27.3112L147.863 27.3218L150.367 29.5301ZM154.938 28.836L152.338 31.8554V31.8554L154.938 28.836ZM155.352 32.7101L152.31 31.2472L152.305 31.2559L152.3 31.2647L155.352 32.7101ZM154.146 34.0785L155.919 36.9585L155.94 36.9425L155.962 36.9263L154.146 34.0785ZM133.442 37.6579L133.535 33.9832C133.527 33.9844 133.54 33.9818 133.568 33.983C133.598 33.9842 133.634 33.9889 133.674 33.9995C133.713 34.01 133.745 34.0235 133.767 34.0354C133.788 34.047 133.794 34.0533 133.785 34.0455L131.167 37.0498L128.55 40.054C129.831 41.165 131.494 41.6144 133.349 41.3327L133.442 37.6579ZM131.167 37.0498L133.82 34.0769C133.812 34.0689 133.818 34.0736 133.833 34.0936C133.847 34.1141 133.865 34.1438 133.88 34.1815C133.895 34.2193 133.905 34.255 133.91 34.284C133.914 34.3123 133.913 34.3252 133.914 34.3169L130.279 34.8687L126.645 35.4206C126.598 37.2964 127.251 38.8901 128.514 40.0227L131.167 37.0498ZM130.279 34.8687L133.914 34.3169C133.914 34.3132 133.913 34.3307 133.906 34.3657C133.899 34.4013 133.886 34.445 133.866 34.4924C133.824 34.5962 133.778 34.647 133.788 34.6358L131.284 32.4276L128.78 30.2193C127.442 31.7369 126.692 33.5414 126.645 35.4206L130.279 34.8687ZM131.284 32.4276L133.769 34.657C133.779 34.6464 133.773 34.6544 133.751 34.6727C133.728 34.6915 133.695 34.7147 133.655 34.7373C133.615 34.7599 133.578 34.7759 133.548 34.786C133.519 34.7959 133.506 34.7972 133.515 34.796L133.607 31.1212L133.7 27.4464C131.845 27.7281 130.146 28.6879 128.799 30.1982L131.284 32.4276ZM133.607 31.1212L133.515 34.796C133.509 34.7968 133.486 34.7997 133.45 34.7981C133.414 34.7964 133.374 34.7906 133.335 34.78C133.251 34.7571 133.226 34.7275 133.255 34.7529L135.855 31.7335L138.455 28.714C137.194 27.6393 135.559 27.1642 133.7 27.4464L133.607 31.1212ZM135.855 31.7335L133.255 34.7529C133.27 34.7653 133.224 34.7286 133.182 34.6303C133.139 34.5303 133.136 34.4493 133.137 34.4349L136.771 33.8831L140.405 33.3312C140.454 31.418 139.756 29.8224 138.455 28.714L135.855 31.7335ZM136.771 33.8831L133.137 34.4349C133.137 34.4166 133.141 34.3689 133.161 34.3026C133.18 34.2358 133.206 34.1804 133.227 34.1447L136.269 35.6076L139.312 37.0705C140.009 35.8743 140.373 34.6006 140.405 33.3312L136.771 33.8831ZM136.269 35.6076L133.217 34.1622C133.214 34.1662 133.215 34.1654 133.218 34.1612C133.221 34.1569 133.225 34.151 133.231 34.1445C133.237 34.138 133.242 34.1328 133.246 34.1292C133.25 34.1256 133.25 34.1253 133.247 34.1281L135.063 36.976L136.879 39.8238C137.873 39.0704 138.699 38.1335 139.322 37.0529L136.269 35.6076ZM135.063 36.976L133.29 34.0959C133.326 34.0693 133.376 34.0393 133.433 34.0153C133.489 33.9916 133.527 33.9844 133.535 33.9832L133.442 37.6579L133.349 41.3327C134.563 41.1484 135.751 40.6583 136.836 39.856L135.063 36.976ZM142.977 36.2102L143.07 32.5354C143.062 32.5367 143.074 32.5341 143.103 32.5353C143.132 32.5365 143.169 32.5412 143.208 32.5517C143.248 32.5623 143.279 32.5758 143.302 32.5877C143.323 32.5993 143.329 32.6056 143.32 32.5978L140.702 35.602L138.084 38.6063C139.366 39.7173 141.029 40.1667 142.884 39.885L142.977 36.2102ZM140.702 35.602L143.355 32.6291C143.346 32.6212 143.353 32.6259 143.368 32.6459C143.382 32.6663 143.399 32.696 143.415 32.7338C143.43 32.7715 143.439 32.8073 143.444 32.8362C143.449 32.8646 143.448 32.8775 143.448 32.8692L139.814 33.421L136.18 33.9728C136.132 35.8487 136.786 37.4424 138.049 38.575L140.702 35.602ZM139.814 33.421L143.448 32.8692C143.448 32.8654 143.448 32.883 143.441 32.918C143.433 32.9536 143.421 32.9973 143.401 33.0446C143.358 33.1485 143.313 33.1993 143.323 33.1881L140.819 30.9798L138.315 28.7716C136.976 30.2892 136.227 32.0937 136.18 33.9728L139.814 33.421ZM140.819 30.9798L143.304 33.2092C143.314 33.1987 143.308 33.2067 143.285 33.225C143.263 33.2437 143.23 33.267 143.19 33.2896C143.15 33.3122 143.112 33.3282 143.083 33.3383C143.054 33.3482 143.041 33.3495 143.049 33.3482L143.142 29.6735L143.235 25.9987C141.38 26.2804 139.681 27.2402 138.333 28.7504L140.819 30.9798ZM143.142 29.6735L143.049 33.3482C143.044 33.3491 143.021 33.352 142.985 33.3504C142.948 33.3487 142.909 33.3429 142.87 33.3323C142.785 33.3093 142.76 33.2798 142.79 33.3052L145.39 30.2858L147.99 27.2663C146.729 26.1916 145.094 25.7165 143.235 25.9987L143.142 29.6735ZM145.39 30.2858L142.79 33.3052C142.805 33.3176 142.759 33.2809 142.717 33.1826C142.674 33.0826 142.671 33.0016 142.672 32.9871L146.306 32.4353L149.94 31.8835C149.988 29.9703 149.29 28.3747 147.99 27.2663L145.39 30.2858ZM146.306 32.4353L142.672 32.9871C142.672 32.9688 142.676 32.9212 142.695 32.8549C142.715 32.788 142.741 32.7327 142.762 32.6969L145.804 34.1598L148.847 35.6227C149.544 34.4266 149.908 33.1529 149.94 31.8835L146.306 32.4353ZM145.804 34.1598L142.752 32.7145C142.749 32.7184 142.749 32.7177 142.752 32.7135C142.756 32.7092 142.76 32.7033 142.766 32.6968C142.772 32.6903 142.777 32.685 142.781 32.6814C142.785 32.6779 142.785 32.6776 142.782 32.6804L144.597 35.5282L146.413 38.3761C147.408 37.6226 148.234 36.6858 148.857 35.6052L145.804 34.1598ZM144.597 35.5282L142.825 32.6482C142.86 32.6216 142.91 32.5916 142.968 32.5676C143.024 32.5439 143.062 32.5367 143.07 32.5354L142.977 36.2102L142.884 39.885C144.098 39.7007 145.286 39.2106 146.37 38.4083L144.597 35.5282ZM152.525 34.7604L152.618 31.0857C152.61 31.0869 152.623 31.0843 152.651 31.0855C152.681 31.0867 152.717 31.0914 152.757 31.102C152.796 31.1125 152.828 31.126 152.85 31.1379C152.871 31.1495 152.877 31.1558 152.868 31.148L150.25 34.1523L147.633 37.1565C148.914 38.2675 150.577 38.7169 152.433 38.4352L152.525 34.7604ZM150.25 34.1523L152.903 31.1794C152.895 31.1714 152.902 31.1761 152.916 31.1961C152.93 31.2166 152.948 31.2463 152.963 31.284C152.979 31.3218 152.988 31.3575 152.993 31.3865C152.997 31.4148 152.996 31.4277 152.997 31.4194L149.362 31.9712L145.728 32.5231C145.681 34.3989 146.335 35.9926 147.597 37.1252L150.25 34.1523ZM149.362 31.9712L152.997 31.4194C152.997 31.4157 152.997 31.4332 152.989 31.4682C152.982 31.5038 152.969 31.5475 152.949 31.5949C152.907 31.6987 152.861 31.7495 152.871 31.7383L150.367 29.5301L147.863 27.3218C146.525 28.8394 145.776 30.6439 145.728 32.5231L149.362 31.9712ZM150.367 29.5301L152.853 31.7595C152.862 31.7489 152.856 31.7569 152.834 31.7752C152.811 31.794 152.778 31.8172 152.738 31.8398C152.698 31.8624 152.661 31.8784 152.631 31.8885C152.602 31.8984 152.589 31.8997 152.598 31.8985L152.69 28.2237L152.783 24.5489C150.928 24.8306 149.23 25.7904 147.882 27.3007L150.367 29.5301ZM152.69 28.2237L152.598 31.8985C152.592 31.8993 152.569 31.9022 152.533 31.9006C152.497 31.8989 152.457 31.8931 152.418 31.8825C152.334 31.8596 152.309 31.83 152.338 31.8554L154.938 28.836L157.538 25.8165C156.277 24.7418 154.642 24.2667 152.783 24.5489L152.69 28.2237ZM154.938 28.836L152.338 31.8554C152.353 31.8678 152.307 31.8311 152.265 31.7328C152.222 31.6328 152.219 31.5519 152.22 31.5374L155.854 30.9856L159.488 30.4337C159.537 28.5205 158.839 26.9249 157.538 25.8165L154.938 28.836ZM155.854 30.9856L152.22 31.5374C152.22 31.5191 152.224 31.4714 152.244 31.4051C152.263 31.3383 152.289 31.2829 152.31 31.2472L155.352 32.7101L158.395 34.173C159.092 32.9768 159.456 31.7031 159.488 30.4337L155.854 30.9856ZM155.352 32.7101L152.3 31.2647C152.298 31.2687 152.298 31.2679 152.301 31.2637C152.304 31.2594 152.308 31.2535 152.314 31.247C152.32 31.2405 152.325 31.2353 152.329 31.2317C152.333 31.2281 152.334 31.2278 152.33 31.2306L154.146 34.0785L155.962 36.9263C156.956 36.1729 157.782 35.236 158.405 34.1554L155.352 32.7101ZM154.146 34.0785L152.373 31.1984C152.409 31.1718 152.459 31.1418 152.516 31.1178C152.572 31.0941 152.61 31.0869 152.618 31.0857L152.525 34.7604L152.433 38.4352C153.646 38.2509 154.834 37.7608 155.919 36.9585L154.146 34.0785ZM167.442 4.242L171.073 3.7903L171.27 0.000210495L167.535 0.567237L167.442 4.242ZM166.42 23.9322L166.327 27.607L169.864 27.07L170.05 23.4805L166.42 23.9322ZM161.47 24.6838L157.834 25.3379L157.843 28.8952L161.377 28.3586L161.47 24.6838ZM161.424 5.15581L161.517 1.48105L157.78 2.04847L157.789 5.80988L161.424 5.15581ZM161.449 32.452L158.813 35.4406L158.822 35.4484L158.831 35.4562L161.449 32.452ZM160.561 30.2709L164.194 29.7563L164.195 29.7189L164.196 29.6817L160.561 30.2709ZM161.565 27.8298L164.051 30.0592L164.051 30.0592L161.565 27.8298ZM166.123 27.1377L163.523 30.1572V30.1572L166.123 27.1377ZM167.052 29.2852L170.685 28.7892L170.687 28.7425L170.687 28.696L167.052 29.2852ZM166.537 31.0118L163.495 29.5489L163.49 29.5577L163.485 29.5665L166.537 31.0118ZM165.331 32.3802L167.103 35.2603L167.125 35.2443L167.146 35.2281L165.331 32.3802ZM167.442 4.242L163.812 4.69371L162.789 24.3839L166.42 23.9322L170.05 23.4805L171.073 3.7903L167.442 4.242ZM166.42 23.9322L166.512 20.2575L161.563 21.0091L161.47 24.6838L161.377 28.3586L166.327 27.607L166.42 23.9322ZM161.47 24.6838L165.105 24.0298L165.06 4.50175L161.424 5.15581L157.789 5.80988L157.834 25.3379L161.47 24.6838ZM161.424 5.15581L161.331 8.83058L167.35 7.91677L167.442 4.242L167.535 0.567237L161.517 1.48105L161.424 5.15581ZM163.724 33.0601L163.816 29.3854C163.808 29.3866 163.821 29.384 163.85 29.3852C163.879 29.3864 163.916 29.3911 163.955 29.4017C163.994 29.4122 164.026 29.4257 164.048 29.4376C164.07 29.4492 164.075 29.4555 164.066 29.4477L161.449 32.452L158.831 35.4562C160.113 36.5672 161.776 37.0166 163.631 36.7349L163.724 33.0601ZM161.449 32.452L164.084 29.4633C164.072 29.4527 164.116 29.4899 164.155 29.5847C164.172 29.628 164.183 29.6699 164.189 29.7054C164.195 29.7402 164.194 29.7592 164.194 29.7563L160.561 30.2709L156.927 30.7856C156.86 32.6941 157.527 34.3066 158.813 35.4406L161.449 32.452ZM160.561 30.2709L164.196 29.6817C164.195 29.6939 164.19 29.7776 164.141 29.8956C164.093 30.0122 164.042 30.0695 164.051 30.0592L161.565 27.8298L159.08 25.6004C157.718 27.1263 156.955 28.9538 156.926 30.8602L160.561 30.2709ZM161.565 27.8298L164.051 30.0592C164.06 30.0486 164.054 30.0566 164.032 30.0749C164.009 30.0936 163.977 30.1169 163.936 30.1395C163.896 30.1621 163.859 30.1781 163.829 30.1882C163.8 30.1981 163.788 30.1994 163.796 30.1982L163.889 26.5234L163.982 22.8486C162.126 23.1303 160.428 24.0901 159.08 25.6004L161.565 27.8298ZM163.889 26.5234L163.796 30.1982C163.786 30.1997 163.759 30.2027 163.72 30.2009C163.68 30.1991 163.639 30.1928 163.599 30.1818C163.514 30.1583 163.49 30.1289 163.523 30.1572L166.123 27.1377L168.723 24.1183C167.47 23.0504 165.842 22.5661 163.982 22.8486L163.889 26.5234ZM166.123 27.1377L163.523 30.1572C163.541 30.1722 163.499 30.1403 163.46 30.0499C163.442 30.0085 163.43 29.9673 163.424 29.9313C163.42 29.914 163.419 29.8999 163.418 29.8897C163.417 29.8796 163.417 29.8743 163.417 29.8745L167.052 29.2852L170.687 28.696C170.716 26.7992 170.015 25.2193 168.723 24.1183L166.123 27.1377ZM167.052 29.2852L163.42 29.7813C163.42 29.7711 163.424 29.7334 163.44 29.6782C163.457 29.6225 163.478 29.5769 163.495 29.5489L166.537 31.0118L169.58 32.4747C170.266 31.2965 170.635 30.0428 170.685 28.7892L167.052 29.2852ZM166.537 31.0118L163.485 29.5665C163.482 29.5704 163.482 29.5697 163.486 29.5654C163.489 29.5611 163.493 29.5553 163.499 29.5488C163.505 29.5422 163.51 29.537 163.514 29.5334C163.518 29.5299 163.518 29.5296 163.515 29.5323L165.331 32.3802L167.146 35.2281C168.141 34.4746 168.967 33.5377 169.59 32.4572L166.537 31.0118ZM165.331 32.3802L163.558 29.5002C163.589 29.4769 163.637 29.4472 163.696 29.4222C163.755 29.3973 163.799 29.388 163.816 29.3854L163.724 33.0601L163.631 36.7349C164.846 36.5503 166.028 36.0557 167.103 35.2603L165.331 32.3802Z" fill="white" mask="url(#path-1-outside-1_2004_212)"/>
</svg>
