<svg width="90" height="91" viewBox="0 0 90 91" fill="none" xmlns="http://www.w3.org/2000/svg">
<g filter="url(#filter0_di_1648_364)">
<path d="M36.7655 2.58311C41.8898 0.904889 47.4158 0.904889 52.5402 2.58311V2.58311C53.7422 2.97677 54.972 3.27989 56.2193 3.48992V3.48992C61.5365 4.38532 66.4296 6.95339 70.187 10.8208V10.8208C71.0684 11.7279 72.0165 12.5679 73.0233 13.3335V13.3335C77.3154 16.5974 80.4545 21.1452 81.9843 26.3158V26.3158C82.3432 27.5286 82.7923 28.7129 83.328 29.8587V29.8587C85.6116 34.7434 86.2777 40.2291 85.2294 45.5184V45.5184C84.9835 46.7591 84.8308 48.0164 84.7727 49.2799V49.2799C84.5247 54.6664 82.5652 59.8333 79.1789 64.0295V64.0295C78.3846 65.0138 77.665 66.0562 77.0264 67.148V67.148C74.3036 71.8022 70.1673 75.4666 65.2189 77.6085V77.6085C64.0581 78.1109 62.9366 78.6995 61.8637 79.3694V79.3694C57.2899 82.2252 51.9245 83.5477 46.5474 83.1445V83.1445C45.2861 83.05 44.0195 83.05 42.7582 83.1445V83.1445C37.3812 83.5477 32.0157 82.2252 27.442 79.3694V79.3694C26.3691 78.6995 25.2476 78.1109 24.0868 77.6085V77.6085C19.1383 75.4666 15.002 71.8022 12.2793 67.148V67.148C11.6406 66.0562 10.9211 65.0138 10.1268 64.0295V64.0295C6.74051 59.8333 4.78095 54.6664 4.533 49.28V49.28C4.47484 48.0164 4.32217 46.7591 4.07627 45.5184V45.5184C3.02795 40.2291 3.69404 34.7434 5.97769 29.8587V29.8587C6.51337 28.7129 6.96252 27.5286 7.32136 26.3158V26.3158C8.85116 21.1452 11.9903 16.5974 16.2824 13.3335V13.3335C17.2892 12.5679 18.2373 11.7279 19.1186 10.8208V10.8208C22.8761 6.95339 27.7691 4.38532 33.0864 3.48992V3.48992C34.3337 3.27989 35.5635 2.97677 36.7655 2.58311V2.58311Z" fill="#151F6D"/>
</g>
<path d="M37.6059 53H34.2321L41.8129 31.9342H45.485L53.0659 53H49.692L43.7364 35.7606H43.5718L37.6059 53ZM38.1717 44.7506H49.116V47.425H38.1717V44.7506Z" fill="white"/>
<circle cx="44.1528" cy="43" r="31.5" stroke="url(#paint0_linear_1648_364)" stroke-width="3"/>
<defs>
<filter id="filter0_di_1648_364" x="-0.000152349" y="1.32422" width="89.306" height="89.077" filterUnits="userSpaceOnUse" color-interpolation-filters="sRGB">
<feFlood flood-opacity="0" result="BackgroundImageFix"/>
<feColorMatrix in="SourceAlpha" type="matrix" values="0 0 0 0 0 0 0 0 0 0 0 0 0 0 0 0 0 0 127 0" result="hardAlpha"/>
<feOffset dy="3.59293"/>
<feGaussianBlur stdDeviation="1.79646"/>
<feComposite in2="hardAlpha" operator="out"/>
<feColorMatrix type="matrix" values="0 0 0 0 0 0 0 0 0 0 0 0 0 0 0 0 0 0 0.25 0"/>
<feBlend mode="normal" in2="BackgroundImageFix" result="effect1_dropShadow_1648_364"/>
<feBlend mode="normal" in="SourceGraphic" in2="effect1_dropShadow_1648_364" result="shape"/>
<feColorMatrix in="SourceAlpha" type="matrix" values="0 0 0 0 0 0 0 0 0 0 0 0 0 0 0 0 0 0 127 0" result="hardAlpha"/>
<feOffset dy="3.59293"/>
<feGaussianBlur stdDeviation="0.898231"/>
<feComposite in2="hardAlpha" operator="arithmetic" k2="-1" k3="1"/>
<feColorMatrix type="matrix" values="0 0 0 0 1 0 0 0 0 1 0 0 0 0 1 0 0 0 0.3 0"/>
<feBlend mode="normal" in2="shape" result="effect2_innerShadow_1648_364"/>
</filter>
<linearGradient id="paint0_linear_1648_364" x1="44.1528" y1="37.5" x2="44.1528" y2="76" gradientUnits="userSpaceOnUse">
<stop stop-color="#FFFBEB"/>
<stop offset="1" stop-color="#FFFBEB" stop-opacity="0"/>
</linearGradient>
</defs>
</svg>
