<svg width="90" height="91" viewBox="0 0 90 91" fill="none" xmlns="http://www.w3.org/2000/svg">
<g filter="url(#filter0_di_1648_402)">
<path d="M36.7655 2.58311C41.8898 0.904889 47.4158 0.904889 52.5402 2.58311V2.58311C53.7422 2.97677 54.972 3.27989 56.2193 3.48992V3.48992C61.5365 4.38532 66.4296 6.95339 70.187 10.8208V10.8208C71.0684 11.7279 72.0165 12.5679 73.0233 13.3335V13.3335C77.3154 16.5974 80.4545 21.1452 81.9843 26.3158V26.3158C82.3432 27.5286 82.7923 28.7129 83.328 29.8587V29.8587C85.6116 34.7434 86.2777 40.2291 85.2294 45.5184V45.5184C84.9835 46.7591 84.8308 48.0164 84.7727 49.2799V49.2799C84.5247 54.6664 82.5652 59.8333 79.1789 64.0295V64.0295C78.3846 65.0138 77.665 66.0562 77.0264 67.148V67.148C74.3036 71.8022 70.1673 75.4666 65.2189 77.6085V77.6085C64.0581 78.1109 62.9366 78.6995 61.8637 79.3694V79.3694C57.2899 82.2252 51.9245 83.5477 46.5474 83.1445V83.1445C45.2861 83.05 44.0195 83.05 42.7582 83.1445V83.1445C37.3812 83.5477 32.0157 82.2252 27.442 79.3694V79.3694C26.3691 78.6995 25.2476 78.1109 24.0868 77.6085V77.6085C19.1383 75.4666 15.002 71.8022 12.2793 67.148V67.148C11.6406 66.0562 10.9211 65.0138 10.1268 64.0295V64.0295C6.74051 59.8333 4.78095 54.6664 4.533 49.28V49.28C4.47484 48.0164 4.32217 46.7591 4.07627 45.5184V45.5184C3.02795 40.2291 3.69404 34.7434 5.97769 29.8587V29.8587C6.51337 28.7129 6.96252 27.5286 7.32136 26.3158V26.3158C8.85116 21.1452 11.9903 16.5974 16.2824 13.3335V13.3335C17.2892 12.5679 18.2373 11.7279 19.1186 10.8208V10.8208C22.8761 6.95339 27.7691 4.38532 33.0864 3.48992V3.48992C34.3337 3.27989 35.5635 2.97677 36.7655 2.58311V2.58311Z" fill="#FFB500"/>
</g>
<path d="M36.4912 53V31.9342H44.2057C45.7006 31.9342 46.9384 32.181 47.919 32.6748C48.8996 33.1616 49.6333 33.8234 50.1202 34.66C50.6071 35.4897 50.8505 36.4257 50.8505 37.4681C50.8505 38.3458 50.6893 39.0864 50.3671 39.6899C50.0448 40.2864 49.6127 40.7665 49.071 41.1299C48.5361 41.4865 47.9464 41.7471 47.3018 41.9116V42.1174C48.0013 42.1516 48.6836 42.3779 49.3487 42.7962C50.0208 43.2077 50.5762 43.794 51.0151 44.5552C51.4539 45.3163 51.6734 46.2421 51.6734 47.3324C51.6734 48.409 51.4197 49.3759 50.9122 50.2331C50.4116 51.0834 49.6367 51.7588 48.5876 52.2594C47.5384 52.7531 46.1978 53 44.5657 53H36.4912ZM39.6696 50.2742H44.2571C45.7795 50.2742 46.8698 49.9793 47.5281 49.3896C48.1864 48.7999 48.5156 48.0627 48.5156 47.1781C48.5156 46.5129 48.3476 45.9026 48.0115 45.3472C47.6755 44.7917 47.1955 44.3494 46.5715 44.0203C45.9543 43.6911 45.2206 43.5265 44.3703 43.5265H39.6696V50.2742ZM39.6696 41.0476H43.928C44.6412 41.0476 45.2823 40.9105 45.8515 40.6362C46.4275 40.3619 46.8835 39.9779 47.2195 39.4841C47.5624 38.9835 47.7338 38.3938 47.7338 37.7149C47.7338 36.844 47.4287 36.1137 46.8184 35.524C46.2081 34.9343 45.272 34.6394 44.0103 34.6394H39.6696V41.0476Z" fill="#151F6D"/>
<circle cx="44.1528" cy="43" r="31.5" stroke="url(#paint0_linear_1648_402)" stroke-width="3"/>
<defs>
<filter id="filter0_di_1648_402" x="-0.000152349" y="1.32422" width="89.3065" height="89.077" filterUnits="userSpaceOnUse" color-interpolation-filters="sRGB">
<feFlood flood-opacity="0" result="BackgroundImageFix"/>
<feColorMatrix in="SourceAlpha" type="matrix" values="0 0 0 0 0 0 0 0 0 0 0 0 0 0 0 0 0 0 127 0" result="hardAlpha"/>
<feOffset dy="3.59293"/>
<feGaussianBlur stdDeviation="1.79646"/>
<feComposite in2="hardAlpha" operator="out"/>
<feColorMatrix type="matrix" values="0 0 0 0 0 0 0 0 0 0 0 0 0 0 0 0 0 0 0.25 0"/>
<feBlend mode="normal" in2="BackgroundImageFix" result="effect1_dropShadow_1648_402"/>
<feBlend mode="normal" in="SourceGraphic" in2="effect1_dropShadow_1648_402" result="shape"/>
<feColorMatrix in="SourceAlpha" type="matrix" values="0 0 0 0 0 0 0 0 0 0 0 0 0 0 0 0 0 0 127 0" result="hardAlpha"/>
<feOffset dy="3.59293"/>
<feGaussianBlur stdDeviation="0.898231"/>
<feComposite in2="hardAlpha" operator="arithmetic" k2="-1" k3="1"/>
<feColorMatrix type="matrix" values="0 0 0 0 1 0 0 0 0 1 0 0 0 0 1 0 0 0 0.3 0"/>
<feBlend mode="normal" in2="shape" result="effect2_innerShadow_1648_402"/>
</filter>
<linearGradient id="paint0_linear_1648_402" x1="44.1528" y1="37.5" x2="44.1528" y2="76" gradientUnits="userSpaceOnUse">
<stop stop-color="#151F6D"/>
<stop offset="1" stop-color="#151F6D" stop-opacity="0"/>
</linearGradient>
</defs>
</svg>
