<svg width="24" height="51" viewBox="0 0 24 51" fill="none" xmlns="http://www.w3.org/2000/svg">
<path d="M16.5425 0.69515C19.472 1.36675 20.9648 1.7048 21.7542 1.91487C22.1429 2.01829 22.4009 2.10078 22.5836 2.1908C22.8057 2.30032 22.9116 2.41901 22.9998 2.525C23.2154 2.78433 23.2661 3.12035 23.273 3.38047C23.2803 3.65683 23.2394 3.94936 23.1872 4.20648C23.1344 4.46682 23.0653 4.71095 23.0053 4.89715C22.9753 4.9904 22.9467 5.07164 22.9224 5.13561C22.9048 5.18189 22.8745 5.26134 22.8401 5.3191C22.7806 5.41896 22.7622 5.47952 22.755 5.51496C22.7469 5.55475 22.7457 5.59001 22.7467 5.67739C22.7476 5.76064 22.7503 5.8947 22.7175 6.05247C22.6839 6.21427 22.619 6.37957 22.5104 6.56097C22.5046 6.57062 22.5026 6.56983 22.5045 6.5997C22.5061 6.62519 22.5098 6.65497 22.5187 6.71219C22.5266 6.76238 22.5389 6.83738 22.5444 6.91851C22.5565 7.09702 22.5383 7.30818 22.4261 7.54165C22.3282 7.74546 22.1694 7.93712 21.9515 8.13291C21.935 8.17716 21.9143 8.24969 21.8903 8.35533C21.8423 8.56626 21.7939 8.86076 21.7465 9.2201C21.652 9.93606 21.5677 10.8658 21.4962 11.803C21.3531 13.6784 21.2656 15.5469 21.2617 15.7242C21.2203 17.5971 21.6612 18.6869 21.9786 20.0967C22.2992 21.521 22.4374 23.1081 21.712 25.7692C20.6918 29.5119 20.7711 29.5067 16.8314 46.5757C16.6223 47.4819 16.4128 48.9019 14.7923 49.5598C14.0195 49.8735 12.9675 49.9981 11.5189 49.8812C10.066 49.7639 8.1788 49.4005 5.71264 48.7061L5.70239 48.7027C4.87131 48.4497 3.66364 48.0699 2.63339 47.4858C1.6209 46.9118 0.637852 46.0593 0.505137 44.8058C0.490651 44.6683 0.509819 44.4833 0.532953 44.3102C0.558612 44.1183 0.598735 43.8769 0.651152 43.5959C0.756233 43.0324 0.913764 42.2876 1.10688 41.414C1.49337 39.6655 2.02893 37.3827 2.59747 34.9679C3.73716 30.1272 5.0048 24.7681 5.4807 22.0441C5.95246 19.3435 6.82354 17.9542 7.78214 16.7605C8.72736 15.5834 9.65845 14.694 10.4172 12.8713C10.6362 12.3455 12.5463 7.75575 12.9612 6.47203C13.0174 6.29821 12.9775 6.23506 12.8973 5.88717C12.8594 5.72241 12.8252 5.51677 12.8501 5.26906C12.8749 5.02199 12.9548 4.76079 13.1067 4.47132C13.1484 4.39189 13.1574 4.34949 13.1602 4.3303C13.1636 4.307 13.164 4.28597 13.1589 4.21378C13.1541 4.14566 13.1444 4.02491 13.1662 3.88175C13.1887 3.73404 13.2403 3.58509 13.3276 3.42386C13.3666 3.35168 13.4064 3.21774 13.4469 2.99638C13.4896 2.76358 13.5138 2.56209 13.5619 2.27429C13.605 2.01631 13.6623 1.73089 13.7592 1.46891C13.8555 1.20847 14.0055 0.929766 14.2599 0.725301L14.3459 0.664924C14.5521 0.539926 14.7976 0.511922 14.9633 0.503292C15.1827 0.491872 15.4223 0.509583 15.6364 0.534857C16.0665 0.58566 16.4651 0.677406 16.5415 0.694931L16.5425 0.69515ZM20.0679 8.13159C19.1387 7.99153 17.4103 7.68958 14.2809 6.78156L14.2807 6.78251C14.2765 6.78142 14.2728 6.77888 14.2687 6.77776C14.2041 7.01671 14.1096 7.29824 14.006 7.58012C13.8316 8.0548 13.6085 8.60958 13.3914 9.14127C13.1726 9.67731 12.9614 10.1874 12.8047 10.5856C12.7529 10.7172 12.7098 10.834 12.6739 10.9323C12.8661 11.0036 13.1333 11.0905 13.4625 11.1848C14.191 11.3934 15.1718 11.6353 16.1734 11.8634C17.1737 12.0912 18.1876 12.3038 18.9804 12.4549C19.3773 12.5305 19.7153 12.5894 19.9668 12.6276C20.001 12.6328 20.0338 12.6357 20.0641 12.64C20.0732 12.5834 20.0839 12.5184 20.0931 12.4442C20.1401 12.0651 20.1756 11.5444 20.2137 10.9699C20.2513 10.4031 20.2915 9.7889 20.3469 9.24492C20.3852 8.86973 20.4339 8.50175 20.5012 8.19517C20.3857 8.1782 20.2517 8.15929 20.0679 8.13159Z" fill="#FF8200" stroke="#FF8200"/>
</svg>
