<svg width="90" height="91" viewBox="0 0 90 91" fill="none" xmlns="http://www.w3.org/2000/svg">
<g filter="url(#filter0_di_1648_439)">
<path d="M36.766 2.58311C41.8903 0.904889 47.4163 0.904889 52.5406 2.58311V2.58311C53.7427 2.97677 54.9725 3.27989 56.2197 3.48992V3.48992C61.537 4.38532 66.4301 6.95339 70.1875 10.8208V10.8208C71.0689 11.7279 72.017 12.5679 73.0238 13.3335V13.3335C77.3159 16.5974 80.455 21.1452 81.9848 26.3158V26.3158C82.3436 27.5286 82.7928 28.7129 83.3285 29.8587V29.8587C85.6121 34.7434 86.2782 40.2291 85.2299 45.5184V45.5184C84.984 46.7591 84.8313 48.0164 84.7731 49.2799V49.2799C84.5252 54.6664 82.5656 59.8333 79.1794 64.0295V64.0295C78.3851 65.0138 77.6655 66.0562 77.0269 67.148V67.148C74.3041 71.8022 70.1678 75.4666 65.2194 77.6085V77.6085C64.0586 78.1109 62.9371 78.6995 61.8642 79.3694V79.3694C57.2904 82.2252 51.925 83.5477 46.5479 83.1445V83.1445C45.2866 83.05 44.02 83.05 42.7587 83.1445V83.1445C37.3817 83.5477 32.0162 82.2252 27.4425 79.3694V79.3694C26.3696 78.6995 25.248 78.1109 24.0873 77.6085V77.6085C19.1388 75.4666 15.0025 71.8022 12.2798 67.148V67.148C11.6411 66.0562 10.9216 65.0138 10.1273 64.0295V64.0295C6.74099 59.8333 4.78144 54.6664 4.53349 49.28V49.28C4.47533 48.0164 4.32266 46.7591 4.07675 45.5184V45.5184C3.02844 40.2291 3.69453 34.7434 5.97818 29.8587V29.8587C6.51386 28.7129 6.963 27.5286 7.32185 26.3158V26.3158C8.85165 21.1452 11.9908 16.5974 16.2829 13.3335V13.3335C17.2897 12.5679 18.2377 11.7279 19.1191 10.8208V10.8208C22.8766 6.95339 27.7696 4.38532 33.0869 3.48992V3.48992C34.3342 3.27989 35.564 2.97677 36.766 2.58311V2.58311Z" fill="#FF6121"/>
</g>
<path d="M52.8143 38.7847H49.6051C49.4817 38.0989 49.2519 37.4955 48.9159 36.9743C48.5799 36.4532 48.1685 36.0109 47.6816 35.6474C47.1947 35.284 46.6496 35.0097 46.0461 34.8245C45.4495 34.6394 44.8152 34.5468 44.1432 34.5468C42.9294 34.5468 41.8425 34.852 40.8825 35.4623C39.9293 36.0726 39.175 36.9675 38.6196 38.1469C38.071 39.3264 37.7967 40.7665 37.7967 42.4671C37.7967 44.1814 38.071 45.6283 38.6196 46.8078C39.175 47.9873 39.9328 48.8787 40.8928 49.4822C41.8528 50.0856 42.9329 50.3873 44.1329 50.3873C44.7981 50.3873 45.4289 50.2982 46.0255 50.1199C46.629 49.9348 47.1741 49.6639 47.661 49.3073C48.1479 48.9507 48.5593 48.5153 48.8953 48.001C49.2382 47.4798 49.4748 46.8832 49.6051 46.2112L52.8143 46.2215C52.6429 47.257 52.3103 48.2101 51.8166 49.081C51.3297 49.945 50.7023 50.6925 49.9342 51.3234C49.1731 51.9474 48.3022 52.4308 47.3216 52.7737C46.341 53.1166 45.2712 53.288 44.1123 53.288C42.2883 53.288 40.6631 52.856 39.2367 51.992C37.8104 51.1211 36.6858 49.8765 35.8629 48.2581C35.0469 46.6398 34.6389 44.7094 34.6389 42.4671C34.6389 40.2179 35.0503 38.2875 35.8732 36.676C36.6961 35.0577 37.8207 33.8165 39.247 32.9525C40.6734 32.0816 42.2951 31.6462 44.1123 31.6462C45.2301 31.6462 46.2724 31.8073 47.2393 32.1296C48.213 32.445 49.0874 32.9113 49.8622 33.5285C50.6371 34.1388 51.2783 34.8863 51.7857 35.7709C52.2932 36.6486 52.636 37.6532 52.8143 38.7847Z" fill="white"/>
<circle cx="44.1533" cy="43" r="31.5" stroke="url(#paint0_linear_1648_439)" stroke-width="3"/>
<defs>
<filter id="filter0_di_1648_439" x="-0.000152349" y="1.32422" width="89.3069" height="89.077" filterUnits="userSpaceOnUse" color-interpolation-filters="sRGB">
<feFlood flood-opacity="0" result="BackgroundImageFix"/>
<feColorMatrix in="SourceAlpha" type="matrix" values="0 0 0 0 0 0 0 0 0 0 0 0 0 0 0 0 0 0 127 0" result="hardAlpha"/>
<feOffset dy="3.59293"/>
<feGaussianBlur stdDeviation="1.79646"/>
<feComposite in2="hardAlpha" operator="out"/>
<feColorMatrix type="matrix" values="0 0 0 0 0 0 0 0 0 0 0 0 0 0 0 0 0 0 0.25 0"/>
<feBlend mode="normal" in2="BackgroundImageFix" result="effect1_dropShadow_1648_439"/>
<feBlend mode="normal" in="SourceGraphic" in2="effect1_dropShadow_1648_439" result="shape"/>
<feColorMatrix in="SourceAlpha" type="matrix" values="0 0 0 0 0 0 0 0 0 0 0 0 0 0 0 0 0 0 127 0" result="hardAlpha"/>
<feOffset dy="3.59293"/>
<feGaussianBlur stdDeviation="0.898231"/>
<feComposite in2="hardAlpha" operator="arithmetic" k2="-1" k3="1"/>
<feColorMatrix type="matrix" values="0 0 0 0 1 0 0 0 0 1 0 0 0 0 1 0 0 0 0.3 0"/>
<feBlend mode="normal" in2="shape" result="effect2_innerShadow_1648_439"/>
</filter>
<linearGradient id="paint0_linear_1648_439" x1="44.1533" y1="37.5" x2="44.1533" y2="76" gradientUnits="userSpaceOnUse">
<stop stop-color="#FFFBEB"/>
<stop offset="1" stop-color="#FFFBEB" stop-opacity="0"/>
</linearGradient>
</defs>
</svg>
