<svg width="33" height="33" viewBox="0 0 33 33" fill="none" xmlns="http://www.w3.org/2000/svg">
<path d="M3.65847 8.93053C3.64048 8.82448 3.73775 8.67479 3.74288 8.54969C3.76537 8.02562 3.83281 7.83144 3.87105 7.35727C3.89202 7.09772 3.88783 6.64958 3.90819 6.1875C3.90472 5.29698 4.5561 4.51164 5.16268 4.30599C5.78078 4.07631 6.20311 4.27353 6.1875 4.47583C6.1875 4.47585 6.1875 4.47586 6.1875 4.47588C6.1875 4.48251 6.18717 4.48921 6.18651 4.49599C6.16678 4.61949 5.92089 4.78378 5.92742 4.93747C5.93414 5.08481 6.10638 6.01005 6.12736 6.0634C6.13096 6.11537 5.99283 6.07756 5.92512 6.1875C5.90198 6.31796 5.88615 6.4219 5.88906 6.47509C5.89643 6.60835 5.98192 6.77242 5.9971 6.94282C6.04602 7.49225 5.9835 7.77974 6.21572 8.27475C6.09335 8.47275 5.97097 8.67075 5.8486 8.86876C5.90534 9.12709 5.74394 9.51864 5.75283 9.67559C5.76014 9.80434 5.85691 9.8798 5.86141 10.014C5.867 10.1645 5.76255 10.3957 5.77828 10.6694C5.80359 11.1183 6.05604 11.1981 6.0881 11.4674C6.12127 11.7467 5.98407 12.181 6.0729 12.5373C6.10067 12.582 6.12844 12.6267 6.15621 12.6714C6.21902 12.6394 6.28182 12.6074 6.34463 12.5754C6.37387 12.7548 6.24515 12.832 6.24282 12.9969C6.24001 13.191 6.36204 13.29 6.36148 13.4205C6.36091 13.5275 6.26306 13.6725 6.26919 13.8112C6.27763 14.0134 6.4189 13.9692 6.44534 14.078C6.45561 14.1214 6.53357 14.9241 6.53469 14.9694C6.54026 15.3138 6.34689 15.3437 6.32998 15.6184C6.28386 16.38 6.44012 17.1619 6.49917 17.8664C6.52559 18.181 6.51435 18.5092 6.48342 18.8229C5.98852 18.3289 5.60336 19.4223 6.37777 19.0133C6.2676 19.3624 6.47666 19.6098 6.44131 19.9407C6.41825 20.1547 6.31087 20.3028 6.31369 20.6083C6.31936 21.1505 6.62458 21.7436 6.0729 21.8995C6.17016 22.536 5.97004 23.0873 6.45706 23.3167C6.48681 23.4808 6.19672 23.9014 6.15731 24.0855C6.12019 24.2596 5.98921 25.5953 5.9819 25.8139C5.97459 26.0324 5.96663 26.4149 6.00936 26.599C6.02648 26.6738 6.091 26.7414 6.15039 26.8125C6.2854 26.8417 6.33797 26.6864 6.0099 26.9262C6.10585 26.9713 6.09808 26.9811 6.1875 27.051C6.20862 27.0542 6.23036 27.0575 6.2528 27.0609C6.3334 27.0734 6.34251 27.161 6.38959 27.1611C6.48658 27.1611 6.65161 27.0963 6.82474 27.0884C7.10946 27.0755 7.27194 27.26 7.24021 26.9782C7.42791 26.9309 7.61562 26.8837 7.80332 26.8365C7.86917 26.8908 7.93502 26.9452 8.00087 26.9996C8.10123 26.9403 8.20159 26.8811 8.30195 26.8218C8.18407 27.2296 8.89041 26.9889 8.66107 26.755C9.02494 26.8393 9.38881 26.9237 9.75268 27.008C9.70191 27.4714 10.5516 27.0615 10.4801 26.8095C10.5217 26.8099 10.5634 26.8103 10.605 26.8106C10.9695 26.9338 11.3042 26.8331 11.7485 26.9157C12.1928 26.9984 12.1511 27.0435 12.2862 27.2567C12.3907 27.2445 12.4953 27.2323 12.5998 27.2201C13.1484 26.6357 13.0514 27.6474 13.9908 27.1992C14.2909 27.5665 15.0308 27.3735 15.5213 27.2622C15.5784 27.2492 15.5794 27.178 15.6554 27.156C15.8413 27.1031 16.3155 27.1948 16.2993 26.9648C16.4635 27.0313 16.6276 27.0979 16.7918 27.1644C16.926 27.1226 17.0602 27.0808 17.1944 27.039C17.1937 26.9672 17.193 26.8954 17.1923 26.8236C17.4626 27.0683 17.8871 26.9743 18.0966 27.0328C18.1383 27.0446 18.1473 27.1436 18.2768 27.1706C18.4282 27.2027 18.7104 27.1734 18.8909 27.2043C18.961 27.0946 19.0312 26.985 19.1013 26.8753C19.424 26.8158 19.5374 27.1053 19.7269 27.1278C19.761 27.1317 20.3834 27.1109 20.4169 27.1047C20.6915 27.0557 20.6137 26.8091 21.4077 26.8619C21.5491 26.8715 21.6635 26.9568 21.7913 26.9602C22.0171 26.9664 22.6974 26.7729 22.7509 26.594C23.0247 26.8179 23.7574 26.7264 23.9732 26.7911C24.0383 26.8109 24.053 26.9535 24.2532 26.9839C24.4155 27.0086 24.8335 26.8944 25.0393 26.9135C25.2578 26.9344 25.3358 27.0541 25.4337 27.0626C25.5262 27.0705 25.6115 26.9738 25.7375 26.9743C26.131 26.9777 26.4873 27.1333 26.7983 27.1362C26.803 27.1363 26.8078 27.1363 26.8125 27.1363C26.9929 27.1274 26.8899 26.7745 26.7344 26.7791C26.7478 26.7957 26.8071 26.8146 26.8079 26.8132C26.8082 26.8134 26.8086 26.8133 26.809 26.8125C26.8206 25.6334 26.8718 24.3199 26.9309 23.1475C26.9591 22.5835 27.3477 21.1809 26.6993 21.5552C26.5858 21.3592 26.8472 19.934 26.8511 19.6629C26.855 19.3919 26.7388 19.177 26.737 18.964C26.732 18.3211 26.8157 17.8684 26.7145 17.0859C26.688 16.8838 26.5503 16.6673 26.5519 16.5476C26.5542 16.4034 26.6874 16.2483 26.6958 16.0615C26.715 15.6163 26.6711 14.7867 26.6942 14.3596C26.6987 14.2816 26.8157 14.2542 26.8522 14.1427C26.9951 13.7084 26.9827 13.2216 26.6092 13.3077C26.8212 12.751 26.6278 12.2361 26.616 11.7202C26.5918 10.6294 26.679 8.64241 26.5221 7.69215C26.4231 7.09298 26.2556 7.10831 26.4001 6.22614C26.4022 6.21326 26.4044 6.20039 26.4066 6.1875C26.4375 6.25488 26.4972 6.31666 26.562 6.35019C26.6824 6.41449 26.8049 6.27388 26.8125 6.28066C26.6497 6.28508 26.4954 6.33296 26.351 6.4598C25.7327 6.3631 25.2402 6.43168 24.7815 6.11282C24.7274 6.1893 24.6733 6.26577 24.6192 6.34225C24.5434 6.34414 24.4676 6.34603 24.3918 6.34793C24.3682 6.27499 24.3445 6.20205 24.3209 6.12911C23.7778 6.10947 23.0888 6.40926 22.6291 6.40707C21.8584 6.40369 19.8733 6.28723 19.1425 6.18881C18.7545 6.13654 18.7336 6.29276 18.5115 5.97164C18.4247 5.99398 18.3379 6.01632 18.2511 6.03866C18.1968 6.10897 18.1425 6.17929 18.0882 6.2496C17.5904 6.25241 17 6.14319 16.5258 6.14431C15.6617 6.14656 14.3641 6.34008 13.4964 6.21298C13.2788 6.18092 13.0068 6.03592 12.7938 6.03756C12.4837 6.03981 12.4083 6.28044 12.0148 6.28494C11.3365 6.29225 10.0734 6.01271 9.43237 6.03408C9.24197 6.04027 9.15313 6.12981 9.02166 6.13937C8.47037 6.18042 8.01775 6.17313 7.48913 6.31149C6.92152 6.0809 6.97055 5.78326 6.79465 5.48293C6.66134 5.25626 6.25256 4.73095 6.19453 4.53243C6.15377 4.39296 6.30596 4.21354 6.24884 4.06002C6.92889 3.93741 7.21458 4.07238 7.76678 4.28835C8.78655 4.27974 9.80631 4.27114 10.8261 4.26253C10.9189 4.34633 11.0116 4.43014 11.1044 4.51394C11.1044 4.51412 11.1044 4.5143 11.1044 4.51449C11.496 4.6112 11.662 4.39538 11.8732 4.3464C13.8952 3.87734 17.875 4.24446 20.101 4.29732C20.5807 4.30857 22.1411 4.19564 22.4703 4.33175C22.5555 4.36719 22.5792 4.49641 22.6699 4.50204C23.4799 4.42519 24.2899 4.34835 25.0999 4.27151C25.6655 4.33969 26.2377 4.3656 26.8125 4.36886C27.7763 4.34955 28.6644 5.19799 28.6655 6.1875C28.6875 6.76775 28.7139 7.34689 28.7245 7.92093C28.8083 12.4618 28.9101 16.9573 28.8792 21.4239C28.873 22.2871 28.9698 23.3825 28.9074 24.2276C28.8815 24.5803 28.674 24.7272 28.8287 25.1905C28.7727 25.1954 28.7168 25.2003 28.6609 25.2051C28.7284 25.6095 28.8556 25.8678 28.8686 26.3212C28.8718 26.4383 28.8749 26.6146 28.8769 26.8125C28.9412 27.7611 28.0154 28.6351 27.5567 28.7269C27.2215 28.8279 27.3187 28.6934 27.0166 28.7409C26.9562 28.7474 26.8878 28.7539 26.8125 28.7575C26.5068 28.7848 26.0011 28.8977 25.6605 28.8977C25.3114 28.8977 24.7229 28.7773 24.4545 28.7948C23.4879 28.8566 22.4351 29.035 21.405 28.9872C21.1205 28.9737 20.7545 28.8382 20.6654 28.842C20.4914 28.8499 20.4395 28.9815 20.3226 28.9984C19.7287 29.0839 18.8029 28.9275 18.2208 28.9213C16.3239 28.9011 14.3144 28.9585 12.4257 28.9343C11.2325 28.9191 9.24951 28.9423 8.14785 28.8433C7.91028 28.8219 7.97361 28.6778 7.77413 28.6778C7.55296 28.6778 7.43317 28.7752 7.32982 28.7831C7.04741 28.8048 6.6304 28.8333 6.1875 28.8537C4.97931 28.9356 4.02506 27.6636 4.14028 26.8125C4.14628 26.7364 4.15376 26.6666 4.16292 26.6044C4.18204 26.4757 4.29499 26.3824 4.29458 26.3054C4.29458 26.2664 4.21749 26.1783 4.20962 26.0559C4.13988 24.9751 4.18483 24.187 4.21126 23.1279C4.26131 21.0996 4.11791 18.7494 4.19552 16.6187C4.21239 16.1544 4.4358 15.836 4.43355 15.7708C4.42905 15.6275 4.27878 15.5358 4.24166 15.2457C4.11965 14.281 4.28 12.9817 4.20467 12.0642C4.16756 11.6108 3.9768 10.9879 3.93459 10.5418C3.90085 10.1855 3.97568 9.34405 3.89193 9.18613C3.84133 9.09004 3.67881 9.0456 3.65847 8.93053ZM6.18826 20.9339C5.92842 20.8704 6.14436 21.5375 6.28384 21.2872C6.31524 21.2308 6.25571 20.9503 6.18826 20.9339ZM27.2629 25.3192C27.1887 25.3253 27.1145 25.3314 27.0403 25.3375C27.0711 25.4251 27.102 25.5126 27.1329 25.6002C27.1775 25.551 27.2221 25.5018 27.2668 25.4526C27.2655 25.4081 27.2642 25.3636 27.2629 25.3192Z" fill="#783D00"/>
<path d="M22.6875 3.09375V7.21875" stroke="#783D00" stroke-width="3" stroke-linecap="round" stroke-linejoin="round"/>
<path d="M10.3125 3.09375V7.21875" stroke="#783D00" stroke-width="3" stroke-linecap="round" stroke-linejoin="round"/>
<path d="M5.15625 11.3438H27.8438" stroke="#783D00" stroke-width="3" stroke-linecap="round" stroke-linejoin="round"/>
<path d="M16.5 18.5625C17.3543 18.5625 18.0469 17.8699 18.0469 17.0156C18.0469 16.1613 17.3543 15.4688 16.5 15.4688C15.6457 15.4688 14.9531 16.1613 14.9531 17.0156C14.9531 17.8699 15.6457 18.5625 16.5 18.5625Z" fill="#783D00"/>
<path d="M22.1719 18.5625C23.0262 18.5625 23.7188 17.8699 23.7188 17.0156C23.7188 16.1613 23.0262 15.4688 22.1719 15.4688C21.3176 15.4688 20.625 16.1613 20.625 17.0156C20.625 17.8699 21.3176 18.5625 22.1719 18.5625Z" fill="#783D00"/>
<path d="M10.8281 23.7188C11.6824 23.7188 12.375 23.0262 12.375 22.1719C12.375 21.3176 11.6824 20.625 10.8281 20.625C9.97381 20.625 9.28125 21.3176 9.28125 22.1719C9.28125 23.0262 9.97381 23.7188 10.8281 23.7188Z" fill="#783D00"/>
<path d="M16.5 23.7188C17.3543 23.7188 18.0469 23.0262 18.0469 22.1719C18.0469 21.3176 17.3543 20.625 16.5 20.625C15.6457 20.625 14.9531 21.3176 14.9531 22.1719C14.9531 23.0262 15.6457 23.7188 16.5 23.7188Z" fill="#783D00"/>
<path d="M22.1719 23.7188C23.0262 23.7188 23.7188 23.0262 23.7188 22.1719C23.7188 21.3176 23.0262 20.625 22.1719 20.625C21.3176 20.625 20.625 21.3176 20.625 22.1719C20.625 23.0262 21.3176 23.7188 22.1719 23.7188Z" fill="#783D00"/>
</svg>
