<svg width="90" height="91" viewBox="0 0 90 91" fill="none" xmlns="http://www.w3.org/2000/svg">
<g filter="url(#filter0_di_1648_443)">
<path d="M36.766 2.58311C41.8903 0.904889 47.4163 0.904889 52.5406 2.58311V2.58311C53.7427 2.97677 54.9725 3.27989 56.2197 3.48992V3.48992C61.537 4.38532 66.4301 6.95339 70.1875 10.8208V10.8208C71.0689 11.7279 72.017 12.5679 73.0238 13.3335V13.3335C77.3159 16.5974 80.455 21.1452 81.9848 26.3158V26.3158C82.3436 27.5286 82.7928 28.7129 83.3285 29.8587V29.8587C85.6121 34.7434 86.2782 40.2291 85.2299 45.5184V45.5184C84.984 46.7591 84.8313 48.0164 84.7731 49.2799V49.2799C84.5252 54.6664 82.5656 59.8333 79.1794 64.0295V64.0295C78.3851 65.0138 77.6655 66.0562 77.0269 67.148V67.148C74.3041 71.8022 70.1678 75.4666 65.2194 77.6085V77.6085C64.0586 78.1109 62.9371 78.6995 61.8642 79.3694V79.3694C57.2904 82.2252 51.925 83.5477 46.5479 83.1445V83.1445C45.2866 83.05 44.02 83.05 42.7587 83.1445V83.1445C37.3817 83.5477 32.0162 82.2252 27.4425 79.3694V79.3694C26.3696 78.6995 25.248 78.1109 24.0873 77.6085V77.6085C19.1388 75.4666 15.0025 71.8022 12.2798 67.148V67.148C11.6411 66.0562 10.9216 65.0138 10.1273 64.0295V64.0295C6.74099 59.8333 4.78144 54.6664 4.53349 49.28V49.28C4.47533 48.0164 4.32266 46.7591 4.07675 45.5184V45.5184C3.02844 40.2291 3.69453 34.7434 5.97818 29.8587V29.8587C6.51386 28.7129 6.963 27.5286 7.32185 26.3158V26.3158C8.85165 21.1452 11.9908 16.5974 16.2829 13.3335V13.3335C17.2897 12.5679 18.2377 11.7279 19.1191 10.8208V10.8208C22.8766 6.95339 27.7696 4.38532 33.0869 3.48992V3.48992C34.3342 3.27989 35.564 2.97677 36.766 2.58311V2.58311Z" fill="#E4002B"/>
</g>
<path d="M43.3354 53H36.5158V31.9342H43.5514C45.6155 31.9342 47.3881 32.3559 48.8693 33.1994C50.3505 34.036 51.4854 35.2394 52.274 36.8098C53.0695 38.3732 53.4672 40.2487 53.4672 42.4362C53.4672 44.6306 53.066 46.5164 52.2637 48.0936C51.4683 49.6707 50.3162 50.8845 48.8076 51.7348C47.299 52.5783 45.4749 53 43.3354 53ZM39.6942 50.2228H43.1606C44.7652 50.2228 46.0989 49.921 47.1618 49.3176C48.2247 48.7073 49.0202 47.8261 49.5482 46.6741C50.0762 45.5152 50.3402 44.1026 50.3402 42.4362C50.3402 40.7836 50.0762 39.3813 49.5482 38.2292C49.027 37.0772 48.2487 36.2029 47.2133 35.6063C46.1778 35.0097 44.892 34.7114 43.356 34.7114H39.6942V50.2228Z" fill="white"/>
<circle cx="44.1533" cy="43" r="31.5" stroke="url(#paint0_linear_1648_443)" stroke-width="3"/>
<defs>
<filter id="filter0_di_1648_443" x="-0.000152349" y="1.32422" width="89.3069" height="89.077" filterUnits="userSpaceOnUse" color-interpolation-filters="sRGB">
<feFlood flood-opacity="0" result="BackgroundImageFix"/>
<feColorMatrix in="SourceAlpha" type="matrix" values="0 0 0 0 0 0 0 0 0 0 0 0 0 0 0 0 0 0 127 0" result="hardAlpha"/>
<feOffset dy="3.59293"/>
<feGaussianBlur stdDeviation="1.79646"/>
<feComposite in2="hardAlpha" operator="out"/>
<feColorMatrix type="matrix" values="0 0 0 0 0 0 0 0 0 0 0 0 0 0 0 0 0 0 0.25 0"/>
<feBlend mode="normal" in2="BackgroundImageFix" result="effect1_dropShadow_1648_443"/>
<feBlend mode="normal" in="SourceGraphic" in2="effect1_dropShadow_1648_443" result="shape"/>
<feColorMatrix in="SourceAlpha" type="matrix" values="0 0 0 0 0 0 0 0 0 0 0 0 0 0 0 0 0 0 127 0" result="hardAlpha"/>
<feOffset dy="3.59293"/>
<feGaussianBlur stdDeviation="0.898231"/>
<feComposite in2="hardAlpha" operator="arithmetic" k2="-1" k3="1"/>
<feColorMatrix type="matrix" values="0 0 0 0 1 0 0 0 0 1 0 0 0 0 1 0 0 0 0.3 0"/>
<feBlend mode="normal" in2="shape" result="effect2_innerShadow_1648_443"/>
</filter>
<linearGradient id="paint0_linear_1648_443" x1="44.1533" y1="37.5" x2="44.1533" y2="76" gradientUnits="userSpaceOnUse">
<stop stop-color="#FFFBEB"/>
<stop offset="1" stop-color="#FFFBEB" stop-opacity="0"/>
</linearGradient>
</defs>
</svg>
