<svg width="18" height="28" viewBox="0 0 18 28" fill="none" xmlns="http://www.w3.org/2000/svg">
<path d="M9.01728 28C8.22286 27.1911 7.18901 25.7227 6.56573 24.7763C2.80367 19.0632 -3.14178 10.0726 2.00737 3.50906C3.4734 1.60331 5.649 0.3618 8.04583 0.0632289C13.1507 -0.557857 17.3809 3.48305 17.952 8.38542C18.3117 11.4741 16.5943 16.9057 14.6453 19.3508C13.5326 21.6065 12.1524 23.6372 10.7203 25.6948C10.224 26.521 9.61775 27.2464 9.01728 28ZM9.6668 13.4385C11.9257 13.0737 13.4651 10.9684 13.1145 8.7234C12.7639 6.47851 10.6544 4.93468 8.39032 5.26597C6.1021 5.60078 4.52675 7.72179 4.88106 9.99048C5.23548 12.2593 7.3839 13.8072 9.6668 13.4385Z" fill="#151F6D"/>
</svg>
