<svg width="138" height="139" viewBox="0 0 138 139" fill="none" xmlns="http://www.w3.org/2000/svg">
<g filter="url(#filter0_g_1476_540)">
<path d="M61.3588 5.98203C65.9151 2.67166 72.0849 2.67165 76.6412 5.98202L126.982 42.5565C131.538 45.8669 133.445 51.7347 131.704 57.091L112.476 116.27C110.736 121.626 105.744 125.253 100.112 125.253H37.8879C32.2559 125.253 27.2645 121.626 25.5241 116.27L6.29578 57.091C4.55542 51.7347 6.46197 45.8669 11.0183 42.5565L61.3588 5.98203Z" fill="url(#paint0_linear_1476_540)"/>
</g>
<g filter="url(#filter1_i_1476_540)">
<path d="M92.5625 41.0554H85.3438V38.6491C85.3438 38.0109 85.0902 37.3989 84.639 36.9476C84.1877 36.4964 83.5757 36.2429 82.9375 36.2429C82.2993 36.2429 81.6873 36.4964 81.236 36.9476C80.7848 37.3989 80.5312 38.0109 80.5312 38.6491V41.0554H56.4688V38.6491C56.4688 38.0109 56.2152 37.3989 55.764 36.9476C55.3127 36.4964 54.7007 36.2429 54.0625 36.2429C53.4243 36.2429 52.8123 36.4964 52.361 36.9476C51.9098 37.3989 51.6562 38.0109 51.6562 38.6491V41.0554H44.4375C43.1611 41.0554 41.9371 41.5624 41.0345 42.4649C40.132 43.3674 39.625 44.5915 39.625 45.8679V93.9929C39.625 95.2692 40.132 96.4933 41.0345 97.3958C41.9371 98.2983 43.1611 98.8054 44.4375 98.8054H92.5625C93.8389 98.8054 95.0629 98.2983 95.9655 97.3958C96.868 96.4933 97.375 95.2692 97.375 93.9929V45.8679C97.375 44.5915 96.868 43.3674 95.9655 42.4649C95.0629 41.5624 93.8389 41.0554 92.5625 41.0554ZM55.2656 86.7741C54.5518 86.7741 53.8539 86.5624 53.2604 86.1658C52.6668 85.7692 52.2042 85.2055 51.931 84.546C51.6578 83.8865 51.5863 83.1607 51.7256 82.4606C51.8649 81.7604 52.2086 81.1173 52.7134 80.6125C53.2182 80.1077 53.8613 79.764 54.5615 79.6247C55.2616 79.4854 55.9873 79.5569 56.6469 79.8301C57.3064 80.1033 57.8701 80.5659 58.2667 81.1595C58.6633 81.753 58.875 82.4509 58.875 83.1647C58.875 84.122 58.4947 85.0401 57.8178 85.7169C57.1409 86.3938 56.2229 86.7741 55.2656 86.7741ZM68.5 86.7741C67.7861 86.7741 67.0883 86.5624 66.4947 86.1658C65.9012 85.7692 65.4386 85.2055 65.1654 84.546C64.8922 83.8865 64.8207 83.1607 64.96 82.4606C65.0992 81.7604 65.443 81.1173 65.9478 80.6125C66.4526 80.1077 67.0957 79.764 67.7958 79.6247C68.496 79.4854 69.2217 79.5569 69.8812 79.8301C70.5408 80.1033 71.1045 80.5659 71.5011 81.1595C71.8977 81.753 72.1094 82.4509 72.1094 83.1647C72.1094 84.122 71.7291 85.0401 71.0522 85.7169C70.3753 86.3938 69.4573 86.7741 68.5 86.7741ZM68.5 74.7429C67.7861 74.7429 67.0883 74.5312 66.4947 74.1346C65.9012 73.738 65.4386 73.1743 65.1654 72.5147C64.8922 71.8552 64.8207 71.1295 64.96 70.4293C65.0992 69.7292 65.443 69.0861 65.9478 68.5813C66.4526 68.0765 67.0957 67.7327 67.7958 67.5935C68.496 67.4542 69.2217 67.5257 69.8812 67.7989C70.5408 68.072 71.1045 68.5347 71.5011 69.1282C71.8977 69.7218 72.1094 70.4196 72.1094 71.1335C72.1094 72.0907 71.7291 73.0088 71.0522 73.6857C70.3753 74.3626 69.4573 74.7429 68.5 74.7429ZM81.7344 86.7741C81.0205 86.7741 80.3227 86.5624 79.7291 86.1658C79.1356 85.7692 78.6729 85.2055 78.3997 84.546C78.1266 83.8865 78.0551 83.1607 78.1944 82.4606C78.3336 81.7604 78.6774 81.1173 79.1822 80.6125C79.6869 80.1077 80.3301 79.764 81.0302 79.6247C81.7304 79.4854 82.4561 79.5569 83.1156 79.8301C83.7751 80.1033 84.3389 80.5659 84.7355 81.1595C85.1321 81.753 85.3438 82.4509 85.3438 83.1647C85.3438 84.122 84.9635 85.0401 84.2866 85.7169C83.6097 86.3938 82.6916 86.7741 81.7344 86.7741ZM81.7344 74.7429C81.0205 74.7429 80.3227 74.5312 79.7291 74.1346C79.1356 73.738 78.6729 73.1743 78.3997 72.5147C78.1266 71.8552 78.0551 71.1295 78.1944 70.4293C78.3336 69.7292 78.6774 69.0861 79.1822 68.5813C79.6869 68.0765 80.3301 67.7327 81.0302 67.5935C81.7304 67.4542 82.4561 67.5257 83.1156 67.7989C83.7751 68.072 84.3389 68.5347 84.7355 69.1282C85.1321 69.7218 85.3438 70.4196 85.3438 71.1335C85.3438 72.0907 84.9635 73.0088 84.2866 73.6857C83.6097 74.3626 82.6916 74.7429 81.7344 74.7429ZM92.5625 55.4929H44.4375V45.8679H51.6562V48.2741C51.6562 48.9123 51.9098 49.5243 52.361 49.9756C52.8123 50.4268 53.4243 50.6804 54.0625 50.6804C54.7007 50.6804 55.3127 50.4268 55.764 49.9756C56.2152 49.5243 56.4688 48.9123 56.4688 48.2741V45.8679H80.5312V48.2741C80.5312 48.9123 80.7848 49.5243 81.236 49.9756C81.6873 50.4268 82.2993 50.6804 82.9375 50.6804C83.5757 50.6804 84.1877 50.4268 84.639 49.9756C85.0902 49.5243 85.3438 48.9123 85.3438 48.2741V45.8679H92.5625V55.4929Z" fill="white"/>
<path d="M95.8772 49.9715C95.8592 49.688 95.9565 49.2878 95.9616 48.9534C95.9835 47.5907 96.0479 47.0623 96.0866 45.8679C96.0877 45.8433 96.0885 45.8184 96.089 45.7931C96.1225 45.2132 95.8394 44.1034 95.0906 43.3397C94.1064 42.231 92.5655 42.1122 92.5625 41.7358C92.5625 41.7358 92.5625 41.7357 92.5625 41.7357C92.5625 41.7291 92.563 41.7224 92.5639 41.7156C92.5765 41.5819 93.0107 41.4628 93.0984 41.3322C93.1851 41.2059 93.2297 40.2188 94.0365 40.3554C94.7207 40.4702 95.8715 41.1051 96.5357 41.8947C97.0035 42.4173 97.2774 42.9457 97.3989 43.1549C97.6058 43.5065 97.8904 43.9438 98.0381 44.4615C98.1864 44.9805 98.2349 45.4431 98.2415 45.8679C98.2545 46.6611 98.2748 47.3087 98.4345 48.2184C98.3121 48.7477 98.1897 49.277 98.0673 49.8063C98.1241 50.4969 97.9627 51.5435 97.9716 51.9631C97.9789 52.3073 98.0757 52.509 98.0802 52.8677C98.0858 53.2701 97.9813 53.8879 97.997 54.6198C98.0223 55.8196 98.2748 56.0331 98.3069 56.753C98.34 57.4995 98.2028 58.6604 98.2917 59.6129C98.3194 59.7324 98.3472 59.8519 98.375 59.9713C98.4378 59.8858 98.5006 59.8002 98.5634 59.7146C98.5926 60.1943 98.4639 60.4006 98.4616 60.8415C98.4588 61.3602 98.5808 61.6248 98.5802 61.9739C98.5797 62.2598 98.4818 62.6475 98.4879 63.0182C98.4964 63.5587 98.6377 63.4405 98.6641 63.7314C98.6744 63.8475 98.7523 65.9931 98.7534 66.1141C98.759 67.0347 98.5656 67.1149 98.5487 67.849C98.5026 69.885 98.6589 71.975 98.7179 73.8583C98.7443 74.6993 98.7331 75.5767 98.7022 76.4152C98.2073 75.0945 97.8221 78.0174 98.5965 76.9243C98.4864 77.8572 98.6954 78.5187 98.6601 79.4031C98.637 79.9752 98.5296 80.3711 98.5324 81.1879C98.5381 82.6372 98.8433 84.2226 98.2917 84.6394C98.3889 86.3408 98.1888 87.8144 98.6758 88.4276C98.7056 88.8664 98.4155 89.9907 98.3761 90.4828C98.3497 90.8134 98.2759 92.712 98.2328 93.9929C98.2161 94.6088 98.0983 95.0904 98.0513 95.282C97.9163 95.9594 97.3637 97.0318 97.0146 97.4968C96.8824 97.6921 96.7886 97.8942 96.6684 98.0988C96.4254 98.512 96.0216 99.0053 95.0489 99.0474C94.0184 99.566 93.3987 99.64 92.5625 99.6272C92.3471 99.6171 92.1117 99.604 91.8372 99.5882C91.6218 99.5758 91.5974 99.4881 91.4716 99.488C91.2123 99.488 90.7712 99.5528 90.3083 99.5607C89.5473 99.5736 89.1129 99.3892 89.1978 99.6709C88.696 99.7182 88.1942 99.7654 87.6925 99.8126C87.5164 99.7583 87.3404 99.7039 87.1644 99.6495C86.8961 99.7088 86.6278 99.768 86.3596 99.8273C86.6747 99.4196 84.7865 99.6602 85.3996 99.8941C84.4269 99.8098 83.4542 99.7254 82.4816 99.6411C82.6173 99.1777 80.3459 99.5876 80.5371 99.8396C80.4258 99.8392 80.3145 99.8388 80.2032 99.8385C79.2288 99.7153 78.334 99.816 77.1463 99.7334C75.9588 99.6507 76.0702 99.6056 75.7091 99.3924C75.4296 99.4046 75.1502 99.4168 74.8707 99.429C73.4043 100.013 73.6635 99.0017 71.1524 99.4499C70.3501 99.0827 68.3724 99.2756 67.0612 99.3869C66.9086 99.3999 66.906 99.4711 66.7028 99.4931C66.2059 99.546 64.9382 99.4544 64.9815 99.6843C64.5427 99.6178 64.1038 99.5512 63.6649 99.4847C63.3062 99.5265 62.9475 99.5683 62.5888 99.6101C62.5906 99.6819 62.5925 99.7537 62.5943 99.8255C61.872 99.5808 60.737 99.6748 60.1771 99.6164C60.0657 99.6045 60.0416 99.5055 59.6953 99.4785C59.2905 99.4464 58.5362 99.4757 58.0539 99.4448C57.8664 99.5545 57.6789 99.6642 57.4913 99.7738C56.6288 99.8333 56.3256 99.5438 55.8191 99.5213C55.7279 99.5174 54.0641 99.5382 53.9745 99.5444C53.2406 99.5934 53.4485 99.84 51.3259 99.7872C50.9479 99.7776 50.6422 99.6923 50.3006 99.6889C49.6971 99.6827 47.8785 99.8762 47.7355 100.055C47.0035 99.8312 45.045 99.9227 44.4682 99.8581C44.4575 99.8568 44.4473 99.8552 44.4375 99.8531C44.2552 99.8153 44.1759 99.7084 43.5944 99.6023C43.0914 99.5408 41.789 99.1984 41.2623 98.778C40.7645 98.4173 40.6432 98.1536 40.4768 97.9536C40.454 97.9252 40.4306 97.8975 40.4057 97.8701C40.2147 97.658 39.9648 97.5175 39.7387 97.1875C39.0351 96.1443 38.9184 94.9757 38.9176 94.0366C38.9176 94.022 38.9175 94.0074 38.9175 93.9929C38.9159 92.8063 38.6343 91.7561 38.5086 90.7609C38.5271 90.5112 38.5886 90.2659 38.5891 90.0041C38.5981 86.766 38.6509 83.1132 38.7122 79.8654C38.7403 78.3577 39.1289 74.6083 38.4806 75.609C38.367 75.0851 38.6284 71.2752 38.6324 70.5506C38.6363 69.8261 38.52 69.2518 38.5183 68.6823C38.5132 66.9638 38.597 65.7537 38.4958 63.662C38.4693 63.1217 38.3316 62.5428 38.3332 62.2229C38.3354 61.8376 38.4686 61.4228 38.4771 60.9236C38.4962 59.7336 38.4524 57.5158 38.4754 56.3741C38.4799 56.1657 38.5969 56.0925 38.6335 55.7943C38.7763 54.6334 38.7639 53.332 38.3905 53.5623C38.6025 52.0742 38.4091 50.6976 38.3973 49.3186C38.3893 48.3645 38.3933 47.1539 38.3968 45.8679C38.3854 44.3014 39.0734 42.6763 40.1642 41.5946C41.3837 40.3463 42.9887 39.8399 44.1286 39.7415C44.2368 39.7307 44.3396 39.7229 44.4375 39.7173C45.7991 39.6177 45.8813 39.4749 48.1138 39.6117C48.6373 39.6438 49.1584 39.687 49.7933 39.7253C50.4405 39.7644 51.0645 39.845 51.6562 39.893L50.4939 41.0554C50.5562 40.2863 50.5634 39.5715 50.3527 38.9305C50.3582 38.8356 50.3633 38.7418 50.3678 38.6491C50.4009 37.6002 50.8573 36.6875 51.5001 36.0867C52.2378 35.3894 53.2193 35.1076 54.0625 35.2529C54.126 35.2635 54.1887 35.2764 54.2505 35.2915C54.4564 35.2265 54.6753 35.1804 54.9031 35.1566C55.1977 35.2255 55.4837 35.3319 55.752 35.4725C55.8012 35.5813 55.8436 35.6907 55.8793 35.7999C56.0791 35.93 56.2738 36.0819 56.4556 36.256C57.0769 36.8411 57.5284 37.7213 57.5803 38.6491C57.6505 39.4199 57.7206 40.161 57.7196 40.7576C57.7194 40.8504 57.719 40.9499 57.7184 41.0554L56.4688 39.8057C58.7028 39.8184 63.6257 39.9288 65.4912 40.0228C66.5284 40.0751 66.5842 39.9189 67.178 40.24C67.41 40.2176 67.642 40.1953 67.8739 40.1729C68.0191 40.1026 68.1643 40.0323 68.3095 39.962C69.6401 39.9592 71.2184 40.0684 72.486 40.0673C74.7784 40.0651 78.2121 39.8744 80.5312 39.9958L79.4717 41.0554C79.4726 41.0377 79.4736 41.0201 79.4745 41.0025C79.5066 40.4209 79.6516 39.6939 79.6499 39.1243C79.6494 38.9404 79.6372 38.7874 79.6184 38.6491C79.5876 37.9998 79.457 37.4492 80.1622 36.4597C80.2442 36.3551 80.3363 36.2511 80.4386 36.1502C80.9996 35.584 81.9318 35.139 82.9375 35.1787C83.8271 35.2013 84.7269 35.6114 85.3239 36.2627C85.9721 36.952 86.2553 37.8708 86.2324 38.6491C86.2226 39.0007 86.2181 39.3222 86.2216 39.6001C86.2278 40.1091 86.3173 40.3465 86.3269 40.698C86.3302 40.8188 86.3333 40.9378 86.3361 41.0554L85.3438 40.063C86.6598 40.0314 87.7858 40.0271 89.0831 39.9001C90.6004 40.1307 90.4693 40.4283 90.9395 40.7287C91.2959 40.9553 92.3886 41.4807 92.5437 41.6792C92.6527 41.8187 92.2458 41.9981 92.3985 42.1516C90.5807 42.2742 89.817 42.1392 88.3409 41.9233C87.3418 41.9264 86.3428 41.9296 85.3438 41.9327L84.4776 41.9436L84.4664 41.0554C84.4639 40.2533 84.4613 39.4512 84.4588 38.6491C84.4582 38.2504 84.2922 37.856 84.009 37.5776C83.877 37.4468 83.721 37.3409 83.5511 37.2666C83.4426 37.1268 83.3002 36.9985 83.1285 36.8955C83.1285 36.8954 83.1286 36.8952 83.1286 36.895C83.0628 36.8793 82.9988 36.8701 82.9375 36.8661C82.2745 36.8516 82.0674 37.2351 81.8545 37.4763C81.8409 37.4926 81.8276 37.5092 81.8145 37.5261C81.579 37.8275 81.4357 38.2324 81.4682 38.6491C81.5029 39.4004 81.5279 40.2077 81.5451 41.0554L81.5577 42.0563L80.5312 42.0692C74.9139 42.1833 67.5237 41.9551 62.9289 41.9143C61.6466 41.903 57.4754 42.016 56.5956 41.8799C56.5469 41.8723 56.5058 41.8604 56.4688 41.8464L55.6878 41.8563L55.6777 41.0554C55.7293 40.9192 55.8101 40.8393 55.8145 40.6487C55.7909 39.9822 55.7672 39.3156 55.7436 38.6491C55.7227 38.2082 55.5196 37.7897 55.2038 37.5078C54.8896 37.2233 54.4676 37.0782 54.0625 37.1022C53.9088 37.1106 53.758 37.1421 53.6161 37.1946C53.375 37.2499 53.1442 37.3695 52.9551 37.5417C52.6507 37.8155 52.4615 38.2262 52.4549 38.6491C52.4443 39.4489 52.4417 40.2514 52.4441 41.0554L52.4539 41.8332L51.6562 41.8432C49.2486 41.8507 46.829 41.9042 44.4375 41.9287C44.204 41.9316 43.9716 41.9549 43.7434 41.9978C42.9591 42.144 42.2261 42.5361 41.6718 43.1022C40.9498 43.8316 40.5404 44.8509 40.553 45.8679C40.6226 55.7319 40.6857 65.5207 40.6604 75.2579C40.6543 77.5654 40.7511 80.4936 40.6886 82.7526C40.6628 83.6954 40.4552 84.0882 40.6099 85.3267C40.554 85.3397 40.4981 85.3527 40.4422 85.3658C40.5097 86.4466 40.6369 87.1373 40.6498 88.3491C40.6605 89.3696 40.6688 92.0694 40.6474 92.9712C40.6368 93.4389 40.5323 93.2646 40.5328 93.7007C40.533 93.7874 40.5351 93.8855 40.5387 93.9929C40.5366 94.6685 40.9733 95.6889 41.4225 96.2372C41.5191 96.367 41.6346 96.5138 41.7692 96.6612C42.2269 97.192 42.9981 97.6364 43.4411 97.7236C43.764 97.7997 44.1006 97.8316 44.4375 97.8171C46.6638 97.7412 49.02 97.6217 51.3332 97.6619C52.0938 97.6754 53.0721 97.8109 53.3103 97.8071C53.7755 97.7992 53.9142 97.6676 54.2267 97.6507C55.8142 97.5652 58.2889 97.7216 59.845 97.7278C64.9157 97.7481 70.2873 97.6906 75.3362 97.7148C78.5259 97.73 83.8266 97.7068 86.7715 97.8058C87.4065 97.8272 87.2373 97.9713 87.7705 97.9713C88.3617 97.9713 88.6819 97.8739 88.9582 97.866C89.8294 97.8409 91.1797 97.8069 92.5625 97.7866C93.6586 97.782 94.6843 97.2239 95.2471 96.6774C95.3649 96.5681 95.4675 96.4616 95.5566 96.3639C95.7393 96.1632 95.9401 96.0492 96.0227 95.8998C96.064 95.824 96.0874 95.6202 96.1735 95.3732C96.3364 94.9049 96.4037 94.439 96.3981 93.9929C96.377 91.9288 96.4092 90.1501 96.43 87.9231C96.4801 82.5012 96.3367 76.2188 96.4143 70.5229C96.4311 69.2819 96.6546 68.4309 96.6523 68.2563C96.6478 67.8734 96.4975 67.6283 96.4604 66.8527C96.3384 64.2739 96.4988 60.8009 96.4234 58.3481C96.3863 57.1363 96.1955 55.4711 96.1533 54.2786C96.1196 53.3262 96.1944 51.0768 96.1107 50.6547C96.0601 50.3978 95.8976 50.279 95.8772 49.9715ZM98.407 82.058C98.1472 81.8884 98.3631 83.6716 98.5026 83.0026C98.534 82.8519 98.4745 82.1019 98.407 82.058ZM39.0442 85.6706C38.9699 85.687 38.8957 85.7033 38.8215 85.7196C38.8524 85.9537 38.8833 86.1878 38.9142 86.4219C38.9588 86.2903 39.0034 86.1588 39.048 86.0272C39.0467 85.9084 39.0454 85.7895 39.0442 85.6706ZM56.8144 88.0314C56.783 88.0603 56.7032 87.983 56.6595 87.9902C56.4743 88.0191 56.3916 87.969 56.2236 87.9647C55.983 87.9721 55.2539 88.1409 55.2656 87.4545C55.2656 87.4545 55.2656 87.4545 55.2656 87.4545C55.2656 87.4479 55.2657 87.4411 55.2658 87.4344C55.2686 87.3057 55.3189 87.1648 55.3233 87.019C55.3276 86.8732 55.3113 85.9333 55.3559 85.879C55.4193 85.8089 55.6101 86.0329 55.652 86.0153C55.6781 86.0043 55.6979 85.9149 55.7278 85.8944C55.8229 85.8283 55.8965 85.8754 55.9255 85.6278C55.9916 85.7368 56.0625 85.8437 56.138 85.9483C56.1704 85.879 56.2995 86.0045 56.3289 85.9837C56.3522 85.967 56.3316 85.8712 56.3552 85.8568C56.3812 85.8403 56.4667 85.9178 56.5134 85.879C56.5896 85.8155 56.4896 85.5822 56.5192 85.5307C56.5488 85.4777 56.6908 85.5547 56.7023 85.4422C56.6947 85.4142 56.6868 85.3862 56.6787 85.3584C56.6397 85.3088 56.6011 85.259 56.5628 85.2089C56.5726 85.168 56.6542 85.2684 56.6802 85.2537C56.7107 85.2363 56.6545 85.1265 56.6726 85.1142C56.6874 85.1043 56.7658 85.168 56.7818 85.148C56.8051 85.1195 56.7117 85.013 56.7093 84.9812C56.71 84.9687 56.7576 84.8261 56.7608 84.8205C56.7966 84.7803 56.9331 84.9171 56.9791 84.8957C56.9831 84.8938 56.9869 84.8918 56.9905 84.8896C57.1058 84.8208 57.0783 84.623 57.0947 84.5031C57.1031 84.447 57.141 84.4113 57.1942 84.3851C57.5618 84.7299 58.0021 84.7523 57.3004 84.4143C57.4262 84.4197 57.266 84.2784 57.3216 84.2489C57.3581 84.2289 57.4657 84.2544 57.486 84.2049C57.5234 84.1119 57.2697 83.9193 57.7979 84.0802C57.7461 83.9389 57.9668 83.8865 57.5042 83.7288C57.4816 83.6979 57.7803 83.6923 57.8257 83.6639C57.8708 83.6435 58.0351 83.4067 58.0424 83.3609C58.053 83.3188 58.064 83.2428 58.0216 83.2063C58.0047 83.1914 57.9403 83.1778 57.881 83.1647C57.7568 83.1356 57.655 83.1174 58.0521 83.0484C57.9998 82.9564 58.014 82.9253 58.0722 82.8291C58.0826 82.8117 58.1693 82.7989 58.1682 82.7892C58.1656 82.7691 58.0968 82.7447 58.0835 82.7117C58.0617 82.6582 58.2362 82.5906 57.9607 82.6499C57.9075 82.6231 57.8539 82.5982 57.8001 82.5753C57.8503 82.5512 57.9003 82.5264 57.95 82.5009C57.8877 82.4961 57.8256 82.4925 57.7636 82.4903C58.1638 82.4061 57.893 82.3351 57.6817 82.4462C57.744 82.3601 57.8022 82.2684 57.8554 82.1717C58.2926 82.0144 57.8422 81.998 57.6196 82.1205C57.6169 82.1135 57.6141 82.1064 57.6113 82.0993C57.695 81.9863 57.577 81.9744 57.6096 81.8626C57.64 81.7483 57.6818 81.7321 57.85 81.5978C57.828 81.585 57.8059 81.5727 57.7838 81.5606C57.6492 81.6133 57.5994 81.6248 57.5926 81.6099C57.5735 81.5683 57.9623 81.2509 57.5979 81.3343C57.8478 81.0562 57.5828 81.0424 57.4319 81.0494C57.4142 81.0497 57.3632 81.0995 57.3365 81.1039C57.2731 81.1143 57.2644 80.9806 57.1115 81.1528C57.1332 81.0823 57.1527 81.0107 57.1702 80.9381C57.1219 80.9518 57.0743 80.9666 57.0273 80.9825C56.9823 81.0384 56.9373 81.0943 56.8923 81.1503C57.0066 80.9277 56.8799 80.9502 56.8812 80.8798C56.8813 80.8654 56.937 80.7834 56.9302 80.7459C56.9223 80.7014 56.8571 80.6935 56.8416 80.6474C56.771 80.7326 56.7016 80.8187 56.6336 80.9058C56.5529 80.9266 56.6778 80.665 56.6537 80.626C56.6496 80.6185 56.5272 80.5788 56.5183 80.5822C56.4516 80.6011 56.3697 80.7994 56.2685 80.7436C56.2606 80.7393 56.2525 80.7336 56.2442 80.7262C56.2237 80.7077 56.2341 80.6203 56.212 80.6084C56.1714 80.5859 55.9892 80.7308 55.9331 80.9015C55.9517 80.6726 55.7983 80.729 55.7748 80.6593C55.7672 80.6375 55.7928 80.497 55.7598 80.46C55.7323 80.4296 55.6354 80.5299 55.6002 80.5065C55.5621 80.4808 55.5593 80.3603 55.5405 80.3499C55.5227 80.3403 55.4974 80.4351 55.4734 80.4327C55.3992 80.4236 55.3336 80.2659 55.2685 80.2629C55.1738 80.2584 55.1058 80.5487 55.053 80.6809C55.0352 80.6638 55.0128 80.6042 54.995 80.6055C54.9196 80.6103 54.8404 80.6138 54.759 80.6178C54.6031 80.6253 54.4388 80.6357 54.2825 80.6538C54.1795 80.6587 53.7451 80.4457 54.1151 80.9848C54.1409 81.0958 53.7942 81.001 53.7468 81.0339C53.7032 81.0603 53.7422 81.1767 53.7142 81.2009C53.6382 81.2674 53.5344 81.2684 53.4942 81.3934C53.49 81.4071 53.4866 81.4222 53.4844 81.439C53.4782 81.4833 53.5549 81.6035 53.5411 81.6166C53.524 81.6322 53.4063 81.5644 53.3786 81.5842C53.3129 81.6314 53.2626 81.7733 53.2041 81.8228C53.193 81.8316 53.0921 81.7723 53.0501 81.7703C52.8854 81.763 52.8485 81.8566 53.1847 82.0204C52.9519 82.0038 53.0838 82.1768 53.0634 82.2578C53.0318 82.3734 52.944 82.5406 52.9337 82.7009C52.9278 82.7847 52.9425 82.8637 52.9908 82.9221C53.0804 83.0299 53.2466 83.0284 53.0999 83.1588C53.0678 83.1887 53.025 83.2198 52.9883 83.2596C52.9015 83.3472 52.6049 83.4839 52.9847 83.5024C52.9047 83.62 52.9879 83.68 52.7005 83.8411C52.777 83.8314 52.8534 83.8208 52.9296 83.8094C52.9348 83.8214 52.9402 83.8334 52.9457 83.8452C52.8768 83.8696 52.8081 83.8944 52.7395 83.9195C52.7484 84.0077 52.9784 84.0351 53.0677 84.0751C53.0853 84.0834 53.0977 84.0928 53.1024 84.1044C53.1433 84.2231 53.2125 84.5703 53.2237 84.7365C53.2268 84.8256 53.3486 84.7269 53.1297 84.9659C53.1578 84.9645 53.1858 84.9628 53.2136 84.9607C53.2734 84.9222 53.3327 84.8832 53.3915 84.8434C53.4513 84.9064 53.45 85.0594 53.5175 85.118C53.5966 85.1873 53.7547 85.2077 53.8683 85.256C53.9301 85.2826 53.9803 85.3192 54.0059 85.3849C54.0234 85.4318 54.0005 85.584 54.0387 85.6013C54.0941 85.6263 54.2097 85.4151 54.2734 85.4384C54.3769 85.4787 54.5118 85.818 54.6452 85.8249C54.6827 85.8272 54.718 85.7431 54.7435 85.7386C54.8506 85.7183 54.935 85.7375 55.0404 85.6085C55.1195 85.8466 55.0999 86.1423 55.1249 86.4444C55.1417 86.6725 55.2423 87.1998 55.2635 87.3979C55.2765 87.5374 55.2278 87.7167 55.2452 87.8703C55.017 87.9904 54.9167 87.847 54.7674 87.6142C54.446 87.5869 54.1267 87.5246 53.8169 87.4284C53.8159 87.3396 53.8166 87.251 53.8189 87.1627C53.819 87.1625 53.819 87.1624 53.8191 87.1622C53.7436 87.0317 53.6198 87.2134 53.5386 87.2326C53.2737 87.2974 52.9634 87.2125 52.6803 87.034C52.1332 86.6992 51.7623 86.0426 51.5485 85.6445C51.4693 85.52 51.1313 85.1314 51.2189 84.9768C51.2404 84.9379 51.3558 84.8793 51.3502 84.8522C51.3363 84.8362 51.3226 84.82 51.3089 84.8036C51.1578 84.6231 51.0189 84.4254 50.8954 84.2126C50.9695 83.6627 50.775 83.1597 50.8091 82.6165C50.8163 82.5058 50.8274 82.3952 50.8426 82.2849C50.9623 81.4019 51.3569 80.5405 51.9845 79.8836C52.2949 79.5573 52.66 79.282 53.0596 79.0772C53.3077 78.9478 53.6098 78.7172 53.8984 78.6962C54.0192 78.6871 54.1148 78.8752 54.223 78.6903C54.2372 78.7444 54.2514 78.7985 54.2655 78.8526C54.3097 78.814 54.3453 78.7679 54.3823 78.7241C54.4356 78.6611 54.4917 78.6026 54.5773 78.5819C54.6985 78.5496 55.0295 78.5131 55.1406 78.5346C55.1981 78.5439 55.1787 78.6488 55.2307 78.6477C55.318 78.6444 55.5161 78.5054 55.6445 78.5168C55.7609 78.5254 55.9349 78.6696 56.0214 78.6674C56.3341 78.6562 56.7293 78.5787 57.0366 78.7542C57.0512 78.7625 57.065 78.7747 57.0781 78.7891C57.1405 78.8578 57.1807 78.9772 57.2034 78.9844C57.2578 79.001 57.3302 78.89 57.3732 78.8923C57.5944 78.9038 57.7876 79.1996 57.9379 79.3142C58.3981 79.6539 58.8632 80.0599 59.1772 80.5511C59.2063 80.5964 59.234 80.6422 59.2603 80.6885C59.4646 81.0259 59.7436 81.6351 59.728 82.0118C59.7264 82.0922 59.5813 82.1063 59.5956 82.1671C59.611 82.2344 59.7138 82.2518 59.728 82.2831C59.8223 82.4742 59.9555 82.9169 59.891 83.1647C59.885 83.1896 59.8773 83.2123 59.8678 83.2323C59.8481 83.2741 59.7343 83.3007 59.7338 83.3248C59.7334 83.337 59.8094 83.368 59.8151 83.408C59.8639 83.7607 59.7775 84.0151 59.6667 84.3364C59.4602 84.9447 59.2255 85.7048 58.702 86.1776C58.5889 86.2807 58.3579 86.1953 58.3463 86.2104C58.3408 86.2172 58.3398 86.2276 58.3414 86.2405C58.3478 86.293 58.3966 86.3895 58.3626 86.4624C58.2183 86.7695 57.7817 86.8939 57.5688 87.1014C57.464 87.2067 57.3678 87.4711 57.2437 87.5722C57.1462 87.6557 56.8516 87.6869 56.8271 87.7815C56.8121 87.84 56.8479 87.9993 56.8144 88.0314ZM57.6241 84.2042C57.8578 84.3195 57.7083 84.1176 57.5609 84.1086C57.5283 84.1057 57.5639 84.1738 57.6241 84.2042ZM54.6052 80.2091C54.6226 80.2812 54.64 80.3534 54.6573 80.4256C54.6675 80.3917 54.6783 80.3578 54.6898 80.324C54.671 80.2823 54.6518 80.2407 54.6322 80.1992C54.6232 80.2025 54.6142 80.2058 54.6052 80.2091ZM70.0487 88.0314C70.0174 88.0603 69.9376 87.983 69.8939 87.9902C69.7087 88.0191 69.626 87.969 69.458 87.9647C69.2173 87.9721 68.4883 88.1409 68.5 87.4545C68.5 87.4545 68.5 87.4545 68.5 87.4545C68.5 87.4479 68.5001 87.4411 68.5002 87.4344C68.503 87.3057 68.5533 87.1648 68.5577 87.019C68.562 86.8732 68.5457 85.9333 68.5902 85.879C68.6537 85.8089 68.8445 86.0329 68.8863 86.0153C68.9124 86.0043 68.9322 85.9149 68.9622 85.8944C69.0573 85.8283 69.1309 85.8754 69.1599 85.6278C69.226 85.7368 69.2969 85.8437 69.3724 85.9483C69.4048 85.879 69.5339 86.0045 69.5633 85.9837C69.5865 85.967 69.566 85.8712 69.5896 85.8568C69.6156 85.8403 69.7011 85.9178 69.7477 85.879C69.824 85.8155 69.724 85.5822 69.7536 85.5307C69.7832 85.4777 69.9252 85.5547 69.9367 85.4422C69.9291 85.4142 69.9212 85.3862 69.9131 85.3584C69.8741 85.3088 69.8355 85.259 69.7972 85.2089C69.807 85.168 69.8885 85.2684 69.9145 85.2537C69.9451 85.2363 69.8889 85.1265 69.9069 85.1142C69.9217 85.1043 70.0002 85.168 70.0162 85.148C70.0394 85.1195 69.9461 85.013 69.9437 84.9812C69.9444 84.9687 69.992 84.8261 69.9952 84.8205C70.0309 84.7803 70.1675 84.9171 70.2135 84.8957C70.2174 84.8938 70.2212 84.8918 70.2249 84.8896C70.3402 84.8208 70.3126 84.623 70.3291 84.5031C70.3375 84.447 70.3753 84.4113 70.4285 84.3851C70.7962 84.7299 71.2365 84.7523 70.5348 84.4143C70.6606 84.4197 70.5004 84.2784 70.556 84.2489C70.5925 84.2289 70.7001 84.2544 70.7204 84.2049C70.7578 84.1119 70.5041 83.9193 71.0323 84.0802C70.9805 83.9389 71.2012 83.8865 70.7386 83.7288C70.716 83.6979 71.0147 83.6923 71.0601 83.6639C71.1052 83.6435 71.2695 83.4067 71.2768 83.3609C71.2874 83.3188 71.2984 83.2428 71.2559 83.2063C71.2391 83.1914 71.1747 83.1778 71.1154 83.1647C70.9911 83.1356 70.8894 83.1174 71.2864 83.0484C71.2342 82.9564 71.2484 82.9253 71.3066 82.8291C71.317 82.8117 71.4037 82.7989 71.4025 82.7892C71.4 82.7691 71.3312 82.7447 71.3179 82.7117C71.2961 82.6582 71.4705 82.5906 71.1951 82.65C71.1419 82.6231 71.0883 82.5982 71.0345 82.5753C71.0847 82.5512 71.1347 82.5264 71.1844 82.5009C71.1221 82.4961 71.06 82.4925 70.998 82.4903C71.3982 82.4061 71.1274 82.3351 70.916 82.4462C70.9784 82.3601 71.0366 82.2684 71.0898 82.1717C71.527 82.0144 71.0766 81.998 70.854 82.1205C70.8512 82.1135 70.8485 82.1064 70.8457 82.0993C70.9294 81.9863 70.8114 81.9744 70.844 81.8626C70.8744 81.7483 70.9162 81.7321 71.0844 81.5978C71.0624 81.585 71.0403 81.5727 71.0182 81.5606C70.8835 81.6133 70.8338 81.6248 70.8269 81.6099C70.8079 81.5683 71.1967 81.2509 70.8323 81.3343C71.0822 81.0562 70.8171 81.0424 70.6663 81.0494C70.6485 81.0497 70.5975 81.0995 70.5709 81.1039C70.5075 81.1143 70.4988 80.9806 70.3459 81.1528C70.3675 81.0823 70.3871 81.0107 70.4045 80.9381C70.3563 80.9518 70.3086 80.9666 70.2617 80.9825C70.2167 81.0384 70.1717 81.0943 70.1267 81.1503C70.2409 80.9277 70.1143 80.9502 70.1156 80.8798C70.1157 80.8654 70.1714 80.7834 70.1645 80.7459C70.1567 80.7014 70.0915 80.6935 70.076 80.6474C70.0053 80.7326 69.936 80.8187 69.868 80.9058C69.7872 80.9266 69.9122 80.665 69.888 80.626C69.8839 80.6185 69.7615 80.5788 69.7527 80.5822C69.686 80.6011 69.6041 80.7994 69.5029 80.7436C69.495 80.7393 69.4869 80.7336 69.4786 80.7262C69.4581 80.7077 69.4684 80.6203 69.4463 80.6084C69.4058 80.5859 69.2235 80.7308 69.1675 80.9015C69.1861 80.6726 69.0326 80.729 69.0092 80.6593C69.0016 80.6375 69.0271 80.497 68.9942 80.46C68.9667 80.4296 68.8698 80.5299 68.8346 80.5065C68.7965 80.4808 68.7937 80.3603 68.7749 80.3499C68.757 80.3403 68.7318 80.4351 68.7078 80.4327C68.6336 80.4236 68.568 80.2659 68.5029 80.2629C68.4081 80.2584 68.3402 80.5487 68.2874 80.6809C68.2696 80.6638 68.2472 80.6042 68.2293 80.6055C68.154 80.6103 68.0748 80.6138 67.9934 80.6178C67.8375 80.6253 67.6732 80.6357 67.5168 80.6538C67.4139 80.6587 66.9795 80.4457 67.3494 80.9848C67.3753 81.0958 67.0286 81.001 66.9812 81.0339C66.9375 81.0603 66.9766 81.1767 66.9486 81.2009C66.8725 81.2674 66.7687 81.2684 66.7286 81.3934C66.7243 81.4071 66.721 81.4222 66.7187 81.439C66.7126 81.4833 66.7893 81.6035 66.7754 81.6166C66.7583 81.6322 66.6407 81.5644 66.613 81.5842C66.5472 81.6314 66.4969 81.7733 66.4385 81.8228C66.4274 81.8316 66.3264 81.7723 66.2845 81.7703C66.1198 81.763 66.0829 81.8566 66.419 82.0204C66.1862 82.0038 66.3182 82.1768 66.2978 82.2578C66.2662 82.3734 66.1784 82.5406 66.1681 82.7009C66.1622 82.7847 66.1769 82.8637 66.2252 82.9221C66.3148 83.0299 66.481 83.0284 66.3343 83.1588C66.3021 83.1887 66.2593 83.2198 66.2227 83.2596C66.1358 83.3472 65.8393 83.4839 66.219 83.5024C66.139 83.62 66.2223 83.68 65.9349 83.8411C66.0114 83.8314 66.0878 83.8208 66.1639 83.8094C66.1692 83.8214 66.1746 83.8334 66.18 83.8452C66.1112 83.8696 66.0425 83.8944 65.9738 83.9195C65.9828 84.0077 66.2128 84.0351 66.3021 84.0751C66.3197 84.0834 66.3321 84.0928 66.3367 84.1044C66.3777 84.2231 66.4468 84.5703 66.458 84.7365C66.4612 84.8256 66.5829 84.7269 66.364 84.9659C66.3922 84.9645 66.4201 84.9628 66.448 84.9607C66.5077 84.9222 66.5671 84.8832 66.6259 84.8434C66.6857 84.9064 66.6844 85.0594 66.7519 85.118C66.831 85.1873 66.989 85.2077 67.1027 85.256C67.1645 85.2826 67.2146 85.3192 67.2403 85.3849C67.2578 85.4318 67.2348 85.584 67.273 85.6013C67.3284 85.6263 67.4441 85.4151 67.5078 85.4384C67.6113 85.4787 67.7462 85.818 67.8796 85.8249C67.917 85.8272 67.9523 85.7431 67.9779 85.7386C68.0849 85.7183 68.1694 85.7375 68.2747 85.6085C68.3539 85.8466 68.3343 86.1423 68.3593 86.4444C68.3761 86.6725 68.4767 87.1998 68.4979 87.3979C68.5109 87.5374 68.4622 87.7167 68.4796 87.8703C68.2514 87.9904 68.1511 87.847 68.0017 87.6142C67.6804 87.5869 67.361 87.5246 67.0513 87.4284C67.0503 87.3396 67.051 87.251 67.0533 87.1627C67.0534 87.1625 67.0534 87.1624 67.0535 87.1622C66.978 87.0317 66.8541 87.2134 66.773 87.2326C66.5081 87.2974 66.1977 87.2125 65.9146 87.034C65.3676 86.6992 64.9967 86.0426 64.7829 85.6445C64.7037 85.52 64.3657 85.1314 64.4533 84.9768C64.4748 84.9379 64.5902 84.8793 64.5846 84.8522C64.5707 84.8362 64.557 84.82 64.5433 84.8036C64.3922 84.6231 64.2532 84.4254 64.1297 84.2126C64.2038 83.6627 64.0094 83.1597 64.0435 82.6165C64.0506 82.5058 64.0618 82.3952 64.077 82.2849C64.1966 81.4019 64.5913 80.5405 65.2189 79.8836C65.5293 79.5573 65.8943 79.282 66.2939 79.0772C66.5421 78.9478 66.8442 78.7172 67.1327 78.6962C67.2536 78.6871 67.3491 78.8752 67.4574 78.6903C67.4716 78.7444 67.4858 78.7985 67.4999 78.8526C67.5441 78.814 67.5797 78.7679 67.6167 78.7241C67.6699 78.6611 67.726 78.6026 67.8116 78.5819C67.9329 78.5496 68.2639 78.5131 68.375 78.5346C68.4325 78.5439 68.4131 78.6488 68.4651 78.6477C68.5524 78.6444 68.7505 78.5054 68.8789 78.5168C68.9952 78.5254 69.1693 78.6696 69.2558 78.6674C69.5685 78.6562 69.9637 78.5787 70.271 78.7542C70.2855 78.7625 70.2994 78.7747 70.3124 78.7891C70.3749 78.8578 70.415 78.9772 70.4378 78.9844C70.4922 79.001 70.5646 78.89 70.6076 78.8923C70.8288 78.9038 71.022 79.1996 71.1722 79.3142C71.6324 79.6539 72.0975 80.0599 72.4116 80.5511C72.4407 80.5964 72.4684 80.6422 72.4947 80.6885C72.699 81.0259 72.9779 81.6351 72.9624 82.0118C72.9607 82.0922 72.8156 82.1063 72.83 82.1671C72.8454 82.2344 72.9481 82.2518 72.9624 82.2831C73.0566 82.4742 73.1899 82.9169 73.1253 83.1647C73.1193 83.1896 73.1117 83.2123 73.1022 83.2323C73.0825 83.2741 72.9686 83.3007 72.9682 83.3248C72.9677 83.337 73.0438 83.368 73.0495 83.408C73.0983 83.7607 73.0118 84.0151 72.9011 84.3364C72.6946 84.9447 72.4599 85.7048 71.9364 86.1776C71.8233 86.2807 71.5922 86.1953 71.5807 86.2104C71.5752 86.2172 71.5742 86.2276 71.5758 86.2405C71.5822 86.293 71.6309 86.3895 71.597 86.4624C71.4527 86.7695 71.0161 86.8939 70.8032 87.1014C70.6984 87.2067 70.6022 87.4711 70.4781 87.5722C70.3806 87.6557 70.086 87.6869 70.0615 87.7815C70.0465 87.84 70.0823 87.9993 70.0487 88.0314ZM70.8585 84.2042C71.0922 84.3195 70.9426 84.1176 70.7953 84.1086C70.7627 84.1057 70.7983 84.1738 70.8585 84.2042ZM67.8395 80.2091C67.857 80.2812 67.8744 80.3534 67.8916 80.4256C67.9019 80.3917 67.9127 80.3578 67.9241 80.324C67.9054 80.2823 67.8862 80.2407 67.8666 80.1992C67.8576 80.2025 67.8485 80.2058 67.8395 80.2091ZM70.0487 76.0002C70.0174 76.029 69.9376 75.9517 69.8939 75.959C69.7087 75.9878 69.626 75.9378 69.458 75.9334C69.2173 75.9408 68.4883 76.1096 68.5 75.4233C68.5 75.4233 68.5 75.4232 68.5 75.4232C68.5 75.4166 68.5001 75.4099 68.5002 75.4031C68.503 75.2744 68.5533 75.1335 68.5577 74.9878C68.562 74.8419 68.5457 73.902 68.5902 73.8478C68.6537 73.7776 68.8445 74.0017 68.8863 73.984C68.9124 73.973 68.9322 73.8837 68.9622 73.8632C69.0573 73.797 69.1309 73.8442 69.1599 73.5965C69.226 73.7055 69.2969 73.8124 69.3724 73.917C69.4048 73.8477 69.5339 73.9732 69.5633 73.9524C69.5865 73.9358 69.566 73.8399 69.5896 73.8255C69.6156 73.809 69.7011 73.8865 69.7477 73.8478C69.824 73.7842 69.724 73.551 69.7536 73.4994C69.7832 73.4465 69.9252 73.5234 69.9367 73.4109C69.9291 73.3829 69.9212 73.355 69.9131 73.3272C69.8741 73.2776 69.8355 73.2277 69.7972 73.1776C69.807 73.1367 69.8885 73.2371 69.9145 73.2224C69.9451 73.2051 69.8889 73.0952 69.9069 73.083C69.9217 73.073 70.0002 73.1367 70.0162 73.1167C70.0394 73.0882 69.9461 72.9817 69.9437 72.9499C69.9444 72.9374 69.992 72.7948 69.9952 72.7892C70.0309 72.749 70.1675 72.8858 70.2135 72.8644C70.2174 72.8626 70.2212 72.8606 70.2249 72.8584C70.3402 72.7895 70.3126 72.5918 70.3291 72.4719C70.3375 72.4157 70.3753 72.3801 70.4285 72.3538C70.7962 72.6986 71.2365 72.7211 70.5348 72.3831C70.6606 72.3885 70.5004 72.2472 70.556 72.2176C70.5925 72.1976 70.7001 72.2232 70.7204 72.1736C70.7578 72.0806 70.5041 71.888 71.0323 72.049C70.9805 71.9076 71.2012 71.8552 70.7386 71.6975C70.716 71.6667 71.0147 71.661 71.0601 71.6326C71.1052 71.6122 71.2695 71.3754 71.2768 71.3296C71.2874 71.2875 71.2984 71.2115 71.2559 71.175C71.2391 71.1602 71.1747 71.1466 71.1154 71.1335C70.9911 71.1044 70.8894 71.0862 71.2864 71.0171C71.2342 70.9252 71.2484 70.8941 71.3066 70.7979C71.317 70.7805 71.4037 70.7676 71.4025 70.7579C71.4 70.7378 71.3312 70.7134 71.3179 70.6805C71.2961 70.627 71.4705 70.5594 71.1951 70.6187C71.1419 70.5918 71.0883 70.567 71.0345 70.5441C71.0847 70.52 71.1347 70.4951 71.1844 70.4696C71.1221 70.4648 71.06 70.4613 70.998 70.459C71.3982 70.3749 71.1274 70.3038 70.916 70.415C70.9784 70.3288 71.0366 70.2372 71.0898 70.1404C71.527 69.9831 71.0766 69.9667 70.854 70.0893C70.8512 70.0822 70.8485 70.0751 70.8457 70.0681C70.9294 69.955 70.8114 69.9431 70.844 69.8313C70.8744 69.717 70.9162 69.7008 71.0844 69.5665C71.0624 69.5538 71.0403 69.5414 71.0182 69.5294C70.8835 69.5821 70.8338 69.5936 70.8269 69.5787C70.8079 69.537 71.1967 69.2197 70.8323 69.303C71.0822 69.0249 70.8171 69.0111 70.6663 69.0181C70.6485 69.0185 70.5975 69.0683 70.5709 69.0726C70.5075 69.0831 70.4988 68.9494 70.3459 69.1215C70.3675 69.0511 70.3871 68.9795 70.4045 68.9069C70.3563 68.9206 70.3086 68.9354 70.2617 68.9512C70.2167 69.0072 70.1717 69.0631 70.1267 69.119C70.2409 68.8964 70.1143 68.9189 70.1156 68.8486C70.1157 68.8342 70.1714 68.7522 70.1645 68.7146C70.1567 68.6702 70.0915 68.6622 70.076 68.6162C70.0053 68.7013 69.936 68.7875 69.868 68.8745C69.7872 68.8953 69.9122 68.6338 69.888 68.5947C69.8839 68.5873 69.7615 68.5476 69.7527 68.5509C69.686 68.5698 69.6041 68.7682 69.5029 68.7123C69.495 68.7081 69.4869 68.7024 69.4786 68.695C69.4581 68.6765 69.4684 68.589 69.4463 68.5772C69.4058 68.5546 69.2235 68.6995 69.1675 68.8702C69.1861 68.6413 69.0326 68.6978 69.0092 68.628C69.0016 68.6062 69.0271 68.4657 68.9942 68.4288C68.9667 68.3983 68.8698 68.4986 68.8346 68.4753C68.7965 68.4496 68.7937 68.3291 68.7749 68.3187C68.757 68.309 68.7318 68.4038 68.7078 68.4014C68.6336 68.3923 68.568 68.2346 68.5029 68.2317C68.4081 68.2271 68.3402 68.5175 68.2874 68.6496C68.2696 68.6325 68.2472 68.5729 68.2293 68.5742C68.154 68.5791 68.0748 68.5826 67.9934 68.5866C67.8375 68.5941 67.6732 68.6044 67.5168 68.6225C67.4139 68.6274 66.9795 68.4144 67.3494 68.9535C67.3753 69.0645 67.0286 68.9698 66.9812 69.0027C66.9375 69.029 66.9766 69.1454 66.9486 69.1697C66.8725 69.2361 66.7687 69.2372 66.7286 69.3621C66.7243 69.3758 66.721 69.391 66.7187 69.4077C66.7126 69.4521 66.7893 69.5722 66.7754 69.5853C66.7583 69.601 66.6407 69.5331 66.613 69.553C66.5472 69.6002 66.4969 69.7421 66.4385 69.7915C66.4274 69.8003 66.3265 69.741 66.2845 69.7391C66.1198 69.7317 66.0829 69.8254 66.419 69.9891C66.1862 69.9726 66.3182 70.1455 66.2978 70.2265C66.2662 70.3421 66.1784 70.5093 66.1681 70.6696C66.1622 70.7534 66.1769 70.8325 66.2252 70.8909C66.3148 70.9986 66.481 70.9972 66.3343 71.1276C66.3021 71.1574 66.2593 71.1885 66.2227 71.2284C66.1358 71.3159 65.8393 71.4526 66.219 71.4712C66.139 71.5887 66.2223 71.6487 65.9349 71.8099C66.0114 71.8002 66.0878 71.7896 66.1639 71.7782C66.1692 71.7902 66.1746 71.8021 66.18 71.814C66.1112 71.8384 66.0425 71.8631 65.9738 71.8882C65.9828 71.9765 66.2128 72.0039 66.3021 72.0439C66.3197 72.0522 66.3321 72.0616 66.3367 72.0732C66.3777 72.1919 66.4468 72.5391 66.458 72.7052C66.4612 72.7944 66.5829 72.6956 66.364 72.9346C66.3922 72.9333 66.4201 72.9316 66.448 72.9294C66.5077 72.891 66.5671 72.8519 66.6259 72.8122C66.6857 72.8752 66.6844 73.0282 66.7519 73.0868C66.831 73.1561 66.989 73.1764 67.1027 73.2247C67.1645 73.2514 67.2146 73.2879 67.2403 73.3536C67.2578 73.4005 67.2348 73.5527 67.273 73.5701C67.3284 73.595 67.4441 73.3838 67.5078 73.4071C67.6113 73.4474 67.7462 73.7867 67.8796 73.7936C67.917 73.796 67.9523 73.7118 67.9779 73.7073C68.0849 73.687 68.1694 73.7063 68.2747 73.5773C68.3539 73.8153 68.3343 74.1111 68.3593 74.4132C68.3761 74.6413 68.4767 75.1685 68.4979 75.3667C68.5109 75.5062 68.4622 75.6855 68.4796 75.839C68.2514 75.9592 68.1511 75.8158 68.0017 75.583C67.6804 75.5556 67.361 75.4934 67.0513 75.3972C67.0503 75.3083 67.051 75.2197 67.0533 75.1315C67.0534 75.1313 67.0534 75.1311 67.0535 75.131C66.978 75.0004 66.8541 75.1822 66.773 75.2013C66.5081 75.2662 66.1977 75.1813 65.9146 75.0027C65.3676 74.668 64.9967 74.0113 64.7829 73.6132C64.7037 73.4888 64.3657 73.1001 64.4533 72.9455C64.4748 72.9066 64.5902 72.8481 64.5846 72.8209C64.5707 72.8049 64.557 72.7887 64.5433 72.7724C64.3922 72.5918 64.2532 72.3942 64.1297 72.1813C64.2038 71.6314 64.0094 71.1285 64.0435 70.5853C64.0506 70.4745 64.0618 70.3639 64.077 70.2537C64.1966 69.3706 64.5913 68.5093 65.2189 67.8524C65.5293 67.526 65.8943 67.2507 66.2939 67.046C66.5421 66.9165 66.8442 66.686 67.1327 66.665C67.2536 66.6558 67.3491 66.8439 67.4574 66.6591C67.4716 66.7132 67.4858 66.7673 67.4999 66.8214C67.5441 66.7828 67.5797 66.7367 67.6167 66.6929C67.6699 66.6299 67.726 66.5714 67.8116 66.5507C67.9329 66.5184 68.2639 66.4818 68.375 66.5034C68.4325 66.5127 68.4131 66.6175 68.4651 66.6164C68.5524 66.6132 68.7505 66.4742 68.8789 66.4856C68.9952 66.4941 69.1693 66.6384 69.2558 66.6361C69.5685 66.625 69.9637 66.5475 70.271 66.7229C70.2855 66.7313 70.2994 66.7434 70.3124 66.7579C70.3749 66.8266 70.415 66.9459 70.4378 66.9531C70.4922 66.9698 70.5646 66.8588 70.6076 66.861C70.8288 66.8725 71.022 67.1684 71.1722 67.283C71.6324 67.6227 72.0975 68.0286 72.4116 68.5198C72.4407 68.5651 72.4684 68.611 72.4947 68.6573C72.699 68.9946 72.9779 69.6039 72.9624 69.9806C72.9607 70.0609 72.8156 70.075 72.83 70.1359C72.8454 70.2031 72.9481 70.2205 72.9624 70.2518C73.0566 70.4429 73.1899 70.8857 73.1253 71.1335C73.1193 71.1583 73.1117 71.181 73.1022 71.2011C73.0825 71.2429 72.9686 71.2694 72.9682 71.2935C72.9677 71.3057 73.0438 71.3368 73.0495 71.3767C73.0983 71.7294 73.0118 71.9839 72.9011 72.3051C72.6946 72.9134 72.4599 73.6735 71.9364 74.1463C71.8233 74.2494 71.5922 74.164 71.5807 74.1792C71.5752 74.186 71.5742 74.1963 71.5758 74.2093C71.5822 74.2618 71.6309 74.3583 71.597 74.4312C71.4527 74.7382 71.0161 74.8626 70.8032 75.0702C70.6984 75.1755 70.6022 75.4398 70.4781 75.541C70.3806 75.6244 70.086 75.6557 70.0615 75.7503C70.0465 75.8087 70.0823 75.9681 70.0487 76.0002ZM70.8585 72.1729C71.0922 72.2883 70.9426 72.0863 70.7953 72.0774C70.7627 72.0744 70.7983 72.1425 70.8585 72.1729ZM67.8395 68.1778C67.857 68.25 67.8744 68.3222 67.8916 68.3943C67.9019 68.3604 67.9127 68.3266 67.9241 68.2927C67.9054 68.251 67.8862 68.2094 67.8666 68.168C67.8576 68.1712 67.8485 68.1745 67.8395 68.1778ZM83.2831 88.0314C83.2518 88.0603 83.172 87.983 83.1283 87.9902C82.943 88.0191 82.8603 87.969 82.6924 87.9647C82.4517 87.9721 81.7227 88.1409 81.7344 87.4545C81.7344 87.4545 81.7344 87.4545 81.7344 87.4545C81.7344 87.4479 81.7344 87.4411 81.7346 87.4344C81.7373 87.3057 81.7877 87.1648 81.792 87.019C81.7963 86.8732 81.78 85.9333 81.8246 85.879C81.8881 85.8089 82.0788 86.0329 82.1207 86.0153C82.1468 86.0043 82.1666 85.9149 82.1966 85.8944C82.2917 85.8283 82.3653 85.8754 82.3943 85.6278C82.4604 85.7368 82.5313 85.8437 82.6068 85.9483C82.6391 85.879 82.7683 86.0045 82.7977 85.9837C82.8209 85.967 82.8004 85.8712 82.824 85.8568C82.8499 85.8403 82.9355 85.9178 82.9821 85.879C83.0584 85.8155 82.9584 85.5822 82.988 85.5307C83.0176 85.4777 83.1596 85.5547 83.1711 85.4422C83.1634 85.4142 83.1556 85.3862 83.1474 85.3584C83.1085 85.3088 83.0699 85.259 83.0316 85.2089C83.0414 85.168 83.1229 85.2684 83.1489 85.2537C83.1795 85.2363 83.1233 85.1265 83.1413 85.1142C83.1561 85.1043 83.2346 85.168 83.2506 85.148C83.2738 85.1195 83.1805 85.013 83.1781 84.9812C83.1787 84.9687 83.2264 84.8261 83.2296 84.8205C83.2653 84.7803 83.4019 84.9171 83.4479 84.8957C83.4518 84.8938 83.4556 84.8918 83.4593 84.8896C83.5745 84.8208 83.547 84.623 83.5635 84.5031C83.5718 84.447 83.6097 84.4113 83.6629 84.3851C84.0305 84.7299 84.4708 84.7523 83.7692 84.4143C83.895 84.4197 83.7347 84.2784 83.7904 84.2489C83.8269 84.2289 83.9345 84.2544 83.9548 84.2049C83.9921 84.1119 83.7384 83.9193 84.2667 84.0802C84.2149 83.9389 84.4355 83.8865 83.973 83.7288C83.9504 83.6979 84.2491 83.6923 84.2945 83.6639C84.3395 83.6435 84.5038 83.4067 84.5112 83.3609C84.5218 83.3188 84.5327 83.2428 84.4903 83.2063C84.4734 83.1914 84.4091 83.1778 84.3497 83.1647C84.2255 83.1356 84.1238 83.1174 84.5208 83.0484C84.4685 82.9564 84.4828 82.9253 84.541 82.8291C84.5514 82.8117 84.6381 82.7989 84.6369 82.7892C84.6343 82.7691 84.5656 82.7447 84.5522 82.7117C84.5305 82.6582 84.7049 82.5906 84.4295 82.65C84.3762 82.6231 84.3227 82.5982 84.2688 82.5753C84.3191 82.5512 84.369 82.5264 84.4187 82.5009C84.3565 82.4961 84.2944 82.4925 84.2324 82.4903C84.6326 82.4061 84.3618 82.3351 84.1504 82.4462C84.2128 82.3601 84.2709 82.2684 84.3242 82.1717C84.7614 82.0144 84.3109 81.998 84.0883 82.1205C84.0856 82.1135 84.0828 82.1064 84.08 82.0993C84.1638 81.9863 84.0458 81.9744 84.0783 81.8626C84.1088 81.7483 84.1506 81.7321 84.3188 81.5978C84.2967 81.585 84.2747 81.5727 84.2525 81.5606C84.1179 81.6133 84.0682 81.6248 84.0613 81.6099C84.0423 81.5683 84.431 81.251 84.0667 81.3343C84.3166 81.0562 84.0515 81.0424 83.9007 81.0494C83.8829 81.0497 83.8319 81.0995 83.8053 81.1039C83.7418 81.1143 83.7332 80.9806 83.5802 81.1528C83.6019 81.0823 83.6215 81.0107 83.6389 80.9381C83.5906 80.9518 83.543 80.9666 83.4961 80.9825C83.4511 81.0384 83.4061 81.0943 83.3611 81.1503C83.4753 80.9277 83.3487 80.9502 83.35 80.8798C83.3501 80.8654 83.4058 80.7834 83.3989 80.7459C83.3911 80.7014 83.3259 80.6935 83.3104 80.6474C83.2397 80.7326 83.1704 80.8187 83.1024 80.9058C83.0216 80.9266 83.1465 80.665 83.1224 80.626C83.1183 80.6185 82.9959 80.5788 82.987 80.5822C82.9204 80.6011 82.8385 80.7994 82.7372 80.7436C82.7294 80.7393 82.7213 80.7336 82.713 80.7262C82.6924 80.7077 82.7028 80.6203 82.6807 80.6084C82.6402 80.5859 82.4579 80.7308 82.4019 80.9015C82.4205 80.6726 82.267 80.729 82.2435 80.6593C82.236 80.6375 82.2615 80.497 82.2285 80.46C82.2011 80.4296 82.1041 80.5299 82.0689 80.5065C82.0308 80.4808 82.0281 80.3603 82.0093 80.3499C81.9914 80.3403 81.9661 80.4351 81.9421 80.4327C81.868 80.4236 81.8023 80.2659 81.7373 80.2629C81.6425 80.2584 81.5746 80.5487 81.5218 80.6809C81.5039 80.6638 81.4816 80.6042 81.4637 80.6055C81.3883 80.6103 81.3092 80.6138 81.2278 80.6178C81.0719 80.6253 80.9076 80.6357 80.7512 80.6538C80.6482 80.6587 80.2138 80.4457 80.5838 80.9848C80.6097 81.0958 80.2629 81.001 80.2155 81.0339C80.1719 81.0603 80.211 81.1767 80.183 81.2009C80.1069 81.2674 80.0031 81.2684 79.963 81.3934C79.9587 81.4071 79.9554 81.4222 79.9531 81.439C79.947 81.4833 80.0237 81.6035 80.0098 81.6166C79.9927 81.6323 79.8751 81.5644 79.8474 81.5842C79.7816 81.6314 79.7313 81.7733 79.6729 81.8228C79.6618 81.8316 79.5608 81.7723 79.5188 81.7703C79.3542 81.763 79.3173 81.8566 79.6534 82.0204C79.4206 82.0038 79.5525 82.1768 79.5322 82.2578C79.5006 82.3734 79.4128 82.5406 79.4025 82.7009C79.3966 82.7847 79.4113 82.8637 79.4596 82.9221C79.5492 83.0299 79.7153 83.0284 79.5686 83.1588C79.5365 83.1887 79.4937 83.2198 79.4571 83.2596C79.3702 83.3472 79.0736 83.4839 79.4534 83.5024C79.3734 83.62 79.4566 83.68 79.1692 83.8411C79.2458 83.8314 79.3221 83.8208 79.3983 83.8094C79.4036 83.8214 79.409 83.8334 79.4144 83.8452C79.3456 83.8696 79.2768 83.8944 79.2082 83.9195C79.2172 84.0077 79.4472 84.0351 79.5365 84.0751C79.5541 84.0834 79.5665 84.0928 79.5711 84.1044C79.6121 84.2231 79.6812 84.5703 79.6924 84.7365C79.6956 84.8256 79.8173 84.7269 79.5984 84.9659C79.6265 84.9645 79.6545 84.9628 79.6823 84.9607C79.7421 84.9222 79.8014 84.8832 79.8602 84.8434C79.92 84.9064 79.9188 85.0594 79.9863 85.118C80.0654 85.1873 80.2234 85.2077 80.3371 85.256C80.3989 85.2826 80.449 85.3192 80.4747 85.3849C80.4921 85.4318 80.4692 85.584 80.5074 85.6013C80.5628 85.6263 80.6785 85.4151 80.7422 85.4384C80.8456 85.4787 80.9806 85.818 81.114 85.8249C81.1514 85.8272 81.1867 85.7431 81.2123 85.7386C81.3193 85.7183 81.4038 85.7375 81.5091 85.6085C81.5883 85.8466 81.5687 86.1423 81.5937 86.4444C81.6105 86.6725 81.7111 87.1998 81.7323 87.3979C81.7452 87.5374 81.6965 87.7167 81.714 87.8703C81.4858 87.9904 81.3855 87.847 81.2361 87.6142C80.9147 87.5869 80.5954 87.5246 80.2856 87.4284C80.2847 87.3396 80.2854 87.251 80.2877 87.1627C80.2877 87.1625 80.2878 87.1624 80.2879 87.1622C80.2124 87.0317 80.0885 87.2134 80.0074 87.2326C79.7424 87.2974 79.4321 87.2125 79.149 87.034C78.602 86.6992 78.2311 86.0426 78.0173 85.6445C77.9381 85.52 77.6001 85.1314 77.6877 84.9768C77.7091 84.9379 77.8246 84.8793 77.8189 84.8522C77.8051 84.8362 77.7913 84.82 77.7777 84.8036C77.6266 84.6231 77.4876 84.4254 77.3641 84.2126C77.4382 83.6627 77.2437 83.1597 77.2779 82.6165C77.285 82.5058 77.2961 82.3952 77.3113 82.2849C77.431 81.4019 77.8257 80.5405 78.4533 79.8836C78.7636 79.5573 79.1287 79.282 79.5283 79.0772C79.7765 78.9478 80.0785 78.7172 80.3671 78.6962C80.488 78.6871 80.5835 78.8752 80.6918 78.6903C80.706 78.7444 80.7202 78.7985 80.7343 78.8526C80.7784 78.814 80.8141 78.7679 80.8511 78.7241C80.9043 78.6611 80.9604 78.6026 81.046 78.5819C81.1673 78.5496 81.4983 78.5131 81.6094 78.5346C81.6669 78.5439 81.6475 78.6488 81.6995 78.6477C81.7868 78.6444 81.9849 78.5054 82.1133 78.5168C82.2296 78.5254 82.4036 78.6696 82.4902 78.6674C82.8029 78.6562 83.1981 78.5787 83.5054 78.7542C83.5199 78.7625 83.5338 78.7747 83.5468 78.7891C83.6093 78.8578 83.6494 78.9772 83.6722 78.9844C83.7265 79.001 83.799 78.89 83.842 78.8923C84.0632 78.9038 84.2564 79.1996 84.4066 79.3142C84.8668 79.6539 85.3319 80.0599 85.646 80.5511C85.6751 80.5964 85.7028 80.6422 85.7291 80.6885C85.9333 81.0259 86.2123 81.6351 86.1968 82.0118C86.1951 82.0922 86.05 82.1063 86.0643 82.1671C86.0798 82.2344 86.1825 82.2518 86.1968 82.2831C86.291 82.4742 86.4243 82.9169 86.3597 83.1647C86.3537 83.1896 86.346 83.2123 86.3366 83.2323C86.3168 83.2741 86.203 83.3007 86.2026 83.3248C86.2021 83.337 86.2781 83.368 86.2839 83.408C86.3326 83.7607 86.2462 84.0151 86.1355 84.3364C85.929 84.9447 85.6943 85.7048 85.1708 86.1776C85.0577 86.2807 84.8266 86.1953 84.8151 86.2104C84.8096 86.2172 84.8086 86.2276 84.8102 86.2405C84.8165 86.293 84.8653 86.3895 84.8314 86.4624C84.687 86.7695 84.2505 86.8939 84.0376 87.1014C83.9328 87.2067 83.8366 87.4711 83.7125 87.5722C83.6149 87.6557 83.3204 87.6869 83.2959 87.7815C83.2809 87.84 83.3166 87.9993 83.2831 88.0314ZM84.0929 84.2042C84.3266 84.3195 84.177 84.1176 84.0297 84.1086C83.9971 84.1057 84.0326 84.1738 84.0929 84.2042ZM81.0739 80.2091C81.0914 80.2812 81.1087 80.3534 81.126 80.4256C81.1363 80.3917 81.1471 80.3578 81.1585 80.324C81.1398 80.2823 81.1206 80.2407 81.101 80.1992C81.0919 80.2025 81.0829 80.2058 81.0739 80.2091ZM83.2831 76.0002C83.2518 76.029 83.172 75.9517 83.1283 75.959C82.943 75.9878 82.8603 75.9378 82.6924 75.9334C82.4517 75.9408 81.7227 76.1096 81.7344 75.4233C81.7344 75.4233 81.7344 75.4232 81.7344 75.4232C81.7344 75.4166 81.7344 75.4099 81.7346 75.4031C81.7373 75.2744 81.7877 75.1335 81.792 74.9878C81.7963 74.8419 81.78 73.902 81.8246 73.8478C81.8881 73.7776 82.0788 74.0017 82.1207 73.984C82.1468 73.973 82.1666 73.8837 82.1966 73.8632C82.2917 73.797 82.3653 73.8442 82.3943 73.5965C82.4604 73.7055 82.5313 73.8124 82.6068 73.917C82.6391 73.8477 82.7683 73.9732 82.7977 73.9524C82.8209 73.9358 82.8004 73.8399 82.824 73.8255C82.8499 73.809 82.9355 73.8865 82.9821 73.8478C83.0584 73.7842 82.9584 73.551 82.988 73.4994C83.0176 73.4465 83.1596 73.5234 83.1711 73.4109C83.1634 73.3829 83.1556 73.355 83.1474 73.3272C83.1085 73.2776 83.0699 73.2277 83.0316 73.1776C83.0414 73.1367 83.1229 73.2371 83.1489 73.2224C83.1795 73.2051 83.1233 73.0952 83.1413 73.083C83.1561 73.073 83.2346 73.1367 83.2506 73.1167C83.2738 73.0882 83.1805 72.9817 83.1781 72.9499C83.1787 72.9374 83.2264 72.7948 83.2296 72.7892C83.2653 72.749 83.4019 72.8858 83.4479 72.8644C83.4518 72.8626 83.4556 72.8606 83.4593 72.8584C83.5745 72.7895 83.547 72.5918 83.5635 72.4719C83.5718 72.4157 83.6097 72.3801 83.6629 72.3538C84.0305 72.6986 84.4708 72.7211 83.7692 72.3831C83.895 72.3885 83.7347 72.2472 83.7904 72.2176C83.8269 72.1976 83.9345 72.2232 83.9548 72.1736C83.9921 72.0806 83.7384 71.888 84.2667 72.049C84.2149 71.9076 84.4355 71.8552 83.973 71.6975C83.9504 71.6667 84.2491 71.661 84.2945 71.6326C84.3395 71.6122 84.5038 71.3754 84.5112 71.3296C84.5218 71.2875 84.5327 71.2115 84.4903 71.175C84.4734 71.1602 84.4091 71.1466 84.3497 71.1335C84.2255 71.1044 84.1238 71.0862 84.5208 71.0171C84.4685 70.9252 84.4828 70.8941 84.541 70.7979C84.5514 70.7805 84.6381 70.7676 84.6369 70.7579C84.6343 70.7378 84.5656 70.7134 84.5522 70.6805C84.5305 70.627 84.7049 70.5594 84.4295 70.6187C84.3762 70.5918 84.3227 70.567 84.2688 70.5441C84.3191 70.52 84.369 70.4951 84.4187 70.4696C84.3565 70.4648 84.2944 70.4613 84.2324 70.459C84.6326 70.3749 84.3618 70.3038 84.1504 70.415C84.2128 70.3288 84.2709 70.2372 84.3242 70.1404C84.7614 69.9831 84.3109 69.9667 84.0883 70.0893C84.0856 70.0822 84.0828 70.0751 84.08 70.0681C84.1638 69.955 84.0458 69.9431 84.0783 69.8313C84.1088 69.717 84.1506 69.7008 84.3188 69.5665C84.2967 69.5538 84.2747 69.5414 84.2525 69.5294C84.1179 69.5821 84.0682 69.5936 84.0613 69.5787C84.0423 69.537 84.431 69.2197 84.0667 69.303C84.3166 69.0249 84.0515 69.0111 83.9007 69.0181C83.8829 69.0185 83.8319 69.0683 83.8053 69.0726C83.7418 69.0831 83.7332 68.9494 83.5802 69.1215C83.6019 69.0511 83.6215 68.9795 83.6389 68.9069C83.5906 68.9206 83.543 68.9354 83.4961 68.9512C83.4511 69.0072 83.4061 69.0631 83.3611 69.119C83.4753 68.8964 83.3487 68.9189 83.35 68.8486C83.35 68.8342 83.4058 68.7522 83.3989 68.7146C83.3911 68.6702 83.3259 68.6622 83.3104 68.6162C83.2397 68.7013 83.1704 68.7875 83.1024 68.8745C83.0216 68.8953 83.1465 68.6338 83.1224 68.5947C83.1183 68.5873 82.9959 68.5476 82.987 68.5509C82.9204 68.5698 82.8385 68.7682 82.7372 68.7123C82.7294 68.7081 82.7213 68.7024 82.713 68.695C82.6924 68.6765 82.7028 68.589 82.6807 68.5772C82.6402 68.5546 82.4579 68.6995 82.4019 68.8702C82.4205 68.6413 82.267 68.6978 82.2435 68.628C82.236 68.6062 82.2615 68.4657 82.2285 68.4288C82.2011 68.3983 82.1041 68.4986 82.0689 68.4753C82.0308 68.4496 82.0281 68.3291 82.0093 68.3187C81.9914 68.309 81.9661 68.4038 81.9421 68.4014C81.868 68.3923 81.8023 68.2346 81.7373 68.2317C81.6425 68.2271 81.5746 68.5175 81.5218 68.6496C81.504 68.6325 81.4816 68.5729 81.4637 68.5742C81.3883 68.5791 81.3092 68.5826 81.2278 68.5866C81.0719 68.5941 80.9076 68.6044 80.7512 68.6225C80.6482 68.6274 80.2138 68.4144 80.5838 68.9535C80.6097 69.0645 80.2629 68.9698 80.2155 69.0027C80.1719 69.029 80.211 69.1454 80.183 69.1697C80.1069 69.2361 80.0031 69.2372 79.963 69.3621C79.9587 69.3758 79.9554 69.391 79.9531 69.4077C79.947 69.4521 80.0237 69.5722 80.0098 69.5853C79.9927 69.601 79.8751 69.5331 79.8474 69.553C79.7816 69.6002 79.7313 69.7421 79.6729 69.7915C79.6618 69.8003 79.5608 69.741 79.5188 69.7391C79.3542 69.7317 79.3173 69.8254 79.6534 69.9891C79.4206 69.9726 79.5525 70.1455 79.5322 70.2265C79.5006 70.3421 79.4128 70.5093 79.4025 70.6696C79.3966 70.7534 79.4113 70.8325 79.4596 70.8909C79.5492 70.9986 79.7153 70.9972 79.5686 71.1276C79.5365 71.1574 79.4937 71.1885 79.4571 71.2284C79.3702 71.3159 79.0736 71.4526 79.4534 71.4712C79.3734 71.5887 79.4566 71.6487 79.1692 71.8099C79.2458 71.8002 79.3221 71.7896 79.3983 71.7782C79.4036 71.7902 79.409 71.8021 79.4144 71.814C79.3456 71.8384 79.2768 71.8631 79.2082 71.8882C79.2172 71.9765 79.4472 72.0039 79.5365 72.0439C79.5541 72.0522 79.5665 72.0616 79.5711 72.0732C79.6121 72.1919 79.6812 72.5391 79.6924 72.7052C79.6956 72.7944 79.8173 72.6956 79.5984 72.9346C79.6265 72.9333 79.6545 72.9316 79.6823 72.9294C79.7421 72.891 79.8014 72.8519 79.8602 72.8122C79.92 72.8752 79.9188 73.0282 79.9863 73.0868C80.0654 73.1561 80.2234 73.1764 80.3371 73.2247C80.3989 73.2514 80.449 73.2879 80.4747 73.3536C80.4921 73.4005 80.4692 73.5527 80.5074 73.5701C80.5628 73.595 80.6785 73.3838 80.7422 73.4071C80.8456 73.4474 80.9806 73.7867 81.114 73.7936C81.1514 73.796 81.1867 73.7118 81.2123 73.7073C81.3193 73.687 81.4038 73.7063 81.5091 73.5773C81.5883 73.8153 81.5687 74.1111 81.5937 74.4132C81.6105 74.6413 81.7111 75.1685 81.7323 75.3667C81.7452 75.5062 81.6965 75.6855 81.714 75.839C81.4858 75.9592 81.3855 75.8158 81.2361 75.583C80.9147 75.5556 80.5954 75.4934 80.2856 75.3972C80.2847 75.3083 80.2854 75.2197 80.2877 75.1315C80.2877 75.1313 80.2878 75.1311 80.2879 75.131C80.2124 75.0004 80.0885 75.1822 80.0074 75.2013C79.7424 75.2662 79.4321 75.1813 79.149 75.0027C78.602 74.668 78.2311 74.0113 78.0173 73.6132C77.9381 73.4888 77.6001 73.1001 77.6877 72.9455C77.7091 72.9066 77.8246 72.8481 77.8189 72.8209C77.8051 72.8049 77.7913 72.7887 77.7777 72.7724C77.6266 72.5918 77.4876 72.3942 77.3641 72.1813C77.4382 71.6314 77.2437 71.1285 77.2779 70.5853C77.285 70.4745 77.2961 70.3639 77.3113 70.2537C77.431 69.3706 77.8257 68.5093 78.4533 67.8524C78.7636 67.526 79.1287 67.2507 79.5283 67.046C79.7765 66.9165 80.0785 66.686 80.3671 66.665C80.488 66.6558 80.5835 66.8439 80.6918 66.6591C80.706 66.7132 80.7202 66.7673 80.7343 66.8214C80.7784 66.7828 80.8141 66.7367 80.8511 66.6929C80.9043 66.6299 80.9604 66.5714 81.046 66.5507C81.1673 66.5184 81.4983 66.4818 81.6094 66.5034C81.6669 66.5127 81.6475 66.6175 81.6995 66.6164C81.7868 66.6132 81.9849 66.4742 82.1133 66.4856C82.2296 66.4941 82.4036 66.6384 82.4902 66.6361C82.8029 66.625 83.1981 66.5475 83.5054 66.7229C83.5199 66.7313 83.5338 66.7434 83.5468 66.7579C83.6093 66.8266 83.6494 66.9459 83.6722 66.9531C83.7265 66.9698 83.799 66.8588 83.842 66.861C84.0632 66.8725 84.2564 67.1684 84.4066 67.283C84.8668 67.6227 85.3319 68.0286 85.646 68.5198C85.6751 68.5651 85.7028 68.611 85.7291 68.6573C85.9333 68.9946 86.2123 69.6039 86.1968 69.9806C86.1951 70.0609 86.05 70.075 86.0643 70.1359C86.0798 70.2031 86.1825 70.2205 86.1968 70.2518C86.291 70.4429 86.4243 70.8857 86.3597 71.1335C86.3537 71.1583 86.346 71.181 86.3366 71.2011C86.3168 71.2429 86.203 71.2694 86.2026 71.2935C86.2021 71.3057 86.2781 71.3368 86.2839 71.3767C86.3326 71.7294 86.2462 71.9839 86.1355 72.3051C85.929 72.9134 85.6943 73.6735 85.1708 74.1463C85.0577 74.2494 84.8266 74.164 84.8151 74.1792C84.8096 74.186 84.8086 74.1963 84.8102 74.2093C84.8165 74.2618 84.8653 74.3583 84.8314 74.4312C84.687 74.7382 84.2505 74.8626 84.0376 75.0702C83.9328 75.1755 83.8366 75.4398 83.7125 75.541C83.6149 75.6244 83.3204 75.6557 83.2959 75.7503C83.2809 75.8087 83.3166 75.9681 83.2831 76.0002ZM84.0929 72.1729C84.3266 72.2883 84.177 72.0863 84.0297 72.0774C83.9971 72.0744 84.0326 72.1425 84.0929 72.1729ZM81.0739 68.1778C81.0914 68.25 81.1087 68.3222 81.126 68.3943C81.1363 68.3604 81.1471 68.3266 81.1585 68.2927C81.1398 68.251 81.1206 68.2094 81.101 68.168C81.0919 68.1712 81.0829 68.1745 81.0739 68.1778ZM94.0603 49.0882C94.0783 49.2439 93.981 49.4636 93.9759 49.6472C93.9534 50.4166 93.8859 50.7016 93.8477 51.3977C93.7909 52.4297 93.9187 55.4928 93.2429 55.4929C93.2429 55.4929 93.2429 55.4929 93.2429 55.4929C93.2362 55.4929 93.2295 55.4926 93.2228 55.492C93.094 55.4812 92.9534 55.2207 92.8078 55.182C92.6622 55.1434 91.7218 55.1724 91.6689 54.8024C91.5993 54.2658 91.8404 52.9788 91.8297 52.6927C91.8223 52.4971 91.7368 52.2562 91.7217 52.0061C91.6727 51.1995 91.7352 50.7775 91.503 50.0508C91.6254 49.7602 91.7478 49.4695 91.8702 49.1789C91.8134 48.7996 91.9748 48.2249 91.9659 47.9945C91.9586 47.8055 91.8618 47.6947 91.8573 47.4977C91.8517 47.2768 91.9562 46.9374 91.9405 46.5355C91.9282 46.2175 91.8631 46.0257 91.7954 45.8679L92.5625 46.635C92.3933 46.7076 92.2633 46.7831 92.0587 46.7997C91.6488 46.8329 91.0113 46.6957 90.4882 46.7845C90.4226 46.8123 90.357 46.8401 90.2914 46.8678C90.3384 46.9306 90.3854 46.9934 90.4324 47.0562C90.1689 47.0855 90.0556 46.9568 89.8135 46.9544C89.5287 46.9516 89.3834 47.0736 89.1917 47.0731C89.0347 47.0725 88.8218 46.9747 88.6182 46.9808C88.3214 46.9892 88.3863 47.1305 88.2265 47.1569C88.1628 47.1672 86.9846 47.2452 86.9181 47.2463C86.4125 47.2519 86.3685 47.0585 85.9654 47.0416C85.7589 47.0331 85.5514 47.0315 85.3438 47.0349L86.5107 45.8679C86.5242 46.6867 86.6156 47.5072 86.6693 48.2741C86.6757 48.416 86.6734 48.5575 86.6627 48.6973C86.6117 49.4173 86.2867 50.1442 85.801 50.6697C85.9598 49.9788 85.4291 50.3042 85.1915 50.5281C85.0211 50.692 84.9424 50.9154 85.4314 50.9087C84.8023 51.3361 84.3938 51.77 83.6427 51.8974C83.3915 51.9331 83.1762 51.9171 82.9375 51.8875C82.7216 51.8591 82.4852 51.8207 82.1768 51.7557C81.4801 51.6183 80.7391 51.2935 80.3591 50.8525C80.1121 50.5739 80.0196 50.2809 80.1363 50.0616C79.704 49.4872 79.593 48.7998 79.5606 48.2741C79.5302 47.9612 79.4505 47.7126 79.2304 47.5605C79.2007 47.3196 79.4908 46.7021 79.5302 46.4319C79.5409 46.3584 79.5593 46.1439 79.5803 45.8679L80.5312 46.8188C79.8475 46.7667 78.7866 46.6987 78.5581 46.6935C78.2373 46.6862 77.6758 46.6782 77.4056 46.721C77.0662 46.7738 76.829 47.2789 76.2247 46.6884C75.5221 46.7362 75.2717 46.7193 74.6183 46.6507C74.5 46.6383 74.4866 46.5506 74.4175 46.5505C74.2751 46.5505 74.0328 46.6153 73.7787 46.6232C73.3607 46.6361 73.1222 46.4517 73.1688 46.7334C72.8933 46.7807 72.6177 46.8279 72.3422 46.8751C72.2455 46.8208 72.1488 46.7664 72.0522 46.712C71.9049 46.7713 71.7575 46.8305 71.6102 46.8898C71.7832 46.4821 70.7464 46.7227 71.083 46.9566C70.5489 46.8723 70.0147 46.7879 69.4806 46.7036C69.5551 46.2402 68.3078 46.6501 68.4128 46.9021C68.3517 46.9017 68.2906 46.9013 68.2294 46.901C67.6944 46.7778 67.203 46.8785 66.5508 46.7959C65.8986 46.7132 65.9598 46.6681 65.7615 46.4549C65.608 46.4671 65.4546 46.4793 65.3011 46.4915C64.4958 47.0759 64.6381 46.0642 63.2592 46.5124C62.8186 46.1452 61.7326 46.3381 61.0125 46.4494C60.9287 46.4624 60.9273 46.5336 60.8157 46.5556C60.5428 46.6085 59.8466 46.5169 59.8704 46.7468C59.6294 46.6803 59.3884 46.6137 59.1474 46.5472C58.9505 46.589 58.7535 46.6308 58.5565 46.6726C58.5575 46.7444 58.5585 46.8162 58.5595 46.888C58.1628 46.6433 57.5396 46.7373 57.2321 46.6789C57.1709 46.667 57.1577 46.568 56.9675 46.541C56.842 46.5229 56.6552 46.5243 56.4688 46.5235L57.1244 45.8679C57.1237 46.0116 57.1216 46.1552 57.1082 46.2705C57.2179 46.3734 57.3275 46.4764 57.4372 46.5794C57.4967 47.0531 57.2072 47.2196 57.1847 47.4977C57.182 47.5325 57.1912 47.9852 57.1992 48.2741C57.2027 48.439 57.1924 48.5632 57.1926 48.5828C57.1875 48.8469 57.2389 48.9544 57.2371 49.1929C57.2228 49.4204 57.1892 49.837 56.6478 50.464C56.5815 50.5372 56.51 50.5968 56.4374 50.649C56.2942 50.7517 56.1491 50.8257 56.0113 50.9245C55.8299 51.0589 55.4638 51.3343 55.0745 51.5237C54.6905 51.7204 54.2964 51.8342 54.2401 51.9258C54.187 51.9092 54.1274 51.8941 54.0625 51.8793C53.3595 51.7916 52.0991 51.2944 51.8419 50.9261C51.7773 50.8527 51.7919 50.7682 51.7173 50.6193C51.6863 50.5561 51.6401 50.4813 51.5705 50.3854C51.3634 50.1452 50.8594 49.4455 50.8089 49.0129C50.7432 48.6141 50.8477 48.4402 50.8696 48.2741C50.8724 48.2603 50.8743 48.2465 50.8751 48.2324C50.883 48.0966 50.7863 47.9714 50.7868 47.7864C50.7902 47.2088 50.9458 46.6858 50.9487 46.2293C50.9495 46.1062 50.9403 45.9859 50.9238 45.8679L51.6562 46.6003C51.1412 46.6721 50.6714 46.8809 50.2219 46.9843C50.0848 46.9657 49.9501 46.9043 49.8064 46.9037C48.0939 46.895 46.1703 46.8458 44.4375 46.7874L45.3571 45.8679C45.3548 45.9344 45.3526 46.0007 45.3503 46.0667C45.3222 46.8946 44.9336 48.9536 45.5819 48.4041C45.6955 48.6918 45.4341 50.784 45.4301 51.1819C45.4262 51.5798 45.5425 51.8952 45.5442 52.2079C45.5493 53.1516 45.4655 53.8161 45.5667 54.9648C45.5828 55.1452 45.6401 55.3335 45.6821 55.4929L44.4375 54.2482C44.5402 54.2212 44.6308 54.2004 44.6997 54.201C44.9113 54.2033 45.1391 54.3365 45.4132 54.3449C46.0667 54.3641 47.2846 54.3202 47.9116 54.3433C48.026 54.3478 48.0662 54.4648 48.2299 54.5013C48.8675 54.6442 49.5821 54.6318 49.4557 54.2583C50.2729 54.4703 51.0288 54.277 51.7861 54.2651C53.3874 54.2409 56.3042 54.3281 57.6991 54.1712C58.5787 54.0722 58.5562 53.9047 59.8511 54.0492C60.1386 54.0813 60.4248 54.1245 60.7734 54.1628C61.5907 54.2527 62.3404 54.5622 62.9633 54.1893C63.871 54.286 64.5939 54.2174 65.2673 54.5363C65.3467 54.4598 65.4261 54.3833 65.5055 54.3069C65.6168 54.305 65.7281 54.3031 65.8394 54.3012C65.8741 54.3741 65.9088 54.4471 65.9435 54.52C66.7407 54.5396 67.7521 54.2399 68.4269 54.242C69.5583 54.2454 72.4723 54.3619 73.5451 54.4603C74.1147 54.5126 74.1453 54.3564 74.4714 54.6775C74.5988 54.6551 74.7262 54.6328 74.8536 54.6104C74.9333 54.5401 75.013 54.4698 75.0928 54.3995C75.8235 54.3967 76.6902 54.5059 77.3863 54.5048C78.6548 54.5025 80.5596 54.309 81.8334 54.4361C82.1528 54.4682 82.552 54.6132 82.8648 54.6115C83.32 54.6093 83.4306 54.3687 84.0083 54.3642C85.0039 54.3569 86.8581 54.6364 87.7992 54.615C88.0787 54.6088 88.2091 54.5193 88.4021 54.5097C89.2113 54.4687 89.8758 54.476 90.6518 54.3376C91.485 54.5682 91.413 54.8658 91.6712 55.1662C91.8669 55.3928 92.467 55.9182 92.5522 56.1167C92.612 56.2562 92.3886 56.4356 92.4725 56.5891C91.4742 56.7117 91.0548 56.5767 90.2442 56.3608C88.7472 56.3694 87.2502 56.378 85.7533 56.3866C85.6171 56.3028 85.4809 56.219 85.3447 56.1352C85.3447 56.135 85.3447 56.1348 85.3447 56.1346C84.7698 56.0379 84.5261 56.2537 84.2161 56.3027C81.2479 56.7718 75.4057 56.4047 72.138 56.3518C71.4338 56.3405 69.1432 56.4535 68.6601 56.3174C68.535 56.2819 68.5002 56.1527 68.3671 56.1471C67.178 56.2239 65.989 56.3008 64.8 56.3776C62.3548 56.1768 59.827 56.3426 57.3633 56.3736C53.0287 56.4281 48.7223 56.4902 44.4375 56.5185L43.436 56.5415L43.4119 55.4929C43.3967 53.1883 43.3912 50.89 43.4021 48.5969C43.4061 47.7671 43.366 46.7911 43.3553 45.8679L43.3311 44.8111L44.4375 44.7857C44.9241 44.7801 45.396 44.7827 45.8242 44.8042C46.3419 44.8301 46.5576 45.0376 47.2378 44.883C47.2449 44.9389 47.2521 44.9948 47.2592 45.0507C47.8528 44.9832 48.2321 44.856 48.8975 44.843C49.4579 44.8324 50.9405 44.824 51.4357 44.8454C51.5795 44.8514 51.6128 44.8868 51.6562 44.9166L52.5851 44.8953L52.6075 45.8679C52.584 45.902 52.5638 45.9425 52.5641 46.0479C52.5658 46.4579 52.7102 47.3338 52.7102 47.8995C52.7102 48.0106 52.7045 48.1383 52.6958 48.2741C52.6541 48.5503 52.7229 48.9243 52.8453 49.0717C52.9053 49.1503 52.9747 49.2221 53.0515 49.2851C53.3353 49.5204 53.7151 49.6206 54.0625 49.5812C54.4044 49.5446 54.7122 49.3871 54.9518 49.1634C54.9778 49.1393 55.003 49.1144 55.0274 49.0887C55.182 48.9425 55.4153 48.7051 55.4268 48.6223C55.4541 48.4724 55.3246 48.4131 55.3131 48.3252C55.3106 48.3084 55.3081 48.2914 55.3056 48.2741C55.2539 47.5871 55.3329 46.641 55.3718 45.8679L55.3472 44.7967L56.4688 44.7709C56.6779 44.7814 56.8744 44.789 57.0497 44.7903C59.8343 44.8106 62.7841 44.7531 65.5567 44.7773C67.3083 44.7925 70.2192 44.7693 71.8364 44.8683C72.1852 44.8897 72.0922 45.0338 72.385 45.0338C72.7097 45.0338 72.8855 44.9364 73.0373 44.9285C74.0875 44.8734 76.4061 44.775 77.3976 44.8745C77.5865 44.8936 77.7235 45.0066 77.8366 45.0062C77.8938 45.0062 78.0232 44.9291 78.2028 44.9212C79.0611 44.8835 79.7935 44.8793 80.5312 44.8876L81.4884 44.8657L81.5115 45.8679C81.5044 46.494 81.4884 47.1238 81.4762 47.8375C81.4738 47.982 81.4718 48.1275 81.4703 48.2741C81.4617 48.6488 81.6162 49.0387 81.8988 49.3128C82.1692 49.5796 82.5537 49.7329 82.9375 49.7234C83.3161 49.7171 83.6875 49.5536 83.9474 49.284C84.2107 49.0148 84.359 48.6437 84.3608 48.2741C84.3635 47.748 84.3703 47.227 84.383 46.7146C84.3915 46.3713 84.4524 46.0824 84.5105 45.8679L84.4918 45.0542L85.3438 45.0346C85.5551 45.0918 85.6941 45.1463 85.7417 45.1452C85.952 45.1407 86.0866 44.9904 86.5125 44.9533C87.9286 44.8313 89.8358 44.9916 91.1828 44.9163C91.5886 44.8936 92.0869 44.8139 92.5625 44.7455L93.6585 44.7204L93.6848 45.8679C93.7286 46.1723 93.7677 46.4673 93.7842 46.7229C93.8179 47.2459 93.7431 48.4812 93.8268 48.713C93.8774 48.854 94.0399 48.9193 94.0603 49.0882ZM81.5554 51.4223C81.6654 51.3284 81.3914 51.2019 81.1535 51.0934C80.9158 50.9883 80.6866 50.9114 80.8577 51.1311C80.9313 51.2416 81.4954 51.4832 81.5554 51.4223ZM47.4266 46.4487C47.4356 46.5229 47.4446 46.5971 47.4535 46.6714C47.5821 46.6405 47.7106 46.6096 47.8392 46.5787C47.7669 46.5341 47.6947 46.4895 47.6224 46.4448C47.5572 46.4461 47.4919 46.4474 47.4266 46.4487Z" fill="#151F6D"/>
</g>
<defs>
<filter id="filter0_g_1476_540" x="2.15943" y="-5.67436e-05" width="133.681" height="128.752" filterUnits="userSpaceOnUse" color-interpolation-filters="sRGB">
<feFlood flood-opacity="0" result="BackgroundImageFix"/>
<feBlend mode="normal" in="SourceGraphic" in2="BackgroundImageFix" result="shape"/>
<feTurbulence type="fractalNoise" baseFrequency="0.028577446937561035 0.028577446937561035" numOctaves="3" seed="6722" />
<feDisplacementMap in="shape" scale="6.9985265731811523" xChannelSelector="R" yChannelSelector="G" result="displacedImage" width="100%" height="100%" />
<feMerge result="effect1_texture_1476_540">
<feMergeNode in="displacedImage"/>
</feMerge>
</filter>
<filter id="filter1_i_1476_540" x="30" y="29.4304" width="77" height="79" filterUnits="userSpaceOnUse" color-interpolation-filters="sRGB">
<feFlood flood-opacity="0" result="BackgroundImageFix"/>
<feBlend mode="normal" in="SourceGraphic" in2="BackgroundImageFix" result="shape"/>
<feColorMatrix in="SourceAlpha" type="matrix" values="0 0 0 0 0 0 0 0 0 0 0 0 0 0 0 0 0 0 127 0" result="hardAlpha"/>
<feOffset dy="-4"/>
<feGaussianBlur stdDeviation="1"/>
<feComposite in2="hardAlpha" operator="arithmetic" k2="-1" k3="1"/>
<feColorMatrix type="matrix" values="0 0 0 0 0.0823529 0 0 0 0 0.121569 0 0 0 0 0.427451 0 0 0 1 0"/>
<feBlend mode="normal" in2="shape" result="effect1_innerShadow_1476_540"/>
</filter>
<linearGradient id="paint0_linear_1476_540" x1="69" y1="0.430362" x2="69" y2="120.43" gradientUnits="userSpaceOnUse">
<stop stop-color="#151F6D"/>
<stop offset="1" stop-color="#151F6D" stop-opacity="0"/>
</linearGradient>
</defs>
</svg>
