<svg width="138" height="139" viewBox="0 0 138 139" fill="none" xmlns="http://www.w3.org/2000/svg">
<g filter="url(#filter0_g_1476_533)">
<path d="M61.3588 5.98203C65.9151 2.67166 72.0849 2.67165 76.6412 5.98202L126.982 42.5565C131.538 45.8669 133.445 51.7347 131.704 57.091L112.476 116.27C110.736 121.626 105.744 125.253 100.112 125.253H37.8879C32.2559 125.253 27.2645 121.626 25.5241 116.27L6.29578 57.091C4.55542 51.7347 6.46197 45.8669 11.0183 42.5565L61.3588 5.98203Z" fill="url(#paint0_linear_1476_533)"/>
</g>
<g filter="url(#filter1_i_1476_533)">
<path d="M66.1625 71.122C65.8904 71.1382 65.6183 71.159 65.3462 71.1846C49.0512 73.9326 38.8339 86.9249 39.002 103.252C39.0173 104.707 40.2983 105.859 41.6741 106.078C51.6406 107.664 62.2095 107.712 72.2922 107.709C72.9763 107.68 73.9692 107.656 75.1695 107.628C81.8708 107.469 95.0436 107.158 97.123 104.894C98.1074 103.823 98.245 102.129 98.1686 100.738C97.7344 92.7068 93.7325 83.9206 87.7281 78.5699C81.8491 73.2647 74.0654 70.5762 66.1625 71.122Z" fill="white"/>
<path d="M73.6387 73.0947C73.459 73.0767 73.2271 72.9334 73.0179 72.8913C72.1418 72.7184 71.8224 72.6085 71.0194 72.4831C69.8237 72.2345 66.2639 72.4289 66.2093 71.8008C66.2093 71.8008 66.2093 71.8008 66.2093 71.8008C66.2089 71.7941 66.2088 71.7874 66.209 71.7806C66.2125 71.6509 66.5157 71.4908 66.5548 71.3433C66.5939 71.1958 66.5034 70.2562 66.9676 70.1832C67.6422 70.0738 69.2567 70.3373 69.6108 70.3542C69.855 70.3585 70.1616 70.2909 70.4758 70.2999C71.4905 70.3336 72.0045 70.4609 72.946 70.3717C73.2896 70.5505 73.6274 70.7351 73.9599 70.9255C74.4371 70.9596 75.1011 71.2783 75.3798 71.3405C75.6096 71.3905 75.7676 71.3315 76.0065 71.3915C76.2748 71.4585 76.6532 71.6735 77.1347 71.8088C77.9229 72.0348 78.1434 71.8507 78.6226 71.9906C79.12 72.1375 79.8117 72.5623 80.4465 72.7504C80.5332 72.7586 80.6199 72.7673 80.7068 72.7764C80.6789 72.6947 80.6506 72.6129 80.6219 72.5312C80.9391 72.6423 81.0152 72.8199 81.2901 72.954C81.6132 73.1129 81.8319 73.0869 82.0488 73.1983C82.2263 73.2899 82.4196 73.5019 82.6487 73.6196C82.9824 73.7926 82.9787 73.6302 83.1691 73.7066C83.2485 73.7292 84.5769 74.4374 84.6448 74.4904C85.1911 74.8366 85.1284 75.03 85.5396 75.3343C86.5659 76.0994 87.6665 76.8219 88.6147 77.5875C88.7108 77.6634 88.8114 77.7454 88.9098 77.828C89.3657 78.2103 89.799 78.6518 90.1836 79.0989C89.1948 78.7803 90.3031 80.5087 90.3518 79.4309C90.7137 79.9822 91.1741 80.1912 91.5438 80.6899C91.7808 81.0132 91.871 81.2938 92.2191 81.7423C92.836 82.5329 93.7073 83.2844 93.4024 83.8288C94.1295 84.7584 94.4525 85.7384 95.0839 85.8744C95.2601 86.127 95.3681 86.9519 95.4823 87.2717C95.6136 87.568 96.5024 89.857 96.6222 90.2385C96.7648 90.6126 97.0018 91.2714 97.1529 91.5764C97.3409 91.9555 97.9229 92.0877 97.5831 92.9872C97.8822 93.8134 97.9483 94.122 98.0794 94.9305C98.1024 95.0768 98.0208 95.1134 98.0406 95.197C98.0815 95.3692 98.2126 95.6497 98.2859 95.9578C98.4066 96.4671 98.2767 96.7931 98.5435 96.684C98.6538 97.0149 98.7589 97.3475 98.8587 97.6834C98.8237 97.8123 98.7878 97.9405 98.7511 98.068C98.8359 98.2421 98.9193 98.4177 99.0012 98.5951C98.5743 98.43 98.9561 99.6917 99.1431 99.249C99.1328 99.7308 99.111 100.212 99.077 100.689C99.0635 100.894 99.0455 101.099 99.0219 101.305C98.5866 101.204 98.8904 102.836 99.1238 102.76C99.1108 102.845 99.0964 102.93 99.0803 103.016C98.8141 103.725 98.7115 104.484 98.018 105.271C97.9338 105.363 97.8559 105.439 97.7851 105.502C97.4834 105.769 97.3196 105.822 97.2087 105.847C97.0953 105.868 97.0039 105.853 96.856 105.831C96.6825 105.945 96.4868 106.053 96.3096 106.143C95.5003 107.078 95.3778 106.081 93.8058 106.903C93.1894 106.664 91.9164 107.075 91.045 107.297C90.9455 107.323 90.9531 107.394 90.8197 107.433C90.4888 107.53 89.6297 107.534 89.6808 107.759C89.3773 107.725 89.0785 107.688 88.7733 107.651C88.538 107.716 88.3011 107.779 88.0617 107.842C88.0692 107.914 88.0767 107.985 88.0842 108.057C87.577 107.856 86.821 108.01 86.4393 107.978C86.3635 107.972 86.339 107.874 86.1054 107.864C85.8321 107.851 85.3259 107.913 85.0006 107.902C84.8813 108.019 84.7617 108.136 84.6418 108.253C84.064 108.346 83.8453 108.067 83.5033 108.062C83.4417 108.062 82.3246 108.137 82.265 108.145C81.7762 108.214 81.924 108.458 80.4952 108.459C80.2435 108.459 80.03 108.381 79.8022 108.385C79.3987 108.393 78.1781 108.623 78.091 108.804C77.5895 108.595 76.2779 108.72 75.8936 108.664C75.7797 108.647 75.7412 108.505 75.3848 108.483C75.3324 108.48 75.2656 108.481 75.1898 108.486C74.8385 108.508 74.2857 108.595 73.9846 108.587C73.5945 108.576 73.4521 108.46 73.2777 108.457C73.1127 108.454 72.9643 108.555 72.7415 108.562C72.6002 108.566 72.4622 108.564 72.3281 108.559L72.2924 108.56C71.7534 108.518 71.2568 108.419 70.813 108.416C70.0071 108.411 69.2953 108.696 68.6197 108.821C68.4519 108.802 68.2881 108.74 68.1124 108.739C65.9399 108.722 63.4873 108.646 61.3065 108.537C60.2933 108.491 57.788 108.02 58.4385 108.69C58.0817 108.796 55.5279 108.43 55.0417 108.396C54.5546 108.368 54.162 108.463 53.7785 108.442C52.6213 108.379 51.8132 108.243 50.3978 108.233C50.0326 108.23 49.6307 108.334 49.4153 108.314C49.1561 108.289 48.8884 108.131 48.5535 108.092C47.7547 108 46.2591 107.885 45.4945 107.768C45.355 107.747 45.3199 107.625 45.1243 107.564C44.3633 107.327 43.4921 107.219 43.595 107.61C42.8804 107.354 42.1781 107.315 41.4868 107.254C41.1505 107.219 40.8234 107.142 40.515 107.022C39.38 106.609 37.7987 105.278 37.7772 103.265C37.7599 101.792 37.8277 100.345 37.8312 99.4063C37.8433 98.2959 37.6588 98.2896 38.053 96.6871C38.1443 96.331 38.2503 95.9821 38.3733 95.5573C38.6643 94.5519 39.1914 93.7208 39.0459 92.8647C39.4523 91.7849 39.6876 90.892 40.2848 90.2122C40.2485 90.0922 40.2129 89.9713 40.1782 89.8496C40.2276 89.7174 40.2779 89.5856 40.3289 89.4542C40.413 89.4407 40.497 89.4276 40.5811 89.4148C40.9719 88.4985 41.2478 87.214 41.6548 86.4556C42.2785 85.1544 44.4413 82.1375 45.4271 81.1973C45.9282 80.6813 45.8416 80.5501 46.3531 80.4577C46.4431 80.324 46.5343 80.1909 46.6267 80.0584C46.6432 79.9371 46.6606 79.8157 46.6788 79.6941C47.3112 79.0178 48.1779 78.3389 48.838 77.7632C50.0235 76.6986 51.8716 75.1205 53.3314 74.4192C53.6956 74.2388 54.2021 74.1179 54.5459 73.9304C55.048 73.6588 55.0606 73.3786 55.7136 73.0531C56.8394 72.4764 59.1184 71.8772 60.2297 71.52C60.5621 71.4077 60.6935 71.2748 60.9214 71.1971C61.8847 70.8713 62.6903 70.677 63.6216 70.3367C64.6895 70.3522 64.6563 70.6715 65.0234 70.9088C65.096 70.9561 65.2055 71.0179 65.3297 71.0871C65.6719 71.3059 66.1048 71.603 66.1873 71.7454C66.2657 71.8803 66.0147 72.0758 66.1229 72.2228C65.8713 72.2657 65.6525 72.2983 65.4533 72.3211L65.536 72.3103C64.8104 72.4494 64.3438 72.419 63.5649 72.4202C61.8305 72.8217 60.1298 73.3573 58.488 74.0319C58.306 74.0152 58.1236 74.0001 57.9408 73.9865C57.9408 73.9863 57.9407 73.9861 57.9406 73.986C57.2688 74.1673 57.0959 74.4885 56.7827 74.6901C53.7212 76.4526 48.0787 80.4633 45.8543 83.7181C45.3186 84.3653 43.9843 86.7242 43.6205 87.1798C43.5191 87.2935 43.3855 87.2694 43.3066 87.4074C42.7152 88.7006 42.2187 90.0303 41.8156 91.3834C40.641 94.0555 40.1843 97.0831 39.9913 100.002C39.9184 101.081 39.8948 102.159 39.9176 103.243C39.9108 104.123 40.847 105.003 41.8249 105.13C47.2886 105.942 52.7898 106.291 58.2774 106.503C59.8146 106.564 61.7692 106.512 63.276 106.596C63.9046 106.631 64.1648 106.843 64.994 106.697C65.0021 106.753 65.0102 106.809 65.0183 106.865C65.7412 106.805 66.2037 106.681 67.0139 106.673C67.6959 106.667 69.5008 106.664 70.1048 106.686C70.4176 106.697 70.3006 106.801 70.5928 106.801C70.9707 106.8 71.674 106.717 72.2919 106.676L72.2486 106.677C72.4522 106.656 72.6455 106.64 72.8155 106.635C73.4483 106.614 74.5054 106.71 74.9854 106.681C75.0394 106.678 75.0926 106.675 75.1469 106.671C76.8303 106.565 78.6402 106.354 80.4227 106.335C80.9289 106.33 81.5862 106.439 81.7454 106.428C82.0571 106.407 82.1408 106.272 82.3484 106.245C83.4006 106.114 85.052 106.178 86.083 106.11C89.38 105.861 93.1822 105.569 95.855 104.465C96.0568 104.369 96.2591 104.233 96.3231 104.159C96.9334 103.562 97.1814 102.113 97.1076 100.797C97.0748 99.9656 97.0117 99.1961 96.961 98.581C96.926 98.1716 97.0839 98.2591 97.0313 97.9151C96.9712 97.5343 96.8379 97.3461 96.7981 97.1706C96.5495 95.9491 95.7372 93.3303 95.4144 92.1987C95.3581 91.9812 95.4085 91.7898 95.3615 91.6636C95.3379 91.5996 95.2124 91.4824 95.1287 91.2861C94.3811 89.5575 93.8357 88.2978 92.9582 86.6745C91.5401 84.0689 89.4268 81.4072 87.0743 79.3036C86.6199 78.8899 86.1649 78.4967 85.708 78.1186C85.0899 77.6075 84.7668 77.1084 84.6724 77.043C84.4654 76.9024 84.2493 76.9317 83.8108 76.6837C82.3623 75.8501 80.4419 74.6581 78.9319 74.1333C78.1911 73.8645 77.1147 73.6823 76.3716 73.5023C75.7815 73.3452 74.398 72.9229 74.1133 72.9556C73.9415 72.9702 73.8341 73.1135 73.6387 73.0947ZM92.4807 82.3001C92.2056 82.357 93.0934 83.2311 92.9407 82.775C92.9071 82.6709 92.5536 82.2837 92.4807 82.3001ZM65.2083 108.265C65.2186 108.339 65.2288 108.414 65.239 108.488C65.3965 108.458 65.5535 108.429 65.711 108.399C65.623 108.354 65.5353 108.309 65.4475 108.263C65.3678 108.264 65.2881 108.264 65.2083 108.265Z" fill="#151F6D"/>
<path d="M87.4465 48.9215C86.6394 38.4645 77.4799 30.6521 67.015 31.4922C56.599 32.3285 48.8214 41.4259 49.6255 51.8354C50.4295 62.2451 59.5095 70.0433 69.9347 69.274C80.4026 68.501 88.2536 59.3783 87.4465 48.9215Z" fill="white"/>
<path d="M85.5445 54.3794C85.5572 54.2478 85.692 54.09 85.7284 53.9388C85.8781 53.3061 85.9809 53.0803 86.0933 52.4971C86.3121 51.628 86.133 49.0386 86.7681 48.9738C86.7681 48.9738 86.7681 48.9738 86.7681 48.9738C86.7747 48.9733 86.7814 48.9731 86.7882 48.9731C86.9176 48.9721 87.0743 49.1944 87.2214 49.2207C87.3685 49.2469 88.3077 49.1596 88.3774 49.5117C88.4807 50.0227 88.2184 51.2493 88.2047 51.5158C88.2016 51.7007 88.2711 51.9339 88.2647 52.174C88.2402 52.9451 88.1208 53.3307 88.2251 54.0584C88.0533 54.3118 87.8768 54.558 87.6958 54.7978C87.6716 55.1634 87.3743 55.645 87.3207 55.8546C87.2776 56.0273 87.3397 56.1556 87.2876 56.3348C87.2294 56.5357 87.0297 56.8069 86.9131 57.1664C86.7185 57.754 86.9039 57.9531 86.7842 58.3136C86.6582 58.6885 86.2742 59.1783 86.1178 59.6597C86.1129 59.7281 86.1077 59.7966 86.1021 59.8652C86.1788 59.8555 86.2556 59.8453 86.3324 59.8347C86.2373 60.074 86.0713 60.1076 85.954 60.3088C85.8149 60.5453 85.847 60.7281 85.7495 60.8867C85.6694 61.0166 85.4773 61.1387 85.3752 61.3065C85.2251 61.5507 85.3766 61.5764 85.3117 61.7203C85.2926 61.781 84.6806 62.7582 84.6346 62.8062C84.334 63.1996 84.1553 63.1097 83.8918 63.3972C83.1588 64.1909 82.4816 65.0843 81.7503 65.7875C81.4254 66.1011 81.0493 66.3878 80.6708 66.6315C80.93 65.8209 79.4723 66.4199 80.389 66.7078C79.9233 66.9084 79.749 67.2779 79.3289 67.5022C79.0573 67.6451 78.8218 67.6641 78.4467 67.8809C77.7862 68.266 77.1406 68.905 76.7117 68.4909C75.9326 68.9499 75.1368 69.0151 74.9816 69.5799C74.7681 69.6851 74.108 69.5836 73.85 69.611C73.6069 69.6631 71.7447 69.9247 71.4427 69.9377C71.1383 69.9769 70.61 70.0305 70.3569 70.0951C70.2334 70.127 70.1296 70.2249 70.0104 70.3002C69.8245 70.4181 69.5957 70.4818 69.2312 70.1341C68.5653 70.2017 68.3235 70.1827 67.7054 70.0926C67.5934 70.0755 67.585 69.9872 67.5198 69.9839C67.3854 69.9772 67.1537 70.0285 66.9125 70.0167C66.514 69.9968 66.3116 69.7853 66.324 70.0708C66.0585 70.0889 65.79 70.1013 65.5211 70.1083C65.4374 70.0406 65.3546 69.9724 65.2728 69.9037C65.1249 69.9392 64.9762 69.9731 64.8255 70.0051C65.0618 69.6389 64.0509 69.6769 64.3144 69.9704C63.8292 69.78 63.353 69.5711 62.8893 69.3452C63.087 68.9285 61.8514 68.9561 61.8561 69.2175C61.8008 69.1975 61.7455 69.1772 61.6904 69.1567C61.252 68.8649 60.7762 68.7829 60.2416 68.4477C59.7113 68.109 59.7876 68.0886 59.7155 67.8155C59.5813 67.7613 59.4473 67.7054 59.3141 67.6481C58.362 67.7872 58.9741 66.9987 57.6531 66.6779C57.5099 66.1472 56.5886 65.7178 55.9981 65.3615C55.9294 65.3209 55.8824 65.3746 55.7878 65.3231C55.5543 65.1981 55.13 64.6869 54.9907 64.8688C54.8679 64.6633 54.7496 64.4566 54.6356 64.2486C54.4745 64.1467 54.3142 64.0419 54.1553 63.9347C54.1038 63.9847 54.0523 64.0347 54.0008 64.0847C53.9162 63.6424 53.4569 63.2618 53.3152 62.9972C53.2872 62.9448 53.3549 62.8722 53.2626 62.7159C53.1546 62.5331 52.8916 62.2433 52.7681 62.0233C52.6221 62.0106 52.4758 61.9961 52.3291 61.9799C52.0161 61.6438 52.1683 61.3471 52.0427 61.1158C52.0161 61.0765 51.5434 60.3525 51.5181 60.3123C51.2889 60.0046 51.1077 60.2298 50.6463 59.2073C50.5666 59.0243 50.5745 58.8425 50.5025 58.6783C50.3705 58.3941 49.8295 57.5813 49.6392 57.5693C49.7025 57.1278 49.2947 56.1756 49.2792 55.8592C49.2737 55.7653 49.404 55.7073 49.3615 55.4291C49.3259 55.2045 49.0798 54.6601 49.0428 54.3719C49.0024 54.0667 49.1017 53.9357 49.0864 53.8013C49.0721 53.6737 48.957 53.5724 48.9306 53.3977C48.85 52.8485 48.9526 52.342 48.9216 51.9096C48.9211 51.903 48.9206 51.8964 48.9201 51.8898C48.8713 51.2749 48.5747 50.7405 48.4525 50.2088C48.472 50.0765 48.5356 49.9493 48.54 49.8107C48.588 48.0981 48.9533 46.1868 49.5187 44.5753C49.753 43.8066 50.8759 42.1651 50.0796 42.3876C50.065 42.0708 51.22 40.3865 51.442 40.0814C51.6426 39.7577 51.7099 39.4399 51.8773 39.1881C52.388 38.432 52.835 37.9714 53.4881 37.0715C53.6576 36.8397 53.7675 36.5201 53.8874 36.3974C54.0318 36.2497 54.2815 36.1852 54.4766 36.0063C54.9353 35.573 55.7991 34.7685 56.3 34.4238C56.3908 34.3601 56.4923 34.4296 56.6401 34.3651C57.214 34.1133 57.7757 33.736 57.4715 33.4885C58.2479 33.2339 58.7794 32.7074 59.4341 32.363C60.7991 31.5922 63.525 30.8002 64.843 30.4465C65.6646 30.2081 65.6315 30.0277 66.8993 30.0518C66.9037 30.0519 66.9081 30.0521 66.9125 30.0522C67.1974 30.0618 67.4799 30.0876 67.8196 30.1135C68.6262 30.1747 69.3278 30.5053 69.9526 30.1748C70.8264 30.3329 71.5376 30.3659 72.1185 30.7947C72.2072 30.7331 72.2966 30.6721 72.3868 30.6117C72.4931 30.6304 72.5992 30.6499 72.7051 30.6703C72.7229 30.7486 72.7404 30.8269 72.7575 30.9052C73.4971 31.0808 74.5176 31.0624 75.1405 31.284C76.2037 31.5987 78.6975 32.9634 79.4765 33.653C79.903 33.9978 80.0166 33.8916 80.084 34.333C80.1954 34.3856 80.3065 34.4393 80.4172 34.4942C80.5203 34.4834 80.6237 34.4734 80.7274 34.4642C81.2913 34.8896 81.853 35.5167 82.3341 35.9776C83.2222 36.8 84.5664 38.0892 85.1393 39.1917C85.2862 39.4653 85.3697 39.8647 85.5251 40.1188C85.7499 40.4904 86.0131 40.4605 86.2832 40.9512C86.7633 41.7958 87.1912 43.5513 87.4612 44.4004C87.5469 44.6527 87.6678 44.7481 87.7278 44.9235C87.9776 45.6599 88.1094 46.2832 88.3727 46.9985C88.2732 47.8291 87.9574 47.799 87.6911 48.073C87.4902 48.283 87.018 48.8729 86.8238 48.9603C86.6889 49.0232 86.4944 48.8426 86.3473 48.9282C86.1493 48.0833 86.2291 47.7215 86.3153 46.9878C86.0641 45.7093 85.6742 44.4599 85.1538 43.2683C85.1842 43.1266 85.213 42.9839 85.24 42.8403C85.2401 42.8402 85.2403 42.8401 85.2405 42.8401C85.1173 42.3371 84.8235 42.24 84.6571 42.0236C83.1978 39.8752 79.99 35.939 77.3939 34.6006C76.8749 34.2609 75.0129 33.556 74.6542 33.313C74.5634 33.2429 74.5773 33.1108 74.4681 33.0673C73.453 32.8007 72.4215 32.6242 71.3886 32.5381C70.0072 32.1819 68.5229 32.1523 67.0809 32.3131C66.3585 32.3929 65.6508 32.5176 64.9533 32.6679C59.2561 33.8662 54.4482 37.9454 52.1456 43.1048C51.6869 44.1005 51.3457 45.4454 51.0599 46.4724C50.9408 46.8987 50.6968 47.0501 50.7577 47.6551C50.7015 47.6528 50.6453 47.6505 50.5891 47.6483C50.5802 48.1726 50.6685 48.5096 50.6384 49.0838C50.6023 49.5641 50.6018 50.847 50.6139 51.2717C50.6152 51.4938 50.506 51.4174 50.5203 51.6257C50.5234 51.6671 50.5289 51.7139 50.5365 51.765C50.592 52.156 50.7769 52.7772 50.8468 53.2025C50.9116 53.6354 50.9469 54.3928 51.0497 54.7208C51.4047 55.9037 52.0212 57.091 52.5527 58.2677C52.6969 58.5931 52.8008 59.0647 52.8604 59.1611C52.9758 59.3494 53.1231 59.3395 53.2124 59.4573C53.6587 60.0559 54.1983 61.0968 54.6671 61.6682C56.1643 63.5447 58.2101 65.1293 60.3162 66.2383C61.6333 66.9828 64.0249 67.7512 65.3915 68.0535C65.6838 68.1255 65.5818 68.2545 65.8341 68.2934C66.1147 68.335 66.2795 68.2564 66.4101 68.264C67.2236 68.328 68.8967 68.2949 69.8596 68.2576C69.9786 68.2553 70.0867 68.2547 70.1812 68.257C70.3457 68.2611 70.4756 68.3607 70.5735 68.3493C70.6233 68.3437 70.7244 68.2547 70.8787 68.2268C72.2306 67.9713 73.2124 67.783 74.4969 67.3723C76.9676 66.5836 79.4802 64.847 81.4084 62.9548C81.8315 62.5461 82.2641 62.3835 82.3186 62.3183C82.4358 62.1753 82.3994 61.9894 82.603 61.6791C83.2857 60.658 84.3036 59.342 84.74 58.2485C84.9632 57.7131 85.0934 56.9131 85.2393 56.3753C85.3675 55.9479 85.7351 54.9575 85.6957 54.7432C85.6762 54.6143 85.5316 54.5221 85.5445 54.3794ZM77.9825 67.9934C77.9408 67.7259 77.2071 68.3437 77.5827 68.309C77.6684 68.3022 77.9949 68.0644 77.9825 67.9934ZM49.1839 47.5947C49.1093 47.5925 49.0346 47.5904 48.9599 47.5885C48.9733 47.7139 48.9878 47.8396 49.0037 47.9639C49.0562 47.9019 49.1092 47.8393 49.1625 47.7779C49.1693 47.7167 49.1765 47.6557 49.1839 47.5947Z" fill="#151F6D"/>
</g>
<defs>
<filter id="filter0_g_1476_533" x="2.15943" y="-5.67436e-05" width="133.681" height="128.752" filterUnits="userSpaceOnUse" color-interpolation-filters="sRGB">
<feFlood flood-opacity="0" result="BackgroundImageFix"/>
<feBlend mode="normal" in="SourceGraphic" in2="BackgroundImageFix" result="shape"/>
<feTurbulence type="fractalNoise" baseFrequency="0.028577446937561035 0.028577446937561035" numOctaves="3" seed="6722" />
<feDisplacementMap in="shape" scale="6.9985265731811523" xChannelSelector="R" yChannelSelector="G" result="displacedImage" width="100%" height="100%" />
<feMerge result="effect1_texture_1476_533">
<feMergeNode in="displacedImage"/>
</feMerge>
</filter>
<filter id="filter1_i_1476_533" x="37.7744" y="28.0496" width="61.3687" height="80.7717" filterUnits="userSpaceOnUse" color-interpolation-filters="sRGB">
<feFlood flood-opacity="0" result="BackgroundImageFix"/>
<feBlend mode="normal" in="SourceGraphic" in2="BackgroundImageFix" result="shape"/>
<feColorMatrix in="SourceAlpha" type="matrix" values="0 0 0 0 0 0 0 0 0 0 0 0 0 0 0 0 0 0 127 0" result="hardAlpha"/>
<feOffset dy="-4"/>
<feGaussianBlur stdDeviation="1"/>
<feComposite in2="hardAlpha" operator="arithmetic" k2="-1" k3="1"/>
<feColorMatrix type="matrix" values="0 0 0 0 0.0823529 0 0 0 0 0.121569 0 0 0 0 0.427451 0 0 0 1 0"/>
<feBlend mode="normal" in2="shape" result="effect1_innerShadow_1476_533"/>
</filter>
<linearGradient id="paint0_linear_1476_533" x1="69" y1="0.430362" x2="69" y2="120.43" gradientUnits="userSpaceOnUse">
<stop stop-color="#151F6D"/>
<stop offset="1" stop-color="#151F6D" stop-opacity="0"/>
</linearGradient>
</defs>
</svg>
